<?xml version="1.0" encoding="UTF-8" standalone="no"?>
<!DOCTYPE svg PUBLIC "-//W3C//DTD SVG 1.1//EN"
 "http://www.w3.org/Graphics/SVG/1.1/DTD/svg11.dtd">
<!-- Generated by graphviz version 2.43.0 (0)
 -->
<!-- Title: %3 Pages: 1 -->
<svg width="302pt" height="336pt"
 viewBox="0.00 0.00 301.50 336.00" xmlns="http://www.w3.org/2000/svg" xmlns:xlink="http://www.w3.org/1999/xlink">
<g id="graph0" class="graph" transform="scale(1 1) rotate(0) translate(4 332)">
<title>%3</title>
<g id="a_graph0"><a xlink:title="Hey! Notice that red nodes are clickable and &#10; tooltips contain additional information!">
<polygon fill="white" stroke="transparent" points="-4,4 -4,-332 297.5,-332 297.5,4 -4,4"/>
</a>
</g>
<!-- function0 -->
<g id="node1" class="node">
<title>function0</title>
<g id="a_node1"><a xlink:href="inspected-f2593-graph-0.svg" xlink:title="original function &#10; contains 2 duplicate subfunctions &#10; contains 2 unique subfunctions &#10; (and is clickable)">
<path fill="red" stroke="red" d="M127,-182C127,-182 12,-182 12,-182 6,-182 0,-176 0,-170 0,-170 0,-156 0,-156 0,-150 6,-144 12,-144 12,-144 127,-144 127,-144 133,-144 139,-150 139,-156 139,-156 139,-170 139,-170 139,-176 133,-182 127,-182"/>
<text text-anchor="middle" x="69.5" y="-166.8" font-family="Times,serif" font-size="14.00">(X) ** (5.0) </text>
<text text-anchor="middle" x="69.5" y="-151.8" font-family="Times,serif" font-size="14.00"> original function</text>
</a>
</g>
</g>
<!-- f2593 -->
<g id="node2" class="node">
<title>f2593</title>
<g id="a_node2"><a xlink:title="Function ID=2593 &#10; contains 1 duplicate subfunctions">
<ellipse fill="lightblue" stroke="lightblue" cx="89.5" cy="-90" rx="31.4" ry="18"/>
<text text-anchor="middle" x="89.5" y="-86.3" font-family="Times,serif" font-size="14.00"> ** 5</text>
</a>
</g>
</g>
<!-- function0&#45;&gt;f2593 -->
<g id="edge1" class="edge">
<title>function0&#45;&gt;f2593</title>
<path fill="none" stroke="black" d="M74.65,-143.72C76.88,-135.8 79.53,-126.38 81.98,-117.71"/>
<polygon fill="black" stroke="black" points="85.37,-118.58 84.71,-108 78.63,-116.68 85.37,-118.58"/>
</g>
<!-- f1 -->
<g id="node5" class="node">
<title>f1</title>
<g id="a_node5"><a xlink:title="Function ID=1 &#10; contains 0 duplicate subfunctions">
<ellipse fill="lightgreen" stroke="lightgreen" cx="129.5" cy="-18" rx="27" ry="18"/>
<text text-anchor="middle" x="129.5" y="-14.3" font-family="Times,serif" font-size="14.00">X</text>
</a>
</g>
</g>
<!-- f2593&#45;&gt;f1 -->
<g id="edge3" class="edge">
<title>f2593&#45;&gt;f1</title>
<g id="a_edge3"><a xlink:title="Function ID=2593 depends on function ID=1">
<path fill="none" stroke="black" d="M98.78,-72.76C103.67,-64.19 109.79,-53.49 115.27,-43.9"/>
<polygon fill="black" stroke="black" points="118.35,-45.57 120.27,-35.15 112.27,-42.09 118.35,-45.57"/>
</a>
</g>
</g>
<!-- function1 -->
<g id="node3" class="node">
<title>function1</title>
<g id="a_node3"><a xlink:href="inspected-f2593-graph-1.svg" xlink:title="1st derivative function &#10; contains 5 duplicate subfunctions &#10; contains 5 unique subfunctions &#10; (and is clickable)">
<path fill="red" stroke="red" d="M275.5,-328C275.5,-328 179.5,-328 179.5,-328 173.5,-328 167.5,-322 167.5,-316 167.5,-316 167.5,-302 167.5,-302 167.5,-296 173.5,-290 179.5,-290 179.5,-290 275.5,-290 275.5,-290 281.5,-290 287.5,-296 287.5,-302 287.5,-302 287.5,-316 287.5,-316 287.5,-322 281.5,-328 275.5,-328"/>
<text text-anchor="middle" x="227.5" y="-312.8" font-family="Times,serif" font-size="14.00">(X) ** (5.0) </text>
<text text-anchor="middle" x="227.5" y="-297.8" font-family="Times,serif" font-size="14.00"> 1st derivative</text>
</a>
</g>
</g>
<!-- f2597 -->
<g id="node4" class="node">
<title>f2597</title>
<g id="a_node4"><a xlink:title="Function ID=2597 &#10; contains 4 duplicate subfunctions">
<ellipse fill="lightblue" stroke="lightblue" cx="227.5" cy="-236" rx="27" ry="18"/>
<text text-anchor="middle" x="227.5" y="-232.3" font-family="Times,serif" font-size="14.00">*</text>
</a>
</g>
</g>
<!-- function1&#45;&gt;f2597 -->
<g id="edge2" class="edge">
<title>function1&#45;&gt;f2597</title>
<path fill="none" stroke="black" d="M227.5,-289.72C227.5,-281.97 227.5,-272.79 227.5,-264.27"/>
<polygon fill="black" stroke="black" points="231,-264 227.5,-254 224,-264 231,-264"/>
</g>
<!-- f2595 -->
<g id="node7" class="node">
<title>f2595</title>
<g id="a_node7"><a xlink:title="Function ID=2595 &#10; contains 2 duplicate subfunctions">
<ellipse fill="lightblue" stroke="lightblue" cx="189.5" cy="-163" rx="32.49" ry="18"/>
<text text-anchor="middle" x="189.5" y="-159.3" font-family="Times,serif" font-size="14.00">5.0 *</text>
</a>
</g>
</g>
<!-- f2597&#45;&gt;f2595 -->
<g id="edge7" class="edge">
<title>f2597&#45;&gt;f2595</title>
<g id="a_edge7"><a xlink:title="Function ID=2597 depends on function ID=2595">
<path fill="none" stroke="black" d="M218.88,-218.89C214.23,-210.21 208.39,-199.29 203.14,-189.49"/>
<polygon fill="black" stroke="black" points="206.16,-187.71 198.35,-180.54 199.99,-191.01 206.16,-187.71"/>
</a>
</g>
</g>
<!-- f2596 -->
<g id="node8" class="node">
<title>f2596</title>
<g id="a_node8"><a xlink:title="Function ID=2596 &#10; contains 0 duplicate subfunctions">
<ellipse fill="lightgreen" stroke="lightgreen" cx="266.5" cy="-163" rx="27" ry="18"/>
<text text-anchor="middle" x="266.5" y="-159.3" font-family="Times,serif" font-size="14.00">1.0</text>
</a>
</g>
</g>
<!-- f2597&#45;&gt;f2596 -->
<g id="edge6" class="edge">
<title>f2597&#45;&gt;f2596</title>
<g id="a_edge6"><a xlink:title="Function ID=2597 depends on function ID=2596">
<path fill="none" stroke="black" d="M236.35,-218.89C241.19,-210.08 247.28,-198.98 252.73,-189.07"/>
<polygon fill="black" stroke="black" points="255.94,-190.5 257.69,-180.05 249.8,-187.13 255.94,-190.5"/>
</a>
</g>
</g>
<!-- f2594 -->
<g id="node6" class="node">
<title>f2594</title>
<g id="a_node6"><a xlink:title="Function ID=2594 &#10; contains 1 duplicate subfunctions">
<ellipse fill="lightblue" stroke="lightblue" cx="179.5" cy="-90" rx="31.4" ry="18"/>
<text text-anchor="middle" x="179.5" y="-86.3" font-family="Times,serif" font-size="14.00"> ** 4</text>
</a>
</g>
</g>
<!-- f2594&#45;&gt;f1 -->
<g id="edge5" class="edge">
<title>f2594&#45;&gt;f1</title>
<g id="a_edge5"><a xlink:title="Function ID=2594 depends on function ID=1">
<path fill="none" stroke="black" d="M168.15,-73.12C161.83,-64.26 153.81,-53.04 146.73,-43.12"/>
<polygon fill="black" stroke="black" points="149.46,-40.92 140.8,-34.82 143.77,-44.99 149.46,-40.92"/>
</a>
</g>
</g>
<!-- f2595&#45;&gt;f2594 -->
<g id="edge4" class="edge">
<title>f2595&#45;&gt;f2594</title>
<g id="a_edge4"><a xlink:title="Function ID=2595 depends on function ID=2594">
<path fill="none" stroke="black" d="M187.08,-144.81C185.95,-136.79 184.58,-127.05 183.31,-118.07"/>
<polygon fill="black" stroke="black" points="186.76,-117.44 181.9,-108.03 179.83,-118.42 186.76,-117.44"/>
</a>
</g>
</g>
</g>
</svg>
