<?xml version="1.0" encoding="UTF-8" standalone="no"?>
<!DOCTYPE svg PUBLIC "-//W3C//DTD SVG 1.1//EN"
 "http://www.w3.org/Graphics/SVG/1.1/DTD/svg11.dtd">
<!-- Generated by graphviz version 2.43.0 (0)
 -->
<!-- Title: %3 Pages: 1 -->
<svg width="445pt" height="554pt"
 viewBox="0.00 0.00 444.50 554.00" xmlns="http://www.w3.org/2000/svg" xmlns:xlink="http://www.w3.org/1999/xlink">
<g id="graph0" class="graph" transform="scale(1 1) rotate(0) translate(4 550)">
<title>%3</title>
<g id="a_graph0"><a xlink:title="Hey! Notice that red nodes are clickable and &#10; tooltips contain additional information!">
<polygon fill="white" stroke="transparent" points="-4,4 -4,-550 440.5,-550 440.5,4 -4,4"/>
</a>
</g>
<!-- function0 -->
<g id="node1" class="node">
<title>function0</title>
<g id="a_node1"><a xlink:href="inspected-f2593-graph-0.svg" xlink:title="original function &#10; contains 2 duplicate subfunctions &#10; contains 2 unique subfunctions &#10; (and is clickable)">
<path fill="red" stroke="red" d="M127,-182C127,-182 12,-182 12,-182 6,-182 0,-176 0,-170 0,-170 0,-156 0,-156 0,-150 6,-144 12,-144 12,-144 127,-144 127,-144 133,-144 139,-150 139,-156 139,-156 139,-170 139,-170 139,-176 133,-182 127,-182"/>
<text text-anchor="middle" x="69.5" y="-166.8" font-family="Times,serif" font-size="14.00">(X) ** (5.0) </text>
<text text-anchor="middle" x="69.5" y="-151.8" font-family="Times,serif" font-size="14.00"> original function</text>
</a>
</g>
</g>
<!-- f2593 -->
<g id="node2" class="node">
<title>f2593</title>
<g id="a_node2"><a xlink:title="Function ID=2593 &#10; contains 1 duplicate subfunctions">
<ellipse fill="lightblue" stroke="lightblue" cx="89.5" cy="-90" rx="31.4" ry="18"/>
<text text-anchor="middle" x="89.5" y="-86.3" font-family="Times,serif" font-size="14.00"> ** 5</text>
</a>
</g>
</g>
<!-- function0&#45;&gt;f2593 -->
<g id="edge1" class="edge">
<title>function0&#45;&gt;f2593</title>
<path fill="none" stroke="black" d="M74.65,-143.72C76.88,-135.8 79.53,-126.38 81.98,-117.71"/>
<polygon fill="black" stroke="black" points="85.37,-118.58 84.71,-108 78.63,-116.68 85.37,-118.58"/>
</g>
<!-- f1 -->
<g id="node7" class="node">
<title>f1</title>
<g id="a_node7"><a xlink:title="Function ID=1 &#10; contains 0 duplicate subfunctions">
<ellipse fill="lightgreen" stroke="lightgreen" cx="189.5" cy="-18" rx="27" ry="18"/>
<text text-anchor="middle" x="189.5" y="-14.3" font-family="Times,serif" font-size="14.00">X</text>
</a>
</g>
</g>
<!-- f2593&#45;&gt;f1 -->
<g id="edge4" class="edge">
<title>f2593&#45;&gt;f1</title>
<g id="a_edge4"><a xlink:title="Function ID=2593 depends on function ID=1">
<path fill="none" stroke="black" d="M108.78,-75.5C124.25,-64.68 146.11,-49.37 163.19,-37.42"/>
<polygon fill="black" stroke="black" points="165.44,-40.12 171.62,-31.51 161.42,-34.38 165.44,-40.12"/>
</a>
</g>
</g>
<!-- function1 -->
<g id="node3" class="node">
<title>function1</title>
<g id="a_node3"><a xlink:href="inspected-f2593-graph-1.svg" xlink:title="1st derivative function &#10; contains 5 duplicate subfunctions &#10; contains 5 unique subfunctions &#10; (and is clickable)">
<path fill="red" stroke="red" d="M290.5,-472C290.5,-472 194.5,-472 194.5,-472 188.5,-472 182.5,-466 182.5,-460 182.5,-460 182.5,-446 182.5,-446 182.5,-440 188.5,-434 194.5,-434 194.5,-434 290.5,-434 290.5,-434 296.5,-434 302.5,-440 302.5,-446 302.5,-446 302.5,-460 302.5,-460 302.5,-466 296.5,-472 290.5,-472"/>
<text text-anchor="middle" x="242.5" y="-456.8" font-family="Times,serif" font-size="14.00">(X) ** (5.0) </text>
<text text-anchor="middle" x="242.5" y="-441.8" font-family="Times,serif" font-size="14.00"> 1st derivative</text>
</a>
</g>
</g>
<!-- f2597 -->
<g id="node4" class="node">
<title>f2597</title>
<g id="a_node4"><a xlink:title="Function ID=2597 &#10; contains 4 duplicate subfunctions">
<ellipse fill="lightblue" stroke="lightblue" cx="257.5" cy="-380" rx="27" ry="18"/>
<text text-anchor="middle" x="257.5" y="-376.3" font-family="Times,serif" font-size="14.00">*</text>
</a>
</g>
</g>
<!-- function1&#45;&gt;f2597 -->
<g id="edge2" class="edge">
<title>function1&#45;&gt;f2597</title>
<path fill="none" stroke="black" d="M246.36,-433.72C248.02,-425.89 249.98,-416.59 251.8,-407.99"/>
<polygon fill="black" stroke="black" points="255.27,-408.51 253.91,-398 248.42,-407.06 255.27,-408.51"/>
</g>
<!-- f2595 -->
<g id="node9" class="node">
<title>f2595</title>
<g id="a_node9"><a xlink:title="Function ID=2595 &#10; contains 2 duplicate subfunctions">
<ellipse fill="lightblue" stroke="lightblue" cx="332.5" cy="-308" rx="32.49" ry="18"/>
<text text-anchor="middle" x="332.5" y="-304.3" font-family="Times,serif" font-size="14.00">5.0 *</text>
</a>
</g>
</g>
<!-- f2597&#45;&gt;f2595 -->
<g id="edge15" class="edge">
<title>f2597&#45;&gt;f2595</title>
<g id="a_edge15"><a xlink:title="Function ID=2597 depends on function ID=2595">
<path fill="none" stroke="black" d="M272.68,-364.83C283.14,-355.07 297.25,-341.9 309.14,-330.8"/>
<polygon fill="black" stroke="black" points="311.65,-333.25 316.57,-323.87 306.87,-328.13 311.65,-333.25"/>
</a>
</g>
</g>
<!-- f2596 -->
<g id="node10" class="node">
<title>f2596</title>
<g id="a_node10"><a xlink:title="Function ID=2596 &#10; contains 0 duplicate subfunctions">
<ellipse fill="lightgreen" stroke="lightgreen" cx="255.5" cy="-308" rx="27" ry="18"/>
<text text-anchor="middle" x="255.5" y="-304.3" font-family="Times,serif" font-size="14.00">1.0</text>
</a>
</g>
</g>
<!-- f2597&#45;&gt;f2596 -->
<g id="edge10" class="edge">
<title>f2597&#45;&gt;f2596</title>
<g id="a_edge10"><a xlink:title="Function ID=2597 depends on function ID=2596">
<path fill="none" stroke="black" d="M257.01,-361.7C256.79,-353.98 256.52,-344.71 256.27,-336.11"/>
<polygon fill="black" stroke="black" points="259.77,-336 255.99,-326.1 252.78,-336.2 259.77,-336"/>
</a>
</g>
</g>
<!-- function2 -->
<g id="node5" class="node">
<title>function2</title>
<g id="a_node5"><a xlink:href="inspected-f2593-graph-2.svg" xlink:title="2nd derivative function &#10; contains 14 duplicate subfunctions &#10; contains 13 unique subfunctions &#10; (and is clickable)">
<path fill="red" stroke="red" d="M398,-546C398,-546 297,-546 297,-546 291,-546 285,-540 285,-534 285,-534 285,-520 285,-520 285,-514 291,-508 297,-508 297,-508 398,-508 398,-508 404,-508 410,-514 410,-520 410,-520 410,-534 410,-534 410,-540 404,-546 398,-546"/>
<text text-anchor="middle" x="347.5" y="-530.8" font-family="Times,serif" font-size="14.00">(X) ** (5.0) </text>
<text text-anchor="middle" x="347.5" y="-515.8" font-family="Times,serif" font-size="14.00"> 2nd derivative</text>
</a>
</g>
</g>
<!-- f2606 -->
<g id="node6" class="node">
<title>f2606</title>
<g id="a_node6"><a xlink:title="Function ID=2606 &#10; contains 13 duplicate subfunctions">
<ellipse fill="lightblue" stroke="lightblue" cx="347.5" cy="-453" rx="27" ry="18"/>
<text text-anchor="middle" x="347.5" y="-449.3" font-family="Times,serif" font-size="14.00">+</text>
</a>
</g>
</g>
<!-- function2&#45;&gt;f2606 -->
<g id="edge3" class="edge">
<title>function2&#45;&gt;f2606</title>
<path fill="none" stroke="black" d="M347.5,-507.83C347.5,-499.89 347.5,-490.41 347.5,-481.63"/>
<polygon fill="black" stroke="black" points="351,-481.42 347.5,-471.42 344,-481.42 351,-481.42"/>
</g>
<!-- f2603 -->
<g id="node16" class="node">
<title>f2603</title>
<g id="a_node16"><a xlink:title="Function ID=2603 &#10; contains 7 duplicate subfunctions">
<ellipse fill="lightblue" stroke="lightblue" cx="185.5" cy="-380" rx="27" ry="18"/>
<text text-anchor="middle" x="185.5" y="-376.3" font-family="Times,serif" font-size="14.00">*</text>
</a>
</g>
</g>
<!-- f2606&#45;&gt;f2603 -->
<g id="edge17" class="edge">
<title>f2606&#45;&gt;f2603</title>
<g id="a_edge17"><a xlink:title="Function ID=2606 depends on function ID=2603">
<path fill="none" stroke="black" d="M326.7,-441.23C321.76,-438.78 316.47,-436.23 311.5,-434 272.2,-416.35 261,-415.21 221.5,-398 219.69,-397.21 217.84,-396.39 215.98,-395.55"/>
<polygon fill="black" stroke="black" points="217.27,-392.29 206.72,-391.28 214.34,-398.65 217.27,-392.29"/>
</a>
</g>
</g>
<!-- f2605 -->
<g id="node18" class="node">
<title>f2605</title>
<g id="a_node18"><a xlink:title="Function ID=2605 &#10; contains 4 duplicate subfunctions">
<ellipse fill="lightblue" stroke="lightblue" cx="347.5" cy="-380" rx="27" ry="18"/>
<text text-anchor="middle" x="347.5" y="-376.3" font-family="Times,serif" font-size="14.00">*</text>
</a>
</g>
</g>
<!-- f2606&#45;&gt;f2605 -->
<g id="edge19" class="edge">
<title>f2606&#45;&gt;f2605</title>
<g id="a_edge19"><a xlink:title="Function ID=2606 depends on function ID=2605">
<path fill="none" stroke="black" d="M347.5,-434.81C347.5,-426.79 347.5,-417.05 347.5,-408.07"/>
<polygon fill="black" stroke="black" points="351,-408.03 347.5,-398.03 344,-408.03 351,-408.03"/>
</a>
</g>
</g>
<!-- f2594 -->
<g id="node8" class="node">
<title>f2594</title>
<g id="a_node8"><a xlink:title="Function ID=2594 &#10; contains 1 duplicate subfunctions">
<ellipse fill="lightblue" stroke="lightblue" cx="329.5" cy="-236" rx="31.4" ry="18"/>
<text text-anchor="middle" x="329.5" y="-232.3" font-family="Times,serif" font-size="14.00"> ** 4</text>
</a>
</g>
</g>
<!-- f2594&#45;&gt;f1 -->
<g id="edge9" class="edge">
<title>f2594&#45;&gt;f1</title>
<g id="a_edge9"><a xlink:title="Function ID=2594 depends on function ID=1">
<path fill="none" stroke="black" d="M326.8,-218.01C323.27,-199.03 315.9,-167.85 302.5,-144 278.97,-102.11 239.13,-62.52 213.58,-39.53"/>
<polygon fill="black" stroke="black" points="215.64,-36.67 205.83,-32.66 211,-41.91 215.64,-36.67"/>
</a>
</g>
</g>
<!-- f2595&#45;&gt;f2594 -->
<g id="edge8" class="edge">
<title>f2595&#45;&gt;f2594</title>
<g id="a_edge8"><a xlink:title="Function ID=2595 depends on function ID=2594">
<path fill="none" stroke="black" d="M331.76,-289.7C331.43,-281.98 331.03,-272.71 330.66,-264.11"/>
<polygon fill="black" stroke="black" points="334.16,-263.95 330.23,-254.1 327.16,-264.25 334.16,-263.95"/>
</a>
</g>
</g>
<!-- f2598 -->
<g id="node11" class="node">
<title>f2598</title>
<g id="a_node11"><a xlink:title="Function ID=2598 &#10; contains 1 duplicate subfunctions">
<ellipse fill="lightblue" stroke="lightblue" cx="189.5" cy="-90" rx="31.4" ry="18"/>
<text text-anchor="middle" x="189.5" y="-86.3" font-family="Times,serif" font-size="14.00"> ** 3</text>
</a>
</g>
</g>
<!-- f2598&#45;&gt;f1 -->
<g id="edge7" class="edge">
<title>f2598&#45;&gt;f1</title>
<g id="a_edge7"><a xlink:title="Function ID=2598 depends on function ID=1">
<path fill="none" stroke="black" d="M189.5,-71.7C189.5,-63.98 189.5,-54.71 189.5,-46.11"/>
<polygon fill="black" stroke="black" points="193,-46.1 189.5,-36.1 186,-46.1 193,-46.1"/>
</a>
</g>
</g>
<!-- f2599 -->
<g id="node12" class="node">
<title>f2599</title>
<g id="a_node12"><a xlink:title="Function ID=2599 &#10; contains 2 duplicate subfunctions">
<ellipse fill="lightblue" stroke="lightblue" cx="189.5" cy="-163" rx="32.49" ry="18"/>
<text text-anchor="middle" x="189.5" y="-159.3" font-family="Times,serif" font-size="14.00">4.0 *</text>
</a>
</g>
</g>
<!-- f2599&#45;&gt;f2598 -->
<g id="edge12" class="edge">
<title>f2599&#45;&gt;f2598</title>
<g id="a_edge12"><a xlink:title="Function ID=2599 depends on function ID=2598">
<path fill="none" stroke="black" d="M189.5,-144.81C189.5,-136.79 189.5,-127.05 189.5,-118.07"/>
<polygon fill="black" stroke="black" points="193,-118.03 189.5,-108.03 186,-118.03 193,-118.03"/>
</a>
</g>
</g>
<!-- f2600 -->
<g id="node13" class="node">
<title>f2600</title>
<g id="a_node13"><a xlink:title="Function ID=2600 &#10; contains 0 duplicate subfunctions">
<ellipse fill="lightgreen" stroke="lightgreen" cx="266.5" cy="-163" rx="27" ry="18"/>
<text text-anchor="middle" x="266.5" y="-159.3" font-family="Times,serif" font-size="14.00">1.0</text>
</a>
</g>
</g>
<!-- f2601 -->
<g id="node14" class="node">
<title>f2601</title>
<g id="a_node14"><a xlink:title="Function ID=2601 &#10; contains 4 duplicate subfunctions">
<ellipse fill="lightblue" stroke="lightblue" cx="189.5" cy="-236" rx="27" ry="18"/>
<text text-anchor="middle" x="189.5" y="-232.3" font-family="Times,serif" font-size="14.00">*</text>
</a>
</g>
</g>
<!-- f2601&#45;&gt;f2599 -->
<g id="edge16" class="edge">
<title>f2601&#45;&gt;f2599</title>
<g id="a_edge16"><a xlink:title="Function ID=2601 depends on function ID=2599">
<path fill="none" stroke="black" d="M189.5,-217.81C189.5,-209.79 189.5,-200.05 189.5,-191.07"/>
<polygon fill="black" stroke="black" points="193,-191.03 189.5,-181.03 186,-191.03 193,-191.03"/>
</a>
</g>
</g>
<!-- f2601&#45;&gt;f2600 -->
<g id="edge13" class="edge">
<title>f2601&#45;&gt;f2600</title>
<g id="a_edge13"><a xlink:title="Function ID=2601 depends on function ID=2600">
<path fill="none" stroke="black" d="M204.71,-220.97C215.89,-210.66 231.27,-196.49 243.88,-184.86"/>
<polygon fill="black" stroke="black" points="246.34,-187.35 251.32,-178 241.59,-182.2 246.34,-187.35"/>
</a>
</g>
</g>
<!-- f2602 -->
<g id="node15" class="node">
<title>f2602</title>
<g id="a_node15"><a xlink:title="Function ID=2602 &#10; contains 5 duplicate subfunctions">
<ellipse fill="lightblue" stroke="lightblue" cx="178.5" cy="-308" rx="32.49" ry="18"/>
<text text-anchor="middle" x="178.5" y="-304.3" font-family="Times,serif" font-size="14.00">5.0 *</text>
</a>
</g>
</g>
<!-- f2602&#45;&gt;f2601 -->
<g id="edge18" class="edge">
<title>f2602&#45;&gt;f2601</title>
<g id="a_edge18"><a xlink:title="Function ID=2602 depends on function ID=2601">
<path fill="none" stroke="black" d="M181.16,-290.05C182.37,-282.35 183.84,-273.03 185.2,-264.36"/>
<polygon fill="black" stroke="black" points="188.69,-264.7 186.79,-254.28 181.78,-263.61 188.69,-264.7"/>
</a>
</g>
</g>
<!-- f2603&#45;&gt;f2596 -->
<g id="edge6" class="edge">
<title>f2603&#45;&gt;f2596</title>
<g id="a_edge6"><a xlink:title="Function ID=2603 depends on function ID=2596">
<path fill="none" stroke="black" d="M200,-364.5C209.77,-354.73 222.81,-341.69 233.8,-330.7"/>
<polygon fill="black" stroke="black" points="236.42,-333.03 241.01,-323.49 231.47,-328.08 236.42,-333.03"/>
</a>
</g>
</g>
<!-- f2603&#45;&gt;f2602 -->
<g id="edge11" class="edge">
<title>f2603&#45;&gt;f2602</title>
<g id="a_edge11"><a xlink:title="Function ID=2603 depends on function ID=2602">
<path fill="none" stroke="black" d="M183.77,-361.7C183,-353.98 182.07,-344.71 181.21,-336.11"/>
<polygon fill="black" stroke="black" points="184.69,-335.71 180.21,-326.1 177.72,-336.4 184.69,-335.71"/>
</a>
</g>
</g>
<!-- f2604 -->
<g id="node17" class="node">
<title>f2604</title>
<g id="a_node17"><a xlink:title="Function ID=2604 &#10; contains 0 duplicate subfunctions">
<ellipse fill="lightgreen" stroke="lightgreen" cx="409.5" cy="-308" rx="27" ry="18"/>
<text text-anchor="middle" x="409.5" y="-304.3" font-family="Times,serif" font-size="14.00">0.0</text>
</a>
</g>
</g>
<!-- f2605&#45;&gt;f2595 -->
<g id="edge5" class="edge">
<title>f2605&#45;&gt;f2595</title>
<g id="a_edge5"><a xlink:title="Function ID=2605 depends on function ID=2595">
<path fill="none" stroke="black" d="M343.87,-362.05C342.2,-354.26 340.18,-344.82 338.3,-336.08"/>
<polygon fill="black" stroke="black" points="341.72,-335.32 336.2,-326.28 334.87,-336.79 341.72,-335.32"/>
</a>
</g>
</g>
<!-- f2605&#45;&gt;f2604 -->
<g id="edge14" class="edge">
<title>f2605&#45;&gt;f2604</title>
<g id="a_edge14"><a xlink:title="Function ID=2605 depends on function ID=2604">
<path fill="none" stroke="black" d="M360.65,-364.15C369.03,-354.69 380.06,-342.24 389.52,-331.56"/>
<polygon fill="black" stroke="black" points="392.36,-333.63 396.37,-323.82 387.12,-328.99 392.36,-333.63"/>
</a>
</g>
</g>
</g>
</svg>
