<?xml version="1.0" encoding="UTF-8" standalone="no"?>
<!DOCTYPE svg PUBLIC "-//W3C//DTD SVG 1.1//EN"
 "http://www.w3.org/Graphics/SVG/1.1/DTD/svg11.dtd">
<!-- Generated by graphviz version 2.43.0 (0)
 -->
<!-- Title: %3 Pages: 1 -->
<svg width="1046pt" height="698pt"
 viewBox="0.00 0.00 1046.35 698.00" xmlns="http://www.w3.org/2000/svg" xmlns:xlink="http://www.w3.org/1999/xlink">
<g id="graph0" class="graph" transform="scale(1 1) rotate(0) translate(4 694)">
<title>%3</title>
<g id="a_graph0"><a xlink:title="Hey! Notice that red nodes are clickable and &#10; tooltips contain additional information!">
<polygon fill="white" stroke="transparent" points="-4,4 -4,-694 1042.35,-694 1042.35,4 -4,4"/>
</a>
</g>
<!-- function0 -->
<g id="node1" class="node">
<title>function0</title>
<g id="a_node1"><a xlink:href="inspected-f105-optimized-0.svg" xlink:title="original function &#10; contains 3 duplicate subfunctions &#10; contains 3 unique subfunctions &#10; (and is clickable)">
<path fill="red" stroke="red" d="M939.23,-254C939.23,-254 824.23,-254 824.23,-254 818.23,-254 812.23,-248 812.23,-242 812.23,-242 812.23,-228 812.23,-228 812.23,-222 818.23,-216 824.23,-216 824.23,-216 939.23,-216 939.23,-216 945.23,-216 951.23,-222 951.23,-228 951.23,-228 951.23,-242 951.23,-242 951.23,-248 945.23,-254 939.23,-254"/>
<text text-anchor="middle" x="881.73" y="-238.8" font-family="Times,serif" font-size="14.00">(2.0) ** (Sin(X)) </text>
<text text-anchor="middle" x="881.73" y="-223.8" font-family="Times,serif" font-size="14.00"> original function</text>
</a>
</g>
</g>
<!-- f105 -->
<g id="node2" class="node">
<title>f105</title>
<g id="a_node2"><a xlink:title="Function ID=105 &#10; contains 2 duplicate subfunctions">
<ellipse fill="lightblue" stroke="lightblue" cx="984.73" cy="-162" rx="40.09" ry="18"/>
<text text-anchor="middle" x="984.73" y="-158.3" font-family="Times,serif" font-size="14.00">2.0 ** </text>
</a>
</g>
</g>
<!-- function0&#45;&gt;f105 -->
<g id="edge1" class="edge">
<title>function0&#45;&gt;f105</title>
<path fill="none" stroke="black" d="M907.98,-215.9C922.43,-205.94 940.4,-193.55 955.32,-183.27"/>
<polygon fill="black" stroke="black" points="957.46,-186.05 963.7,-177.49 953.48,-180.29 957.46,-186.05"/>
</g>
<!-- f3 -->
<g id="node9" class="node">
<title>f3</title>
<g id="a_node9"><a xlink:title="Function ID=3 &#10; contains 1 duplicate subfunctions">
<ellipse fill="lightblue" stroke="lightblue" cx="642.73" cy="-90" rx="27" ry="18"/>
<text text-anchor="middle" x="642.73" y="-86.3" font-family="Times,serif" font-size="14.00">Sin</text>
</a>
</g>
</g>
<!-- f105&#45;&gt;f3 -->
<g id="edge24" class="edge">
<title>f105&#45;&gt;f3</title>
<g id="a_edge24"><a xlink:title="Function ID=105 depends on function ID=3">
<path fill="none" stroke="black" d="M954.89,-149.83C948.62,-147.71 942,-145.64 935.73,-144 844.83,-120.16 735.28,-103.46 679.41,-95.77"/>
<polygon fill="black" stroke="black" points="679.67,-92.27 669.29,-94.4 678.73,-99.21 679.67,-92.27"/>
</a>
</g>
</g>
<!-- function1 -->
<g id="node3" class="node">
<title>function1</title>
<g id="a_node3"><a xlink:href="inspected-f105-optimized-1.svg" xlink:title="1st derivative function &#10; contains 8 duplicate subfunctions &#10; contains 7 unique subfunctions &#10; (and is clickable)">
<path fill="red" stroke="red" d="M574.23,-400C574.23,-400 467.23,-400 467.23,-400 461.23,-400 455.23,-394 455.23,-388 455.23,-388 455.23,-374 455.23,-374 455.23,-368 461.23,-362 467.23,-362 467.23,-362 574.23,-362 574.23,-362 580.23,-362 586.23,-368 586.23,-374 586.23,-374 586.23,-388 586.23,-388 586.23,-394 580.23,-400 574.23,-400"/>
<text text-anchor="middle" x="520.73" y="-384.8" font-family="Times,serif" font-size="14.00">(2.0) ** (Sin(X)) </text>
<text text-anchor="middle" x="520.73" y="-369.8" font-family="Times,serif" font-size="14.00"> 1st derivative</text>
</a>
</g>
</g>
<!-- f196 -->
<g id="node4" class="node">
<title>f196</title>
<g id="a_node4"><a xlink:title="Function ID=196 &#10; contains 7 duplicate subfunctions">
<ellipse fill="lightblue" stroke="lightblue" cx="520.73" cy="-308" rx="27" ry="18"/>
<text text-anchor="middle" x="520.73" y="-304.3" font-family="Times,serif" font-size="14.00">*</text>
</a>
</g>
</g>
<!-- function1&#45;&gt;f196 -->
<g id="edge2" class="edge">
<title>function1&#45;&gt;f196</title>
<path fill="none" stroke="black" d="M520.73,-361.72C520.73,-353.97 520.73,-344.79 520.73,-336.27"/>
<polygon fill="black" stroke="black" points="524.23,-336 520.73,-326 517.23,-336 524.23,-336"/>
</g>
<!-- f195 -->
<g id="node10" class="node">
<title>f195</title>
<g id="a_node10"><a xlink:title="Function ID=195 &#10; contains 4 duplicate subfunctions">
<ellipse fill="lightblue" stroke="lightblue" cx="471.73" cy="-235" rx="27" ry="18"/>
<text text-anchor="middle" x="471.73" y="-231.3" font-family="Times,serif" font-size="14.00">*</text>
</a>
</g>
</g>
<!-- f196&#45;&gt;f195 -->
<g id="edge26" class="edge">
<title>f196&#45;&gt;f195</title>
<g id="a_edge26"><a xlink:title="Function ID=196 depends on function ID=195">
<path fill="none" stroke="black" d="M509.85,-291.24C503.51,-282.05 495.38,-270.27 488.26,-259.95"/>
<polygon fill="black" stroke="black" points="491.13,-257.96 482.57,-251.71 485.37,-261.93 491.13,-257.96"/>
</a>
</g>
</g>
<!-- f4 -->
<g id="node11" class="node">
<title>f4</title>
<g id="a_node11"><a xlink:title="Function ID=4 &#10; contains 1 duplicate subfunctions">
<ellipse fill="lightblue" stroke="lightblue" cx="996.73" cy="-235" rx="27.9" ry="18"/>
<text text-anchor="middle" x="996.73" y="-231.3" font-family="Times,serif" font-size="14.00">Cos</text>
</a>
</g>
</g>
<!-- f196&#45;&gt;f4 -->
<g id="edge4" class="edge">
<title>f196&#45;&gt;f4</title>
<g id="a_edge4"><a xlink:title="Function ID=196 depends on function ID=4">
<path fill="none" stroke="black" d="M547.23,-303.8C575.57,-300.38 621.83,-294.81 661.73,-290 794.61,-273.99 832.53,-292.5 960.73,-254 962.9,-253.35 965.1,-252.57 967.29,-251.71"/>
<polygon fill="black" stroke="black" points="968.95,-254.8 976.67,-247.55 966.11,-248.41 968.95,-254.8"/>
</a>
</g>
</g>
<!-- function2 -->
<g id="node5" class="node">
<title>function2</title>
<g id="a_node5"><a xlink:href="inspected-f105-optimized-2.svg" xlink:title="2nd derivative function &#10; contains 25 duplicate subfunctions &#10; contains 18 unique subfunctions &#10; (and is clickable)">
<path fill="red" stroke="red" d="M574.23,-690C574.23,-690 467.23,-690 467.23,-690 461.23,-690 455.23,-684 455.23,-678 455.23,-678 455.23,-664 455.23,-664 455.23,-658 461.23,-652 467.23,-652 467.23,-652 574.23,-652 574.23,-652 580.23,-652 586.23,-658 586.23,-664 586.23,-664 586.23,-678 586.23,-678 586.23,-684 580.23,-690 574.23,-690"/>
<text text-anchor="middle" x="520.73" y="-674.8" font-family="Times,serif" font-size="14.00">(2.0) ** (Sin(X)) </text>
<text text-anchor="middle" x="520.73" y="-659.8" font-family="Times,serif" font-size="14.00"> 2nd derivative</text>
</a>
</g>
</g>
<!-- f221 -->
<g id="node6" class="node">
<title>f221</title>
<g id="a_node6"><a xlink:title="Function ID=221 &#10; contains 24 duplicate subfunctions">
<ellipse fill="lightblue" stroke="lightblue" cx="520.73" cy="-598" rx="27" ry="18"/>
<text text-anchor="middle" x="520.73" y="-594.3" font-family="Times,serif" font-size="14.00">+</text>
</a>
</g>
</g>
<!-- function2&#45;&gt;f221 -->
<g id="edge3" class="edge">
<title>function2&#45;&gt;f221</title>
<path fill="none" stroke="black" d="M520.73,-651.72C520.73,-643.97 520.73,-634.79 520.73,-626.27"/>
<polygon fill="black" stroke="black" points="524.23,-626 520.73,-616 517.23,-626 524.23,-626"/>
</g>
<!-- f215 -->
<g id="node21" class="node">
<title>f215</title>
<g id="a_node21"><a xlink:title="Function ID=215 &#10; contains 14 duplicate subfunctions">
<ellipse fill="lightblue" stroke="lightblue" cx="812.73" cy="-526" rx="27" ry="18"/>
<text text-anchor="middle" x="812.73" y="-522.3" font-family="Times,serif" font-size="14.00">*</text>
</a>
</g>
</g>
<!-- f221&#45;&gt;f215 -->
<g id="edge9" class="edge">
<title>f221&#45;&gt;f215</title>
<g id="a_edge9"><a xlink:title="Function ID=221 depends on function ID=215">
<path fill="none" stroke="black" d="M545.62,-591.03C597.64,-578.56 717.97,-549.71 777.74,-535.39"/>
<polygon fill="black" stroke="black" points="778.57,-538.79 787.48,-533.05 776.94,-531.98 778.57,-538.79"/>
</a>
</g>
</g>
<!-- f220 -->
<g id="node24" class="node">
<title>f220</title>
<g id="a_node24"><a xlink:title="Function ID=220 &#10; contains 8 duplicate subfunctions">
<ellipse fill="lightblue" stroke="lightblue" cx="244.73" cy="-308" rx="27" ry="18"/>
<text text-anchor="middle" x="244.73" y="-304.3" font-family="Times,serif" font-size="14.00">*</text>
</a>
</g>
</g>
<!-- f221&#45;&gt;f220 -->
<g id="edge17" class="edge">
<title>f221&#45;&gt;f220</title>
<g id="a_edge17"><a xlink:title="Function ID=221 depends on function ID=220">
<path fill="none" stroke="black" d="M506.66,-582.32C461.44,-535.14 319.62,-387.15 265.76,-330.95"/>
<polygon fill="black" stroke="black" points="268.21,-328.45 258.76,-323.65 263.16,-333.29 268.21,-328.45"/>
</a>
</g>
</g>
<!-- f1 -->
<g id="node7" class="node">
<title>f1</title>
<g id="a_node7"><a xlink:title="Function ID=1 &#10; contains 0 duplicate subfunctions">
<ellipse fill="lightgreen" stroke="lightgreen" cx="847.73" cy="-18" rx="27" ry="18"/>
<text text-anchor="middle" x="847.73" y="-14.3" font-family="Times,serif" font-size="14.00">X</text>
</a>
</g>
</g>
<!-- f194 -->
<g id="node8" class="node">
<title>f194</title>
<g id="a_node8"><a xlink:title="Function ID=194 &#10; contains 0 duplicate subfunctions">
<ellipse fill="lightgreen" stroke="lightgreen" cx="471.73" cy="-162" rx="113.18" ry="18"/>
<text text-anchor="middle" x="471.73" y="-158.3" font-family="Times,serif" font-size="14.00">0.6931471805599453</text>
</a>
</g>
</g>
<!-- f3&#45;&gt;f1 -->
<g id="edge12" class="edge">
<title>f3&#45;&gt;f1</title>
<g id="a_edge12"><a xlink:title="Function ID=3 depends on function ID=1">
<path fill="none" stroke="black" d="M666.24,-80.97C702.68,-68.53 772.9,-44.55 814.5,-30.35"/>
<polygon fill="black" stroke="black" points="815.84,-33.59 824.17,-27.04 813.58,-26.96 815.84,-33.59"/>
</a>
</g>
</g>
<!-- f195&#45;&gt;f194 -->
<g id="edge13" class="edge">
<title>f195&#45;&gt;f194</title>
<g id="a_edge13"><a xlink:title="Function ID=195 depends on function ID=194">
<path fill="none" stroke="black" d="M471.73,-216.81C471.73,-208.79 471.73,-199.05 471.73,-190.07"/>
<polygon fill="black" stroke="black" points="475.23,-190.03 471.73,-180.03 468.23,-190.03 475.23,-190.03"/>
</a>
</g>
</g>
<!-- f106 -->
<g id="node15" class="node">
<title>f106</title>
<g id="a_node15"><a xlink:title="Function ID=106 &#10; contains 2 duplicate subfunctions">
<ellipse fill="lightblue" stroke="lightblue" cx="300.73" cy="-162" rx="40.09" ry="18"/>
<text text-anchor="middle" x="300.73" y="-158.3" font-family="Times,serif" font-size="14.00">2.0 ** </text>
</a>
</g>
</g>
<!-- f195&#45;&gt;f106 -->
<g id="edge5" class="edge">
<title>f195&#45;&gt;f106</title>
<g id="a_edge5"><a xlink:title="Function ID=195 depends on function ID=106">
<path fill="none" stroke="black" d="M449.37,-224.72C421.36,-213.09 372.91,-192.97 338.96,-178.87"/>
<polygon fill="black" stroke="black" points="339.94,-175.49 329.36,-174.89 337.25,-181.96 339.94,-175.49"/>
</a>
</g>
</g>
<!-- f4&#45;&gt;f1 -->
<g id="edge25" class="edge">
<title>f4&#45;&gt;f1</title>
<g id="a_edge25"><a xlink:title="Function ID=4 depends on function ID=1">
<path fill="none" stroke="black" d="M1010.75,-219.26C1026.24,-201.09 1047.31,-169.5 1033.73,-144 1001.41,-83.35 925.14,-46.88 880.95,-30.1"/>
<polygon fill="black" stroke="black" points="882.1,-26.8 871.51,-26.63 879.69,-33.37 882.1,-26.8"/>
</a>
</g>
</g>
<!-- f199 -->
<g id="node12" class="node">
<title>f199</title>
<g id="a_node12"><a xlink:title="Function ID=199 &#10; contains 0 duplicate subfunctions">
<ellipse fill="lightgreen" stroke="lightgreen" cx="813.73" cy="-162" rx="113.18" ry="18"/>
<text text-anchor="middle" x="813.73" y="-158.3" font-family="Times,serif" font-size="14.00">0.6931471805599453</text>
</a>
</g>
</g>
<!-- f200 -->
<g id="node13" class="node">
<title>f200</title>
<g id="a_node13"><a xlink:title="Function ID=200 &#10; contains 4 duplicate subfunctions">
<ellipse fill="lightblue" stroke="lightblue" cx="697.73" cy="-235" rx="27" ry="18"/>
<text text-anchor="middle" x="697.73" y="-231.3" font-family="Times,serif" font-size="14.00">*</text>
</a>
</g>
</g>
<!-- f200&#45;&gt;f199 -->
<g id="edge27" class="edge">
<title>f200&#45;&gt;f199</title>
<g id="a_edge27"><a xlink:title="Function ID=200 depends on function ID=199">
<path fill="none" stroke="black" d="M716.88,-222.28C733.47,-212.12 757.92,-197.16 778.09,-184.81"/>
<polygon fill="black" stroke="black" points="780.03,-187.73 786.73,-179.52 776.37,-181.76 780.03,-187.73"/>
</a>
</g>
</g>
<!-- f111 -->
<g id="node18" class="node">
<title>f111</title>
<g id="a_node18"><a xlink:title="Function ID=111 &#10; contains 2 duplicate subfunctions">
<ellipse fill="lightblue" stroke="lightblue" cx="642.73" cy="-162" rx="40.09" ry="18"/>
<text text-anchor="middle" x="642.73" y="-158.3" font-family="Times,serif" font-size="14.00">2.0 ** </text>
</a>
</g>
</g>
<!-- f200&#45;&gt;f111 -->
<g id="edge20" class="edge">
<title>f200&#45;&gt;f111</title>
<g id="a_edge20"><a xlink:title="Function ID=200 depends on function ID=111">
<path fill="none" stroke="black" d="M685.79,-218.59C678.66,-209.39 669.45,-197.5 661.38,-187.08"/>
<polygon fill="black" stroke="black" points="664.1,-184.88 655.21,-179.12 658.57,-189.16 664.1,-184.88"/>
</a>
</g>
</g>
<!-- f201 -->
<g id="node14" class="node">
<title>f201</title>
<g id="a_node14"><a xlink:title="Function ID=201 &#10; contains 7 duplicate subfunctions">
<ellipse fill="lightblue" stroke="lightblue" cx="697.73" cy="-308" rx="27" ry="18"/>
<text text-anchor="middle" x="697.73" y="-304.3" font-family="Times,serif" font-size="14.00">*</text>
</a>
</g>
</g>
<!-- f201&#45;&gt;f4 -->
<g id="edge10" class="edge">
<title>f201&#45;&gt;f4</title>
<g id="a_edge10"><a xlink:title="Function ID=201 depends on function ID=4">
<path fill="none" stroke="black" d="M718.27,-296.08C723.22,-293.79 728.58,-291.59 733.73,-290 831.34,-259.89 863.46,-285.21 960.73,-254 962.84,-253.32 964.97,-252.54 967.1,-251.68"/>
<polygon fill="black" stroke="black" points="968.55,-254.87 976.24,-247.59 965.69,-248.48 968.55,-254.87"/>
</a>
</g>
</g>
<!-- f201&#45;&gt;f200 -->
<g id="edge15" class="edge">
<title>f201&#45;&gt;f200</title>
<g id="a_edge15"><a xlink:title="Function ID=201 depends on function ID=200">
<path fill="none" stroke="black" d="M697.73,-289.81C697.73,-281.79 697.73,-272.05 697.73,-263.07"/>
<polygon fill="black" stroke="black" points="701.23,-263.03 697.73,-253.03 694.23,-263.03 701.23,-263.03"/>
</a>
</g>
</g>
<!-- f106&#45;&gt;f3 -->
<g id="edge8" class="edge">
<title>f106&#45;&gt;f3</title>
<g id="a_edge8"><a xlink:title="Function ID=106 depends on function ID=3">
<path fill="none" stroke="black" d="M330.56,-149.83C336.84,-147.71 343.46,-145.64 349.73,-144 440.62,-120.16 550.17,-103.46 606.05,-95.77"/>
<polygon fill="black" stroke="black" points="606.72,-99.21 616.16,-94.4 605.78,-92.27 606.72,-99.21"/>
</a>
</g>
</g>
<!-- f204 -->
<g id="node16" class="node">
<title>f204</title>
<g id="a_node16"><a xlink:title="Function ID=204 &#10; contains 0 duplicate subfunctions">
<ellipse fill="lightgreen" stroke="lightgreen" cx="855.73" cy="-308" rx="113.18" ry="18"/>
<text text-anchor="middle" x="855.73" y="-304.3" font-family="Times,serif" font-size="14.00">0.6931471805599453</text>
</a>
</g>
</g>
<!-- f205 -->
<g id="node17" class="node">
<title>f205</title>
<g id="a_node17"><a xlink:title="Function ID=205 &#10; contains 9 duplicate subfunctions">
<ellipse fill="lightblue" stroke="lightblue" cx="776.73" cy="-381" rx="27" ry="18"/>
<text text-anchor="middle" x="776.73" y="-377.3" font-family="Times,serif" font-size="14.00">*</text>
</a>
</g>
</g>
<!-- f205&#45;&gt;f201 -->
<g id="edge11" class="edge">
<title>f205&#45;&gt;f201</title>
<g id="a_edge11"><a xlink:title="Function ID=205 depends on function ID=201">
<path fill="none" stroke="black" d="M761.12,-365.97C749.65,-355.66 733.88,-341.49 720.93,-329.86"/>
<polygon fill="black" stroke="black" points="723.08,-327.08 713.3,-323 718.4,-332.29 723.08,-327.08"/>
</a>
</g>
</g>
<!-- f205&#45;&gt;f204 -->
<g id="edge16" class="edge">
<title>f205&#45;&gt;f204</title>
<g id="a_edge16"><a xlink:title="Function ID=205 depends on function ID=204">
<path fill="none" stroke="black" d="M792.33,-365.97C802.81,-356.56 816.88,-343.91 829.1,-332.93"/>
<polygon fill="black" stroke="black" points="831.71,-335.29 836.81,-326 827.03,-330.08 831.71,-335.29"/>
</a>
</g>
</g>
<!-- f111&#45;&gt;f3 -->
<g id="edge22" class="edge">
<title>f111&#45;&gt;f3</title>
<g id="a_edge22"><a xlink:title="Function ID=111 depends on function ID=3">
<path fill="none" stroke="black" d="M642.73,-143.7C642.73,-135.98 642.73,-126.71 642.73,-118.11"/>
<polygon fill="black" stroke="black" points="646.23,-118.1 642.73,-108.1 639.23,-118.1 646.23,-118.1"/>
</a>
</g>
</g>
<!-- f213 -->
<g id="node19" class="node">
<title>f213</title>
<g id="a_node19"><a xlink:title="Function ID=213 &#10; contains 0 duplicate subfunctions">
<ellipse fill="lightgreen" stroke="lightgreen" cx="848.73" cy="-381" rx="27" ry="18"/>
<text text-anchor="middle" x="848.73" y="-377.3" font-family="Times,serif" font-size="14.00">0.0</text>
</a>
</g>
</g>
<!-- f214 -->
<g id="node20" class="node">
<title>f214</title>
<g id="a_node20"><a xlink:title="Function ID=214 &#10; contains 11 duplicate subfunctions">
<ellipse fill="lightblue" stroke="lightblue" cx="812.73" cy="-454" rx="27" ry="18"/>
<text text-anchor="middle" x="812.73" y="-450.3" font-family="Times,serif" font-size="14.00">+</text>
</a>
</g>
</g>
<!-- f214&#45;&gt;f205 -->
<g id="edge23" class="edge">
<title>f214&#45;&gt;f205</title>
<g id="a_edge23"><a xlink:title="Function ID=214 depends on function ID=205">
<path fill="none" stroke="black" d="M804.38,-436.53C800.02,-427.93 794.58,-417.21 789.69,-407.56"/>
<polygon fill="black" stroke="black" points="792.68,-405.71 785.03,-398.38 786.43,-408.88 792.68,-405.71"/>
</a>
</g>
</g>
<!-- f214&#45;&gt;f213 -->
<g id="edge28" class="edge">
<title>f214&#45;&gt;f213</title>
<g id="a_edge28"><a xlink:title="Function ID=214 depends on function ID=213">
<path fill="none" stroke="black" d="M821.08,-436.53C825.44,-427.93 830.87,-417.21 835.77,-407.56"/>
<polygon fill="black" stroke="black" points="839.02,-408.88 840.42,-398.38 832.78,-405.71 839.02,-408.88"/>
</a>
</g>
</g>
<!-- f215&#45;&gt;f4 -->
<g id="edge7" class="edge">
<title>f215&#45;&gt;f4</title>
<g id="a_edge7"><a xlink:title="Function ID=215 depends on function ID=4">
<path fill="none" stroke="black" d="M828.34,-511.3C861.5,-481.3 939.06,-406.01 977.73,-326 987.31,-306.17 992.08,-281.58 994.45,-263.12"/>
<polygon fill="black" stroke="black" points="997.94,-263.37 995.58,-253.04 990.98,-262.59 997.94,-263.37"/>
</a>
</g>
</g>
<!-- f215&#45;&gt;f214 -->
<g id="edge14" class="edge">
<title>f215&#45;&gt;f214</title>
<g id="a_edge14"><a xlink:title="Function ID=215 depends on function ID=214">
<path fill="none" stroke="black" d="M812.73,-507.7C812.73,-499.98 812.73,-490.71 812.73,-482.11"/>
<polygon fill="black" stroke="black" points="816.23,-482.1 812.73,-472.1 809.23,-482.1 816.23,-482.1"/>
</a>
</g>
</g>
<!-- f218 -->
<g id="node22" class="node">
<title>f218</title>
<g id="a_node22"><a xlink:title="Function ID=218 &#10; contains 0 duplicate subfunctions">
<ellipse fill="lightgreen" stroke="lightgreen" cx="129.73" cy="-162" rx="113.18" ry="18"/>
<text text-anchor="middle" x="129.73" y="-158.3" font-family="Times,serif" font-size="14.00">0.6931471805599453</text>
</a>
</g>
</g>
<!-- f219 -->
<g id="node23" class="node">
<title>f219</title>
<g id="a_node23"><a xlink:title="Function ID=219 &#10; contains 4 duplicate subfunctions">
<ellipse fill="lightblue" stroke="lightblue" cx="244.73" cy="-235" rx="27" ry="18"/>
<text text-anchor="middle" x="244.73" y="-231.3" font-family="Times,serif" font-size="14.00">*</text>
</a>
</g>
</g>
<!-- f219&#45;&gt;f106 -->
<g id="edge21" class="edge">
<title>f219&#45;&gt;f106</title>
<g id="a_edge21"><a xlink:title="Function ID=219 depends on function ID=106">
<path fill="none" stroke="black" d="M256.88,-218.59C264.14,-209.39 273.52,-197.5 281.74,-187.08"/>
<polygon fill="black" stroke="black" points="284.57,-189.13 288.02,-179.12 279.08,-184.8 284.57,-189.13"/>
</a>
</g>
</g>
<!-- f219&#45;&gt;f218 -->
<g id="edge18" class="edge">
<title>f219&#45;&gt;f218</title>
<g id="a_edge18"><a xlink:title="Function ID=219 depends on function ID=218">
<path fill="none" stroke="black" d="M225.48,-222.12C209.18,-212.05 185.37,-197.35 165.57,-185.13"/>
<polygon fill="black" stroke="black" points="167.14,-181.99 156.8,-179.71 163.47,-187.94 167.14,-181.99"/>
</a>
</g>
</g>
<!-- f220&#45;&gt;f219 -->
<g id="edge29" class="edge">
<title>f220&#45;&gt;f219</title>
<g id="a_edge29"><a xlink:title="Function ID=220 depends on function ID=219">
<path fill="none" stroke="black" d="M244.73,-289.81C244.73,-281.79 244.73,-272.05 244.73,-263.07"/>
<polygon fill="black" stroke="black" points="248.23,-263.03 244.73,-253.03 241.23,-263.03 248.23,-263.03"/>
</a>
</g>
</g>
<!-- f124 -->
<g id="node25" class="node">
<title>f124</title>
<g id="a_node25"><a xlink:title="Function ID=124 &#10; contains 2 duplicate subfunctions">
<ellipse fill="lightblue" stroke="lightblue" cx="44.73" cy="-235" rx="43.59" ry="18"/>
<text text-anchor="middle" x="44.73" y="-231.3" font-family="Times,serif" font-size="14.00">unary &#45;</text>
</a>
</g>
</g>
<!-- f220&#45;&gt;f124 -->
<g id="edge19" class="edge">
<title>f220&#45;&gt;f124</title>
<g id="a_edge19"><a xlink:title="Function ID=220 depends on function ID=124">
<path fill="none" stroke="black" d="M221.39,-298.72C188.29,-286.97 127.18,-265.27 86.24,-250.74"/>
<polygon fill="black" stroke="black" points="87.4,-247.43 76.8,-247.39 85.06,-254.03 87.4,-247.43"/>
</a>
</g>
</g>
<!-- f124&#45;&gt;f3 -->
<g id="edge6" class="edge">
<title>f124&#45;&gt;f3</title>
<g id="a_edge6"><a xlink:title="Function ID=124 depends on function ID=3">
<path fill="none" stroke="black" d="M29.04,-218.2C11.52,-198.66 -11.95,-165.38 7.73,-144 48.3,-99.9 475.02,-92.48 605.22,-91.25"/>
<polygon fill="black" stroke="black" points="605.52,-94.74 615.48,-91.16 605.45,-87.74 605.52,-94.74"/>
</a>
</g>
</g>
</g>
</svg>
