<?xml version="1.0" encoding="UTF-8" standalone="no"?>
<!DOCTYPE svg PUBLIC "-//W3C//DTD SVG 1.1//EN"
 "http://www.w3.org/Graphics/SVG/1.1/DTD/svg11.dtd">
<!-- Generated by graphviz version 2.43.0 (0)
 -->
<!-- Title: %3 Pages: 1 -->
<svg width="828pt" height="916pt"
 viewBox="0.00 0.00 827.57 916.00" xmlns="http://www.w3.org/2000/svg" xmlns:xlink="http://www.w3.org/1999/xlink">
<g id="graph0" class="graph" transform="scale(1 1) rotate(0) translate(4 912)">
<title>%3</title>
<g id="a_graph0"><a xlink:title="Hey! Notice that red nodes are clickable and &#10; tooltips contain additional information!">
<polygon fill="white" stroke="transparent" points="-4,4 -4,-912 823.57,-912 823.57,4 -4,4"/>
</a>
</g>
<!-- function0 -->
<g id="node1" class="node">
<title>function0</title>
<g id="a_node1"><a xlink:href="inspected-f5-optimized-0.svg" xlink:title="original function &#10; contains 3 duplicate subfunctions &#10; contains 3 unique subfunctions &#10; (and is clickable)">
<path fill="red" stroke="red" d="M306.05,-254C306.05,-254 191.05,-254 191.05,-254 185.05,-254 179.05,-248 179.05,-242 179.05,-242 179.05,-228 179.05,-228 179.05,-222 185.05,-216 191.05,-216 191.05,-216 306.05,-216 306.05,-216 312.05,-216 318.05,-222 318.05,-228 318.05,-228 318.05,-242 318.05,-242 318.05,-248 312.05,-254 306.05,-254"/>
<text text-anchor="middle" x="248.55" y="-238.8" font-family="Times,serif" font-size="14.00">(Sin(X)) ** (5.0) </text>
<text text-anchor="middle" x="248.55" y="-223.8" font-family="Times,serif" font-size="14.00"> original function</text>
</a>
</g>
</g>
<!-- f5 -->
<g id="node2" class="node">
<title>f5</title>
<g id="a_node2"><a xlink:title="Function ID=5 &#10; contains 2 duplicate subfunctions">
<ellipse fill="lightblue" stroke="lightblue" cx="252.55" cy="-162" rx="31.4" ry="18"/>
<text text-anchor="middle" x="252.55" y="-158.3" font-family="Times,serif" font-size="14.00"> ** 5</text>
</a>
</g>
</g>
<!-- function0&#45;&gt;f5 -->
<g id="edge1" class="edge">
<title>function0&#45;&gt;f5</title>
<path fill="none" stroke="black" d="M249.58,-215.72C250.02,-207.89 250.54,-198.59 251.03,-189.99"/>
<polygon fill="black" stroke="black" points="254.52,-190.18 251.59,-180 247.53,-189.79 254.52,-190.18"/>
</g>
<!-- f3 -->
<g id="node11" class="node">
<title>f3</title>
<g id="a_node11"><a xlink:title="Function ID=3 &#10; contains 1 duplicate subfunctions">
<ellipse fill="lightblue" stroke="lightblue" cx="346.55" cy="-90" rx="27" ry="18"/>
<text text-anchor="middle" x="346.55" y="-86.3" font-family="Times,serif" font-size="14.00">Sin</text>
</a>
</g>
</g>
<!-- f5&#45;&gt;f3 -->
<g id="edge10" class="edge">
<title>f5&#45;&gt;f3</title>
<g id="a_edge10"><a xlink:title="Function ID=5 depends on function ID=3">
<path fill="none" stroke="black" d="M271.12,-147.17C285.38,-136.55 305.25,-121.76 321.01,-110.02"/>
<polygon fill="black" stroke="black" points="323.35,-112.64 329.28,-103.86 319.17,-107.02 323.35,-112.64"/>
</a>
</g>
</g>
<!-- function1 -->
<g id="node3" class="node">
<title>function1</title>
<g id="a_node3"><a xlink:href="inspected-f5-optimized-1.svg" xlink:title="1st derivative function &#10; contains 7 duplicate subfunctions &#10; contains 6 unique subfunctions &#10; (and is clickable)">
<path fill="red" stroke="red" d="M566.05,-472C566.05,-472 459.05,-472 459.05,-472 453.05,-472 447.05,-466 447.05,-460 447.05,-460 447.05,-446 447.05,-446 447.05,-440 453.05,-434 459.05,-434 459.05,-434 566.05,-434 566.05,-434 572.05,-434 578.05,-440 578.05,-446 578.05,-446 578.05,-460 578.05,-460 578.05,-466 572.05,-472 566.05,-472"/>
<text text-anchor="middle" x="512.55" y="-456.8" font-family="Times,serif" font-size="14.00">(Sin(X)) ** (5.0) </text>
<text text-anchor="middle" x="512.55" y="-441.8" font-family="Times,serif" font-size="14.00"> 1st derivative</text>
</a>
</g>
</g>
<!-- f8 -->
<g id="node4" class="node">
<title>f8</title>
<g id="a_node4"><a xlink:title="Function ID=8 &#10; contains 6 duplicate subfunctions">
<ellipse fill="lightblue" stroke="lightblue" cx="583.55" cy="-380" rx="27" ry="18"/>
<text text-anchor="middle" x="583.55" y="-376.3" font-family="Times,serif" font-size="14.00">*</text>
</a>
</g>
</g>
<!-- function1&#45;&gt;f8 -->
<g id="edge2" class="edge">
<title>function1&#45;&gt;f8</title>
<path fill="none" stroke="black" d="M530.83,-433.72C540.26,-424.29 551.83,-412.72 561.72,-402.82"/>
<polygon fill="black" stroke="black" points="564.3,-405.19 568.9,-395.65 559.35,-400.24 564.3,-405.19"/>
</g>
<!-- f4 -->
<g id="node12" class="node">
<title>f4</title>
<g id="a_node12"><a xlink:title="Function ID=4 &#10; contains 1 duplicate subfunctions">
<ellipse fill="lightblue" stroke="lightblue" cx="623.55" cy="-235" rx="27.9" ry="18"/>
<text text-anchor="middle" x="623.55" y="-231.3" font-family="Times,serif" font-size="14.00">Cos</text>
</a>
</g>
</g>
<!-- f8&#45;&gt;f4 -->
<g id="edge46" class="edge">
<title>f8&#45;&gt;f4</title>
<g id="a_edge46"><a xlink:title="Function ID=8 depends on function ID=4">
<path fill="none" stroke="black" d="M590.9,-362.55C595.31,-352.21 600.78,-338.51 604.55,-326 610.79,-305.26 615.75,-281.24 619.04,-263.23"/>
<polygon fill="black" stroke="black" points="622.53,-263.59 620.82,-253.14 615.63,-262.38 622.53,-263.59"/>
</a>
</g>
</g>
<!-- f7 -->
<g id="node14" class="node">
<title>f7</title>
<g id="a_node14"><a xlink:title="Function ID=7 &#10; contains 3 duplicate subfunctions">
<ellipse fill="lightblue" stroke="lightblue" cx="243.55" cy="-308" rx="32.49" ry="18"/>
<text text-anchor="middle" x="243.55" y="-304.3" font-family="Times,serif" font-size="14.00">5.0 *</text>
</a>
</g>
</g>
<!-- f8&#45;&gt;f7 -->
<g id="edge53" class="edge">
<title>f8&#45;&gt;f7</title>
<g id="a_edge53"><a xlink:title="Function ID=8 depends on function ID=7">
<path fill="none" stroke="black" d="M562.99,-368.14C558.04,-365.84 552.69,-363.63 547.55,-362 522.85,-354.17 361.96,-327.92 284.76,-315.55"/>
<polygon fill="black" stroke="black" points="284.87,-312.03 274.44,-313.9 283.76,-318.94 284.87,-312.03"/>
</a>
</g>
</g>
<!-- function2 -->
<g id="node5" class="node">
<title>function2</title>
<g id="a_node5"><a xlink:href="inspected-f5-optimized-2.svg" xlink:title="2nd derivative function &#10; contains 20 duplicate subfunctions &#10; contains 13 unique subfunctions &#10; (and is clickable)">
<path fill="red" stroke="red" d="M562.05,-618C562.05,-618 455.05,-618 455.05,-618 449.05,-618 443.05,-612 443.05,-606 443.05,-606 443.05,-592 443.05,-592 443.05,-586 449.05,-580 455.05,-580 455.05,-580 562.05,-580 562.05,-580 568.05,-580 574.05,-586 574.05,-592 574.05,-592 574.05,-606 574.05,-606 574.05,-612 568.05,-618 562.05,-618"/>
<text text-anchor="middle" x="508.55" y="-602.8" font-family="Times,serif" font-size="14.00">(Sin(X)) ** (5.0) </text>
<text text-anchor="middle" x="508.55" y="-587.8" font-family="Times,serif" font-size="14.00"> 2nd derivative</text>
</a>
</g>
</g>
<!-- f16 -->
<g id="node6" class="node">
<title>f16</title>
<g id="a_node6"><a xlink:title="Function ID=16 &#10; contains 19 duplicate subfunctions">
<ellipse fill="lightblue" stroke="lightblue" cx="508.55" cy="-526" rx="27" ry="18"/>
<text text-anchor="middle" x="508.55" y="-522.3" font-family="Times,serif" font-size="14.00">+</text>
</a>
</g>
</g>
<!-- function2&#45;&gt;f16 -->
<g id="edge3" class="edge">
<title>function2&#45;&gt;f16</title>
<path fill="none" stroke="black" d="M508.55,-579.72C508.55,-571.97 508.55,-562.79 508.55,-554.27"/>
<polygon fill="black" stroke="black" points="512.05,-554 508.55,-544 505.05,-554 512.05,-554"/>
</g>
<!-- f13 -->
<g id="node19" class="node">
<title>f13</title>
<g id="a_node19"><a xlink:title="Function ID=13 &#10; contains 10 duplicate subfunctions">
<ellipse fill="lightblue" stroke="lightblue" cx="623.55" cy="-453" rx="27" ry="18"/>
<text text-anchor="middle" x="623.55" y="-449.3" font-family="Times,serif" font-size="14.00">*</text>
</a>
</g>
</g>
<!-- f16&#45;&gt;f13 -->
<g id="edge48" class="edge">
<title>f16&#45;&gt;f13</title>
<g id="a_edge48"><a xlink:title="Function ID=16 depends on function ID=13">
<path fill="none" stroke="black" d="M527.79,-513.12C546.37,-501.65 574.69,-484.16 595.72,-471.18"/>
<polygon fill="black" stroke="black" points="597.56,-474.15 604.23,-465.92 593.89,-468.2 597.56,-474.15"/>
</a>
</g>
</g>
<!-- f15 -->
<g id="node21" class="node">
<title>f15</title>
<g id="a_node21"><a xlink:title="Function ID=15 &#10; contains 7 duplicate subfunctions">
<ellipse fill="lightblue" stroke="lightblue" cx="208.55" cy="-380" rx="27" ry="18"/>
<text text-anchor="middle" x="208.55" y="-376.3" font-family="Times,serif" font-size="14.00">*</text>
</a>
</g>
</g>
<!-- f16&#45;&gt;f15 -->
<g id="edge52" class="edge">
<title>f16&#45;&gt;f15</title>
<g id="a_edge52"><a xlink:title="Function ID=16 depends on function ID=15">
<path fill="none" stroke="black" d="M482.05,-522.48C441.38,-517.69 362.15,-504.66 303.55,-472 272.55,-454.72 244.18,-424.9 226.67,-404.12"/>
<polygon fill="black" stroke="black" points="229.35,-401.87 220.29,-396.37 223.95,-406.32 229.35,-401.87"/>
</a>
</g>
</g>
<!-- function3 -->
<g id="node7" class="node">
<title>function3</title>
<g id="a_node7"><a xlink:href="inspected-f5-optimized-3.svg" xlink:title="3rd derivative function &#10; contains 61 duplicate subfunctions &#10; contains 32 unique subfunctions &#10; (and is clickable)">
<path fill="red" stroke="red" d="M363.05,-908C363.05,-908 256.05,-908 256.05,-908 250.05,-908 244.05,-902 244.05,-896 244.05,-896 244.05,-882 244.05,-882 244.05,-876 250.05,-870 256.05,-870 256.05,-870 363.05,-870 363.05,-870 369.05,-870 375.05,-876 375.05,-882 375.05,-882 375.05,-896 375.05,-896 375.05,-902 369.05,-908 363.05,-908"/>
<text text-anchor="middle" x="309.55" y="-892.8" font-family="Times,serif" font-size="14.00">(Sin(X)) ** (5.0) </text>
<text text-anchor="middle" x="309.55" y="-877.8" font-family="Times,serif" font-size="14.00"> 3rd derivative</text>
</a>
</g>
</g>
<!-- f74 -->
<g id="node8" class="node">
<title>f74</title>
<g id="a_node8"><a xlink:title="Function ID=74 &#10; contains 60 duplicate subfunctions">
<ellipse fill="lightblue" stroke="lightblue" cx="309.55" cy="-816" rx="27" ry="18"/>
<text text-anchor="middle" x="309.55" y="-812.3" font-family="Times,serif" font-size="14.00">+</text>
</a>
</g>
</g>
<!-- function3&#45;&gt;f74 -->
<g id="edge4" class="edge">
<title>function3&#45;&gt;f74</title>
<path fill="none" stroke="black" d="M309.55,-869.72C309.55,-861.97 309.55,-852.79 309.55,-844.27"/>
<polygon fill="black" stroke="black" points="313.05,-844 309.55,-834 306.05,-844 313.05,-844"/>
</g>
<!-- f65 -->
<g id="node10" class="node">
<title>f65</title>
<g id="a_node10"><a xlink:title="Function ID=65 &#10; contains 38 duplicate subfunctions">
<ellipse fill="lightblue" stroke="lightblue" cx="339.55" cy="-744" rx="27" ry="18"/>
<text text-anchor="middle" x="339.55" y="-740.3" font-family="Times,serif" font-size="14.00">+</text>
</a>
</g>
</g>
<!-- f74&#45;&gt;f65 -->
<g id="edge21" class="edge">
<title>f74&#45;&gt;f65</title>
<g id="a_edge21"><a xlink:title="Function ID=74 depends on function ID=65">
<path fill="none" stroke="black" d="M316.66,-798.41C320.21,-790.13 324.58,-779.92 328.55,-770.66"/>
<polygon fill="black" stroke="black" points="331.77,-772.04 332.49,-761.47 325.33,-769.28 331.77,-772.04"/>
</a>
</g>
</g>
<!-- f37 -->
<g id="node33" class="node">
<title>f37</title>
<g id="a_node33"><a xlink:title="Function ID=37 &#10; contains 20 duplicate subfunctions">
<ellipse fill="lightblue" stroke="lightblue" cx="280.55" cy="-526" rx="27" ry="18"/>
<text text-anchor="middle" x="280.55" y="-522.3" font-family="Times,serif" font-size="14.00">+</text>
</a>
</g>
</g>
<!-- f74&#45;&gt;f37 -->
<g id="edge8" class="edge">
<title>f74&#45;&gt;f37</title>
<g id="a_edge8"><a xlink:title="Function ID=74 depends on function ID=37">
<path fill="none" stroke="black" d="M307.53,-797.82C306.34,-787.45 304.81,-773.97 303.55,-762 295.61,-686.84 287.18,-598.04 283.08,-554.24"/>
<polygon fill="black" stroke="black" points="286.55,-553.74 282.13,-544.11 279.58,-554.39 286.55,-553.74"/>
</a>
</g>
</g>
<!-- f1 -->
<g id="node9" class="node">
<title>f1</title>
<g id="a_node9"><a xlink:title="Function ID=1 &#10; contains 0 duplicate subfunctions">
<ellipse fill="lightgreen" stroke="lightgreen" cx="477.55" cy="-18" rx="27" ry="18"/>
<text text-anchor="middle" x="477.55" y="-14.3" font-family="Times,serif" font-size="14.00">X</text>
</a>
</g>
</g>
<!-- f28 -->
<g id="node25" class="node">
<title>f28</title>
<g id="a_node25"><a xlink:title="Function ID=28 &#10; contains 11 duplicate subfunctions">
<ellipse fill="lightblue" stroke="lightblue" cx="339.55" cy="-453" rx="27" ry="18"/>
<text text-anchor="middle" x="339.55" y="-449.3" font-family="Times,serif" font-size="14.00">*</text>
</a>
</g>
</g>
<!-- f65&#45;&gt;f28 -->
<g id="edge45" class="edge">
<title>f65&#45;&gt;f28</title>
<g id="a_edge45"><a xlink:title="Function ID=65 depends on function ID=28">
<path fill="none" stroke="black" d="M339.55,-725.79C339.55,-677.4 339.55,-539.87 339.55,-481.13"/>
<polygon fill="black" stroke="black" points="343.05,-481.12 339.55,-471.12 336.05,-481.12 343.05,-481.12"/>
</a>
</g>
</g>
<!-- f60 -->
<g id="node41" class="node">
<title>f60</title>
<g id="a_node41"><a xlink:title="Function ID=60 &#10; contains 25 duplicate subfunctions">
<ellipse fill="lightblue" stroke="lightblue" cx="661.55" cy="-672" rx="27" ry="18"/>
<text text-anchor="middle" x="661.55" y="-668.3" font-family="Times,serif" font-size="14.00">*</text>
</a>
</g>
</g>
<!-- f65&#45;&gt;f60 -->
<g id="edge7" class="edge">
<title>f65&#45;&gt;f60</title>
<g id="a_edge7"><a xlink:title="Function ID=65 depends on function ID=60">
<path fill="none" stroke="black" d="M364.81,-737.51C421.81,-725.12 560.5,-694.97 626.08,-680.71"/>
<polygon fill="black" stroke="black" points="626.92,-684.11 635.95,-678.56 625.44,-677.27 626.92,-684.11"/>
</a>
</g>
</g>
<!-- f3&#45;&gt;f1 -->
<g id="edge32" class="edge">
<title>f3&#45;&gt;f1</title>
<g id="a_edge32"><a xlink:title="Function ID=3 depends on function ID=1">
<path fill="none" stroke="black" d="M367.01,-78.06C388.84,-66.4 423.59,-47.83 448.29,-34.63"/>
<polygon fill="black" stroke="black" points="450.05,-37.66 457.22,-29.86 446.75,-31.49 450.05,-37.66"/>
</a>
</g>
</g>
<!-- f4&#45;&gt;f1 -->
<g id="edge47" class="edge">
<title>f4&#45;&gt;f1</title>
<g id="a_edge47"><a xlink:title="Function ID=4 depends on function ID=1">
<path fill="none" stroke="black" d="M622.1,-216.75C619.91,-197.85 614.52,-167.16 601.55,-144 576.77,-99.77 532.06,-60.39 503.63,-38.13"/>
<polygon fill="black" stroke="black" points="505.44,-35.11 495.38,-31.79 501.17,-40.66 505.44,-35.11"/>
</a>
</g>
</g>
<!-- f6 -->
<g id="node13" class="node">
<title>f6</title>
<g id="a_node13"><a xlink:title="Function ID=6 &#10; contains 2 duplicate subfunctions">
<ellipse fill="lightblue" stroke="lightblue" cx="171.55" cy="-162" rx="31.4" ry="18"/>
<text text-anchor="middle" x="171.55" y="-158.3" font-family="Times,serif" font-size="14.00"> ** 4</text>
</a>
</g>
</g>
<!-- f6&#45;&gt;f3 -->
<g id="edge22" class="edge">
<title>f6&#45;&gt;f3</title>
<g id="a_edge22"><a xlink:title="Function ID=6 depends on function ID=3">
<path fill="none" stroke="black" d="M196.24,-150.69C201.61,-148.46 207.26,-146.14 212.55,-144 247.24,-129.95 287.15,-114.22 314.33,-103.57"/>
<polygon fill="black" stroke="black" points="315.7,-106.79 323.74,-99.89 313.15,-100.27 315.7,-106.79"/>
</a>
</g>
</g>
<!-- f7&#45;&gt;f6 -->
<g id="edge35" class="edge">
<title>f7&#45;&gt;f6</title>
<g id="a_edge35"><a xlink:title="Function ID=7 depends on function ID=6">
<path fill="none" stroke="black" d="M218.33,-296.52C201.14,-287.88 179.73,-273.82 169.55,-254 159.37,-234.19 161,-208.62 164.53,-189.63"/>
<polygon fill="black" stroke="black" points="167.95,-190.35 166.62,-179.84 161.11,-188.89 167.95,-190.35"/>
</a>
</g>
</g>
<!-- f9 -->
<g id="node15" class="node">
<title>f9</title>
<g id="a_node15"><a xlink:title="Function ID=9 &#10; contains 2 duplicate subfunctions">
<ellipse fill="lightblue" stroke="lightblue" cx="485.55" cy="-162" rx="31.4" ry="18"/>
<text text-anchor="middle" x="485.55" y="-158.3" font-family="Times,serif" font-size="14.00"> ** 3</text>
</a>
</g>
</g>
<!-- f9&#45;&gt;f3 -->
<g id="edge6" class="edge">
<title>f9&#45;&gt;f3</title>
<g id="a_edge6"><a xlink:title="Function ID=9 depends on function ID=3">
<path fill="none" stroke="black" d="M462.9,-149.6C439.34,-137.73 402.31,-119.08 376.37,-106.02"/>
<polygon fill="black" stroke="black" points="377.87,-102.85 367.36,-101.48 374.72,-109.11 377.87,-102.85"/>
</a>
</g>
</g>
<!-- f10 -->
<g id="node16" class="node">
<title>f10</title>
<g id="a_node16"><a xlink:title="Function ID=10 &#10; contains 3 duplicate subfunctions">
<ellipse fill="lightblue" stroke="lightblue" cx="512.55" cy="-235" rx="32.49" ry="18"/>
<text text-anchor="middle" x="512.55" y="-231.3" font-family="Times,serif" font-size="14.00">4.0 *</text>
</a>
</g>
</g>
<!-- f10&#45;&gt;f9 -->
<g id="edge23" class="edge">
<title>f10&#45;&gt;f9</title>
<g id="a_edge23"><a xlink:title="Function ID=10 depends on function ID=9">
<path fill="none" stroke="black" d="M506.15,-217.17C502.99,-208.86 499.1,-198.64 495.56,-189.33"/>
<polygon fill="black" stroke="black" points="498.72,-187.81 491.9,-179.71 492.18,-190.3 498.72,-187.81"/>
</a>
</g>
</g>
<!-- f11 -->
<g id="node17" class="node">
<title>f11</title>
<g id="a_node17"><a xlink:title="Function ID=11 &#10; contains 6 duplicate subfunctions">
<ellipse fill="lightblue" stroke="lightblue" cx="568.55" cy="-308" rx="27" ry="18"/>
<text text-anchor="middle" x="568.55" y="-304.3" font-family="Times,serif" font-size="14.00">*</text>
</a>
</g>
</g>
<!-- f11&#45;&gt;f4 -->
<g id="edge30" class="edge">
<title>f11&#45;&gt;f4</title>
<g id="a_edge30"><a xlink:title="Function ID=11 depends on function ID=4">
<path fill="none" stroke="black" d="M580.48,-291.59C587.76,-282.2 597.21,-270 605.4,-259.42"/>
<polygon fill="black" stroke="black" points="608.28,-261.42 611.64,-251.38 602.74,-257.14 608.28,-261.42"/>
</a>
</g>
</g>
<!-- f11&#45;&gt;f10 -->
<g id="edge36" class="edge">
<title>f11&#45;&gt;f10</title>
<g id="a_edge36"><a xlink:title="Function ID=11 depends on function ID=10">
<path fill="none" stroke="black" d="M556.39,-291.59C549.08,-282.33 539.63,-270.33 531.37,-259.86"/>
<polygon fill="black" stroke="black" points="534,-257.55 525.06,-251.87 528.51,-261.89 534,-257.55"/>
</a>
</g>
</g>
<!-- f12 -->
<g id="node18" class="node">
<title>f12</title>
<g id="a_node18"><a xlink:title="Function ID=12 &#10; contains 7 duplicate subfunctions">
<ellipse fill="lightblue" stroke="lightblue" cx="506.55" cy="-380" rx="32.49" ry="18"/>
<text text-anchor="middle" x="506.55" y="-376.3" font-family="Times,serif" font-size="14.00">5.0 *</text>
</a>
</g>
</g>
<!-- f12&#45;&gt;f11 -->
<g id="edge51" class="edge">
<title>f12&#45;&gt;f11</title>
<g id="a_edge51"><a xlink:title="Function ID=12 depends on function ID=11">
<path fill="none" stroke="black" d="M520.31,-363.46C528.61,-354.09 539.33,-341.99 548.55,-331.57"/>
<polygon fill="black" stroke="black" points="551.24,-333.82 555.25,-324.01 546,-329.18 551.24,-333.82"/>
</a>
</g>
</g>
<!-- f13&#45;&gt;f4 -->
<g id="edge5" class="edge">
<title>f13&#45;&gt;f4</title>
<g id="a_edge5"><a xlink:title="Function ID=13 depends on function ID=4">
<path fill="none" stroke="black" d="M623.55,-434.69C623.55,-397.23 623.55,-308.42 623.55,-263.31"/>
<polygon fill="black" stroke="black" points="627.05,-263.09 623.55,-253.09 620.05,-263.09 627.05,-263.09"/>
</a>
</g>
</g>
<!-- f13&#45;&gt;f12 -->
<g id="edge12" class="edge">
<title>f13&#45;&gt;f12</title>
<g id="a_edge12"><a xlink:title="Function ID=13 depends on function ID=12">
<path fill="none" stroke="black" d="M604.23,-440.28C585.83,-429.11 557.85,-412.14 536.55,-399.21"/>
<polygon fill="black" stroke="black" points="538.24,-396.14 527.88,-393.95 534.61,-402.13 538.24,-396.14"/>
</a>
</g>
</g>
<!-- f14 -->
<g id="node20" class="node">
<title>f14</title>
<g id="a_node20"><a xlink:title="Function ID=14 &#10; contains 2 duplicate subfunctions">
<ellipse fill="lightblue" stroke="lightblue" cx="43.55" cy="-308" rx="43.59" ry="18"/>
<text text-anchor="middle" x="43.55" y="-304.3" font-family="Times,serif" font-size="14.00">unary &#45;</text>
</a>
</g>
</g>
<!-- f14&#45;&gt;f3 -->
<g id="edge20" class="edge">
<title>f14&#45;&gt;f3</title>
<g id="a_edge20"><a xlink:title="Function ID=14 depends on function ID=3">
<path fill="none" stroke="black" d="M38.14,-289.98C28.94,-257.28 14.48,-185.27 50.55,-144 83.88,-105.86 236.74,-95.09 308.78,-92.11"/>
<polygon fill="black" stroke="black" points="309.35,-95.59 319.21,-91.71 309.08,-88.6 309.35,-95.59"/>
</a>
</g>
</g>
<!-- f15&#45;&gt;f7 -->
<g id="edge29" class="edge">
<title>f15&#45;&gt;f7</title>
<g id="a_edge29"><a xlink:title="Function ID=15 depends on function ID=7">
<path fill="none" stroke="black" d="M216.66,-362.76C220.84,-354.4 226.04,-344.02 230.74,-334.61"/>
<polygon fill="black" stroke="black" points="233.89,-336.14 235.23,-325.63 227.63,-333.01 233.89,-336.14"/>
</a>
</g>
</g>
<!-- f15&#45;&gt;f14 -->
<g id="edge34" class="edge">
<title>f15&#45;&gt;f14</title>
<g id="a_edge34"><a xlink:title="Function ID=15 depends on function ID=14">
<path fill="none" stroke="black" d="M187.31,-368.75C182.48,-366.48 177.35,-364.12 172.55,-362 142.89,-348.91 108.96,-335.02 83.35,-324.74"/>
<polygon fill="black" stroke="black" points="84.55,-321.45 73.97,-320.99 81.95,-327.95 84.55,-321.45"/>
</a>
</g>
</g>
<!-- f22 -->
<g id="node22" class="node">
<title>f22</title>
<g id="a_node22"><a xlink:title="Function ID=22 &#10; contains 2 duplicate subfunctions">
<ellipse fill="lightblue" stroke="lightblue" cx="418.55" cy="-235" rx="43.59" ry="18"/>
<text text-anchor="middle" x="418.55" y="-231.3" font-family="Times,serif" font-size="14.00">unary &#45;</text>
</a>
</g>
</g>
<!-- f22&#45;&gt;f3 -->
<g id="edge18" class="edge">
<title>f22&#45;&gt;f3</title>
<g id="a_edge18"><a xlink:title="Function ID=22 depends on function ID=3">
<path fill="none" stroke="black" d="M417.81,-216.75C416.37,-197.86 412.1,-167.17 399.55,-144 392.7,-131.36 381.89,-119.76 371.81,-110.66"/>
<polygon fill="black" stroke="black" points="373.85,-107.79 363.98,-103.92 369.28,-113.09 373.85,-107.79"/>
</a>
</g>
</g>
<!-- f23 -->
<g id="node23" class="node">
<title>f23</title>
<g id="a_node23"><a xlink:title="Function ID=23 &#10; contains 7 duplicate subfunctions">
<ellipse fill="lightblue" stroke="lightblue" cx="390.55" cy="-308" rx="27" ry="18"/>
<text text-anchor="middle" x="390.55" y="-304.3" font-family="Times,serif" font-size="14.00">*</text>
</a>
</g>
</g>
<!-- f23&#45;&gt;f10 -->
<g id="edge28" class="edge">
<title>f23&#45;&gt;f10</title>
<g id="a_edge28"><a xlink:title="Function ID=23 depends on function ID=10">
<path fill="none" stroke="black" d="M410.15,-295.59C429.57,-284.29 459.58,-266.82 482.1,-253.72"/>
<polygon fill="black" stroke="black" points="484.05,-256.63 490.94,-248.58 480.53,-250.58 484.05,-256.63"/>
</a>
</g>
</g>
<!-- f23&#45;&gt;f22 -->
<g id="edge38" class="edge">
<title>f23&#45;&gt;f22</title>
<g id="a_edge38"><a xlink:title="Function ID=23 depends on function ID=22">
<path fill="none" stroke="black" d="M397.18,-290.17C400.41,-281.98 404.37,-271.94 408,-262.73"/>
<polygon fill="black" stroke="black" points="411.35,-263.79 411.76,-253.2 404.84,-261.22 411.35,-263.79"/>
</a>
</g>
</g>
<!-- f27 -->
<g id="node24" class="node">
<title>f27</title>
<g id="a_node24"><a xlink:title="Function ID=27 &#10; contains 2 duplicate subfunctions">
<ellipse fill="lightblue" stroke="lightblue" cx="346.55" cy="-162" rx="43.59" ry="18"/>
<text text-anchor="middle" x="346.55" y="-158.3" font-family="Times,serif" font-size="14.00">unary &#45;</text>
</a>
</g>
</g>
<!-- f27&#45;&gt;f3 -->
<g id="edge27" class="edge">
<title>f27&#45;&gt;f3</title>
<g id="a_edge27"><a xlink:title="Function ID=27 depends on function ID=3">
<path fill="none" stroke="black" d="M346.55,-143.7C346.55,-135.98 346.55,-126.71 346.55,-118.11"/>
<polygon fill="black" stroke="black" points="350.05,-118.1 346.55,-108.1 343.05,-118.1 350.05,-118.1"/>
</a>
</g>
</g>
<!-- f28&#45;&gt;f12 -->
<g id="edge43" class="edge">
<title>f28&#45;&gt;f12</title>
<g id="a_edge43"><a xlink:title="Function ID=28 depends on function ID=12">
<path fill="none" stroke="black" d="M361.72,-442.57C389.99,-430.56 439.14,-409.66 472.25,-395.58"/>
<polygon fill="black" stroke="black" points="473.72,-398.76 481.55,-391.63 470.98,-392.32 473.72,-398.76"/>
</a>
</g>
</g>
<!-- f28&#45;&gt;f27 -->
<g id="edge50" class="edge">
<title>f28&#45;&gt;f27</title>
<g id="a_edge50"><a xlink:title="Function ID=28 depends on function ID=27">
<path fill="none" stroke="black" d="M339.96,-434.79C341.14,-386.4 344.47,-248.87 345.89,-190.13"/>
<polygon fill="black" stroke="black" points="349.39,-190.2 346.13,-180.12 342.39,-190.03 349.39,-190.2"/>
</a>
</g>
</g>
<!-- f30 -->
<g id="node26" class="node">
<title>f30</title>
<g id="a_node26"><a xlink:title="Function ID=30 &#10; contains 2 duplicate subfunctions">
<ellipse fill="lightblue" stroke="lightblue" cx="90.55" cy="-162" rx="31.4" ry="18"/>
<text text-anchor="middle" x="90.55" y="-158.3" font-family="Times,serif" font-size="14.00"> ** 3</text>
</a>
</g>
</g>
<!-- f30&#45;&gt;f3 -->
<g id="edge16" class="edge">
<title>f30&#45;&gt;f3</title>
<g id="a_edge16"><a xlink:title="Function ID=30 depends on function ID=3">
<path fill="none" stroke="black" d="M114.6,-150.32C120.11,-148.07 125.98,-145.83 131.55,-144 193.63,-123.61 268.06,-106.93 311.07,-98.02"/>
<polygon fill="black" stroke="black" points="311.95,-101.42 321.04,-95.98 310.54,-94.56 311.95,-101.42"/>
</a>
</g>
</g>
<!-- f31 -->
<g id="node27" class="node">
<title>f31</title>
<g id="a_node27"><a xlink:title="Function ID=31 &#10; contains 3 duplicate subfunctions">
<ellipse fill="lightblue" stroke="lightblue" cx="90.55" cy="-235" rx="32.49" ry="18"/>
<text text-anchor="middle" x="90.55" y="-231.3" font-family="Times,serif" font-size="14.00">4.0 *</text>
</a>
</g>
</g>
<!-- f31&#45;&gt;f30 -->
<g id="edge39" class="edge">
<title>f31&#45;&gt;f30</title>
<g id="a_edge39"><a xlink:title="Function ID=31 depends on function ID=30">
<path fill="none" stroke="black" d="M90.55,-216.81C90.55,-208.79 90.55,-199.05 90.55,-190.07"/>
<polygon fill="black" stroke="black" points="94.05,-190.03 90.55,-180.03 87.05,-190.03 94.05,-190.03"/>
</a>
</g>
</g>
<!-- f32 -->
<g id="node28" class="node">
<title>f32</title>
<g id="a_node28"><a xlink:title="Function ID=32 &#10; contains 6 duplicate subfunctions">
<ellipse fill="lightblue" stroke="lightblue" cx="132.55" cy="-308" rx="27" ry="18"/>
<text text-anchor="middle" x="132.55" y="-304.3" font-family="Times,serif" font-size="14.00">*</text>
</a>
</g>
</g>
<!-- f32&#45;&gt;f4 -->
<g id="edge41" class="edge">
<title>f32&#45;&gt;f4</title>
<g id="a_edge41"><a xlink:title="Function ID=32 depends on function ID=4">
<path fill="none" stroke="black" d="M157,-300.2C170.36,-296.7 187.26,-292.63 202.55,-290 357.1,-263.43 399.18,-281.6 553.55,-254 565.08,-251.94 577.52,-248.98 588.67,-246.06"/>
<polygon fill="black" stroke="black" points="589.73,-249.4 598.47,-243.42 587.91,-242.64 589.73,-249.4"/>
</a>
</g>
</g>
<!-- f32&#45;&gt;f31 -->
<g id="edge56" class="edge">
<title>f32&#45;&gt;f31</title>
<g id="a_edge56"><a xlink:title="Function ID=32 depends on function ID=31">
<path fill="none" stroke="black" d="M123.02,-290.89C117.83,-282.12 111.29,-271.07 105.45,-261.19"/>
<polygon fill="black" stroke="black" points="108.43,-259.36 100.33,-252.54 102.41,-262.93 108.43,-259.36"/>
</a>
</g>
</g>
<!-- f33 -->
<g id="node29" class="node">
<title>f33</title>
<g id="a_node29"><a xlink:title="Function ID=33 &#10; contains 7 duplicate subfunctions">
<ellipse fill="lightblue" stroke="lightblue" cx="131.55" cy="-380" rx="32.49" ry="18"/>
<text text-anchor="middle" x="131.55" y="-376.3" font-family="Times,serif" font-size="14.00">5.0 *</text>
</a>
</g>
</g>
<!-- f33&#45;&gt;f32 -->
<g id="edge14" class="edge">
<title>f33&#45;&gt;f32</title>
<g id="a_edge14"><a xlink:title="Function ID=33 depends on function ID=32">
<path fill="none" stroke="black" d="M131.79,-361.7C131.9,-353.98 132.04,-344.71 132.16,-336.11"/>
<polygon fill="black" stroke="black" points="135.66,-336.15 132.3,-326.1 128.66,-336.05 135.66,-336.15"/>
</a>
</g>
</g>
<!-- f34 -->
<g id="node30" class="node">
<title>f34</title>
<g id="a_node30"><a xlink:title="Function ID=34 &#10; contains 11 duplicate subfunctions">
<ellipse fill="lightblue" stroke="lightblue" cx="131.55" cy="-453" rx="27" ry="18"/>
<text text-anchor="middle" x="131.55" y="-449.3" font-family="Times,serif" font-size="14.00">*</text>
</a>
</g>
</g>
<!-- f34&#45;&gt;f14 -->
<g id="edge17" class="edge">
<title>f34&#45;&gt;f14</title>
<g id="a_edge17"><a xlink:title="Function ID=34 depends on function ID=14">
<path fill="none" stroke="black" d="M119.01,-436.89C110.51,-426.32 99.28,-411.7 90.55,-398 77.55,-377.61 64.87,-353.26 55.96,-335.19"/>
<polygon fill="black" stroke="black" points="58.95,-333.32 51.42,-325.86 52.65,-336.38 58.95,-333.32"/>
</a>
</g>
</g>
<!-- f34&#45;&gt;f33 -->
<g id="edge24" class="edge">
<title>f34&#45;&gt;f33</title>
<g id="a_edge24"><a xlink:title="Function ID=34 depends on function ID=33">
<path fill="none" stroke="black" d="M131.55,-434.81C131.55,-426.79 131.55,-417.05 131.55,-408.07"/>
<polygon fill="black" stroke="black" points="135.05,-408.03 131.55,-398.03 128.05,-408.03 135.05,-408.03"/>
</a>
</g>
</g>
<!-- f35 -->
<g id="node31" class="node">
<title>f35</title>
<g id="a_node31"><a xlink:title="Function ID=35 &#10; contains 2 duplicate subfunctions">
<ellipse fill="lightblue" stroke="lightblue" cx="479.55" cy="-308" rx="43.59" ry="18"/>
<text text-anchor="middle" x="479.55" y="-304.3" font-family="Times,serif" font-size="14.00">unary &#45;</text>
</a>
</g>
</g>
<!-- f35&#45;&gt;f4 -->
<g id="edge25" class="edge">
<title>f35&#45;&gt;f4</title>
<g id="a_edge25"><a xlink:title="Function ID=35 depends on function ID=4">
<path fill="none" stroke="black" d="M506.63,-293.65C531.05,-281.61 566.94,-263.91 592.51,-251.3"/>
<polygon fill="black" stroke="black" points="594.34,-254.31 601.76,-246.74 591.24,-248.03 594.34,-254.31"/>
</a>
</g>
</g>
<!-- f36 -->
<g id="node32" class="node">
<title>f36</title>
<g id="a_node32"><a xlink:title="Function ID=36 &#10; contains 7 duplicate subfunctions">
<ellipse fill="lightblue" stroke="lightblue" cx="280.55" cy="-380" rx="27" ry="18"/>
<text text-anchor="middle" x="280.55" y="-376.3" font-family="Times,serif" font-size="14.00">*</text>
</a>
</g>
</g>
<!-- f36&#45;&gt;f7 -->
<g id="edge40" class="edge">
<title>f36&#45;&gt;f7</title>
<g id="a_edge40"><a xlink:title="Function ID=36 depends on function ID=7">
<path fill="none" stroke="black" d="M271.96,-362.76C267.55,-354.4 262.05,-344.02 257.08,-334.61"/>
<polygon fill="black" stroke="black" points="260.11,-332.84 252.34,-325.63 253.92,-336.11 260.11,-332.84"/>
</a>
</g>
</g>
<!-- f36&#45;&gt;f35 -->
<g id="edge57" class="edge">
<title>f36&#45;&gt;f35</title>
<g id="a_edge57"><a xlink:title="Function ID=36 depends on function ID=35">
<path fill="none" stroke="black" d="M304.16,-370.7C337.06,-359.12 397.24,-337.95 437.82,-323.68"/>
<polygon fill="black" stroke="black" points="439.15,-326.92 447.42,-320.3 436.83,-320.32 439.15,-326.92"/>
</a>
</g>
</g>
<!-- f37&#45;&gt;f34 -->
<g id="edge9" class="edge">
<title>f37&#45;&gt;f34</title>
<g id="a_edge9"><a xlink:title="Function ID=37 depends on function ID=34">
<path fill="none" stroke="black" d="M259.2,-514.83C233.75,-502.7 191.04,-482.35 162.1,-468.56"/>
<polygon fill="black" stroke="black" points="163.39,-465.3 152.85,-464.15 160.38,-471.62 163.39,-465.3"/>
</a>
</g>
</g>
<!-- f37&#45;&gt;f36 -->
<g id="edge15" class="edge">
<title>f37&#45;&gt;f36</title>
<g id="a_edge15"><a xlink:title="Function ID=37 depends on function ID=36">
<path fill="none" stroke="black" d="M280.55,-507.92C280.55,-483.34 280.55,-437.75 280.55,-408.43"/>
<polygon fill="black" stroke="black" points="284.05,-408.06 280.55,-398.06 277.05,-408.06 284.05,-408.06"/>
</a>
</g>
</g>
<!-- f47 -->
<g id="node34" class="node">
<title>f47</title>
<g id="a_node34"><a xlink:title="Function ID=47 &#10; contains 4 duplicate subfunctions">
<ellipse fill="lightblue" stroke="lightblue" cx="565.55" cy="-162" rx="27" ry="18"/>
<text text-anchor="middle" x="565.55" y="-158.3" font-family="Times,serif" font-size="14.00">*</text>
</a>
</g>
</g>
<!-- f47&#45;&gt;f3 -->
<g id="edge19" class="edge">
<title>f47&#45;&gt;f3</title>
<g id="a_edge19"><a xlink:title="Function ID=47 depends on function ID=3">
<path fill="none" stroke="black" d="M543.72,-151.19C537.87,-148.71 531.51,-146.14 525.55,-144 476.27,-126.3 417.9,-109.83 381.54,-100.09"/>
<polygon fill="black" stroke="black" points="382.01,-96.59 371.44,-97.41 380.21,-103.36 382.01,-96.59"/>
</a>
</g>
</g>
<!-- f48 -->
<g id="node35" class="node">
<title>f48</title>
<g id="a_node35"><a xlink:title="Function ID=48 &#10; contains 5 duplicate subfunctions">
<ellipse fill="lightblue" stroke="lightblue" cx="727.55" cy="-235" rx="32.49" ry="18"/>
<text text-anchor="middle" x="727.55" y="-231.3" font-family="Times,serif" font-size="14.00">3.0 *</text>
</a>
</g>
</g>
<!-- f48&#45;&gt;f47 -->
<g id="edge55" class="edge">
<title>f48&#45;&gt;f47</title>
<g id="a_edge55"><a xlink:title="Function ID=48 depends on function ID=47">
<path fill="none" stroke="black" d="M702.94,-223.22C674.59,-210.79 627.93,-190.34 596.97,-176.77"/>
<polygon fill="black" stroke="black" points="598.08,-173.44 587.52,-172.63 595.27,-179.85 598.08,-173.44"/>
</a>
</g>
</g>
<!-- f49 -->
<g id="node36" class="node">
<title>f49</title>
<g id="a_node36"><a xlink:title="Function ID=49 &#10; contains 8 duplicate subfunctions">
<ellipse fill="lightblue" stroke="lightblue" cx="754.55" cy="-308" rx="27" ry="18"/>
<text text-anchor="middle" x="754.55" y="-304.3" font-family="Times,serif" font-size="14.00">*</text>
</a>
</g>
</g>
<!-- f49&#45;&gt;f4 -->
<g id="edge44" class="edge">
<title>f49&#45;&gt;f4</title>
<g id="a_edge44"><a xlink:title="Function ID=49 depends on function ID=4">
<path fill="none" stroke="black" d="M734.08,-295.91C712.38,-284.15 677.91,-265.47 653.23,-252.09"/>
<polygon fill="black" stroke="black" points="654.76,-248.94 644.3,-247.25 651.43,-255.09 654.76,-248.94"/>
</a>
</g>
</g>
<!-- f49&#45;&gt;f48 -->
<g id="edge13" class="edge">
<title>f49&#45;&gt;f48</title>
<g id="a_edge13"><a xlink:title="Function ID=49 depends on function ID=48">
<path fill="none" stroke="black" d="M748.15,-290.17C744.99,-281.86 741.1,-271.64 737.56,-262.33"/>
<polygon fill="black" stroke="black" points="740.72,-260.81 733.9,-252.71 734.18,-263.3 740.72,-260.81"/>
</a>
</g>
</g>
<!-- f51 -->
<g id="node37" class="node">
<title>f51</title>
<g id="a_node37"><a xlink:title="Function ID=51 &#10; contains 9 duplicate subfunctions">
<ellipse fill="lightblue" stroke="lightblue" cx="759.55" cy="-380" rx="32.49" ry="18"/>
<text text-anchor="middle" x="759.55" y="-376.3" font-family="Times,serif" font-size="14.00">4.0 *</text>
</a>
</g>
</g>
<!-- f51&#45;&gt;f49 -->
<g id="edge33" class="edge">
<title>f51&#45;&gt;f49</title>
<g id="a_edge33"><a xlink:title="Function ID=51 depends on function ID=49">
<path fill="none" stroke="black" d="M758.31,-361.7C757.76,-353.98 757.1,-344.71 756.48,-336.11"/>
<polygon fill="black" stroke="black" points="759.97,-335.83 755.77,-326.1 752.99,-336.33 759.97,-335.83"/>
</a>
</g>
</g>
<!-- f53 -->
<g id="node38" class="node">
<title>f53</title>
<g id="a_node38"><a xlink:title="Function ID=53 &#10; contains 12 duplicate subfunctions">
<ellipse fill="lightblue" stroke="lightblue" cx="699.55" cy="-453" rx="27" ry="18"/>
<text text-anchor="middle" x="699.55" y="-449.3" font-family="Times,serif" font-size="14.00">*</text>
</a>
</g>
</g>
<!-- f53&#45;&gt;f4 -->
<g id="edge42" class="edge">
<title>f53&#45;&gt;f4</title>
<g id="a_edge42"><a xlink:title="Function ID=53 depends on function ID=4">
<path fill="none" stroke="black" d="M693.71,-435.41C680.58,-398.11 648.66,-307.37 632.8,-262.3"/>
<polygon fill="black" stroke="black" points="636.02,-260.92 629.4,-252.65 629.42,-263.24 636.02,-260.92"/>
</a>
</g>
</g>
<!-- f53&#45;&gt;f51 -->
<g id="edge11" class="edge">
<title>f53&#45;&gt;f51</title>
<g id="a_edge11"><a xlink:title="Function ID=53 depends on function ID=51">
<path fill="none" stroke="black" d="M712.27,-436.94C720.27,-427.47 730.77,-415.05 739.83,-404.33"/>
<polygon fill="black" stroke="black" points="742.64,-406.42 746.43,-396.53 737.3,-401.91 742.64,-406.42"/>
</a>
</g>
</g>
<!-- f56 -->
<g id="node39" class="node">
<title>f56</title>
<g id="a_node39"><a xlink:title="Function ID=56 &#10; contains 21 duplicate subfunctions">
<ellipse fill="lightblue" stroke="lightblue" cx="661.55" cy="-526" rx="27" ry="18"/>
<text text-anchor="middle" x="661.55" y="-522.3" font-family="Times,serif" font-size="14.00">+</text>
</a>
</g>
</g>
<!-- f56&#45;&gt;f23 -->
<g id="edge37" class="edge">
<title>f56&#45;&gt;f23</title>
<g id="a_edge37"><a xlink:title="Function ID=56 depends on function ID=23">
<path fill="none" stroke="black" d="M635.86,-520.39C580.33,-510.22 452.95,-485.66 438.55,-472 400.91,-436.31 392.33,-372.76 390.65,-336.45"/>
<polygon fill="black" stroke="black" points="394.13,-336.01 390.32,-326.12 387.14,-336.23 394.13,-336.01"/>
</a>
</g>
</g>
<!-- f56&#45;&gt;f53 -->
<g id="edge49" class="edge">
<title>f56&#45;&gt;f53</title>
<g id="a_edge49"><a xlink:title="Function ID=56 depends on function ID=53">
<path fill="none" stroke="black" d="M670.17,-508.89C674.82,-500.21 680.66,-489.29 685.9,-479.49"/>
<polygon fill="black" stroke="black" points="689.06,-481.01 690.69,-470.54 682.89,-477.71 689.06,-481.01"/>
</a>
</g>
</g>
<!-- f59 -->
<g id="node40" class="node">
<title>f59</title>
<g id="a_node40"><a xlink:title="Function ID=59 &#10; contains 22 duplicate subfunctions">
<ellipse fill="lightblue" stroke="lightblue" cx="661.55" cy="-599" rx="32.49" ry="18"/>
<text text-anchor="middle" x="661.55" y="-595.3" font-family="Times,serif" font-size="14.00">5.0 *</text>
</a>
</g>
</g>
<!-- f59&#45;&gt;f56 -->
<g id="edge31" class="edge">
<title>f59&#45;&gt;f56</title>
<g id="a_edge31"><a xlink:title="Function ID=59 depends on function ID=56">
<path fill="none" stroke="black" d="M661.55,-580.81C661.55,-572.79 661.55,-563.05 661.55,-554.07"/>
<polygon fill="black" stroke="black" points="665.05,-554.03 661.55,-544.03 658.05,-554.03 665.05,-554.03"/>
</a>
</g>
</g>
<!-- f60&#45;&gt;f4 -->
<g id="edge26" class="edge">
<title>f60&#45;&gt;f4</title>
<g id="a_edge26"><a xlink:title="Function ID=60 depends on function ID=4">
<path fill="none" stroke="black" d="M684.86,-662.42C728.81,-644.57 819.55,-599 819.55,-527 819.55,-527 819.55,-527 819.55,-379 819.55,-337.4 820,-319.38 790.55,-290 785.7,-285.17 705.36,-260.51 657.9,-246.24"/>
<polygon fill="black" stroke="black" points="658.9,-242.88 648.32,-243.36 656.89,-249.59 658.9,-242.88"/>
</a>
</g>
</g>
<!-- f60&#45;&gt;f59 -->
<g id="edge54" class="edge">
<title>f60&#45;&gt;f59</title>
<g id="a_edge54"><a xlink:title="Function ID=60 depends on function ID=59">
<path fill="none" stroke="black" d="M661.55,-653.81C661.55,-645.79 661.55,-636.05 661.55,-627.07"/>
<polygon fill="black" stroke="black" points="665.05,-627.03 661.55,-617.03 658.05,-627.03 665.05,-627.03"/>
</a>
</g>
</g>
</g>
</svg>
