<?xml version="1.0" encoding="UTF-8" standalone="no"?>
<!DOCTYPE svg PUBLIC "-//W3C//DTD SVG 1.1//EN"
 "http://www.w3.org/Graphics/SVG/1.1/DTD/svg11.dtd">
<!-- Generated by graphviz version 2.43.0 (0)
 -->
<!-- Title: %3 Pages: 1 -->
<svg width="595pt" height="698pt"
 viewBox="0.00 0.00 594.50 698.00" xmlns="http://www.w3.org/2000/svg" xmlns:xlink="http://www.w3.org/1999/xlink">
<g id="graph0" class="graph" transform="scale(1 1) rotate(0) translate(4 694)">
<title>%3</title>
<g id="a_graph0"><a xlink:title="Hey! Notice that red nodes are clickable and &#10; tooltips contain additional information!">
<polygon fill="white" stroke="transparent" points="-4,4 -4,-694 590.5,-694 590.5,4 -4,4"/>
</a>
</g>
<!-- function0 -->
<g id="node1" class="node">
<title>function0</title>
<g id="a_node1"><a xlink:href="inspected-f2404-graph-0.svg" xlink:title="original function &#10; contains 2 duplicate subfunctions &#10; contains 2 unique subfunctions &#10; (and is clickable)">
<path fill="red" stroke="red" d="M574.5,-182C574.5,-182 459.5,-182 459.5,-182 453.5,-182 447.5,-176 447.5,-170 447.5,-170 447.5,-156 447.5,-156 447.5,-150 453.5,-144 459.5,-144 459.5,-144 574.5,-144 574.5,-144 580.5,-144 586.5,-150 586.5,-156 586.5,-156 586.5,-170 586.5,-170 586.5,-176 580.5,-182 574.5,-182"/>
<text text-anchor="middle" x="517" y="-166.8" font-family="Times,serif" font-size="14.00">(0.9) ** (X) </text>
<text text-anchor="middle" x="517" y="-151.8" font-family="Times,serif" font-size="14.00"> original function</text>
</a>
</g>
</g>
<!-- f2404 -->
<g id="node2" class="node">
<title>f2404</title>
<g id="a_node2"><a xlink:title="Function ID=2404 &#10; contains 1 duplicate subfunctions">
<ellipse fill="lightblue" stroke="lightblue" cx="484" cy="-90" rx="40.09" ry="18"/>
<text text-anchor="middle" x="484" y="-86.3" font-family="Times,serif" font-size="14.00">0.9 ** </text>
</a>
</g>
</g>
<!-- function0&#45;&gt;f2404 -->
<g id="edge1" class="edge">
<title>function0&#45;&gt;f2404</title>
<path fill="none" stroke="black" d="M508.5,-143.72C504.74,-135.63 500.25,-125.97 496.15,-117.14"/>
<polygon fill="black" stroke="black" points="499.29,-115.6 491.9,-108 492.94,-118.55 499.29,-115.6"/>
</g>
<!-- f1 -->
<g id="node7" class="node">
<title>f1</title>
<g id="a_node7"><a xlink:title="Function ID=1 &#10; contains 0 duplicate subfunctions">
<ellipse fill="lightgreen" stroke="lightgreen" cx="249" cy="-18" rx="27" ry="18"/>
<text text-anchor="middle" x="249" y="-14.3" font-family="Times,serif" font-size="14.00">X</text>
</a>
</g>
</g>
<!-- f2404&#45;&gt;f1 -->
<g id="edge8" class="edge">
<title>f2404&#45;&gt;f1</title>
<g id="a_edge8"><a xlink:title="Function ID=2404 depends on function ID=1">
<path fill="none" stroke="black" d="M451.32,-79.27C406.89,-66.03 327.79,-42.47 282.79,-29.06"/>
<polygon fill="black" stroke="black" points="283.77,-25.71 273.19,-26.21 281.77,-32.41 283.77,-25.71"/>
</a>
</g>
</g>
<!-- function1 -->
<g id="node3" class="node">
<title>function1</title>
<g id="a_node3"><a xlink:href="inspected-f2404-graph-1.svg" xlink:title="1st derivative function &#10; contains 9 duplicate subfunctions &#10; contains 8 unique subfunctions &#10; (and is clickable)">
<path fill="red" stroke="red" d="M156,-616C156,-616 60,-616 60,-616 54,-616 48,-610 48,-604 48,-604 48,-590 48,-590 48,-584 54,-578 60,-578 60,-578 156,-578 156,-578 162,-578 168,-584 168,-590 168,-590 168,-604 168,-604 168,-610 162,-616 156,-616"/>
<text text-anchor="middle" x="108" y="-600.8" font-family="Times,serif" font-size="14.00">(0.9) ** (X) </text>
<text text-anchor="middle" x="108" y="-585.8" font-family="Times,serif" font-size="14.00"> 1st derivative</text>
</a>
</g>
</g>
<!-- f2410 -->
<g id="node4" class="node">
<title>f2410</title>
<g id="a_node4"><a xlink:title="Function ID=2410 &#10; contains 8 duplicate subfunctions">
<ellipse fill="lightblue" stroke="lightblue" cx="108" cy="-524" rx="27" ry="18"/>
<text text-anchor="middle" x="108" y="-520.3" font-family="Times,serif" font-size="14.00">*</text>
</a>
</g>
</g>
<!-- function1&#45;&gt;f2410 -->
<g id="edge2" class="edge">
<title>function1&#45;&gt;f2410</title>
<path fill="none" stroke="black" d="M108,-577.72C108,-569.97 108,-560.79 108,-552.27"/>
<polygon fill="black" stroke="black" points="111.5,-552 108,-542 104.5,-552 111.5,-552"/>
</g>
<!-- f2408 -->
<g id="node12" class="node">
<title>f2408</title>
<g id="a_node12"><a xlink:title="Function ID=2408 &#10; contains 6 duplicate subfunctions">
<ellipse fill="lightblue" stroke="lightblue" cx="206" cy="-380" rx="27" ry="18"/>
<text text-anchor="middle" x="206" y="-376.3" font-family="Times,serif" font-size="14.00">*</text>
</a>
</g>
</g>
<!-- f2410&#45;&gt;f2408 -->
<g id="edge34" class="edge">
<title>f2410&#45;&gt;f2408</title>
<g id="a_edge34"><a xlink:title="Function ID=2410 depends on function ID=2408">
<path fill="none" stroke="black" d="M100.37,-506.54C92.81,-487.57 84.18,-456.17 98,-434 99.14,-432.17 143.89,-410.58 175.42,-395.53"/>
<polygon fill="black" stroke="black" points="177.19,-398.56 184.72,-391.1 174.18,-392.24 177.19,-398.56"/>
</a>
</g>
</g>
<!-- f2409 -->
<g id="node13" class="node">
<title>f2409</title>
<g id="a_node13"><a xlink:title="Function ID=2409 &#10; contains 0 duplicate subfunctions">
<ellipse fill="lightgreen" stroke="lightgreen" cx="134" cy="-452" rx="27" ry="18"/>
<text text-anchor="middle" x="134" y="-448.3" font-family="Times,serif" font-size="14.00">1.0</text>
</a>
</g>
</g>
<!-- f2410&#45;&gt;f2409 -->
<g id="edge28" class="edge">
<title>f2410&#45;&gt;f2409</title>
<g id="a_edge28"><a xlink:title="Function ID=2410 depends on function ID=2409">
<path fill="none" stroke="black" d="M114.16,-506.41C117.16,-498.34 120.84,-488.43 124.21,-479.35"/>
<polygon fill="black" stroke="black" points="127.5,-480.55 127.7,-469.96 120.94,-478.11 127.5,-480.55"/>
</a>
</g>
</g>
<!-- function2 -->
<g id="node5" class="node">
<title>function2</title>
<g id="a_node5"><a xlink:href="inspected-f2404-graph-2.svg" xlink:title="2nd derivative function &#10; contains 36 duplicate subfunctions &#10; contains 24 unique subfunctions &#10; (and is clickable)">
<path fill="red" stroke="red" d="M282.5,-690C282.5,-690 181.5,-690 181.5,-690 175.5,-690 169.5,-684 169.5,-678 169.5,-678 169.5,-664 169.5,-664 169.5,-658 175.5,-652 181.5,-652 181.5,-652 282.5,-652 282.5,-652 288.5,-652 294.5,-658 294.5,-664 294.5,-664 294.5,-678 294.5,-678 294.5,-684 288.5,-690 282.5,-690"/>
<text text-anchor="middle" x="232" y="-674.8" font-family="Times,serif" font-size="14.00">(0.9) ** (X) </text>
<text text-anchor="middle" x="232" y="-659.8" font-family="Times,serif" font-size="14.00"> 2nd derivative</text>
</a>
</g>
</g>
<!-- f2427 -->
<g id="node6" class="node">
<title>f2427</title>
<g id="a_node6"><a xlink:title="Function ID=2427 &#10; contains 35 duplicate subfunctions">
<ellipse fill="lightblue" stroke="lightblue" cx="232" cy="-597" rx="27" ry="18"/>
<text text-anchor="middle" x="232" y="-593.3" font-family="Times,serif" font-size="14.00">+</text>
</a>
</g>
</g>
<!-- function2&#45;&gt;f2427 -->
<g id="edge3" class="edge">
<title>function2&#45;&gt;f2427</title>
<path fill="none" stroke="black" d="M232,-651.83C232,-643.89 232,-634.41 232,-625.63"/>
<polygon fill="black" stroke="black" points="235.5,-625.42 232,-615.42 228.5,-625.42 235.5,-625.42"/>
</g>
<!-- f2424 -->
<g id="node27" class="node">
<title>f2424</title>
<g id="a_node27"><a xlink:title="Function ID=2424 &#10; contains 25 duplicate subfunctions">
<ellipse fill="lightblue" stroke="lightblue" cx="206" cy="-524" rx="27" ry="18"/>
<text text-anchor="middle" x="206" y="-520.3" font-family="Times,serif" font-size="14.00">*</text>
</a>
</g>
</g>
<!-- f2427&#45;&gt;f2424 -->
<g id="edge9" class="edge">
<title>f2427&#45;&gt;f2424</title>
<g id="a_edge9"><a xlink:title="Function ID=2427 depends on function ID=2424">
<path fill="none" stroke="black" d="M225.84,-579.17C222.79,-570.86 219.05,-560.64 215.64,-551.33"/>
<polygon fill="black" stroke="black" points="218.84,-549.89 212.12,-541.71 212.27,-552.3 218.84,-549.89"/>
</a>
</g>
</g>
<!-- f2426 -->
<g id="node29" class="node">
<title>f2426</title>
<g id="a_node29"><a xlink:title="Function ID=2426 &#10; contains 8 duplicate subfunctions">
<ellipse fill="lightblue" stroke="lightblue" cx="278" cy="-524" rx="27" ry="18"/>
<text text-anchor="middle" x="278" y="-520.3" font-family="Times,serif" font-size="14.00">*</text>
</a>
</g>
</g>
<!-- f2427&#45;&gt;f2426 -->
<g id="edge16" class="edge">
<title>f2427&#45;&gt;f2426</title>
<g id="a_edge16"><a xlink:title="Function ID=2427 depends on function ID=2426">
<path fill="none" stroke="black" d="M242.21,-580.24C248.1,-571.14 255.64,-559.5 262.28,-549.26"/>
<polygon fill="black" stroke="black" points="265.32,-551.01 267.82,-540.71 259.44,-547.2 265.32,-551.01"/>
</a>
</g>
</g>
<!-- f2 -->
<g id="node8" class="node">
<title>f2</title>
<g id="a_node8"><a xlink:title="Function ID=2 &#10; contains 1 duplicate subfunctions">
<ellipse fill="lightblue" stroke="lightblue" cx="249" cy="-90" rx="27.9" ry="18"/>
<text text-anchor="middle" x="249" y="-86.3" font-family="Times,serif" font-size="14.00">Log</text>
</a>
</g>
</g>
<!-- f2&#45;&gt;f1 -->
<g id="edge35" class="edge">
<title>f2&#45;&gt;f1</title>
<g id="a_edge35"><a xlink:title="Function ID=2 depends on function ID=1">
<path fill="none" stroke="black" d="M249,-71.7C249,-63.98 249,-54.71 249,-46.11"/>
<polygon fill="black" stroke="black" points="252.5,-46.1 249,-36.1 245.5,-46.1 252.5,-46.1"/>
</a>
</g>
</g>
<!-- f2405 -->
<g id="node9" class="node">
<title>f2405</title>
<g id="a_node9"><a xlink:title="Function ID=2405 &#10; contains 1 duplicate subfunctions">
<ellipse fill="lightblue" stroke="lightblue" cx="164" cy="-308" rx="40.09" ry="18"/>
<text text-anchor="middle" x="164" y="-304.3" font-family="Times,serif" font-size="14.00">0.9 ** </text>
</a>
</g>
</g>
<!-- f2405&#45;&gt;f1 -->
<g id="edge26" class="edge">
<title>f2405&#45;&gt;f1</title>
<g id="a_edge26"><a xlink:title="Function ID=2405 depends on function ID=1">
<path fill="none" stroke="black" d="M165.12,-289.77C168.22,-249.92 178.99,-148.91 212,-72 216.49,-61.53 223.25,-51.03 229.76,-42.16"/>
<polygon fill="black" stroke="black" points="232.54,-44.29 235.84,-34.22 226.98,-40.03 232.54,-44.29"/>
</a>
</g>
</g>
<!-- f2406 -->
<g id="node10" class="node">
<title>f2406</title>
<g id="a_node10"><a xlink:title="Function ID=2406 &#10; contains 0 duplicate subfunctions">
<ellipse fill="lightgreen" stroke="lightgreen" cx="118" cy="-163" rx="27" ry="18"/>
<text text-anchor="middle" x="118" y="-159.3" font-family="Times,serif" font-size="14.00">0.9</text>
</a>
</g>
</g>
<!-- f2407 -->
<g id="node11" class="node">
<title>f2407</title>
<g id="a_node11"><a xlink:title="Function ID=2407 &#10; contains 3 duplicate subfunctions">
<ellipse fill="lightblue" stroke="lightblue" cx="249" cy="-308" rx="27" ry="18"/>
<text text-anchor="middle" x="249" y="-304.3" font-family="Times,serif" font-size="14.00">of</text>
</a>
</g>
</g>
<!-- f2407&#45;&gt;f2 -->
<g id="edge23" class="edge">
<title>f2407&#45;&gt;f2</title>
<g id="a_edge23"><a xlink:title="Function ID=2407 depends on function ID=2">
<path fill="none" stroke="black" d="M249,-289.69C249,-252.23 249,-163.42 249,-118.31"/>
<polygon fill="black" stroke="black" points="252.5,-118.09 249,-108.09 245.5,-118.09 252.5,-118.09"/>
</a>
</g>
</g>
<!-- f2407&#45;&gt;f2406 -->
<g id="edge10" class="edge">
<title>f2407&#45;&gt;f2406</title>
<g id="a_edge10"><a xlink:title="Function ID=2407 depends on function ID=2406">
<path fill="none" stroke="black" d="M235.47,-292.24C212.53,-267.19 165.83,-216.22 138.74,-186.64"/>
<polygon fill="black" stroke="black" points="140.98,-183.91 131.65,-178.9 135.82,-188.64 140.98,-183.91"/>
</a>
</g>
</g>
<!-- f2408&#45;&gt;f2405 -->
<g id="edge24" class="edge">
<title>f2408&#45;&gt;f2405</title>
<g id="a_edge24"><a xlink:title="Function ID=2408 depends on function ID=2405">
<path fill="none" stroke="black" d="M196.47,-363.12C191.41,-354.68 185.06,-344.1 179.33,-334.55"/>
<polygon fill="black" stroke="black" points="182.22,-332.57 174.08,-325.8 176.22,-336.17 182.22,-332.57"/>
</a>
</g>
</g>
<!-- f2408&#45;&gt;f2407 -->
<g id="edge27" class="edge">
<title>f2408&#45;&gt;f2407</title>
<g id="a_edge27"><a xlink:title="Function ID=2408 depends on function ID=2407">
<path fill="none" stroke="black" d="M215.76,-363.12C221.15,-354.34 227.95,-343.26 234,-333.42"/>
<polygon fill="black" stroke="black" points="237.03,-335.17 239.28,-324.82 231.06,-331.51 237.03,-335.17"/>
</a>
</g>
</g>
<!-- f2411 -->
<g id="node14" class="node">
<title>f2411</title>
<g id="a_node14"><a xlink:title="Function ID=2411 &#10; contains 1 duplicate subfunctions">
<ellipse fill="lightblue" stroke="lightblue" cx="389" cy="-163" rx="40.09" ry="18"/>
<text text-anchor="middle" x="389" y="-159.3" font-family="Times,serif" font-size="14.00">0.9 ** </text>
</a>
</g>
</g>
<!-- f2411&#45;&gt;f1 -->
<g id="edge22" class="edge">
<title>f2411&#45;&gt;f1</title>
<g id="a_edge22"><a xlink:title="Function ID=2411 depends on function ID=1">
<path fill="none" stroke="black" d="M387.06,-144.77C384.01,-125.05 376.41,-92.78 358,-72 338.47,-49.95 307.7,-36.17 283.83,-28.2"/>
<polygon fill="black" stroke="black" points="284.66,-24.8 274.07,-25.14 282.56,-31.47 284.66,-24.8"/>
</a>
</g>
</g>
<!-- f2412 -->
<g id="node15" class="node">
<title>f2412</title>
<g id="a_node15"><a xlink:title="Function ID=2412 &#10; contains 0 duplicate subfunctions">
<ellipse fill="lightgreen" stroke="lightgreen" cx="322" cy="-90" rx="27" ry="18"/>
<text text-anchor="middle" x="322" y="-86.3" font-family="Times,serif" font-size="14.00">0.9</text>
</a>
</g>
</g>
<!-- f2413 -->
<g id="node16" class="node">
<title>f2413</title>
<g id="a_node16"><a xlink:title="Function ID=2413 &#10; contains 3 duplicate subfunctions">
<ellipse fill="lightblue" stroke="lightblue" cx="304" cy="-163" rx="27" ry="18"/>
<text text-anchor="middle" x="304" y="-159.3" font-family="Times,serif" font-size="14.00">of</text>
</a>
</g>
</g>
<!-- f2413&#45;&gt;f2 -->
<g id="edge21" class="edge">
<title>f2413&#45;&gt;f2</title>
<g id="a_edge21"><a xlink:title="Function ID=2413 depends on function ID=2">
<path fill="none" stroke="black" d="M292.07,-146.59C284.79,-137.2 275.34,-125 267.15,-114.42"/>
<polygon fill="black" stroke="black" points="269.8,-112.14 260.91,-106.38 264.27,-116.42 269.8,-112.14"/>
</a>
</g>
</g>
<!-- f2413&#45;&gt;f2412 -->
<g id="edge12" class="edge">
<title>f2413&#45;&gt;f2412</title>
<g id="a_edge12"><a xlink:title="Function ID=2413 depends on function ID=2412">
<path fill="none" stroke="black" d="M308.27,-145.17C310.32,-137.07 312.83,-127.15 315.15,-118.03"/>
<polygon fill="black" stroke="black" points="318.57,-118.75 317.64,-108.2 311.79,-117.03 318.57,-118.75"/>
</a>
</g>
</g>
<!-- f2414 -->
<g id="node17" class="node">
<title>f2414</title>
<g id="a_node17"><a xlink:title="Function ID=2414 &#10; contains 6 duplicate subfunctions">
<ellipse fill="lightblue" stroke="lightblue" cx="313" cy="-236" rx="27" ry="18"/>
<text text-anchor="middle" x="313" y="-232.3" font-family="Times,serif" font-size="14.00">*</text>
</a>
</g>
</g>
<!-- f2414&#45;&gt;f2411 -->
<g id="edge25" class="edge">
<title>f2414&#45;&gt;f2411</title>
<g id="a_edge25"><a xlink:title="Function ID=2414 depends on function ID=2411">
<path fill="none" stroke="black" d="M328.02,-220.97C338.52,-211.16 352.78,-197.84 364.86,-186.55"/>
<polygon fill="black" stroke="black" points="367.51,-188.86 372.43,-179.48 362.74,-183.75 367.51,-188.86"/>
</a>
</g>
</g>
<!-- f2414&#45;&gt;f2413 -->
<g id="edge30" class="edge">
<title>f2414&#45;&gt;f2413</title>
<g id="a_edge30"><a xlink:title="Function ID=2414 depends on function ID=2413">
<path fill="none" stroke="black" d="M310.82,-217.81C309.8,-209.79 308.57,-200.05 307.43,-191.07"/>
<polygon fill="black" stroke="black" points="310.89,-190.51 306.16,-181.03 303.94,-191.39 310.89,-190.51"/>
</a>
</g>
</g>
<!-- f2415 -->
<g id="node18" class="node">
<title>f2415</title>
<g id="a_node18"><a xlink:title="Function ID=2415 &#10; contains 0 duplicate subfunctions">
<ellipse fill="lightgreen" stroke="lightgreen" cx="385" cy="-236" rx="27" ry="18"/>
<text text-anchor="middle" x="385" y="-232.3" font-family="Times,serif" font-size="14.00">1.0</text>
</a>
</g>
</g>
<!-- f2416 -->
<g id="node19" class="node">
<title>f2416</title>
<g id="a_node19"><a xlink:title="Function ID=2416 &#10; contains 8 duplicate subfunctions">
<ellipse fill="lightblue" stroke="lightblue" cx="321" cy="-308" rx="27" ry="18"/>
<text text-anchor="middle" x="321" y="-304.3" font-family="Times,serif" font-size="14.00">*</text>
</a>
</g>
</g>
<!-- f2416&#45;&gt;f2414 -->
<g id="edge36" class="edge">
<title>f2416&#45;&gt;f2414</title>
<g id="a_edge36"><a xlink:title="Function ID=2416 depends on function ID=2414">
<path fill="none" stroke="black" d="M319.02,-289.7C318.14,-281.98 317.08,-272.71 316.1,-264.11"/>
<polygon fill="black" stroke="black" points="319.57,-263.64 314.95,-254.1 312.61,-264.44 319.57,-263.64"/>
</a>
</g>
</g>
<!-- f2416&#45;&gt;f2415 -->
<g id="edge31" class="edge">
<title>f2416&#45;&gt;f2415</title>
<g id="a_edge31"><a xlink:title="Function ID=2416 depends on function ID=2415">
<path fill="none" stroke="black" d="M334.57,-292.15C343.31,-282.6 354.83,-269.99 364.66,-259.25"/>
<polygon fill="black" stroke="black" points="367.28,-261.57 371.45,-251.82 362.12,-256.84 367.28,-261.57"/>
</a>
</g>
</g>
<!-- f2417 -->
<g id="node20" class="node">
<title>f2417</title>
<g id="a_node20"><a xlink:title="Function ID=2417 &#10; contains 13 duplicate subfunctions">
<ellipse fill="lightblue" stroke="lightblue" cx="278" cy="-380" rx="27" ry="18"/>
<text text-anchor="middle" x="278" y="-376.3" font-family="Times,serif" font-size="14.00">*</text>
</a>
</g>
</g>
<!-- f2417&#45;&gt;f2407 -->
<g id="edge6" class="edge">
<title>f2417&#45;&gt;f2407</title>
<g id="a_edge6"><a xlink:title="Function ID=2417 depends on function ID=2407">
<path fill="none" stroke="black" d="M271.13,-362.41C267.73,-354.22 263.56,-344.14 259.75,-334.95"/>
<polygon fill="black" stroke="black" points="262.88,-333.37 255.82,-325.47 256.42,-336.05 262.88,-333.37"/>
</a>
</g>
</g>
<!-- f2417&#45;&gt;f2416 -->
<g id="edge11" class="edge">
<title>f2417&#45;&gt;f2416</title>
<g id="a_edge11"><a xlink:title="Function ID=2417 depends on function ID=2416">
<path fill="none" stroke="black" d="M287.76,-363.12C293.15,-354.34 299.95,-343.26 306,-333.42"/>
<polygon fill="black" stroke="black" points="309.03,-335.17 311.28,-324.82 303.06,-331.51 309.03,-335.17"/>
</a>
</g>
</g>
<!-- f2418 -->
<g id="node21" class="node">
<title>f2418</title>
<g id="a_node21"><a xlink:title="Function ID=2418 &#10; contains 1 duplicate subfunctions">
<ellipse fill="lightblue" stroke="lightblue" cx="87" cy="-90" rx="34.39" ry="18"/>
<text text-anchor="middle" x="87" y="-86.3" font-family="Times,serif" font-size="14.00">1.0 / </text>
</a>
</g>
</g>
<!-- f2418&#45;&gt;f1 -->
<g id="edge4" class="edge">
<title>f2418&#45;&gt;f1</title>
<g id="a_edge4"><a xlink:title="Function ID=2418 depends on function ID=1">
<path fill="none" stroke="black" d="M112.67,-77.91C141.09,-65.63 186.91,-45.83 217.49,-32.62"/>
<polygon fill="black" stroke="black" points="219.04,-35.76 226.83,-28.58 216.27,-29.33 219.04,-35.76"/>
</a>
</g>
</g>
<!-- f2419 -->
<g id="node22" class="node">
<title>f2419</title>
<g id="a_node22"><a xlink:title="Function ID=2419 &#10; contains 3 duplicate subfunctions">
<ellipse fill="lightblue" stroke="lightblue" cx="99" cy="-236" rx="27" ry="18"/>
<text text-anchor="middle" x="99" y="-232.3" font-family="Times,serif" font-size="14.00">of</text>
</a>
</g>
</g>
<!-- f2419&#45;&gt;f2406 -->
<g id="edge5" class="edge">
<title>f2419&#45;&gt;f2406</title>
<g id="a_edge5"><a xlink:title="Function ID=2419 depends on function ID=2406">
<path fill="none" stroke="black" d="M103.5,-218.17C105.67,-210.07 108.33,-200.15 110.77,-191.03"/>
<polygon fill="black" stroke="black" points="114.19,-191.76 113.4,-181.2 107.43,-189.95 114.19,-191.76"/>
</a>
</g>
</g>
<!-- f2419&#45;&gt;f2418 -->
<g id="edge14" class="edge">
<title>f2419&#45;&gt;f2418</title>
<g id="a_edge14"><a xlink:title="Function ID=2419 depends on function ID=2418">
<path fill="none" stroke="black" d="M92.11,-218.14C88.3,-207.88 83.94,-194.41 82,-182 78.67,-160.7 80.3,-136.29 82.55,-118.12"/>
<polygon fill="black" stroke="black" points="86.02,-118.6 83.92,-108.21 79.09,-117.64 86.02,-118.6"/>
</a>
</g>
</g>
<!-- f2420 -->
<g id="node23" class="node">
<title>f2420</title>
<g id="a_node23"><a xlink:title="Function ID=2420 &#10; contains 0 duplicate subfunctions">
<ellipse fill="lightgreen" stroke="lightgreen" cx="27" cy="-236" rx="27" ry="18"/>
<text text-anchor="middle" x="27" y="-232.3" font-family="Times,serif" font-size="14.00">0.0</text>
</a>
</g>
</g>
<!-- f2421 -->
<g id="node24" class="node">
<title>f2421</title>
<g id="a_node24"><a xlink:title="Function ID=2421 &#10; contains 5 duplicate subfunctions">
<ellipse fill="lightblue" stroke="lightblue" cx="79" cy="-308" rx="27" ry="18"/>
<text text-anchor="middle" x="79" y="-304.3" font-family="Times,serif" font-size="14.00">*</text>
</a>
</g>
</g>
<!-- f2421&#45;&gt;f2419 -->
<g id="edge17" class="edge">
<title>f2421&#45;&gt;f2419</title>
<g id="a_edge17"><a xlink:title="Function ID=2421 depends on function ID=2419">
<path fill="none" stroke="black" d="M83.84,-290.05C86.1,-282.14 88.85,-272.54 91.37,-263.69"/>
<polygon fill="black" stroke="black" points="94.82,-264.37 94.2,-253.79 88.09,-262.44 94.82,-264.37"/>
</a>
</g>
</g>
<!-- f2421&#45;&gt;f2420 -->
<g id="edge15" class="edge">
<title>f2421&#45;&gt;f2420</title>
<g id="a_edge15"><a xlink:title="Function ID=2421 depends on function ID=2420">
<path fill="none" stroke="black" d="M67.46,-291.46C60.73,-282.4 52.1,-270.79 44.54,-260.61"/>
<polygon fill="black" stroke="black" points="47.28,-258.43 38.51,-252.49 41.66,-262.61 47.28,-258.43"/>
</a>
</g>
</g>
<!-- f2422 -->
<g id="node25" class="node">
<title>f2422</title>
<g id="a_node25"><a xlink:title="Function ID=2422 &#10; contains 8 duplicate subfunctions">
<ellipse fill="lightblue" stroke="lightblue" cx="134" cy="-380" rx="27" ry="18"/>
<text text-anchor="middle" x="134" y="-376.3" font-family="Times,serif" font-size="14.00">*</text>
</a>
</g>
</g>
<!-- f2422&#45;&gt;f2405 -->
<g id="edge18" class="edge">
<title>f2422&#45;&gt;f2405</title>
<g id="a_edge18"><a xlink:title="Function ID=2422 depends on function ID=2405">
<path fill="none" stroke="black" d="M141.11,-362.41C144.57,-354.34 148.82,-344.43 152.71,-335.35"/>
<polygon fill="black" stroke="black" points="156.01,-336.53 156.73,-325.96 149.58,-333.77 156.01,-336.53"/>
</a>
</g>
</g>
<!-- f2422&#45;&gt;f2421 -->
<g id="edge32" class="edge">
<title>f2422&#45;&gt;f2421</title>
<g id="a_edge32"><a xlink:title="Function ID=2422 depends on function ID=2421">
<path fill="none" stroke="black" d="M122.07,-363.81C114.79,-354.55 105.34,-342.52 97.15,-332.09"/>
<polygon fill="black" stroke="black" points="99.84,-329.86 90.91,-324.16 94.34,-334.18 99.84,-329.86"/>
</a>
</g>
</g>
<!-- f2423 -->
<g id="node26" class="node">
<title>f2423</title>
<g id="a_node26"><a xlink:title="Function ID=2423 &#10; contains 23 duplicate subfunctions">
<ellipse fill="lightblue" stroke="lightblue" cx="206" cy="-452" rx="27" ry="18"/>
<text text-anchor="middle" x="206" y="-448.3" font-family="Times,serif" font-size="14.00">+</text>
</a>
</g>
</g>
<!-- f2423&#45;&gt;f2417 -->
<g id="edge7" class="edge">
<title>f2423&#45;&gt;f2417</title>
<g id="a_edge7"><a xlink:title="Function ID=2423 depends on function ID=2417">
<path fill="none" stroke="black" d="M220.57,-436.83C230.75,-426.94 244.52,-413.55 256.03,-402.36"/>
<polygon fill="black" stroke="black" points="258.47,-404.87 263.2,-395.38 253.59,-399.85 258.47,-404.87"/>
</a>
</g>
</g>
<!-- f2423&#45;&gt;f2422 -->
<g id="edge13" class="edge">
<title>f2423&#45;&gt;f2422</title>
<g id="a_edge13"><a xlink:title="Function ID=2423 depends on function ID=2422">
<path fill="none" stroke="black" d="M191.43,-436.83C181.25,-426.94 167.48,-413.55 155.97,-402.36"/>
<polygon fill="black" stroke="black" points="158.41,-399.85 148.8,-395.38 153.53,-404.87 158.41,-399.85"/>
</a>
</g>
</g>
<!-- f2424&#45;&gt;f2409 -->
<g id="edge20" class="edge">
<title>f2424&#45;&gt;f2409</title>
<g id="a_edge20"><a xlink:title="Function ID=2424 depends on function ID=2409">
<path fill="none" stroke="black" d="M191.43,-508.83C181.25,-498.94 167.48,-485.55 155.97,-474.36"/>
<polygon fill="black" stroke="black" points="158.41,-471.85 148.8,-467.38 153.53,-476.87 158.41,-471.85"/>
</a>
</g>
</g>
<!-- f2424&#45;&gt;f2423 -->
<g id="edge29" class="edge">
<title>f2424&#45;&gt;f2423</title>
<g id="a_edge29"><a xlink:title="Function ID=2424 depends on function ID=2423">
<path fill="none" stroke="black" d="M206,-505.7C206,-497.98 206,-488.71 206,-480.11"/>
<polygon fill="black" stroke="black" points="209.5,-480.1 206,-470.1 202.5,-480.1 209.5,-480.1"/>
</a>
</g>
</g>
<!-- f2425 -->
<g id="node28" class="node">
<title>f2425</title>
<g id="a_node28"><a xlink:title="Function ID=2425 &#10; contains 0 duplicate subfunctions">
<ellipse fill="lightgreen" stroke="lightgreen" cx="278" cy="-452" rx="27" ry="18"/>
<text text-anchor="middle" x="278" y="-448.3" font-family="Times,serif" font-size="14.00">0.0</text>
</a>
</g>
</g>
<!-- f2426&#45;&gt;f2408 -->
<g id="edge19" class="edge">
<title>f2426&#45;&gt;f2408</title>
<g id="a_edge19"><a xlink:title="Function ID=2426 depends on function ID=2408">
<path fill="none" stroke="black" d="M291.98,-508.4C307.7,-490.14 329.16,-458.33 314,-434 312.86,-432.17 268.11,-410.58 236.58,-395.53"/>
<polygon fill="black" stroke="black" points="237.82,-392.24 227.28,-391.1 234.81,-398.56 237.82,-392.24"/>
</a>
</g>
</g>
<!-- f2426&#45;&gt;f2425 -->
<g id="edge33" class="edge">
<title>f2426&#45;&gt;f2425</title>
<g id="a_edge33"><a xlink:title="Function ID=2426 depends on function ID=2425">
<path fill="none" stroke="black" d="M278,-505.7C278,-497.98 278,-488.71 278,-480.11"/>
<polygon fill="black" stroke="black" points="281.5,-480.1 278,-470.1 274.5,-480.1 281.5,-480.1"/>
</a>
</g>
</g>
</g>
</svg>
