<?xml version="1.0" encoding="UTF-8" standalone="no"?>
<!DOCTYPE svg PUBLIC "-//W3C//DTD SVG 1.1//EN"
 "http://www.w3.org/Graphics/SVG/1.1/DTD/svg11.dtd">
<!-- Generated by graphviz version 2.43.0 (0)
 -->
<!-- Title: %3 Pages: 1 -->
<svg width="480pt" height="408pt"
 viewBox="0.00 0.00 480.00 408.00" xmlns="http://www.w3.org/2000/svg" xmlns:xlink="http://www.w3.org/1999/xlink">
<g id="graph0" class="graph" transform="scale(1 1) rotate(0) translate(4 404)">
<title>%3</title>
<g id="a_graph0"><a xlink:title="Hey! Notice that red nodes are clickable and &#10; tooltips contain additional information!">
<polygon fill="white" stroke="transparent" points="-4,4 -4,-404 476,-404 476,4 -4,4"/>
</a>
</g>
<!-- function0 -->
<g id="node1" class="node">
<title>function0</title>
<g id="a_node1"><a xlink:href="inspected-f7089-graph-0.svg" xlink:title="original function &#10; contains 6 duplicate subfunctions &#10; contains 5 unique subfunctions &#10; (and is clickable)">
<path fill="red" stroke="red" d="M248,-326C248,-326 12,-326 12,-326 6,-326 0,-320 0,-314 0,-314 0,-300 0,-300 0,-294 6,-288 12,-288 12,-288 248,-288 248,-288 254,-288 260,-294 260,-300 260,-300 260,-314 260,-314 260,-320 254,-326 248,-326"/>
<text text-anchor="middle" x="130" y="-310.8" font-family="Times,serif" font-size="14.00">((X) ** (3.0)) + ((100.0) * (Sin(X))) </text>
<text text-anchor="middle" x="130" y="-295.8" font-family="Times,serif" font-size="14.00"> original function</text>
</a>
</g>
</g>
<!-- f7089 -->
<g id="node2" class="node">
<title>f7089</title>
<g id="a_node2"><a xlink:title="Function ID=7089 &#10; contains 5 duplicate subfunctions">
<ellipse fill="lightblue" stroke="lightblue" cx="130" cy="-234" rx="27" ry="18"/>
<text text-anchor="middle" x="130" y="-230.3" font-family="Times,serif" font-size="14.00">+</text>
</a>
</g>
</g>
<!-- function0&#45;&gt;f7089 -->
<g id="edge1" class="edge">
<title>function0&#45;&gt;f7089</title>
<path fill="none" stroke="black" d="M130,-287.72C130,-279.97 130,-270.79 130,-262.27"/>
<polygon fill="black" stroke="black" points="133.5,-262 130,-252 126.5,-262 133.5,-262"/>
</g>
<!-- f7088 -->
<g id="node5" class="node">
<title>f7088</title>
<g id="a_node5"><a xlink:title="Function ID=7088 &#10; contains 2 duplicate subfunctions">
<ellipse fill="lightblue" stroke="lightblue" cx="93" cy="-162" rx="44.39" ry="18"/>
<text text-anchor="middle" x="93" y="-158.3" font-family="Times,serif" font-size="14.00">100.0 *</text>
</a>
</g>
</g>
<!-- f7089&#45;&gt;f7088 -->
<g id="edge7" class="edge">
<title>f7089&#45;&gt;f7088</title>
<g id="a_edge7"><a xlink:title="Function ID=7089 depends on function ID=7088">
<path fill="none" stroke="black" d="M121.42,-216.76C117.06,-208.53 111.67,-198.32 106.75,-189.02"/>
<polygon fill="black" stroke="black" points="109.82,-187.33 102.05,-180.12 103.63,-190.6 109.82,-187.33"/>
</a>
</g>
</g>
<!-- f7087 -->
<g id="node14" class="node">
<title>f7087</title>
<g id="a_node14"><a xlink:title="Function ID=7087 &#10; contains 1 duplicate subfunctions">
<ellipse fill="lightblue" stroke="lightblue" cx="168" cy="-90" rx="31.4" ry="18"/>
<text text-anchor="middle" x="168" y="-86.3" font-family="Times,serif" font-size="14.00"> ** 3</text>
</a>
</g>
</g>
<!-- f7089&#45;&gt;f7087 -->
<g id="edge11" class="edge">
<title>f7089&#45;&gt;f7087</title>
<g id="a_edge11"><a xlink:title="Function ID=7089 depends on function ID=7087">
<path fill="none" stroke="black" d="M135.41,-215.88C138.62,-205.53 142.69,-192.05 146,-180 151.65,-159.41 157.42,-135.96 161.63,-118.3"/>
<polygon fill="black" stroke="black" points="165.14,-118.67 164.04,-108.13 158.33,-117.05 165.14,-118.67"/>
</a>
</g>
</g>
<!-- function1 -->
<g id="node3" class="node">
<title>function1</title>
<g id="a_node3"><a xlink:href="inspected-f7089-graph-1.svg" xlink:title="1st derivative function &#10; contains 9 duplicate subfunctions &#10; contains 8 unique subfunctions &#10; (and is clickable)">
<path fill="red" stroke="red" d="M460,-400C460,-400 224,-400 224,-400 218,-400 212,-394 212,-388 212,-388 212,-374 212,-374 212,-368 218,-362 224,-362 224,-362 460,-362 460,-362 466,-362 472,-368 472,-374 472,-374 472,-388 472,-388 472,-394 466,-400 460,-400"/>
<text text-anchor="middle" x="342" y="-384.8" font-family="Times,serif" font-size="14.00">((X) ** (3.0)) + ((100.0) * (Sin(X))) </text>
<text text-anchor="middle" x="342" y="-369.8" font-family="Times,serif" font-size="14.00"> 1st derivative</text>
</a>
</g>
</g>
<!-- f7095 -->
<g id="node4" class="node">
<title>f7095</title>
<g id="a_node4"><a xlink:title="Function ID=7095 &#10; contains 8 duplicate subfunctions">
<ellipse fill="lightblue" stroke="lightblue" cx="342" cy="-307" rx="27" ry="18"/>
<text text-anchor="middle" x="342" y="-303.3" font-family="Times,serif" font-size="14.00">+</text>
</a>
</g>
</g>
<!-- function1&#45;&gt;f7095 -->
<g id="edge2" class="edge">
<title>function1&#45;&gt;f7095</title>
<path fill="none" stroke="black" d="M342,-361.83C342,-353.89 342,-344.41 342,-335.63"/>
<polygon fill="black" stroke="black" points="345.5,-335.42 342,-325.42 338.5,-335.42 345.5,-335.42"/>
</g>
<!-- f7093 -->
<g id="node12" class="node">
<title>f7093</title>
<g id="a_node12"><a xlink:title="Function ID=7093 &#10; contains 4 duplicate subfunctions">
<ellipse fill="lightblue" stroke="lightblue" cx="280" cy="-234" rx="27" ry="18"/>
<text text-anchor="middle" x="280" y="-230.3" font-family="Times,serif" font-size="14.00">*</text>
</a>
</g>
</g>
<!-- f7095&#45;&gt;f7093 -->
<g id="edge12" class="edge">
<title>f7095&#45;&gt;f7093</title>
<g id="a_edge12"><a xlink:title="Function ID=7095 depends on function ID=7093">
<path fill="none" stroke="black" d="M328.85,-290.94C320.47,-281.34 309.44,-268.71 299.98,-257.89"/>
<polygon fill="black" stroke="black" points="302.34,-255.27 293.13,-250.04 297.07,-259.87 302.34,-255.27"/>
</a>
</g>
</g>
<!-- f7094 -->
<g id="node13" class="node">
<title>f7094</title>
<g id="a_node13"><a xlink:title="Function ID=7094 &#10; contains 2 duplicate subfunctions">
<ellipse fill="lightblue" stroke="lightblue" cx="369" cy="-234" rx="44.39" ry="18"/>
<text text-anchor="middle" x="369" y="-230.3" font-family="Times,serif" font-size="14.00">100.0 *</text>
</a>
</g>
</g>
<!-- f7095&#45;&gt;f7094 -->
<g id="edge10" class="edge">
<title>f7095&#45;&gt;f7094</title>
<g id="a_edge10"><a xlink:title="Function ID=7095 depends on function ID=7094">
<path fill="none" stroke="black" d="M348.4,-289.17C351.51,-280.98 355.33,-270.94 358.83,-261.73"/>
<polygon fill="black" stroke="black" points="362.18,-262.79 362.46,-252.2 355.63,-260.3 362.18,-262.79"/>
</a>
</g>
</g>
<!-- f3 -->
<g id="node8" class="node">
<title>f3</title>
<g id="a_node8"><a xlink:title="Function ID=3 &#10; contains 1 duplicate subfunctions">
<ellipse fill="lightblue" stroke="lightblue" cx="92" cy="-90" rx="27" ry="18"/>
<text text-anchor="middle" x="92" y="-86.3" font-family="Times,serif" font-size="14.00">Sin</text>
</a>
</g>
</g>
<!-- f7088&#45;&gt;f3 -->
<g id="edge5" class="edge">
<title>f7088&#45;&gt;f3</title>
<g id="a_edge5"><a xlink:title="Function ID=7088 depends on function ID=3">
<path fill="none" stroke="black" d="M92.75,-143.7C92.64,-135.98 92.51,-126.71 92.39,-118.11"/>
<polygon fill="black" stroke="black" points="95.89,-118.05 92.24,-108.1 88.89,-118.15 95.89,-118.05"/>
</a>
</g>
</g>
<!-- f1 -->
<g id="node6" class="node">
<title>f1</title>
<g id="a_node6"><a xlink:title="Function ID=1 &#10; contains 0 duplicate subfunctions">
<ellipse fill="lightgreen" stroke="lightgreen" cx="208" cy="-18" rx="27" ry="18"/>
<text text-anchor="middle" x="208" y="-14.3" font-family="Times,serif" font-size="14.00">X</text>
</a>
</g>
</g>
<!-- f7090 -->
<g id="node7" class="node">
<title>f7090</title>
<g id="a_node7"><a xlink:title="Function ID=7090 &#10; contains 1 duplicate subfunctions">
<ellipse fill="lightblue" stroke="lightblue" cx="248" cy="-90" rx="31.4" ry="18"/>
<text text-anchor="middle" x="248" y="-86.3" font-family="Times,serif" font-size="14.00"> ** 2</text>
</a>
</g>
</g>
<!-- f7090&#45;&gt;f1 -->
<g id="edge3" class="edge">
<title>f7090&#45;&gt;f1</title>
<g id="a_edge3"><a xlink:title="Function ID=7090 depends on function ID=1">
<path fill="none" stroke="black" d="M238.72,-72.76C233.83,-64.19 227.71,-53.49 222.23,-43.9"/>
<polygon fill="black" stroke="black" points="225.23,-42.09 217.23,-35.15 219.15,-45.57 225.23,-42.09"/>
</a>
</g>
</g>
<!-- f3&#45;&gt;f1 -->
<g id="edge15" class="edge">
<title>f3&#45;&gt;f1</title>
<g id="a_edge15"><a xlink:title="Function ID=3 depends on function ID=1">
<path fill="none" stroke="black" d="M111.42,-77.28C130.15,-65.98 158.72,-48.74 179.93,-35.94"/>
<polygon fill="black" stroke="black" points="181.77,-38.92 188.52,-30.75 178.15,-32.92 181.77,-38.92"/>
</a>
</g>
</g>
<!-- f7091 -->
<g id="node9" class="node">
<title>f7091</title>
<g id="a_node9"><a xlink:title="Function ID=7091 &#10; contains 2 duplicate subfunctions">
<ellipse fill="lightblue" stroke="lightblue" cx="237" cy="-162" rx="32.49" ry="18"/>
<text text-anchor="middle" x="237" y="-158.3" font-family="Times,serif" font-size="14.00">3.0 *</text>
</a>
</g>
</g>
<!-- f7091&#45;&gt;f7090 -->
<g id="edge8" class="edge">
<title>f7091&#45;&gt;f7090</title>
<g id="a_edge8"><a xlink:title="Function ID=7091 depends on function ID=7090">
<path fill="none" stroke="black" d="M239.66,-144.05C240.87,-136.35 242.34,-127.03 243.7,-118.36"/>
<polygon fill="black" stroke="black" points="247.19,-118.7 245.29,-108.28 240.28,-117.61 247.19,-118.7"/>
</a>
</g>
</g>
<!-- f7092 -->
<g id="node10" class="node">
<title>f7092</title>
<g id="a_node10"><a xlink:title="Function ID=7092 &#10; contains 0 duplicate subfunctions">
<ellipse fill="lightgreen" stroke="lightgreen" cx="314" cy="-162" rx="27" ry="18"/>
<text text-anchor="middle" x="314" y="-158.3" font-family="Times,serif" font-size="14.00">1.0</text>
</a>
</g>
</g>
<!-- f4 -->
<g id="node11" class="node">
<title>f4</title>
<g id="a_node11"><a xlink:title="Function ID=4 &#10; contains 1 duplicate subfunctions">
<ellipse fill="lightblue" stroke="lightblue" cx="342" cy="-90" rx="27.9" ry="18"/>
<text text-anchor="middle" x="342" y="-86.3" font-family="Times,serif" font-size="14.00">Cos</text>
</a>
</g>
</g>
<!-- f4&#45;&gt;f1 -->
<g id="edge14" class="edge">
<title>f4&#45;&gt;f1</title>
<g id="a_edge14"><a xlink:title="Function ID=4 depends on function ID=1">
<path fill="none" stroke="black" d="M321.06,-78.06C298.74,-66.4 263.2,-47.83 237.92,-34.63"/>
<polygon fill="black" stroke="black" points="239.27,-31.39 228.79,-29.86 236.03,-37.59 239.27,-31.39"/>
</a>
</g>
</g>
<!-- f7093&#45;&gt;f7091 -->
<g id="edge13" class="edge">
<title>f7093&#45;&gt;f7091</title>
<g id="a_edge13"><a xlink:title="Function ID=7093 depends on function ID=7091">
<path fill="none" stroke="black" d="M270.24,-217.12C264.93,-208.47 258.24,-197.58 252.25,-187.83"/>
<polygon fill="black" stroke="black" points="255.23,-186 247.02,-179.31 249.27,-189.66 255.23,-186"/>
</a>
</g>
</g>
<!-- f7093&#45;&gt;f7092 -->
<g id="edge9" class="edge">
<title>f7093&#45;&gt;f7092</title>
<g id="a_edge9"><a xlink:title="Function ID=7093 depends on function ID=7092">
<path fill="none" stroke="black" d="M287.89,-216.76C291.9,-208.49 296.89,-198.23 301.42,-188.9"/>
<polygon fill="black" stroke="black" points="304.7,-190.16 305.92,-179.63 298.4,-187.1 304.7,-190.16"/>
</a>
</g>
</g>
<!-- f7094&#45;&gt;f4 -->
<g id="edge4" class="edge">
<title>f7094&#45;&gt;f4</title>
<g id="a_edge4"><a xlink:title="Function ID=7094 depends on function ID=4">
<path fill="none" stroke="black" d="M365.74,-215.87C361.14,-191.67 352.69,-147.21 347.21,-118.39"/>
<polygon fill="black" stroke="black" points="350.57,-117.36 345.27,-108.19 343.7,-118.67 350.57,-117.36"/>
</a>
</g>
</g>
<!-- f7087&#45;&gt;f1 -->
<g id="edge6" class="edge">
<title>f7087&#45;&gt;f1</title>
<g id="a_edge6"><a xlink:title="Function ID=7087 depends on function ID=1">
<path fill="none" stroke="black" d="M177.28,-72.76C182.17,-64.19 188.29,-53.49 193.77,-43.9"/>
<polygon fill="black" stroke="black" points="196.85,-45.57 198.77,-35.15 190.77,-42.09 196.85,-45.57"/>
</a>
</g>
</g>
</g>
</svg>
