<?xml version="1.0" encoding="UTF-8" standalone="no"?>
<!DOCTYPE svg PUBLIC "-//W3C//DTD SVG 1.1//EN"
 "http://www.w3.org/Graphics/SVG/1.1/DTD/svg11.dtd">
<!-- Generated by graphviz version 2.43.0 (0)
 -->
<!-- Title: %3 Pages: 1 -->
<svg width="147pt" height="262pt"
 viewBox="0.00 0.00 147.00 262.00" xmlns="http://www.w3.org/2000/svg" xmlns:xlink="http://www.w3.org/1999/xlink">
<g id="graph0" class="graph" transform="scale(1 1) rotate(0) translate(4 258)">
<title>%3</title>
<g id="a_graph0"><a xlink:title="Hey! Notice that red nodes are clickable and &#10; tooltips contain additional information!">
<polygon fill="white" stroke="transparent" points="-4,4 -4,-258 143,-258 143,4 -4,4"/>
</a>
</g>
<!-- function0 -->
<g id="node1" class="node">
<title>function0</title>
<g id="a_node1"><a xlink:href="inspected-f105-optimized-0.svg" xlink:title="original function &#10; contains 3 duplicate subfunctions &#10; contains 3 unique subfunctions &#10; (and is clickable)">
<path fill="red" stroke="red" d="M127,-254C127,-254 12,-254 12,-254 6,-254 0,-248 0,-242 0,-242 0,-228 0,-228 0,-222 6,-216 12,-216 12,-216 127,-216 127,-216 133,-216 139,-222 139,-228 139,-228 139,-242 139,-242 139,-248 133,-254 127,-254"/>
<text text-anchor="middle" x="69.5" y="-238.8" font-family="Times,serif" font-size="14.00">(2.0) ** (Sin(X)) </text>
<text text-anchor="middle" x="69.5" y="-223.8" font-family="Times,serif" font-size="14.00"> original function</text>
</a>
</g>
</g>
<!-- f105 -->
<g id="node2" class="node">
<title>f105</title>
<g id="a_node2"><a xlink:title="Function ID=105 &#10; contains 2 duplicate subfunctions">
<ellipse fill="lightblue" stroke="lightblue" cx="69.5" cy="-162" rx="40.09" ry="18"/>
<text text-anchor="middle" x="69.5" y="-158.3" font-family="Times,serif" font-size="14.00">2.0 ** </text>
</a>
</g>
</g>
<!-- function0&#45;&gt;f105 -->
<g id="edge1" class="edge">
<title>function0&#45;&gt;f105</title>
<path fill="none" stroke="black" d="M69.5,-215.72C69.5,-207.97 69.5,-198.79 69.5,-190.27"/>
<polygon fill="black" stroke="black" points="73,-190 69.5,-180 66,-190 73,-190"/>
</g>
<!-- f3 -->
<g id="node4" class="node">
<title>f3</title>
<g id="a_node4"><a xlink:title="Function ID=3 &#10; contains 1 duplicate subfunctions">
<ellipse fill="lightblue" stroke="lightblue" cx="69.5" cy="-90" rx="27" ry="18"/>
<text text-anchor="middle" x="69.5" y="-86.3" font-family="Times,serif" font-size="14.00">Sin</text>
</a>
</g>
</g>
<!-- f105&#45;&gt;f3 -->
<g id="edge2" class="edge">
<title>f105&#45;&gt;f3</title>
<g id="a_edge2"><a xlink:title="Function ID=105 depends on function ID=3">
<path fill="none" stroke="black" d="M69.5,-143.7C69.5,-135.98 69.5,-126.71 69.5,-118.11"/>
<polygon fill="black" stroke="black" points="73,-118.1 69.5,-108.1 66,-118.1 73,-118.1"/>
</a>
</g>
</g>
<!-- f1 -->
<g id="node3" class="node">
<title>f1</title>
<g id="a_node3"><a xlink:title="Function ID=1 &#10; contains 0 duplicate subfunctions">
<ellipse fill="lightgreen" stroke="lightgreen" cx="69.5" cy="-18" rx="27" ry="18"/>
<text text-anchor="middle" x="69.5" y="-14.3" font-family="Times,serif" font-size="14.00">X</text>
</a>
</g>
</g>
<!-- f3&#45;&gt;f1 -->
<g id="edge3" class="edge">
<title>f3&#45;&gt;f1</title>
<g id="a_edge3"><a xlink:title="Function ID=3 depends on function ID=1">
<path fill="none" stroke="black" d="M69.5,-71.7C69.5,-63.98 69.5,-54.71 69.5,-46.11"/>
<polygon fill="black" stroke="black" points="73,-46.1 69.5,-36.1 66,-46.1 73,-46.1"/>
</a>
</g>
</g>
</g>
</svg>
