<?xml version="1.0" encoding="UTF-8" standalone="no"?>
<!DOCTYPE svg PUBLIC "-//W3C//DTD SVG 1.1//EN"
 "http://www.w3.org/Graphics/SVG/1.1/DTD/svg11.dtd">
<!-- Generated by graphviz version 2.43.0 (0)
 -->
<!-- Title: %3 Pages: 1 -->
<svg width="293pt" height="408pt"
 viewBox="0.00 0.00 293.00 408.00" xmlns="http://www.w3.org/2000/svg" xmlns:xlink="http://www.w3.org/1999/xlink">
<g id="graph0" class="graph" transform="scale(1 1) rotate(0) translate(4 404)">
<title>%3</title>
<g id="a_graph0"><a xlink:title="Hey! Notice that red nodes are clickable and &#10; tooltips contain additional information!">
<polygon fill="white" stroke="transparent" points="-4,4 -4,-404 289,-404 289,4 -4,4"/>
</a>
</g>
<!-- function0 -->
<g id="node1" class="node">
<title>function0</title>
<g id="a_node1"><a xlink:href="inspected-f5-graph-0.svg" xlink:title="original function &#10; contains 3 duplicate subfunctions &#10; contains 3 unique subfunctions &#10; (and is clickable)">
<path fill="red" stroke="red" d="M127,-254C127,-254 12,-254 12,-254 6,-254 0,-248 0,-242 0,-242 0,-228 0,-228 0,-222 6,-216 12,-216 12,-216 127,-216 127,-216 133,-216 139,-222 139,-228 139,-228 139,-242 139,-242 139,-248 133,-254 127,-254"/>
<text text-anchor="middle" x="69.5" y="-238.8" font-family="Times,serif" font-size="14.00">(Sin(X)) ** (5.0) </text>
<text text-anchor="middle" x="69.5" y="-223.8" font-family="Times,serif" font-size="14.00"> original function</text>
</a>
</g>
</g>
<!-- f5 -->
<g id="node2" class="node">
<title>f5</title>
<g id="a_node2"><a xlink:title="Function ID=5 &#10; contains 2 duplicate subfunctions">
<ellipse fill="lightblue" stroke="lightblue" cx="86.5" cy="-162" rx="31.4" ry="18"/>
<text text-anchor="middle" x="86.5" y="-158.3" font-family="Times,serif" font-size="14.00"> ** 5</text>
</a>
</g>
</g>
<!-- function0&#45;&gt;f5 -->
<g id="edge1" class="edge">
<title>function0&#45;&gt;f5</title>
<path fill="none" stroke="black" d="M73.88,-215.72C75.75,-207.89 77.98,-198.59 80.04,-189.99"/>
<polygon fill="black" stroke="black" points="83.5,-190.54 82.43,-180 76.7,-188.91 83.5,-190.54"/>
</g>
<!-- f3 -->
<g id="node6" class="node">
<title>f3</title>
<g id="a_node6"><a xlink:title="Function ID=3 &#10; contains 1 duplicate subfunctions">
<ellipse fill="lightblue" stroke="lightblue" cx="176.5" cy="-90" rx="27" ry="18"/>
<text text-anchor="middle" x="176.5" y="-86.3" font-family="Times,serif" font-size="14.00">Sin</text>
</a>
</g>
</g>
<!-- f5&#45;&gt;f3 -->
<g id="edge6" class="edge">
<title>f5&#45;&gt;f3</title>
<g id="a_edge6"><a xlink:title="Function ID=5 depends on function ID=3">
<path fill="none" stroke="black" d="M104.28,-147.17C117.85,-136.61 136.72,-121.94 151.76,-110.24"/>
<polygon fill="black" stroke="black" points="153.92,-112.99 159.67,-104.09 149.63,-107.47 153.92,-112.99"/>
</a>
</g>
</g>
<!-- function1 -->
<g id="node3" class="node">
<title>function1</title>
<g id="a_node3"><a xlink:href="inspected-f5-graph-1.svg" xlink:title="1st derivative function &#10; contains 7 duplicate subfunctions &#10; contains 6 unique subfunctions &#10; (and is clickable)">
<path fill="red" stroke="red" d="M273,-400C273,-400 166,-400 166,-400 160,-400 154,-394 154,-388 154,-388 154,-374 154,-374 154,-368 160,-362 166,-362 166,-362 273,-362 273,-362 279,-362 285,-368 285,-374 285,-374 285,-388 285,-388 285,-394 279,-400 273,-400"/>
<text text-anchor="middle" x="219.5" y="-384.8" font-family="Times,serif" font-size="14.00">(Sin(X)) ** (5.0) </text>
<text text-anchor="middle" x="219.5" y="-369.8" font-family="Times,serif" font-size="14.00"> 1st derivative</text>
</a>
</g>
</g>
<!-- f8 -->
<g id="node4" class="node">
<title>f8</title>
<g id="a_node4"><a xlink:title="Function ID=8 &#10; contains 6 duplicate subfunctions">
<ellipse fill="lightblue" stroke="lightblue" cx="219.5" cy="-308" rx="27" ry="18"/>
<text text-anchor="middle" x="219.5" y="-304.3" font-family="Times,serif" font-size="14.00">*</text>
</a>
</g>
</g>
<!-- function1&#45;&gt;f8 -->
<g id="edge2" class="edge">
<title>function1&#45;&gt;f8</title>
<path fill="none" stroke="black" d="M219.5,-361.72C219.5,-353.97 219.5,-344.79 219.5,-336.27"/>
<polygon fill="black" stroke="black" points="223,-336 219.5,-326 216,-336 223,-336"/>
</g>
<!-- f4 -->
<g id="node7" class="node">
<title>f4</title>
<g id="a_node7"><a xlink:title="Function ID=4 &#10; contains 1 duplicate subfunctions">
<ellipse fill="lightblue" stroke="lightblue" cx="249.5" cy="-90" rx="27.9" ry="18"/>
<text text-anchor="middle" x="249.5" y="-86.3" font-family="Times,serif" font-size="14.00">Cos</text>
</a>
</g>
</g>
<!-- f8&#45;&gt;f4 -->
<g id="edge3" class="edge">
<title>f8&#45;&gt;f4</title>
<g id="a_edge3"><a xlink:title="Function ID=8 depends on function ID=4">
<path fill="none" stroke="black" d="M223.45,-289.89C225.74,-279.54 228.55,-266.06 230.5,-254 238.18,-206.5 244,-150.72 247.07,-118.27"/>
<polygon fill="black" stroke="black" points="250.56,-118.48 248,-108.2 243.59,-117.83 250.56,-118.48"/>
</a>
</g>
</g>
<!-- f7 -->
<g id="node9" class="node">
<title>f7</title>
<g id="a_node9"><a xlink:title="Function ID=7 &#10; contains 3 duplicate subfunctions">
<ellipse fill="lightblue" stroke="lightblue" cx="189.5" cy="-235" rx="32.49" ry="18"/>
<text text-anchor="middle" x="189.5" y="-231.3" font-family="Times,serif" font-size="14.00">5.0 *</text>
</a>
</g>
</g>
<!-- f8&#45;&gt;f7 -->
<g id="edge8" class="edge">
<title>f8&#45;&gt;f7</title>
<g id="a_edge8"><a xlink:title="Function ID=8 depends on function ID=7">
<path fill="none" stroke="black" d="M212.54,-290.53C209,-282.14 204.6,-271.74 200.6,-262.27"/>
<polygon fill="black" stroke="black" points="203.74,-260.72 196.63,-252.87 197.3,-263.44 203.74,-260.72"/>
</a>
</g>
</g>
<!-- f1 -->
<g id="node5" class="node">
<title>f1</title>
<g id="a_node5"><a xlink:title="Function ID=1 &#10; contains 0 duplicate subfunctions">
<ellipse fill="lightgreen" stroke="lightgreen" cx="212.5" cy="-18" rx="27" ry="18"/>
<text text-anchor="middle" x="212.5" y="-14.3" font-family="Times,serif" font-size="14.00">X</text>
</a>
</g>
</g>
<!-- f3&#45;&gt;f1 -->
<g id="edge7" class="edge">
<title>f3&#45;&gt;f1</title>
<g id="a_edge7"><a xlink:title="Function ID=3 depends on function ID=1">
<path fill="none" stroke="black" d="M184.85,-72.76C189.21,-64.28 194.65,-53.71 199.54,-44.2"/>
<polygon fill="black" stroke="black" points="202.73,-45.64 204.2,-35.15 196.51,-42.44 202.73,-45.64"/>
</a>
</g>
</g>
<!-- f4&#45;&gt;f1 -->
<g id="edge5" class="edge">
<title>f4&#45;&gt;f1</title>
<g id="a_edge5"><a xlink:title="Function ID=4 depends on function ID=1">
<path fill="none" stroke="black" d="M240.92,-72.76C236.44,-64.28 230.85,-53.71 225.82,-44.2"/>
<polygon fill="black" stroke="black" points="228.8,-42.35 221.04,-35.15 222.61,-45.62 228.8,-42.35"/>
</a>
</g>
</g>
<!-- f6 -->
<g id="node8" class="node">
<title>f6</title>
<g id="a_node8"><a xlink:title="Function ID=6 &#10; contains 2 duplicate subfunctions">
<ellipse fill="lightblue" stroke="lightblue" cx="183.5" cy="-162" rx="31.4" ry="18"/>
<text text-anchor="middle" x="183.5" y="-158.3" font-family="Times,serif" font-size="14.00"> ** 4</text>
</a>
</g>
</g>
<!-- f6&#45;&gt;f3 -->
<g id="edge4" class="edge">
<title>f6&#45;&gt;f3</title>
<g id="a_edge4"><a xlink:title="Function ID=6 depends on function ID=3">
<path fill="none" stroke="black" d="M181.77,-143.7C181,-135.98 180.07,-126.71 179.21,-118.11"/>
<polygon fill="black" stroke="black" points="182.69,-117.71 178.21,-108.1 175.72,-118.4 182.69,-117.71"/>
</a>
</g>
</g>
<!-- f7&#45;&gt;f6 -->
<g id="edge9" class="edge">
<title>f7&#45;&gt;f6</title>
<g id="a_edge9"><a xlink:title="Function ID=7 depends on function ID=6">
<path fill="none" stroke="black" d="M188.05,-216.81C187.37,-208.79 186.55,-199.05 185.79,-190.07"/>
<polygon fill="black" stroke="black" points="189.27,-189.7 184.94,-180.03 182.29,-190.29 189.27,-189.7"/>
</a>
</g>
</g>
</g>
</svg>
