<?xml version="1.0" encoding="utf-8" standalone="no"?>
<!DOCTYPE svg PUBLIC "-//W3C//DTD SVG 1.1//EN"
  "http://www.w3.org/Graphics/SVG/1.1/DTD/svg11.dtd">
<svg xmlns:xlink="http://www.w3.org/1999/xlink" width="460.8pt" height="345.6pt" viewBox="0 0 460.8 345.6" xmlns="http://www.w3.org/2000/svg" version="1.1">
 <metadata>
  <rdf:RDF xmlns:dc="http://purl.org/dc/elements/1.1/" xmlns:cc="http://creativecommons.org/ns#" xmlns:rdf="http://www.w3.org/1999/02/22-rdf-syntax-ns#">
   <cc:Work>
    <dc:type rdf:resource="http://purl.org/dc/dcmitype/StillImage"/>
    <dc:date>2023-11-19T21:06:48.550114</dc:date>
    <dc:format>image/svg+xml</dc:format>
    <dc:creator>
     <cc:Agent>
      <dc:title>Matplotlib v3.6.3, https://matplotlib.org/</dc:title>
     </cc:Agent>
    </dc:creator>
   </cc:Work>
  </rdf:RDF>
 </metadata>
 <defs>
  <style type="text/css">*{stroke-linejoin: round; stroke-linecap: butt}</style>
 </defs>
 <g id="figure_1">
  <g id="patch_1">
   <path d="M 0 345.6 
L 460.8 345.6 
L 460.8 0 
L 0 0 
z
" style="fill: #ffffff"/>
  </g>
  <g id="axes_1">
   <g id="patch_2">
    <path d="M 57.6 307.584 
L 414.72 307.584 
L 414.72 41.472 
L 57.6 41.472 
z
" style="fill: #ffffff"/>
   </g>
   <g id="matplotlib.axis_1">
    <g id="xtick_1">
     <g id="line2d_1">
      <defs>
       <path id="mb80acd0c0e" d="M 0 0 
L 0 3.5 
" style="stroke: #000000; stroke-width: 0.8"/>
      </defs>
      <g>
       <use xlink:href="#mb80acd0c0e" x="73.832727" y="307.584" style="stroke: #000000; stroke-width: 0.8"/>
      </g>
     </g>
     <g id="text_1">
      <!-- 0 -->
      <g transform="translate(70.651477 322.182437) scale(0.1 -0.1)">
       <defs>
        <path id="DejaVuSans-30" d="M 2034 4250 
Q 1547 4250 1301 3770 
Q 1056 3291 1056 2328 
Q 1056 1369 1301 889 
Q 1547 409 2034 409 
Q 2525 409 2770 889 
Q 3016 1369 3016 2328 
Q 3016 3291 2770 3770 
Q 2525 4250 2034 4250 
z
M 2034 4750 
Q 2819 4750 3233 4129 
Q 3647 3509 3647 2328 
Q 3647 1150 3233 529 
Q 2819 -91 2034 -91 
Q 1250 -91 836 529 
Q 422 1150 422 2328 
Q 422 3509 836 4129 
Q 1250 4750 2034 4750 
z
" transform="scale(0.015625)"/>
       </defs>
       <use xlink:href="#DejaVuSans-30"/>
      </g>
     </g>
    </g>
    <g id="xtick_2">
     <g id="line2d_2">
      <g>
       <use xlink:href="#mb80acd0c0e" x="138.763636" y="307.584" style="stroke: #000000; stroke-width: 0.8"/>
      </g>
     </g>
     <g id="text_2">
      <!-- 2 -->
      <g transform="translate(135.582386 322.182437) scale(0.1 -0.1)">
       <defs>
        <path id="DejaVuSans-32" d="M 1228 531 
L 3431 531 
L 3431 0 
L 469 0 
L 469 531 
Q 828 903 1448 1529 
Q 2069 2156 2228 2338 
Q 2531 2678 2651 2914 
Q 2772 3150 2772 3378 
Q 2772 3750 2511 3984 
Q 2250 4219 1831 4219 
Q 1534 4219 1204 4116 
Q 875 4013 500 3803 
L 500 4441 
Q 881 4594 1212 4672 
Q 1544 4750 1819 4750 
Q 2544 4750 2975 4387 
Q 3406 4025 3406 3419 
Q 3406 3131 3298 2873 
Q 3191 2616 2906 2266 
Q 2828 2175 2409 1742 
Q 1991 1309 1228 531 
z
" transform="scale(0.015625)"/>
       </defs>
       <use xlink:href="#DejaVuSans-32"/>
      </g>
     </g>
    </g>
    <g id="xtick_3">
     <g id="line2d_3">
      <g>
       <use xlink:href="#mb80acd0c0e" x="203.694545" y="307.584" style="stroke: #000000; stroke-width: 0.8"/>
      </g>
     </g>
     <g id="text_3">
      <!-- 4 -->
      <g transform="translate(200.513295 322.182437) scale(0.1 -0.1)">
       <defs>
        <path id="DejaVuSans-34" d="M 2419 4116 
L 825 1625 
L 2419 1625 
L 2419 4116 
z
M 2253 4666 
L 3047 4666 
L 3047 1625 
L 3713 1625 
L 3713 1100 
L 3047 1100 
L 3047 0 
L 2419 0 
L 2419 1100 
L 313 1100 
L 313 1709 
L 2253 4666 
z
" transform="scale(0.015625)"/>
       </defs>
       <use xlink:href="#DejaVuSans-34"/>
      </g>
     </g>
    </g>
    <g id="xtick_4">
     <g id="line2d_4">
      <g>
       <use xlink:href="#mb80acd0c0e" x="268.625455" y="307.584" style="stroke: #000000; stroke-width: 0.8"/>
      </g>
     </g>
     <g id="text_4">
      <!-- 6 -->
      <g transform="translate(265.444205 322.182437) scale(0.1 -0.1)">
       <defs>
        <path id="DejaVuSans-36" d="M 2113 2584 
Q 1688 2584 1439 2293 
Q 1191 2003 1191 1497 
Q 1191 994 1439 701 
Q 1688 409 2113 409 
Q 2538 409 2786 701 
Q 3034 994 3034 1497 
Q 3034 2003 2786 2293 
Q 2538 2584 2113 2584 
z
M 3366 4563 
L 3366 3988 
Q 3128 4100 2886 4159 
Q 2644 4219 2406 4219 
Q 1781 4219 1451 3797 
Q 1122 3375 1075 2522 
Q 1259 2794 1537 2939 
Q 1816 3084 2150 3084 
Q 2853 3084 3261 2657 
Q 3669 2231 3669 1497 
Q 3669 778 3244 343 
Q 2819 -91 2113 -91 
Q 1303 -91 875 529 
Q 447 1150 447 2328 
Q 447 3434 972 4092 
Q 1497 4750 2381 4750 
Q 2619 4750 2861 4703 
Q 3103 4656 3366 4563 
z
" transform="scale(0.015625)"/>
       </defs>
       <use xlink:href="#DejaVuSans-36"/>
      </g>
     </g>
    </g>
    <g id="xtick_5">
     <g id="line2d_5">
      <g>
       <use xlink:href="#mb80acd0c0e" x="333.556364" y="307.584" style="stroke: #000000; stroke-width: 0.8"/>
      </g>
     </g>
     <g id="text_5">
      <!-- 8 -->
      <g transform="translate(330.375114 322.182437) scale(0.1 -0.1)">
       <defs>
        <path id="DejaVuSans-38" d="M 2034 2216 
Q 1584 2216 1326 1975 
Q 1069 1734 1069 1313 
Q 1069 891 1326 650 
Q 1584 409 2034 409 
Q 2484 409 2743 651 
Q 3003 894 3003 1313 
Q 3003 1734 2745 1975 
Q 2488 2216 2034 2216 
z
M 1403 2484 
Q 997 2584 770 2862 
Q 544 3141 544 3541 
Q 544 4100 942 4425 
Q 1341 4750 2034 4750 
Q 2731 4750 3128 4425 
Q 3525 4100 3525 3541 
Q 3525 3141 3298 2862 
Q 3072 2584 2669 2484 
Q 3125 2378 3379 2068 
Q 3634 1759 3634 1313 
Q 3634 634 3220 271 
Q 2806 -91 2034 -91 
Q 1263 -91 848 271 
Q 434 634 434 1313 
Q 434 1759 690 2068 
Q 947 2378 1403 2484 
z
M 1172 3481 
Q 1172 3119 1398 2916 
Q 1625 2713 2034 2713 
Q 2441 2713 2670 2916 
Q 2900 3119 2900 3481 
Q 2900 3844 2670 4047 
Q 2441 4250 2034 4250 
Q 1625 4250 1398 4047 
Q 1172 3844 1172 3481 
z
" transform="scale(0.015625)"/>
       </defs>
       <use xlink:href="#DejaVuSans-38"/>
      </g>
     </g>
    </g>
    <g id="xtick_6">
     <g id="line2d_6">
      <g>
       <use xlink:href="#mb80acd0c0e" x="398.487273" y="307.584" style="stroke: #000000; stroke-width: 0.8"/>
      </g>
     </g>
     <g id="text_6">
      <!-- 10 -->
      <g transform="translate(392.124773 322.182437) scale(0.1 -0.1)">
       <defs>
        <path id="DejaVuSans-31" d="M 794 531 
L 1825 531 
L 1825 4091 
L 703 3866 
L 703 4441 
L 1819 4666 
L 2450 4666 
L 2450 531 
L 3481 531 
L 3481 0 
L 794 0 
L 794 531 
z
" transform="scale(0.015625)"/>
       </defs>
       <use xlink:href="#DejaVuSans-31"/>
       <use xlink:href="#DejaVuSans-30" x="63.623047"/>
      </g>
     </g>
    </g>
   </g>
   <g id="matplotlib.axis_2">
    <g id="ytick_1">
     <g id="line2d_7">
      <defs>
       <path id="m81b0a7e6e3" d="M 0 0 
L -3.5 0 
" style="stroke: #000000; stroke-width: 0.8"/>
      </defs>
      <g>
       <use xlink:href="#m81b0a7e6e3" x="57.6" y="307.268621" style="stroke: #000000; stroke-width: 0.8"/>
      </g>
     </g>
     <g id="text_7">
      <!-- −2.0 -->
      <g transform="translate(26.317187 311.067839) scale(0.1 -0.1)">
       <defs>
        <path id="DejaVuSans-2212" d="M 678 2272 
L 4684 2272 
L 4684 1741 
L 678 1741 
L 678 2272 
z
" transform="scale(0.015625)"/>
        <path id="DejaVuSans-2e" d="M 684 794 
L 1344 794 
L 1344 0 
L 684 0 
L 684 794 
z
" transform="scale(0.015625)"/>
       </defs>
       <use xlink:href="#DejaVuSans-2212"/>
       <use xlink:href="#DejaVuSans-32" x="83.789062"/>
       <use xlink:href="#DejaVuSans-2e" x="147.412109"/>
       <use xlink:href="#DejaVuSans-30" x="179.199219"/>
      </g>
     </g>
    </g>
    <g id="ytick_2">
     <g id="line2d_8">
      <g>
       <use xlink:href="#m81b0a7e6e3" x="57.6" y="275.55604" style="stroke: #000000; stroke-width: 0.8"/>
      </g>
     </g>
     <g id="text_8">
      <!-- −1.5 -->
      <g transform="translate(26.317187 279.355258) scale(0.1 -0.1)">
       <defs>
        <path id="DejaVuSans-35" d="M 691 4666 
L 3169 4666 
L 3169 4134 
L 1269 4134 
L 1269 2991 
Q 1406 3038 1543 3061 
Q 1681 3084 1819 3084 
Q 2600 3084 3056 2656 
Q 3513 2228 3513 1497 
Q 3513 744 3044 326 
Q 2575 -91 1722 -91 
Q 1428 -91 1123 -41 
Q 819 9 494 109 
L 494 744 
Q 775 591 1075 516 
Q 1375 441 1709 441 
Q 2250 441 2565 725 
Q 2881 1009 2881 1497 
Q 2881 1984 2565 2268 
Q 2250 2553 1709 2553 
Q 1456 2553 1204 2497 
Q 953 2441 691 2322 
L 691 4666 
z
" transform="scale(0.015625)"/>
       </defs>
       <use xlink:href="#DejaVuSans-2212"/>
       <use xlink:href="#DejaVuSans-31" x="83.789062"/>
       <use xlink:href="#DejaVuSans-2e" x="147.412109"/>
       <use xlink:href="#DejaVuSans-35" x="179.199219"/>
      </g>
     </g>
    </g>
    <g id="ytick_3">
     <g id="line2d_9">
      <g>
       <use xlink:href="#m81b0a7e6e3" x="57.6" y="243.843458" style="stroke: #000000; stroke-width: 0.8"/>
      </g>
     </g>
     <g id="text_9">
      <!-- −1.0 -->
      <g transform="translate(26.317187 247.642677) scale(0.1 -0.1)">
       <use xlink:href="#DejaVuSans-2212"/>
       <use xlink:href="#DejaVuSans-31" x="83.789062"/>
       <use xlink:href="#DejaVuSans-2e" x="147.412109"/>
       <use xlink:href="#DejaVuSans-30" x="179.199219"/>
      </g>
     </g>
    </g>
    <g id="ytick_4">
     <g id="line2d_10">
      <g>
       <use xlink:href="#m81b0a7e6e3" x="57.6" y="212.130877" style="stroke: #000000; stroke-width: 0.8"/>
      </g>
     </g>
     <g id="text_10">
      <!-- −0.5 -->
      <g transform="translate(26.317187 215.930096) scale(0.1 -0.1)">
       <use xlink:href="#DejaVuSans-2212"/>
       <use xlink:href="#DejaVuSans-30" x="83.789062"/>
       <use xlink:href="#DejaVuSans-2e" x="147.412109"/>
       <use xlink:href="#DejaVuSans-35" x="179.199219"/>
      </g>
     </g>
    </g>
    <g id="ytick_5">
     <g id="line2d_11">
      <g>
       <use xlink:href="#m81b0a7e6e3" x="57.6" y="180.418296" style="stroke: #000000; stroke-width: 0.8"/>
      </g>
     </g>
     <g id="text_11">
      <!-- 0.0 -->
      <g transform="translate(34.696875 184.217515) scale(0.1 -0.1)">
       <use xlink:href="#DejaVuSans-30"/>
       <use xlink:href="#DejaVuSans-2e" x="63.623047"/>
       <use xlink:href="#DejaVuSans-30" x="95.410156"/>
      </g>
     </g>
    </g>
    <g id="ytick_6">
     <g id="line2d_12">
      <g>
       <use xlink:href="#m81b0a7e6e3" x="57.6" y="148.705715" style="stroke: #000000; stroke-width: 0.8"/>
      </g>
     </g>
     <g id="text_12">
      <!-- 0.5 -->
      <g transform="translate(34.696875 152.504934) scale(0.1 -0.1)">
       <use xlink:href="#DejaVuSans-30"/>
       <use xlink:href="#DejaVuSans-2e" x="63.623047"/>
       <use xlink:href="#DejaVuSans-35" x="95.410156"/>
      </g>
     </g>
    </g>
    <g id="ytick_7">
     <g id="line2d_13">
      <g>
       <use xlink:href="#m81b0a7e6e3" x="57.6" y="116.993134" style="stroke: #000000; stroke-width: 0.8"/>
      </g>
     </g>
     <g id="text_13">
      <!-- 1.0 -->
      <g transform="translate(34.696875 120.792353) scale(0.1 -0.1)">
       <use xlink:href="#DejaVuSans-31"/>
       <use xlink:href="#DejaVuSans-2e" x="63.623047"/>
       <use xlink:href="#DejaVuSans-30" x="95.410156"/>
      </g>
     </g>
    </g>
    <g id="ytick_8">
     <g id="line2d_14">
      <g>
       <use xlink:href="#m81b0a7e6e3" x="57.6" y="85.280553" style="stroke: #000000; stroke-width: 0.8"/>
      </g>
     </g>
     <g id="text_14">
      <!-- 1.5 -->
      <g transform="translate(34.696875 89.079772) scale(0.1 -0.1)">
       <use xlink:href="#DejaVuSans-31"/>
       <use xlink:href="#DejaVuSans-2e" x="63.623047"/>
       <use xlink:href="#DejaVuSans-35" x="95.410156"/>
      </g>
     </g>
    </g>
    <g id="ytick_9">
     <g id="line2d_15">
      <g>
       <use xlink:href="#m81b0a7e6e3" x="57.6" y="53.567972" style="stroke: #000000; stroke-width: 0.8"/>
      </g>
     </g>
     <g id="text_15">
      <!-- 2.0 -->
      <g transform="translate(34.696875 57.367191) scale(0.1 -0.1)">
       <use xlink:href="#DejaVuSans-32"/>
       <use xlink:href="#DejaVuSans-2e" x="63.623047"/>
       <use xlink:href="#DejaVuSans-30" x="95.410156"/>
      </g>
     </g>
    </g>
   </g>
   <g id="line2d_16">
    <path d="M 73.832727 116.993134 
L 77.403927 111.978588 
L 81.299782 106.135258 
L 86.1696 98.398295 
L 102.077673 72.685602 
L 105.324218 68.0673 
L 108.246109 64.309064 
L 110.843345 61.352362 
L 113.115927 59.104535 
L 115.063855 57.454973 
L 117.011782 56.07958 
L 118.959709 54.993028 
L 120.582982 54.316786 
L 122.206255 53.854484 
L 123.829527 53.609657 
L 125.4528 53.584183 
L 127.076073 53.778259 
L 128.699345 54.190393 
L 130.322618 54.817433 
L 131.945891 55.654606 
L 133.893818 56.927595 
L 135.841745 58.480351 
L 137.789673 60.296495 
L 140.062255 62.723066 
L 142.659491 65.861132 
L 145.581382 69.7917 
L 148.827927 74.560136 
L 153.048436 81.207969 
L 160.515491 93.518008 
L 167.008582 104.031602 
L 171.553745 110.954152 
L 175.4496 116.481445 
L 179.0208 121.168643 
L 182.267345 125.092699 
L 185.513891 128.686296 
L 188.760436 131.947883 
L 192.006982 134.88165 
L 195.253527 137.495978 
L 198.500073 139.80206 
L 201.746618 141.812707 
L 204.993164 143.541345 
L 208.239709 145.001201 
L 211.486255 146.204659 
L 214.7328 147.162761 
L 217.979345 147.884834 
L 221.225891 148.378221 
L 224.472436 148.648095 
L 227.718982 148.697336 
L 230.965527 148.526474 
L 234.212073 148.133676 
L 237.458618 147.514786 
L 240.705164 146.663413 
L 243.951709 145.57109 
L 247.198255 144.227505 
L 250.4448 142.620821 
L 253.366691 140.93919 
L 256.288582 139.024195 
L 259.210473 136.866136 
L 262.132364 134.455929 
L 265.378909 131.472715 
L 268.625455 128.160735 
L 271.872 124.516572 
L 275.118545 120.542792 
L 278.689745 115.803401 
L 282.5856 110.224519 
L 286.806109 103.764975 
L 292.000582 95.380118 
L 304.0128 75.794252 
L 307.584 70.4723 
L 310.505891 66.479378 
L 313.103127 63.274832 
L 315.375709 60.782125 
L 317.648291 58.615557 
L 319.596218 57.041193 
L 321.544145 55.745387 
L 323.492073 54.742022 
L 325.115345 54.137232 
L 326.738618 53.747752 
L 328.361891 53.576566 
L 329.985164 53.624987 
L 331.608436 53.892644 
L 333.231709 54.377484 
L 334.854982 55.075801 
L 336.802909 56.188003 
L 338.750836 57.58788 
L 340.698764 59.260522 
L 342.971345 61.53322 
L 345.243927 64.121727 
L 347.841164 67.421919 
L 350.763055 71.503695 
L 354.334255 76.906492 
L 358.879418 84.215669 
L 372.190255 105.895472 
L 376.410764 112.224446 
L 380.306618 117.658797 
L 383.877818 122.252935 
L 387.124364 126.088919 
L 390.370909 129.593374 
L 393.617455 132.766446 
L 396.864 135.613593 
L 398.487273 136.91773 
L 398.487273 136.91773 
" clip-path="url(#p45f7c2d140)" style="fill: none; stroke: #1f77b4; stroke-width: 1.5; stroke-linecap: square"/>
   </g>
   <g id="line2d_17">
    <path d="M 73.832727 136.455324 
L 77.403927 133.266221 
L 80.325818 130.970373 
L 82.5984 129.443557 
L 84.870982 128.193668 
L 86.818909 127.378477 
L 88.766836 126.830957 
L 90.390109 126.599973 
L 92.013382 126.590795 
L 93.636655 126.818304 
L 95.259927 127.29605 
L 96.8832 128.035937 
L 98.506473 129.04791 
L 100.129745 130.33966 
L 101.753018 131.916337 
L 103.376291 133.780303 
L 105.324218 136.395156 
L 107.272145 139.415432 
L 109.220073 142.827083 
L 111.492655 147.273559 
L 114.089891 152.913562 
L 117.011782 159.86523 
L 120.582982 169.018363 
L 127.076073 186.48816 
L 131.621236 198.404949 
L 134.867782 206.308964 
L 137.465018 212.096463 
L 139.7376 216.689798 
L 142.010182 220.791942 
L 143.958109 223.889147 
L 145.906036 226.583101 
L 147.853964 228.865317 
L 149.477236 230.451124 
L 151.100509 231.751884 
L 152.723782 232.772664 
L 154.347055 233.521075 
L 155.970327 234.006997 
L 157.5936 234.242276 
L 159.216873 234.240414 
L 160.840145 234.016255 
L 162.463418 233.585673 
L 164.411345 232.819908 
L 166.359273 231.810306 
L 168.631855 230.36392 
L 171.229091 228.413773 
L 174.150982 225.920542 
L 177.722182 222.565957 
L 183.241309 217.019673 
L 193.3056 206.871713 
L 198.500073 201.979779 
L 203.369891 197.699133 
L 208.239709 193.715201 
L 213.434182 189.755577 
L 219.602618 185.350011 
L 229.991564 178.268987 
L 238.107927 172.613282 
L 243.627055 168.507923 
L 248.496873 164.625599 
L 253.366691 160.45527 
L 258.236509 155.983814 
L 263.755636 150.589488 
L 279.663709 134.76423 
L 282.5856 132.287101 
L 285.182836 130.355752 
L 287.455418 128.929484 
L 289.403345 127.939922 
L 291.351273 127.196782 
L 292.974545 126.786992 
L 294.597818 126.585323 
L 296.221091 126.607554 
L 297.844364 126.868405 
L 299.467636 127.381219 
L 301.090909 128.157652 
L 302.714182 129.207358 
L 304.337455 130.537698 
L 305.960727 132.153457 
L 307.584 134.056599 
L 309.531927 136.717987 
L 311.479855 139.783551 
L 313.427782 143.238455 
L 315.700364 147.731762 
L 318.2976 153.419018 
L 321.219491 160.413873 
L 324.790691 169.602698 
L 337.776873 203.759964 
L 340.698764 210.474832 
L 343.296 215.860822 
L 345.568582 220.058662 
L 347.516509 223.242663 
L 349.464436 226.026199 
L 351.412364 228.399281 
L 353.035636 230.060755 
L 354.658909 231.436302 
L 356.282182 232.530274 
L 357.905455 233.349639 
L 359.528727 233.903706 
L 361.152 234.203833 
L 362.775273 234.263114 
L 364.398545 234.096072 
L 366.021818 233.718338 
L 367.969745 233.010129 
L 369.917673 232.051561 
L 372.190255 230.656472 
L 374.787491 228.754342 
L 377.709382 226.302341 
L 381.280582 222.981496 
L 386.475055 217.789017 
L 397.513309 206.657025 
L 398.487273 205.718229 
L 398.487273 205.718229 
" clip-path="url(#p45f7c2d140)" style="fill: none; stroke: #ff7f0e; stroke-width: 1.5; stroke-linecap: square"/>
   </g>
   <g id="line2d_18">
    <path d="M 73.832727 149.945486 
L 75.456 151.224807 
L 77.079273 152.791035 
L 78.702545 154.661292 
L 80.325818 156.85041 
L 81.949091 159.370379 
L 83.897018 162.842884 
L 85.844945 166.811175 
L 87.792873 171.272913 
L 90.065455 177.083818 
L 92.338036 183.506887 
L 94.935273 191.513243 
L 98.181818 202.316658 
L 103.376291 220.571428 
L 107.921455 236.226988 
L 110.518691 244.458351 
L 112.791273 250.963671 
L 114.7392 255.883697 
L 116.362473 259.444787 
L 117.985745 262.461218 
L 119.284364 264.452434 
L 120.582982 266.048017 
L 121.8816 267.23278 
L 122.855564 267.844775 
L 123.829527 268.215905 
L 124.803491 268.344155 
L 125.777455 268.22883 
L 126.751418 267.870555 
L 127.725382 267.271276 
L 128.699345 266.434235 
L 129.997964 264.956318 
L 131.296582 263.077983 
L 132.5952 260.817005 
L 134.218473 257.485262 
L 135.841745 253.637035 
L 137.789673 248.414531 
L 140.062255 241.620149 
L 142.984145 232.049057 
L 147.204655 217.306123 
L 153.048436 196.994219 
L 155.970327 187.587852 
L 158.567564 179.910216 
L 160.840145 173.816558 
L 163.112727 168.36046 
L 165.060655 164.213782 
L 167.008582 160.563214 
L 168.956509 157.404838 
L 170.904436 154.726034 
L 172.527709 152.845835 
L 174.150982 151.270177 
L 175.774255 149.982 
L 177.397527 148.962468 
L 179.0208 148.19146 
L 180.644073 147.64803 
L 182.267345 147.310817 
L 184.215273 147.148238 
L 186.1632 147.215352 
L 188.435782 147.537021 
L 191.033018 148.160985 
L 193.954909 149.103328 
L 197.850764 150.60424 
L 209.213673 155.138091 
L 213.109527 156.388009 
L 216.680727 157.298815 
L 219.927273 157.90579 
L 223.173818 158.287276 
L 226.420364 158.434989 
L 229.666909 158.345865 
L 232.913455 158.021744 
L 236.16 157.469558 
L 239.406545 156.702034 
L 242.977745 155.632787 
L 247.198255 154.117537 
L 253.042036 151.742556 
L 259.210473 149.276214 
L 262.457018 148.205387 
L 265.054255 147.567275 
L 267.326836 147.22951 
L 269.274764 147.145639 
L 271.222691 147.288603 
L 272.845964 147.607233 
L 274.469236 148.130031 
L 276.092509 148.878377 
L 277.715782 149.873274 
L 279.339055 151.134942 
L 280.962327 152.68236 
L 282.5856 154.532779 
L 284.208873 156.701193 
L 285.832145 159.19979 
L 287.780073 162.646097 
L 289.728 166.588037 
L 291.675927 171.023808 
L 293.948509 176.805706 
L 296.221091 183.202139 
L 298.818327 191.182353 
L 302.064873 201.961923 
L 307.259345 220.205782 
L 311.804509 235.885232 
L 314.401745 244.145293 
L 316.674327 250.684461 
L 318.622255 255.639533 
L 320.245527 259.233662 
L 321.8688 262.286181 
L 323.167418 264.308141 
L 324.466036 265.935835 
L 325.764655 267.15378 
L 326.738618 267.791178 
L 327.712582 268.188 
L 328.686545 268.342095 
L 329.660509 268.252625 
L 330.634473 267.920077 
L 331.608436 267.346255 
L 332.5824 266.534267 
L 333.881018 265.088892 
L 335.179636 263.241839 
L 336.478255 261.010599 
L 338.101527 257.713461 
L 339.7248 253.896574 
L 341.672727 248.706845 
L 343.945309 241.943429 
L 346.542545 233.496736 
L 350.4384 219.971896 
L 356.931491 197.339559 
L 360.178036 186.906636 
L 362.775273 179.290227 
L 365.047855 173.256746 
L 367.320436 167.864612 
L 369.268364 163.774173 
L 371.216291 160.179879 
L 373.164218 157.076756 
L 374.787491 154.856491 
L 376.410764 152.956364 
L 378.034036 151.361791 
L 379.657309 150.055846 
L 381.280582 149.019788 
L 382.903855 148.233566 
L 384.527127 147.676272 
L 386.1504 147.326562 
L 388.098327 147.150778 
L 390.046255 147.206597 
L 392.318836 147.517398 
L 394.916073 148.131785 
L 397.837964 149.066634 
L 398.487273 149.300369 
L 398.487273 149.300369 
" clip-path="url(#p45f7c2d140)" style="fill: none; stroke: #2ca02c; stroke-width: 1.5; stroke-linecap: square"/>
   </g>
   <g id="line2d_19">
    <path d="M 73.832727 203.259126 
L 76.105309 211.138482 
L 78.702545 220.96697 
L 81.949091 234.189675 
L 90.390109 269.17457 
L 92.662691 277.380706 
L 94.610618 283.51818 
L 96.233891 287.83475 
L 97.532509 290.677252 
L 98.831127 292.91186 
L 99.805091 294.154974 
L 100.779055 295.002571 
L 101.428364 295.33788 
L 102.077673 295.48294 
L 102.726982 295.432717 
L 103.376291 295.182643 
L 104.0256 294.728651 
L 104.674909 294.067197 
L 105.648873 292.679649 
L 106.622836 290.811114 
L 107.5968 288.457084 
L 108.895418 284.561475 
L 110.194036 279.807301 
L 111.492655 274.211926 
L 113.115927 266.079227 
L 114.7392 256.757388 
L 116.687127 244.152513 
L 118.959709 227.785328 
L 121.8816 204.79931 
L 131.621236 126.217677 
L 133.893818 110.535391 
L 135.841745 98.642772 
L 137.465018 89.985179 
L 139.088291 82.565403 
L 140.386909 77.565158 
L 141.685527 73.419584 
L 142.984145 70.138222 
L 143.958109 68.243998 
L 144.932073 66.83108 
L 145.906036 65.892015 
L 146.555345 65.524206 
L 147.204655 65.358669 
L 147.853964 65.39112 
L 148.503273 65.616794 
L 149.152582 66.030467 
L 150.126545 66.991018 
L 151.100509 68.341111 
L 152.074473 70.058361 
L 153.373091 72.877781 
L 154.671709 76.247709 
L 156.294982 81.139065 
L 158.242909 87.839017 
L 160.515491 96.525908 
L 163.762036 109.928591 
L 170.579782 138.382782 
L 173.501673 149.510537 
L 176.098909 158.473586 
L 178.371491 165.489888 
L 180.319418 170.849908 
L 182.267345 175.593227 
L 184.215273 179.722654 
L 185.838545 182.705299 
L 187.461818 185.28556 
L 189.085091 187.480937 
L 190.708364 189.311777 
L 192.331636 190.80048 
L 193.954909 191.97079 
L 195.578182 192.847172 
L 197.201455 193.45427 
L 198.824727 193.816464 
L 200.448 193.957494 
L 202.071273 193.900168 
L 204.0192 193.599951 
L 205.967127 193.080131 
L 208.239709 192.238599 
L 210.836945 191.022108 
L 213.758836 189.398713 
L 217.330036 187.14637 
L 221.8752 184.005393 
L 238.107927 172.528814 
L 241.679127 170.413634 
L 244.601018 168.948372 
L 246.8736 168.027593 
L 249.146182 167.345574 
L 251.094109 166.988139 
L 253.042036 166.876356 
L 254.665309 166.997462 
L 256.288582 167.337509 
L 257.911855 167.920158 
L 259.535127 168.769743 
L 261.1584 169.910902 
L 262.781673 171.368138 
L 264.404945 173.16529 
L 266.028218 175.324915 
L 267.651491 177.867588 
L 269.274764 180.811121 
L 270.898036 184.169698 
L 272.845964 188.761049 
L 274.793891 193.96966 
L 276.741818 199.787648 
L 279.0144 207.312191 
L 281.611636 216.793599 
L 284.533527 228.379038 
L 289.078691 247.498044 
L 293.2992 264.984108 
L 295.896436 274.772236 
L 297.844364 281.259953 
L 299.467636 285.932276 
L 300.766255 289.099939 
L 302.064873 291.694 
L 303.038836 293.227848 
L 304.0128 294.382982 
L 304.986764 295.137859 
L 305.636073 295.408937 
L 306.285382 295.488 
L 306.934691 295.37017 
L 307.584 295.051045 
L 308.233309 294.526734 
L 309.207273 293.348354 
L 310.181236 291.69196 
L 311.1552 289.55166 
L 312.129164 286.924752 
L 313.427782 282.666825 
L 314.7264 277.556282 
L 316.025018 271.615156 
L 317.648291 263.072315 
L 319.271564 253.373138 
L 321.219491 240.370586 
L 323.492073 223.631822 
L 326.413964 200.33967 
L 334.854982 131.777162 
L 337.127564 115.530591 
L 339.075491 103.052939 
L 340.698764 93.850775 
L 342.322036 85.84734 
L 343.620655 80.360406 
L 344.919273 75.71757 
L 346.217891 71.93475 
L 347.191855 69.665413 
L 348.165818 67.881016 
L 349.139782 66.576499 
L 350.113745 65.743727 
L 350.763055 65.445288 
L 351.412364 65.347718 
L 352.061673 65.446566 
L 352.710982 65.736906 
L 353.360291 66.213368 
L 354.334255 67.264286 
L 355.308218 68.699801 
L 356.282182 70.497179 
L 357.5808 73.414694 
L 358.879418 76.872249 
L 360.502691 81.857901 
L 362.450618 88.64832 
L 364.7232 97.409853 
L 368.2944 112.24101 
L 374.462836 137.971788 
L 377.384727 149.134335 
L 379.981964 158.135386 
L 382.254545 165.188244 
L 384.202473 170.580817 
L 386.1504 175.356922 
L 388.098327 179.518663 
L 389.7216 182.527454 
L 391.344873 185.132861 
L 392.968145 187.352177 
L 394.591418 189.20559 
L 396.214691 190.715392 
L 397.837964 191.905261 
L 398.487273 192.297089 
L 398.487273 192.297089 
" clip-path="url(#p45f7c2d140)" style="fill: none; stroke: #d62728; stroke-width: 1.5; stroke-linecap: square"/>
   </g>
   <g id="patch_3">
    <path d="M 57.6 307.584 
L 57.6 41.472 
" style="fill: none; stroke: #000000; stroke-width: 0.8; stroke-linejoin: miter; stroke-linecap: square"/>
   </g>
   <g id="patch_4">
    <path d="M 414.72 307.584 
L 414.72 41.472 
" style="fill: none; stroke: #000000; stroke-width: 0.8; stroke-linejoin: miter; stroke-linecap: square"/>
   </g>
   <g id="patch_5">
    <path d="M 57.6 307.584 
L 414.72 307.584 
" style="fill: none; stroke: #000000; stroke-width: 0.8; stroke-linejoin: miter; stroke-linecap: square"/>
   </g>
   <g id="patch_6">
    <path d="M 57.6 41.472 
L 414.72 41.472 
" style="fill: none; stroke: #000000; stroke-width: 0.8; stroke-linejoin: miter; stroke-linecap: square"/>
   </g>
   <g id="text_16">
    <!-- (2.0) ** (Sin(X)) up to 3rd derivative -->
    <g transform="translate(127.995 35.472) scale(0.12 -0.12)">
     <defs>
      <path id="DejaVuSans-28" d="M 1984 4856 
Q 1566 4138 1362 3434 
Q 1159 2731 1159 2009 
Q 1159 1288 1364 580 
Q 1569 -128 1984 -844 
L 1484 -844 
Q 1016 -109 783 600 
Q 550 1309 550 2009 
Q 550 2706 781 3412 
Q 1013 4119 1484 4856 
L 1984 4856 
z
" transform="scale(0.015625)"/>
      <path id="DejaVuSans-29" d="M 513 4856 
L 1013 4856 
Q 1481 4119 1714 3412 
Q 1947 2706 1947 2009 
Q 1947 1309 1714 600 
Q 1481 -109 1013 -844 
L 513 -844 
Q 928 -128 1133 580 
Q 1338 1288 1338 2009 
Q 1338 2731 1133 3434 
Q 928 4138 513 4856 
z
" transform="scale(0.015625)"/>
      <path id="DejaVuSans-20" transform="scale(0.015625)"/>
      <path id="DejaVuSans-2a" d="M 3009 3897 
L 1888 3291 
L 3009 2681 
L 2828 2375 
L 1778 3009 
L 1778 1831 
L 1422 1831 
L 1422 3009 
L 372 2375 
L 191 2681 
L 1313 3291 
L 191 3897 
L 372 4206 
L 1422 3572 
L 1422 4750 
L 1778 4750 
L 1778 3572 
L 2828 4206 
L 3009 3897 
z
" transform="scale(0.015625)"/>
      <path id="DejaVuSans-53" d="M 3425 4513 
L 3425 3897 
Q 3066 4069 2747 4153 
Q 2428 4238 2131 4238 
Q 1616 4238 1336 4038 
Q 1056 3838 1056 3469 
Q 1056 3159 1242 3001 
Q 1428 2844 1947 2747 
L 2328 2669 
Q 3034 2534 3370 2195 
Q 3706 1856 3706 1288 
Q 3706 609 3251 259 
Q 2797 -91 1919 -91 
Q 1588 -91 1214 -16 
Q 841 59 441 206 
L 441 856 
Q 825 641 1194 531 
Q 1563 422 1919 422 
Q 2459 422 2753 634 
Q 3047 847 3047 1241 
Q 3047 1584 2836 1778 
Q 2625 1972 2144 2069 
L 1759 2144 
Q 1053 2284 737 2584 
Q 422 2884 422 3419 
Q 422 4038 858 4394 
Q 1294 4750 2059 4750 
Q 2388 4750 2728 4690 
Q 3069 4631 3425 4513 
z
" transform="scale(0.015625)"/>
      <path id="DejaVuSans-69" d="M 603 3500 
L 1178 3500 
L 1178 0 
L 603 0 
L 603 3500 
z
M 603 4863 
L 1178 4863 
L 1178 4134 
L 603 4134 
L 603 4863 
z
" transform="scale(0.015625)"/>
      <path id="DejaVuSans-6e" d="M 3513 2113 
L 3513 0 
L 2938 0 
L 2938 2094 
Q 2938 2591 2744 2837 
Q 2550 3084 2163 3084 
Q 1697 3084 1428 2787 
Q 1159 2491 1159 1978 
L 1159 0 
L 581 0 
L 581 3500 
L 1159 3500 
L 1159 2956 
Q 1366 3272 1645 3428 
Q 1925 3584 2291 3584 
Q 2894 3584 3203 3211 
Q 3513 2838 3513 2113 
z
" transform="scale(0.015625)"/>
      <path id="DejaVuSans-58" d="M 403 4666 
L 1081 4666 
L 2241 2931 
L 3406 4666 
L 4084 4666 
L 2584 2425 
L 4184 0 
L 3506 0 
L 2194 1984 
L 872 0 
L 191 0 
L 1856 2491 
L 403 4666 
z
" transform="scale(0.015625)"/>
      <path id="DejaVuSans-75" d="M 544 1381 
L 544 3500 
L 1119 3500 
L 1119 1403 
Q 1119 906 1312 657 
Q 1506 409 1894 409 
Q 2359 409 2629 706 
Q 2900 1003 2900 1516 
L 2900 3500 
L 3475 3500 
L 3475 0 
L 2900 0 
L 2900 538 
Q 2691 219 2414 64 
Q 2138 -91 1772 -91 
Q 1169 -91 856 284 
Q 544 659 544 1381 
z
M 1991 3584 
L 1991 3584 
z
" transform="scale(0.015625)"/>
      <path id="DejaVuSans-70" d="M 1159 525 
L 1159 -1331 
L 581 -1331 
L 581 3500 
L 1159 3500 
L 1159 2969 
Q 1341 3281 1617 3432 
Q 1894 3584 2278 3584 
Q 2916 3584 3314 3078 
Q 3713 2572 3713 1747 
Q 3713 922 3314 415 
Q 2916 -91 2278 -91 
Q 1894 -91 1617 61 
Q 1341 213 1159 525 
z
M 3116 1747 
Q 3116 2381 2855 2742 
Q 2594 3103 2138 3103 
Q 1681 3103 1420 2742 
Q 1159 2381 1159 1747 
Q 1159 1113 1420 752 
Q 1681 391 2138 391 
Q 2594 391 2855 752 
Q 3116 1113 3116 1747 
z
" transform="scale(0.015625)"/>
      <path id="DejaVuSans-74" d="M 1172 4494 
L 1172 3500 
L 2356 3500 
L 2356 3053 
L 1172 3053 
L 1172 1153 
Q 1172 725 1289 603 
Q 1406 481 1766 481 
L 2356 481 
L 2356 0 
L 1766 0 
Q 1100 0 847 248 
Q 594 497 594 1153 
L 594 3053 
L 172 3053 
L 172 3500 
L 594 3500 
L 594 4494 
L 1172 4494 
z
" transform="scale(0.015625)"/>
      <path id="DejaVuSans-6f" d="M 1959 3097 
Q 1497 3097 1228 2736 
Q 959 2375 959 1747 
Q 959 1119 1226 758 
Q 1494 397 1959 397 
Q 2419 397 2687 759 
Q 2956 1122 2956 1747 
Q 2956 2369 2687 2733 
Q 2419 3097 1959 3097 
z
M 1959 3584 
Q 2709 3584 3137 3096 
Q 3566 2609 3566 1747 
Q 3566 888 3137 398 
Q 2709 -91 1959 -91 
Q 1206 -91 779 398 
Q 353 888 353 1747 
Q 353 2609 779 3096 
Q 1206 3584 1959 3584 
z
" transform="scale(0.015625)"/>
      <path id="DejaVuSans-33" d="M 2597 2516 
Q 3050 2419 3304 2112 
Q 3559 1806 3559 1356 
Q 3559 666 3084 287 
Q 2609 -91 1734 -91 
Q 1441 -91 1130 -33 
Q 819 25 488 141 
L 488 750 
Q 750 597 1062 519 
Q 1375 441 1716 441 
Q 2309 441 2620 675 
Q 2931 909 2931 1356 
Q 2931 1769 2642 2001 
Q 2353 2234 1838 2234 
L 1294 2234 
L 1294 2753 
L 1863 2753 
Q 2328 2753 2575 2939 
Q 2822 3125 2822 3475 
Q 2822 3834 2567 4026 
Q 2313 4219 1838 4219 
Q 1578 4219 1281 4162 
Q 984 4106 628 3988 
L 628 4550 
Q 988 4650 1302 4700 
Q 1616 4750 1894 4750 
Q 2613 4750 3031 4423 
Q 3450 4097 3450 3541 
Q 3450 3153 3228 2886 
Q 3006 2619 2597 2516 
z
" transform="scale(0.015625)"/>
      <path id="DejaVuSans-72" d="M 2631 2963 
Q 2534 3019 2420 3045 
Q 2306 3072 2169 3072 
Q 1681 3072 1420 2755 
Q 1159 2438 1159 1844 
L 1159 0 
L 581 0 
L 581 3500 
L 1159 3500 
L 1159 2956 
Q 1341 3275 1631 3429 
Q 1922 3584 2338 3584 
Q 2397 3584 2469 3576 
Q 2541 3569 2628 3553 
L 2631 2963 
z
" transform="scale(0.015625)"/>
      <path id="DejaVuSans-64" d="M 2906 2969 
L 2906 4863 
L 3481 4863 
L 3481 0 
L 2906 0 
L 2906 525 
Q 2725 213 2448 61 
Q 2172 -91 1784 -91 
Q 1150 -91 751 415 
Q 353 922 353 1747 
Q 353 2572 751 3078 
Q 1150 3584 1784 3584 
Q 2172 3584 2448 3432 
Q 2725 3281 2906 2969 
z
M 947 1747 
Q 947 1113 1208 752 
Q 1469 391 1925 391 
Q 2381 391 2643 752 
Q 2906 1113 2906 1747 
Q 2906 2381 2643 2742 
Q 2381 3103 1925 3103 
Q 1469 3103 1208 2742 
Q 947 2381 947 1747 
z
" transform="scale(0.015625)"/>
      <path id="DejaVuSans-65" d="M 3597 1894 
L 3597 1613 
L 953 1613 
Q 991 1019 1311 708 
Q 1631 397 2203 397 
Q 2534 397 2845 478 
Q 3156 559 3463 722 
L 3463 178 
Q 3153 47 2828 -22 
Q 2503 -91 2169 -91 
Q 1331 -91 842 396 
Q 353 884 353 1716 
Q 353 2575 817 3079 
Q 1281 3584 2069 3584 
Q 2775 3584 3186 3129 
Q 3597 2675 3597 1894 
z
M 3022 2063 
Q 3016 2534 2758 2815 
Q 2500 3097 2075 3097 
Q 1594 3097 1305 2825 
Q 1016 2553 972 2059 
L 3022 2063 
z
" transform="scale(0.015625)"/>
      <path id="DejaVuSans-76" d="M 191 3500 
L 800 3500 
L 1894 563 
L 2988 3500 
L 3597 3500 
L 2284 0 
L 1503 0 
L 191 3500 
z
" transform="scale(0.015625)"/>
      <path id="DejaVuSans-61" d="M 2194 1759 
Q 1497 1759 1228 1600 
Q 959 1441 959 1056 
Q 959 750 1161 570 
Q 1363 391 1709 391 
Q 2188 391 2477 730 
Q 2766 1069 2766 1631 
L 2766 1759 
L 2194 1759 
z
M 3341 1997 
L 3341 0 
L 2766 0 
L 2766 531 
Q 2569 213 2275 61 
Q 1981 -91 1556 -91 
Q 1019 -91 701 211 
Q 384 513 384 1019 
Q 384 1609 779 1909 
Q 1175 2209 1959 2209 
L 2766 2209 
L 2766 2266 
Q 2766 2663 2505 2880 
Q 2244 3097 1772 3097 
Q 1472 3097 1187 3025 
Q 903 2953 641 2809 
L 641 3341 
Q 956 3463 1253 3523 
Q 1550 3584 1831 3584 
Q 2591 3584 2966 3190 
Q 3341 2797 3341 1997 
z
" transform="scale(0.015625)"/>
     </defs>
     <use xlink:href="#DejaVuSans-28"/>
     <use xlink:href="#DejaVuSans-32" x="39.013672"/>
     <use xlink:href="#DejaVuSans-2e" x="102.636719"/>
     <use xlink:href="#DejaVuSans-30" x="134.423828"/>
     <use xlink:href="#DejaVuSans-29" x="198.046875"/>
     <use xlink:href="#DejaVuSans-20" x="237.060547"/>
     <use xlink:href="#DejaVuSans-2a" x="268.847656"/>
     <use xlink:href="#DejaVuSans-2a" x="318.847656"/>
     <use xlink:href="#DejaVuSans-20" x="368.847656"/>
     <use xlink:href="#DejaVuSans-28" x="400.634766"/>
     <use xlink:href="#DejaVuSans-53" x="439.648438"/>
     <use xlink:href="#DejaVuSans-69" x="503.125"/>
     <use xlink:href="#DejaVuSans-6e" x="530.908203"/>
     <use xlink:href="#DejaVuSans-28" x="594.287109"/>
     <use xlink:href="#DejaVuSans-58" x="633.300781"/>
     <use xlink:href="#DejaVuSans-29" x="701.806641"/>
     <use xlink:href="#DejaVuSans-29" x="740.820312"/>
     <use xlink:href="#DejaVuSans-20" x="779.833984"/>
     <use xlink:href="#DejaVuSans-75" x="811.621094"/>
     <use xlink:href="#DejaVuSans-70" x="875"/>
     <use xlink:href="#DejaVuSans-20" x="938.476562"/>
     <use xlink:href="#DejaVuSans-74" x="970.263672"/>
     <use xlink:href="#DejaVuSans-6f" x="1009.472656"/>
     <use xlink:href="#DejaVuSans-20" x="1070.654297"/>
     <use xlink:href="#DejaVuSans-33" x="1102.441406"/>
     <use xlink:href="#DejaVuSans-72" x="1166.064453"/>
     <use xlink:href="#DejaVuSans-64" x="1205.427734"/>
     <use xlink:href="#DejaVuSans-20" x="1268.904297"/>
     <use xlink:href="#DejaVuSans-64" x="1300.691406"/>
     <use xlink:href="#DejaVuSans-65" x="1364.167969"/>
     <use xlink:href="#DejaVuSans-72" x="1425.691406"/>
     <use xlink:href="#DejaVuSans-69" x="1466.804688"/>
     <use xlink:href="#DejaVuSans-76" x="1494.587891"/>
     <use xlink:href="#DejaVuSans-61" x="1553.767578"/>
     <use xlink:href="#DejaVuSans-74" x="1615.046875"/>
     <use xlink:href="#DejaVuSans-69" x="1654.255859"/>
     <use xlink:href="#DejaVuSans-76" x="1682.039062"/>
     <use xlink:href="#DejaVuSans-65" x="1741.21875"/>
    </g>
   </g>
   <g id="legend_1">
    <g id="patch_7">
     <path d="M 183.942813 302.584 
L 288.377187 302.584 
Q 290.377187 302.584 290.377187 300.584 
L 290.377187 242.8715 
Q 290.377187 240.8715 288.377187 240.8715 
L 183.942813 240.8715 
Q 181.942813 240.8715 181.942813 242.8715 
L 181.942813 300.584 
Q 181.942813 302.584 183.942813 302.584 
z
" style="fill: #ffffff; opacity: 0.8; stroke: #cccccc; stroke-linejoin: miter"/>
    </g>
    <g id="line2d_20">
     <path d="M 185.942813 248.969937 
L 195.942813 248.969937 
L 205.942813 248.969937 
" style="fill: none; stroke: #1f77b4; stroke-width: 1.5; stroke-linecap: square"/>
    </g>
    <g id="text_17">
     <!-- 0th derivative -->
     <g transform="translate(213.942813 252.469937) scale(0.1 -0.1)">
      <defs>
       <path id="DejaVuSans-68" d="M 3513 2113 
L 3513 0 
L 2938 0 
L 2938 2094 
Q 2938 2591 2744 2837 
Q 2550 3084 2163 3084 
Q 1697 3084 1428 2787 
Q 1159 2491 1159 1978 
L 1159 0 
L 581 0 
L 581 4863 
L 1159 4863 
L 1159 2956 
Q 1366 3272 1645 3428 
Q 1925 3584 2291 3584 
Q 2894 3584 3203 3211 
Q 3513 2838 3513 2113 
z
" transform="scale(0.015625)"/>
      </defs>
      <use xlink:href="#DejaVuSans-30"/>
      <use xlink:href="#DejaVuSans-74" x="63.623047"/>
      <use xlink:href="#DejaVuSans-68" x="102.832031"/>
      <use xlink:href="#DejaVuSans-20" x="166.210938"/>
      <use xlink:href="#DejaVuSans-64" x="197.998047"/>
      <use xlink:href="#DejaVuSans-65" x="261.474609"/>
      <use xlink:href="#DejaVuSans-72" x="322.998047"/>
      <use xlink:href="#DejaVuSans-69" x="364.111328"/>
      <use xlink:href="#DejaVuSans-76" x="391.894531"/>
      <use xlink:href="#DejaVuSans-61" x="451.074219"/>
      <use xlink:href="#DejaVuSans-74" x="512.353516"/>
      <use xlink:href="#DejaVuSans-69" x="551.5625"/>
      <use xlink:href="#DejaVuSans-76" x="579.345703"/>
      <use xlink:href="#DejaVuSans-65" x="638.525391"/>
     </g>
    </g>
    <g id="line2d_21">
     <path d="M 185.942813 263.648062 
L 195.942813 263.648062 
L 205.942813 263.648062 
" style="fill: none; stroke: #ff7f0e; stroke-width: 1.5; stroke-linecap: square"/>
    </g>
    <g id="text_18">
     <!-- 1st derivative -->
     <g transform="translate(213.942813 267.148062) scale(0.1 -0.1)">
      <defs>
       <path id="DejaVuSans-73" d="M 2834 3397 
L 2834 2853 
Q 2591 2978 2328 3040 
Q 2066 3103 1784 3103 
Q 1356 3103 1142 2972 
Q 928 2841 928 2578 
Q 928 2378 1081 2264 
Q 1234 2150 1697 2047 
L 1894 2003 
Q 2506 1872 2764 1633 
Q 3022 1394 3022 966 
Q 3022 478 2636 193 
Q 2250 -91 1575 -91 
Q 1294 -91 989 -36 
Q 684 19 347 128 
L 347 722 
Q 666 556 975 473 
Q 1284 391 1588 391 
Q 1994 391 2212 530 
Q 2431 669 2431 922 
Q 2431 1156 2273 1281 
Q 2116 1406 1581 1522 
L 1381 1569 
Q 847 1681 609 1914 
Q 372 2147 372 2553 
Q 372 3047 722 3315 
Q 1072 3584 1716 3584 
Q 2034 3584 2315 3537 
Q 2597 3491 2834 3397 
z
" transform="scale(0.015625)"/>
      </defs>
      <use xlink:href="#DejaVuSans-31"/>
      <use xlink:href="#DejaVuSans-73" x="63.623047"/>
      <use xlink:href="#DejaVuSans-74" x="115.722656"/>
      <use xlink:href="#DejaVuSans-20" x="154.931641"/>
      <use xlink:href="#DejaVuSans-64" x="186.71875"/>
      <use xlink:href="#DejaVuSans-65" x="250.195312"/>
      <use xlink:href="#DejaVuSans-72" x="311.71875"/>
      <use xlink:href="#DejaVuSans-69" x="352.832031"/>
      <use xlink:href="#DejaVuSans-76" x="380.615234"/>
      <use xlink:href="#DejaVuSans-61" x="439.794922"/>
      <use xlink:href="#DejaVuSans-74" x="501.074219"/>
      <use xlink:href="#DejaVuSans-69" x="540.283203"/>
      <use xlink:href="#DejaVuSans-76" x="568.066406"/>
      <use xlink:href="#DejaVuSans-65" x="627.246094"/>
     </g>
    </g>
    <g id="line2d_22">
     <path d="M 185.942813 278.326187 
L 195.942813 278.326187 
L 205.942813 278.326187 
" style="fill: none; stroke: #2ca02c; stroke-width: 1.5; stroke-linecap: square"/>
    </g>
    <g id="text_19">
     <!-- 2nd derivative -->
     <g transform="translate(213.942813 281.826187) scale(0.1 -0.1)">
      <use xlink:href="#DejaVuSans-32"/>
      <use xlink:href="#DejaVuSans-6e" x="63.623047"/>
      <use xlink:href="#DejaVuSans-64" x="127.001953"/>
      <use xlink:href="#DejaVuSans-20" x="190.478516"/>
      <use xlink:href="#DejaVuSans-64" x="222.265625"/>
      <use xlink:href="#DejaVuSans-65" x="285.742188"/>
      <use xlink:href="#DejaVuSans-72" x="347.265625"/>
      <use xlink:href="#DejaVuSans-69" x="388.378906"/>
      <use xlink:href="#DejaVuSans-76" x="416.162109"/>
      <use xlink:href="#DejaVuSans-61" x="475.341797"/>
      <use xlink:href="#DejaVuSans-74" x="536.621094"/>
      <use xlink:href="#DejaVuSans-69" x="575.830078"/>
      <use xlink:href="#DejaVuSans-76" x="603.613281"/>
      <use xlink:href="#DejaVuSans-65" x="662.792969"/>
     </g>
    </g>
    <g id="line2d_23">
     <path d="M 185.942813 293.004312 
L 195.942813 293.004312 
L 205.942813 293.004312 
" style="fill: none; stroke: #d62728; stroke-width: 1.5; stroke-linecap: square"/>
    </g>
    <g id="text_20">
     <!-- 3rd derivative -->
     <g transform="translate(213.942813 296.504312) scale(0.1 -0.1)">
      <use xlink:href="#DejaVuSans-33"/>
      <use xlink:href="#DejaVuSans-72" x="63.623047"/>
      <use xlink:href="#DejaVuSans-64" x="102.986328"/>
      <use xlink:href="#DejaVuSans-20" x="166.462891"/>
      <use xlink:href="#DejaVuSans-64" x="198.25"/>
      <use xlink:href="#DejaVuSans-65" x="261.726562"/>
      <use xlink:href="#DejaVuSans-72" x="323.25"/>
      <use xlink:href="#DejaVuSans-69" x="364.363281"/>
      <use xlink:href="#DejaVuSans-76" x="392.146484"/>
      <use xlink:href="#DejaVuSans-61" x="451.326172"/>
      <use xlink:href="#DejaVuSans-74" x="512.605469"/>
      <use xlink:href="#DejaVuSans-69" x="551.814453"/>
      <use xlink:href="#DejaVuSans-76" x="579.597656"/>
      <use xlink:href="#DejaVuSans-65" x="638.777344"/>
     </g>
    </g>
   </g>
  </g>
 </g>
 <defs>
  <clipPath id="p45f7c2d140">
   <rect x="57.6" y="41.472" width="357.12" height="266.112"/>
  </clipPath>
 </defs>
</svg>
