<?xml version="1.0" encoding="UTF-8" standalone="no"?>
<!DOCTYPE svg PUBLIC "-//W3C//DTD SVG 1.1//EN"
 "http://www.w3.org/Graphics/SVG/1.1/DTD/svg11.dtd">
<!-- Generated by graphviz version 2.43.0 (0)
 -->
<!-- Title: %3 Pages: 1 -->
<svg width="859pt" height="916pt"
 viewBox="0.00 0.00 859.09 916.00" xmlns="http://www.w3.org/2000/svg" xmlns:xlink="http://www.w3.org/1999/xlink">
<g id="graph0" class="graph" transform="scale(1 1) rotate(0) translate(4 912)">
<title>%3</title>
<g id="a_graph0"><a xlink:title="Hey! Notice that red nodes are clickable and &#10; tooltips contain additional information!">
<polygon fill="white" stroke="transparent" points="-4,4 -4,-912 855.09,-912 855.09,4 -4,4"/>
</a>
</g>
<!-- function0 -->
<g id="node1" class="node">
<title>function0</title>
<g id="a_node1"><a xlink:href="inspected-f5-graph-0.svg" xlink:title="original function &#10; contains 3 duplicate subfunctions &#10; contains 3 unique subfunctions &#10; (and is clickable)">
<path fill="red" stroke="red" d="M357.05,-254C357.05,-254 242.05,-254 242.05,-254 236.05,-254 230.05,-248 230.05,-242 230.05,-242 230.05,-228 230.05,-228 230.05,-222 236.05,-216 242.05,-216 242.05,-216 357.05,-216 357.05,-216 363.05,-216 369.05,-222 369.05,-228 369.05,-228 369.05,-242 369.05,-242 369.05,-248 363.05,-254 357.05,-254"/>
<text text-anchor="middle" x="299.55" y="-238.8" font-family="Times,serif" font-size="14.00">(Sin(X)) ** (5.0) </text>
<text text-anchor="middle" x="299.55" y="-223.8" font-family="Times,serif" font-size="14.00"> original function</text>
</a>
</g>
</g>
<!-- f5 -->
<g id="node2" class="node">
<title>f5</title>
<g id="a_node2"><a xlink:title="Function ID=5 &#10; contains 2 duplicate subfunctions">
<ellipse fill="lightblue" stroke="lightblue" cx="319.55" cy="-162" rx="31.4" ry="18"/>
<text text-anchor="middle" x="319.55" y="-158.3" font-family="Times,serif" font-size="14.00"> ** 5</text>
</a>
</g>
</g>
<!-- function0&#45;&gt;f5 -->
<g id="edge1" class="edge">
<title>function0&#45;&gt;f5</title>
<path fill="none" stroke="black" d="M304.7,-215.72C306.93,-207.8 309.58,-198.38 312.02,-189.71"/>
<polygon fill="black" stroke="black" points="315.41,-190.58 314.76,-180 308.68,-188.68 315.41,-190.58"/>
</g>
<!-- f3 -->
<g id="node10" class="node">
<title>f3</title>
<g id="a_node10"><a xlink:title="Function ID=3 &#10; contains 1 duplicate subfunctions">
<ellipse fill="lightblue" stroke="lightblue" cx="419.55" cy="-90" rx="27" ry="18"/>
<text text-anchor="middle" x="419.55" y="-86.3" font-family="Times,serif" font-size="14.00">Sin</text>
</a>
</g>
</g>
<!-- f5&#45;&gt;f3 -->
<g id="edge11" class="edge">
<title>f5&#45;&gt;f3</title>
<g id="a_edge11"><a xlink:title="Function ID=5 depends on function ID=3">
<path fill="none" stroke="black" d="M338.83,-147.5C354.29,-136.68 376.16,-121.37 393.24,-109.42"/>
<polygon fill="black" stroke="black" points="395.48,-112.12 401.67,-103.51 391.47,-106.38 395.48,-112.12"/>
</a>
</g>
</g>
<!-- function1 -->
<g id="node3" class="node">
<title>function1</title>
<g id="a_node3"><a xlink:href="inspected-f5-graph-1.svg" xlink:title="1st derivative function &#10; contains 7 duplicate subfunctions &#10; contains 6 unique subfunctions &#10; (and is clickable)">
<path fill="red" stroke="red" d="M758.05,-472C758.05,-472 651.05,-472 651.05,-472 645.05,-472 639.05,-466 639.05,-460 639.05,-460 639.05,-446 639.05,-446 639.05,-440 645.05,-434 651.05,-434 651.05,-434 758.05,-434 758.05,-434 764.05,-434 770.05,-440 770.05,-446 770.05,-446 770.05,-460 770.05,-460 770.05,-466 764.05,-472 758.05,-472"/>
<text text-anchor="middle" x="704.55" y="-456.8" font-family="Times,serif" font-size="14.00">(Sin(X)) ** (5.0) </text>
<text text-anchor="middle" x="704.55" y="-441.8" font-family="Times,serif" font-size="14.00"> 1st derivative</text>
</a>
</g>
</g>
<!-- f8 -->
<g id="node4" class="node">
<title>f8</title>
<g id="a_node4"><a xlink:title="Function ID=8 &#10; contains 6 duplicate subfunctions">
<ellipse fill="lightblue" stroke="lightblue" cx="707.55" cy="-380" rx="27" ry="18"/>
<text text-anchor="middle" x="707.55" y="-376.3" font-family="Times,serif" font-size="14.00">*</text>
</a>
</g>
</g>
<!-- function1&#45;&gt;f8 -->
<g id="edge2" class="edge">
<title>function1&#45;&gt;f8</title>
<path fill="none" stroke="black" d="M705.32,-433.72C705.65,-425.97 706.03,-416.79 706.39,-408.27"/>
<polygon fill="black" stroke="black" points="709.9,-408.14 706.83,-398 702.91,-407.85 709.9,-408.14"/>
</g>
<!-- f4 -->
<g id="node11" class="node">
<title>f4</title>
<g id="a_node11"><a xlink:title="Function ID=4 &#10; contains 1 duplicate subfunctions">
<ellipse fill="lightblue" stroke="lightblue" cx="535.55" cy="-235" rx="27.9" ry="18"/>
<text text-anchor="middle" x="535.55" y="-231.3" font-family="Times,serif" font-size="14.00">Cos</text>
</a>
</g>
</g>
<!-- f8&#45;&gt;f4 -->
<g id="edge46" class="edge">
<title>f8&#45;&gt;f4</title>
<g id="a_edge46"><a xlink:title="Function ID=8 depends on function ID=4">
<path fill="none" stroke="black" d="M697.45,-363.29C684.6,-344.18 660.87,-311.79 634.55,-290 623.18,-280.59 590.87,-263.54 566.23,-251.11"/>
<polygon fill="black" stroke="black" points="567.73,-247.94 557.22,-246.59 564.59,-254.2 567.73,-247.94"/>
</a>
</g>
</g>
<!-- f7 -->
<g id="node13" class="node">
<title>f7</title>
<g id="a_node13"><a xlink:title="Function ID=7 &#10; contains 3 duplicate subfunctions">
<ellipse fill="lightblue" stroke="lightblue" cx="713.55" cy="-308" rx="32.49" ry="18"/>
<text text-anchor="middle" x="713.55" y="-304.3" font-family="Times,serif" font-size="14.00">5.0 *</text>
</a>
</g>
</g>
<!-- f8&#45;&gt;f7 -->
<g id="edge53" class="edge">
<title>f8&#45;&gt;f7</title>
<g id="a_edge53"><a xlink:title="Function ID=8 depends on function ID=7">
<path fill="none" stroke="black" d="M709.03,-361.7C709.69,-353.98 710.49,-344.71 711.22,-336.11"/>
<polygon fill="black" stroke="black" points="714.71,-336.37 712.08,-326.1 707.74,-335.77 714.71,-336.37"/>
</a>
</g>
</g>
<!-- function2 -->
<g id="node5" class="node">
<title>function2</title>
<g id="a_node5"><a xlink:href="inspected-f5-graph-2.svg" xlink:title="2nd derivative function &#10; contains 20 duplicate subfunctions &#10; contains 13 unique subfunctions &#10; (and is clickable)">
<path fill="red" stroke="red" d="M490.05,-618C490.05,-618 383.05,-618 383.05,-618 377.05,-618 371.05,-612 371.05,-606 371.05,-606 371.05,-592 371.05,-592 371.05,-586 377.05,-580 383.05,-580 383.05,-580 490.05,-580 490.05,-580 496.05,-580 502.05,-586 502.05,-592 502.05,-592 502.05,-606 502.05,-606 502.05,-612 496.05,-618 490.05,-618"/>
<text text-anchor="middle" x="436.55" y="-602.8" font-family="Times,serif" font-size="14.00">(Sin(X)) ** (5.0) </text>
<text text-anchor="middle" x="436.55" y="-587.8" font-family="Times,serif" font-size="14.00"> 2nd derivative</text>
</a>
</g>
</g>
<!-- f16 -->
<g id="node6" class="node">
<title>f16</title>
<g id="a_node6"><a xlink:title="Function ID=16 &#10; contains 19 duplicate subfunctions">
<ellipse fill="lightblue" stroke="lightblue" cx="436.55" cy="-526" rx="27" ry="18"/>
<text text-anchor="middle" x="436.55" y="-522.3" font-family="Times,serif" font-size="14.00">+</text>
</a>
</g>
</g>
<!-- function2&#45;&gt;f16 -->
<g id="edge3" class="edge">
<title>function2&#45;&gt;f16</title>
<path fill="none" stroke="black" d="M436.55,-579.72C436.55,-571.97 436.55,-562.79 436.55,-554.27"/>
<polygon fill="black" stroke="black" points="440.05,-554 436.55,-544 433.05,-554 440.05,-554"/>
</g>
<!-- f13 -->
<g id="node18" class="node">
<title>f13</title>
<g id="a_node18"><a xlink:title="Function ID=13 &#10; contains 10 duplicate subfunctions">
<ellipse fill="lightblue" stroke="lightblue" cx="399.55" cy="-453" rx="27" ry="18"/>
<text text-anchor="middle" x="399.55" y="-449.3" font-family="Times,serif" font-size="14.00">*</text>
</a>
</g>
</g>
<!-- f16&#45;&gt;f13 -->
<g id="edge48" class="edge">
<title>f16&#45;&gt;f13</title>
<g id="a_edge48"><a xlink:title="Function ID=16 depends on function ID=13">
<path fill="none" stroke="black" d="M428.15,-508.89C423.63,-500.21 417.94,-489.29 412.83,-479.49"/>
<polygon fill="black" stroke="black" points="415.89,-477.79 408.17,-470.54 409.68,-481.03 415.89,-477.79"/>
</a>
</g>
</g>
<!-- f15 -->
<g id="node20" class="node">
<title>f15</title>
<g id="a_node20"><a xlink:title="Function ID=15 &#10; contains 7 duplicate subfunctions">
<ellipse fill="lightblue" stroke="lightblue" cx="471.55" cy="-380" rx="27" ry="18"/>
<text text-anchor="middle" x="471.55" y="-376.3" font-family="Times,serif" font-size="14.00">*</text>
</a>
</g>
</g>
<!-- f16&#45;&gt;f15 -->
<g id="edge52" class="edge">
<title>f16&#45;&gt;f15</title>
<g id="a_edge52"><a xlink:title="Function ID=16 depends on function ID=15">
<path fill="none" stroke="black" d="M440.63,-508.2C446.6,-483.62 457.79,-437.59 464.94,-408.16"/>
<polygon fill="black" stroke="black" points="468.42,-408.68 467.38,-398.14 461.62,-407.03 468.42,-408.68"/>
</a>
</g>
</g>
<!-- function3 -->
<g id="node7" class="node">
<title>function3</title>
<g id="a_node7"><a xlink:href="inspected-f5-graph-3.svg" xlink:title="3rd derivative function &#10; contains 59 duplicate subfunctions &#10; contains 32 unique subfunctions &#10; (and is clickable)">
<path fill="red" stroke="red" d="M501.05,-908C501.05,-908 394.05,-908 394.05,-908 388.05,-908 382.05,-902 382.05,-896 382.05,-896 382.05,-882 382.05,-882 382.05,-876 388.05,-870 394.05,-870 394.05,-870 501.05,-870 501.05,-870 507.05,-870 513.05,-876 513.05,-882 513.05,-882 513.05,-896 513.05,-896 513.05,-902 507.05,-908 501.05,-908"/>
<text text-anchor="middle" x="447.55" y="-892.8" font-family="Times,serif" font-size="14.00">(Sin(X)) ** (5.0) </text>
<text text-anchor="middle" x="447.55" y="-877.8" font-family="Times,serif" font-size="14.00"> 3rd derivative</text>
</a>
</g>
</g>
<!-- f38 -->
<g id="node8" class="node">
<title>f38</title>
<g id="a_node8"><a xlink:title="Function ID=38 &#10; contains 58 duplicate subfunctions">
<ellipse fill="lightblue" stroke="lightblue" cx="447.55" cy="-816" rx="27" ry="18"/>
<text text-anchor="middle" x="447.55" y="-812.3" font-family="Times,serif" font-size="14.00">+</text>
</a>
</g>
</g>
<!-- function3&#45;&gt;f38 -->
<g id="edge4" class="edge">
<title>function3&#45;&gt;f38</title>
<path fill="none" stroke="black" d="M447.55,-869.72C447.55,-861.97 447.55,-852.79 447.55,-844.27"/>
<polygon fill="black" stroke="black" points="451.05,-844 447.55,-834 444.05,-844 451.05,-844"/>
</g>
<!-- f29 -->
<g id="node33" class="node">
<title>f29</title>
<g id="a_node33"><a xlink:title="Function ID=29 &#10; contains 36 duplicate subfunctions">
<ellipse fill="lightblue" stroke="lightblue" cx="420.55" cy="-744" rx="27" ry="18"/>
<text text-anchor="middle" x="420.55" y="-740.3" font-family="Times,serif" font-size="14.00">+</text>
</a>
</g>
</g>
<!-- f38&#45;&gt;f29 -->
<g id="edge23" class="edge">
<title>f38&#45;&gt;f29</title>
<g id="a_edge23"><a xlink:title="Function ID=38 depends on function ID=29">
<path fill="none" stroke="black" d="M441.15,-798.41C438.03,-790.34 434.21,-780.43 430.71,-771.35"/>
<polygon fill="black" stroke="black" points="433.95,-770.03 427.09,-761.96 427.42,-772.55 433.95,-770.03"/>
</a>
</g>
</g>
<!-- f37 -->
<g id="node41" class="node">
<title>f37</title>
<g id="a_node41"><a xlink:title="Function ID=37 &#10; contains 20 duplicate subfunctions">
<ellipse fill="lightblue" stroke="lightblue" cx="589.55" cy="-526" rx="27" ry="18"/>
<text text-anchor="middle" x="589.55" y="-522.3" font-family="Times,serif" font-size="14.00">+</text>
</a>
</g>
</g>
<!-- f38&#45;&gt;f37 -->
<g id="edge28" class="edge">
<title>f38&#45;&gt;f37</title>
<g id="a_edge28"><a xlink:title="Function ID=38 depends on function ID=37">
<path fill="none" stroke="black" d="M455.89,-798.72C473.11,-765.09 513.67,-685.44 546.55,-618 557.25,-596.03 569.1,-570.91 577.64,-552.63"/>
<polygon fill="black" stroke="black" points="580.84,-554.04 581.9,-543.5 574.5,-551.08 580.84,-554.04"/>
</a>
</g>
</g>
<!-- f1 -->
<g id="node9" class="node">
<title>f1</title>
<g id="a_node9"><a xlink:title="Function ID=1 &#10; contains 0 duplicate subfunctions">
<ellipse fill="lightgreen" stroke="lightgreen" cx="468.55" cy="-18" rx="27" ry="18"/>
<text text-anchor="middle" x="468.55" y="-14.3" font-family="Times,serif" font-size="14.00">X</text>
</a>
</g>
</g>
<!-- f3&#45;&gt;f1 -->
<g id="edge36" class="edge">
<title>f3&#45;&gt;f1</title>
<g id="a_edge36"><a xlink:title="Function ID=3 depends on function ID=1">
<path fill="none" stroke="black" d="M430.42,-73.46C436.7,-64.49 444.73,-53.02 451.8,-42.92"/>
<polygon fill="black" stroke="black" points="454.83,-44.69 457.7,-34.49 449.1,-40.68 454.83,-44.69"/>
</a>
</g>
</g>
<!-- f4&#45;&gt;f1 -->
<g id="edge47" class="edge">
<title>f4&#45;&gt;f1</title>
<g id="a_edge47"><a xlink:title="Function ID=4 depends on function ID=1">
<path fill="none" stroke="black" d="M530.29,-217.13C518.67,-179.84 490.73,-90.19 476.77,-45.4"/>
<polygon fill="black" stroke="black" points="480.1,-44.3 473.78,-35.79 473.41,-46.38 480.1,-44.3"/>
</a>
</g>
</g>
<!-- f6 -->
<g id="node12" class="node">
<title>f6</title>
<g id="a_node12"><a xlink:title="Function ID=6 &#10; contains 2 duplicate subfunctions">
<ellipse fill="lightblue" stroke="lightblue" cx="692.55" cy="-162" rx="31.4" ry="18"/>
<text text-anchor="middle" x="692.55" y="-158.3" font-family="Times,serif" font-size="14.00"> ** 4</text>
</a>
</g>
</g>
<!-- f6&#45;&gt;f3 -->
<g id="edge24" class="edge">
<title>f6&#45;&gt;f3</title>
<g id="a_edge24"><a xlink:title="Function ID=6 depends on function ID=3">
<path fill="none" stroke="black" d="M666.24,-152.14C657.76,-149.4 648.29,-146.45 639.55,-144 574.76,-125.83 498.19,-108.25 454.6,-98.6"/>
<polygon fill="black" stroke="black" points="455.3,-95.17 444.78,-96.44 453.79,-102.01 455.3,-95.17"/>
</a>
</g>
</g>
<!-- f7&#45;&gt;f6 -->
<g id="edge38" class="edge">
<title>f7&#45;&gt;f6</title>
<g id="a_edge38"><a xlink:title="Function ID=7 depends on function ID=6">
<path fill="none" stroke="black" d="M711.05,-289.92C707.46,-265.23 700.76,-219.35 696.49,-190.04"/>
<polygon fill="black" stroke="black" points="699.94,-189.45 695.03,-180.06 693.01,-190.46 699.94,-189.45"/>
</a>
</g>
</g>
<!-- f9 -->
<g id="node14" class="node">
<title>f9</title>
<g id="a_node14"><a xlink:title="Function ID=9 &#10; contains 2 duplicate subfunctions">
<ellipse fill="lightblue" stroke="lightblue" cx="230.55" cy="-162" rx="31.4" ry="18"/>
<text text-anchor="middle" x="230.55" y="-158.3" font-family="Times,serif" font-size="14.00"> ** 3</text>
</a>
</g>
</g>
<!-- f9&#45;&gt;f3 -->
<g id="edge8" class="edge">
<title>f9&#45;&gt;f3</title>
<g id="a_edge8"><a xlink:title="Function ID=9 depends on function ID=3">
<path fill="none" stroke="black" d="M256.04,-151.56C289.84,-139.04 349.54,-116.93 386.69,-103.17"/>
<polygon fill="black" stroke="black" points="388.37,-106.28 396.53,-99.52 385.94,-99.72 388.37,-106.28"/>
</a>
</g>
</g>
<!-- f10 -->
<g id="node15" class="node">
<title>f10</title>
<g id="a_node15"><a xlink:title="Function ID=10 &#10; contains 3 duplicate subfunctions">
<ellipse fill="lightblue" stroke="lightblue" cx="179.55" cy="-235" rx="32.49" ry="18"/>
<text text-anchor="middle" x="179.55" y="-231.3" font-family="Times,serif" font-size="14.00">4.0 *</text>
</a>
</g>
</g>
<!-- f10&#45;&gt;f9 -->
<g id="edge25" class="edge">
<title>f10&#45;&gt;f9</title>
<g id="a_edge25"><a xlink:title="Function ID=10 depends on function ID=9">
<path fill="none" stroke="black" d="M191.12,-217.89C197.57,-208.9 205.75,-197.52 212.98,-187.46"/>
<polygon fill="black" stroke="black" points="216.03,-189.21 219.02,-179.05 210.34,-185.13 216.03,-189.21"/>
</a>
</g>
</g>
<!-- f11 -->
<g id="node16" class="node">
<title>f11</title>
<g id="a_node16"><a xlink:title="Function ID=11 &#10; contains 6 duplicate subfunctions">
<ellipse fill="lightblue" stroke="lightblue" cx="224.55" cy="-308" rx="27" ry="18"/>
<text text-anchor="middle" x="224.55" y="-304.3" font-family="Times,serif" font-size="14.00">*</text>
</a>
</g>
</g>
<!-- f11&#45;&gt;f4 -->
<g id="edge35" class="edge">
<title>f11&#45;&gt;f4</title>
<g id="a_edge35"><a xlink:title="Function ID=11 depends on function ID=4">
<path fill="none" stroke="black" d="M247.23,-297.76C254.58,-295 262.83,-292.14 270.55,-290 353.36,-267.02 376.51,-272.03 460.55,-254 473.43,-251.23 487.5,-247.93 499.93,-244.92"/>
<polygon fill="black" stroke="black" points="501.05,-248.25 509.93,-242.47 499.38,-241.45 501.05,-248.25"/>
</a>
</g>
</g>
<!-- f11&#45;&gt;f10 -->
<g id="edge39" class="edge">
<title>f11&#45;&gt;f10</title>
<g id="a_edge39"><a xlink:title="Function ID=11 depends on function ID=10">
<path fill="none" stroke="black" d="M214.56,-291.24C208.87,-282.27 201.62,-270.83 195.19,-260.69"/>
<polygon fill="black" stroke="black" points="198.13,-258.78 189.82,-252.21 192.21,-262.53 198.13,-258.78"/>
</a>
</g>
</g>
<!-- f12 -->
<g id="node17" class="node">
<title>f12</title>
<g id="a_node17"><a xlink:title="Function ID=12 &#10; contains 7 duplicate subfunctions">
<ellipse fill="lightblue" stroke="lightblue" cx="218.55" cy="-380" rx="32.49" ry="18"/>
<text text-anchor="middle" x="218.55" y="-376.3" font-family="Times,serif" font-size="14.00">5.0 *</text>
</a>
</g>
</g>
<!-- f12&#45;&gt;f11 -->
<g id="edge51" class="edge">
<title>f12&#45;&gt;f11</title>
<g id="a_edge51"><a xlink:title="Function ID=12 depends on function ID=11">
<path fill="none" stroke="black" d="M220.03,-361.7C220.69,-353.98 221.49,-344.71 222.22,-336.11"/>
<polygon fill="black" stroke="black" points="225.71,-336.37 223.08,-326.1 218.74,-335.77 225.71,-336.37"/>
</a>
</g>
</g>
<!-- f13&#45;&gt;f4 -->
<g id="edge7" class="edge">
<title>f13&#45;&gt;f4</title>
<g id="a_edge7"><a xlink:title="Function ID=13 depends on function ID=4">
<path fill="none" stroke="black" d="M396.53,-434.94C391.9,-403.13 386.62,-334.01 418.55,-290 437.53,-263.83 472.37,-249.99 499.12,-242.91"/>
<polygon fill="black" stroke="black" points="500.04,-246.29 508.92,-240.52 498.37,-239.49 500.04,-246.29"/>
</a>
</g>
</g>
<!-- f13&#45;&gt;f12 -->
<g id="edge12" class="edge">
<title>f13&#45;&gt;f12</title>
<g id="a_edge12"><a xlink:title="Function ID=13 depends on function ID=12">
<path fill="none" stroke="black" d="M376.39,-443.12C348.77,-432.5 301.22,-414.13 260.55,-398 258.18,-397.06 255.74,-396.09 253.28,-395.1"/>
<polygon fill="black" stroke="black" points="254.43,-391.79 243.84,-391.31 251.81,-398.29 254.43,-391.79"/>
</a>
</g>
</g>
<!-- f14 -->
<g id="node19" class="node">
<title>f14</title>
<g id="a_node19"><a xlink:title="Function ID=14 &#10; contains 2 duplicate subfunctions">
<ellipse fill="lightblue" stroke="lightblue" cx="471.55" cy="-308" rx="43.59" ry="18"/>
<text text-anchor="middle" x="471.55" y="-304.3" font-family="Times,serif" font-size="14.00">unary &#45;</text>
</a>
</g>
</g>
<!-- f14&#45;&gt;f3 -->
<g id="edge22" class="edge">
<title>f14&#45;&gt;f3</title>
<g id="a_edge22"><a xlink:title="Function ID=14 depends on function ID=3">
<path fill="none" stroke="black" d="M473.39,-289.66C475.98,-259.12 478.44,-194.19 459.55,-144 455.32,-132.77 447.91,-121.9 440.61,-112.97"/>
<polygon fill="black" stroke="black" points="443.22,-110.63 434.03,-105.35 437.92,-115.2 443.22,-110.63"/>
</a>
</g>
</g>
<!-- f15&#45;&gt;f7 -->
<g id="edge34" class="edge">
<title>f15&#45;&gt;f7</title>
<g id="a_edge34"><a xlink:title="Function ID=15 depends on function ID=7">
<path fill="none" stroke="black" d="M496.08,-371.9C538.35,-359.68 625.19,-334.56 675.4,-320.03"/>
<polygon fill="black" stroke="black" points="676.6,-323.33 685.23,-317.19 674.65,-316.61 676.6,-323.33"/>
</a>
</g>
</g>
<!-- f15&#45;&gt;f14 -->
<g id="edge37" class="edge">
<title>f15&#45;&gt;f14</title>
<g id="a_edge37"><a xlink:title="Function ID=15 depends on function ID=14">
<path fill="none" stroke="black" d="M471.55,-361.7C471.55,-353.98 471.55,-344.71 471.55,-336.11"/>
<polygon fill="black" stroke="black" points="475.05,-336.1 471.55,-326.1 468.05,-336.1 475.05,-336.1"/>
</a>
</g>
</g>
<!-- f17 -->
<g id="node21" class="node">
<title>f17</title>
<g id="a_node21"><a xlink:title="Function ID=17 &#10; contains 2 duplicate subfunctions">
<ellipse fill="lightblue" stroke="lightblue" cx="419.55" cy="-162" rx="31.4" ry="18"/>
<text text-anchor="middle" x="419.55" y="-158.3" font-family="Times,serif" font-size="14.00"> ** 2</text>
</a>
</g>
</g>
<!-- f17&#45;&gt;f3 -->
<g id="edge6" class="edge">
<title>f17&#45;&gt;f3</title>
<g id="a_edge6"><a xlink:title="Function ID=17 depends on function ID=3">
<path fill="none" stroke="black" d="M419.55,-143.7C419.55,-135.98 419.55,-126.71 419.55,-118.11"/>
<polygon fill="black" stroke="black" points="423.05,-118.1 419.55,-108.1 416.05,-118.1 423.05,-118.1"/>
</a>
</g>
</g>
<!-- f18 -->
<g id="node22" class="node">
<title>f18</title>
<g id="a_node22"><a xlink:title="Function ID=18 &#10; contains 3 duplicate subfunctions">
<ellipse fill="lightblue" stroke="lightblue" cx="419.55" cy="-235" rx="32.49" ry="18"/>
<text text-anchor="middle" x="419.55" y="-231.3" font-family="Times,serif" font-size="14.00">3.0 *</text>
</a>
</g>
</g>
<!-- f18&#45;&gt;f17 -->
<g id="edge27" class="edge">
<title>f18&#45;&gt;f17</title>
<g id="a_edge27"><a xlink:title="Function ID=18 depends on function ID=17">
<path fill="none" stroke="black" d="M419.55,-216.81C419.55,-208.79 419.55,-199.05 419.55,-190.07"/>
<polygon fill="black" stroke="black" points="423.05,-190.03 419.55,-180.03 416.05,-190.03 423.05,-190.03"/>
</a>
</g>
</g>
<!-- f19 -->
<g id="node23" class="node">
<title>f19</title>
<g id="a_node23"><a xlink:title="Function ID=19 &#10; contains 6 duplicate subfunctions">
<ellipse fill="lightblue" stroke="lightblue" cx="306.55" cy="-308" rx="27" ry="18"/>
<text text-anchor="middle" x="306.55" y="-304.3" font-family="Times,serif" font-size="14.00">*</text>
</a>
</g>
</g>
<!-- f19&#45;&gt;f4 -->
<g id="edge32" class="edge">
<title>f19&#45;&gt;f4</title>
<g id="a_edge32"><a xlink:title="Function ID=19 depends on function ID=4">
<path fill="none" stroke="black" d="M328.5,-297.36C334.61,-294.82 341.29,-292.19 347.55,-290 399.85,-271.71 461.85,-254.8 499.94,-244.94"/>
<polygon fill="black" stroke="black" points="501.21,-248.23 510.02,-242.35 499.46,-241.45 501.21,-248.23"/>
</a>
</g>
</g>
<!-- f19&#45;&gt;f18 -->
<g id="edge40" class="edge">
<title>f19&#45;&gt;f18</title>
<g id="a_edge40"><a xlink:title="Function ID=19 depends on function ID=18">
<path fill="none" stroke="black" d="M325.46,-295.12C343.08,-284.04 369.63,-267.36 390.04,-254.54"/>
<polygon fill="black" stroke="black" points="392.05,-257.41 398.65,-249.13 388.32,-251.49 392.05,-257.41"/>
</a>
</g>
</g>
<!-- f20 -->
<g id="node24" class="node">
<title>f20</title>
<g id="a_node24"><a xlink:title="Function ID=20 &#10; contains 7 duplicate subfunctions">
<ellipse fill="lightblue" stroke="lightblue" cx="301.55" cy="-380" rx="32.49" ry="18"/>
<text text-anchor="middle" x="301.55" y="-376.3" font-family="Times,serif" font-size="14.00">4.0 *</text>
</a>
</g>
</g>
<!-- f20&#45;&gt;f19 -->
<g id="edge50" class="edge">
<title>f20&#45;&gt;f19</title>
<g id="a_edge50"><a xlink:title="Function ID=20 depends on function ID=19">
<path fill="none" stroke="black" d="M302.78,-361.7C303.33,-353.98 304,-344.71 304.61,-336.11"/>
<polygon fill="black" stroke="black" points="308.1,-336.33 305.32,-326.1 301.12,-335.83 308.1,-336.33"/>
</a>
</g>
</g>
<!-- f21 -->
<g id="node25" class="node">
<title>f21</title>
<g id="a_node25"><a xlink:title="Function ID=21 &#10; contains 10 duplicate subfunctions">
<ellipse fill="lightblue" stroke="lightblue" cx="309.55" cy="-453" rx="27" ry="18"/>
<text text-anchor="middle" x="309.55" y="-449.3" font-family="Times,serif" font-size="14.00">*</text>
</a>
</g>
</g>
<!-- f21&#45;&gt;f4 -->
<g id="edge5" class="edge">
<title>f21&#45;&gt;f4</title>
<g id="a_edge5"><a xlink:title="Function ID=21 depends on function ID=4">
<path fill="none" stroke="black" d="M319.69,-436.13C326.4,-425.47 335.25,-411.04 342.55,-398 368.83,-350.98 357.64,-326.18 397.55,-290 426.11,-264.11 468.51,-250.03 498.77,-242.8"/>
<polygon fill="black" stroke="black" points="499.93,-246.13 508.92,-240.52 498.4,-239.3 499.93,-246.13"/>
</a>
</g>
</g>
<!-- f21&#45;&gt;f20 -->
<g id="edge14" class="edge">
<title>f21&#45;&gt;f20</title>
<g id="a_edge14"><a xlink:title="Function ID=21 depends on function ID=20">
<path fill="none" stroke="black" d="M307.61,-434.81C306.71,-426.79 305.61,-417.05 304.6,-408.07"/>
<polygon fill="black" stroke="black" points="308.06,-407.57 303.46,-398.03 301.11,-408.36 308.06,-407.57"/>
</a>
</g>
</g>
<!-- f22 -->
<g id="node26" class="node">
<title>f22</title>
<g id="a_node26"><a xlink:title="Function ID=22 &#10; contains 2 duplicate subfunctions">
<ellipse fill="lightblue" stroke="lightblue" cx="85.55" cy="-235" rx="43.59" ry="18"/>
<text text-anchor="middle" x="85.55" y="-231.3" font-family="Times,serif" font-size="14.00">unary &#45;</text>
</a>
</g>
</g>
<!-- f22&#45;&gt;f3 -->
<g id="edge21" class="edge">
<title>f22&#45;&gt;f3</title>
<g id="a_edge21"><a xlink:title="Function ID=22 depends on function ID=3">
<path fill="none" stroke="black" d="M99.81,-217.66C118.56,-197.25 153.48,-162.74 190.55,-144 253.52,-112.17 335.91,-99.16 382.74,-94.06"/>
<polygon fill="black" stroke="black" points="383.15,-97.54 392.74,-93.04 382.43,-90.58 383.15,-97.54"/>
</a>
</g>
</g>
<!-- f23 -->
<g id="node27" class="node">
<title>f23</title>
<g id="a_node27"><a xlink:title="Function ID=23 &#10; contains 7 duplicate subfunctions">
<ellipse fill="lightblue" stroke="lightblue" cx="152.55" cy="-308" rx="27" ry="18"/>
<text text-anchor="middle" x="152.55" y="-304.3" font-family="Times,serif" font-size="14.00">*</text>
</a>
</g>
</g>
<!-- f23&#45;&gt;f10 -->
<g id="edge33" class="edge">
<title>f23&#45;&gt;f10</title>
<g id="a_edge33"><a xlink:title="Function ID=23 depends on function ID=10">
<path fill="none" stroke="black" d="M158.94,-290.17C162.11,-281.86 165.99,-271.64 169.53,-262.33"/>
<polygon fill="black" stroke="black" points="172.91,-263.3 173.19,-252.71 166.37,-260.81 172.91,-263.3"/>
</a>
</g>
</g>
<!-- f23&#45;&gt;f22 -->
<g id="edge41" class="edge">
<title>f23&#45;&gt;f22</title>
<g id="a_edge41"><a xlink:title="Function ID=23 depends on function ID=22">
<path fill="none" stroke="black" d="M138.66,-292.29C129.78,-282.88 118.06,-270.45 107.88,-259.67"/>
<polygon fill="black" stroke="black" points="110.22,-257.05 100.81,-252.18 105.13,-261.85 110.22,-257.05"/>
</a>
</g>
</g>
<!-- f24 -->
<g id="node28" class="node">
<title>f24</title>
<g id="a_node28"><a xlink:title="Function ID=24 &#10; contains 19 duplicate subfunctions">
<ellipse fill="lightblue" stroke="lightblue" cx="309.55" cy="-526" rx="27" ry="18"/>
<text text-anchor="middle" x="309.55" y="-522.3" font-family="Times,serif" font-size="14.00">+</text>
</a>
</g>
</g>
<!-- f24&#45;&gt;f21 -->
<g id="edge49" class="edge">
<title>f24&#45;&gt;f21</title>
<g id="a_edge49"><a xlink:title="Function ID=24 depends on function ID=21">
<path fill="none" stroke="black" d="M309.55,-507.81C309.55,-499.79 309.55,-490.05 309.55,-481.07"/>
<polygon fill="black" stroke="black" points="313.05,-481.03 309.55,-471.03 306.05,-481.03 313.05,-481.03"/>
</a>
</g>
</g>
<!-- f24&#45;&gt;f23 -->
<g id="edge54" class="edge">
<title>f24&#45;&gt;f23</title>
<g id="a_edge54"><a xlink:title="Function ID=24 depends on function ID=23">
<path fill="none" stroke="black" d="M291.23,-512.43C262.64,-491.85 207.59,-448.21 177.55,-398 166.18,-379 159.8,-354.64 156.34,-336.21"/>
<polygon fill="black" stroke="black" points="159.75,-335.4 154.62,-326.13 152.85,-336.57 159.75,-335.4"/>
</a>
</g>
</g>
<!-- f25 -->
<g id="node29" class="node">
<title>f25</title>
<g id="a_node29"><a xlink:title="Function ID=25 &#10; contains 20 duplicate subfunctions">
<ellipse fill="lightblue" stroke="lightblue" cx="316.55" cy="-599" rx="32.49" ry="18"/>
<text text-anchor="middle" x="316.55" y="-595.3" font-family="Times,serif" font-size="14.00">5.0 *</text>
</a>
</g>
</g>
<!-- f25&#45;&gt;f24 -->
<g id="edge13" class="edge">
<title>f25&#45;&gt;f24</title>
<g id="a_edge13"><a xlink:title="Function ID=25 depends on function ID=24">
<path fill="none" stroke="black" d="M314.85,-580.81C314.06,-572.79 313.1,-563.05 312.21,-554.07"/>
<polygon fill="black" stroke="black" points="315.69,-553.64 311.23,-544.03 308.72,-554.32 315.69,-553.64"/>
</a>
</g>
</g>
<!-- f26 -->
<g id="node30" class="node">
<title>f26</title>
<g id="a_node30"><a xlink:title="Function ID=26 &#10; contains 23 duplicate subfunctions">
<ellipse fill="lightblue" stroke="lightblue" cx="420.55" cy="-672" rx="27" ry="18"/>
<text text-anchor="middle" x="420.55" y="-668.3" font-family="Times,serif" font-size="14.00">*</text>
</a>
</g>
</g>
<!-- f26&#45;&gt;f4 -->
<g id="edge19" class="edge">
<title>f26&#45;&gt;f4</title>
<g id="a_edge19"><a xlink:title="Function ID=26 depends on function ID=4">
<path fill="none" stroke="black" d="M444.42,-663.26C465.3,-655.24 494.84,-640.67 511.55,-618 536.17,-584.59 532.55,-568.51 532.55,-527 532.55,-527 532.55,-527 532.55,-452 532.55,-384.15 534.04,-304.33 534.92,-263.34"/>
<polygon fill="black" stroke="black" points="538.43,-263.15 535.15,-253.08 531.43,-263 538.43,-263.15"/>
</a>
</g>
</g>
<!-- f26&#45;&gt;f25 -->
<g id="edge26" class="edge">
<title>f26&#45;&gt;f25</title>
<g id="a_edge26"><a xlink:title="Function ID=26 depends on function ID=25">
<path fill="none" stroke="black" d="M402.43,-658.63C386.53,-647.78 363.13,-631.8 344.77,-619.27"/>
<polygon fill="black" stroke="black" points="346.45,-616.18 336.22,-613.43 342.51,-621.96 346.45,-616.18"/>
</a>
</g>
</g>
<!-- f27 -->
<g id="node31" class="node">
<title>f27</title>
<g id="a_node31"><a xlink:title="Function ID=27 &#10; contains 2 duplicate subfunctions">
<ellipse fill="lightblue" stroke="lightblue" cx="43.55" cy="-162" rx="43.59" ry="18"/>
<text text-anchor="middle" x="43.55" y="-158.3" font-family="Times,serif" font-size="14.00">unary &#45;</text>
</a>
</g>
</g>
<!-- f27&#45;&gt;f3 -->
<g id="edge31" class="edge">
<title>f27&#45;&gt;f3</title>
<g id="a_edge31"><a xlink:title="Function ID=27 depends on function ID=3">
<path fill="none" stroke="black" d="M82.37,-153.77C155.54,-140.15 312.86,-110.86 383.69,-97.68"/>
<polygon fill="black" stroke="black" points="384.7,-101.05 393.89,-95.78 383.42,-94.17 384.7,-101.05"/>
</a>
</g>
</g>
<!-- f28 -->
<g id="node32" class="node">
<title>f28</title>
<g id="a_node32"><a xlink:title="Function ID=28 &#10; contains 11 duplicate subfunctions">
<ellipse fill="lightblue" stroke="lightblue" cx="103.55" cy="-453" rx="27" ry="18"/>
<text text-anchor="middle" x="103.55" y="-449.3" font-family="Times,serif" font-size="14.00">*</text>
</a>
</g>
</g>
<!-- f28&#45;&gt;f12 -->
<g id="edge45" class="edge">
<title>f28&#45;&gt;f12</title>
<g id="a_edge45"><a xlink:title="Function ID=28 depends on function ID=12">
<path fill="none" stroke="black" d="M122.79,-440.12C140.84,-428.97 168.09,-412.15 188.91,-399.3"/>
<polygon fill="black" stroke="black" points="191.01,-402.12 197.68,-393.88 187.33,-396.16 191.01,-402.12"/>
</a>
</g>
</g>
<!-- f28&#45;&gt;f27 -->
<g id="edge55" class="edge">
<title>f28&#45;&gt;f27</title>
<g id="a_edge55"><a xlink:title="Function ID=28 depends on function ID=27">
<path fill="none" stroke="black" d="M95.45,-435.58C79.55,-402.32 44.74,-324.16 32.55,-254 28.83,-232.64 32.19,-208.24 36.14,-190.08"/>
<polygon fill="black" stroke="black" points="39.58,-190.72 38.49,-180.18 32.77,-189.11 39.58,-190.72"/>
</a>
</g>
</g>
<!-- f29&#45;&gt;f26 -->
<g id="edge9" class="edge">
<title>f29&#45;&gt;f26</title>
<g id="a_edge9"><a xlink:title="Function ID=29 depends on function ID=26">
<path fill="none" stroke="black" d="M420.55,-725.7C420.55,-717.98 420.55,-708.71 420.55,-700.11"/>
<polygon fill="black" stroke="black" points="424.05,-700.1 420.55,-690.1 417.05,-700.1 424.05,-700.1"/>
</a>
</g>
</g>
<!-- f29&#45;&gt;f28 -->
<g id="edge15" class="edge">
<title>f29&#45;&gt;f28</title>
<g id="a_edge15"><a xlink:title="Function ID=29 depends on function ID=28">
<path fill="none" stroke="black" d="M404.22,-729.39C377.14,-706.7 321.34,-659.53 275.55,-618 220.37,-567.97 157.48,-506.94 125.19,-475.31"/>
<polygon fill="black" stroke="black" points="127.63,-472.8 118.04,-468.29 122.72,-477.79 127.63,-472.8"/>
</a>
</g>
</g>
<!-- f30 -->
<g id="node34" class="node">
<title>f30</title>
<g id="a_node34"><a xlink:title="Function ID=30 &#10; contains 2 duplicate subfunctions">
<ellipse fill="lightblue" stroke="lightblue" cx="599.55" cy="-162" rx="31.4" ry="18"/>
<text text-anchor="middle" x="599.55" y="-158.3" font-family="Times,serif" font-size="14.00"> ** 3</text>
</a>
</g>
</g>
<!-- f30&#45;&gt;f3 -->
<g id="edge18" class="edge">
<title>f30&#45;&gt;f3</title>
<g id="a_edge18"><a xlink:title="Function ID=30 depends on function ID=3">
<path fill="none" stroke="black" d="M574.14,-151.12C542.12,-138.67 487.05,-117.25 452.01,-103.63"/>
<polygon fill="black" stroke="black" points="452.85,-100.2 442.27,-99.84 450.32,-106.72 452.85,-100.2"/>
</a>
</g>
</g>
<!-- f31 -->
<g id="node35" class="node">
<title>f31</title>
<g id="a_node35"><a xlink:title="Function ID=31 &#10; contains 3 duplicate subfunctions">
<ellipse fill="lightblue" stroke="lightblue" cx="613.55" cy="-235" rx="32.49" ry="18"/>
<text text-anchor="middle" x="613.55" y="-231.3" font-family="Times,serif" font-size="14.00">4.0 *</text>
</a>
</g>
</g>
<!-- f31&#45;&gt;f30 -->
<g id="edge42" class="edge">
<title>f31&#45;&gt;f30</title>
<g id="a_edge42"><a xlink:title="Function ID=31 depends on function ID=30">
<path fill="none" stroke="black" d="M610.16,-216.81C608.58,-208.79 606.65,-199.05 604.88,-190.07"/>
<polygon fill="black" stroke="black" points="608.27,-189.16 602.9,-180.03 601.4,-190.52 608.27,-189.16"/>
</a>
</g>
</g>
<!-- f32 -->
<g id="node36" class="node">
<title>f32</title>
<g id="a_node36"><a xlink:title="Function ID=32 &#10; contains 6 duplicate subfunctions">
<ellipse fill="lightblue" stroke="lightblue" cx="598.55" cy="-308" rx="27" ry="18"/>
<text text-anchor="middle" x="598.55" y="-304.3" font-family="Times,serif" font-size="14.00">*</text>
</a>
</g>
</g>
<!-- f32&#45;&gt;f4 -->
<g id="edge44" class="edge">
<title>f32&#45;&gt;f4</title>
<g id="a_edge44"><a xlink:title="Function ID=32 depends on function ID=4">
<path fill="none" stroke="black" d="M585.19,-291.94C576.58,-282.25 565.24,-269.47 555.57,-258.57"/>
<polygon fill="black" stroke="black" points="558.14,-256.19 548.89,-251.04 552.91,-260.84 558.14,-256.19"/>
</a>
</g>
</g>
<!-- f32&#45;&gt;f31 -->
<g id="edge56" class="edge">
<title>f32&#45;&gt;f31</title>
<g id="a_edge56"><a xlink:title="Function ID=32 depends on function ID=31">
<path fill="none" stroke="black" d="M602.18,-289.81C603.87,-281.79 605.93,-272.05 607.83,-263.07"/>
<polygon fill="black" stroke="black" points="611.31,-263.54 609.95,-253.03 604.46,-262.09 611.31,-263.54"/>
</a>
</g>
</g>
<!-- f33 -->
<g id="node37" class="node">
<title>f33</title>
<g id="a_node37"><a xlink:title="Function ID=33 &#10; contains 7 duplicate subfunctions">
<ellipse fill="lightblue" stroke="lightblue" cx="630.55" cy="-380" rx="32.49" ry="18"/>
<text text-anchor="middle" x="630.55" y="-376.3" font-family="Times,serif" font-size="14.00">5.0 *</text>
</a>
</g>
</g>
<!-- f33&#45;&gt;f32 -->
<g id="edge16" class="edge">
<title>f33&#45;&gt;f32</title>
<g id="a_edge16"><a xlink:title="Function ID=33 depends on function ID=32">
<path fill="none" stroke="black" d="M622.96,-362.41C619.18,-354.13 614.51,-343.92 610.28,-334.66"/>
<polygon fill="black" stroke="black" points="613.42,-333.11 606.08,-325.47 607.05,-336.02 613.42,-333.11"/>
</a>
</g>
</g>
<!-- f34 -->
<g id="node38" class="node">
<title>f34</title>
<g id="a_node38"><a xlink:title="Function ID=34 &#10; contains 11 duplicate subfunctions">
<ellipse fill="lightblue" stroke="lightblue" cx="589.55" cy="-453" rx="27" ry="18"/>
<text text-anchor="middle" x="589.55" y="-449.3" font-family="Times,serif" font-size="14.00">*</text>
</a>
</g>
</g>
<!-- f34&#45;&gt;f14 -->
<g id="edge20" class="edge">
<title>f34&#45;&gt;f14</title>
<g id="a_edge20"><a xlink:title="Function ID=34 depends on function ID=14">
<path fill="none" stroke="black" d="M577.14,-436.97C556.7,-412.19 515.76,-362.58 491.29,-332.93"/>
<polygon fill="black" stroke="black" points="493.93,-330.62 484.86,-325.14 488.53,-335.08 493.93,-330.62"/>
</a>
</g>
</g>
<!-- f34&#45;&gt;f33 -->
<g id="edge29" class="edge">
<title>f34&#45;&gt;f33</title>
<g id="a_edge29"><a xlink:title="Function ID=34 depends on function ID=33">
<path fill="none" stroke="black" d="M598.85,-435.89C603.86,-427.21 610.16,-416.29 615.83,-406.49"/>
<polygon fill="black" stroke="black" points="619.03,-407.95 620.99,-397.54 612.96,-404.45 619.03,-407.95"/>
</a>
</g>
</g>
<!-- f35 -->
<g id="node39" class="node">
<title>f35</title>
<g id="a_node39"><a xlink:title="Function ID=35 &#10; contains 2 duplicate subfunctions">
<ellipse fill="lightblue" stroke="lightblue" cx="807.55" cy="-308" rx="43.59" ry="18"/>
<text text-anchor="middle" x="807.55" y="-304.3" font-family="Times,serif" font-size="14.00">unary &#45;</text>
</a>
</g>
</g>
<!-- f35&#45;&gt;f4 -->
<g id="edge30" class="edge">
<title>f35&#45;&gt;f4</title>
<g id="a_edge30"><a xlink:title="Function ID=35 depends on function ID=4">
<path fill="none" stroke="black" d="M774.92,-295.89C768.22,-293.79 761.19,-291.72 754.55,-290 674.71,-269.37 650.71,-280.25 572.55,-254 570.26,-253.23 567.93,-252.35 565.62,-251.41"/>
<polygon fill="black" stroke="black" points="566.84,-248.12 556.28,-247.25 563.99,-254.51 566.84,-248.12"/>
</a>
</g>
</g>
<!-- f36 -->
<g id="node40" class="node">
<title>f36</title>
<g id="a_node40"><a xlink:title="Function ID=36 &#10; contains 7 duplicate subfunctions">
<ellipse fill="lightblue" stroke="lightblue" cx="798.55" cy="-380" rx="27" ry="18"/>
<text text-anchor="middle" x="798.55" y="-376.3" font-family="Times,serif" font-size="14.00">*</text>
</a>
</g>
</g>
<!-- f36&#45;&gt;f7 -->
<g id="edge43" class="edge">
<title>f36&#45;&gt;f7</title>
<g id="a_edge43"><a xlink:title="Function ID=36 depends on function ID=7">
<path fill="none" stroke="black" d="M782.16,-365.5C769.9,-355.41 752.91,-341.41 738.9,-329.88"/>
<polygon fill="black" stroke="black" points="741,-327.07 731.06,-323.42 736.55,-332.48 741,-327.07"/>
</a>
</g>
</g>
<!-- f36&#45;&gt;f35 -->
<g id="edge57" class="edge">
<title>f36&#45;&gt;f35</title>
<g id="a_edge57"><a xlink:title="Function ID=36 depends on function ID=35">
<path fill="none" stroke="black" d="M800.72,-362.05C801.72,-354.35 802.91,-345.03 804.03,-336.36"/>
<polygon fill="black" stroke="black" points="807.52,-336.64 805.33,-326.28 800.58,-335.75 807.52,-336.64"/>
</a>
</g>
</g>
<!-- f37&#45;&gt;f34 -->
<g id="edge10" class="edge">
<title>f37&#45;&gt;f34</title>
<g id="a_edge10"><a xlink:title="Function ID=37 depends on function ID=34">
<path fill="none" stroke="black" d="M589.55,-507.81C589.55,-499.79 589.55,-490.05 589.55,-481.07"/>
<polygon fill="black" stroke="black" points="593.05,-481.03 589.55,-471.03 586.05,-481.03 593.05,-481.03"/>
</a>
</g>
</g>
<!-- f37&#45;&gt;f36 -->
<g id="edge17" class="edge">
<title>f37&#45;&gt;f36</title>
<g id="a_edge17"><a xlink:title="Function ID=37 depends on function ID=36">
<path fill="none" stroke="black" d="M616.64,-525.69C658.03,-525.18 736.72,-517.76 779.55,-472 795.44,-455.02 799.46,-428.32 799.94,-408.23"/>
<polygon fill="black" stroke="black" points="803.44,-408.11 799.9,-398.13 796.44,-408.14 803.44,-408.11"/>
</a>
</g>
</g>
</g>
</svg>
