<?xml version="1.0" encoding="UTF-8" standalone="no"?>
<!DOCTYPE svg PUBLIC "-//W3C//DTD SVG 1.1//EN"
 "http://www.w3.org/Graphics/SVG/1.1/DTD/svg11.dtd">
<!-- Generated by graphviz version 2.43.0 (0)
 -->
<!-- Title: %3 Pages: 1 -->
<svg width="727pt" height="626pt"
 viewBox="0.00 0.00 726.55 626.00" xmlns="http://www.w3.org/2000/svg" xmlns:xlink="http://www.w3.org/1999/xlink">
<g id="graph0" class="graph" transform="scale(1 1) rotate(0) translate(4 622)">
<title>%3</title>
<g id="a_graph0"><a xlink:title="Hey! Notice that red nodes are clickable and &#10; tooltips contain additional information!">
<polygon fill="white" stroke="transparent" points="-4,4 -4,-622 722.55,-622 722.55,4 -4,4"/>
</a>
</g>
<!-- function0 -->
<g id="node1" class="node">
<title>function0</title>
<g id="a_node1"><a xlink:href="inspected-f7089-graph-0.svg" xlink:title="original function &#10; contains 6 duplicate subfunctions &#10; contains 5 unique subfunctions &#10; (and is clickable)">
<path fill="red" stroke="red" d="M285.55,-326C285.55,-326 49.55,-326 49.55,-326 43.55,-326 37.55,-320 37.55,-314 37.55,-314 37.55,-300 37.55,-300 37.55,-294 43.55,-288 49.55,-288 49.55,-288 285.55,-288 285.55,-288 291.55,-288 297.55,-294 297.55,-300 297.55,-300 297.55,-314 297.55,-314 297.55,-320 291.55,-326 285.55,-326"/>
<text text-anchor="middle" x="167.55" y="-310.8" font-family="Times,serif" font-size="14.00">((X) ** (3.0)) + ((100.0) * (Sin(X))) </text>
<text text-anchor="middle" x="167.55" y="-295.8" font-family="Times,serif" font-size="14.00"> original function</text>
</a>
</g>
</g>
<!-- f7089 -->
<g id="node2" class="node">
<title>f7089</title>
<g id="a_node2"><a xlink:title="Function ID=7089 &#10; contains 5 duplicate subfunctions">
<ellipse fill="lightblue" stroke="lightblue" cx="174.55" cy="-234" rx="27" ry="18"/>
<text text-anchor="middle" x="174.55" y="-230.3" font-family="Times,serif" font-size="14.00">+</text>
</a>
</g>
</g>
<!-- function0&#45;&gt;f7089 -->
<g id="edge1" class="edge">
<title>function0&#45;&gt;f7089</title>
<path fill="none" stroke="black" d="M169.35,-287.72C170.12,-279.89 171.04,-270.59 171.89,-261.99"/>
<polygon fill="black" stroke="black" points="175.37,-262.3 172.87,-252 168.41,-261.61 175.37,-262.3"/>
</g>
<!-- f7087 -->
<g id="node13" class="node">
<title>f7087</title>
<g id="a_node13"><a xlink:title="Function ID=7087 &#10; contains 1 duplicate subfunctions">
<ellipse fill="lightblue" stroke="lightblue" cx="305.55" cy="-90" rx="31.4" ry="18"/>
<text text-anchor="middle" x="305.55" y="-86.3" font-family="Times,serif" font-size="14.00"> ** 3</text>
</a>
</g>
</g>
<!-- f7089&#45;&gt;f7087 -->
<g id="edge19" class="edge">
<title>f7089&#45;&gt;f7087</title>
<g id="a_edge19"><a xlink:title="Function ID=7089 depends on function ID=7087">
<path fill="none" stroke="black" d="M189.2,-218.85C199.99,-208.32 214.92,-193.49 227.55,-180 248,-158.15 270.44,-132.35 285.97,-114.16"/>
<polygon fill="black" stroke="black" points="288.78,-116.27 292.6,-106.39 283.45,-111.73 288.78,-116.27"/>
</a>
</g>
</g>
<!-- f7088 -->
<g id="node14" class="node">
<title>f7088</title>
<g id="a_node14"><a xlink:title="Function ID=7088 &#10; contains 2 duplicate subfunctions">
<ellipse fill="lightblue" stroke="lightblue" cx="174.55" cy="-162" rx="44.39" ry="18"/>
<text text-anchor="middle" x="174.55" y="-158.3" font-family="Times,serif" font-size="14.00">100.0 *</text>
</a>
</g>
</g>
<!-- f7089&#45;&gt;f7088 -->
<g id="edge11" class="edge">
<title>f7089&#45;&gt;f7088</title>
<g id="a_edge11"><a xlink:title="Function ID=7089 depends on function ID=7088">
<path fill="none" stroke="black" d="M174.55,-215.7C174.55,-207.98 174.55,-198.71 174.55,-190.11"/>
<polygon fill="black" stroke="black" points="178.05,-190.1 174.55,-180.1 171.05,-190.1 178.05,-190.1"/>
</a>
</g>
</g>
<!-- function1 -->
<g id="node3" class="node">
<title>function1</title>
<g id="a_node3"><a xlink:href="inspected-f7089-graph-1.svg" xlink:title="1st derivative function &#10; contains 9 duplicate subfunctions &#10; contains 8 unique subfunctions &#10; (and is clickable)">
<path fill="red" stroke="red" d="M706.55,-544C706.55,-544 470.55,-544 470.55,-544 464.55,-544 458.55,-538 458.55,-532 458.55,-532 458.55,-518 458.55,-518 458.55,-512 464.55,-506 470.55,-506 470.55,-506 706.55,-506 706.55,-506 712.55,-506 718.55,-512 718.55,-518 718.55,-518 718.55,-532 718.55,-532 718.55,-538 712.55,-544 706.55,-544"/>
<text text-anchor="middle" x="588.55" y="-528.8" font-family="Times,serif" font-size="14.00">((X) ** (3.0)) + ((100.0) * (Sin(X))) </text>
<text text-anchor="middle" x="588.55" y="-513.8" font-family="Times,serif" font-size="14.00"> 1st derivative</text>
</a>
</g>
</g>
<!-- f7095 -->
<g id="node4" class="node">
<title>f7095</title>
<g id="a_node4"><a xlink:title="Function ID=7095 &#10; contains 8 duplicate subfunctions">
<ellipse fill="lightblue" stroke="lightblue" cx="588.55" cy="-452" rx="27" ry="18"/>
<text text-anchor="middle" x="588.55" y="-448.3" font-family="Times,serif" font-size="14.00">+</text>
</a>
</g>
</g>
<!-- function1&#45;&gt;f7095 -->
<g id="edge2" class="edge">
<title>function1&#45;&gt;f7095</title>
<path fill="none" stroke="black" d="M588.55,-505.72C588.55,-497.97 588.55,-488.79 588.55,-480.27"/>
<polygon fill="black" stroke="black" points="592.05,-480 588.55,-470 585.05,-480 592.05,-480"/>
</g>
<!-- f7093 -->
<g id="node18" class="node">
<title>f7093</title>
<g id="a_node18"><a xlink:title="Function ID=7093 &#10; contains 4 duplicate subfunctions">
<ellipse fill="lightblue" stroke="lightblue" cx="544.55" cy="-380" rx="27" ry="18"/>
<text text-anchor="middle" x="544.55" y="-376.3" font-family="Times,serif" font-size="14.00">*</text>
</a>
</g>
</g>
<!-- f7095&#45;&gt;f7093 -->
<g id="edge20" class="edge">
<title>f7095&#45;&gt;f7093</title>
<g id="a_edge20"><a xlink:title="Function ID=7095 depends on function ID=7093">
<path fill="none" stroke="black" d="M578.56,-435.12C573.05,-426.34 566.08,-415.26 559.89,-405.42"/>
<polygon fill="black" stroke="black" points="562.78,-403.42 554.49,-396.82 556.85,-407.15 562.78,-403.42"/>
</a>
</g>
</g>
<!-- f7094 -->
<g id="node19" class="node">
<title>f7094</title>
<g id="a_node19"><a xlink:title="Function ID=7094 &#10; contains 2 duplicate subfunctions">
<ellipse fill="lightblue" stroke="lightblue" cx="633.55" cy="-380" rx="44.39" ry="18"/>
<text text-anchor="middle" x="633.55" y="-376.3" font-family="Times,serif" font-size="14.00">100.0 *</text>
</a>
</g>
</g>
<!-- f7095&#45;&gt;f7094 -->
<g id="edge10" class="edge">
<title>f7095&#45;&gt;f7094</title>
<g id="a_edge10"><a xlink:title="Function ID=7095 depends on function ID=7094">
<path fill="none" stroke="black" d="M598.76,-435.12C604.24,-426.59 611.12,-415.89 617.31,-406.25"/>
<polygon fill="black" stroke="black" points="620.28,-408.1 622.75,-397.8 614.4,-404.32 620.28,-408.1"/>
</a>
</g>
</g>
<!-- function2 -->
<g id="node5" class="node">
<title>function2</title>
<g id="a_node5"><a xlink:href="inspected-f7089-graph-2.svg" xlink:title="2nd derivative function &#10; contains 19 duplicate subfunctions &#10; contains 17 unique subfunctions &#10; (and is clickable)">
<path fill="red" stroke="red" d="M360.55,-618C360.55,-618 124.55,-618 124.55,-618 118.55,-618 112.55,-612 112.55,-606 112.55,-606 112.55,-592 112.55,-592 112.55,-586 118.55,-580 124.55,-580 124.55,-580 360.55,-580 360.55,-580 366.55,-580 372.55,-586 372.55,-592 372.55,-592 372.55,-606 372.55,-606 372.55,-612 366.55,-618 360.55,-618"/>
<text text-anchor="middle" x="242.55" y="-602.8" font-family="Times,serif" font-size="14.00">((X) ** (3.0)) + ((100.0) * (Sin(X))) </text>
<text text-anchor="middle" x="242.55" y="-587.8" font-family="Times,serif" font-size="14.00"> 2nd derivative</text>
</a>
</g>
</g>
<!-- f7107 -->
<g id="node6" class="node">
<title>f7107</title>
<g id="a_node6"><a xlink:title="Function ID=7107 &#10; contains 18 duplicate subfunctions">
<ellipse fill="lightblue" stroke="lightblue" cx="242.55" cy="-525" rx="27" ry="18"/>
<text text-anchor="middle" x="242.55" y="-521.3" font-family="Times,serif" font-size="14.00">+</text>
</a>
</g>
</g>
<!-- function2&#45;&gt;f7107 -->
<g id="edge3" class="edge">
<title>function2&#45;&gt;f7107</title>
<path fill="none" stroke="black" d="M242.55,-579.83C242.55,-571.89 242.55,-562.41 242.55,-553.63"/>
<polygon fill="black" stroke="black" points="246.05,-553.42 242.55,-543.42 239.05,-553.42 246.05,-553.42"/>
</g>
<!-- f7104 -->
<g id="node7" class="node">
<title>f7104</title>
<g id="a_node7"><a xlink:title="Function ID=7104 &#10; contains 13 duplicate subfunctions">
<ellipse fill="lightblue" stroke="lightblue" cx="350.55" cy="-452" rx="27" ry="18"/>
<text text-anchor="middle" x="350.55" y="-448.3" font-family="Times,serif" font-size="14.00">+</text>
</a>
</g>
</g>
<!-- f7107&#45;&gt;f7104 -->
<g id="edge24" class="edge">
<title>f7107&#45;&gt;f7104</title>
<g id="a_edge24"><a xlink:title="Function ID=7107 depends on function ID=7104">
<path fill="none" stroke="black" d="M261.36,-511.63C278.55,-500.33 304.16,-483.49 323.54,-470.75"/>
<polygon fill="black" stroke="black" points="325.52,-473.64 331.95,-465.23 321.67,-467.79 325.52,-473.64"/>
</a>
</g>
</g>
<!-- f7106 -->
<g id="node10" class="node">
<title>f7106</title>
<g id="a_node10"><a xlink:title="Function ID=7106 &#10; contains 3 duplicate subfunctions">
<ellipse fill="lightblue" stroke="lightblue" cx="134.55" cy="-452" rx="44.39" ry="18"/>
<text text-anchor="middle" x="134.55" y="-448.3" font-family="Times,serif" font-size="14.00">100.0 *</text>
</a>
</g>
</g>
<!-- f7107&#45;&gt;f7106 -->
<g id="edge18" class="edge">
<title>f7107&#45;&gt;f7106</title>
<g id="a_edge18"><a xlink:title="Function ID=7107 depends on function ID=7106">
<path fill="none" stroke="black" d="M223.73,-511.63C207.66,-501.07 184.23,-485.66 165.42,-473.3"/>
<polygon fill="black" stroke="black" points="167.15,-470.25 156.87,-467.68 163.31,-476.1 167.15,-470.25"/>
</a>
</g>
</g>
<!-- f7101 -->
<g id="node25" class="node">
<title>f7101</title>
<g id="a_node25"><a xlink:title="Function ID=7101 &#10; contains 7 duplicate subfunctions">
<ellipse fill="lightblue" stroke="lightblue" cx="350.55" cy="-380" rx="27" ry="18"/>
<text text-anchor="middle" x="350.55" y="-376.3" font-family="Times,serif" font-size="14.00">*</text>
</a>
</g>
</g>
<!-- f7104&#45;&gt;f7101 -->
<g id="edge31" class="edge">
<title>f7104&#45;&gt;f7101</title>
<g id="a_edge31"><a xlink:title="Function ID=7104 depends on function ID=7101">
<path fill="none" stroke="black" d="M350.55,-433.7C350.55,-425.98 350.55,-416.71 350.55,-408.11"/>
<polygon fill="black" stroke="black" points="354.05,-408.1 350.55,-398.1 347.05,-408.1 354.05,-408.1"/>
</a>
</g>
</g>
<!-- f7103 -->
<g id="node27" class="node">
<title>f7103</title>
<g id="a_node27"><a xlink:title="Function ID=7103 &#10; contains 4 duplicate subfunctions">
<ellipse fill="lightblue" stroke="lightblue" cx="424.55" cy="-380" rx="27" ry="18"/>
<text text-anchor="middle" x="424.55" y="-376.3" font-family="Times,serif" font-size="14.00">*</text>
</a>
</g>
</g>
<!-- f7104&#45;&gt;f7103 -->
<g id="edge28" class="edge">
<title>f7104&#45;&gt;f7103</title>
<g id="a_edge28"><a xlink:title="Function ID=7104 depends on function ID=7103">
<path fill="none" stroke="black" d="M365.52,-436.83C376.05,-426.87 390.33,-413.37 402.2,-402.14"/>
<polygon fill="black" stroke="black" points="404.73,-404.56 409.59,-395.14 399.92,-399.47 404.73,-404.56"/>
</a>
</g>
</g>
<!-- f1 -->
<g id="node8" class="node">
<title>f1</title>
<g id="a_node8"><a xlink:title="Function ID=1 &#10; contains 0 duplicate subfunctions">
<ellipse fill="lightgreen" stroke="lightgreen" cx="417.55" cy="-18" rx="27" ry="18"/>
<text text-anchor="middle" x="417.55" y="-14.3" font-family="Times,serif" font-size="14.00">X</text>
</a>
</g>
</g>
<!-- f7105 -->
<g id="node9" class="node">
<title>f7105</title>
<g id="a_node9"><a xlink:title="Function ID=7105 &#10; contains 2 duplicate subfunctions">
<ellipse fill="lightblue" stroke="lightblue" cx="43.55" cy="-234" rx="43.59" ry="18"/>
<text text-anchor="middle" x="43.55" y="-230.3" font-family="Times,serif" font-size="14.00">unary &#45;</text>
</a>
</g>
</g>
<!-- f3 -->
<g id="node11" class="node">
<title>f3</title>
<g id="a_node11"><a xlink:title="Function ID=3 &#10; contains 1 duplicate subfunctions">
<ellipse fill="lightblue" stroke="lightblue" cx="174.55" cy="-90" rx="27" ry="18"/>
<text text-anchor="middle" x="174.55" y="-86.3" font-family="Times,serif" font-size="14.00">Sin</text>
</a>
</g>
</g>
<!-- f7105&#45;&gt;f3 -->
<g id="edge25" class="edge">
<title>f7105&#45;&gt;f3</title>
<g id="a_edge25"><a xlink:title="Function ID=7105 depends on function ID=3">
<path fill="none" stroke="black" d="M57.32,-216.64C72.67,-198.57 98.38,-168.75 121.55,-144 131.51,-133.36 142.91,-121.88 152.57,-112.33"/>
<polygon fill="black" stroke="black" points="155.21,-114.65 159.89,-105.15 150.3,-109.65 155.21,-114.65"/>
</a>
</g>
</g>
<!-- f7106&#45;&gt;f7105 -->
<g id="edge29" class="edge">
<title>f7106&#45;&gt;f7105</title>
<g id="a_edge29"><a xlink:title="Function ID=7106 depends on function ID=7105">
<path fill="none" stroke="black" d="M115.01,-435.78C89.43,-414.47 45.8,-373.01 28.55,-326 20.87,-305.07 25.98,-279.99 32.24,-261.47"/>
<polygon fill="black" stroke="black" points="35.58,-262.51 35.76,-251.92 29.01,-260.09 35.58,-262.51"/>
</a>
</g>
</g>
<!-- f3&#45;&gt;f1 -->
<g id="edge23" class="edge">
<title>f3&#45;&gt;f1</title>
<g id="a_edge23"><a xlink:title="Function ID=3 depends on function ID=1">
<path fill="none" stroke="black" d="M199.18,-81.9C242.87,-69.32 333.96,-43.08 383.57,-28.79"/>
<polygon fill="black" stroke="black" points="384.56,-32.14 393.2,-26.01 382.63,-25.42 384.56,-32.14"/>
</a>
</g>
</g>
<!-- f4 -->
<g id="node12" class="node">
<title>f4</title>
<g id="a_node12"><a xlink:title="Function ID=4 &#10; contains 1 duplicate subfunctions">
<ellipse fill="lightblue" stroke="lightblue" cx="612.55" cy="-90" rx="27.9" ry="18"/>
<text text-anchor="middle" x="612.55" y="-86.3" font-family="Times,serif" font-size="14.00">Cos</text>
</a>
</g>
</g>
<!-- f4&#45;&gt;f1 -->
<g id="edge30" class="edge">
<title>f4&#45;&gt;f1</title>
<g id="a_edge30"><a xlink:title="Function ID=4 depends on function ID=1">
<path fill="none" stroke="black" d="M588.64,-80.42C553.93,-67.96 489.47,-44.82 450.35,-30.77"/>
<polygon fill="black" stroke="black" points="451.34,-27.41 440.74,-27.33 448.97,-34 451.34,-27.41"/>
</a>
</g>
</g>
<!-- f7087&#45;&gt;f1 -->
<g id="edge26" class="edge">
<title>f7087&#45;&gt;f1</title>
<g id="a_edge26"><a xlink:title="Function ID=7087 depends on function ID=1">
<path fill="none" stroke="black" d="M326.09,-76.16C343.94,-65 369.96,-48.74 389.69,-36.41"/>
<polygon fill="black" stroke="black" points="391.63,-39.32 398.26,-31.06 387.92,-33.39 391.63,-39.32"/>
</a>
</g>
</g>
<!-- f7088&#45;&gt;f3 -->
<g id="edge7" class="edge">
<title>f7088&#45;&gt;f3</title>
<g id="a_edge7"><a xlink:title="Function ID=7088 depends on function ID=3">
<path fill="none" stroke="black" d="M174.55,-143.7C174.55,-135.98 174.55,-126.71 174.55,-118.11"/>
<polygon fill="black" stroke="black" points="178.05,-118.1 174.55,-108.1 171.05,-118.1 178.05,-118.1"/>
</a>
</g>
</g>
<!-- f7090 -->
<g id="node15" class="node">
<title>f7090</title>
<g id="a_node15"><a xlink:title="Function ID=7090 &#10; contains 1 duplicate subfunctions">
<ellipse fill="lightblue" stroke="lightblue" cx="550.55" cy="-234" rx="31.4" ry="18"/>
<text text-anchor="middle" x="550.55" y="-230.3" font-family="Times,serif" font-size="14.00"> ** 2</text>
</a>
</g>
</g>
<!-- f7090&#45;&gt;f1 -->
<g id="edge5" class="edge">
<title>f7090&#45;&gt;f1</title>
<g id="a_edge5"><a xlink:title="Function ID=7090 depends on function ID=1">
<path fill="none" stroke="black" d="M541.94,-216.61C526.24,-187.05 491.42,-123.13 457.55,-72 450.98,-62.1 443.22,-51.58 436.29,-42.54"/>
<polygon fill="black" stroke="black" points="438.87,-40.15 429.97,-34.4 433.34,-44.45 438.87,-40.15"/>
</a>
</g>
</g>
<!-- f7091 -->
<g id="node16" class="node">
<title>f7091</title>
<g id="a_node16"><a xlink:title="Function ID=7091 &#10; contains 2 duplicate subfunctions">
<ellipse fill="lightblue" stroke="lightblue" cx="573.55" cy="-307" rx="32.49" ry="18"/>
<text text-anchor="middle" x="573.55" y="-303.3" font-family="Times,serif" font-size="14.00">3.0 *</text>
</a>
</g>
</g>
<!-- f7091&#45;&gt;f7090 -->
<g id="edge12" class="edge">
<title>f7091&#45;&gt;f7090</title>
<g id="a_edge12"><a xlink:title="Function ID=7091 depends on function ID=7090">
<path fill="none" stroke="black" d="M568.1,-289.17C565.44,-280.98 562.19,-270.94 559.21,-261.73"/>
<polygon fill="black" stroke="black" points="562.53,-260.63 556.12,-252.2 555.87,-262.79 562.53,-260.63"/>
</a>
</g>
</g>
<!-- f7092 -->
<g id="node17" class="node">
<title>f7092</title>
<g id="a_node17"><a xlink:title="Function ID=7092 &#10; contains 0 duplicate subfunctions">
<ellipse fill="lightgreen" stroke="lightgreen" cx="496.55" cy="-307" rx="27" ry="18"/>
<text text-anchor="middle" x="496.55" y="-303.3" font-family="Times,serif" font-size="14.00">1.0</text>
</a>
</g>
</g>
<!-- f7093&#45;&gt;f7091 -->
<g id="edge21" class="edge">
<title>f7093&#45;&gt;f7091</title>
<g id="a_edge21"><a xlink:title="Function ID=7093 depends on function ID=7091">
<path fill="none" stroke="black" d="M551.27,-362.53C554.7,-354.14 558.95,-343.74 562.82,-334.27"/>
<polygon fill="black" stroke="black" points="566.11,-335.45 566.66,-324.87 559.63,-332.81 566.11,-335.45"/>
</a>
</g>
</g>
<!-- f7093&#45;&gt;f7092 -->
<g id="edge13" class="edge">
<title>f7093&#45;&gt;f7092</title>
<g id="a_edge13"><a xlink:title="Function ID=7093 depends on function ID=7092">
<path fill="none" stroke="black" d="M533.89,-363.24C527.74,-354.14 519.87,-342.5 512.95,-332.26"/>
<polygon fill="black" stroke="black" points="515.67,-330.04 507.17,-323.71 509.87,-333.96 515.67,-330.04"/>
</a>
</g>
</g>
<!-- f7094&#45;&gt;f4 -->
<g id="edge6" class="edge">
<title>f7094&#45;&gt;f4</title>
<g id="a_edge6"><a xlink:title="Function ID=7094 depends on function ID=4">
<path fill="none" stroke="black" d="M632.3,-361.85C628.78,-313.62 618.79,-176.57 614.52,-118.04"/>
<polygon fill="black" stroke="black" points="618.01,-117.78 613.79,-108.06 611.03,-118.29 618.01,-117.78"/>
</a>
</g>
</g>
<!-- f7096 -->
<g id="node20" class="node">
<title>f7096</title>
<g id="a_node20"><a xlink:title="Function ID=7096 &#10; contains 1 duplicate subfunctions">
<ellipse fill="lightblue" stroke="lightblue" cx="417.55" cy="-90" rx="31.4" ry="18"/>
<text text-anchor="middle" x="417.55" y="-86.3" font-family="Times,serif" font-size="14.00"> ** 1</text>
</a>
</g>
</g>
<!-- f7096&#45;&gt;f1 -->
<g id="edge4" class="edge">
<title>f7096&#45;&gt;f1</title>
<g id="a_edge4"><a xlink:title="Function ID=7096 depends on function ID=1">
<path fill="none" stroke="black" d="M417.55,-71.7C417.55,-63.98 417.55,-54.71 417.55,-46.11"/>
<polygon fill="black" stroke="black" points="421.05,-46.1 417.55,-36.1 414.05,-46.1 421.05,-46.1"/>
</a>
</g>
</g>
<!-- f7097 -->
<g id="node21" class="node">
<title>f7097</title>
<g id="a_node21"><a xlink:title="Function ID=7097 &#10; contains 2 duplicate subfunctions">
<ellipse fill="lightblue" stroke="lightblue" cx="417.55" cy="-162" rx="32.49" ry="18"/>
<text text-anchor="middle" x="417.55" y="-158.3" font-family="Times,serif" font-size="14.00">2.0 *</text>
</a>
</g>
</g>
<!-- f7097&#45;&gt;f7096 -->
<g id="edge15" class="edge">
<title>f7097&#45;&gt;f7096</title>
<g id="a_edge15"><a xlink:title="Function ID=7097 depends on function ID=7096">
<path fill="none" stroke="black" d="M417.55,-143.7C417.55,-135.98 417.55,-126.71 417.55,-118.11"/>
<polygon fill="black" stroke="black" points="421.05,-118.1 417.55,-108.1 414.05,-118.1 421.05,-118.1"/>
</a>
</g>
</g>
<!-- f7098 -->
<g id="node22" class="node">
<title>f7098</title>
<g id="a_node22"><a xlink:title="Function ID=7098 &#10; contains 0 duplicate subfunctions">
<ellipse fill="lightgreen" stroke="lightgreen" cx="340.55" cy="-162" rx="27" ry="18"/>
<text text-anchor="middle" x="340.55" y="-158.3" font-family="Times,serif" font-size="14.00">1.0</text>
</a>
</g>
</g>
<!-- f7099 -->
<g id="node23" class="node">
<title>f7099</title>
<g id="a_node23"><a xlink:title="Function ID=7099 &#10; contains 4 duplicate subfunctions">
<ellipse fill="lightblue" stroke="lightblue" cx="347.55" cy="-234" rx="27" ry="18"/>
<text text-anchor="middle" x="347.55" y="-230.3" font-family="Times,serif" font-size="14.00">*</text>
</a>
</g>
</g>
<!-- f7099&#45;&gt;f7097 -->
<g id="edge22" class="edge">
<title>f7099&#45;&gt;f7097</title>
<g id="a_edge22"><a xlink:title="Function ID=7099 depends on function ID=7097">
<path fill="none" stroke="black" d="M362.05,-218.5C371.55,-209 384.16,-196.38 394.96,-185.58"/>
<polygon fill="black" stroke="black" points="397.49,-188 402.09,-178.46 392.54,-183.05 397.49,-188"/>
</a>
</g>
</g>
<!-- f7099&#45;&gt;f7098 -->
<g id="edge16" class="edge">
<title>f7099&#45;&gt;f7098</title>
<g id="a_edge16"><a xlink:title="Function ID=7099 depends on function ID=7098">
<path fill="none" stroke="black" d="M345.82,-215.7C345.04,-207.98 344.12,-198.71 343.26,-190.11"/>
<polygon fill="black" stroke="black" points="346.73,-189.71 342.26,-180.1 339.77,-190.4 346.73,-189.71"/>
</a>
</g>
</g>
<!-- f7100 -->
<g id="node24" class="node">
<title>f7100</title>
<g id="a_node24"><a xlink:title="Function ID=7100 &#10; contains 5 duplicate subfunctions">
<ellipse fill="lightblue" stroke="lightblue" cx="347.55" cy="-307" rx="32.49" ry="18"/>
<text text-anchor="middle" x="347.55" y="-303.3" font-family="Times,serif" font-size="14.00">3.0 *</text>
</a>
</g>
</g>
<!-- f7100&#45;&gt;f7099 -->
<g id="edge27" class="edge">
<title>f7100&#45;&gt;f7099</title>
<g id="a_edge27"><a xlink:title="Function ID=7100 depends on function ID=7099">
<path fill="none" stroke="black" d="M347.55,-288.81C347.55,-280.79 347.55,-271.05 347.55,-262.07"/>
<polygon fill="black" stroke="black" points="351.05,-262.03 347.55,-252.03 344.05,-262.03 351.05,-262.03"/>
</a>
</g>
</g>
<!-- f7101&#45;&gt;f7092 -->
<g id="edge8" class="edge">
<title>f7101&#45;&gt;f7092</title>
<g id="a_edge8"><a xlink:title="Function ID=7101 depends on function ID=7092">
<path fill="none" stroke="black" d="M372.09,-368.73C394.3,-358.12 429.91,-341.04 460.55,-326 462.53,-325.02 464.58,-324.01 466.64,-322.99"/>
<polygon fill="black" stroke="black" points="468.24,-326.11 475.63,-318.52 465.12,-319.84 468.24,-326.11"/>
</a>
</g>
</g>
<!-- f7101&#45;&gt;f7100 -->
<g id="edge14" class="edge">
<title>f7101&#45;&gt;f7100</title>
<g id="a_edge14"><a xlink:title="Function ID=7101 depends on function ID=7100">
<path fill="none" stroke="black" d="M349.82,-361.81C349.48,-353.79 349.07,-344.05 348.69,-335.07"/>
<polygon fill="black" stroke="black" points="352.18,-334.87 348.27,-325.03 345.19,-335.17 352.18,-334.87"/>
</a>
</g>
</g>
<!-- f7102 -->
<g id="node26" class="node">
<title>f7102</title>
<g id="a_node26"><a xlink:title="Function ID=7102 &#10; contains 0 duplicate subfunctions">
<ellipse fill="lightgreen" stroke="lightgreen" cx="424.55" cy="-307" rx="27" ry="18"/>
<text text-anchor="middle" x="424.55" y="-303.3" font-family="Times,serif" font-size="14.00">0.0</text>
</a>
</g>
</g>
<!-- f7103&#45;&gt;f7091 -->
<g id="edge9" class="edge">
<title>f7103&#45;&gt;f7091</title>
<g id="a_edge9"><a xlink:title="Function ID=7103 depends on function ID=7091">
<path fill="none" stroke="black" d="M445.89,-368.83C470.62,-357.05 511.64,-337.5 540.5,-323.75"/>
<polygon fill="black" stroke="black" points="542.25,-326.79 549.77,-319.33 539.24,-320.47 542.25,-326.79"/>
</a>
</g>
</g>
<!-- f7103&#45;&gt;f7102 -->
<g id="edge17" class="edge">
<title>f7103&#45;&gt;f7102</title>
<g id="a_edge17"><a xlink:title="Function ID=7103 depends on function ID=7102">
<path fill="none" stroke="black" d="M424.55,-361.81C424.55,-353.79 424.55,-344.05 424.55,-335.07"/>
<polygon fill="black" stroke="black" points="428.05,-335.03 424.55,-325.03 421.05,-335.03 428.05,-335.03"/>
</a>
</g>
</g>
</g>
</svg>
