<?xml version="1.0" encoding="UTF-8" standalone="no"?>
<!DOCTYPE svg PUBLIC "-//W3C//DTD SVG 1.1//EN"
 "http://www.w3.org/Graphics/SVG/1.1/DTD/svg11.dtd">
<!-- Generated by graphviz version 2.43.0 (0)
 -->
<!-- Title: %3 Pages: 1 -->
<svg width="546pt" height="334pt"
 viewBox="0.00 0.00 546.00 334.00" xmlns="http://www.w3.org/2000/svg" xmlns:xlink="http://www.w3.org/1999/xlink">
<g id="graph0" class="graph" transform="scale(1 1) rotate(0) translate(4 330)">
<title>%3</title>
<g id="a_graph0"><a xlink:title="Hey! Notice that red nodes are clickable and &#10; tooltips contain additional information!">
<polygon fill="white" stroke="transparent" points="-4,4 -4,-330 542,-330 542,4 -4,4"/>
</a>
</g>
<!-- function0 -->
<g id="node1" class="node">
<title>function0</title>
<g id="a_node1"><a xlink:href="inspected-f7089-optimized-0.svg" xlink:title="original function &#10; contains 6 duplicate subfunctions &#10; contains 5 unique subfunctions &#10; (and is clickable)">
<path fill="red" stroke="red" d="M248,-326C248,-326 12,-326 12,-326 6,-326 0,-320 0,-314 0,-314 0,-300 0,-300 0,-294 6,-288 12,-288 12,-288 248,-288 248,-288 254,-288 260,-294 260,-300 260,-300 260,-314 260,-314 260,-320 254,-326 248,-326"/>
<text text-anchor="middle" x="130" y="-310.8" font-family="Times,serif" font-size="14.00">((X) ** (3.0)) + ((100.0) * (Sin(X))) </text>
<text text-anchor="middle" x="130" y="-295.8" font-family="Times,serif" font-size="14.00"> original function</text>
</a>
</g>
</g>
<!-- f7089 -->
<g id="node2" class="node">
<title>f7089</title>
<g id="a_node2"><a xlink:title="Function ID=7089 &#10; contains 5 duplicate subfunctions">
<ellipse fill="lightblue" stroke="lightblue" cx="145" cy="-234" rx="27" ry="18"/>
<text text-anchor="middle" x="145" y="-230.3" font-family="Times,serif" font-size="14.00">+</text>
</a>
</g>
</g>
<!-- function0&#45;&gt;f7089 -->
<g id="edge1" class="edge">
<title>function0&#45;&gt;f7089</title>
<path fill="none" stroke="black" d="M133.86,-287.72C135.52,-279.89 137.48,-270.59 139.3,-261.99"/>
<polygon fill="black" stroke="black" points="142.77,-262.51 141.41,-252 135.92,-261.06 142.77,-262.51"/>
</g>
<!-- f7088 -->
<g id="node5" class="node">
<title>f7088</title>
<g id="a_node5"><a xlink:title="Function ID=7088 &#10; contains 2 duplicate subfunctions">
<ellipse fill="lightblue" stroke="lightblue" cx="145" cy="-162" rx="44.39" ry="18"/>
<text text-anchor="middle" x="145" y="-158.3" font-family="Times,serif" font-size="14.00">100.0 *</text>
</a>
</g>
</g>
<!-- f7089&#45;&gt;f7088 -->
<g id="edge7" class="edge">
<title>f7089&#45;&gt;f7088</title>
<g id="a_edge7"><a xlink:title="Function ID=7089 depends on function ID=7088">
<path fill="none" stroke="black" d="M145,-215.7C145,-207.98 145,-198.71 145,-190.11"/>
<polygon fill="black" stroke="black" points="148.5,-190.1 145,-180.1 141.5,-190.1 148.5,-190.1"/>
</a>
</g>
</g>
<!-- f7087 -->
<g id="node12" class="node">
<title>f7087</title>
<g id="a_node12"><a xlink:title="Function ID=7087 &#10; contains 1 duplicate subfunctions">
<ellipse fill="lightblue" stroke="lightblue" cx="221" cy="-90" rx="31.4" ry="18"/>
<text text-anchor="middle" x="221" y="-86.3" font-family="Times,serif" font-size="14.00"> ** 3</text>
</a>
</g>
</g>
<!-- f7089&#45;&gt;f7087 -->
<g id="edge10" class="edge">
<title>f7089&#45;&gt;f7087</title>
<g id="a_edge10"><a xlink:title="Function ID=7089 depends on function ID=7087">
<path fill="none" stroke="black" d="M162.22,-219.96C173.96,-210.19 188.96,-195.82 198,-180 208.92,-160.89 214.75,-136.53 217.8,-118.14"/>
<polygon fill="black" stroke="black" points="221.29,-118.48 219.3,-108.08 214.37,-117.45 221.29,-118.48"/>
</a>
</g>
</g>
<!-- function1 -->
<g id="node3" class="node">
<title>function1</title>
<g id="a_node3"><a xlink:href="inspected-f7089-optimized-1.svg" xlink:title="1st derivative function &#10; contains 8 duplicate subfunctions &#10; contains 6 unique subfunctions &#10; (and is clickable)">
<path fill="red" stroke="red" d="M526,-326C526,-326 290,-326 290,-326 284,-326 278,-320 278,-314 278,-314 278,-300 278,-300 278,-294 284,-288 290,-288 290,-288 526,-288 526,-288 532,-288 538,-294 538,-300 538,-300 538,-314 538,-314 538,-320 532,-326 526,-326"/>
<text text-anchor="middle" x="408" y="-310.8" font-family="Times,serif" font-size="14.00">((X) ** (3.0)) + ((100.0) * (Sin(X))) </text>
<text text-anchor="middle" x="408" y="-295.8" font-family="Times,serif" font-size="14.00"> 1st derivative</text>
</a>
</g>
</g>
<!-- f7275 -->
<g id="node4" class="node">
<title>f7275</title>
<g id="a_node4"><a xlink:title="Function ID=7275 &#10; contains 7 duplicate subfunctions">
<ellipse fill="lightblue" stroke="lightblue" cx="393" cy="-234" rx="27" ry="18"/>
<text text-anchor="middle" x="393" y="-230.3" font-family="Times,serif" font-size="14.00">+</text>
</a>
</g>
</g>
<!-- function1&#45;&gt;f7275 -->
<g id="edge2" class="edge">
<title>function1&#45;&gt;f7275</title>
<path fill="none" stroke="black" d="M404.14,-287.72C402.48,-279.89 400.52,-270.59 398.7,-261.99"/>
<polygon fill="black" stroke="black" points="402.08,-261.06 396.59,-252 395.23,-262.51 402.08,-261.06"/>
</g>
<!-- f7094 -->
<g id="node9" class="node">
<title>f7094</title>
<g id="a_node9"><a xlink:title="Function ID=7094 &#10; contains 2 duplicate subfunctions">
<ellipse fill="lightblue" stroke="lightblue" cx="298" cy="-162" rx="44.39" ry="18"/>
<text text-anchor="middle" x="298" y="-158.3" font-family="Times,serif" font-size="14.00">100.0 *</text>
</a>
</g>
</g>
<!-- f7275&#45;&gt;f7094 -->
<g id="edge5" class="edge">
<title>f7275&#45;&gt;f7094</title>
<g id="a_edge5"><a xlink:title="Function ID=7275 depends on function ID=7094">
<path fill="none" stroke="black" d="M375.58,-220.16C362.02,-210.17 342.9,-196.09 327.04,-184.4"/>
<polygon fill="black" stroke="black" points="328.75,-181.31 318.62,-178.19 324.6,-186.94 328.75,-181.31"/>
</a>
</g>
</g>
<!-- f7274 -->
<g id="node11" class="node">
<title>f7274</title>
<g id="a_node11"><a xlink:title="Function ID=7274 &#10; contains 3 duplicate subfunctions">
<ellipse fill="lightblue" stroke="lightblue" cx="393" cy="-162" rx="32.49" ry="18"/>
<text text-anchor="middle" x="393" y="-158.3" font-family="Times,serif" font-size="14.00">3.0 *</text>
</a>
</g>
</g>
<!-- f7275&#45;&gt;f7274 -->
<g id="edge8" class="edge">
<title>f7275&#45;&gt;f7274</title>
<g id="a_edge8"><a xlink:title="Function ID=7275 depends on function ID=7274">
<path fill="none" stroke="black" d="M393,-215.7C393,-207.98 393,-198.71 393,-190.11"/>
<polygon fill="black" stroke="black" points="396.5,-190.1 393,-180.1 389.5,-190.1 396.5,-190.1"/>
</a>
</g>
</g>
<!-- f3 -->
<g id="node7" class="node">
<title>f3</title>
<g id="a_node7"><a xlink:title="Function ID=3 &#10; contains 1 duplicate subfunctions">
<ellipse fill="lightblue" stroke="lightblue" cx="145" cy="-90" rx="27" ry="18"/>
<text text-anchor="middle" x="145" y="-86.3" font-family="Times,serif" font-size="14.00">Sin</text>
</a>
</g>
</g>
<!-- f7088&#45;&gt;f3 -->
<g id="edge3" class="edge">
<title>f7088&#45;&gt;f3</title>
<g id="a_edge3"><a xlink:title="Function ID=7088 depends on function ID=3">
<path fill="none" stroke="black" d="M145,-143.7C145,-135.98 145,-126.71 145,-118.11"/>
<polygon fill="black" stroke="black" points="148.5,-118.1 145,-108.1 141.5,-118.1 148.5,-118.1"/>
</a>
</g>
</g>
<!-- f1 -->
<g id="node6" class="node">
<title>f1</title>
<g id="a_node6"><a xlink:title="Function ID=1 &#10; contains 0 duplicate subfunctions">
<ellipse fill="lightgreen" stroke="lightgreen" cx="259" cy="-18" rx="27" ry="18"/>
<text text-anchor="middle" x="259" y="-14.3" font-family="Times,serif" font-size="14.00">X</text>
</a>
</g>
</g>
<!-- f3&#45;&gt;f1 -->
<g id="edge13" class="edge">
<title>f3&#45;&gt;f1</title>
<g id="a_edge13"><a xlink:title="Function ID=3 depends on function ID=1">
<path fill="none" stroke="black" d="M164.34,-77.13C182.6,-65.91 210.19,-48.97 230.89,-36.26"/>
<polygon fill="black" stroke="black" points="232.88,-39.15 239.57,-30.93 229.21,-33.18 232.88,-39.15"/>
</a>
</g>
</g>
<!-- f4 -->
<g id="node8" class="node">
<title>f4</title>
<g id="a_node8"><a xlink:title="Function ID=4 &#10; contains 1 duplicate subfunctions">
<ellipse fill="lightblue" stroke="lightblue" cx="298" cy="-90" rx="27.9" ry="18"/>
<text text-anchor="middle" x="298" y="-86.3" font-family="Times,serif" font-size="14.00">Cos</text>
</a>
</g>
</g>
<!-- f4&#45;&gt;f1 -->
<g id="edge12" class="edge">
<title>f4&#45;&gt;f1</title>
<g id="a_edge12"><a xlink:title="Function ID=4 depends on function ID=1">
<path fill="none" stroke="black" d="M288.95,-72.76C284.18,-64.19 278.22,-53.49 272.87,-43.9"/>
<polygon fill="black" stroke="black" points="275.92,-42.18 268,-35.15 269.81,-45.59 275.92,-42.18"/>
</a>
</g>
</g>
<!-- f7094&#45;&gt;f4 -->
<g id="edge11" class="edge">
<title>f7094&#45;&gt;f4</title>
<g id="a_edge11"><a xlink:title="Function ID=7094 depends on function ID=4">
<path fill="none" stroke="black" d="M298,-143.7C298,-135.98 298,-126.71 298,-118.11"/>
<polygon fill="black" stroke="black" points="301.5,-118.1 298,-108.1 294.5,-118.1 301.5,-118.1"/>
</a>
</g>
</g>
<!-- f7273 -->
<g id="node10" class="node">
<title>f7273</title>
<g id="a_node10"><a xlink:title="Function ID=7273 &#10; contains 2 duplicate subfunctions">
<ellipse fill="lightblue" stroke="lightblue" cx="382" cy="-90" rx="27" ry="18"/>
<text text-anchor="middle" x="382" y="-86.3" font-family="Times,serif" font-size="14.00">*</text>
</a>
</g>
</g>
<!-- f7273&#45;&gt;f1 -->
<g id="edge6" class="edge">
<title>f7273&#45;&gt;f1</title>
<g id="a_edge6"><a xlink:title="Function ID=7273 depends on function ID=1">
<path fill="none" stroke="black" d="M361.96,-77.6C341.86,-66.16 310.69,-48.42 287.91,-35.46"/>
<polygon fill="black" stroke="black" points="289.45,-32.3 279.03,-30.4 285.99,-38.39 289.45,-32.3"/>
</a>
</g>
</g>
<!-- f7274&#45;&gt;f7273 -->
<g id="edge9" class="edge">
<title>f7274&#45;&gt;f7273</title>
<g id="a_edge9"><a xlink:title="Function ID=7274 depends on function ID=7273">
<path fill="none" stroke="black" d="M390.34,-144.05C389.13,-136.35 387.66,-127.03 386.3,-118.36"/>
<polygon fill="black" stroke="black" points="389.72,-117.61 384.71,-108.28 382.81,-118.7 389.72,-117.61"/>
</a>
</g>
</g>
<!-- f7087&#45;&gt;f1 -->
<g id="edge4" class="edge">
<title>f7087&#45;&gt;f1</title>
<g id="a_edge4"><a xlink:title="Function ID=7087 depends on function ID=1">
<path fill="none" stroke="black" d="M230.01,-72.41C234.55,-64.04 240.16,-53.71 245.23,-44.37"/>
<polygon fill="black" stroke="black" points="248.36,-45.93 250.06,-35.47 242.21,-42.59 248.36,-45.93"/>
</a>
</g>
</g>
</g>
</svg>
