<?xml version="1.0" encoding="UTF-8" standalone="no"?>
<!DOCTYPE svg PUBLIC "-//W3C//DTD SVG 1.1//EN"
 "http://www.w3.org/Graphics/SVG/1.1/DTD/svg11.dtd">
<!-- Generated by graphviz version 2.43.0 (0)
 -->
<!-- Title: %3 Pages: 1 -->
<svg width="501pt" height="554pt"
 viewBox="0.00 0.00 500.50 554.00" xmlns="http://www.w3.org/2000/svg" xmlns:xlink="http://www.w3.org/1999/xlink">
<g id="graph0" class="graph" transform="scale(1 1) rotate(0) translate(4 550)">
<title>%3</title>
<g id="a_graph0"><a xlink:title="Hey! Notice that red nodes are clickable and &#10; tooltips contain additional information!">
<polygon fill="white" stroke="transparent" points="-4,4 -4,-550 496.5,-550 496.5,4 -4,4"/>
</a>
</g>
<!-- function0 -->
<g id="node1" class="node">
<title>function0</title>
<g id="a_node1"><a xlink:href="inspected-f378-optimized-0.svg" xlink:title="original function &#10; contains 2 duplicate subfunctions &#10; contains 2 unique subfunctions &#10; (and is clickable)">
<path fill="red" stroke="red" d="M127,-182C127,-182 12,-182 12,-182 6,-182 0,-176 0,-170 0,-170 0,-156 0,-156 0,-150 6,-144 12,-144 12,-144 127,-144 127,-144 133,-144 139,-150 139,-156 139,-156 139,-170 139,-170 139,-176 133,-182 127,-182"/>
<text text-anchor="middle" x="69.5" y="-166.8" font-family="Times,serif" font-size="14.00">(X) ** (5.0) </text>
<text text-anchor="middle" x="69.5" y="-151.8" font-family="Times,serif" font-size="14.00"> original function</text>
</a>
</g>
</g>
<!-- f378 -->
<g id="node2" class="node">
<title>f378</title>
<g id="a_node2"><a xlink:title="Function ID=378 &#10; contains 1 duplicate subfunctions">
<ellipse fill="lightblue" stroke="lightblue" cx="100.5" cy="-90" rx="31.4" ry="18"/>
<text text-anchor="middle" x="100.5" y="-86.3" font-family="Times,serif" font-size="14.00"> ** 5</text>
</a>
</g>
</g>
<!-- function0&#45;&gt;f378 -->
<g id="edge1" class="edge">
<title>function0&#45;&gt;f378</title>
<path fill="none" stroke="black" d="M77.48,-143.72C81.07,-135.51 85.36,-125.68 89.26,-116.75"/>
<polygon fill="black" stroke="black" points="92.49,-118.09 93.29,-107.52 86.08,-115.29 92.49,-118.09"/>
</g>
<!-- f1 -->
<g id="node9" class="node">
<title>f1</title>
<g id="a_node9"><a xlink:title="Function ID=1 &#10; contains 0 duplicate subfunctions">
<ellipse fill="lightgreen" stroke="lightgreen" cx="245.5" cy="-18" rx="27" ry="18"/>
<text text-anchor="middle" x="245.5" y="-14.3" font-family="Times,serif" font-size="14.00">X</text>
</a>
</g>
</g>
<!-- f378&#45;&gt;f1 -->
<g id="edge10" class="edge">
<title>f378&#45;&gt;f1</title>
<g id="a_edge10"><a xlink:title="Function ID=378 depends on function ID=1">
<path fill="none" stroke="black" d="M123.8,-77.75C148.57,-65.79 187.87,-46.82 215.08,-33.69"/>
<polygon fill="black" stroke="black" points="216.67,-36.81 224.15,-29.31 213.62,-30.5 216.67,-36.81"/>
</a>
</g>
</g>
<!-- function1 -->
<g id="node3" class="node">
<title>function1</title>
<g id="a_node3"><a xlink:href="inspected-f378-optimized-1.svg" xlink:title="1st derivative function &#10; contains 3 duplicate subfunctions &#10; contains 3 unique subfunctions &#10; (and is clickable)">
<path fill="red" stroke="red" d="M480.5,-256C480.5,-256 384.5,-256 384.5,-256 378.5,-256 372.5,-250 372.5,-244 372.5,-244 372.5,-230 372.5,-230 372.5,-224 378.5,-218 384.5,-218 384.5,-218 480.5,-218 480.5,-218 486.5,-218 492.5,-224 492.5,-230 492.5,-230 492.5,-244 492.5,-244 492.5,-250 486.5,-256 480.5,-256"/>
<text text-anchor="middle" x="432.5" y="-240.8" font-family="Times,serif" font-size="14.00">(X) ** (5.0) </text>
<text text-anchor="middle" x="432.5" y="-225.8" font-family="Times,serif" font-size="14.00"> 1st derivative</text>
</a>
</g>
</g>
<!-- f380 -->
<g id="node4" class="node">
<title>f380</title>
<g id="a_node4"><a xlink:title="Function ID=380 &#10; contains 2 duplicate subfunctions">
<ellipse fill="lightblue" stroke="lightblue" cx="418.5" cy="-163" rx="32.49" ry="18"/>
<text text-anchor="middle" x="418.5" y="-159.3" font-family="Times,serif" font-size="14.00">5.0 *</text>
</a>
</g>
</g>
<!-- function1&#45;&gt;f380 -->
<g id="edge2" class="edge">
<title>function1&#45;&gt;f380</title>
<path fill="none" stroke="black" d="M428.97,-217.83C427.38,-209.69 425.48,-199.91 423.74,-190.94"/>
<polygon fill="black" stroke="black" points="427.14,-190.07 421.79,-180.93 420.26,-191.41 427.14,-190.07"/>
</g>
<!-- f379 -->
<g id="node17" class="node">
<title>f379</title>
<g id="a_node17"><a xlink:title="Function ID=379 &#10; contains 1 duplicate subfunctions">
<ellipse fill="lightblue" stroke="lightblue" cx="398.5" cy="-90" rx="31.4" ry="18"/>
<text text-anchor="middle" x="398.5" y="-86.3" font-family="Times,serif" font-size="14.00"> ** 4</text>
</a>
</g>
</g>
<!-- f380&#45;&gt;f379 -->
<g id="edge20" class="edge">
<title>f380&#45;&gt;f379</title>
<g id="a_edge20"><a xlink:title="Function ID=380 depends on function ID=379">
<path fill="none" stroke="black" d="M413.76,-145.17C411.48,-137.07 408.68,-127.15 406.11,-118.03"/>
<polygon fill="black" stroke="black" points="409.42,-116.87 403.34,-108.2 402.69,-118.77 409.42,-116.87"/>
</a>
</g>
</g>
<!-- function2 -->
<g id="node5" class="node">
<title>function2</title>
<g id="a_node5"><a xlink:href="inspected-f378-optimized-2.svg" xlink:title="2nd derivative function &#10; contains 5 duplicate subfunctions &#10; contains 5 unique subfunctions &#10; (and is clickable)">
<path fill="red" stroke="red" d="M403,-546C403,-546 302,-546 302,-546 296,-546 290,-540 290,-534 290,-534 290,-520 290,-520 290,-514 296,-508 302,-508 302,-508 403,-508 403,-508 409,-508 415,-514 415,-520 415,-520 415,-534 415,-534 415,-540 409,-546 403,-546"/>
<text text-anchor="middle" x="352.5" y="-530.8" font-family="Times,serif" font-size="14.00">(X) ** (5.0) </text>
<text text-anchor="middle" x="352.5" y="-515.8" font-family="Times,serif" font-size="14.00"> 2nd derivative</text>
</a>
</g>
</g>
<!-- f1734 -->
<g id="node6" class="node">
<title>f1734</title>
<g id="a_node6"><a xlink:title="Function ID=1734 &#10; contains 4 duplicate subfunctions">
<ellipse fill="lightblue" stroke="lightblue" cx="350.5" cy="-454" rx="27" ry="18"/>
<text text-anchor="middle" x="350.5" y="-450.3" font-family="Times,serif" font-size="14.00">+</text>
</a>
</g>
</g>
<!-- function2&#45;&gt;f1734 -->
<g id="edge3" class="edge">
<title>function2&#45;&gt;f1734</title>
<path fill="none" stroke="black" d="M351.98,-507.72C351.77,-499.97 351.51,-490.79 351.27,-482.27"/>
<polygon fill="black" stroke="black" points="354.76,-481.9 350.98,-472 347.76,-482.1 354.76,-481.9"/>
</g>
<!-- f1733 -->
<g id="node10" class="node">
<title>f1733</title>
<g id="a_node10"><a xlink:title="Function ID=1733 &#10; contains 2 duplicate subfunctions">
<ellipse fill="lightblue" stroke="lightblue" cx="350.5" cy="-310" rx="38.19" ry="18"/>
<text text-anchor="middle" x="350.5" y="-306.3" font-family="Times,serif" font-size="14.00">20.0 *</text>
</a>
</g>
</g>
<!-- f1734&#45;&gt;f1733 -->
<g id="edge21" class="edge">
<title>f1734&#45;&gt;f1733</title>
<g id="a_edge21"><a xlink:title="Function ID=1734 depends on function ID=1733">
<path fill="none" stroke="black" d="M350.5,-435.87C350.5,-411.67 350.5,-367.21 350.5,-338.39"/>
<polygon fill="black" stroke="black" points="354,-338.19 350.5,-328.19 347,-338.19 354,-338.19"/>
</a>
</g>
</g>
<!-- f714 -->
<g id="node11" class="node">
<title>f714</title>
<g id="a_node11"><a xlink:title="Function ID=714 &#10; contains 0 duplicate subfunctions">
<ellipse fill="lightgreen" stroke="lightgreen" cx="293.5" cy="-382" rx="27" ry="18"/>
<text text-anchor="middle" x="293.5" y="-378.3" font-family="Times,serif" font-size="14.00">0.0</text>
</a>
</g>
</g>
<!-- f1734&#45;&gt;f714 -->
<g id="edge7" class="edge">
<title>f1734&#45;&gt;f714</title>
<g id="a_edge7"><a xlink:title="Function ID=1734 depends on function ID=714">
<path fill="none" stroke="black" d="M338.13,-437.81C330.59,-428.55 320.8,-416.52 312.31,-406.09"/>
<polygon fill="black" stroke="black" points="314.87,-403.7 305.84,-398.16 309.44,-408.12 314.87,-403.7"/>
</a>
</g>
</g>
<!-- function3 -->
<g id="node7" class="node">
<title>function3</title>
<g id="a_node7"><a xlink:href="inspected-f378-optimized-3.svg" xlink:title="3rd derivative function &#10; contains 13 duplicate subfunctions &#10; contains 11 unique subfunctions &#10; (and is clickable)">
<path fill="red" stroke="red" d="M259.5,-546C259.5,-546 161.5,-546 161.5,-546 155.5,-546 149.5,-540 149.5,-534 149.5,-534 149.5,-520 149.5,-520 149.5,-514 155.5,-508 161.5,-508 161.5,-508 259.5,-508 259.5,-508 265.5,-508 271.5,-514 271.5,-520 271.5,-520 271.5,-534 271.5,-534 271.5,-540 265.5,-546 259.5,-546"/>
<text text-anchor="middle" x="210.5" y="-530.8" font-family="Times,serif" font-size="14.00">(X) ** (5.0) </text>
<text text-anchor="middle" x="210.5" y="-515.8" font-family="Times,serif" font-size="14.00"> 3rd derivative</text>
</a>
</g>
</g>
<!-- f2395 -->
<g id="node8" class="node">
<title>f2395</title>
<g id="a_node8"><a xlink:title="Function ID=2395 &#10; contains 12 duplicate subfunctions">
<ellipse fill="lightblue" stroke="lightblue" cx="217.5" cy="-454" rx="27" ry="18"/>
<text text-anchor="middle" x="217.5" y="-450.3" font-family="Times,serif" font-size="14.00">+</text>
</a>
</g>
</g>
<!-- function3&#45;&gt;f2395 -->
<g id="edge4" class="edge">
<title>function3&#45;&gt;f2395</title>
<path fill="none" stroke="black" d="M212.3,-507.72C213.07,-499.89 213.99,-490.59 214.84,-481.99"/>
<polygon fill="black" stroke="black" points="218.33,-482.3 215.82,-472 211.36,-481.61 218.33,-482.3"/>
</g>
<!-- f2395&#45;&gt;f714 -->
<g id="edge11" class="edge">
<title>f2395&#45;&gt;f714</title>
<g id="a_edge11"><a xlink:title="Function ID=2395 depends on function ID=714">
<path fill="none" stroke="black" d="M232.88,-438.83C243.7,-428.87 258.36,-415.37 270.55,-404.14"/>
<polygon fill="black" stroke="black" points="273.16,-406.49 278.14,-397.14 268.42,-401.34 273.16,-406.49"/>
</a>
</g>
</g>
<!-- f2136 -->
<g id="node16" class="node">
<title>f2136</title>
<g id="a_node16"><a xlink:title="Function ID=2136 &#10; contains 10 duplicate subfunctions">
<ellipse fill="lightblue" stroke="lightblue" cx="217.5" cy="-382" rx="27" ry="18"/>
<text text-anchor="middle" x="217.5" y="-378.3" font-family="Times,serif" font-size="14.00">+</text>
</a>
</g>
</g>
<!-- f2395&#45;&gt;f2136 -->
<g id="edge16" class="edge">
<title>f2395&#45;&gt;f2136</title>
<g id="a_edge16"><a xlink:title="Function ID=2395 depends on function ID=2136">
<path fill="none" stroke="black" d="M217.5,-435.7C217.5,-427.98 217.5,-418.71 217.5,-410.11"/>
<polygon fill="black" stroke="black" points="221,-410.1 217.5,-400.1 214,-410.1 221,-410.1"/>
</a>
</g>
</g>
<!-- f383 -->
<g id="node19" class="node">
<title>f383</title>
<g id="a_node19"><a xlink:title="Function ID=383 &#10; contains 1 duplicate subfunctions">
<ellipse fill="lightblue" stroke="lightblue" cx="284.5" cy="-90" rx="31.4" ry="18"/>
<text text-anchor="middle" x="284.5" y="-86.3" font-family="Times,serif" font-size="14.00"> ** 3</text>
</a>
</g>
</g>
<!-- f1733&#45;&gt;f383 -->
<g id="edge15" class="edge">
<title>f1733&#45;&gt;f383</title>
<g id="a_edge15"><a xlink:title="Function ID=1733 depends on function ID=383">
<path fill="none" stroke="black" d="M350.69,-291.84C350.44,-260.98 347.16,-194.61 325.5,-144 320.8,-133.03 313.29,-122.34 305.96,-113.47"/>
<polygon fill="black" stroke="black" points="308.58,-111.14 299.38,-105.87 303.29,-115.72 308.58,-111.14"/>
</a>
</g>
</g>
<!-- f2124 -->
<g id="node12" class="node">
<title>f2124</title>
<g id="a_node12"><a xlink:title="Function ID=2124 &#10; contains 2 duplicate subfunctions">
<ellipse fill="lightblue" stroke="lightblue" cx="201.5" cy="-90" rx="27" ry="18"/>
<text text-anchor="middle" x="201.5" y="-86.3" font-family="Times,serif" font-size="14.00">*</text>
</a>
</g>
</g>
<!-- f2124&#45;&gt;f1 -->
<g id="edge13" class="edge">
<title>f2124&#45;&gt;f1</title>
<g id="a_edge13"><a xlink:title="Function ID=2124 depends on function ID=1">
<path fill="none" stroke="black" d="M211.48,-73.12C217,-64.34 223.96,-53.26 230.15,-43.42"/>
<polygon fill="black" stroke="black" points="233.2,-45.15 235.56,-34.82 227.27,-41.42 233.2,-45.15"/>
</a>
</g>
</g>
<!-- f2125 -->
<g id="node13" class="node">
<title>f2125</title>
<g id="a_node13"><a xlink:title="Function ID=2125 &#10; contains 3 duplicate subfunctions">
<ellipse fill="lightblue" stroke="lightblue" cx="195.5" cy="-163" rx="38.19" ry="18"/>
<text text-anchor="middle" x="195.5" y="-159.3" font-family="Times,serif" font-size="14.00">12.0 *</text>
</a>
</g>
</g>
<!-- f2125&#45;&gt;f2124 -->
<g id="edge19" class="edge">
<title>f2125&#45;&gt;f2124</title>
<g id="a_edge19"><a xlink:title="Function ID=2125 depends on function ID=2124">
<path fill="none" stroke="black" d="M196.95,-144.81C197.63,-136.79 198.45,-127.05 199.21,-118.07"/>
<polygon fill="black" stroke="black" points="202.71,-118.29 200.06,-108.03 195.73,-117.7 202.71,-118.29"/>
</a>
</g>
</g>
<!-- f2126 -->
<g id="node14" class="node">
<title>f2126</title>
<g id="a_node14"><a xlink:title="Function ID=2126 &#10; contains 7 duplicate subfunctions">
<ellipse fill="lightblue" stroke="lightblue" cx="195.5" cy="-237" rx="27" ry="18"/>
<text text-anchor="middle" x="195.5" y="-233.3" font-family="Times,serif" font-size="14.00">+</text>
</a>
</g>
</g>
<!-- f2126&#45;&gt;f2125 -->
<g id="edge18" class="edge">
<title>f2126&#45;&gt;f2125</title>
<g id="a_edge18"><a xlink:title="Function ID=2126 depends on function ID=2125">
<path fill="none" stroke="black" d="M195.5,-218.94C195.5,-210.81 195.5,-200.88 195.5,-191.7"/>
<polygon fill="black" stroke="black" points="199,-191.44 195.5,-181.44 192,-191.44 199,-191.44"/>
</a>
</g>
</g>
<!-- f1759 -->
<g id="node20" class="node">
<title>f1759</title>
<g id="a_node20"><a xlink:title="Function ID=1759 &#10; contains 2 duplicate subfunctions">
<ellipse fill="lightblue" stroke="lightblue" cx="284.5" cy="-163" rx="32.49" ry="18"/>
<text text-anchor="middle" x="284.5" y="-159.3" font-family="Times,serif" font-size="14.00">0.0 *</text>
</a>
</g>
</g>
<!-- f2126&#45;&gt;f1759 -->
<g id="edge12" class="edge">
<title>f2126&#45;&gt;f1759</title>
<g id="a_edge12"><a xlink:title="Function ID=2126 depends on function ID=1759">
<path fill="none" stroke="black" d="M212.24,-222.46C225.41,-211.8 243.98,-196.78 259,-184.63"/>
<polygon fill="black" stroke="black" points="261.35,-187.23 266.92,-178.22 256.95,-181.79 261.35,-187.23"/>
</a>
</g>
</g>
<!-- f2135 -->
<g id="node15" class="node">
<title>f2135</title>
<g id="a_node15"><a xlink:title="Function ID=2135 &#10; contains 8 duplicate subfunctions">
<ellipse fill="lightblue" stroke="lightblue" cx="190.5" cy="-310" rx="32.49" ry="18"/>
<text text-anchor="middle" x="190.5" y="-306.3" font-family="Times,serif" font-size="14.00">5.0 *</text>
</a>
</g>
</g>
<!-- f2135&#45;&gt;f2126 -->
<g id="edge14" class="edge">
<title>f2135&#45;&gt;f2126</title>
<g id="a_edge14"><a xlink:title="Function ID=2135 depends on function ID=2126">
<path fill="none" stroke="black" d="M191.71,-291.81C192.28,-283.79 192.96,-274.05 193.59,-265.07"/>
<polygon fill="black" stroke="black" points="197.09,-265.25 194.3,-255.03 190.11,-264.76 197.09,-265.25"/>
</a>
</g>
</g>
<!-- f2136&#45;&gt;f2135 -->
<g id="edge17" class="edge">
<title>f2136&#45;&gt;f2135</title>
<g id="a_edge17"><a xlink:title="Function ID=2136 depends on function ID=2135">
<path fill="none" stroke="black" d="M211.1,-364.41C207.99,-356.34 204.17,-346.43 200.67,-337.35"/>
<polygon fill="black" stroke="black" points="203.9,-336.03 197.04,-327.96 197.37,-338.55 203.9,-336.03"/>
</a>
</g>
</g>
<!-- f733 -->
<g id="node18" class="node">
<title>f733</title>
<g id="a_node18"><a xlink:title="Function ID=733 &#10; contains 0 duplicate subfunctions">
<ellipse fill="lightgreen" stroke="lightgreen" cx="267.5" cy="-310" rx="27" ry="18"/>
<text text-anchor="middle" x="267.5" y="-306.3" font-family="Times,serif" font-size="14.00">0.0</text>
</a>
</g>
</g>
<!-- f2136&#45;&gt;f733 -->
<g id="edge8" class="edge">
<title>f2136&#45;&gt;f733</title>
<g id="a_edge8"><a xlink:title="Function ID=2136 depends on function ID=733">
<path fill="none" stroke="black" d="M228.6,-365.46C235.01,-356.49 243.2,-345.02 250.42,-334.92"/>
<polygon fill="black" stroke="black" points="253.47,-336.66 256.43,-326.49 247.77,-332.59 253.47,-336.66"/>
</a>
</g>
</g>
<!-- f379&#45;&gt;f1 -->
<g id="edge9" class="edge">
<title>f379&#45;&gt;f1</title>
<g id="a_edge9"><a xlink:title="Function ID=379 depends on function ID=1">
<path fill="none" stroke="black" d="M374.59,-78.06C348.17,-65.97 305.51,-46.45 276.52,-33.19"/>
<polygon fill="black" stroke="black" points="277.81,-29.93 267.26,-28.95 274.9,-36.3 277.81,-29.93"/>
</a>
</g>
</g>
<!-- f383&#45;&gt;f1 -->
<g id="edge6" class="edge">
<title>f383&#45;&gt;f1</title>
<g id="a_edge6"><a xlink:title="Function ID=383 depends on function ID=1">
<path fill="none" stroke="black" d="M275.45,-72.76C270.68,-64.19 264.72,-53.49 259.37,-43.9"/>
<polygon fill="black" stroke="black" points="262.42,-42.18 254.5,-35.15 256.31,-45.59 262.42,-42.18"/>
</a>
</g>
</g>
<!-- f1759&#45;&gt;f383 -->
<g id="edge5" class="edge">
<title>f1759&#45;&gt;f383</title>
<g id="a_edge5"><a xlink:title="Function ID=1759 depends on function ID=383">
<path fill="none" stroke="black" d="M284.5,-144.81C284.5,-136.79 284.5,-127.05 284.5,-118.07"/>
<polygon fill="black" stroke="black" points="288,-118.03 284.5,-108.03 281,-118.03 288,-118.03"/>
</a>
</g>
</g>
</g>
</svg>
