<?xml version="1.0" encoding="UTF-8" standalone="no"?>
<!DOCTYPE svg PUBLIC "-//W3C//DTD SVG 1.1//EN"
 "http://www.w3.org/Graphics/SVG/1.1/DTD/svg11.dtd">
<!-- Generated by graphviz version 2.43.0 (0)
 -->
<!-- Title: %3 Pages: 1 -->
<svg width="480pt" height="554pt"
 viewBox="0.00 0.00 479.50 554.00" xmlns="http://www.w3.org/2000/svg" xmlns:xlink="http://www.w3.org/1999/xlink">
<g id="graph0" class="graph" transform="scale(1 1) rotate(0) translate(4 550)">
<title>%3</title>
<g id="a_graph0"><a xlink:title="Hey! Notice that red nodes are clickable and &#10; tooltips contain additional information!">
<polygon fill="white" stroke="transparent" points="-4,4 -4,-550 475.5,-550 475.5,4 -4,4"/>
</a>
</g>
<!-- function0 -->
<g id="node1" class="node">
<title>function0</title>
<g id="a_node1"><a xlink:href="inspected-f2593-optimized-0.svg" xlink:title="original function &#10; contains 2 duplicate subfunctions &#10; contains 2 unique subfunctions &#10; (and is clickable)">
<path fill="red" stroke="red" d="M127,-182C127,-182 12,-182 12,-182 6,-182 0,-176 0,-170 0,-170 0,-156 0,-156 0,-150 6,-144 12,-144 12,-144 127,-144 127,-144 133,-144 139,-150 139,-156 139,-156 139,-170 139,-170 139,-176 133,-182 127,-182"/>
<text text-anchor="middle" x="69.5" y="-166.8" font-family="Times,serif" font-size="14.00">(X) ** (5.0) </text>
<text text-anchor="middle" x="69.5" y="-151.8" font-family="Times,serif" font-size="14.00"> original function</text>
</a>
</g>
</g>
<!-- f2593 -->
<g id="node2" class="node">
<title>f2593</title>
<g id="a_node2"><a xlink:title="Function ID=2593 &#10; contains 1 duplicate subfunctions">
<ellipse fill="lightblue" stroke="lightblue" cx="89.5" cy="-90" rx="31.4" ry="18"/>
<text text-anchor="middle" x="89.5" y="-86.3" font-family="Times,serif" font-size="14.00"> ** 5</text>
</a>
</g>
</g>
<!-- function0&#45;&gt;f2593 -->
<g id="edge1" class="edge">
<title>function0&#45;&gt;f2593</title>
<path fill="none" stroke="black" d="M74.65,-143.72C76.88,-135.8 79.53,-126.38 81.98,-117.71"/>
<polygon fill="black" stroke="black" points="85.37,-118.58 84.71,-108 78.63,-116.68 85.37,-118.58"/>
</g>
<!-- f1 -->
<g id="node9" class="node">
<title>f1</title>
<g id="a_node9"><a xlink:title="Function ID=1 &#10; contains 0 duplicate subfunctions">
<ellipse fill="lightgreen" stroke="lightgreen" cx="229.5" cy="-18" rx="27" ry="18"/>
<text text-anchor="middle" x="229.5" y="-14.3" font-family="Times,serif" font-size="14.00">X</text>
</a>
</g>
</g>
<!-- f2593&#45;&gt;f1 -->
<g id="edge5" class="edge">
<title>f2593&#45;&gt;f1</title>
<g id="a_edge5"><a xlink:title="Function ID=2593 depends on function ID=1">
<path fill="none" stroke="black" d="M112.31,-77.6C136.04,-65.73 173.34,-47.08 199.46,-34.02"/>
<polygon fill="black" stroke="black" points="201.16,-37.08 208.54,-29.48 198.03,-30.82 201.16,-37.08"/>
</a>
</g>
</g>
<!-- function1 -->
<g id="node3" class="node">
<title>function1</title>
<g id="a_node3"><a xlink:href="inspected-f2593-optimized-1.svg" xlink:title="1st derivative function &#10; contains 3 duplicate subfunctions &#10; contains 3 unique subfunctions &#10; (and is clickable)">
<path fill="red" stroke="red" d="M219.5,-256C219.5,-256 123.5,-256 123.5,-256 117.5,-256 111.5,-250 111.5,-244 111.5,-244 111.5,-230 111.5,-230 111.5,-224 117.5,-218 123.5,-218 123.5,-218 219.5,-218 219.5,-218 225.5,-218 231.5,-224 231.5,-230 231.5,-230 231.5,-244 231.5,-244 231.5,-250 225.5,-256 219.5,-256"/>
<text text-anchor="middle" x="171.5" y="-240.8" font-family="Times,serif" font-size="14.00">(X) ** (5.0) </text>
<text text-anchor="middle" x="171.5" y="-225.8" font-family="Times,serif" font-size="14.00"> 1st derivative</text>
</a>
</g>
</g>
<!-- f2595 -->
<g id="node4" class="node">
<title>f2595</title>
<g id="a_node4"><a xlink:title="Function ID=2595 &#10; contains 2 duplicate subfunctions">
<ellipse fill="lightblue" stroke="lightblue" cx="189.5" cy="-163" rx="32.49" ry="18"/>
<text text-anchor="middle" x="189.5" y="-159.3" font-family="Times,serif" font-size="14.00">5.0 *</text>
</a>
</g>
</g>
<!-- function1&#45;&gt;f2595 -->
<g id="edge2" class="edge">
<title>function1&#45;&gt;f2595</title>
<path fill="none" stroke="black" d="M176.04,-217.83C178.1,-209.6 180.57,-199.7 182.84,-190.65"/>
<polygon fill="black" stroke="black" points="186.24,-191.48 185.27,-180.93 179.45,-189.78 186.24,-191.48"/>
</g>
<!-- f2594 -->
<g id="node10" class="node">
<title>f2594</title>
<g id="a_node10"><a xlink:title="Function ID=2594 &#10; contains 1 duplicate subfunctions">
<ellipse fill="lightblue" stroke="lightblue" cx="189.5" cy="-90" rx="31.4" ry="18"/>
<text text-anchor="middle" x="189.5" y="-86.3" font-family="Times,serif" font-size="14.00"> ** 4</text>
</a>
</g>
</g>
<!-- f2595&#45;&gt;f2594 -->
<g id="edge18" class="edge">
<title>f2595&#45;&gt;f2594</title>
<g id="a_edge18"><a xlink:title="Function ID=2595 depends on function ID=2594">
<path fill="none" stroke="black" d="M189.5,-144.81C189.5,-136.79 189.5,-127.05 189.5,-118.07"/>
<polygon fill="black" stroke="black" points="193,-118.03 189.5,-108.03 186,-118.03 193,-118.03"/>
</a>
</g>
</g>
<!-- function2 -->
<g id="node5" class="node">
<title>function2</title>
<g id="a_node5"><a xlink:href="inspected-f2593-optimized-2.svg" xlink:title="2nd derivative function &#10; contains 5 duplicate subfunctions &#10; contains 5 unique subfunctions &#10; (and is clickable)">
<path fill="red" stroke="red" d="M303,-546C303,-546 202,-546 202,-546 196,-546 190,-540 190,-534 190,-534 190,-520 190,-520 190,-514 196,-508 202,-508 202,-508 303,-508 303,-508 309,-508 315,-514 315,-520 315,-520 315,-534 315,-534 315,-540 309,-546 303,-546"/>
<text text-anchor="middle" x="252.5" y="-530.8" font-family="Times,serif" font-size="14.00">(X) ** (5.0) </text>
<text text-anchor="middle" x="252.5" y="-515.8" font-family="Times,serif" font-size="14.00"> 2nd derivative</text>
</a>
</g>
</g>
<!-- f6417 -->
<g id="node6" class="node">
<title>f6417</title>
<g id="a_node6"><a xlink:title="Function ID=6417 &#10; contains 4 duplicate subfunctions">
<ellipse fill="lightblue" stroke="lightblue" cx="259.5" cy="-454" rx="27" ry="18"/>
<text text-anchor="middle" x="259.5" y="-450.3" font-family="Times,serif" font-size="14.00">+</text>
</a>
</g>
</g>
<!-- function2&#45;&gt;f6417 -->
<g id="edge3" class="edge">
<title>function2&#45;&gt;f6417</title>
<path fill="none" stroke="black" d="M254.3,-507.72C255.07,-499.89 255.99,-490.59 256.84,-481.99"/>
<polygon fill="black" stroke="black" points="260.33,-482.3 257.82,-472 253.36,-481.61 260.33,-482.3"/>
</g>
<!-- f6416 -->
<g id="node16" class="node">
<title>f6416</title>
<g id="a_node16"><a xlink:title="Function ID=6416 &#10; contains 2 duplicate subfunctions">
<ellipse fill="lightblue" stroke="lightblue" cx="259.5" cy="-310" rx="38.19" ry="18"/>
<text text-anchor="middle" x="259.5" y="-306.3" font-family="Times,serif" font-size="14.00">20.0 *</text>
</a>
</g>
</g>
<!-- f6417&#45;&gt;f6416 -->
<g id="edge14" class="edge">
<title>f6417&#45;&gt;f6416</title>
<g id="a_edge14"><a xlink:title="Function ID=6417 depends on function ID=6416">
<path fill="none" stroke="black" d="M259.5,-435.87C259.5,-411.67 259.5,-367.21 259.5,-338.39"/>
<polygon fill="black" stroke="black" points="263,-338.19 259.5,-328.19 256,-338.19 263,-338.19"/>
</a>
</g>
</g>
<!-- f3703 -->
<g id="node17" class="node">
<title>f3703</title>
<g id="a_node17"><a xlink:title="Function ID=3703 &#10; contains 0 duplicate subfunctions">
<ellipse fill="lightgreen" stroke="lightgreen" cx="318.5" cy="-382" rx="27" ry="18"/>
<text text-anchor="middle" x="318.5" y="-378.3" font-family="Times,serif" font-size="14.00">0.0</text>
</a>
</g>
</g>
<!-- f6417&#45;&gt;f3703 -->
<g id="edge7" class="edge">
<title>f6417&#45;&gt;f3703</title>
<g id="a_edge7"><a xlink:title="Function ID=6417 depends on function ID=3703">
<path fill="none" stroke="black" d="M272.3,-437.81C280.11,-428.55 290.25,-416.52 299.03,-406.09"/>
<polygon fill="black" stroke="black" points="301.95,-408.06 305.72,-398.16 296.6,-403.55 301.95,-408.06"/>
</a>
</g>
</g>
<!-- function3 -->
<g id="node7" class="node">
<title>function3</title>
<g id="a_node7"><a xlink:href="inspected-f2593-optimized-3.svg" xlink:title="3rd derivative function &#10; contains 13 duplicate subfunctions &#10; contains 11 unique subfunctions &#10; (and is clickable)">
<path fill="red" stroke="red" d="M443.5,-546C443.5,-546 345.5,-546 345.5,-546 339.5,-546 333.5,-540 333.5,-534 333.5,-534 333.5,-520 333.5,-520 333.5,-514 339.5,-508 345.5,-508 345.5,-508 443.5,-508 443.5,-508 449.5,-508 455.5,-514 455.5,-520 455.5,-520 455.5,-534 455.5,-534 455.5,-540 449.5,-546 443.5,-546"/>
<text text-anchor="middle" x="394.5" y="-530.8" font-family="Times,serif" font-size="14.00">(X) ** (5.0) </text>
<text text-anchor="middle" x="394.5" y="-515.8" font-family="Times,serif" font-size="14.00"> 3rd derivative</text>
</a>
</g>
</g>
<!-- f7078 -->
<g id="node8" class="node">
<title>f7078</title>
<g id="a_node8"><a xlink:title="Function ID=7078 &#10; contains 12 duplicate subfunctions">
<ellipse fill="lightblue" stroke="lightblue" cx="392.5" cy="-454" rx="27" ry="18"/>
<text text-anchor="middle" x="392.5" y="-450.3" font-family="Times,serif" font-size="14.00">+</text>
</a>
</g>
</g>
<!-- function3&#45;&gt;f7078 -->
<g id="edge4" class="edge">
<title>function3&#45;&gt;f7078</title>
<path fill="none" stroke="black" d="M393.98,-507.72C393.77,-499.97 393.51,-490.79 393.27,-482.27"/>
<polygon fill="black" stroke="black" points="396.76,-481.9 392.98,-472 389.76,-482.1 396.76,-481.9"/>
</g>
<!-- f6819 -->
<g id="node12" class="node">
<title>f6819</title>
<g id="a_node12"><a xlink:title="Function ID=6819 &#10; contains 10 duplicate subfunctions">
<ellipse fill="lightblue" stroke="lightblue" cx="392.5" cy="-382" rx="27" ry="18"/>
<text text-anchor="middle" x="392.5" y="-378.3" font-family="Times,serif" font-size="14.00">+</text>
</a>
</g>
</g>
<!-- f7078&#45;&gt;f6819 -->
<g id="edge20" class="edge">
<title>f7078&#45;&gt;f6819</title>
<g id="a_edge20"><a xlink:title="Function ID=7078 depends on function ID=6819">
<path fill="none" stroke="black" d="M392.5,-435.7C392.5,-427.98 392.5,-418.71 392.5,-410.11"/>
<polygon fill="black" stroke="black" points="396,-410.1 392.5,-400.1 389,-410.1 396,-410.1"/>
</a>
</g>
</g>
<!-- f7078&#45;&gt;f3703 -->
<g id="edge10" class="edge">
<title>f7078&#45;&gt;f3703</title>
<g id="a_edge10"><a xlink:title="Function ID=7078 depends on function ID=3703">
<path fill="none" stroke="black" d="M377.52,-438.83C366.99,-428.87 352.72,-415.37 340.84,-404.14"/>
<polygon fill="black" stroke="black" points="343.12,-401.47 333.45,-397.14 338.31,-406.56 343.12,-401.47"/>
</a>
</g>
</g>
<!-- f2594&#45;&gt;f1 -->
<g id="edge19" class="edge">
<title>f2594&#45;&gt;f1</title>
<g id="a_edge19"><a xlink:title="Function ID=2594 depends on function ID=1">
<path fill="none" stroke="black" d="M198.78,-72.76C203.67,-64.19 209.79,-53.49 215.27,-43.9"/>
<polygon fill="black" stroke="black" points="218.35,-45.57 220.27,-35.15 212.27,-42.09 218.35,-45.57"/>
</a>
</g>
</g>
<!-- f6818 -->
<g id="node11" class="node">
<title>f6818</title>
<g id="a_node11"><a xlink:title="Function ID=6818 &#10; contains 8 duplicate subfunctions">
<ellipse fill="lightblue" stroke="lightblue" cx="367.5" cy="-310" rx="32.49" ry="18"/>
<text text-anchor="middle" x="367.5" y="-306.3" font-family="Times,serif" font-size="14.00">5.0 *</text>
</a>
</g>
</g>
<!-- f6809 -->
<g id="node20" class="node">
<title>f6809</title>
<g id="a_node20"><a xlink:title="Function ID=6809 &#10; contains 7 duplicate subfunctions">
<ellipse fill="lightblue" stroke="lightblue" cx="367.5" cy="-237" rx="27" ry="18"/>
<text text-anchor="middle" x="367.5" y="-233.3" font-family="Times,serif" font-size="14.00">+</text>
</a>
</g>
</g>
<!-- f6818&#45;&gt;f6809 -->
<g id="edge11" class="edge">
<title>f6818&#45;&gt;f6809</title>
<g id="a_edge11"><a xlink:title="Function ID=6818 depends on function ID=6809">
<path fill="none" stroke="black" d="M367.5,-291.81C367.5,-283.79 367.5,-274.05 367.5,-265.07"/>
<polygon fill="black" stroke="black" points="371,-265.03 367.5,-255.03 364,-265.03 371,-265.03"/>
</a>
</g>
</g>
<!-- f6819&#45;&gt;f6818 -->
<g id="edge15" class="edge">
<title>f6819&#45;&gt;f6818</title>
<g id="a_edge15"><a xlink:title="Function ID=6819 depends on function ID=6818">
<path fill="none" stroke="black" d="M386.58,-364.41C383.72,-356.42 380.23,-346.64 377.02,-337.64"/>
<polygon fill="black" stroke="black" points="380.22,-336.2 373.56,-327.96 373.62,-338.55 380.22,-336.2"/>
</a>
</g>
</g>
<!-- f3722 -->
<g id="node15" class="node">
<title>f3722</title>
<g id="a_node15"><a xlink:title="Function ID=3722 &#10; contains 0 duplicate subfunctions">
<ellipse fill="lightgreen" stroke="lightgreen" cx="444.5" cy="-310" rx="27" ry="18"/>
<text text-anchor="middle" x="444.5" y="-306.3" font-family="Times,serif" font-size="14.00">0.0</text>
</a>
</g>
</g>
<!-- f6819&#45;&gt;f3722 -->
<g id="edge6" class="edge">
<title>f6819&#45;&gt;f3722</title>
<g id="a_edge6"><a xlink:title="Function ID=6819 depends on function ID=3722">
<path fill="none" stroke="black" d="M404.04,-365.46C410.77,-356.4 419.4,-344.79 426.96,-334.61"/>
<polygon fill="black" stroke="black" points="429.84,-336.61 432.99,-326.49 424.22,-332.43 429.84,-336.61"/>
</a>
</g>
</g>
<!-- f2598 -->
<g id="node13" class="node">
<title>f2598</title>
<g id="a_node13"><a xlink:title="Function ID=2598 &#10; contains 1 duplicate subfunctions">
<ellipse fill="lightblue" stroke="lightblue" cx="269.5" cy="-90" rx="31.4" ry="18"/>
<text text-anchor="middle" x="269.5" y="-86.3" font-family="Times,serif" font-size="14.00"> ** 3</text>
</a>
</g>
</g>
<!-- f2598&#45;&gt;f1 -->
<g id="edge13" class="edge">
<title>f2598&#45;&gt;f1</title>
<g id="a_edge13"><a xlink:title="Function ID=2598 depends on function ID=1">
<path fill="none" stroke="black" d="M260.22,-72.76C255.33,-64.19 249.21,-53.49 243.73,-43.9"/>
<polygon fill="black" stroke="black" points="246.73,-42.09 238.73,-35.15 240.65,-45.57 246.73,-42.09"/>
</a>
</g>
</g>
<!-- f6442 -->
<g id="node14" class="node">
<title>f6442</title>
<g id="a_node14"><a xlink:title="Function ID=6442 &#10; contains 2 duplicate subfunctions">
<ellipse fill="lightblue" stroke="lightblue" cx="319.5" cy="-163" rx="32.49" ry="18"/>
<text text-anchor="middle" x="319.5" y="-159.3" font-family="Times,serif" font-size="14.00">0.0 *</text>
</a>
</g>
</g>
<!-- f6442&#45;&gt;f2598 -->
<g id="edge21" class="edge">
<title>f6442&#45;&gt;f2598</title>
<g id="a_edge21"><a xlink:title="Function ID=6442 depends on function ID=2598">
<path fill="none" stroke="black" d="M308.15,-145.89C301.83,-136.9 293.81,-125.52 286.73,-115.46"/>
<polygon fill="black" stroke="black" points="289.42,-113.21 280.8,-107.05 283.7,-117.24 289.42,-113.21"/>
</a>
</g>
</g>
<!-- f6416&#45;&gt;f2598 -->
<g id="edge12" class="edge">
<title>f6416&#45;&gt;f2598</title>
<g id="a_edge12"><a xlink:title="Function ID=6416 depends on function ID=2598">
<path fill="none" stroke="black" d="M260.28,-291.89C262.02,-254.17 266.17,-163.56 268.26,-118.05"/>
<polygon fill="black" stroke="black" points="271.76,-118.18 268.72,-108.03 264.76,-117.86 271.76,-118.18"/>
</a>
</g>
</g>
<!-- f6807 -->
<g id="node18" class="node">
<title>f6807</title>
<g id="a_node18"><a xlink:title="Function ID=6807 &#10; contains 2 duplicate subfunctions">
<ellipse fill="lightblue" stroke="lightblue" cx="381.5" cy="-90" rx="27" ry="18"/>
<text text-anchor="middle" x="381.5" y="-86.3" font-family="Times,serif" font-size="14.00">*</text>
</a>
</g>
</g>
<!-- f6807&#45;&gt;f1 -->
<g id="edge8" class="edge">
<title>f6807&#45;&gt;f1</title>
<g id="a_edge8"><a xlink:title="Function ID=6807 depends on function ID=1">
<path fill="none" stroke="black" d="M359.72,-78.97C333.76,-67.02 290.19,-46.95 260.67,-33.35"/>
<polygon fill="black" stroke="black" points="261.78,-30.01 251.24,-29.01 258.86,-36.37 261.78,-30.01"/>
</a>
</g>
</g>
<!-- f6808 -->
<g id="node19" class="node">
<title>f6808</title>
<g id="a_node19"><a xlink:title="Function ID=6808 &#10; contains 3 duplicate subfunctions">
<ellipse fill="lightblue" stroke="lightblue" cx="408.5" cy="-163" rx="38.19" ry="18"/>
<text text-anchor="middle" x="408.5" y="-159.3" font-family="Times,serif" font-size="14.00">12.0 *</text>
</a>
</g>
</g>
<!-- f6808&#45;&gt;f6807 -->
<g id="edge17" class="edge">
<title>f6808&#45;&gt;f6807</title>
<g id="a_edge17"><a xlink:title="Function ID=6808 depends on function ID=6807">
<path fill="none" stroke="black" d="M402.1,-145.17C398.94,-136.86 395.05,-126.64 391.51,-117.33"/>
<polygon fill="black" stroke="black" points="394.68,-115.81 387.85,-107.71 388.14,-118.3 394.68,-115.81"/>
</a>
</g>
</g>
<!-- f6809&#45;&gt;f6442 -->
<g id="edge9" class="edge">
<title>f6809&#45;&gt;f6442</title>
<g id="a_edge9"><a xlink:title="Function ID=6809 depends on function ID=6442">
<path fill="none" stroke="black" d="M357.08,-220.38C350.88,-211.07 342.87,-199.06 335.84,-188.51"/>
<polygon fill="black" stroke="black" points="338.69,-186.47 330.23,-180.09 332.86,-190.35 338.69,-186.47"/>
</a>
</g>
</g>
<!-- f6809&#45;&gt;f6808 -->
<g id="edge16" class="edge">
<title>f6809&#45;&gt;f6808</title>
<g id="a_edge16"><a xlink:title="Function ID=6809 depends on function ID=6808">
<path fill="none" stroke="black" d="M376.6,-220.02C381.69,-211.08 388.16,-199.71 393.94,-189.56"/>
<polygon fill="black" stroke="black" points="397.09,-191.11 399,-180.69 391.01,-187.64 397.09,-191.11"/>
</a>
</g>
</g>
</g>
</svg>
