<?xml version="1.0" encoding="UTF-8" standalone="no"?>
<!DOCTYPE svg PUBLIC "-//W3C//DTD SVG 1.1//EN"
 "http://www.w3.org/Graphics/SVG/1.1/DTD/svg11.dtd">
<!-- Generated by graphviz version 2.43.0 (0)
 -->
<!-- Title: %3 Pages: 1 -->
<svg width="607pt" height="844pt"
 viewBox="0.00 0.00 607.50 844.00" xmlns="http://www.w3.org/2000/svg" xmlns:xlink="http://www.w3.org/1999/xlink">
<g id="graph0" class="graph" transform="scale(1 1) rotate(0) translate(4 840)">
<title>%3</title>
<g id="a_graph0"><a xlink:title="Hey! Notice that red nodes are clickable and &#10; tooltips contain additional information!">
<polygon fill="white" stroke="transparent" points="-4,4 -4,-840 603.5,-840 603.5,4 -4,4"/>
</a>
</g>
<!-- function0 -->
<g id="node1" class="node">
<title>function0</title>
<g id="a_node1"><a xlink:href="inspected-f378-graph-0.svg" xlink:title="original function &#10; contains 2 duplicate subfunctions &#10; contains 2 unique subfunctions &#10; (and is clickable)">
<path fill="red" stroke="red" d="M159,-182C159,-182 44,-182 44,-182 38,-182 32,-176 32,-170 32,-170 32,-156 32,-156 32,-150 38,-144 44,-144 44,-144 159,-144 159,-144 165,-144 171,-150 171,-156 171,-156 171,-170 171,-170 171,-176 165,-182 159,-182"/>
<text text-anchor="middle" x="101.5" y="-166.8" font-family="Times,serif" font-size="14.00">(X) ** (5.0) </text>
<text text-anchor="middle" x="101.5" y="-151.8" font-family="Times,serif" font-size="14.00"> original function</text>
</a>
</g>
</g>
<!-- f378 -->
<g id="node2" class="node">
<title>f378</title>
<g id="a_node2"><a xlink:title="Function ID=378 &#10; contains 1 duplicate subfunctions">
<ellipse fill="lightblue" stroke="lightblue" cx="110.5" cy="-90" rx="31.4" ry="18"/>
<text text-anchor="middle" x="110.5" y="-86.3" font-family="Times,serif" font-size="14.00"> ** 5</text>
</a>
</g>
</g>
<!-- function0&#45;&gt;f378 -->
<g id="edge1" class="edge">
<title>function0&#45;&gt;f378</title>
<path fill="none" stroke="black" d="M103.81,-143.72C104.81,-135.89 105.99,-126.59 107.08,-117.99"/>
<polygon fill="black" stroke="black" points="110.56,-118.36 108.34,-108 103.61,-117.48 110.56,-118.36"/>
</g>
<!-- f1 -->
<g id="node10" class="node">
<title>f1</title>
<g id="a_node10"><a xlink:title="Function ID=1 &#10; contains 0 duplicate subfunctions">
<ellipse fill="lightgreen" stroke="lightgreen" cx="258.5" cy="-18" rx="27" ry="18"/>
<text text-anchor="middle" x="258.5" y="-14.3" font-family="Times,serif" font-size="14.00">X</text>
</a>
</g>
</g>
<!-- f378&#45;&gt;f1 -->
<g id="edge5" class="edge">
<title>f378&#45;&gt;f1</title>
<g id="a_edge5"><a xlink:title="Function ID=378 depends on function ID=1">
<path fill="none" stroke="black" d="M133.95,-77.91C159.32,-65.91 199.88,-46.72 227.78,-33.53"/>
<polygon fill="black" stroke="black" points="229.53,-36.57 237.08,-29.13 226.54,-30.24 229.53,-36.57"/>
</a>
</g>
</g>
<!-- function1 -->
<g id="node3" class="node">
<title>function1</title>
<g id="a_node3"><a xlink:href="inspected-f378-graph-1.svg" xlink:title="1st derivative function &#10; contains 5 duplicate subfunctions &#10; contains 5 unique subfunctions &#10; (and is clickable)">
<path fill="red" stroke="red" d="M335.5,-688C335.5,-688 239.5,-688 239.5,-688 233.5,-688 227.5,-682 227.5,-676 227.5,-676 227.5,-662 227.5,-662 227.5,-656 233.5,-650 239.5,-650 239.5,-650 335.5,-650 335.5,-650 341.5,-650 347.5,-656 347.5,-662 347.5,-662 347.5,-676 347.5,-676 347.5,-682 341.5,-688 335.5,-688"/>
<text text-anchor="middle" x="287.5" y="-672.8" font-family="Times,serif" font-size="14.00">(X) ** (5.0) </text>
<text text-anchor="middle" x="287.5" y="-657.8" font-family="Times,serif" font-size="14.00"> 1st derivative</text>
</a>
</g>
</g>
<!-- f382 -->
<g id="node4" class="node">
<title>f382</title>
<g id="a_node4"><a xlink:title="Function ID=382 &#10; contains 4 duplicate subfunctions">
<ellipse fill="lightblue" stroke="lightblue" cx="268.5" cy="-596" rx="27" ry="18"/>
<text text-anchor="middle" x="268.5" y="-592.3" font-family="Times,serif" font-size="14.00">*</text>
</a>
</g>
</g>
<!-- function1&#45;&gt;f382 -->
<g id="edge2" class="edge">
<title>function1&#45;&gt;f382</title>
<path fill="none" stroke="black" d="M282.6,-649.72C280.49,-641.8 277.97,-632.38 275.64,-623.71"/>
<polygon fill="black" stroke="black" points="279.01,-622.76 273.05,-614 272.25,-624.57 279.01,-622.76"/>
</g>
<!-- f380 -->
<g id="node41" class="node">
<title>f380</title>
<g id="a_node41"><a xlink:title="Function ID=380 &#10; contains 2 duplicate subfunctions">
<ellipse fill="lightblue" stroke="lightblue" cx="258.5" cy="-524" rx="32.49" ry="18"/>
<text text-anchor="middle" x="258.5" y="-520.3" font-family="Times,serif" font-size="14.00">5.0 *</text>
</a>
</g>
</g>
<!-- f382&#45;&gt;f380 -->
<g id="edge37" class="edge">
<title>f382&#45;&gt;f380</title>
<g id="a_edge37"><a xlink:title="Function ID=382 depends on function ID=380">
<path fill="none" stroke="black" d="M266.08,-578.05C264.98,-570.35 263.64,-561.03 262.41,-552.36"/>
<polygon fill="black" stroke="black" points="265.84,-551.68 260.97,-542.28 258.91,-552.67 265.84,-551.68"/>
</a>
</g>
</g>
<!-- f381 -->
<g id="node42" class="node">
<title>f381</title>
<g id="a_node42"><a xlink:title="Function ID=381 &#10; contains 0 duplicate subfunctions">
<ellipse fill="lightgreen" stroke="lightgreen" cx="335.5" cy="-524" rx="27" ry="18"/>
<text text-anchor="middle" x="335.5" y="-520.3" font-family="Times,serif" font-size="14.00">1.0</text>
</a>
</g>
</g>
<!-- f382&#45;&gt;f381 -->
<g id="edge41" class="edge">
<title>f382&#45;&gt;f381</title>
<g id="a_edge41"><a xlink:title="Function ID=382 depends on function ID=381">
<path fill="none" stroke="black" d="M282.38,-580.5C291.63,-570.83 303.97,-557.94 314.42,-547.02"/>
<polygon fill="black" stroke="black" points="317.25,-549.13 321.63,-539.49 312.19,-544.29 317.25,-549.13"/>
</a>
</g>
</g>
<!-- function2 -->
<g id="node5" class="node">
<title>function2</title>
<g id="a_node5"><a xlink:href="inspected-f378-graph-2.svg" xlink:title="2nd derivative function &#10; contains 14 duplicate subfunctions &#10; contains 13 unique subfunctions &#10; (and is clickable)">
<path fill="red" stroke="red" d="M233,-762C233,-762 132,-762 132,-762 126,-762 120,-756 120,-750 120,-750 120,-736 120,-736 120,-730 126,-724 132,-724 132,-724 233,-724 233,-724 239,-724 245,-730 245,-736 245,-736 245,-750 245,-750 245,-756 239,-762 233,-762"/>
<text text-anchor="middle" x="182.5" y="-746.8" font-family="Times,serif" font-size="14.00">(X) ** (5.0) </text>
<text text-anchor="middle" x="182.5" y="-731.8" font-family="Times,serif" font-size="14.00"> 2nd derivative</text>
</a>
</g>
</g>
<!-- f391 -->
<g id="node6" class="node">
<title>f391</title>
<g id="a_node6"><a xlink:title="Function ID=391 &#10; contains 13 duplicate subfunctions">
<ellipse fill="lightblue" stroke="lightblue" cx="182.5" cy="-669" rx="27" ry="18"/>
<text text-anchor="middle" x="182.5" y="-665.3" font-family="Times,serif" font-size="14.00">+</text>
</a>
</g>
</g>
<!-- function2&#45;&gt;f391 -->
<g id="edge3" class="edge">
<title>function2&#45;&gt;f391</title>
<path fill="none" stroke="black" d="M182.5,-723.83C182.5,-715.89 182.5,-706.41 182.5,-697.63"/>
<polygon fill="black" stroke="black" points="186,-697.42 182.5,-687.42 179,-697.42 186,-697.42"/>
</g>
<!-- f388 -->
<g id="node14" class="node">
<title>f388</title>
<g id="a_node14"><a xlink:title="Function ID=388 &#10; contains 7 duplicate subfunctions">
<ellipse fill="lightblue" stroke="lightblue" cx="340.5" cy="-596" rx="27" ry="18"/>
<text text-anchor="middle" x="340.5" y="-592.3" font-family="Times,serif" font-size="14.00">*</text>
</a>
</g>
</g>
<!-- f391&#45;&gt;f388 -->
<g id="edge10" class="edge">
<title>f391&#45;&gt;f388</title>
<g id="a_edge10"><a xlink:title="Function ID=391 depends on function ID=388">
<path fill="none" stroke="black" d="M203.32,-657.29C208.27,-654.83 213.54,-652.27 218.5,-650 256.16,-632.72 266.64,-630.85 304.5,-614 306.3,-613.2 308.14,-612.37 310,-611.52"/>
<polygon fill="black" stroke="black" points="311.65,-614.61 319.25,-607.23 308.71,-608.26 311.65,-614.61"/>
</a>
</g>
</g>
<!-- f390 -->
<g id="node16" class="node">
<title>f390</title>
<g id="a_node16"><a xlink:title="Function ID=390 &#10; contains 4 duplicate subfunctions">
<ellipse fill="lightblue" stroke="lightblue" cx="124.5" cy="-596" rx="27" ry="18"/>
<text text-anchor="middle" x="124.5" y="-592.3" font-family="Times,serif" font-size="14.00">*</text>
</a>
</g>
</g>
<!-- f391&#45;&gt;f390 -->
<g id="edge16" class="edge">
<title>f391&#45;&gt;f390</title>
<g id="a_edge16"><a xlink:title="Function ID=391 depends on function ID=390">
<path fill="none" stroke="black" d="M170.2,-652.94C162.35,-643.34 152.04,-630.71 143.19,-619.89"/>
<polygon fill="black" stroke="black" points="145.82,-617.57 136.78,-612.04 140.4,-621.99 145.82,-617.57"/>
</a>
</g>
</g>
<!-- function3 -->
<g id="node7" class="node">
<title>function3</title>
<g id="a_node7"><a xlink:href="inspected-f378-graph-3.svg" xlink:title="3rd derivative function &#10; contains 41 duplicate subfunctions &#10; contains 34 unique subfunctions &#10; (and is clickable)">
<path fill="red" stroke="red" d="M409.5,-836C409.5,-836 311.5,-836 311.5,-836 305.5,-836 299.5,-830 299.5,-824 299.5,-824 299.5,-810 299.5,-810 299.5,-804 305.5,-798 311.5,-798 311.5,-798 409.5,-798 409.5,-798 415.5,-798 421.5,-804 421.5,-810 421.5,-810 421.5,-824 421.5,-824 421.5,-830 415.5,-836 409.5,-836"/>
<text text-anchor="middle" x="360.5" y="-820.8" font-family="Times,serif" font-size="14.00">(X) ** (5.0) </text>
<text text-anchor="middle" x="360.5" y="-805.8" font-family="Times,serif" font-size="14.00"> 3rd derivative</text>
</a>
</g>
</g>
<!-- f415 -->
<g id="node8" class="node">
<title>f415</title>
<g id="a_node8"><a xlink:title="Function ID=415 &#10; contains 40 duplicate subfunctions">
<ellipse fill="lightblue" stroke="lightblue" cx="360.5" cy="-743" rx="27" ry="18"/>
<text text-anchor="middle" x="360.5" y="-739.3" font-family="Times,serif" font-size="14.00">+</text>
</a>
</g>
</g>
<!-- function3&#45;&gt;f415 -->
<g id="edge4" class="edge">
<title>function3&#45;&gt;f415</title>
<path fill="none" stroke="black" d="M360.5,-797.83C360.5,-789.89 360.5,-780.41 360.5,-771.63"/>
<polygon fill="black" stroke="black" points="364,-771.42 360.5,-761.42 357,-771.42 364,-771.42"/>
</g>
<!-- f405 -->
<g id="node30" class="node">
<title>f405</title>
<g id="a_node30"><a xlink:title="Function ID=405 &#10; contains 25 duplicate subfunctions">
<ellipse fill="lightblue" stroke="lightblue" cx="412.5" cy="-669" rx="27" ry="18"/>
<text text-anchor="middle" x="412.5" y="-665.3" font-family="Times,serif" font-size="14.00">+</text>
</a>
</g>
</g>
<!-- f415&#45;&gt;f405 -->
<g id="edge9" class="edge">
<title>f415&#45;&gt;f405</title>
<g id="a_edge9"><a xlink:title="Function ID=415 depends on function ID=405">
<path fill="none" stroke="black" d="M371.78,-726.38C378.66,-716.85 387.6,-704.48 395.34,-693.75"/>
<polygon fill="black" stroke="black" points="398.22,-695.75 401.24,-685.59 392.54,-691.65 398.22,-695.75"/>
</a>
</g>
</g>
<!-- f414 -->
<g id="node39" class="node">
<title>f414</title>
<g id="a_node39"><a xlink:title="Function ID=414 &#10; contains 13 duplicate subfunctions">
<ellipse fill="lightblue" stroke="lightblue" cx="110.5" cy="-669" rx="27" ry="18"/>
<text text-anchor="middle" x="110.5" y="-665.3" font-family="Times,serif" font-size="14.00">+</text>
</a>
</g>
</g>
<!-- f415&#45;&gt;f414 -->
<g id="edge24" class="edge">
<title>f415&#45;&gt;f414</title>
<g id="a_edge24"><a xlink:title="Function ID=415 depends on function ID=414">
<path fill="none" stroke="black" d="M334.59,-737.35C293.79,-729.6 212.42,-712.47 146.5,-688 144.37,-687.21 142.2,-686.33 140.04,-685.4"/>
<polygon fill="black" stroke="black" points="141.26,-682.11 130.72,-681.07 138.31,-688.45 141.26,-682.11"/>
</a>
</g>
</g>
<!-- f384 -->
<g id="node9" class="node">
<title>f384</title>
<g id="a_node9"><a xlink:title="Function ID=384 &#10; contains 2 duplicate subfunctions">
<ellipse fill="lightblue" stroke="lightblue" cx="488.5" cy="-308" rx="32.49" ry="18"/>
<text text-anchor="middle" x="488.5" y="-304.3" font-family="Times,serif" font-size="14.00">4.0 *</text>
</a>
</g>
</g>
<!-- f383 -->
<g id="node43" class="node">
<title>f383</title>
<g id="a_node43"><a xlink:title="Function ID=383 &#10; contains 1 duplicate subfunctions">
<ellipse fill="lightblue" stroke="lightblue" cx="478.5" cy="-236" rx="31.4" ry="18"/>
<text text-anchor="middle" x="478.5" y="-232.3" font-family="Times,serif" font-size="14.00"> ** 3</text>
</a>
</g>
</g>
<!-- f384&#45;&gt;f383 -->
<g id="edge43" class="edge">
<title>f384&#45;&gt;f383</title>
<g id="a_edge43"><a xlink:title="Function ID=384 depends on function ID=383">
<path fill="none" stroke="black" d="M486.03,-289.7C484.92,-281.98 483.6,-272.71 482.37,-264.11"/>
<polygon fill="black" stroke="black" points="485.82,-263.51 480.94,-254.1 478.89,-264.5 485.82,-263.51"/>
</a>
</g>
</g>
<!-- f385 -->
<g id="node11" class="node">
<title>f385</title>
<g id="a_node11"><a xlink:title="Function ID=385 &#10; contains 0 duplicate subfunctions">
<ellipse fill="lightgreen" stroke="lightgreen" cx="411.5" cy="-308" rx="27" ry="18"/>
<text text-anchor="middle" x="411.5" y="-304.3" font-family="Times,serif" font-size="14.00">1.0</text>
</a>
</g>
</g>
<!-- f386 -->
<g id="node12" class="node">
<title>f386</title>
<g id="a_node12"><a xlink:title="Function ID=386 &#10; contains 4 duplicate subfunctions">
<ellipse fill="lightblue" stroke="lightblue" cx="485.5" cy="-380" rx="27" ry="18"/>
<text text-anchor="middle" x="485.5" y="-376.3" font-family="Times,serif" font-size="14.00">*</text>
</a>
</g>
</g>
<!-- f386&#45;&gt;f384 -->
<g id="edge38" class="edge">
<title>f386&#45;&gt;f384</title>
<g id="a_edge38"><a xlink:title="Function ID=386 depends on function ID=384">
<path fill="none" stroke="black" d="M486.24,-361.7C486.57,-353.98 486.97,-344.71 487.34,-336.11"/>
<polygon fill="black" stroke="black" points="490.83,-336.25 487.76,-326.1 483.84,-335.95 490.83,-336.25"/>
</a>
</g>
</g>
<!-- f386&#45;&gt;f385 -->
<g id="edge39" class="edge">
<title>f386&#45;&gt;f385</title>
<g id="a_edge39"><a xlink:title="Function ID=386 depends on function ID=385">
<path fill="none" stroke="black" d="M470.52,-364.83C459.99,-354.87 445.72,-341.37 433.84,-330.14"/>
<polygon fill="black" stroke="black" points="436.12,-327.47 426.45,-323.14 431.31,-332.56 436.12,-327.47"/>
</a>
</g>
</g>
<!-- f387 -->
<g id="node13" class="node">
<title>f387</title>
<g id="a_node13"><a xlink:title="Function ID=387 &#10; contains 5 duplicate subfunctions">
<ellipse fill="lightblue" stroke="lightblue" cx="495.5" cy="-524" rx="32.49" ry="18"/>
<text text-anchor="middle" x="495.5" y="-520.3" font-family="Times,serif" font-size="14.00">5.0 *</text>
</a>
</g>
</g>
<!-- f387&#45;&gt;f386 -->
<g id="edge15" class="edge">
<title>f387&#45;&gt;f386</title>
<g id="a_edge15"><a xlink:title="Function ID=387 depends on function ID=386">
<path fill="none" stroke="black" d="M494.29,-505.87C492.59,-481.67 489.46,-437.21 487.43,-408.39"/>
<polygon fill="black" stroke="black" points="490.9,-407.92 486.71,-398.19 483.92,-408.41 490.9,-407.92"/>
</a>
</g>
</g>
<!-- f388&#45;&gt;f387 -->
<g id="edge42" class="edge">
<title>f388&#45;&gt;f387</title>
<g id="a_edge42"><a xlink:title="Function ID=388 depends on function ID=387">
<path fill="none" stroke="black" d="M361.78,-584.85C366.61,-582.58 371.72,-580.19 376.5,-578 405.04,-564.9 437.64,-550.42 461.48,-539.91"/>
<polygon fill="black" stroke="black" points="463.07,-543.04 470.81,-535.8 460.25,-536.63 463.07,-543.04"/>
</a>
</g>
</g>
<!-- f388&#45;&gt;f381 -->
<g id="edge33" class="edge">
<title>f388&#45;&gt;f381</title>
<g id="a_edge33"><a xlink:title="Function ID=388 depends on function ID=381">
<path fill="none" stroke="black" d="M339.26,-577.7C338.71,-569.98 338.05,-560.71 337.43,-552.11"/>
<polygon fill="black" stroke="black" points="340.92,-551.83 336.72,-542.1 333.94,-552.33 340.92,-551.83"/>
</a>
</g>
</g>
<!-- f389 -->
<g id="node15" class="node">
<title>f389</title>
<g id="a_node15"><a xlink:title="Function ID=389 &#10; contains 0 duplicate subfunctions">
<ellipse fill="lightgreen" stroke="lightgreen" cx="109.5" cy="-524" rx="27" ry="18"/>
<text text-anchor="middle" x="109.5" y="-520.3" font-family="Times,serif" font-size="14.00">0.0</text>
</a>
</g>
</g>
<!-- f390&#45;&gt;f389 -->
<g id="edge44" class="edge">
<title>f390&#45;&gt;f389</title>
<g id="a_edge44"><a xlink:title="Function ID=390 depends on function ID=389">
<path fill="none" stroke="black" d="M120.87,-578.05C119.2,-570.26 117.17,-560.82 115.3,-552.08"/>
<polygon fill="black" stroke="black" points="118.72,-551.32 113.2,-542.28 111.87,-552.79 118.72,-551.32"/>
</a>
</g>
</g>
<!-- f390&#45;&gt;f380 -->
<g id="edge32" class="edge">
<title>f390&#45;&gt;f380</title>
<g id="a_edge32"><a xlink:title="Function ID=390 depends on function ID=380">
<path fill="none" stroke="black" d="M145.14,-584.22C166.75,-572.93 200.99,-555.04 226.19,-541.88"/>
<polygon fill="black" stroke="black" points="228.11,-544.82 235.35,-537.09 224.87,-538.62 228.11,-544.82"/>
</a>
</g>
</g>
<!-- f392 -->
<g id="node17" class="node">
<title>f392</title>
<g id="a_node17"><a xlink:title="Function ID=392 &#10; contains 1 duplicate subfunctions">
<ellipse fill="lightblue" stroke="lightblue" cx="354.5" cy="-90" rx="31.4" ry="18"/>
<text text-anchor="middle" x="354.5" y="-86.3" font-family="Times,serif" font-size="14.00"> ** 2</text>
</a>
</g>
</g>
<!-- f392&#45;&gt;f1 -->
<g id="edge34" class="edge">
<title>f392&#45;&gt;f1</title>
<g id="a_edge34"><a xlink:title="Function ID=392 depends on function ID=1">
<path fill="none" stroke="black" d="M335.99,-75.5C321.23,-64.74 300.41,-49.56 284.06,-37.64"/>
<polygon fill="black" stroke="black" points="286.12,-34.81 275.98,-31.75 282,-40.47 286.12,-34.81"/>
</a>
</g>
</g>
<!-- f393 -->
<g id="node18" class="node">
<title>f393</title>
<g id="a_node18"><a xlink:title="Function ID=393 &#10; contains 2 duplicate subfunctions">
<ellipse fill="lightblue" stroke="lightblue" cx="390.5" cy="-163" rx="32.49" ry="18"/>
<text text-anchor="middle" x="390.5" y="-159.3" font-family="Times,serif" font-size="14.00">3.0 *</text>
</a>
</g>
</g>
<!-- f393&#45;&gt;f392 -->
<g id="edge18" class="edge">
<title>f393&#45;&gt;f392</title>
<g id="a_edge18"><a xlink:title="Function ID=393 depends on function ID=392">
<path fill="none" stroke="black" d="M382.15,-145.53C377.79,-136.93 372.35,-126.21 367.46,-116.56"/>
<polygon fill="black" stroke="black" points="370.45,-114.71 362.8,-107.38 364.2,-117.88 370.45,-114.71"/>
</a>
</g>
</g>
<!-- f394 -->
<g id="node19" class="node">
<title>f394</title>
<g id="a_node19"><a xlink:title="Function ID=394 &#10; contains 0 duplicate subfunctions">
<ellipse fill="lightgreen" stroke="lightgreen" cx="313.5" cy="-163" rx="27" ry="18"/>
<text text-anchor="middle" x="313.5" y="-159.3" font-family="Times,serif" font-size="14.00">1.0</text>
</a>
</g>
</g>
<!-- f395 -->
<g id="node20" class="node">
<title>f395</title>
<g id="a_node20"><a xlink:title="Function ID=395 &#10; contains 4 duplicate subfunctions">
<ellipse fill="lightblue" stroke="lightblue" cx="334.5" cy="-236" rx="27" ry="18"/>
<text text-anchor="middle" x="334.5" y="-232.3" font-family="Times,serif" font-size="14.00">*</text>
</a>
</g>
</g>
<!-- f395&#45;&gt;f393 -->
<g id="edge12" class="edge">
<title>f395&#45;&gt;f393</title>
<g id="a_edge12"><a xlink:title="Function ID=395 depends on function ID=393">
<path fill="none" stroke="black" d="M346.65,-219.59C353.96,-210.33 363.42,-198.33 371.68,-187.86"/>
<polygon fill="black" stroke="black" points="374.54,-189.89 377.98,-179.87 369.04,-185.55 374.54,-189.89"/>
</a>
</g>
</g>
<!-- f395&#45;&gt;f394 -->
<g id="edge19" class="edge">
<title>f395&#45;&gt;f394</title>
<g id="a_edge19"><a xlink:title="Function ID=395 depends on function ID=394">
<path fill="none" stroke="black" d="M329.52,-218.17C327.06,-209.86 324.04,-199.64 321.28,-190.33"/>
<polygon fill="black" stroke="black" points="324.63,-189.3 318.44,-180.71 317.92,-191.29 324.63,-189.3"/>
</a>
</g>
</g>
<!-- f396 -->
<g id="node21" class="node">
<title>f396</title>
<g id="a_node21"><a xlink:title="Function ID=396 &#10; contains 5 duplicate subfunctions">
<ellipse fill="lightblue" stroke="lightblue" cx="334.5" cy="-308" rx="32.49" ry="18"/>
<text text-anchor="middle" x="334.5" y="-304.3" font-family="Times,serif" font-size="14.00">4.0 *</text>
</a>
</g>
</g>
<!-- f396&#45;&gt;f395 -->
<g id="edge50" class="edge">
<title>f396&#45;&gt;f395</title>
<g id="a_edge50"><a xlink:title="Function ID=396 depends on function ID=395">
<path fill="none" stroke="black" d="M334.5,-289.7C334.5,-281.98 334.5,-272.71 334.5,-264.11"/>
<polygon fill="black" stroke="black" points="338,-264.1 334.5,-254.1 331,-264.1 338,-264.1"/>
</a>
</g>
</g>
<!-- f397 -->
<g id="node22" class="node">
<title>f397</title>
<g id="a_node22"><a xlink:title="Function ID=397 &#10; contains 7 duplicate subfunctions">
<ellipse fill="lightblue" stroke="lightblue" cx="411.5" cy="-380" rx="27" ry="18"/>
<text text-anchor="middle" x="411.5" y="-376.3" font-family="Times,serif" font-size="14.00">*</text>
</a>
</g>
</g>
<!-- f397&#45;&gt;f385 -->
<g id="edge8" class="edge">
<title>f397&#45;&gt;f385</title>
<g id="a_edge8"><a xlink:title="Function ID=397 depends on function ID=385">
<path fill="none" stroke="black" d="M411.5,-361.7C411.5,-353.98 411.5,-344.71 411.5,-336.11"/>
<polygon fill="black" stroke="black" points="415,-336.1 411.5,-326.1 408,-336.1 415,-336.1"/>
</a>
</g>
</g>
<!-- f397&#45;&gt;f396 -->
<g id="edge14" class="edge">
<title>f397&#45;&gt;f396</title>
<g id="a_edge14"><a xlink:title="Function ID=397 depends on function ID=396">
<path fill="none" stroke="black" d="M395.92,-364.83C385.17,-355.07 370.69,-341.9 358.48,-330.8"/>
<polygon fill="black" stroke="black" points="360.61,-328.01 350.85,-323.87 355.9,-333.19 360.61,-328.01"/>
</a>
</g>
</g>
<!-- f398 -->
<g id="node23" class="node">
<title>f398</title>
<g id="a_node23"><a xlink:title="Function ID=398 &#10; contains 0 duplicate subfunctions">
<ellipse fill="lightgreen" stroke="lightgreen" cx="565.5" cy="-308" rx="27" ry="18"/>
<text text-anchor="middle" x="565.5" y="-304.3" font-family="Times,serif" font-size="14.00">0.0</text>
</a>
</g>
</g>
<!-- f399 -->
<g id="node24" class="node">
<title>f399</title>
<g id="a_node24"><a xlink:title="Function ID=399 &#10; contains 4 duplicate subfunctions">
<ellipse fill="lightblue" stroke="lightblue" cx="557.5" cy="-380" rx="27" ry="18"/>
<text text-anchor="middle" x="557.5" y="-376.3" font-family="Times,serif" font-size="14.00">*</text>
</a>
</g>
</g>
<!-- f399&#45;&gt;f384 -->
<g id="edge7" class="edge">
<title>f399&#45;&gt;f384</title>
<g id="a_edge7"><a xlink:title="Function ID=399 depends on function ID=384">
<path fill="none" stroke="black" d="M543.2,-364.5C533.84,-355 521.4,-342.38 510.76,-331.58"/>
<polygon fill="black" stroke="black" points="513.25,-329.12 503.73,-324.46 508.26,-334.04 513.25,-329.12"/>
</a>
</g>
</g>
<!-- f399&#45;&gt;f398 -->
<g id="edge20" class="edge">
<title>f399&#45;&gt;f398</title>
<g id="a_edge20"><a xlink:title="Function ID=399 depends on function ID=398">
<path fill="none" stroke="black" d="M559.47,-361.7C560.36,-353.98 561.42,-344.71 562.4,-336.11"/>
<polygon fill="black" stroke="black" points="565.88,-336.44 563.54,-326.1 558.93,-335.64 565.88,-336.44"/>
</a>
</g>
</g>
<!-- f400 -->
<g id="node25" class="node">
<title>f400</title>
<g id="a_node25"><a xlink:title="Function ID=400 &#10; contains 13 duplicate subfunctions">
<ellipse fill="lightblue" stroke="lightblue" cx="412.5" cy="-452" rx="27" ry="18"/>
<text text-anchor="middle" x="412.5" y="-448.3" font-family="Times,serif" font-size="14.00">+</text>
</a>
</g>
</g>
<!-- f400&#45;&gt;f397 -->
<g id="edge35" class="edge">
<title>f400&#45;&gt;f397</title>
<g id="a_edge35"><a xlink:title="Function ID=400 depends on function ID=397">
<path fill="none" stroke="black" d="M412.25,-433.7C412.14,-425.98 412.01,-416.71 411.88,-408.11"/>
<polygon fill="black" stroke="black" points="415.38,-408.05 411.74,-398.1 408.38,-408.15 415.38,-408.05"/>
</a>
</g>
</g>
<!-- f400&#45;&gt;f399 -->
<g id="edge51" class="edge">
<title>f400&#45;&gt;f399</title>
<g id="a_edge51"><a xlink:title="Function ID=400 depends on function ID=399">
<path fill="none" stroke="black" d="M433.89,-440.67C458.42,-428.83 498.81,-409.33 526.71,-395.86"/>
<polygon fill="black" stroke="black" points="528.53,-398.87 536.01,-391.37 525.49,-392.57 528.53,-398.87"/>
</a>
</g>
</g>
<!-- f401 -->
<g id="node26" class="node">
<title>f401</title>
<g id="a_node26"><a xlink:title="Function ID=401 &#10; contains 14 duplicate subfunctions">
<ellipse fill="lightblue" stroke="lightblue" cx="412.5" cy="-524" rx="32.49" ry="18"/>
<text text-anchor="middle" x="412.5" y="-520.3" font-family="Times,serif" font-size="14.00">5.0 *</text>
</a>
</g>
</g>
<!-- f401&#45;&gt;f400 -->
<g id="edge17" class="edge">
<title>f401&#45;&gt;f400</title>
<g id="a_edge17"><a xlink:title="Function ID=401 depends on function ID=400">
<path fill="none" stroke="black" d="M412.5,-505.7C412.5,-497.98 412.5,-488.71 412.5,-480.11"/>
<polygon fill="black" stroke="black" points="416,-480.1 412.5,-470.1 409,-480.1 416,-480.1"/>
</a>
</g>
</g>
<!-- f402 -->
<g id="node27" class="node">
<title>f402</title>
<g id="a_node27"><a xlink:title="Function ID=402 &#10; contains 16 duplicate subfunctions">
<ellipse fill="lightblue" stroke="lightblue" cx="412.5" cy="-596" rx="27" ry="18"/>
<text text-anchor="middle" x="412.5" y="-592.3" font-family="Times,serif" font-size="14.00">*</text>
</a>
</g>
</g>
<!-- f402&#45;&gt;f401 -->
<g id="edge45" class="edge">
<title>f402&#45;&gt;f401</title>
<g id="a_edge45"><a xlink:title="Function ID=402 depends on function ID=401">
<path fill="none" stroke="black" d="M412.5,-577.7C412.5,-569.98 412.5,-560.71 412.5,-552.11"/>
<polygon fill="black" stroke="black" points="416,-552.1 412.5,-542.1 409,-552.1 416,-552.1"/>
</a>
</g>
</g>
<!-- f402&#45;&gt;f381 -->
<g id="edge29" class="edge">
<title>f402&#45;&gt;f381</title>
<g id="a_edge29"><a xlink:title="Function ID=402 depends on function ID=381">
<path fill="none" stroke="black" d="M396.92,-580.83C385.88,-570.81 370.91,-557.19 358.5,-545.92"/>
<polygon fill="black" stroke="black" points="360.55,-543.04 350.79,-538.91 355.84,-548.22 360.55,-543.04"/>
</a>
</g>
</g>
<!-- f403 -->
<g id="node28" class="node">
<title>f403</title>
<g id="a_node28"><a xlink:title="Function ID=403 &#10; contains 0 duplicate subfunctions">
<ellipse fill="lightgreen" stroke="lightgreen" cx="572.5" cy="-524" rx="27" ry="18"/>
<text text-anchor="middle" x="572.5" y="-520.3" font-family="Times,serif" font-size="14.00">0.0</text>
</a>
</g>
</g>
<!-- f404 -->
<g id="node29" class="node">
<title>f404</title>
<g id="a_node29"><a xlink:title="Function ID=404 &#10; contains 7 duplicate subfunctions">
<ellipse fill="lightblue" stroke="lightblue" cx="495.5" cy="-596" rx="27" ry="18"/>
<text text-anchor="middle" x="495.5" y="-592.3" font-family="Times,serif" font-size="14.00">*</text>
</a>
</g>
</g>
<!-- f404&#45;&gt;f387 -->
<g id="edge31" class="edge">
<title>f404&#45;&gt;f387</title>
<g id="a_edge31"><a xlink:title="Function ID=404 depends on function ID=387">
<path fill="none" stroke="black" d="M495.5,-577.7C495.5,-569.98 495.5,-560.71 495.5,-552.11"/>
<polygon fill="black" stroke="black" points="499,-552.1 495.5,-542.1 492,-552.1 499,-552.1"/>
</a>
</g>
</g>
<!-- f404&#45;&gt;f403 -->
<g id="edge46" class="edge">
<title>f404&#45;&gt;f403</title>
<g id="a_edge46"><a xlink:title="Function ID=404 depends on function ID=403">
<path fill="none" stroke="black" d="M511.08,-580.83C522.11,-570.81 537.09,-557.19 549.49,-545.92"/>
<polygon fill="black" stroke="black" points="552.16,-548.22 557.2,-538.91 547.45,-543.04 552.16,-548.22"/>
</a>
</g>
</g>
<!-- f405&#45;&gt;f402 -->
<g id="edge11" class="edge">
<title>f405&#45;&gt;f402</title>
<g id="a_edge11"><a xlink:title="Function ID=405 depends on function ID=402">
<path fill="none" stroke="black" d="M412.5,-650.81C412.5,-642.79 412.5,-633.05 412.5,-624.07"/>
<polygon fill="black" stroke="black" points="416,-624.03 412.5,-614.03 409,-624.03 416,-624.03"/>
</a>
</g>
</g>
<!-- f405&#45;&gt;f404 -->
<g id="edge21" class="edge">
<title>f405&#45;&gt;f404</title>
<g id="a_edge21"><a xlink:title="Function ID=405 depends on function ID=404">
<path fill="none" stroke="black" d="M428.5,-654.31C440.79,-643.8 457.94,-629.13 471.81,-617.26"/>
<polygon fill="black" stroke="black" points="474.22,-619.81 479.54,-610.65 469.67,-614.49 474.22,-619.81"/>
</a>
</g>
</g>
<!-- f406 -->
<g id="node31" class="node">
<title>f406</title>
<g id="a_node31"><a xlink:title="Function ID=406 &#10; contains 1 duplicate subfunctions">
<ellipse fill="lightblue" stroke="lightblue" cx="199.5" cy="-90" rx="31.4" ry="18"/>
<text text-anchor="middle" x="199.5" y="-86.3" font-family="Times,serif" font-size="14.00"> ** 3</text>
</a>
</g>
</g>
<!-- f406&#45;&gt;f1 -->
<g id="edge30" class="edge">
<title>f406&#45;&gt;f1</title>
<g id="a_edge30"><a xlink:title="Function ID=406 depends on function ID=1">
<path fill="none" stroke="black" d="M212.59,-73.46C220.41,-64.18 230.49,-52.23 239.21,-41.88"/>
<polygon fill="black" stroke="black" points="242.08,-43.91 245.84,-34.01 236.72,-39.4 242.08,-43.91"/>
</a>
</g>
</g>
<!-- f407 -->
<g id="node32" class="node">
<title>f407</title>
<g id="a_node32"><a xlink:title="Function ID=407 &#10; contains 2 duplicate subfunctions">
<ellipse fill="lightblue" stroke="lightblue" cx="176.5" cy="-380" rx="32.49" ry="18"/>
<text text-anchor="middle" x="176.5" y="-376.3" font-family="Times,serif" font-size="14.00">4.0 *</text>
</a>
</g>
</g>
<!-- f407&#45;&gt;f406 -->
<g id="edge22" class="edge">
<title>f407&#45;&gt;f406</title>
<g id="a_edge22"><a xlink:title="Function ID=407 depends on function ID=406">
<path fill="none" stroke="black" d="M177.87,-361.85C181.72,-313.62 192.66,-176.57 197.34,-118.04"/>
<polygon fill="black" stroke="black" points="200.83,-118.31 198.13,-108.06 193.85,-117.75 200.83,-118.31"/>
</a>
</g>
</g>
<!-- f408 -->
<g id="node33" class="node">
<title>f408</title>
<g id="a_node33"><a xlink:title="Function ID=408 &#10; contains 0 duplicate subfunctions">
<ellipse fill="lightgreen" stroke="lightgreen" cx="55.5" cy="-380" rx="27" ry="18"/>
<text text-anchor="middle" x="55.5" y="-376.3" font-family="Times,serif" font-size="14.00">1.0</text>
</a>
</g>
</g>
<!-- f409 -->
<g id="node34" class="node">
<title>f409</title>
<g id="a_node34"><a xlink:title="Function ID=409 &#10; contains 4 duplicate subfunctions">
<ellipse fill="lightblue" stroke="lightblue" cx="55.5" cy="-452" rx="27" ry="18"/>
<text text-anchor="middle" x="55.5" y="-448.3" font-family="Times,serif" font-size="14.00">*</text>
</a>
</g>
</g>
<!-- f409&#45;&gt;f407 -->
<g id="edge13" class="edge">
<title>f409&#45;&gt;f407</title>
<g id="a_edge13"><a xlink:title="Function ID=409 depends on function ID=407">
<path fill="none" stroke="black" d="M75.21,-439.6C94.39,-428.5 123.83,-411.47 146.03,-398.63"/>
<polygon fill="black" stroke="black" points="147.85,-401.62 154.75,-393.58 144.34,-395.56 147.85,-401.62"/>
</a>
</g>
</g>
<!-- f409&#45;&gt;f408 -->
<g id="edge23" class="edge">
<title>f409&#45;&gt;f408</title>
<g id="a_edge23"><a xlink:title="Function ID=409 depends on function ID=408">
<path fill="none" stroke="black" d="M55.5,-433.7C55.5,-425.98 55.5,-416.71 55.5,-408.11"/>
<polygon fill="black" stroke="black" points="59,-408.1 55.5,-398.1 52,-408.1 59,-408.1"/>
</a>
</g>
</g>
<!-- f410 -->
<g id="node35" class="node">
<title>f410</title>
<g id="a_node35"><a xlink:title="Function ID=410 &#10; contains 5 duplicate subfunctions">
<ellipse fill="lightblue" stroke="lightblue" cx="32.5" cy="-524" rx="32.49" ry="18"/>
<text text-anchor="middle" x="32.5" y="-520.3" font-family="Times,serif" font-size="14.00">5.0 *</text>
</a>
</g>
</g>
<!-- f410&#45;&gt;f409 -->
<g id="edge47" class="edge">
<title>f410&#45;&gt;f409</title>
<g id="a_edge47"><a xlink:title="Function ID=410 depends on function ID=409">
<path fill="none" stroke="black" d="M38.06,-506.05C40.69,-498.06 43.89,-488.33 46.82,-479.4"/>
<polygon fill="black" stroke="black" points="50.18,-480.38 49.98,-469.79 43.53,-478.2 50.18,-480.38"/>
</a>
</g>
</g>
<!-- f411 -->
<g id="node36" class="node">
<title>f411</title>
<g id="a_node36"><a xlink:title="Function ID=411 &#10; contains 7 duplicate subfunctions">
<ellipse fill="lightblue" stroke="lightblue" cx="52.5" cy="-596" rx="27" ry="18"/>
<text text-anchor="middle" x="52.5" y="-592.3" font-family="Times,serif" font-size="14.00">*</text>
</a>
</g>
</g>
<!-- f411&#45;&gt;f389 -->
<g id="edge6" class="edge">
<title>f411&#45;&gt;f389</title>
<g id="a_edge6"><a xlink:title="Function ID=411 depends on function ID=389">
<path fill="none" stroke="black" d="M64.87,-579.81C72.41,-570.55 82.2,-558.52 90.69,-548.09"/>
<polygon fill="black" stroke="black" points="93.55,-550.12 97.15,-540.16 88.12,-545.7 93.55,-550.12"/>
</a>
</g>
</g>
<!-- f411&#45;&gt;f410 -->
<g id="edge26" class="edge">
<title>f411&#45;&gt;f410</title>
<g id="a_edge26"><a xlink:title="Function ID=411 depends on function ID=410">
<path fill="none" stroke="black" d="M47.66,-578.05C45.43,-570.26 42.73,-560.82 40.23,-552.08"/>
<polygon fill="black" stroke="black" points="43.55,-550.93 37.43,-542.28 36.81,-552.85 43.55,-550.93"/>
</a>
</g>
</g>
<!-- f412 -->
<g id="node37" class="node">
<title>f412</title>
<g id="a_node37"><a xlink:title="Function ID=412 &#10; contains 0 duplicate subfunctions">
<ellipse fill="lightgreen" stroke="lightgreen" cx="181.5" cy="-524" rx="27" ry="18"/>
<text text-anchor="middle" x="181.5" y="-520.3" font-family="Times,serif" font-size="14.00">0.0</text>
</a>
</g>
</g>
<!-- f413 -->
<g id="node38" class="node">
<title>f413</title>
<g id="a_node38"><a xlink:title="Function ID=413 &#10; contains 4 duplicate subfunctions">
<ellipse fill="lightblue" stroke="lightblue" cx="196.5" cy="-596" rx="27" ry="18"/>
<text text-anchor="middle" x="196.5" y="-592.3" font-family="Times,serif" font-size="14.00">*</text>
</a>
</g>
</g>
<!-- f413&#45;&gt;f412 -->
<g id="edge25" class="edge">
<title>f413&#45;&gt;f412</title>
<g id="a_edge25"><a xlink:title="Function ID=413 depends on function ID=412">
<path fill="none" stroke="black" d="M192.87,-578.05C191.2,-570.26 189.17,-560.82 187.3,-552.08"/>
<polygon fill="black" stroke="black" points="190.72,-551.32 185.2,-542.28 183.87,-552.79 190.72,-551.32"/>
</a>
</g>
</g>
<!-- f413&#45;&gt;f380 -->
<g id="edge49" class="edge">
<title>f413&#45;&gt;f380</title>
<g id="a_edge49"><a xlink:title="Function ID=413 depends on function ID=380">
<path fill="none" stroke="black" d="M209.65,-580.15C217.8,-570.94 228.46,-558.91 237.74,-548.43"/>
<polygon fill="black" stroke="black" points="240.5,-550.6 244.51,-540.8 235.26,-545.96 240.5,-550.6"/>
</a>
</g>
</g>
<!-- f414&#45;&gt;f411 -->
<g id="edge36" class="edge">
<title>f414&#45;&gt;f411</title>
<g id="a_edge36"><a xlink:title="Function ID=414 depends on function ID=411">
<path fill="none" stroke="black" d="M98.2,-652.94C90.35,-643.34 80.04,-630.71 71.19,-619.89"/>
<polygon fill="black" stroke="black" points="73.82,-617.57 64.78,-612.04 68.4,-621.99 73.82,-617.57"/>
</a>
</g>
</g>
<!-- f414&#45;&gt;f413 -->
<g id="edge48" class="edge">
<title>f414&#45;&gt;f413</title>
<g id="a_edge48"><a xlink:title="Function ID=414 depends on function ID=413">
<path fill="none" stroke="black" d="M127.08,-654.31C139.89,-643.73 157.81,-628.94 172.23,-617.03"/>
<polygon fill="black" stroke="black" points="174.77,-619.47 180.26,-610.41 170.32,-614.07 174.77,-619.47"/>
</a>
</g>
</g>
<!-- f379 -->
<g id="node40" class="node">
<title>f379</title>
<g id="a_node40"><a xlink:title="Function ID=379 &#10; contains 1 duplicate subfunctions">
<ellipse fill="lightblue" stroke="lightblue" cx="258.5" cy="-236" rx="31.4" ry="18"/>
<text text-anchor="middle" x="258.5" y="-232.3" font-family="Times,serif" font-size="14.00"> ** 4</text>
</a>
</g>
</g>
<!-- f379&#45;&gt;f1 -->
<g id="edge28" class="edge">
<title>f379&#45;&gt;f1</title>
<g id="a_edge28"><a xlink:title="Function ID=379 depends on function ID=1">
<path fill="none" stroke="black" d="M258.5,-217.69C258.5,-180.23 258.5,-91.42 258.5,-46.31"/>
<polygon fill="black" stroke="black" points="262,-46.09 258.5,-36.09 255,-46.09 262,-46.09"/>
</a>
</g>
</g>
<!-- f380&#45;&gt;f379 -->
<g id="edge40" class="edge">
<title>f380&#45;&gt;f379</title>
<g id="a_edge40"><a xlink:title="Function ID=380 depends on function ID=379">
<path fill="none" stroke="black" d="M258.5,-505.97C258.5,-458.29 258.5,-323.18 258.5,-264.63"/>
<polygon fill="black" stroke="black" points="262,-264.31 258.5,-254.31 255,-264.31 262,-264.31"/>
</a>
</g>
</g>
<!-- f383&#45;&gt;f1 -->
<g id="edge27" class="edge">
<title>f383&#45;&gt;f1</title>
<g id="a_edge27"><a xlink:title="Function ID=383 depends on function ID=1">
<path fill="none" stroke="black" d="M474.11,-217.97C464.84,-185.26 440.27,-113.23 394.5,-72 366.2,-46.51 324.26,-32.68 294.45,-25.61"/>
<polygon fill="black" stroke="black" points="294.97,-22.14 284.45,-23.38 293.45,-28.97 294.97,-22.14"/>
</a>
</g>
</g>
</g>
</svg>
