<?xml version="1.0" encoding="UTF-8" standalone="no"?>
<!DOCTYPE svg PUBLIC "-//W3C//DTD SVG 1.1//EN"
 "http://www.w3.org/Graphics/SVG/1.1/DTD/svg11.dtd">
<!-- Generated by graphviz version 2.43.0 (0)
 -->
<!-- Title: %3 Pages: 1 -->
<svg width="347pt" height="408pt"
 viewBox="0.00 0.00 346.50 408.00" xmlns="http://www.w3.org/2000/svg" xmlns:xlink="http://www.w3.org/1999/xlink">
<g id="graph0" class="graph" transform="scale(1 1) rotate(0) translate(4 404)">
<title>%3</title>
<g id="a_graph0"><a xlink:title="Hey! Notice that red nodes are clickable and &#10; tooltips contain additional information!">
<polygon fill="white" stroke="transparent" points="-4,4 -4,-404 342.5,-404 342.5,4 -4,4"/>
</a>
</g>
<!-- function0 -->
<g id="node1" class="node">
<title>function0</title>
<g id="a_node1"><a xlink:href="inspected-f2404-graph-0.svg" xlink:title="original function &#10; contains 2 duplicate subfunctions &#10; contains 2 unique subfunctions &#10; (and is clickable)">
<path fill="red" stroke="red" d="M127,-182C127,-182 12,-182 12,-182 6,-182 0,-176 0,-170 0,-170 0,-156 0,-156 0,-150 6,-144 12,-144 12,-144 127,-144 127,-144 133,-144 139,-150 139,-156 139,-156 139,-170 139,-170 139,-176 133,-182 127,-182"/>
<text text-anchor="middle" x="69.5" y="-166.8" font-family="Times,serif" font-size="14.00">(0.9) ** (X) </text>
<text text-anchor="middle" x="69.5" y="-151.8" font-family="Times,serif" font-size="14.00"> original function</text>
</a>
</g>
</g>
<!-- f2404 -->
<g id="node2" class="node">
<title>f2404</title>
<g id="a_node2"><a xlink:title="Function ID=2404 &#10; contains 1 duplicate subfunctions">
<ellipse fill="lightblue" stroke="lightblue" cx="99.5" cy="-90" rx="40.09" ry="18"/>
<text text-anchor="middle" x="99.5" y="-86.3" font-family="Times,serif" font-size="14.00">0.9 ** </text>
</a>
</g>
</g>
<!-- function0&#45;&gt;f2404 -->
<g id="edge1" class="edge">
<title>function0&#45;&gt;f2404</title>
<path fill="none" stroke="black" d="M77.23,-143.72C80.61,-135.72 84.64,-126.18 88.33,-117.42"/>
<polygon fill="black" stroke="black" points="91.65,-118.58 92.32,-108 85.2,-115.85 91.65,-118.58"/>
</g>
<!-- f1 -->
<g id="node5" class="node">
<title>f1</title>
<g id="a_node5"><a xlink:title="Function ID=1 &#10; contains 0 duplicate subfunctions">
<ellipse fill="lightgreen" stroke="lightgreen" cx="175.5" cy="-18" rx="27" ry="18"/>
<text text-anchor="middle" x="175.5" y="-14.3" font-family="Times,serif" font-size="14.00">X</text>
</a>
</g>
</g>
<!-- f2404&#45;&gt;f1 -->
<g id="edge4" class="edge">
<title>f2404&#45;&gt;f1</title>
<g id="a_edge4"><a xlink:title="Function ID=2404 depends on function ID=1">
<path fill="none" stroke="black" d="M116.37,-73.46C127.03,-63.65 140.94,-50.83 152.59,-40.1"/>
<polygon fill="black" stroke="black" points="155.24,-42.41 160.23,-33.07 150.5,-37.27 155.24,-42.41"/>
</a>
</g>
</g>
<!-- function1 -->
<g id="node3" class="node">
<title>function1</title>
<g id="a_node3"><a xlink:href="inspected-f2404-graph-1.svg" xlink:title="1st derivative function &#10; contains 9 duplicate subfunctions &#10; contains 8 unique subfunctions &#10; (and is clickable)">
<path fill="red" stroke="red" d="M323.5,-400C323.5,-400 227.5,-400 227.5,-400 221.5,-400 215.5,-394 215.5,-388 215.5,-388 215.5,-374 215.5,-374 215.5,-368 221.5,-362 227.5,-362 227.5,-362 323.5,-362 323.5,-362 329.5,-362 335.5,-368 335.5,-374 335.5,-374 335.5,-388 335.5,-388 335.5,-394 329.5,-400 323.5,-400"/>
<text text-anchor="middle" x="275.5" y="-384.8" font-family="Times,serif" font-size="14.00">(0.9) ** (X) </text>
<text text-anchor="middle" x="275.5" y="-369.8" font-family="Times,serif" font-size="14.00"> 1st derivative</text>
</a>
</g>
</g>
<!-- f2410 -->
<g id="node4" class="node">
<title>f2410</title>
<g id="a_node4"><a xlink:title="Function ID=2410 &#10; contains 8 duplicate subfunctions">
<ellipse fill="lightblue" stroke="lightblue" cx="275.5" cy="-308" rx="27" ry="18"/>
<text text-anchor="middle" x="275.5" y="-304.3" font-family="Times,serif" font-size="14.00">*</text>
</a>
</g>
</g>
<!-- function1&#45;&gt;f2410 -->
<g id="edge2" class="edge">
<title>function1&#45;&gt;f2410</title>
<path fill="none" stroke="black" d="M275.5,-361.72C275.5,-353.97 275.5,-344.79 275.5,-336.27"/>
<polygon fill="black" stroke="black" points="279,-336 275.5,-326 272,-336 279,-336"/>
</g>
<!-- f2408 -->
<g id="node10" class="node">
<title>f2408</title>
<g id="a_node10"><a xlink:title="Function ID=2408 &#10; contains 6 duplicate subfunctions">
<ellipse fill="lightblue" stroke="lightblue" cx="239.5" cy="-236" rx="27" ry="18"/>
<text text-anchor="middle" x="239.5" y="-232.3" font-family="Times,serif" font-size="14.00">*</text>
</a>
</g>
</g>
<!-- f2410&#45;&gt;f2408 -->
<g id="edge10" class="edge">
<title>f2410&#45;&gt;f2408</title>
<g id="a_edge10"><a xlink:title="Function ID=2410 depends on function ID=2408">
<path fill="none" stroke="black" d="M267.15,-290.76C262.79,-282.28 257.35,-271.71 252.46,-262.2"/>
<polygon fill="black" stroke="black" points="255.49,-260.44 247.8,-253.15 249.27,-263.64 255.49,-260.44"/>
</a>
</g>
</g>
<!-- f2409 -->
<g id="node11" class="node">
<title>f2409</title>
<g id="a_node11"><a xlink:title="Function ID=2409 &#10; contains 0 duplicate subfunctions">
<ellipse fill="lightgreen" stroke="lightgreen" cx="311.5" cy="-236" rx="27" ry="18"/>
<text text-anchor="middle" x="311.5" y="-232.3" font-family="Times,serif" font-size="14.00">1.0</text>
</a>
</g>
</g>
<!-- f2410&#45;&gt;f2409 -->
<g id="edge9" class="edge">
<title>f2410&#45;&gt;f2409</title>
<g id="a_edge9"><a xlink:title="Function ID=2410 depends on function ID=2409">
<path fill="none" stroke="black" d="M283.85,-290.76C288.21,-282.28 293.65,-271.71 298.54,-262.2"/>
<polygon fill="black" stroke="black" points="301.73,-263.64 303.2,-253.15 295.51,-260.44 301.73,-263.64"/>
</a>
</g>
</g>
<!-- f2 -->
<g id="node6" class="node">
<title>f2</title>
<g id="a_node6"><a xlink:title="Function ID=2 &#10; contains 1 duplicate subfunctions">
<ellipse fill="lightblue" stroke="lightblue" cx="231.5" cy="-90" rx="27.9" ry="18"/>
<text text-anchor="middle" x="231.5" y="-86.3" font-family="Times,serif" font-size="14.00">Log</text>
</a>
</g>
</g>
<!-- f2&#45;&gt;f1 -->
<g id="edge11" class="edge">
<title>f2&#45;&gt;f1</title>
<g id="a_edge11"><a xlink:title="Function ID=2 depends on function ID=1">
<path fill="none" stroke="black" d="M219.07,-73.46C211.75,-64.31 202.34,-52.55 194.15,-42.31"/>
<polygon fill="black" stroke="black" points="196.87,-40.11 187.89,-34.49 191.41,-44.49 196.87,-40.11"/>
</a>
</g>
</g>
<!-- f2405 -->
<g id="node7" class="node">
<title>f2405</title>
<g id="a_node7"><a xlink:title="Function ID=2405 &#10; contains 1 duplicate subfunctions">
<ellipse fill="lightblue" stroke="lightblue" cx="197.5" cy="-163" rx="40.09" ry="18"/>
<text text-anchor="middle" x="197.5" y="-159.3" font-family="Times,serif" font-size="14.00">0.9 ** </text>
</a>
</g>
</g>
<!-- f2405&#45;&gt;f1 -->
<g id="edge6" class="edge">
<title>f2405&#45;&gt;f1</title>
<g id="a_edge6"><a xlink:title="Function ID=2405 depends on function ID=1">
<path fill="none" stroke="black" d="M194.89,-145.03C191.12,-120.52 184.11,-74.96 179.63,-45.85"/>
<polygon fill="black" stroke="black" points="183.09,-45.29 178.11,-35.94 176.17,-46.36 183.09,-45.29"/>
</a>
</g>
</g>
<!-- f2406 -->
<g id="node8" class="node">
<title>f2406</title>
<g id="a_node8"><a xlink:title="Function ID=2406 &#10; contains 0 duplicate subfunctions">
<ellipse fill="lightgreen" stroke="lightgreen" cx="304.5" cy="-90" rx="27" ry="18"/>
<text text-anchor="middle" x="304.5" y="-86.3" font-family="Times,serif" font-size="14.00">0.9</text>
</a>
</g>
</g>
<!-- f2407 -->
<g id="node9" class="node">
<title>f2407</title>
<g id="a_node9"><a xlink:title="Function ID=2407 &#10; contains 3 duplicate subfunctions">
<ellipse fill="lightblue" stroke="lightblue" cx="282.5" cy="-163" rx="27" ry="18"/>
<text text-anchor="middle" x="282.5" y="-159.3" font-family="Times,serif" font-size="14.00">of</text>
</a>
</g>
</g>
<!-- f2407&#45;&gt;f2 -->
<g id="edge3" class="edge">
<title>f2407&#45;&gt;f2</title>
<g id="a_edge3"><a xlink:title="Function ID=2407 depends on function ID=2">
<path fill="none" stroke="black" d="M271.18,-146.24C264.58,-137.05 256.12,-125.27 248.7,-114.95"/>
<polygon fill="black" stroke="black" points="251.46,-112.79 242.79,-106.71 245.78,-116.88 251.46,-112.79"/>
</a>
</g>
</g>
<!-- f2407&#45;&gt;f2406 -->
<g id="edge8" class="edge">
<title>f2407&#45;&gt;f2406</title>
<g id="a_edge8"><a xlink:title="Function ID=2407 depends on function ID=2406">
<path fill="none" stroke="black" d="M287.71,-145.17C290.29,-136.86 293.46,-126.64 296.34,-117.33"/>
<polygon fill="black" stroke="black" points="299.71,-118.29 299.32,-107.71 293.02,-116.22 299.71,-118.29"/>
</a>
</g>
</g>
<!-- f2408&#45;&gt;f2405 -->
<g id="edge5" class="edge">
<title>f2408&#45;&gt;f2405</title>
<g id="a_edge5"><a xlink:title="Function ID=2408 depends on function ID=2405">
<path fill="none" stroke="black" d="M229.97,-218.89C224.78,-210.12 218.25,-199.07 212.4,-189.19"/>
<polygon fill="black" stroke="black" points="215.39,-187.36 207.28,-180.54 209.36,-190.93 215.39,-187.36"/>
</a>
</g>
</g>
<!-- f2408&#45;&gt;f2407 -->
<g id="edge7" class="edge">
<title>f2408&#45;&gt;f2407</title>
<g id="a_edge7"><a xlink:title="Function ID=2408 depends on function ID=2407">
<path fill="none" stroke="black" d="M249.26,-218.89C254.65,-209.99 261.45,-198.75 267.5,-188.77"/>
<polygon fill="black" stroke="black" points="270.59,-190.41 272.78,-180.05 264.61,-186.79 270.59,-190.41"/>
</a>
</g>
</g>
</g>
</svg>
