<?xml version="1.0" encoding="UTF-8" standalone="no"?>
<!DOCTYPE svg PUBLIC "-//W3C//DTD SVG 1.1//EN"
 "http://www.w3.org/Graphics/SVG/1.1/DTD/svg11.dtd">
<!-- Generated by graphviz version 2.43.0 (0)
 -->
<!-- Title: %3 Pages: 1 -->
<svg width="662pt" height="698pt"
 viewBox="0.00 0.00 662.09 698.00" xmlns="http://www.w3.org/2000/svg" xmlns:xlink="http://www.w3.org/1999/xlink">
<g id="graph0" class="graph" transform="scale(1 1) rotate(0) translate(4 694)">
<title>%3</title>
<g id="a_graph0"><a xlink:title="Hey! Notice that red nodes are clickable and &#10; tooltips contain additional information!">
<polygon fill="white" stroke="transparent" points="-4,4 -4,-694 658.09,-694 658.09,4 -4,4"/>
</a>
</g>
<!-- function0 -->
<g id="node1" class="node">
<title>function0</title>
<g id="a_node1"><a xlink:href="inspected-f105-graph-0.svg" xlink:title="original function &#10; contains 3 duplicate subfunctions &#10; contains 3 unique subfunctions &#10; (and is clickable)">
<path fill="red" stroke="red" d="M305.05,-254C305.05,-254 190.05,-254 190.05,-254 184.05,-254 178.05,-248 178.05,-242 178.05,-242 178.05,-228 178.05,-228 178.05,-222 184.05,-216 190.05,-216 190.05,-216 305.05,-216 305.05,-216 311.05,-216 317.05,-222 317.05,-228 317.05,-228 317.05,-242 317.05,-242 317.05,-248 311.05,-254 305.05,-254"/>
<text text-anchor="middle" x="247.55" y="-238.8" font-family="Times,serif" font-size="14.00">(2.0) ** (Sin(X)) </text>
<text text-anchor="middle" x="247.55" y="-223.8" font-family="Times,serif" font-size="14.00"> original function</text>
</a>
</g>
</g>
<!-- f105 -->
<g id="node2" class="node">
<title>f105</title>
<g id="a_node2"><a xlink:title="Function ID=105 &#10; contains 2 duplicate subfunctions">
<ellipse fill="lightblue" stroke="lightblue" cx="245.55" cy="-162" rx="40.09" ry="18"/>
<text text-anchor="middle" x="245.55" y="-158.3" font-family="Times,serif" font-size="14.00">2.0 ** </text>
</a>
</g>
</g>
<!-- function0&#45;&gt;f105 -->
<g id="edge1" class="edge">
<title>function0&#45;&gt;f105</title>
<path fill="none" stroke="black" d="M247.03,-215.72C246.81,-207.97 246.55,-198.79 246.31,-190.27"/>
<polygon fill="black" stroke="black" points="249.81,-189.9 246.03,-180 242.81,-190.1 249.81,-189.9"/>
</g>
<!-- f3 -->
<g id="node9" class="node">
<title>f3</title>
<g id="a_node9"><a xlink:title="Function ID=3 &#10; contains 1 duplicate subfunctions">
<ellipse fill="lightblue" stroke="lightblue" cx="344.55" cy="-90" rx="27" ry="18"/>
<text text-anchor="middle" x="344.55" y="-86.3" font-family="Times,serif" font-size="14.00">Sin</text>
</a>
</g>
</g>
<!-- f105&#45;&gt;f3 -->
<g id="edge25" class="edge">
<title>f105&#45;&gt;f3</title>
<g id="a_edge25"><a xlink:title="Function ID=105 depends on function ID=3">
<path fill="none" stroke="black" d="M266.06,-146.5C281.16,-135.82 301.82,-121.21 318.15,-109.66"/>
<polygon fill="black" stroke="black" points="320.57,-112.24 326.71,-103.61 316.53,-106.52 320.57,-112.24"/>
</a>
</g>
</g>
<!-- function1 -->
<g id="node3" class="node">
<title>function1</title>
<g id="a_node3"><a xlink:href="inspected-f105-graph-1.svg" xlink:title="1st derivative function &#10; contains 11 duplicate subfunctions &#10; contains 9 unique subfunctions &#10; (and is clickable)">
<path fill="red" stroke="red" d="M457.05,-400C457.05,-400 350.05,-400 350.05,-400 344.05,-400 338.05,-394 338.05,-388 338.05,-388 338.05,-374 338.05,-374 338.05,-368 344.05,-362 350.05,-362 350.05,-362 457.05,-362 457.05,-362 463.05,-362 469.05,-368 469.05,-374 469.05,-374 469.05,-388 469.05,-388 469.05,-394 463.05,-400 457.05,-400"/>
<text text-anchor="middle" x="403.55" y="-384.8" font-family="Times,serif" font-size="14.00">(2.0) ** (Sin(X)) </text>
<text text-anchor="middle" x="403.55" y="-369.8" font-family="Times,serif" font-size="14.00"> 1st derivative</text>
</a>
</g>
</g>
<!-- f110 -->
<g id="node4" class="node">
<title>f110</title>
<g id="a_node4"><a xlink:title="Function ID=110 &#10; contains 10 duplicate subfunctions">
<ellipse fill="lightblue" stroke="lightblue" cx="403.55" cy="-308" rx="27" ry="18"/>
<text text-anchor="middle" x="403.55" y="-304.3" font-family="Times,serif" font-size="14.00">*</text>
</a>
</g>
</g>
<!-- function1&#45;&gt;f110 -->
<g id="edge2" class="edge">
<title>function1&#45;&gt;f110</title>
<path fill="none" stroke="black" d="M403.55,-361.72C403.55,-353.97 403.55,-344.79 403.55,-336.27"/>
<polygon fill="black" stroke="black" points="407.05,-336 403.55,-326 400.05,-336 407.05,-336"/>
</g>
<!-- f4 -->
<g id="node10" class="node">
<title>f4</title>
<g id="a_node10"><a xlink:title="Function ID=4 &#10; contains 1 duplicate subfunctions">
<ellipse fill="lightblue" stroke="lightblue" cx="587.55" cy="-235" rx="27.9" ry="18"/>
<text text-anchor="middle" x="587.55" y="-231.3" font-family="Times,serif" font-size="14.00">Cos</text>
</a>
</g>
</g>
<!-- f110&#45;&gt;f4 -->
<g id="edge8" class="edge">
<title>f110&#45;&gt;f4</title>
<g id="a_edge8"><a xlink:title="Function ID=110 depends on function ID=4">
<path fill="none" stroke="black" d="M427.27,-299.32C456.58,-289.63 507.81,-272.04 550.55,-254 552.63,-253.12 554.77,-252.18 556.91,-251.21"/>
<polygon fill="black" stroke="black" points="558.63,-254.27 566.2,-246.86 555.66,-247.93 558.63,-254.27"/>
</a>
</g>
</g>
<!-- f109 -->
<g id="node14" class="node">
<title>f109</title>
<g id="a_node14"><a xlink:title="Function ID=109 &#10; contains 7 duplicate subfunctions">
<ellipse fill="lightblue" stroke="lightblue" cx="402.55" cy="-235" rx="27" ry="18"/>
<text text-anchor="middle" x="402.55" y="-231.3" font-family="Times,serif" font-size="14.00">*</text>
</a>
</g>
</g>
<!-- f110&#45;&gt;f109 -->
<g id="edge32" class="edge">
<title>f110&#45;&gt;f109</title>
<g id="a_edge32"><a xlink:title="Function ID=110 depends on function ID=109">
<path fill="none" stroke="black" d="M403.3,-289.81C403.19,-281.79 403.05,-272.05 402.93,-263.07"/>
<polygon fill="black" stroke="black" points="406.43,-262.98 402.79,-253.03 399.43,-263.08 406.43,-262.98"/>
</a>
</g>
</g>
<!-- function2 -->
<g id="node5" class="node">
<title>function2</title>
<g id="a_node5"><a xlink:href="inspected-f105-graph-2.svg" xlink:title="2nd derivative function &#10; contains 43 duplicate subfunctions &#10; contains 24 unique subfunctions &#10; (and is clickable)">
<path fill="red" stroke="red" d="M344.05,-690C344.05,-690 237.05,-690 237.05,-690 231.05,-690 225.05,-684 225.05,-678 225.05,-678 225.05,-664 225.05,-664 225.05,-658 231.05,-652 237.05,-652 237.05,-652 344.05,-652 344.05,-652 350.05,-652 356.05,-658 356.05,-664 356.05,-664 356.05,-678 356.05,-678 356.05,-684 350.05,-690 344.05,-690"/>
<text text-anchor="middle" x="290.55" y="-674.8" font-family="Times,serif" font-size="14.00">(2.0) ** (Sin(X)) </text>
<text text-anchor="middle" x="290.55" y="-659.8" font-family="Times,serif" font-size="14.00"> 2nd derivative</text>
</a>
</g>
</g>
<!-- f126 -->
<g id="node6" class="node">
<title>f126</title>
<g id="a_node6"><a xlink:title="Function ID=126 &#10; contains 42 duplicate subfunctions">
<ellipse fill="lightblue" stroke="lightblue" cx="290.55" cy="-598" rx="27" ry="18"/>
<text text-anchor="middle" x="290.55" y="-594.3" font-family="Times,serif" font-size="14.00">+</text>
</a>
</g>
</g>
<!-- function2&#45;&gt;f126 -->
<g id="edge3" class="edge">
<title>function2&#45;&gt;f126</title>
<path fill="none" stroke="black" d="M290.55,-651.72C290.55,-643.97 290.55,-634.79 290.55,-626.27"/>
<polygon fill="black" stroke="black" points="294.05,-626 290.55,-616 287.05,-626 294.05,-626"/>
</g>
<!-- f123 -->
<g id="node27" class="node">
<title>f123</title>
<g id="a_node27"><a xlink:title="Function ID=123 &#10; contains 29 duplicate subfunctions">
<ellipse fill="lightblue" stroke="lightblue" cx="416.55" cy="-526" rx="27" ry="18"/>
<text text-anchor="middle" x="416.55" y="-522.3" font-family="Times,serif" font-size="14.00">*</text>
</a>
</g>
</g>
<!-- f126&#45;&gt;f123 -->
<g id="edge28" class="edge">
<title>f126&#45;&gt;f123</title>
<g id="a_edge28"><a xlink:title="Function ID=126 depends on function ID=123">
<path fill="none" stroke="black" d="M310.79,-585.75C331.55,-574.22 364.03,-556.18 387.52,-543.12"/>
<polygon fill="black" stroke="black" points="389.31,-546.13 396.35,-538.22 385.91,-540.02 389.31,-546.13"/>
</a>
</g>
</g>
<!-- f125 -->
<g id="node29" class="node">
<title>f125</title>
<g id="a_node29"><a xlink:title="Function ID=125 &#10; contains 11 duplicate subfunctions">
<ellipse fill="lightblue" stroke="lightblue" cx="248.55" cy="-308" rx="27" ry="18"/>
<text text-anchor="middle" x="248.55" y="-304.3" font-family="Times,serif" font-size="14.00">*</text>
</a>
</g>
</g>
<!-- f126&#45;&gt;f125 -->
<g id="edge39" class="edge">
<title>f126&#45;&gt;f125</title>
<g id="a_edge39"><a xlink:title="Function ID=126 depends on function ID=125">
<path fill="none" stroke="black" d="M288.04,-579.85C281.01,-531.62 261.03,-394.57 252.49,-336.04"/>
<polygon fill="black" stroke="black" points="255.94,-335.45 251.03,-326.06 249.01,-336.46 255.94,-335.45"/>
</a>
</g>
</g>
<!-- f1 -->
<g id="node7" class="node">
<title>f1</title>
<g id="a_node7"><a xlink:title="Function ID=1 &#10; contains 0 duplicate subfunctions">
<ellipse fill="lightgreen" stroke="lightgreen" cx="386.55" cy="-18" rx="27" ry="18"/>
<text text-anchor="middle" x="386.55" y="-14.3" font-family="Times,serif" font-size="14.00">X</text>
</a>
</g>
</g>
<!-- f2 -->
<g id="node8" class="node">
<title>f2</title>
<g id="a_node8"><a xlink:title="Function ID=2 &#10; contains 1 duplicate subfunctions">
<ellipse fill="lightblue" stroke="lightblue" cx="429.55" cy="-90" rx="27.9" ry="18"/>
<text text-anchor="middle" x="429.55" y="-86.3" font-family="Times,serif" font-size="14.00">Log</text>
</a>
</g>
</g>
<!-- f2&#45;&gt;f1 -->
<g id="edge33" class="edge">
<title>f2&#45;&gt;f1</title>
<g id="a_edge33"><a xlink:title="Function ID=2 depends on function ID=1">
<path fill="none" stroke="black" d="M419.79,-73.12C414.4,-64.34 407.59,-53.26 401.54,-43.42"/>
<polygon fill="black" stroke="black" points="404.48,-41.51 396.26,-34.82 398.52,-45.17 404.48,-41.51"/>
</a>
</g>
</g>
<!-- f3&#45;&gt;f1 -->
<g id="edge11" class="edge">
<title>f3&#45;&gt;f1</title>
<g id="a_edge11"><a xlink:title="Function ID=3 depends on function ID=1">
<path fill="none" stroke="black" d="M354.08,-73.12C359.21,-64.56 365.67,-53.8 371.47,-44.13"/>
<polygon fill="black" stroke="black" points="374.62,-45.68 376.76,-35.31 368.62,-42.08 374.62,-45.68"/>
</a>
</g>
</g>
<!-- f4&#45;&gt;f1 -->
<g id="edge27" class="edge">
<title>f4&#45;&gt;f1</title>
<g id="a_edge27"><a xlink:title="Function ID=4 depends on function ID=1">
<path fill="none" stroke="black" d="M604.82,-220.47C615.93,-210.61 629.39,-196.18 635.55,-180 652.6,-135.13 665.75,-109.31 635.55,-72 609.32,-39.61 486.6,-26.18 423.79,-21.35"/>
<polygon fill="black" stroke="black" points="423.75,-17.84 413.53,-20.6 423.24,-24.82 423.75,-17.84"/>
</a>
</g>
</g>
<!-- f106 -->
<g id="node11" class="node">
<title>f106</title>
<g id="a_node11"><a xlink:title="Function ID=106 &#10; contains 2 duplicate subfunctions">
<ellipse fill="lightblue" stroke="lightblue" cx="344.55" cy="-162" rx="40.09" ry="18"/>
<text text-anchor="middle" x="344.55" y="-158.3" font-family="Times,serif" font-size="14.00">2.0 ** </text>
</a>
</g>
</g>
<!-- f106&#45;&gt;f3 -->
<g id="edge9" class="edge">
<title>f106&#45;&gt;f3</title>
<g id="a_edge9"><a xlink:title="Function ID=106 depends on function ID=3">
<path fill="none" stroke="black" d="M344.55,-143.7C344.55,-135.98 344.55,-126.71 344.55,-118.11"/>
<polygon fill="black" stroke="black" points="348.05,-118.1 344.55,-108.1 341.05,-118.1 348.05,-118.1"/>
</a>
</g>
</g>
<!-- f107 -->
<g id="node12" class="node">
<title>f107</title>
<g id="a_node12"><a xlink:title="Function ID=107 &#10; contains 0 duplicate subfunctions">
<ellipse fill="lightgreen" stroke="lightgreen" cx="236.55" cy="-90" rx="27" ry="18"/>
<text text-anchor="middle" x="236.55" y="-86.3" font-family="Times,serif" font-size="14.00">2.0</text>
</a>
</g>
</g>
<!-- f108 -->
<g id="node13" class="node">
<title>f108</title>
<g id="a_node13"><a xlink:title="Function ID=108 &#10; contains 3 duplicate subfunctions">
<ellipse fill="lightblue" stroke="lightblue" cx="429.55" cy="-162" rx="27" ry="18"/>
<text text-anchor="middle" x="429.55" y="-158.3" font-family="Times,serif" font-size="14.00">of</text>
</a>
</g>
</g>
<!-- f108&#45;&gt;f2 -->
<g id="edge7" class="edge">
<title>f108&#45;&gt;f2</title>
<g id="a_edge7"><a xlink:title="Function ID=108 depends on function ID=2">
<path fill="none" stroke="black" d="M429.55,-143.7C429.55,-135.98 429.55,-126.71 429.55,-118.11"/>
<polygon fill="black" stroke="black" points="433.05,-118.1 429.55,-108.1 426.05,-118.1 433.05,-118.1"/>
</a>
</g>
</g>
<!-- f108&#45;&gt;f107 -->
<g id="edge34" class="edge">
<title>f108&#45;&gt;f107</title>
<g id="a_edge34"><a xlink:title="Function ID=108 depends on function ID=107">
<path fill="none" stroke="black" d="M408.41,-150.52C403.57,-148.26 398.42,-145.96 393.55,-144 351.9,-127.2 302.66,-111.18 270.58,-101.24"/>
<polygon fill="black" stroke="black" points="271.39,-97.82 260.8,-98.23 269.33,-104.52 271.39,-97.82"/>
</a>
</g>
</g>
<!-- f109&#45;&gt;f106 -->
<g id="edge10" class="edge">
<title>f109&#45;&gt;f106</title>
<g id="a_edge10"><a xlink:title="Function ID=109 depends on function ID=106">
<path fill="none" stroke="black" d="M390.25,-218.94C382.74,-209.76 372.97,-197.8 364.4,-187.3"/>
<polygon fill="black" stroke="black" points="366.88,-184.8 357.84,-179.27 361.45,-189.23 366.88,-184.8"/>
</a>
</g>
</g>
<!-- f109&#45;&gt;f108 -->
<g id="edge12" class="edge">
<title>f109&#45;&gt;f108</title>
<g id="a_edge12"><a xlink:title="Function ID=109 depends on function ID=108">
<path fill="none" stroke="black" d="M408.94,-217.17C412.11,-208.86 415.99,-198.64 419.53,-189.33"/>
<polygon fill="black" stroke="black" points="422.91,-190.3 423.19,-179.71 416.37,-187.81 422.91,-190.3"/>
</a>
</g>
</g>
<!-- f111 -->
<g id="node15" class="node">
<title>f111</title>
<g id="a_node15"><a xlink:title="Function ID=111 &#10; contains 2 duplicate subfunctions">
<ellipse fill="lightblue" stroke="lightblue" cx="514.55" cy="-162" rx="40.09" ry="18"/>
<text text-anchor="middle" x="514.55" y="-158.3" font-family="Times,serif" font-size="14.00">2.0 ** </text>
</a>
</g>
</g>
<!-- f111&#45;&gt;f3 -->
<g id="edge22" class="edge">
<title>f111&#45;&gt;f3</title>
<g id="a_edge22"><a xlink:title="Function ID=111 depends on function ID=3">
<path fill="none" stroke="black" d="M485.71,-149.13C455.45,-136.67 408,-117.13 376.59,-104.19"/>
<polygon fill="black" stroke="black" points="377.58,-100.82 367,-100.24 374.91,-107.29 377.58,-100.82"/>
</a>
</g>
</g>
<!-- f112 -->
<g id="node16" class="node">
<title>f112</title>
<g id="a_node16"><a xlink:title="Function ID=112 &#10; contains 0 duplicate subfunctions">
<ellipse fill="lightgreen" stroke="lightgreen" cx="599.55" cy="-90" rx="27" ry="18"/>
<text text-anchor="middle" x="599.55" y="-86.3" font-family="Times,serif" font-size="14.00">2.0</text>
</a>
</g>
</g>
<!-- f113 -->
<g id="node17" class="node">
<title>f113</title>
<g id="a_node17"><a xlink:title="Function ID=113 &#10; contains 3 duplicate subfunctions">
<ellipse fill="lightblue" stroke="lightblue" cx="599.55" cy="-162" rx="27" ry="18"/>
<text text-anchor="middle" x="599.55" y="-158.3" font-family="Times,serif" font-size="14.00">of</text>
</a>
</g>
</g>
<!-- f113&#45;&gt;f2 -->
<g id="edge20" class="edge">
<title>f113&#45;&gt;f2</title>
<g id="a_edge20"><a xlink:title="Function ID=113 depends on function ID=2">
<path fill="none" stroke="black" d="M578.33,-150.7C573.5,-148.44 568.37,-146.09 563.55,-144 529.61,-129.29 490.18,-113.9 462.92,-103.51"/>
<polygon fill="black" stroke="black" points="464.05,-100.2 453.46,-99.92 461.57,-106.74 464.05,-100.2"/>
</a>
</g>
</g>
<!-- f113&#45;&gt;f112 -->
<g id="edge15" class="edge">
<title>f113&#45;&gt;f112</title>
<g id="a_edge15"><a xlink:title="Function ID=113 depends on function ID=112">
<path fill="none" stroke="black" d="M599.55,-143.7C599.55,-135.98 599.55,-126.71 599.55,-118.11"/>
<polygon fill="black" stroke="black" points="603.05,-118.1 599.55,-108.1 596.05,-118.1 603.05,-118.1"/>
</a>
</g>
</g>
<!-- f114 -->
<g id="node18" class="node">
<title>f114</title>
<g id="a_node18"><a xlink:title="Function ID=114 &#10; contains 7 duplicate subfunctions">
<ellipse fill="lightblue" stroke="lightblue" cx="514.55" cy="-235" rx="27" ry="18"/>
<text text-anchor="middle" x="514.55" y="-231.3" font-family="Times,serif" font-size="14.00">*</text>
</a>
</g>
</g>
<!-- f114&#45;&gt;f111 -->
<g id="edge29" class="edge">
<title>f114&#45;&gt;f111</title>
<g id="a_edge29"><a xlink:title="Function ID=114 depends on function ID=111">
<path fill="none" stroke="black" d="M514.55,-216.81C514.55,-208.79 514.55,-199.05 514.55,-190.07"/>
<polygon fill="black" stroke="black" points="518.05,-190.03 514.55,-180.03 511.05,-190.03 518.05,-190.03"/>
</a>
</g>
</g>
<!-- f114&#45;&gt;f113 -->
<g id="edge31" class="edge">
<title>f114&#45;&gt;f113</title>
<g id="a_edge31"><a xlink:title="Function ID=114 depends on function ID=113">
<path fill="none" stroke="black" d="M530.93,-220.31C543.52,-209.8 561.08,-195.13 575.29,-183.26"/>
<polygon fill="black" stroke="black" points="577.78,-185.74 583.21,-176.65 573.29,-180.37 577.78,-185.74"/>
</a>
</g>
</g>
<!-- f115 -->
<g id="node19" class="node">
<title>f115</title>
<g id="a_node19"><a xlink:title="Function ID=115 &#10; contains 10 duplicate subfunctions">
<ellipse fill="lightblue" stroke="lightblue" cx="514.55" cy="-308" rx="27" ry="18"/>
<text text-anchor="middle" x="514.55" y="-304.3" font-family="Times,serif" font-size="14.00">*</text>
</a>
</g>
</g>
<!-- f115&#45;&gt;f4 -->
<g id="edge21" class="edge">
<title>f115&#45;&gt;f4</title>
<g id="a_edge21"><a xlink:title="Function ID=115 depends on function ID=4">
<path fill="none" stroke="black" d="M529.32,-292.63C539.71,-282.53 553.79,-268.83 565.5,-257.44"/>
<polygon fill="black" stroke="black" points="568.07,-259.83 572.8,-250.35 563.19,-254.81 568.07,-259.83"/>
</a>
</g>
</g>
<!-- f115&#45;&gt;f114 -->
<g id="edge14" class="edge">
<title>f115&#45;&gt;f114</title>
<g id="a_edge14"><a xlink:title="Function ID=115 depends on function ID=114">
<path fill="none" stroke="black" d="M514.55,-289.81C514.55,-281.79 514.55,-272.05 514.55,-263.07"/>
<polygon fill="black" stroke="black" points="518.05,-263.03 514.55,-253.03 511.05,-263.03 518.05,-263.03"/>
</a>
</g>
</g>
<!-- f116 -->
<g id="node20" class="node">
<title>f116</title>
<g id="a_node20"><a xlink:title="Function ID=116 &#10; contains 15 duplicate subfunctions">
<ellipse fill="lightblue" stroke="lightblue" cx="514.55" cy="-381" rx="27" ry="18"/>
<text text-anchor="middle" x="514.55" y="-377.3" font-family="Times,serif" font-size="14.00">*</text>
</a>
</g>
</g>
<!-- f116&#45;&gt;f108 -->
<g id="edge24" class="edge">
<title>f116&#45;&gt;f108</title>
<g id="a_edge24"><a xlink:title="Function ID=116 depends on function ID=108">
<path fill="none" stroke="black" d="M502.53,-364.67C494.83,-354.24 485.07,-339.86 478.55,-326 457.08,-280.41 442.47,-223.22 435.11,-190.12"/>
<polygon fill="black" stroke="black" points="438.51,-189.3 432.97,-180.27 431.67,-190.78 438.51,-189.3"/>
</a>
</g>
</g>
<!-- f116&#45;&gt;f115 -->
<g id="edge35" class="edge">
<title>f116&#45;&gt;f115</title>
<g id="a_edge35"><a xlink:title="Function ID=116 depends on function ID=115">
<path fill="none" stroke="black" d="M514.55,-362.81C514.55,-354.79 514.55,-345.05 514.55,-336.07"/>
<polygon fill="black" stroke="black" points="518.05,-336.03 514.55,-326.03 511.05,-336.03 518.05,-336.03"/>
</a>
</g>
</g>
<!-- f117 -->
<g id="node21" class="node">
<title>f117</title>
<g id="a_node21"><a xlink:title="Function ID=117 &#10; contains 1 duplicate subfunctions">
<ellipse fill="lightblue" stroke="lightblue" cx="86.55" cy="-90" rx="34.39" ry="18"/>
<text text-anchor="middle" x="86.55" y="-86.3" font-family="Times,serif" font-size="14.00">1.0 / </text>
</a>
</g>
</g>
<!-- f117&#45;&gt;f1 -->
<g id="edge19" class="edge">
<title>f117&#45;&gt;f1</title>
<g id="a_edge19"><a xlink:title="Function ID=117 depends on function ID=1">
<path fill="none" stroke="black" d="M117.52,-81.77C173.73,-68.66 292.17,-41.02 351.34,-27.21"/>
<polygon fill="black" stroke="black" points="352.39,-30.56 361.34,-24.88 350.8,-23.75 352.39,-30.56"/>
</a>
</g>
</g>
<!-- f118 -->
<g id="node22" class="node">
<title>f118</title>
<g id="a_node22"><a xlink:title="Function ID=118 &#10; contains 3 duplicate subfunctions">
<ellipse fill="lightblue" stroke="lightblue" cx="50.55" cy="-162" rx="27" ry="18"/>
<text text-anchor="middle" x="50.55" y="-158.3" font-family="Times,serif" font-size="14.00">of</text>
</a>
</g>
</g>
<!-- f118&#45;&gt;f107 -->
<g id="edge23" class="edge">
<title>f118&#45;&gt;f107</title>
<g id="a_edge23"><a xlink:title="Function ID=118 depends on function ID=107">
<path fill="none" stroke="black" d="M73.03,-151.47C79.03,-148.99 85.52,-146.35 91.55,-144 129.63,-129.15 173.8,-113.18 203.29,-102.7"/>
<polygon fill="black" stroke="black" points="204.82,-105.87 213.08,-99.23 202.48,-99.27 204.82,-105.87"/>
</a>
</g>
</g>
<!-- f118&#45;&gt;f117 -->
<g id="edge37" class="edge">
<title>f118&#45;&gt;f117</title>
<g id="a_edge37"><a xlink:title="Function ID=118 depends on function ID=117">
<path fill="none" stroke="black" d="M58.9,-144.76C63.2,-136.4 68.54,-126.02 73.38,-116.61"/>
<polygon fill="black" stroke="black" points="76.53,-118.13 77.99,-107.63 70.31,-114.93 76.53,-118.13"/>
</a>
</g>
</g>
<!-- f119 -->
<g id="node23" class="node">
<title>f119</title>
<g id="a_node23"><a xlink:title="Function ID=119 &#10; contains 0 duplicate subfunctions">
<ellipse fill="lightgreen" stroke="lightgreen" cx="160.55" cy="-162" rx="27" ry="18"/>
<text text-anchor="middle" x="160.55" y="-158.3" font-family="Times,serif" font-size="14.00">0.0</text>
</a>
</g>
</g>
<!-- f120 -->
<g id="node24" class="node">
<title>f120</title>
<g id="a_node24"><a xlink:title="Function ID=120 &#10; contains 5 duplicate subfunctions">
<ellipse fill="lightblue" stroke="lightblue" cx="132.55" cy="-235" rx="27" ry="18"/>
<text text-anchor="middle" x="132.55" y="-231.3" font-family="Times,serif" font-size="14.00">*</text>
</a>
</g>
</g>
<!-- f120&#45;&gt;f118 -->
<g id="edge30" class="edge">
<title>f120&#45;&gt;f118</title>
<g id="a_edge30"><a xlink:title="Function ID=120 depends on function ID=118">
<path fill="none" stroke="black" d="M116.74,-220.31C104.6,-209.8 87.65,-195.13 73.94,-183.26"/>
<polygon fill="black" stroke="black" points="76.16,-180.55 66.31,-176.65 71.58,-185.84 76.16,-180.55"/>
</a>
</g>
</g>
<!-- f120&#45;&gt;f119 -->
<g id="edge38" class="edge">
<title>f120&#45;&gt;f119</title>
<g id="a_edge38"><a xlink:title="Function ID=120 depends on function ID=119">
<path fill="none" stroke="black" d="M139.18,-217.17C142.49,-208.77 146.58,-198.42 150.28,-189.03"/>
<polygon fill="black" stroke="black" points="153.55,-190.29 153.96,-179.71 147.03,-187.72 153.55,-190.29"/>
</a>
</g>
</g>
<!-- f121 -->
<g id="node25" class="node">
<title>f121</title>
<g id="a_node25"><a xlink:title="Function ID=121 &#10; contains 9 duplicate subfunctions">
<ellipse fill="lightblue" stroke="lightblue" cx="320.55" cy="-308" rx="27" ry="18"/>
<text text-anchor="middle" x="320.55" y="-304.3" font-family="Times,serif" font-size="14.00">*</text>
</a>
</g>
</g>
<!-- f121&#45;&gt;f106 -->
<g id="edge6" class="edge">
<title>f121&#45;&gt;f106</title>
<g id="a_edge6"><a xlink:title="Function ID=121 depends on function ID=106">
<path fill="none" stroke="black" d="M323.39,-289.92C327.51,-265.23 335.15,-219.35 340.04,-190.04"/>
<polygon fill="black" stroke="black" points="343.51,-190.5 341.7,-180.06 336.61,-189.35 343.51,-190.5"/>
</a>
</g>
</g>
<!-- f121&#45;&gt;f120 -->
<g id="edge16" class="edge">
<title>f121&#45;&gt;f120</title>
<g id="a_edge16"><a xlink:title="Function ID=121 depends on function ID=120">
<path fill="none" stroke="black" d="M299.44,-296.43C294.6,-294.18 289.44,-291.9 284.55,-290 234.24,-270.43 218.63,-274.14 168.55,-254 166.49,-253.17 164.39,-252.28 162.3,-251.34"/>
<polygon fill="black" stroke="black" points="163.76,-248.16 153.22,-247.06 160.77,-254.49 163.76,-248.16"/>
</a>
</g>
</g>
<!-- f122 -->
<g id="node26" class="node">
<title>f122</title>
<g id="a_node26"><a xlink:title="Function ID=122 &#10; contains 26 duplicate subfunctions">
<ellipse fill="lightblue" stroke="lightblue" cx="416.55" cy="-454" rx="27" ry="18"/>
<text text-anchor="middle" x="416.55" y="-450.3" font-family="Times,serif" font-size="14.00">+</text>
</a>
</g>
</g>
<!-- f122&#45;&gt;f116 -->
<g id="edge26" class="edge">
<title>f122&#45;&gt;f116</title>
<g id="a_edge26"><a xlink:title="Function ID=122 depends on function ID=116">
<path fill="none" stroke="black" d="M434.52,-439.98C449.67,-429 471.55,-413.15 488.6,-400.8"/>
<polygon fill="black" stroke="black" points="490.97,-403.4 497.02,-394.7 486.86,-397.73 490.97,-403.4"/>
</a>
</g>
</g>
<!-- f122&#45;&gt;f121 -->
<g id="edge36" class="edge">
<title>f122&#45;&gt;f121</title>
<g id="a_edge36"><a xlink:title="Function ID=122 depends on function ID=121">
<path fill="none" stroke="black" d="M392.62,-445.29C372.21,-437.37 343.95,-422.91 329.55,-400 317.7,-381.15 316.13,-355.64 317.14,-336.42"/>
<polygon fill="black" stroke="black" points="320.64,-336.45 317.94,-326.21 313.67,-335.9 320.64,-336.45"/>
</a>
</g>
</g>
<!-- f123&#45;&gt;f4 -->
<g id="edge18" class="edge">
<title>f123&#45;&gt;f4</title>
<g id="a_edge18"><a xlink:title="Function ID=123 depends on function ID=4">
<path fill="none" stroke="black" d="M435.47,-512.95C464.93,-493.13 521.41,-450.77 550.55,-400 575.59,-356.37 583.68,-297.15 586.3,-263.11"/>
<polygon fill="black" stroke="black" points="589.8,-263.21 586.97,-253 582.81,-262.74 589.8,-263.21"/>
</a>
</g>
</g>
<!-- f123&#45;&gt;f122 -->
<g id="edge13" class="edge">
<title>f123&#45;&gt;f122</title>
<g id="a_edge13"><a xlink:title="Function ID=123 depends on function ID=122">
<path fill="none" stroke="black" d="M416.55,-507.7C416.55,-499.98 416.55,-490.71 416.55,-482.11"/>
<polygon fill="black" stroke="black" points="420.05,-482.1 416.55,-472.1 413.05,-482.1 420.05,-482.1"/>
</a>
</g>
</g>
<!-- f124 -->
<g id="node28" class="node">
<title>f124</title>
<g id="a_node28"><a xlink:title="Function ID=124 &#10; contains 2 duplicate subfunctions">
<ellipse fill="lightblue" stroke="lightblue" cx="43.55" cy="-235" rx="43.59" ry="18"/>
<text text-anchor="middle" x="43.55" y="-231.3" font-family="Times,serif" font-size="14.00">unary &#45;</text>
</a>
</g>
</g>
<!-- f124&#45;&gt;f3 -->
<g id="edge4" class="edge">
<title>f124&#45;&gt;f3</title>
<g id="a_edge4"><a xlink:title="Function ID=124 depends on function ID=3">
<path fill="none" stroke="black" d="M56.43,-217.47C74.85,-194.24 108.29,-153.68 124.55,-144 126.56,-142.8 247.97,-113.9 309.54,-99.29"/>
<polygon fill="black" stroke="black" points="310.67,-102.62 319.59,-96.91 309.06,-95.81 310.67,-102.62"/>
</a>
</g>
</g>
<!-- f125&#45;&gt;f109 -->
<g id="edge5" class="edge">
<title>f125&#45;&gt;f109</title>
<g id="a_edge5"><a xlink:title="Function ID=125 depends on function ID=109">
<path fill="none" stroke="black" d="M269.85,-296.89C274.67,-294.61 279.78,-292.21 284.55,-290 313.99,-276.31 347.69,-260.92 371.51,-250.08"/>
<polygon fill="black" stroke="black" points="373.11,-253.2 380.76,-245.87 370.21,-246.83 373.11,-253.2"/>
</a>
</g>
</g>
<!-- f125&#45;&gt;f124 -->
<g id="edge17" class="edge">
<title>f125&#45;&gt;f124</title>
<g id="a_edge17"><a xlink:title="Function ID=125 depends on function ID=124">
<path fill="none" stroke="black" d="M225.03,-298.86C191.05,-287.09 127.68,-265.14 85.55,-250.55"/>
<polygon fill="black" stroke="black" points="86.45,-247.16 75.86,-247.19 84.16,-253.77 86.45,-247.16"/>
</a>
</g>
</g>
</g>
</svg>
