<?xml version="1.0" encoding="UTF-8" standalone="no"?>
<!DOCTYPE svg PUBLIC "-//W3C//DTD SVG 1.1//EN"
 "http://www.w3.org/Graphics/SVG/1.1/DTD/svg11.dtd">
<!-- Generated by graphviz version 2.43.0 (0)
 -->
<!-- Title: %3 Pages: 1 -->
<svg width="798pt" height="844pt"
 viewBox="0.00 0.00 797.50 844.00" xmlns="http://www.w3.org/2000/svg" xmlns:xlink="http://www.w3.org/1999/xlink">
<g id="graph0" class="graph" transform="scale(1 1) rotate(0) translate(4 840)">
<title>%3</title>
<g id="a_graph0"><a xlink:title="Hey! Notice that red nodes are clickable and &#10; tooltips contain additional information!">
<polygon fill="white" stroke="transparent" points="-4,4 -4,-840 793.5,-840 793.5,4 -4,4"/>
</a>
</g>
<!-- function0 -->
<g id="node1" class="node">
<title>function0</title>
<g id="a_node1"><a xlink:href="inspected-f2593-optimized-0.svg" xlink:title="original function &#10; contains 2 duplicate subfunctions &#10; contains 2 unique subfunctions &#10; (and is clickable)">
<path fill="red" stroke="red" d="M127,-182C127,-182 12,-182 12,-182 6,-182 0,-176 0,-170 0,-170 0,-156 0,-156 0,-150 6,-144 12,-144 12,-144 127,-144 127,-144 133,-144 139,-150 139,-156 139,-156 139,-170 139,-170 139,-176 133,-182 127,-182"/>
<text text-anchor="middle" x="69.5" y="-166.8" font-family="Times,serif" font-size="14.00">(X) ** (5.0) </text>
<text text-anchor="middle" x="69.5" y="-151.8" font-family="Times,serif" font-size="14.00"> original function</text>
</a>
</g>
</g>
<!-- f2593 -->
<g id="node2" class="node">
<title>f2593</title>
<g id="a_node2"><a xlink:title="Function ID=2593 &#10; contains 1 duplicate subfunctions">
<ellipse fill="lightblue" stroke="lightblue" cx="89.5" cy="-90" rx="31.4" ry="18"/>
<text text-anchor="middle" x="89.5" y="-86.3" font-family="Times,serif" font-size="14.00"> ** 5</text>
</a>
</g>
</g>
<!-- function0&#45;&gt;f2593 -->
<g id="edge1" class="edge">
<title>function0&#45;&gt;f2593</title>
<path fill="none" stroke="black" d="M74.65,-143.72C76.88,-135.8 79.53,-126.38 81.98,-117.71"/>
<polygon fill="black" stroke="black" points="85.37,-118.58 84.71,-108 78.63,-116.68 85.37,-118.58"/>
</g>
<!-- f1 -->
<g id="node13" class="node">
<title>f1</title>
<g id="a_node13"><a xlink:title="Function ID=1 &#10; contains 0 duplicate subfunctions">
<ellipse fill="lightgreen" stroke="lightgreen" cx="340.5" cy="-18" rx="27" ry="18"/>
<text text-anchor="middle" x="340.5" y="-14.3" font-family="Times,serif" font-size="14.00">X</text>
</a>
</g>
</g>
<!-- f2593&#45;&gt;f1 -->
<g id="edge7" class="edge">
<title>f2593&#45;&gt;f1</title>
<g id="a_edge7"><a xlink:title="Function ID=2593 depends on function ID=1">
<path fill="none" stroke="black" d="M117.32,-81.24C163.53,-68.35 255.99,-42.57 306.18,-28.57"/>
<polygon fill="black" stroke="black" points="307.23,-31.91 315.92,-25.85 305.35,-25.17 307.23,-31.91"/>
</a>
</g>
</g>
<!-- function1 -->
<g id="node3" class="node">
<title>function1</title>
<g id="a_node3"><a xlink:href="inspected-f2593-optimized-1.svg" xlink:title="1st derivative function &#10; contains 3 duplicate subfunctions &#10; contains 3 unique subfunctions &#10; (and is clickable)">
<path fill="red" stroke="red" d="M777.5,-256C777.5,-256 681.5,-256 681.5,-256 675.5,-256 669.5,-250 669.5,-244 669.5,-244 669.5,-230 669.5,-230 669.5,-224 675.5,-218 681.5,-218 681.5,-218 777.5,-218 777.5,-218 783.5,-218 789.5,-224 789.5,-230 789.5,-230 789.5,-244 789.5,-244 789.5,-250 783.5,-256 777.5,-256"/>
<text text-anchor="middle" x="729.5" y="-240.8" font-family="Times,serif" font-size="14.00">(X) ** (5.0) </text>
<text text-anchor="middle" x="729.5" y="-225.8" font-family="Times,serif" font-size="14.00"> 1st derivative</text>
</a>
</g>
</g>
<!-- f2595 -->
<g id="node4" class="node">
<title>f2595</title>
<g id="a_node4"><a xlink:title="Function ID=2595 &#10; contains 2 duplicate subfunctions">
<ellipse fill="lightblue" stroke="lightblue" cx="729.5" cy="-163" rx="32.49" ry="18"/>
<text text-anchor="middle" x="729.5" y="-159.3" font-family="Times,serif" font-size="14.00">5.0 *</text>
</a>
</g>
</g>
<!-- function1&#45;&gt;f2595 -->
<g id="edge2" class="edge">
<title>function1&#45;&gt;f2595</title>
<path fill="none" stroke="black" d="M729.5,-217.83C729.5,-209.89 729.5,-200.41 729.5,-191.63"/>
<polygon fill="black" stroke="black" points="733,-191.42 729.5,-181.42 726,-191.42 733,-191.42"/>
</g>
<!-- f2594 -->
<g id="node33" class="node">
<title>f2594</title>
<g id="a_node33"><a xlink:title="Function ID=2594 &#10; contains 1 duplicate subfunctions">
<ellipse fill="lightblue" stroke="lightblue" cx="699.5" cy="-90" rx="31.4" ry="18"/>
<text text-anchor="middle" x="699.5" y="-86.3" font-family="Times,serif" font-size="14.00"> ** 4</text>
</a>
</g>
</g>
<!-- f2595&#45;&gt;f2594 -->
<g id="edge26" class="edge">
<title>f2595&#45;&gt;f2594</title>
<g id="a_edge26"><a xlink:title="Function ID=2595 depends on function ID=2594">
<path fill="none" stroke="black" d="M722.39,-145.17C718.84,-136.77 714.47,-126.42 710.5,-117.03"/>
<polygon fill="black" stroke="black" points="713.67,-115.55 706.56,-107.71 707.23,-118.28 713.67,-115.55"/>
</a>
</g>
</g>
<!-- function2 -->
<g id="node5" class="node">
<title>function2</title>
<g id="a_node5"><a xlink:href="inspected-f2593-optimized-2.svg" xlink:title="2nd derivative function &#10; contains 5 duplicate subfunctions &#10; contains 5 unique subfunctions &#10; (and is clickable)">
<path fill="red" stroke="red" d="M519,-546C519,-546 418,-546 418,-546 412,-546 406,-540 406,-534 406,-534 406,-520 406,-520 406,-514 412,-508 418,-508 418,-508 519,-508 519,-508 525,-508 531,-514 531,-520 531,-520 531,-534 531,-534 531,-540 525,-546 519,-546"/>
<text text-anchor="middle" x="468.5" y="-530.8" font-family="Times,serif" font-size="14.00">(X) ** (5.0) </text>
<text text-anchor="middle" x="468.5" y="-515.8" font-family="Times,serif" font-size="14.00"> 2nd derivative</text>
</a>
</g>
</g>
<!-- f6417 -->
<g id="node6" class="node">
<title>f6417</title>
<g id="a_node6"><a xlink:title="Function ID=6417 &#10; contains 4 duplicate subfunctions">
<ellipse fill="lightblue" stroke="lightblue" cx="484.5" cy="-454" rx="27" ry="18"/>
<text text-anchor="middle" x="484.5" y="-450.3" font-family="Times,serif" font-size="14.00">+</text>
</a>
</g>
</g>
<!-- function2&#45;&gt;f6417 -->
<g id="edge3" class="edge">
<title>function2&#45;&gt;f6417</title>
<path fill="none" stroke="black" d="M472.62,-507.72C474.38,-499.89 476.48,-490.59 478.42,-481.99"/>
<polygon fill="black" stroke="black" points="481.88,-482.53 480.67,-472 475.06,-480.99 481.88,-482.53"/>
</g>
<!-- f6416 -->
<g id="node23" class="node">
<title>f6416</title>
<g id="a_node23"><a xlink:title="Function ID=6416 &#10; contains 2 duplicate subfunctions">
<ellipse fill="lightblue" stroke="lightblue" cx="484.5" cy="-382" rx="38.19" ry="18"/>
<text text-anchor="middle" x="484.5" y="-378.3" font-family="Times,serif" font-size="14.00">20.0 *</text>
</a>
</g>
</g>
<!-- f6417&#45;&gt;f6416 -->
<g id="edge19" class="edge">
<title>f6417&#45;&gt;f6416</title>
<g id="a_edge19"><a xlink:title="Function ID=6417 depends on function ID=6416">
<path fill="none" stroke="black" d="M484.5,-435.7C484.5,-427.98 484.5,-418.71 484.5,-410.11"/>
<polygon fill="black" stroke="black" points="488,-410.1 484.5,-400.1 481,-410.1 488,-410.1"/>
</a>
</g>
</g>
<!-- f3703 -->
<g id="node40" class="node">
<title>f3703</title>
<g id="a_node40"><a xlink:title="Function ID=3703 &#10; contains 0 duplicate subfunctions">
<ellipse fill="lightgreen" stroke="lightgreen" cx="567.5" cy="-382" rx="27" ry="18"/>
<text text-anchor="middle" x="567.5" y="-378.3" font-family="Times,serif" font-size="14.00">0.0</text>
</a>
</g>
</g>
<!-- f6417&#45;&gt;f3703 -->
<g id="edge9" class="edge">
<title>f6417&#45;&gt;f3703</title>
<g id="a_edge9"><a xlink:title="Function ID=6417 depends on function ID=3703">
<path fill="none" stroke="black" d="M500.9,-439.17C513.14,-428.85 530.05,-414.58 543.77,-403.01"/>
<polygon fill="black" stroke="black" points="546.03,-405.69 551.42,-396.56 541.52,-400.33 546.03,-405.69"/>
</a>
</g>
</g>
<!-- function3 -->
<g id="node7" class="node">
<title>function3</title>
<g id="a_node7"><a xlink:href="inspected-f2593-optimized-3.svg" xlink:title="3rd derivative function &#10; contains 13 duplicate subfunctions &#10; contains 11 unique subfunctions &#10; (and is clickable)">
<path fill="red" stroke="red" d="M697.5,-546C697.5,-546 599.5,-546 599.5,-546 593.5,-546 587.5,-540 587.5,-534 587.5,-534 587.5,-520 587.5,-520 587.5,-514 593.5,-508 599.5,-508 599.5,-508 697.5,-508 697.5,-508 703.5,-508 709.5,-514 709.5,-520 709.5,-520 709.5,-534 709.5,-534 709.5,-540 703.5,-546 697.5,-546"/>
<text text-anchor="middle" x="648.5" y="-530.8" font-family="Times,serif" font-size="14.00">(X) ** (5.0) </text>
<text text-anchor="middle" x="648.5" y="-515.8" font-family="Times,serif" font-size="14.00"> 3rd derivative</text>
</a>
</g>
</g>
<!-- f7078 -->
<g id="node8" class="node">
<title>f7078</title>
<g id="a_node8"><a xlink:title="Function ID=7078 &#10; contains 12 duplicate subfunctions">
<ellipse fill="lightblue" stroke="lightblue" cx="643.5" cy="-454" rx="27" ry="18"/>
<text text-anchor="middle" x="643.5" y="-450.3" font-family="Times,serif" font-size="14.00">+</text>
</a>
</g>
</g>
<!-- function3&#45;&gt;f7078 -->
<g id="edge4" class="edge">
<title>function3&#45;&gt;f7078</title>
<path fill="none" stroke="black" d="M647.21,-507.72C646.66,-499.89 646.01,-490.59 645.4,-481.99"/>
<polygon fill="black" stroke="black" points="648.89,-481.73 644.7,-472 641.91,-482.22 648.89,-481.73"/>
</g>
<!-- f6819 -->
<g id="node36" class="node">
<title>f6819</title>
<g id="a_node36"><a xlink:title="Function ID=6819 &#10; contains 10 duplicate subfunctions">
<ellipse fill="lightblue" stroke="lightblue" cx="643.5" cy="-382" rx="27" ry="18"/>
<text text-anchor="middle" x="643.5" y="-378.3" font-family="Times,serif" font-size="14.00">+</text>
</a>
</g>
</g>
<!-- f7078&#45;&gt;f6819 -->
<g id="edge45" class="edge">
<title>f7078&#45;&gt;f6819</title>
<g id="a_edge45"><a xlink:title="Function ID=7078 depends on function ID=6819">
<path fill="none" stroke="black" d="M643.5,-435.7C643.5,-427.98 643.5,-418.71 643.5,-410.11"/>
<polygon fill="black" stroke="black" points="647,-410.1 643.5,-400.1 640,-410.1 647,-410.1"/>
</a>
</g>
</g>
<!-- f7078&#45;&gt;f3703 -->
<g id="edge12" class="edge">
<title>f7078&#45;&gt;f3703</title>
<g id="a_edge12"><a xlink:title="Function ID=7078 depends on function ID=3703">
<path fill="none" stroke="black" d="M628.12,-438.83C617.3,-428.87 602.64,-415.37 590.45,-404.14"/>
<polygon fill="black" stroke="black" points="592.58,-401.34 582.86,-397.14 587.84,-406.49 592.58,-401.34"/>
</a>
</g>
</g>
<!-- function4 -->
<g id="node9" class="node">
<title>function4</title>
<g id="a_node9"><a xlink:href="inspected-f2593-optimized-4.svg" xlink:title="4th derivative function &#10; contains 29 duplicate subfunctions &#10; contains 22 unique subfunctions &#10; (and is clickable)">
<path fill="red" stroke="red" d="M535.5,-836C535.5,-836 437.5,-836 437.5,-836 431.5,-836 425.5,-830 425.5,-824 425.5,-824 425.5,-810 425.5,-810 425.5,-804 431.5,-798 437.5,-798 437.5,-798 535.5,-798 535.5,-798 541.5,-798 547.5,-804 547.5,-810 547.5,-810 547.5,-824 547.5,-824 547.5,-830 541.5,-836 535.5,-836"/>
<text text-anchor="middle" x="486.5" y="-820.8" font-family="Times,serif" font-size="14.00">(X) ** (5.0) </text>
<text text-anchor="middle" x="486.5" y="-805.8" font-family="Times,serif" font-size="14.00"> 4th derivative</text>
</a>
</g>
</g>
<!-- f7084 -->
<g id="node10" class="node">
<title>f7084</title>
<g id="a_node10"><a xlink:title="Function ID=7084 &#10; contains 28 duplicate subfunctions">
<ellipse fill="lightblue" stroke="lightblue" cx="486.5" cy="-744" rx="27" ry="18"/>
<text text-anchor="middle" x="486.5" y="-740.3" font-family="Times,serif" font-size="14.00">+</text>
</a>
</g>
</g>
<!-- function4&#45;&gt;f7084 -->
<g id="edge5" class="edge">
<title>function4&#45;&gt;f7084</title>
<path fill="none" stroke="black" d="M486.5,-797.72C486.5,-789.97 486.5,-780.79 486.5,-772.27"/>
<polygon fill="black" stroke="black" points="490,-772 486.5,-762 483,-772 490,-772"/>
</g>
<!-- f7019 -->
<g id="node39" class="node">
<title>f7019</title>
<g id="a_node39"><a xlink:title="Function ID=7019 &#10; contains 26 duplicate subfunctions">
<ellipse fill="lightblue" stroke="lightblue" cx="459.5" cy="-672" rx="27" ry="18"/>
<text text-anchor="middle" x="459.5" y="-668.3" font-family="Times,serif" font-size="14.00">+</text>
</a>
</g>
</g>
<!-- f7084&#45;&gt;f7019 -->
<g id="edge40" class="edge">
<title>f7084&#45;&gt;f7019</title>
<g id="a_edge40"><a xlink:title="Function ID=7084 depends on function ID=7019">
<path fill="none" stroke="black" d="M480.1,-726.41C476.99,-718.34 473.17,-708.43 469.67,-699.35"/>
<polygon fill="black" stroke="black" points="472.9,-698.03 466.04,-689.96 466.37,-700.55 472.9,-698.03"/>
</a>
</g>
</g>
<!-- f7084&#45;&gt;f3703 -->
<g id="edge10" class="edge">
<title>f7084&#45;&gt;f3703</title>
<g id="a_edge10"><a xlink:title="Function ID=7084 depends on function ID=3703">
<path fill="none" stroke="black" d="M500.23,-728.12C521.38,-703.6 559.5,-652.28 559.5,-601 559.5,-601 559.5,-601 559.5,-526 559.5,-485.65 562.71,-439 565.07,-410.25"/>
<polygon fill="black" stroke="black" points="568.57,-410.41 565.92,-400.15 561.59,-409.82 568.57,-410.41"/>
</a>
</g>
</g>
<!-- function5 -->
<g id="node11" class="node">
<title>function5</title>
<g id="a_node11"><a xlink:href="inspected-f2593-optimized-5.svg" xlink:title="5th derivative function &#10; contains 1 duplicate subfunctions &#10; contains 1 unique subfunctions &#10; (and is clickable)">
<path fill="red" stroke="red" d="M675.5,-836C675.5,-836 577.5,-836 577.5,-836 571.5,-836 565.5,-830 565.5,-824 565.5,-824 565.5,-810 565.5,-810 565.5,-804 571.5,-798 577.5,-798 577.5,-798 675.5,-798 675.5,-798 681.5,-798 687.5,-804 687.5,-810 687.5,-810 687.5,-824 687.5,-824 687.5,-830 681.5,-836 675.5,-836"/>
<text text-anchor="middle" x="626.5" y="-820.8" font-family="Times,serif" font-size="14.00">(X) ** (5.0) </text>
<text text-anchor="middle" x="626.5" y="-805.8" font-family="Times,serif" font-size="14.00"> 5th derivative</text>
</a>
</g>
</g>
<!-- f4241 -->
<g id="node12" class="node">
<title>f4241</title>
<g id="a_node12"><a xlink:title="Function ID=4241 &#10; contains 0 duplicate subfunctions">
<ellipse fill="lightgreen" stroke="lightgreen" cx="626.5" cy="-744" rx="37.09" ry="18"/>
<text text-anchor="middle" x="626.5" y="-740.3" font-family="Times,serif" font-size="14.00">120.0</text>
</a>
</g>
</g>
<!-- function5&#45;&gt;f4241 -->
<g id="edge6" class="edge">
<title>function5&#45;&gt;f4241</title>
<path fill="none" stroke="black" d="M626.5,-797.72C626.5,-789.97 626.5,-780.79 626.5,-772.27"/>
<polygon fill="black" stroke="black" points="630,-772 626.5,-762 623,-772 630,-772"/>
</g>
<!-- f6980 -->
<g id="node14" class="node">
<title>f6980</title>
<g id="a_node14"><a xlink:title="Function ID=6980 &#10; contains 1 duplicate subfunctions">
<ellipse fill="lightblue" stroke="lightblue" cx="227.5" cy="-90" rx="32.49" ry="18"/>
<text text-anchor="middle" x="227.5" y="-86.3" font-family="Times,serif" font-size="14.00">6.0 *</text>
</a>
</g>
</g>
<!-- f6980&#45;&gt;f1 -->
<g id="edge46" class="edge">
<title>f6980&#45;&gt;f1</title>
<g id="a_edge46"><a xlink:title="Function ID=6980 depends on function ID=1">
<path fill="none" stroke="black" d="M248.49,-76C266.53,-64.82 292.7,-48.61 312.52,-36.33"/>
<polygon fill="black" stroke="black" points="314.47,-39.24 321.13,-31 310.79,-33.29 314.47,-39.24"/>
</a>
</g>
</g>
<!-- f6981 -->
<g id="node15" class="node">
<title>f6981</title>
<g id="a_node15"><a xlink:title="Function ID=6981 &#10; contains 6 duplicate subfunctions">
<ellipse fill="lightblue" stroke="lightblue" cx="261.5" cy="-237" rx="27" ry="18"/>
<text text-anchor="middle" x="261.5" y="-233.3" font-family="Times,serif" font-size="14.00">+</text>
</a>
</g>
</g>
<!-- f6981&#45;&gt;f6980 -->
<g id="edge24" class="edge">
<title>f6981&#45;&gt;f6980</title>
<g id="a_edge24"><a xlink:title="Function ID=6981 depends on function ID=6980">
<path fill="none" stroke="black" d="M247.75,-221.26C239.23,-211.08 229.07,-196.76 224.5,-182 218.09,-161.3 219.4,-136.67 222.01,-118.26"/>
<polygon fill="black" stroke="black" points="225.49,-118.65 223.64,-108.22 218.58,-117.52 225.49,-118.65"/>
</a>
</g>
</g>
<!-- f6842 -->
<g id="node42" class="node">
<title>f6842</title>
<g id="a_node42"><a xlink:title="Function ID=6842 &#10; contains 3 duplicate subfunctions">
<ellipse fill="lightblue" stroke="lightblue" cx="265.5" cy="-163" rx="32.49" ry="18"/>
<text text-anchor="middle" x="265.5" y="-159.3" font-family="Times,serif" font-size="14.00">0.0 *</text>
</a>
</g>
</g>
<!-- f6981&#45;&gt;f6842 -->
<g id="edge17" class="edge">
<title>f6981&#45;&gt;f6842</title>
<g id="a_edge17"><a xlink:title="Function ID=6981 depends on function ID=6842">
<path fill="none" stroke="black" d="M262.45,-218.94C262.9,-210.81 263.45,-200.88 263.96,-191.7"/>
<polygon fill="black" stroke="black" points="267.47,-191.62 264.53,-181.44 260.48,-191.23 267.47,-191.62"/>
</a>
</g>
</g>
<!-- f6853 -->
<g id="node16" class="node">
<title>f6853</title>
<g id="a_node16"><a xlink:title="Function ID=6853 &#10; contains 2 duplicate subfunctions">
<ellipse fill="lightblue" stroke="lightblue" cx="169.5" cy="-237" rx="27" ry="18"/>
<text text-anchor="middle" x="169.5" y="-233.3" font-family="Times,serif" font-size="14.00">*</text>
</a>
</g>
</g>
<!-- f6853&#45;&gt;f1 -->
<g id="edge28" class="edge">
<title>f6853&#45;&gt;f1</title>
<g id="a_edge28"><a xlink:title="Function ID=6853 depends on function ID=1">
<path fill="none" stroke="black" d="M165.84,-218.95C159.92,-186.5 152.14,-115.26 186.5,-72 214.59,-36.64 267.58,-24.77 303.46,-20.84"/>
<polygon fill="black" stroke="black" points="303.92,-24.32 313.55,-19.9 303.27,-17.35 303.92,-24.32"/>
</a>
</g>
</g>
<!-- f6854 -->
<g id="node17" class="node">
<title>f6854</title>
<g id="a_node17"><a xlink:title="Function ID=6854 &#10; contains 3 duplicate subfunctions">
<ellipse fill="lightblue" stroke="lightblue" cx="176.5" cy="-310" rx="32.49" ry="18"/>
<text text-anchor="middle" x="176.5" y="-306.3" font-family="Times,serif" font-size="14.00">0.0 *</text>
</a>
</g>
</g>
<!-- f6854&#45;&gt;f6853 -->
<g id="edge43" class="edge">
<title>f6854&#45;&gt;f6853</title>
<g id="a_edge43"><a xlink:title="Function ID=6854 depends on function ID=6853">
<path fill="none" stroke="black" d="M174.81,-291.81C174.01,-283.79 173.05,-274.05 172.17,-265.07"/>
<polygon fill="black" stroke="black" points="175.64,-264.64 171.18,-255.03 168.68,-265.32 175.64,-264.64"/>
</a>
</g>
</g>
<!-- f3782 -->
<g id="node18" class="node">
<title>f3782</title>
<g id="a_node18"><a xlink:title="Function ID=3782 &#10; contains 0 duplicate subfunctions">
<ellipse fill="lightgreen" stroke="lightgreen" cx="276.5" cy="-527" rx="27" ry="18"/>
<text text-anchor="middle" x="276.5" y="-523.3" font-family="Times,serif" font-size="14.00">0.0</text>
</a>
</g>
</g>
<!-- f3722 -->
<g id="node19" class="node">
<title>f3722</title>
<g id="a_node19"><a xlink:title="Function ID=3722 &#10; contains 0 duplicate subfunctions">
<ellipse fill="lightgreen" stroke="lightgreen" cx="672.5" cy="-310" rx="27" ry="18"/>
<text text-anchor="middle" x="672.5" y="-306.3" font-family="Times,serif" font-size="14.00">0.0</text>
</a>
</g>
</g>
<!-- f6541 -->
<g id="node20" class="node">
<title>f6541</title>
<g id="a_node20"><a xlink:title="Function ID=6541 &#10; contains 2 duplicate subfunctions">
<ellipse fill="lightblue" stroke="lightblue" cx="431.5" cy="-163" rx="32.49" ry="18"/>
<text text-anchor="middle" x="431.5" y="-159.3" font-family="Times,serif" font-size="14.00">0.0 *</text>
</a>
</g>
</g>
<!-- f2598 -->
<g id="node37" class="node">
<title>f2598</title>
<g id="a_node37"><a xlink:title="Function ID=2598 &#10; contains 1 duplicate subfunctions">
<ellipse fill="lightblue" stroke="lightblue" cx="471.5" cy="-90" rx="31.4" ry="18"/>
<text text-anchor="middle" x="471.5" y="-86.3" font-family="Times,serif" font-size="14.00"> ** 3</text>
</a>
</g>
</g>
<!-- f6541&#45;&gt;f2598 -->
<g id="edge38" class="edge">
<title>f6541&#45;&gt;f2598</title>
<g id="a_edge38"><a xlink:title="Function ID=6541 depends on function ID=2598">
<path fill="none" stroke="black" d="M440.78,-145.53C445.67,-136.84 451.79,-125.99 457.27,-116.26"/>
<polygon fill="black" stroke="black" points="460.41,-117.81 462.27,-107.38 454.32,-114.37 460.41,-117.81"/>
</a>
</g>
</g>
<!-- f6990 -->
<g id="node21" class="node">
<title>f6990</title>
<g id="a_node21"><a xlink:title="Function ID=6990 &#10; contains 7 duplicate subfunctions">
<ellipse fill="lightblue" stroke="lightblue" cx="261.5" cy="-310" rx="32.49" ry="18"/>
<text text-anchor="middle" x="261.5" y="-306.3" font-family="Times,serif" font-size="14.00">4.0 *</text>
</a>
</g>
</g>
<!-- f6990&#45;&gt;f6981 -->
<g id="edge36" class="edge">
<title>f6990&#45;&gt;f6981</title>
<g id="a_edge36"><a xlink:title="Function ID=6990 depends on function ID=6981">
<path fill="none" stroke="black" d="M261.5,-291.81C261.5,-283.79 261.5,-274.05 261.5,-265.07"/>
<polygon fill="black" stroke="black" points="265,-265.03 261.5,-255.03 258,-265.03 265,-265.03"/>
</a>
</g>
</g>
<!-- f6991 -->
<g id="node22" class="node">
<title>f6991</title>
<g id="a_node22"><a xlink:title="Function ID=6991 &#10; contains 12 duplicate subfunctions">
<ellipse fill="lightblue" stroke="lightblue" cx="261.5" cy="-382" rx="27" ry="18"/>
<text text-anchor="middle" x="261.5" y="-378.3" font-family="Times,serif" font-size="14.00">+</text>
</a>
</g>
</g>
<!-- f6991&#45;&gt;f6854 -->
<g id="edge15" class="edge">
<title>f6991&#45;&gt;f6854</title>
<g id="a_edge15"><a xlink:title="Function ID=6991 depends on function ID=6854">
<path fill="none" stroke="black" d="M245.11,-367.5C232.85,-357.41 215.86,-343.41 201.85,-331.88"/>
<polygon fill="black" stroke="black" points="203.95,-329.07 194.01,-325.42 199.5,-334.48 203.95,-329.07"/>
</a>
</g>
</g>
<!-- f6991&#45;&gt;f6990 -->
<g id="edge23" class="edge">
<title>f6991&#45;&gt;f6990</title>
<g id="a_edge23"><a xlink:title="Function ID=6991 depends on function ID=6990">
<path fill="none" stroke="black" d="M261.5,-363.7C261.5,-355.98 261.5,-346.71 261.5,-338.11"/>
<polygon fill="black" stroke="black" points="265,-338.1 261.5,-328.1 258,-338.1 265,-338.1"/>
</a>
</g>
</g>
<!-- f6416&#45;&gt;f2598 -->
<g id="edge16" class="edge">
<title>f6416&#45;&gt;f2598</title>
<g id="a_edge16"><a xlink:title="Function ID=6416 depends on function ID=2598">
<path fill="none" stroke="black" d="M483.73,-363.73C481.55,-315.17 475.36,-177.17 472.72,-118.23"/>
<polygon fill="black" stroke="black" points="476.21,-118.02 472.27,-108.18 469.22,-118.33 476.21,-118.02"/>
</a>
</g>
</g>
<!-- f6864 -->
<g id="node24" class="node">
<title>f6864</title>
<g id="a_node24"><a xlink:title="Function ID=6864 &#10; contains 2 duplicate subfunctions">
<ellipse fill="lightblue" stroke="lightblue" cx="376.5" cy="-90" rx="27" ry="18"/>
<text text-anchor="middle" x="376.5" y="-86.3" font-family="Times,serif" font-size="14.00">*</text>
</a>
</g>
</g>
<!-- f6864&#45;&gt;f1 -->
<g id="edge34" class="edge">
<title>f6864&#45;&gt;f1</title>
<g id="a_edge34"><a xlink:title="Function ID=6864 depends on function ID=1">
<path fill="none" stroke="black" d="M368.15,-72.76C363.79,-64.28 358.35,-53.71 353.46,-44.2"/>
<polygon fill="black" stroke="black" points="356.49,-42.44 348.8,-35.15 350.27,-45.64 356.49,-42.44"/>
</a>
</g>
</g>
<!-- f6865 -->
<g id="node25" class="node">
<title>f6865</title>
<g id="a_node25"><a xlink:title="Function ID=6865 &#10; contains 3 duplicate subfunctions">
<ellipse fill="lightblue" stroke="lightblue" cx="348.5" cy="-163" rx="32.49" ry="18"/>
<text text-anchor="middle" x="348.5" y="-159.3" font-family="Times,serif" font-size="14.00">0.0 *</text>
</a>
</g>
</g>
<!-- f6865&#45;&gt;f6864 -->
<g id="edge25" class="edge">
<title>f6865&#45;&gt;f6864</title>
<g id="a_edge25"><a xlink:title="Function ID=6865 depends on function ID=6864">
<path fill="none" stroke="black" d="M355.14,-145.17C358.45,-136.77 362.53,-126.42 366.24,-117.03"/>
<polygon fill="black" stroke="black" points="369.5,-118.29 369.91,-107.71 362.99,-115.72 369.5,-118.29"/>
</a>
</g>
</g>
<!-- f6866 -->
<g id="node26" class="node">
<title>f6866</title>
<g id="a_node26"><a xlink:title="Function ID=6866 &#10; contains 7 duplicate subfunctions">
<ellipse fill="lightblue" stroke="lightblue" cx="351.5" cy="-237" rx="27" ry="18"/>
<text text-anchor="middle" x="351.5" y="-233.3" font-family="Times,serif" font-size="14.00">+</text>
</a>
</g>
</g>
<!-- f6866&#45;&gt;f6541 -->
<g id="edge37" class="edge">
<title>f6866&#45;&gt;f6541</title>
<g id="a_edge37"><a xlink:title="Function ID=6866 depends on function ID=6541">
<path fill="none" stroke="black" d="M366.92,-222.12C378.36,-211.83 394.16,-197.61 407.27,-185.81"/>
<polygon fill="black" stroke="black" points="409.93,-188.12 415.02,-178.83 405.25,-182.92 409.93,-188.12"/>
</a>
</g>
</g>
<!-- f6866&#45;&gt;f6865 -->
<g id="edge44" class="edge">
<title>f6866&#45;&gt;f6865</title>
<g id="a_edge44"><a xlink:title="Function ID=6866 depends on function ID=6865">
<path fill="none" stroke="black" d="M350.79,-218.94C350.45,-210.81 350.04,-200.88 349.65,-191.7"/>
<polygon fill="black" stroke="black" points="353.14,-191.29 349.23,-181.44 346.15,-191.58 353.14,-191.29"/>
</a>
</g>
</g>
<!-- f6807 -->
<g id="node27" class="node">
<title>f6807</title>
<g id="a_node27"><a xlink:title="Function ID=6807 &#10; contains 2 duplicate subfunctions">
<ellipse fill="lightblue" stroke="lightblue" cx="593.5" cy="-90" rx="27" ry="18"/>
<text text-anchor="middle" x="593.5" y="-86.3" font-family="Times,serif" font-size="14.00">*</text>
</a>
</g>
</g>
<!-- f6807&#45;&gt;f1 -->
<g id="edge11" class="edge">
<title>f6807&#45;&gt;f1</title>
<g id="a_edge11"><a xlink:title="Function ID=6807 depends on function ID=1">
<path fill="none" stroke="black" d="M568.78,-82.16C523.32,-69.58 426.37,-42.76 374.66,-28.45"/>
<polygon fill="black" stroke="black" points="375.52,-25.06 364.95,-25.76 373.65,-31.8 375.52,-25.06"/>
</a>
</g>
</g>
<!-- f6808 -->
<g id="node28" class="node">
<title>f6808</title>
<g id="a_node28"><a xlink:title="Function ID=6808 &#10; contains 3 duplicate subfunctions">
<ellipse fill="lightblue" stroke="lightblue" cx="640.5" cy="-163" rx="38.19" ry="18"/>
<text text-anchor="middle" x="640.5" y="-159.3" font-family="Times,serif" font-size="14.00">12.0 *</text>
</a>
</g>
</g>
<!-- f6808&#45;&gt;f6807 -->
<g id="edge39" class="edge">
<title>f6808&#45;&gt;f6807</title>
<g id="a_edge39"><a xlink:title="Function ID=6808 depends on function ID=6807">
<path fill="none" stroke="black" d="M629.6,-145.53C623.64,-136.53 616.15,-125.22 609.54,-115.23"/>
<polygon fill="black" stroke="black" points="612.46,-113.3 604.02,-106.89 606.62,-117.16 612.46,-113.3"/>
</a>
</g>
</g>
<!-- f6809 -->
<g id="node29" class="node">
<title>f6809</title>
<g id="a_node29"><a xlink:title="Function ID=6809 &#10; contains 7 duplicate subfunctions">
<ellipse fill="lightblue" stroke="lightblue" cx="595.5" cy="-237" rx="27" ry="18"/>
<text text-anchor="middle" x="595.5" y="-233.3" font-family="Times,serif" font-size="14.00">+</text>
</a>
</g>
</g>
<!-- f6809&#45;&gt;f6808 -->
<g id="edge21" class="edge">
<title>f6809&#45;&gt;f6808</title>
<g id="a_edge21"><a xlink:title="Function ID=6809 depends on function ID=6808">
<path fill="none" stroke="black" d="M605.49,-220.02C611.17,-210.92 618.43,-199.32 624.85,-189.03"/>
<polygon fill="black" stroke="black" points="627.9,-190.77 630.23,-180.43 621.96,-187.06 627.9,-190.77"/>
</a>
</g>
</g>
<!-- f6442 -->
<g id="node38" class="node">
<title>f6442</title>
<g id="a_node38"><a xlink:title="Function ID=6442 &#10; contains 2 duplicate subfunctions">
<ellipse fill="lightblue" stroke="lightblue" cx="551.5" cy="-163" rx="32.49" ry="18"/>
<text text-anchor="middle" x="551.5" y="-159.3" font-family="Times,serif" font-size="14.00">0.0 *</text>
</a>
</g>
</g>
<!-- f6809&#45;&gt;f6442 -->
<g id="edge33" class="edge">
<title>f6809&#45;&gt;f6442</title>
<g id="a_edge33"><a xlink:title="Function ID=6809 depends on function ID=6442">
<path fill="none" stroke="black" d="M585.73,-220.02C580.13,-210.86 572.98,-199.15 566.67,-188.82"/>
<polygon fill="black" stroke="black" points="569.59,-186.89 561.39,-180.18 563.62,-190.54 569.59,-186.89"/>
</a>
</g>
</g>
<!-- f3804 -->
<g id="node30" class="node">
<title>f3804</title>
<g id="a_node30"><a xlink:title="Function ID=3804 &#10; contains 0 duplicate subfunctions">
<ellipse fill="lightgreen" stroke="lightgreen" cx="459.5" cy="-600" rx="27" ry="18"/>
<text text-anchor="middle" x="459.5" y="-596.3" font-family="Times,serif" font-size="14.00">0.0</text>
</a>
</g>
</g>
<!-- f7008 -->
<g id="node31" class="node">
<title>f7008</title>
<g id="a_node31"><a xlink:title="Function ID=7008 &#10; contains 21 duplicate subfunctions">
<ellipse fill="lightblue" stroke="lightblue" cx="351.5" cy="-454" rx="27" ry="18"/>
<text text-anchor="middle" x="351.5" y="-450.3" font-family="Times,serif" font-size="14.00">+</text>
</a>
</g>
</g>
<!-- f7008&#45;&gt;f6991 -->
<g id="edge31" class="edge">
<title>f7008&#45;&gt;f6991</title>
<g id="a_edge31"><a xlink:title="Function ID=7008 depends on function ID=6991">
<path fill="none" stroke="black" d="M334.57,-439.83C321,-429.27 301.74,-414.3 286.41,-402.37"/>
<polygon fill="black" stroke="black" points="288.39,-399.48 278.35,-396.11 284.1,-405.01 288.39,-399.48"/>
</a>
</g>
</g>
<!-- f7008&#45;&gt;f6866 -->
<g id="edge32" class="edge">
<title>f7008&#45;&gt;f6866</title>
<g id="a_edge32"><a xlink:title="Function ID=7008 depends on function ID=6866">
<path fill="none" stroke="black" d="M351.5,-435.77C351.5,-398.49 351.5,-310.08 351.5,-265.18"/>
<polygon fill="black" stroke="black" points="355,-265.01 351.5,-255.01 348,-265.01 355,-265.01"/>
</a>
</g>
</g>
<!-- f7009 -->
<g id="node32" class="node">
<title>f7009</title>
<g id="a_node32"><a xlink:title="Function ID=7009 &#10; contains 22 duplicate subfunctions">
<ellipse fill="lightblue" stroke="lightblue" cx="353.5" cy="-527" rx="32.49" ry="18"/>
<text text-anchor="middle" x="353.5" y="-523.3" font-family="Times,serif" font-size="14.00">5.0 *</text>
</a>
</g>
</g>
<!-- f7009&#45;&gt;f7008 -->
<g id="edge22" class="edge">
<title>f7009&#45;&gt;f7008</title>
<g id="a_edge22"><a xlink:title="Function ID=7009 depends on function ID=7008">
<path fill="none" stroke="black" d="M353.02,-508.81C352.79,-500.79 352.52,-491.05 352.26,-482.07"/>
<polygon fill="black" stroke="black" points="355.76,-481.93 351.98,-472.03 348.76,-482.12 355.76,-481.93"/>
</a>
</g>
</g>
<!-- f2594&#45;&gt;f1 -->
<g id="edge27" class="edge">
<title>f2594&#45;&gt;f1</title>
<g id="a_edge27"><a xlink:title="Function ID=2594 depends on function ID=1">
<path fill="none" stroke="black" d="M671.65,-81.85C658.85,-78.67 643.44,-74.97 629.5,-72 538.8,-52.69 431.19,-34.08 376.42,-24.91"/>
<polygon fill="black" stroke="black" points="376.94,-21.45 366.5,-23.26 375.79,-28.36 376.94,-21.45"/>
</a>
</g>
</g>
<!-- f6818 -->
<g id="node34" class="node">
<title>f6818</title>
<g id="a_node34"><a xlink:title="Function ID=6818 &#10; contains 8 duplicate subfunctions">
<ellipse fill="lightblue" stroke="lightblue" cx="595.5" cy="-310" rx="32.49" ry="18"/>
<text text-anchor="middle" x="595.5" y="-306.3" font-family="Times,serif" font-size="14.00">5.0 *</text>
</a>
</g>
</g>
<!-- f6818&#45;&gt;f6809 -->
<g id="edge35" class="edge">
<title>f6818&#45;&gt;f6809</title>
<g id="a_edge35"><a xlink:title="Function ID=6818 depends on function ID=6809">
<path fill="none" stroke="black" d="M595.5,-291.81C595.5,-283.79 595.5,-274.05 595.5,-265.07"/>
<polygon fill="black" stroke="black" points="599,-265.03 595.5,-255.03 592,-265.03 599,-265.03"/>
</a>
</g>
</g>
<!-- f7010 -->
<g id="node35" class="node">
<title>f7010</title>
<g id="a_node35"><a xlink:title="Function ID=7010 &#10; contains 24 duplicate subfunctions">
<ellipse fill="lightblue" stroke="lightblue" cx="353.5" cy="-600" rx="27" ry="18"/>
<text text-anchor="middle" x="353.5" y="-596.3" font-family="Times,serif" font-size="14.00">+</text>
</a>
</g>
</g>
<!-- f7010&#45;&gt;f3782 -->
<g id="edge29" class="edge">
<title>f7010&#45;&gt;f3782</title>
<g id="a_edge29"><a xlink:title="Function ID=7010 depends on function ID=3782">
<path fill="none" stroke="black" d="M338.29,-584.97C327.11,-574.66 311.73,-560.49 299.12,-548.86"/>
<polygon fill="black" stroke="black" points="301.41,-546.2 291.68,-542 296.66,-551.35 301.41,-546.2"/>
</a>
</g>
</g>
<!-- f7010&#45;&gt;f7009 -->
<g id="edge41" class="edge">
<title>f7010&#45;&gt;f7009</title>
<g id="a_edge41"><a xlink:title="Function ID=7010 depends on function ID=7009">
<path fill="none" stroke="black" d="M353.5,-581.81C353.5,-573.79 353.5,-564.05 353.5,-555.07"/>
<polygon fill="black" stroke="black" points="357,-555.03 353.5,-545.03 350,-555.03 357,-555.03"/>
</a>
</g>
</g>
<!-- f6819&#45;&gt;f3722 -->
<g id="edge8" class="edge">
<title>f6819&#45;&gt;f3722</title>
<g id="a_edge8"><a xlink:title="Function ID=6819 depends on function ID=3722">
<path fill="none" stroke="black" d="M650.37,-364.41C653.77,-356.22 657.94,-346.14 661.75,-336.95"/>
<polygon fill="black" stroke="black" points="665.08,-338.05 665.68,-327.47 658.62,-335.37 665.08,-338.05"/>
</a>
</g>
</g>
<!-- f6819&#45;&gt;f6818 -->
<g id="edge20" class="edge">
<title>f6819&#45;&gt;f6818</title>
<g id="a_edge20"><a xlink:title="Function ID=6819 depends on function ID=6818">
<path fill="none" stroke="black" d="M632.61,-365.12C626.68,-356.47 619.21,-345.58 612.53,-335.83"/>
<polygon fill="black" stroke="black" points="615.22,-333.57 606.68,-327.31 609.45,-337.53 615.22,-333.57"/>
</a>
</g>
</g>
<!-- f2598&#45;&gt;f1 -->
<g id="edge18" class="edge">
<title>f2598&#45;&gt;f1</title>
<g id="a_edge18"><a xlink:title="Function ID=2598 depends on function ID=1">
<path fill="none" stroke="black" d="M449.28,-77.13C427.5,-65.49 394.16,-47.67 370.13,-34.83"/>
<polygon fill="black" stroke="black" points="371.57,-31.63 361.1,-30.01 368.27,-37.81 371.57,-31.63"/>
</a>
</g>
</g>
<!-- f6442&#45;&gt;f2598 -->
<g id="edge47" class="edge">
<title>f6442&#45;&gt;f2598</title>
<g id="a_edge47"><a xlink:title="Function ID=6442 depends on function ID=2598">
<path fill="none" stroke="black" d="M534.92,-147.29C523.48,-137.13 508.08,-123.47 495.32,-112.14"/>
<polygon fill="black" stroke="black" points="497.58,-109.47 487.78,-105.45 492.94,-114.71 497.58,-109.47"/>
</a>
</g>
</g>
<!-- f7019&#45;&gt;f3804 -->
<g id="edge13" class="edge">
<title>f7019&#45;&gt;f3804</title>
<g id="a_edge13"><a xlink:title="Function ID=7019 depends on function ID=3804">
<path fill="none" stroke="black" d="M459.5,-653.7C459.5,-645.98 459.5,-636.71 459.5,-628.11"/>
<polygon fill="black" stroke="black" points="463,-628.1 459.5,-618.1 456,-628.1 463,-628.1"/>
</a>
</g>
</g>
<!-- f7019&#45;&gt;f7010 -->
<g id="edge14" class="edge">
<title>f7019&#45;&gt;f7010</title>
<g id="a_edge14"><a xlink:title="Function ID=7019 depends on function ID=7010">
<path fill="none" stroke="black" d="M441.04,-658.81C424.34,-647.78 399.55,-631.41 380.61,-618.9"/>
<polygon fill="black" stroke="black" points="382.38,-615.88 372.11,-613.29 378.52,-621.72 382.38,-615.88"/>
</a>
</g>
</g>
<!-- f6841 -->
<g id="node41" class="node">
<title>f6841</title>
<g id="a_node41"><a xlink:title="Function ID=6841 &#10; contains 2 duplicate subfunctions">
<ellipse fill="lightblue" stroke="lightblue" cx="304.5" cy="-90" rx="27" ry="18"/>
<text text-anchor="middle" x="304.5" y="-86.3" font-family="Times,serif" font-size="14.00">*</text>
</a>
</g>
</g>
<!-- f6841&#45;&gt;f1 -->
<g id="edge30" class="edge">
<title>f6841&#45;&gt;f1</title>
<g id="a_edge30"><a xlink:title="Function ID=6841 depends on function ID=1">
<path fill="none" stroke="black" d="M312.85,-72.76C317.21,-64.28 322.65,-53.71 327.54,-44.2"/>
<polygon fill="black" stroke="black" points="330.73,-45.64 332.2,-35.15 324.51,-42.44 330.73,-45.64"/>
</a>
</g>
</g>
<!-- f6842&#45;&gt;f6841 -->
<g id="edge42" class="edge">
<title>f6842&#45;&gt;f6841</title>
<g id="a_edge42"><a xlink:title="Function ID=6842 depends on function ID=6841">
<path fill="none" stroke="black" d="M274.55,-145.53C279.32,-136.84 285.28,-125.99 290.63,-116.26"/>
<polygon fill="black" stroke="black" points="293.76,-117.83 295.5,-107.38 287.62,-114.46 293.76,-117.83"/>
</a>
</g>
</g>
</g>
</svg>
