<?xml version="1.0" encoding="UTF-8" standalone="no"?>
<!DOCTYPE svg PUBLIC "-//W3C//DTD SVG 1.1//EN"
 "http://www.w3.org/Graphics/SVG/1.1/DTD/svg11.dtd">
<!-- Generated by graphviz version 2.43.0 (0)
 -->
<!-- Title: %3 Pages: 1 -->
<svg width="354pt" height="408pt"
 viewBox="0.00 0.00 354.00 408.00" xmlns="http://www.w3.org/2000/svg" xmlns:xlink="http://www.w3.org/1999/xlink">
<g id="graph0" class="graph" transform="scale(1 1) rotate(0) translate(4 404)">
<title>%3</title>
<g id="a_graph0"><a xlink:title="Hey! Notice that red nodes are clickable and &#10; tooltips contain additional information!">
<polygon fill="white" stroke="transparent" points="-4,4 -4,-404 350,-404 350,4 -4,4"/>
</a>
</g>
<!-- function0 -->
<g id="node1" class="node">
<title>function0</title>
<g id="a_node1"><a xlink:href="inspected-f105-graph-0.svg" xlink:title="original function &#10; contains 3 duplicate subfunctions &#10; contains 3 unique subfunctions &#10; (and is clickable)">
<path fill="red" stroke="red" d="M127,-254C127,-254 12,-254 12,-254 6,-254 0,-248 0,-242 0,-242 0,-228 0,-228 0,-222 6,-216 12,-216 12,-216 127,-216 127,-216 133,-216 139,-222 139,-228 139,-228 139,-242 139,-242 139,-248 133,-254 127,-254"/>
<text text-anchor="middle" x="69.5" y="-238.8" font-family="Times,serif" font-size="14.00">(2.0) ** (Sin(X)) </text>
<text text-anchor="middle" x="69.5" y="-223.8" font-family="Times,serif" font-size="14.00"> original function</text>
</a>
</g>
</g>
<!-- f105 -->
<g id="node2" class="node">
<title>f105</title>
<g id="a_node2"><a xlink:title="Function ID=105 &#10; contains 2 duplicate subfunctions">
<ellipse fill="lightblue" stroke="lightblue" cx="69.5" cy="-162" rx="40.09" ry="18"/>
<text text-anchor="middle" x="69.5" y="-158.3" font-family="Times,serif" font-size="14.00">2.0 ** </text>
</a>
</g>
</g>
<!-- function0&#45;&gt;f105 -->
<g id="edge1" class="edge">
<title>function0&#45;&gt;f105</title>
<path fill="none" stroke="black" d="M69.5,-215.72C69.5,-207.97 69.5,-198.79 69.5,-190.27"/>
<polygon fill="black" stroke="black" points="73,-190 69.5,-180 66,-190 73,-190"/>
</g>
<!-- f3 -->
<g id="node7" class="node">
<title>f3</title>
<g id="a_node7"><a xlink:title="Function ID=3 &#10; contains 1 duplicate subfunctions">
<ellipse fill="lightblue" stroke="lightblue" cx="116.5" cy="-90" rx="27" ry="18"/>
<text text-anchor="middle" x="116.5" y="-86.3" font-family="Times,serif" font-size="14.00">Sin</text>
</a>
</g>
</g>
<!-- f105&#45;&gt;f3 -->
<g id="edge6" class="edge">
<title>f105&#45;&gt;f3</title>
<g id="a_edge6"><a xlink:title="Function ID=105 depends on function ID=3">
<path fill="none" stroke="black" d="M80.64,-144.41C86.46,-135.74 93.69,-124.97 100.13,-115.38"/>
<polygon fill="black" stroke="black" points="103.1,-117.24 105.77,-106.99 97.28,-113.34 103.1,-117.24"/>
</a>
</g>
</g>
<!-- function1 -->
<g id="node3" class="node">
<title>function1</title>
<g id="a_node3"><a xlink:href="inspected-f105-graph-1.svg" xlink:title="1st derivative function &#10; contains 11 duplicate subfunctions &#10; contains 9 unique subfunctions &#10; (and is clickable)">
<path fill="red" stroke="red" d="M334,-400C334,-400 227,-400 227,-400 221,-400 215,-394 215,-388 215,-388 215,-374 215,-374 215,-368 221,-362 227,-362 227,-362 334,-362 334,-362 340,-362 346,-368 346,-374 346,-374 346,-388 346,-388 346,-394 340,-400 334,-400"/>
<text text-anchor="middle" x="280.5" y="-384.8" font-family="Times,serif" font-size="14.00">(2.0) ** (Sin(X)) </text>
<text text-anchor="middle" x="280.5" y="-369.8" font-family="Times,serif" font-size="14.00"> 1st derivative</text>
</a>
</g>
</g>
<!-- f110 -->
<g id="node4" class="node">
<title>f110</title>
<g id="a_node4"><a xlink:title="Function ID=110 &#10; contains 10 duplicate subfunctions">
<ellipse fill="lightblue" stroke="lightblue" cx="280.5" cy="-308" rx="27" ry="18"/>
<text text-anchor="middle" x="280.5" y="-304.3" font-family="Times,serif" font-size="14.00">*</text>
</a>
</g>
</g>
<!-- function1&#45;&gt;f110 -->
<g id="edge2" class="edge">
<title>function1&#45;&gt;f110</title>
<path fill="none" stroke="black" d="M280.5,-361.72C280.5,-353.97 280.5,-344.79 280.5,-336.27"/>
<polygon fill="black" stroke="black" points="284,-336 280.5,-326 277,-336 284,-336"/>
</g>
<!-- f4 -->
<g id="node8" class="node">
<title>f4</title>
<g id="a_node8"><a xlink:title="Function ID=4 &#10; contains 1 duplicate subfunctions">
<ellipse fill="lightblue" stroke="lightblue" cx="317.5" cy="-235" rx="27.9" ry="18"/>
<text text-anchor="middle" x="317.5" y="-231.3" font-family="Times,serif" font-size="14.00">Cos</text>
</a>
</g>
</g>
<!-- f110&#45;&gt;f4 -->
<g id="edge4" class="edge">
<title>f110&#45;&gt;f4</title>
<g id="a_edge4"><a xlink:title="Function ID=110 depends on function ID=4">
<path fill="none" stroke="black" d="M288.9,-290.89C293.42,-282.21 299.11,-271.29 304.22,-261.49"/>
<polygon fill="black" stroke="black" points="307.36,-263.03 308.88,-252.54 301.16,-259.79 307.36,-263.03"/>
</a>
</g>
</g>
<!-- f109 -->
<g id="node12" class="node">
<title>f109</title>
<g id="a_node12"><a xlink:title="Function ID=109 &#10; contains 7 duplicate subfunctions">
<ellipse fill="lightblue" stroke="lightblue" cx="244.5" cy="-235" rx="27" ry="18"/>
<text text-anchor="middle" x="244.5" y="-231.3" font-family="Times,serif" font-size="14.00">*</text>
</a>
</g>
</g>
<!-- f110&#45;&gt;f109 -->
<g id="edge10" class="edge">
<title>f110&#45;&gt;f109</title>
<g id="a_edge10"><a xlink:title="Function ID=110 depends on function ID=109">
<path fill="none" stroke="black" d="M272.15,-290.53C267.79,-281.93 262.35,-271.21 257.46,-261.56"/>
<polygon fill="black" stroke="black" points="260.45,-259.71 252.8,-252.38 254.21,-262.88 260.45,-259.71"/>
</a>
</g>
</g>
<!-- f1 -->
<g id="node5" class="node">
<title>f1</title>
<g id="a_node5"><a xlink:title="Function ID=1 &#10; contains 0 duplicate subfunctions">
<ellipse fill="lightgreen" stroke="lightgreen" cx="189.5" cy="-18" rx="27" ry="18"/>
<text text-anchor="middle" x="189.5" y="-14.3" font-family="Times,serif" font-size="14.00">X</text>
</a>
</g>
</g>
<!-- f2 -->
<g id="node6" class="node">
<title>f2</title>
<g id="a_node6"><a xlink:title="Function ID=2 &#10; contains 1 duplicate subfunctions">
<ellipse fill="lightblue" stroke="lightblue" cx="189.5" cy="-90" rx="27.9" ry="18"/>
<text text-anchor="middle" x="189.5" y="-86.3" font-family="Times,serif" font-size="14.00">Log</text>
</a>
</g>
</g>
<!-- f2&#45;&gt;f1 -->
<g id="edge12" class="edge">
<title>f2&#45;&gt;f1</title>
<g id="a_edge12"><a xlink:title="Function ID=2 depends on function ID=1">
<path fill="none" stroke="black" d="M189.5,-71.7C189.5,-63.98 189.5,-54.71 189.5,-46.11"/>
<polygon fill="black" stroke="black" points="193,-46.1 189.5,-36.1 186,-46.1 193,-46.1"/>
</a>
</g>
</g>
<!-- f3&#45;&gt;f1 -->
<g id="edge9" class="edge">
<title>f3&#45;&gt;f1</title>
<g id="a_edge9"><a xlink:title="Function ID=3 depends on function ID=1">
<path fill="none" stroke="black" d="M131.27,-74.83C141.66,-64.87 155.74,-51.37 167.46,-40.14"/>
<polygon fill="black" stroke="black" points="169.95,-42.59 174.75,-33.14 165.11,-37.54 169.95,-42.59"/>
</a>
</g>
</g>
<!-- f4&#45;&gt;f1 -->
<g id="edge8" class="edge">
<title>f4&#45;&gt;f1</title>
<g id="a_edge8"><a xlink:title="Function ID=4 depends on function ID=1">
<path fill="none" stroke="black" d="M320.43,-217C324.93,-185.29 329.98,-116.33 298.5,-72 281.26,-47.72 249.78,-34.09 225.06,-26.75"/>
<polygon fill="black" stroke="black" points="225.86,-23.34 215.29,-24.07 224,-30.09 225.86,-23.34"/>
</a>
</g>
</g>
<!-- f106 -->
<g id="node9" class="node">
<title>f106</title>
<g id="a_node9"><a xlink:title="Function ID=106 &#10; contains 2 duplicate subfunctions">
<ellipse fill="lightblue" stroke="lightblue" cx="168.5" cy="-162" rx="40.09" ry="18"/>
<text text-anchor="middle" x="168.5" y="-158.3" font-family="Times,serif" font-size="14.00">2.0 ** </text>
</a>
</g>
</g>
<!-- f106&#45;&gt;f3 -->
<g id="edge5" class="edge">
<title>f106&#45;&gt;f3</title>
<g id="a_edge5"><a xlink:title="Function ID=106 depends on function ID=3">
<path fill="none" stroke="black" d="M156.44,-144.76C149.85,-135.89 141.56,-124.74 134.25,-114.89"/>
<polygon fill="black" stroke="black" points="136.91,-112.61 128.14,-106.67 131.29,-116.78 136.91,-112.61"/>
</a>
</g>
</g>
<!-- f107 -->
<g id="node10" class="node">
<title>f107</title>
<g id="a_node10"><a xlink:title="Function ID=107 &#10; contains 0 duplicate subfunctions">
<ellipse fill="lightgreen" stroke="lightgreen" cx="262.5" cy="-90" rx="27" ry="18"/>
<text text-anchor="middle" x="262.5" y="-86.3" font-family="Times,serif" font-size="14.00">2.0</text>
</a>
</g>
</g>
<!-- f108 -->
<g id="node11" class="node">
<title>f108</title>
<g id="a_node11"><a xlink:title="Function ID=108 &#10; contains 3 duplicate subfunctions">
<ellipse fill="lightblue" stroke="lightblue" cx="253.5" cy="-162" rx="27" ry="18"/>
<text text-anchor="middle" x="253.5" y="-158.3" font-family="Times,serif" font-size="14.00">of</text>
</a>
</g>
</g>
<!-- f108&#45;&gt;f2 -->
<g id="edge3" class="edge">
<title>f108&#45;&gt;f2</title>
<g id="a_edge3"><a xlink:title="Function ID=108 depends on function ID=2">
<path fill="none" stroke="black" d="M239.93,-146.15C231.19,-136.6 219.67,-123.99 209.84,-113.25"/>
<polygon fill="black" stroke="black" points="212.38,-110.84 203.05,-105.82 207.22,-115.57 212.38,-110.84"/>
</a>
</g>
</g>
<!-- f108&#45;&gt;f107 -->
<g id="edge13" class="edge">
<title>f108&#45;&gt;f107</title>
<g id="a_edge13"><a xlink:title="Function ID=108 depends on function ID=107">
<path fill="none" stroke="black" d="M255.68,-144.05C256.67,-136.35 257.87,-127.03 258.98,-118.36"/>
<polygon fill="black" stroke="black" points="262.48,-118.64 260.28,-108.28 255.53,-117.75 262.48,-118.64"/>
</a>
</g>
</g>
<!-- f109&#45;&gt;f106 -->
<g id="edge7" class="edge">
<title>f109&#45;&gt;f106</title>
<g id="a_edge7"><a xlink:title="Function ID=109 depends on function ID=106">
<path fill="none" stroke="black" d="M229.48,-219.97C218.98,-210.16 204.72,-196.84 192.64,-185.55"/>
<polygon fill="black" stroke="black" points="194.76,-182.75 185.07,-178.48 189.99,-187.86 194.76,-182.75"/>
</a>
</g>
</g>
<!-- f109&#45;&gt;f108 -->
<g id="edge11" class="edge">
<title>f109&#45;&gt;f108</title>
<g id="a_edge11"><a xlink:title="Function ID=109 depends on function ID=108">
<path fill="none" stroke="black" d="M246.68,-216.81C247.7,-208.79 248.93,-199.05 250.07,-190.07"/>
<polygon fill="black" stroke="black" points="253.56,-190.39 251.34,-180.03 246.61,-189.51 253.56,-190.39"/>
</a>
</g>
</g>
</g>
</svg>
