<?xml version="1.0" encoding="UTF-8" standalone="no"?>
<!DOCTYPE svg PUBLIC "-//W3C//DTD SVG 1.1//EN"
 "http://www.w3.org/Graphics/SVG/1.1/DTD/svg11.dtd">
<!-- Generated by graphviz version 2.43.0 (0)
 -->
<!-- Title: %3 Pages: 1 -->
<svg width="637pt" height="844pt"
 viewBox="0.00 0.00 636.50 844.00" xmlns="http://www.w3.org/2000/svg" xmlns:xlink="http://www.w3.org/1999/xlink">
<g id="graph0" class="graph" transform="scale(1 1) rotate(0) translate(4 840)">
<title>%3</title>
<g id="a_graph0"><a xlink:title="Hey! Notice that red nodes are clickable and &#10; tooltips contain additional information!">
<polygon fill="white" stroke="transparent" points="-4,4 -4,-840 632.5,-840 632.5,4 -4,4"/>
</a>
</g>
<!-- function0 -->
<g id="node1" class="node">
<title>function0</title>
<g id="a_node1"><a xlink:href="inspected-f2593-graph-0.svg" xlink:title="original function &#10; contains 2 duplicate subfunctions &#10; contains 2 unique subfunctions &#10; (and is clickable)">
<path fill="red" stroke="red" d="M127,-182C127,-182 12,-182 12,-182 6,-182 0,-176 0,-170 0,-170 0,-156 0,-156 0,-150 6,-144 12,-144 12,-144 127,-144 127,-144 133,-144 139,-150 139,-156 139,-156 139,-170 139,-170 139,-176 133,-182 127,-182"/>
<text text-anchor="middle" x="69.5" y="-166.8" font-family="Times,serif" font-size="14.00">(X) ** (5.0) </text>
<text text-anchor="middle" x="69.5" y="-151.8" font-family="Times,serif" font-size="14.00"> original function</text>
</a>
</g>
</g>
<!-- f2593 -->
<g id="node2" class="node">
<title>f2593</title>
<g id="a_node2"><a xlink:title="Function ID=2593 &#10; contains 1 duplicate subfunctions">
<ellipse fill="lightblue" stroke="lightblue" cx="78.5" cy="-90" rx="31.4" ry="18"/>
<text text-anchor="middle" x="78.5" y="-86.3" font-family="Times,serif" font-size="14.00"> ** 5</text>
</a>
</g>
</g>
<!-- function0&#45;&gt;f2593 -->
<g id="edge1" class="edge">
<title>function0&#45;&gt;f2593</title>
<path fill="none" stroke="black" d="M71.82,-143.72C72.81,-135.89 73.99,-126.59 75.08,-117.99"/>
<polygon fill="black" stroke="black" points="78.56,-118.36 76.34,-108 71.61,-117.48 78.56,-118.36"/>
</g>
<!-- f1 -->
<g id="node10" class="node">
<title>f1</title>
<g id="a_node10"><a xlink:title="Function ID=1 &#10; contains 0 duplicate subfunctions">
<ellipse fill="lightgreen" stroke="lightgreen" cx="226.5" cy="-18" rx="27" ry="18"/>
<text text-anchor="middle" x="226.5" y="-14.3" font-family="Times,serif" font-size="14.00">X</text>
</a>
</g>
</g>
<!-- f2593&#45;&gt;f1 -->
<g id="edge5" class="edge">
<title>f2593&#45;&gt;f1</title>
<g id="a_edge5"><a xlink:title="Function ID=2593 depends on function ID=1">
<path fill="none" stroke="black" d="M101.95,-77.91C127.32,-65.91 167.89,-46.72 195.79,-33.53"/>
<polygon fill="black" stroke="black" points="197.54,-36.57 205.08,-29.13 194.54,-30.24 197.54,-36.57"/>
</a>
</g>
</g>
<!-- function1 -->
<g id="node3" class="node">
<title>function1</title>
<g id="a_node3"><a xlink:href="inspected-f2593-graph-1.svg" xlink:title="1st derivative function &#10; contains 5 duplicate subfunctions &#10; contains 5 unique subfunctions &#10; (and is clickable)">
<path fill="red" stroke="red" d="M379.5,-688C379.5,-688 283.5,-688 283.5,-688 277.5,-688 271.5,-682 271.5,-676 271.5,-676 271.5,-662 271.5,-662 271.5,-656 277.5,-650 283.5,-650 283.5,-650 379.5,-650 379.5,-650 385.5,-650 391.5,-656 391.5,-662 391.5,-662 391.5,-676 391.5,-676 391.5,-682 385.5,-688 379.5,-688"/>
<text text-anchor="middle" x="331.5" y="-672.8" font-family="Times,serif" font-size="14.00">(X) ** (5.0) </text>
<text text-anchor="middle" x="331.5" y="-657.8" font-family="Times,serif" font-size="14.00"> 1st derivative</text>
</a>
</g>
</g>
<!-- f2597 -->
<g id="node4" class="node">
<title>f2597</title>
<g id="a_node4"><a xlink:title="Function ID=2597 &#10; contains 4 duplicate subfunctions">
<ellipse fill="lightblue" stroke="lightblue" cx="331.5" cy="-596" rx="27" ry="18"/>
<text text-anchor="middle" x="331.5" y="-592.3" font-family="Times,serif" font-size="14.00">*</text>
</a>
</g>
</g>
<!-- function1&#45;&gt;f2597 -->
<g id="edge2" class="edge">
<title>function1&#45;&gt;f2597</title>
<path fill="none" stroke="black" d="M331.5,-649.72C331.5,-641.97 331.5,-632.79 331.5,-624.27"/>
<polygon fill="black" stroke="black" points="335,-624 331.5,-614 328,-624 335,-624"/>
</g>
<!-- f2595 -->
<g id="node17" class="node">
<title>f2595</title>
<g id="a_node17"><a xlink:title="Function ID=2595 &#10; contains 2 duplicate subfunctions">
<ellipse fill="lightblue" stroke="lightblue" cx="215.5" cy="-524" rx="32.49" ry="18"/>
<text text-anchor="middle" x="215.5" y="-520.3" font-family="Times,serif" font-size="14.00">5.0 *</text>
</a>
</g>
</g>
<!-- f2597&#45;&gt;f2595 -->
<g id="edge27" class="edge">
<title>f2597&#45;&gt;f2595</title>
<g id="a_edge27"><a xlink:title="Function ID=2597 depends on function ID=2595">
<path fill="none" stroke="black" d="M312.08,-583.28C293.99,-572.37 266.74,-555.92 245.79,-543.28"/>
<polygon fill="black" stroke="black" points="247.32,-540.11 236.95,-537.94 243.7,-546.11 247.32,-540.11"/>
</a>
</g>
</g>
<!-- f2596 -->
<g id="node18" class="node">
<title>f2596</title>
<g id="a_node18"><a xlink:title="Function ID=2596 &#10; contains 0 duplicate subfunctions">
<ellipse fill="lightgreen" stroke="lightgreen" cx="364.5" cy="-524" rx="27" ry="18"/>
<text text-anchor="middle" x="364.5" y="-520.3" font-family="Times,serif" font-size="14.00">1.0</text>
</a>
</g>
</g>
<!-- f2597&#45;&gt;f2596 -->
<g id="edge16" class="edge">
<title>f2597&#45;&gt;f2596</title>
<g id="a_edge16"><a xlink:title="Function ID=2597 depends on function ID=2596">
<path fill="none" stroke="black" d="M339.32,-578.41C343.22,-570.13 348.04,-559.92 352.4,-550.66"/>
<polygon fill="black" stroke="black" points="355.64,-552.01 356.74,-541.47 349.31,-549.02 355.64,-552.01"/>
</a>
</g>
</g>
<!-- function2 -->
<g id="node5" class="node">
<title>function2</title>
<g id="a_node5"><a xlink:href="inspected-f2593-graph-2.svg" xlink:title="2nd derivative function &#10; contains 14 duplicate subfunctions &#10; contains 13 unique subfunctions &#10; (and is clickable)">
<path fill="red" stroke="red" d="M487,-762C487,-762 386,-762 386,-762 380,-762 374,-756 374,-750 374,-750 374,-736 374,-736 374,-730 380,-724 386,-724 386,-724 487,-724 487,-724 493,-724 499,-730 499,-736 499,-736 499,-750 499,-750 499,-756 493,-762 487,-762"/>
<text text-anchor="middle" x="436.5" y="-746.8" font-family="Times,serif" font-size="14.00">(X) ** (5.0) </text>
<text text-anchor="middle" x="436.5" y="-731.8" font-family="Times,serif" font-size="14.00"> 2nd derivative</text>
</a>
</g>
</g>
<!-- f2606 -->
<g id="node6" class="node">
<title>f2606</title>
<g id="a_node6"><a xlink:title="Function ID=2606 &#10; contains 13 duplicate subfunctions">
<ellipse fill="lightblue" stroke="lightblue" cx="436.5" cy="-669" rx="27" ry="18"/>
<text text-anchor="middle" x="436.5" y="-665.3" font-family="Times,serif" font-size="14.00">+</text>
</a>
</g>
</g>
<!-- function2&#45;&gt;f2606 -->
<g id="edge3" class="edge">
<title>function2&#45;&gt;f2606</title>
<path fill="none" stroke="black" d="M436.5,-723.83C436.5,-715.89 436.5,-706.41 436.5,-697.63"/>
<polygon fill="black" stroke="black" points="440,-697.42 436.5,-687.42 433,-697.42 440,-697.42"/>
</g>
<!-- f2603 -->
<g id="node24" class="node">
<title>f2603</title>
<g id="a_node24"><a xlink:title="Function ID=2603 &#10; contains 7 duplicate subfunctions">
<ellipse fill="lightblue" stroke="lightblue" cx="475.5" cy="-596" rx="27" ry="18"/>
<text text-anchor="middle" x="475.5" y="-592.3" font-family="Times,serif" font-size="14.00">*</text>
</a>
</g>
</g>
<!-- f2606&#45;&gt;f2603 -->
<g id="edge35" class="edge">
<title>f2606&#45;&gt;f2603</title>
<g id="a_edge35"><a xlink:title="Function ID=2606 depends on function ID=2603">
<path fill="none" stroke="black" d="M445.35,-651.89C450.19,-643.08 456.28,-631.98 461.73,-622.07"/>
<polygon fill="black" stroke="black" points="464.94,-623.5 466.69,-613.05 458.8,-620.13 464.94,-623.5"/>
</a>
</g>
</g>
<!-- f2605 -->
<g id="node26" class="node">
<title>f2605</title>
<g id="a_node26"><a xlink:title="Function ID=2605 &#10; contains 4 duplicate subfunctions">
<ellipse fill="lightblue" stroke="lightblue" cx="187.5" cy="-596" rx="27" ry="18"/>
<text text-anchor="middle" x="187.5" y="-592.3" font-family="Times,serif" font-size="14.00">*</text>
</a>
</g>
</g>
<!-- f2606&#45;&gt;f2605 -->
<g id="edge39" class="edge">
<title>f2606&#45;&gt;f2605</title>
<g id="a_edge39"><a xlink:title="Function ID=2606 depends on function ID=2605">
<path fill="none" stroke="black" d="M416.34,-656.76C411.28,-654.26 405.78,-651.82 400.5,-650 324.61,-623.82 299.68,-639.32 223.5,-614 221.58,-613.36 219.63,-612.65 217.68,-611.88"/>
<polygon fill="black" stroke="black" points="218.66,-608.49 208.09,-607.76 215.9,-614.93 218.66,-608.49"/>
</a>
</g>
</g>
<!-- function3 -->
<g id="node7" class="node">
<title>function3</title>
<g id="a_node7"><a xlink:href="inspected-f2593-graph-3.svg" xlink:title="3rd derivative function &#10; contains 41 duplicate subfunctions &#10; contains 34 unique subfunctions &#10; (and is clickable)">
<path fill="red" stroke="red" d="M326.5,-836C326.5,-836 228.5,-836 228.5,-836 222.5,-836 216.5,-830 216.5,-824 216.5,-824 216.5,-810 216.5,-810 216.5,-804 222.5,-798 228.5,-798 228.5,-798 326.5,-798 326.5,-798 332.5,-798 338.5,-804 338.5,-810 338.5,-810 338.5,-824 338.5,-824 338.5,-830 332.5,-836 326.5,-836"/>
<text text-anchor="middle" x="277.5" y="-820.8" font-family="Times,serif" font-size="14.00">(X) ** (5.0) </text>
<text text-anchor="middle" x="277.5" y="-805.8" font-family="Times,serif" font-size="14.00"> 3rd derivative</text>
</a>
</g>
</g>
<!-- f2630 -->
<g id="node8" class="node">
<title>f2630</title>
<g id="a_node8"><a xlink:title="Function ID=2630 &#10; contains 40 duplicate subfunctions">
<ellipse fill="lightblue" stroke="lightblue" cx="277.5" cy="-743" rx="27" ry="18"/>
<text text-anchor="middle" x="277.5" y="-739.3" font-family="Times,serif" font-size="14.00">+</text>
</a>
</g>
</g>
<!-- function3&#45;&gt;f2630 -->
<g id="edge4" class="edge">
<title>function3&#45;&gt;f2630</title>
<path fill="none" stroke="black" d="M277.5,-797.83C277.5,-789.89 277.5,-780.41 277.5,-771.63"/>
<polygon fill="black" stroke="black" points="281,-771.42 277.5,-761.42 274,-771.42 281,-771.42"/>
</g>
<!-- f2629 -->
<g id="node15" class="node">
<title>f2629</title>
<g id="a_node15"><a xlink:title="Function ID=2629 &#10; contains 13 duplicate subfunctions">
<ellipse fill="lightblue" stroke="lightblue" cx="226.5" cy="-669" rx="27" ry="18"/>
<text text-anchor="middle" x="226.5" y="-665.3" font-family="Times,serif" font-size="14.00">+</text>
</a>
</g>
</g>
<!-- f2630&#45;&gt;f2629 -->
<g id="edge47" class="edge">
<title>f2630&#45;&gt;f2629</title>
<g id="a_edge47"><a xlink:title="Function ID=2630 depends on function ID=2629">
<path fill="none" stroke="black" d="M266.43,-726.38C259.68,-716.85 250.92,-704.48 243.33,-693.75"/>
<polygon fill="black" stroke="black" points="246.18,-691.73 237.54,-685.59 240.47,-695.78 246.18,-691.73"/>
</a>
</g>
</g>
<!-- f2620 -->
<g id="node40" class="node">
<title>f2620</title>
<g id="a_node40"><a xlink:title="Function ID=2620 &#10; contains 25 duplicate subfunctions">
<ellipse fill="lightblue" stroke="lightblue" cx="508.5" cy="-669" rx="27" ry="18"/>
<text text-anchor="middle" x="508.5" y="-665.3" font-family="Times,serif" font-size="14.00">+</text>
</a>
</g>
</g>
<!-- f2630&#45;&gt;f2620 -->
<g id="edge34" class="edge">
<title>f2630&#45;&gt;f2620</title>
<g id="a_edge34"><a xlink:title="Function ID=2630 depends on function ID=2620">
<path fill="none" stroke="black" d="M302.93,-736.61C340.65,-728.26 413.31,-710.75 472.5,-688 474.62,-687.19 476.78,-686.29 478.94,-685.34"/>
<polygon fill="black" stroke="black" points="480.68,-688.39 488.25,-680.98 477.71,-682.05 480.68,-688.39"/>
</a>
</g>
</g>
<!-- f2624 -->
<g id="node9" class="node">
<title>f2624</title>
<g id="a_node9"><a xlink:title="Function ID=2624 &#10; contains 4 duplicate subfunctions">
<ellipse fill="lightblue" stroke="lightblue" cx="66.5" cy="-452" rx="27" ry="18"/>
<text text-anchor="middle" x="66.5" y="-448.3" font-family="Times,serif" font-size="14.00">*</text>
</a>
</g>
</g>
<!-- f2622 -->
<g id="node42" class="node">
<title>f2622</title>
<g id="a_node42"><a xlink:title="Function ID=2622 &#10; contains 2 duplicate subfunctions">
<ellipse fill="lightblue" stroke="lightblue" cx="151.5" cy="-380" rx="32.49" ry="18"/>
<text text-anchor="middle" x="151.5" y="-376.3" font-family="Times,serif" font-size="14.00">4.0 *</text>
</a>
</g>
</g>
<!-- f2624&#45;&gt;f2622 -->
<g id="edge51" class="edge">
<title>f2624&#45;&gt;f2622</title>
<g id="a_edge51"><a xlink:title="Function ID=2624 depends on function ID=2622">
<path fill="none" stroke="black" d="M82.89,-437.5C95.15,-427.41 112.14,-413.41 126.15,-401.88"/>
<polygon fill="black" stroke="black" points="128.5,-404.48 133.99,-395.42 124.05,-399.07 128.5,-404.48"/>
</a>
</g>
</g>
<!-- f2623 -->
<g id="node43" class="node">
<title>f2623</title>
<g id="a_node43"><a xlink:title="Function ID=2623 &#10; contains 0 duplicate subfunctions">
<ellipse fill="lightgreen" stroke="lightgreen" cx="66.5" cy="-380" rx="27" ry="18"/>
<text text-anchor="middle" x="66.5" y="-376.3" font-family="Times,serif" font-size="14.00">1.0</text>
</a>
</g>
</g>
<!-- f2624&#45;&gt;f2623 -->
<g id="edge46" class="edge">
<title>f2624&#45;&gt;f2623</title>
<g id="a_edge46"><a xlink:title="Function ID=2624 depends on function ID=2623">
<path fill="none" stroke="black" d="M66.5,-433.7C66.5,-425.98 66.5,-416.71 66.5,-408.11"/>
<polygon fill="black" stroke="black" points="70,-408.1 66.5,-398.1 63,-408.1 70,-408.1"/>
</a>
</g>
</g>
<!-- f2625 -->
<g id="node11" class="node">
<title>f2625</title>
<g id="a_node11"><a xlink:title="Function ID=2625 &#10; contains 5 duplicate subfunctions">
<ellipse fill="lightblue" stroke="lightblue" cx="61.5" cy="-524" rx="32.49" ry="18"/>
<text text-anchor="middle" x="61.5" y="-520.3" font-family="Times,serif" font-size="14.00">5.0 *</text>
</a>
</g>
</g>
<!-- f2625&#45;&gt;f2624 -->
<g id="edge22" class="edge">
<title>f2625&#45;&gt;f2624</title>
<g id="a_edge22"><a xlink:title="Function ID=2625 depends on function ID=2624">
<path fill="none" stroke="black" d="M62.74,-505.7C63.29,-497.98 63.95,-488.71 64.56,-480.11"/>
<polygon fill="black" stroke="black" points="68.06,-480.33 65.28,-470.1 61.07,-479.83 68.06,-480.33"/>
</a>
</g>
</g>
<!-- f2626 -->
<g id="node12" class="node">
<title>f2626</title>
<g id="a_node12"><a xlink:title="Function ID=2626 &#10; contains 7 duplicate subfunctions">
<ellipse fill="lightblue" stroke="lightblue" cx="115.5" cy="-596" rx="27" ry="18"/>
<text text-anchor="middle" x="115.5" y="-592.3" font-family="Times,serif" font-size="14.00">*</text>
</a>
</g>
</g>
<!-- f2626&#45;&gt;f2625 -->
<g id="edge49" class="edge">
<title>f2626&#45;&gt;f2625</title>
<g id="a_edge49"><a xlink:title="Function ID=2626 depends on function ID=2625">
<path fill="none" stroke="black" d="M103.52,-579.46C96.62,-570.53 87.81,-559.11 80.04,-549.04"/>
<polygon fill="black" stroke="black" points="82.7,-546.76 73.83,-540.98 77.16,-551.03 82.7,-546.76"/>
</a>
</g>
</g>
<!-- f2604 -->
<g id="node25" class="node">
<title>f2604</title>
<g id="a_node25"><a xlink:title="Function ID=2604 &#10; contains 0 duplicate subfunctions">
<ellipse fill="lightgreen" stroke="lightgreen" cx="138.5" cy="-524" rx="27" ry="18"/>
<text text-anchor="middle" x="138.5" y="-520.3" font-family="Times,serif" font-size="14.00">0.0</text>
</a>
</g>
</g>
<!-- f2626&#45;&gt;f2604 -->
<g id="edge30" class="edge">
<title>f2626&#45;&gt;f2604</title>
<g id="a_edge30"><a xlink:title="Function ID=2626 depends on function ID=2604">
<path fill="none" stroke="black" d="M121.07,-578.05C123.7,-570.06 126.89,-560.33 129.83,-551.4"/>
<polygon fill="black" stroke="black" points="133.19,-552.38 132.98,-541.79 126.54,-550.2 133.19,-552.38"/>
</a>
</g>
</g>
<!-- f2627 -->
<g id="node13" class="node">
<title>f2627</title>
<g id="a_node13"><a xlink:title="Function ID=2627 &#10; contains 0 duplicate subfunctions">
<ellipse fill="lightgreen" stroke="lightgreen" cx="292.5" cy="-524" rx="27" ry="18"/>
<text text-anchor="middle" x="292.5" y="-520.3" font-family="Times,serif" font-size="14.00">0.0</text>
</a>
</g>
</g>
<!-- f2628 -->
<g id="node14" class="node">
<title>f2628</title>
<g id="a_node14"><a xlink:title="Function ID=2628 &#10; contains 4 duplicate subfunctions">
<ellipse fill="lightblue" stroke="lightblue" cx="259.5" cy="-596" rx="27" ry="18"/>
<text text-anchor="middle" x="259.5" y="-592.3" font-family="Times,serif" font-size="14.00">*</text>
</a>
</g>
</g>
<!-- f2628&#45;&gt;f2627 -->
<g id="edge48" class="edge">
<title>f2628&#45;&gt;f2627</title>
<g id="a_edge48"><a xlink:title="Function ID=2628 depends on function ID=2627">
<path fill="none" stroke="black" d="M267.32,-578.41C271.22,-570.13 276.04,-559.92 280.4,-550.66"/>
<polygon fill="black" stroke="black" points="283.64,-552.01 284.74,-541.47 277.31,-549.02 283.64,-552.01"/>
</a>
</g>
</g>
<!-- f2628&#45;&gt;f2595 -->
<g id="edge24" class="edge">
<title>f2628&#45;&gt;f2595</title>
<g id="a_edge24"><a xlink:title="Function ID=2628 depends on function ID=2595">
<path fill="none" stroke="black" d="M249.52,-579.12C244.08,-570.47 237.23,-559.58 231.11,-549.83"/>
<polygon fill="black" stroke="black" points="234.04,-547.91 225.75,-541.31 228.11,-551.64 234.04,-547.91"/>
</a>
</g>
</g>
<!-- f2629&#45;&gt;f2626 -->
<g id="edge12" class="edge">
<title>f2629&#45;&gt;f2626</title>
<g id="a_edge12"><a xlink:title="Function ID=2629 depends on function ID=2626">
<path fill="none" stroke="black" d="M207.67,-655.96C189.89,-644.58 163.02,-627.4 142.87,-614.51"/>
<polygon fill="black" stroke="black" points="144.73,-611.54 134.42,-609.1 140.96,-617.44 144.73,-611.54"/>
</a>
</g>
</g>
<!-- f2629&#45;&gt;f2628 -->
<g id="edge23" class="edge">
<title>f2629&#45;&gt;f2628</title>
<g id="a_edge23"><a xlink:title="Function ID=2629 depends on function ID=2628">
<path fill="none" stroke="black" d="M234.15,-651.53C238.15,-642.93 243.13,-632.21 247.62,-622.56"/>
<polygon fill="black" stroke="black" points="250.85,-623.92 251.89,-613.38 244.5,-620.97 250.85,-623.92"/>
</a>
</g>
</g>
<!-- f2594 -->
<g id="node16" class="node">
<title>f2594</title>
<g id="a_node16"><a xlink:title="Function ID=2594 &#10; contains 1 duplicate subfunctions">
<ellipse fill="lightblue" stroke="lightblue" cx="226.5" cy="-236" rx="31.4" ry="18"/>
<text text-anchor="middle" x="226.5" y="-232.3" font-family="Times,serif" font-size="14.00"> ** 4</text>
</a>
</g>
</g>
<!-- f2594&#45;&gt;f1 -->
<g id="edge15" class="edge">
<title>f2594&#45;&gt;f1</title>
<g id="a_edge15"><a xlink:title="Function ID=2594 depends on function ID=1">
<path fill="none" stroke="black" d="M226.5,-217.69C226.5,-180.23 226.5,-91.42 226.5,-46.31"/>
<polygon fill="black" stroke="black" points="230,-46.09 226.5,-36.09 223,-46.09 230,-46.09"/>
</a>
</g>
</g>
<!-- f2595&#45;&gt;f2594 -->
<g id="edge14" class="edge">
<title>f2595&#45;&gt;f2594</title>
<g id="a_edge14"><a xlink:title="Function ID=2595 depends on function ID=2594">
<path fill="none" stroke="black" d="M216.16,-505.97C217.99,-458.29 223.19,-323.18 225.44,-264.63"/>
<polygon fill="black" stroke="black" points="228.95,-264.43 225.83,-254.31 221.95,-264.16 228.95,-264.43"/>
</a>
</g>
</g>
<!-- f2598 -->
<g id="node19" class="node">
<title>f2598</title>
<g id="a_node19"><a xlink:title="Function ID=2598 &#10; contains 1 duplicate subfunctions">
<ellipse fill="lightblue" stroke="lightblue" cx="319.5" cy="-236" rx="31.4" ry="18"/>
<text text-anchor="middle" x="319.5" y="-232.3" font-family="Times,serif" font-size="14.00"> ** 3</text>
</a>
</g>
</g>
<!-- f2598&#45;&gt;f1 -->
<g id="edge10" class="edge">
<title>f2598&#45;&gt;f1</title>
<g id="a_edge10"><a xlink:title="Function ID=2598 depends on function ID=1">
<path fill="none" stroke="black" d="M311.83,-218.34C307.06,-207.92 300.85,-194.21 295.5,-182 274.47,-134 250.84,-77.61 237.4,-45.32"/>
<polygon fill="black" stroke="black" points="240.49,-43.61 233.42,-35.72 234.02,-46.3 240.49,-43.61"/>
</a>
</g>
</g>
<!-- f2599 -->
<g id="node20" class="node">
<title>f2599</title>
<g id="a_node20"><a xlink:title="Function ID=2599 &#10; contains 2 duplicate subfunctions">
<ellipse fill="lightblue" stroke="lightblue" cx="347.5" cy="-308" rx="32.49" ry="18"/>
<text text-anchor="middle" x="347.5" y="-304.3" font-family="Times,serif" font-size="14.00">4.0 *</text>
</a>
</g>
</g>
<!-- f2599&#45;&gt;f2598 -->
<g id="edge13" class="edge">
<title>f2599&#45;&gt;f2598</title>
<g id="a_edge13"><a xlink:title="Function ID=2599 depends on function ID=2598">
<path fill="none" stroke="black" d="M340.72,-290.05C337.49,-281.97 333.55,-272.12 329.94,-263.11"/>
<polygon fill="black" stroke="black" points="333.18,-261.77 326.22,-253.79 326.68,-264.37 333.18,-261.77"/>
</a>
</g>
</g>
<!-- f2600 -->
<g id="node21" class="node">
<title>f2600</title>
<g id="a_node21"><a xlink:title="Function ID=2600 &#10; contains 0 duplicate subfunctions">
<ellipse fill="lightgreen" stroke="lightgreen" cx="424.5" cy="-308" rx="27" ry="18"/>
<text text-anchor="middle" x="424.5" y="-304.3" font-family="Times,serif" font-size="14.00">1.0</text>
</a>
</g>
</g>
<!-- f2601 -->
<g id="node22" class="node">
<title>f2601</title>
<g id="a_node22"><a xlink:title="Function ID=2601 &#10; contains 4 duplicate subfunctions">
<ellipse fill="lightblue" stroke="lightblue" cx="422.5" cy="-380" rx="27" ry="18"/>
<text text-anchor="middle" x="422.5" y="-376.3" font-family="Times,serif" font-size="14.00">*</text>
</a>
</g>
</g>
<!-- f2601&#45;&gt;f2599 -->
<g id="edge28" class="edge">
<title>f2601&#45;&gt;f2599</title>
<g id="a_edge28"><a xlink:title="Function ID=2601 depends on function ID=2599">
<path fill="none" stroke="black" d="M407.32,-364.83C396.86,-355.07 382.75,-341.9 370.86,-330.8"/>
<polygon fill="black" stroke="black" points="373.13,-328.13 363.43,-323.87 368.35,-333.25 373.13,-328.13"/>
</a>
</g>
</g>
<!-- f2601&#45;&gt;f2600 -->
<g id="edge18" class="edge">
<title>f2601&#45;&gt;f2600</title>
<g id="a_edge18"><a xlink:title="Function ID=2601 depends on function ID=2600">
<path fill="none" stroke="black" d="M422.99,-361.7C423.21,-353.98 423.48,-344.71 423.73,-336.11"/>
<polygon fill="black" stroke="black" points="427.22,-336.2 424.01,-326.1 420.23,-336 427.22,-336.2"/>
</a>
</g>
</g>
<!-- f2602 -->
<g id="node23" class="node">
<title>f2602</title>
<g id="a_node23"><a xlink:title="Function ID=2602 &#10; contains 5 duplicate subfunctions">
<ellipse fill="lightblue" stroke="lightblue" cx="524.5" cy="-524" rx="32.49" ry="18"/>
<text text-anchor="middle" x="524.5" y="-520.3" font-family="Times,serif" font-size="14.00">5.0 *</text>
</a>
</g>
</g>
<!-- f2602&#45;&gt;f2601 -->
<g id="edge38" class="edge">
<title>f2602&#45;&gt;f2601</title>
<g id="a_edge38"><a xlink:title="Function ID=2602 depends on function ID=2601">
<path fill="none" stroke="black" d="M517.62,-506.33C509.52,-487.72 494.94,-457.18 477.5,-434 468.61,-422.18 457.02,-410.59 446.78,-401.29"/>
<polygon fill="black" stroke="black" points="449.08,-398.65 439.27,-394.65 444.44,-403.89 449.08,-398.65"/>
</a>
</g>
</g>
<!-- f2603&#45;&gt;f2596 -->
<g id="edge9" class="edge">
<title>f2603&#45;&gt;f2596</title>
<g id="a_edge9"><a xlink:title="Function ID=2603 depends on function ID=2596">
<path fill="none" stroke="black" d="M456.42,-582.97C438.79,-571.85 412.38,-555.19 392.38,-542.58"/>
<polygon fill="black" stroke="black" points="394.03,-539.48 383.7,-537.11 390.3,-545.41 394.03,-539.48"/>
</a>
</g>
</g>
<!-- f2603&#45;&gt;f2602 -->
<g id="edge17" class="edge">
<title>f2603&#45;&gt;f2602</title>
<g id="a_edge17"><a xlink:title="Function ID=2603 depends on function ID=2602">
<path fill="none" stroke="black" d="M486.37,-579.46C492.57,-570.62 500.46,-559.34 507.46,-549.34"/>
<polygon fill="black" stroke="black" points="510.45,-551.18 513.32,-540.98 504.71,-547.16 510.45,-551.18"/>
</a>
</g>
</g>
<!-- f2605&#45;&gt;f2595 -->
<g id="edge8" class="edge">
<title>f2605&#45;&gt;f2595</title>
<g id="a_edge8"><a xlink:title="Function ID=2605 depends on function ID=2595">
<path fill="none" stroke="black" d="M194.14,-578.41C197.37,-570.34 201.33,-560.43 204.96,-551.35"/>
<polygon fill="black" stroke="black" points="208.25,-552.54 208.72,-541.96 201.75,-549.94 208.25,-552.54"/>
</a>
</g>
</g>
<!-- f2605&#45;&gt;f2604 -->
<g id="edge19" class="edge">
<title>f2605&#45;&gt;f2604</title>
<g id="a_edge19"><a xlink:title="Function ID=2605 depends on function ID=2604">
<path fill="none" stroke="black" d="M176.63,-579.46C170.34,-570.49 162.31,-559.02 155.24,-548.92"/>
<polygon fill="black" stroke="black" points="157.95,-546.68 149.34,-540.49 152.21,-550.69 157.95,-546.68"/>
</a>
</g>
</g>
<!-- f2607 -->
<g id="node27" class="node">
<title>f2607</title>
<g id="a_node27"><a xlink:title="Function ID=2607 &#10; contains 1 duplicate subfunctions">
<ellipse fill="lightblue" stroke="lightblue" cx="367.5" cy="-90" rx="31.4" ry="18"/>
<text text-anchor="middle" x="367.5" y="-86.3" font-family="Times,serif" font-size="14.00"> ** 2</text>
</a>
</g>
</g>
<!-- f2607&#45;&gt;f1 -->
<g id="edge32" class="edge">
<title>f2607&#45;&gt;f1</title>
<g id="a_edge32"><a xlink:title="Function ID=2607 depends on function ID=1">
<path fill="none" stroke="black" d="M344.53,-77.6C320.62,-65.73 283.06,-47.08 256.75,-34.02"/>
<polygon fill="black" stroke="black" points="258.13,-30.79 247.61,-29.48 255.01,-37.06 258.13,-30.79"/>
</a>
</g>
</g>
<!-- f2608 -->
<g id="node28" class="node">
<title>f2608</title>
<g id="a_node28"><a xlink:title="Function ID=2608 &#10; contains 2 duplicate subfunctions">
<ellipse fill="lightblue" stroke="lightblue" cx="408.5" cy="-163" rx="32.49" ry="18"/>
<text text-anchor="middle" x="408.5" y="-159.3" font-family="Times,serif" font-size="14.00">3.0 *</text>
</a>
</g>
</g>
<!-- f2608&#45;&gt;f2607 -->
<g id="edge41" class="edge">
<title>f2608&#45;&gt;f2607</title>
<g id="a_edge41"><a xlink:title="Function ID=2608 depends on function ID=2607">
<path fill="none" stroke="black" d="M398.99,-145.53C393.97,-136.84 387.7,-125.99 382.08,-116.26"/>
<polygon fill="black" stroke="black" points="384.99,-114.29 376.96,-107.38 378.93,-117.79 384.99,-114.29"/>
</a>
</g>
</g>
<!-- f2609 -->
<g id="node29" class="node">
<title>f2609</title>
<g id="a_node29"><a xlink:title="Function ID=2609 &#10; contains 0 duplicate subfunctions">
<ellipse fill="lightgreen" stroke="lightgreen" cx="331.5" cy="-163" rx="27" ry="18"/>
<text text-anchor="middle" x="331.5" y="-159.3" font-family="Times,serif" font-size="14.00">1.0</text>
</a>
</g>
</g>
<!-- f2610 -->
<g id="node30" class="node">
<title>f2610</title>
<g id="a_node30"><a xlink:title="Function ID=2610 &#10; contains 4 duplicate subfunctions">
<ellipse fill="lightblue" stroke="lightblue" cx="408.5" cy="-236" rx="27" ry="18"/>
<text text-anchor="middle" x="408.5" y="-232.3" font-family="Times,serif" font-size="14.00">*</text>
</a>
</g>
</g>
<!-- f2610&#45;&gt;f2608 -->
<g id="edge50" class="edge">
<title>f2610&#45;&gt;f2608</title>
<g id="a_edge50"><a xlink:title="Function ID=2610 depends on function ID=2608">
<path fill="none" stroke="black" d="M408.5,-217.81C408.5,-209.79 408.5,-200.05 408.5,-191.07"/>
<polygon fill="black" stroke="black" points="412,-191.03 408.5,-181.03 405,-191.03 412,-191.03"/>
</a>
</g>
</g>
<!-- f2610&#45;&gt;f2609 -->
<g id="edge42" class="edge">
<title>f2610&#45;&gt;f2609</title>
<g id="a_edge42"><a xlink:title="Function ID=2610 depends on function ID=2609">
<path fill="none" stroke="black" d="M393.29,-220.97C382.11,-210.66 366.73,-196.49 354.12,-184.86"/>
<polygon fill="black" stroke="black" points="356.41,-182.2 346.68,-178 351.66,-187.35 356.41,-182.2"/>
</a>
</g>
</g>
<!-- f2611 -->
<g id="node31" class="node">
<title>f2611</title>
<g id="a_node31"><a xlink:title="Function ID=2611 &#10; contains 5 duplicate subfunctions">
<ellipse fill="lightblue" stroke="lightblue" cx="501.5" cy="-308" rx="32.49" ry="18"/>
<text text-anchor="middle" x="501.5" y="-304.3" font-family="Times,serif" font-size="14.00">4.0 *</text>
</a>
</g>
</g>
<!-- f2611&#45;&gt;f2610 -->
<g id="edge26" class="edge">
<title>f2611&#45;&gt;f2610</title>
<g id="a_edge26"><a xlink:title="Function ID=2611 depends on function ID=2610">
<path fill="none" stroke="black" d="M482.68,-292.83C468.62,-282.25 449.25,-267.67 433.83,-256.06"/>
<polygon fill="black" stroke="black" points="435.82,-253.18 425.72,-249.96 431.61,-258.77 435.82,-253.18"/>
</a>
</g>
</g>
<!-- f2612 -->
<g id="node32" class="node">
<title>f2612</title>
<g id="a_node32"><a xlink:title="Function ID=2612 &#10; contains 7 duplicate subfunctions">
<ellipse fill="lightblue" stroke="lightblue" cx="494.5" cy="-380" rx="27" ry="18"/>
<text text-anchor="middle" x="494.5" y="-376.3" font-family="Times,serif" font-size="14.00">*</text>
</a>
</g>
</g>
<!-- f2612&#45;&gt;f2600 -->
<g id="edge33" class="edge">
<title>f2612&#45;&gt;f2600</title>
<g id="a_edge33"><a xlink:title="Function ID=2612 depends on function ID=2600">
<path fill="none" stroke="black" d="M480,-364.5C470.23,-354.73 457.19,-341.69 446.2,-330.7"/>
<polygon fill="black" stroke="black" points="448.53,-328.08 438.99,-323.49 443.58,-333.03 448.53,-328.08"/>
</a>
</g>
</g>
<!-- f2612&#45;&gt;f2611 -->
<g id="edge37" class="edge">
<title>f2612&#45;&gt;f2611</title>
<g id="a_edge37"><a xlink:title="Function ID=2612 depends on function ID=2611">
<path fill="none" stroke="black" d="M496.23,-361.7C497,-353.98 497.93,-344.71 498.79,-336.11"/>
<polygon fill="black" stroke="black" points="502.28,-336.4 499.79,-326.1 495.31,-335.71 502.28,-336.4"/>
</a>
</g>
</g>
<!-- f2613 -->
<g id="node33" class="node">
<title>f2613</title>
<g id="a_node33"><a xlink:title="Function ID=2613 &#10; contains 0 duplicate subfunctions">
<ellipse fill="lightgreen" stroke="lightgreen" cx="270.5" cy="-308" rx="27" ry="18"/>
<text text-anchor="middle" x="270.5" y="-304.3" font-family="Times,serif" font-size="14.00">0.0</text>
</a>
</g>
</g>
<!-- f2614 -->
<g id="node34" class="node">
<title>f2614</title>
<g id="a_node34"><a xlink:title="Function ID=2614 &#10; contains 4 duplicate subfunctions">
<ellipse fill="lightblue" stroke="lightblue" cx="347.5" cy="-380" rx="27" ry="18"/>
<text text-anchor="middle" x="347.5" y="-376.3" font-family="Times,serif" font-size="14.00">*</text>
</a>
</g>
</g>
<!-- f2614&#45;&gt;f2599 -->
<g id="edge31" class="edge">
<title>f2614&#45;&gt;f2599</title>
<g id="a_edge31"><a xlink:title="Function ID=2614 depends on function ID=2599">
<path fill="none" stroke="black" d="M347.5,-361.7C347.5,-353.98 347.5,-344.71 347.5,-336.11"/>
<polygon fill="black" stroke="black" points="351,-336.1 347.5,-326.1 344,-336.1 351,-336.1"/>
</a>
</g>
</g>
<!-- f2614&#45;&gt;f2613 -->
<g id="edge43" class="edge">
<title>f2614&#45;&gt;f2613</title>
<g id="a_edge43"><a xlink:title="Function ID=2614 depends on function ID=2613">
<path fill="none" stroke="black" d="M331.92,-364.83C320.89,-354.81 305.91,-341.19 293.51,-329.92"/>
<polygon fill="black" stroke="black" points="295.55,-327.04 285.8,-322.91 290.84,-332.22 295.55,-327.04"/>
</a>
</g>
</g>
<!-- f2615 -->
<g id="node35" class="node">
<title>f2615</title>
<g id="a_node35"><a xlink:title="Function ID=2615 &#10; contains 13 duplicate subfunctions">
<ellipse fill="lightblue" stroke="lightblue" cx="441.5" cy="-452" rx="27" ry="18"/>
<text text-anchor="middle" x="441.5" y="-448.3" font-family="Times,serif" font-size="14.00">+</text>
</a>
</g>
</g>
<!-- f2615&#45;&gt;f2612 -->
<g id="edge11" class="edge">
<title>f2615&#45;&gt;f2612</title>
<g id="a_edge11"><a xlink:title="Function ID=2615 depends on function ID=2612">
<path fill="none" stroke="black" d="M453.26,-435.46C460.12,-426.4 468.92,-414.79 476.62,-404.61"/>
<polygon fill="black" stroke="black" points="479.52,-406.58 482.77,-396.49 473.94,-402.35 479.52,-406.58"/>
</a>
</g>
</g>
<!-- f2615&#45;&gt;f2614 -->
<g id="edge25" class="edge">
<title>f2615&#45;&gt;f2614</title>
<g id="a_edge25"><a xlink:title="Function ID=2615 depends on function ID=2614">
<path fill="none" stroke="black" d="M423.82,-437.83C409.55,-427.21 389.28,-412.11 373.21,-400.15"/>
<polygon fill="black" stroke="black" points="374.89,-397.04 364.78,-393.87 370.71,-402.65 374.89,-397.04"/>
</a>
</g>
</g>
<!-- f2616 -->
<g id="node36" class="node">
<title>f2616</title>
<g id="a_node36"><a xlink:title="Function ID=2616 &#10; contains 14 duplicate subfunctions">
<ellipse fill="lightblue" stroke="lightblue" cx="441.5" cy="-524" rx="32.49" ry="18"/>
<text text-anchor="middle" x="441.5" y="-520.3" font-family="Times,serif" font-size="14.00">5.0 *</text>
</a>
</g>
</g>
<!-- f2616&#45;&gt;f2615 -->
<g id="edge40" class="edge">
<title>f2616&#45;&gt;f2615</title>
<g id="a_edge40"><a xlink:title="Function ID=2616 depends on function ID=2615">
<path fill="none" stroke="black" d="M441.5,-505.7C441.5,-497.98 441.5,-488.71 441.5,-480.11"/>
<polygon fill="black" stroke="black" points="445,-480.1 441.5,-470.1 438,-480.1 445,-480.1"/>
</a>
</g>
</g>
<!-- f2617 -->
<g id="node37" class="node">
<title>f2617</title>
<g id="a_node37"><a xlink:title="Function ID=2617 &#10; contains 16 duplicate subfunctions">
<ellipse fill="lightblue" stroke="lightblue" cx="403.5" cy="-596" rx="27" ry="18"/>
<text text-anchor="middle" x="403.5" y="-592.3" font-family="Times,serif" font-size="14.00">*</text>
</a>
</g>
</g>
<!-- f2617&#45;&gt;f2596 -->
<g id="edge6" class="edge">
<title>f2617&#45;&gt;f2596</title>
<g id="a_edge6"><a xlink:title="Function ID=2617 depends on function ID=2596">
<path fill="none" stroke="black" d="M394.45,-578.76C389.68,-570.19 383.72,-559.49 378.37,-549.9"/>
<polygon fill="black" stroke="black" points="381.42,-548.18 373.5,-541.15 375.31,-551.59 381.42,-548.18"/>
</a>
</g>
</g>
<!-- f2617&#45;&gt;f2616 -->
<g id="edge20" class="edge">
<title>f2617&#45;&gt;f2616</title>
<g id="a_edge20"><a xlink:title="Function ID=2617 depends on function ID=2616">
<path fill="none" stroke="black" d="M412.31,-578.76C416.85,-570.4 422.49,-560.02 427.6,-550.61"/>
<polygon fill="black" stroke="black" points="430.78,-552.09 432.47,-541.63 424.62,-548.75 430.78,-552.09"/>
</a>
</g>
</g>
<!-- f2618 -->
<g id="node38" class="node">
<title>f2618</title>
<g id="a_node38"><a xlink:title="Function ID=2618 &#10; contains 0 duplicate subfunctions">
<ellipse fill="lightgreen" stroke="lightgreen" cx="601.5" cy="-524" rx="27" ry="18"/>
<text text-anchor="middle" x="601.5" y="-520.3" font-family="Times,serif" font-size="14.00">0.0</text>
</a>
</g>
</g>
<!-- f2619 -->
<g id="node39" class="node">
<title>f2619</title>
<g id="a_node39"><a xlink:title="Function ID=2619 &#10; contains 7 duplicate subfunctions">
<ellipse fill="lightblue" stroke="lightblue" cx="547.5" cy="-596" rx="27" ry="18"/>
<text text-anchor="middle" x="547.5" y="-592.3" font-family="Times,serif" font-size="14.00">*</text>
</a>
</g>
</g>
<!-- f2619&#45;&gt;f2602 -->
<g id="edge7" class="edge">
<title>f2619&#45;&gt;f2602</title>
<g id="a_edge7"><a xlink:title="Function ID=2619 depends on function ID=2602">
<path fill="none" stroke="black" d="M541.93,-578.05C539.3,-570.06 536.11,-560.33 533.17,-551.4"/>
<polygon fill="black" stroke="black" points="536.46,-550.2 530.02,-541.79 529.81,-552.38 536.46,-550.2"/>
</a>
</g>
</g>
<!-- f2619&#45;&gt;f2618 -->
<g id="edge21" class="edge">
<title>f2619&#45;&gt;f2618</title>
<g id="a_edge21"><a xlink:title="Function ID=2619 depends on function ID=2618">
<path fill="none" stroke="black" d="M559.48,-579.46C566.48,-570.4 575.44,-558.79 583.29,-548.61"/>
<polygon fill="black" stroke="black" points="586.21,-550.55 589.55,-540.49 580.67,-546.27 586.21,-550.55"/>
</a>
</g>
</g>
<!-- f2620&#45;&gt;f2617 -->
<g id="edge36" class="edge">
<title>f2620&#45;&gt;f2617</title>
<g id="a_edge36"><a xlink:title="Function ID=2620 depends on function ID=2617">
<path fill="none" stroke="black" d="M490.21,-655.63C473.67,-644.45 449.12,-627.85 430.36,-615.16"/>
<polygon fill="black" stroke="black" points="432.18,-612.17 421.93,-609.46 428.26,-617.96 432.18,-612.17"/>
</a>
</g>
</g>
<!-- f2620&#45;&gt;f2619 -->
<g id="edge44" class="edge">
<title>f2620&#45;&gt;f2619</title>
<g id="a_edge44"><a xlink:title="Function ID=2620 depends on function ID=2619">
<path fill="none" stroke="black" d="M517.35,-651.89C522.19,-643.08 528.28,-631.98 533.73,-622.07"/>
<polygon fill="black" stroke="black" points="536.94,-623.5 538.69,-613.05 530.8,-620.13 536.94,-623.5"/>
</a>
</g>
</g>
<!-- f2621 -->
<g id="node41" class="node">
<title>f2621</title>
<g id="a_node41"><a xlink:title="Function ID=2621 &#10; contains 1 duplicate subfunctions">
<ellipse fill="lightblue" stroke="lightblue" cx="167.5" cy="-90" rx="31.4" ry="18"/>
<text text-anchor="middle" x="167.5" y="-86.3" font-family="Times,serif" font-size="14.00"> ** 3</text>
</a>
</g>
</g>
<!-- f2621&#45;&gt;f1 -->
<g id="edge29" class="edge">
<title>f2621&#45;&gt;f1</title>
<g id="a_edge29"><a xlink:title="Function ID=2621 depends on function ID=1">
<path fill="none" stroke="black" d="M180.59,-73.46C188.42,-64.18 198.49,-52.23 207.21,-41.88"/>
<polygon fill="black" stroke="black" points="210.08,-43.91 213.85,-34.01 204.73,-39.4 210.08,-43.91"/>
</a>
</g>
</g>
<!-- f2622&#45;&gt;f2621 -->
<g id="edge45" class="edge">
<title>f2622&#45;&gt;f2621</title>
<g id="a_edge45"><a xlink:title="Function ID=2622 depends on function ID=2621">
<path fill="none" stroke="black" d="M152.45,-361.85C155.13,-313.72 162.71,-177.14 165.98,-118.41"/>
<polygon fill="black" stroke="black" points="169.49,-118.24 166.55,-108.06 162.5,-117.85 169.49,-118.24"/>
</a>
</g>
</g>
</g>
</svg>
