<?xml version="1.0" encoding="UTF-8" standalone="no"?>
<!DOCTYPE svg PUBLIC "-//W3C//DTD SVG 1.1//EN"
 "http://www.w3.org/Graphics/SVG/1.1/DTD/svg11.dtd">
<!-- Generated by graphviz version 2.43.0 (0)
 -->
<!-- Title: %3 Pages: 1 -->
<svg width="681pt" height="408pt"
 viewBox="0.00 0.00 681.00 408.00" xmlns="http://www.w3.org/2000/svg" xmlns:xlink="http://www.w3.org/1999/xlink">
<g id="graph0" class="graph" transform="scale(1 1) rotate(0) translate(4 404)">
<title>%3</title>
<g id="a_graph0"><a xlink:title="Hey! Notice that red nodes are clickable and &#10; tooltips contain additional information!">
<polygon fill="white" stroke="transparent" points="-4,4 -4,-404 677,-404 677,4 -4,4"/>
</a>
</g>
<!-- function0 -->
<g id="node1" class="node">
<title>function0</title>
<g id="a_node1"><a xlink:href="inspected-f7089-optimized-0.svg" xlink:title="original function &#10; contains 6 duplicate subfunctions &#10; contains 5 unique subfunctions &#10; (and is clickable)">
<path fill="red" stroke="red" d="M248,-326C248,-326 12,-326 12,-326 6,-326 0,-320 0,-314 0,-314 0,-300 0,-300 0,-294 6,-288 12,-288 12,-288 248,-288 248,-288 254,-288 260,-294 260,-300 260,-300 260,-314 260,-314 260,-320 254,-326 248,-326"/>
<text text-anchor="middle" x="130" y="-310.8" font-family="Times,serif" font-size="14.00">((X) ** (3.0)) + ((100.0) * (Sin(X))) </text>
<text text-anchor="middle" x="130" y="-295.8" font-family="Times,serif" font-size="14.00"> original function</text>
</a>
</g>
</g>
<!-- f7089 -->
<g id="node2" class="node">
<title>f7089</title>
<g id="a_node2"><a xlink:title="Function ID=7089 &#10; contains 5 duplicate subfunctions">
<ellipse fill="lightblue" stroke="lightblue" cx="130" cy="-234" rx="27" ry="18"/>
<text text-anchor="middle" x="130" y="-230.3" font-family="Times,serif" font-size="14.00">+</text>
</a>
</g>
</g>
<!-- function0&#45;&gt;f7089 -->
<g id="edge1" class="edge">
<title>function0&#45;&gt;f7089</title>
<path fill="none" stroke="black" d="M130,-287.72C130,-279.97 130,-270.79 130,-262.27"/>
<polygon fill="black" stroke="black" points="133.5,-262 130,-252 126.5,-262 133.5,-262"/>
</g>
<!-- f7087 -->
<g id="node17" class="node">
<title>f7087</title>
<g id="a_node17"><a xlink:title="Function ID=7087 &#10; contains 1 duplicate subfunctions">
<ellipse fill="lightblue" stroke="lightblue" cx="165" cy="-90" rx="31.4" ry="18"/>
<text text-anchor="middle" x="165" y="-86.3" font-family="Times,serif" font-size="14.00"> ** 3</text>
</a>
</g>
</g>
<!-- f7089&#45;&gt;f7087 -->
<g id="edge18" class="edge">
<title>f7089&#45;&gt;f7087</title>
<g id="a_edge18"><a xlink:title="Function ID=7089 depends on function ID=7087">
<path fill="none" stroke="black" d="M128.06,-215.86C126.58,-197.63 125.83,-168.16 133,-144 136,-133.9 141.38,-123.77 146.9,-115.11"/>
<polygon fill="black" stroke="black" points="149.89,-116.93 152.59,-106.68 144.09,-113.01 149.89,-116.93"/>
</a>
</g>
</g>
<!-- f7088 -->
<g id="node18" class="node">
<title>f7088</title>
<g id="a_node18"><a xlink:title="Function ID=7088 &#10; contains 2 duplicate subfunctions">
<ellipse fill="lightblue" stroke="lightblue" cx="186" cy="-162" rx="44.39" ry="18"/>
<text text-anchor="middle" x="186" y="-158.3" font-family="Times,serif" font-size="14.00">100.0 *</text>
</a>
</g>
</g>
<!-- f7089&#45;&gt;f7088 -->
<g id="edge13" class="edge">
<title>f7089&#45;&gt;f7088</title>
<g id="a_edge13"><a xlink:title="Function ID=7089 depends on function ID=7088">
<path fill="none" stroke="black" d="M142.15,-217.81C149.19,-209.02 158.22,-197.73 166.25,-187.69"/>
<polygon fill="black" stroke="black" points="169.18,-189.62 172.7,-179.63 163.72,-185.25 169.18,-189.62"/>
</a>
</g>
</g>
<!-- function1 -->
<g id="node3" class="node">
<title>function1</title>
<g id="a_node3"><a xlink:href="inspected-f7089-optimized-1.svg" xlink:title="1st derivative function &#10; contains 8 duplicate subfunctions &#10; contains 6 unique subfunctions &#10; (and is clickable)">
<path fill="red" stroke="red" d="M661,-326C661,-326 425,-326 425,-326 419,-326 413,-320 413,-314 413,-314 413,-300 413,-300 413,-294 419,-288 425,-288 425,-288 661,-288 661,-288 667,-288 673,-294 673,-300 673,-300 673,-314 673,-314 673,-320 667,-326 661,-326"/>
<text text-anchor="middle" x="543" y="-310.8" font-family="Times,serif" font-size="14.00">((X) ** (3.0)) + ((100.0) * (Sin(X))) </text>
<text text-anchor="middle" x="543" y="-295.8" font-family="Times,serif" font-size="14.00"> 1st derivative</text>
</a>
</g>
</g>
<!-- f7275 -->
<g id="node4" class="node">
<title>f7275</title>
<g id="a_node4"><a xlink:title="Function ID=7275 &#10; contains 7 duplicate subfunctions">
<ellipse fill="lightblue" stroke="lightblue" cx="543" cy="-234" rx="27" ry="18"/>
<text text-anchor="middle" x="543" y="-230.3" font-family="Times,serif" font-size="14.00">+</text>
</a>
</g>
</g>
<!-- function1&#45;&gt;f7275 -->
<g id="edge2" class="edge">
<title>function1&#45;&gt;f7275</title>
<path fill="none" stroke="black" d="M543,-287.72C543,-279.97 543,-270.79 543,-262.27"/>
<polygon fill="black" stroke="black" points="546.5,-262 543,-252 539.5,-262 546.5,-262"/>
</g>
<!-- f7274 -->
<g id="node15" class="node">
<title>f7274</title>
<g id="a_node15"><a xlink:title="Function ID=7274 &#10; contains 3 duplicate subfunctions">
<ellipse fill="lightblue" stroke="lightblue" cx="496" cy="-162" rx="32.49" ry="18"/>
<text text-anchor="middle" x="496" y="-158.3" font-family="Times,serif" font-size="14.00">3.0 *</text>
</a>
</g>
</g>
<!-- f7275&#45;&gt;f7274 -->
<g id="edge14" class="edge">
<title>f7275&#45;&gt;f7274</title>
<g id="a_edge14"><a xlink:title="Function ID=7275 depends on function ID=7274">
<path fill="none" stroke="black" d="M532.33,-217.12C526.53,-208.47 519.21,-197.58 512.67,-187.83"/>
<polygon fill="black" stroke="black" points="515.43,-185.66 506.95,-179.31 509.62,-189.56 515.43,-185.66"/>
</a>
</g>
</g>
<!-- f7094 -->
<g id="node19" class="node">
<title>f7094</title>
<g id="a_node19"><a xlink:title="Function ID=7094 &#10; contains 2 duplicate subfunctions">
<ellipse fill="lightblue" stroke="lightblue" cx="591" cy="-162" rx="44.39" ry="18"/>
<text text-anchor="middle" x="591" y="-158.3" font-family="Times,serif" font-size="14.00">100.0 *</text>
</a>
</g>
</g>
<!-- f7275&#45;&gt;f7094 -->
<g id="edge6" class="edge">
<title>f7275&#45;&gt;f7094</title>
<g id="a_edge6"><a xlink:title="Function ID=7275 depends on function ID=7094">
<path fill="none" stroke="black" d="M553.89,-217.12C559.74,-208.59 567.08,-197.89 573.68,-188.25"/>
<polygon fill="black" stroke="black" points="576.71,-190.02 579.48,-179.8 570.94,-186.07 576.71,-190.02"/>
</a>
</g>
</g>
<!-- function2 -->
<g id="node5" class="node">
<title>function2</title>
<g id="a_node5"><a xlink:href="inspected-f7089-optimized-2.svg" xlink:title="2nd derivative function &#10; contains 9 duplicate subfunctions &#10; contains 8 unique subfunctions &#10; (and is clickable)">
<path fill="red" stroke="red" d="M424,-400C424,-400 188,-400 188,-400 182,-400 176,-394 176,-388 176,-388 176,-374 176,-374 176,-368 182,-362 188,-362 188,-362 424,-362 424,-362 430,-362 436,-368 436,-374 436,-374 436,-388 436,-388 436,-394 430,-400 424,-400"/>
<text text-anchor="middle" x="306" y="-384.8" font-family="Times,serif" font-size="14.00">((X) ** (3.0)) + ((100.0) * (Sin(X))) </text>
<text text-anchor="middle" x="306" y="-369.8" font-family="Times,serif" font-size="14.00"> 2nd derivative</text>
</a>
</g>
</g>
<!-- f7343 -->
<g id="node6" class="node">
<title>f7343</title>
<g id="a_node6"><a xlink:title="Function ID=7343 &#10; contains 8 duplicate subfunctions">
<ellipse fill="lightblue" stroke="lightblue" cx="306" cy="-307" rx="27" ry="18"/>
<text text-anchor="middle" x="306" y="-303.3" font-family="Times,serif" font-size="14.00">+</text>
</a>
</g>
</g>
<!-- function2&#45;&gt;f7343 -->
<g id="edge3" class="edge">
<title>function2&#45;&gt;f7343</title>
<path fill="none" stroke="black" d="M306,-361.83C306,-353.89 306,-344.41 306,-335.63"/>
<polygon fill="black" stroke="black" points="309.5,-335.42 306,-325.42 302.5,-335.42 309.5,-335.42"/>
</g>
<!-- f7106 -->
<g id="node9" class="node">
<title>f7106</title>
<g id="a_node9"><a xlink:title="Function ID=7106 &#10; contains 3 duplicate subfunctions">
<ellipse fill="lightblue" stroke="lightblue" cx="292" cy="-234" rx="44.39" ry="18"/>
<text text-anchor="middle" x="292" y="-230.3" font-family="Times,serif" font-size="14.00">100.0 *</text>
</a>
</g>
</g>
<!-- f7343&#45;&gt;f7106 -->
<g id="edge9" class="edge">
<title>f7343&#45;&gt;f7106</title>
<g id="a_edge9"><a xlink:title="Function ID=7343 depends on function ID=7106">
<path fill="none" stroke="black" d="M302.61,-288.81C301.03,-280.79 299.11,-271.05 297.34,-262.07"/>
<polygon fill="black" stroke="black" points="300.73,-261.16 295.36,-252.03 293.86,-262.52 300.73,-261.16"/>
</a>
</g>
</g>
<!-- f7334 -->
<g id="node13" class="node">
<title>f7334</title>
<g id="a_node13"><a xlink:title="Function ID=7334 &#10; contains 3 duplicate subfunctions">
<ellipse fill="lightblue" stroke="lightblue" cx="381" cy="-234" rx="27" ry="18"/>
<text text-anchor="middle" x="381" y="-230.3" font-family="Times,serif" font-size="14.00">+</text>
</a>
</g>
</g>
<!-- f7343&#45;&gt;f7334 -->
<g id="edge11" class="edge">
<title>f7343&#45;&gt;f7334</title>
<g id="a_edge11"><a xlink:title="Function ID=7343 depends on function ID=7334">
<path fill="none" stroke="black" d="M321.18,-291.63C331.92,-281.46 346.51,-267.65 358.59,-256.21"/>
<polygon fill="black" stroke="black" points="361.25,-258.52 366.1,-249.1 356.43,-253.44 361.25,-258.52"/>
</a>
</g>
</g>
<!-- f1 -->
<g id="node7" class="node">
<title>f1</title>
<g id="a_node7"><a xlink:title="Function ID=1 &#10; contains 0 duplicate subfunctions">
<ellipse fill="lightgreen" stroke="lightgreen" cx="366" cy="-18" rx="27" ry="18"/>
<text text-anchor="middle" x="366" y="-14.3" font-family="Times,serif" font-size="14.00">X</text>
</a>
</g>
</g>
<!-- f7105 -->
<g id="node8" class="node">
<title>f7105</title>
<g id="a_node8"><a xlink:title="Function ID=7105 &#10; contains 2 duplicate subfunctions">
<ellipse fill="lightblue" stroke="lightblue" cx="292" cy="-162" rx="43.59" ry="18"/>
<text text-anchor="middle" x="292" y="-158.3" font-family="Times,serif" font-size="14.00">unary &#45;</text>
</a>
</g>
</g>
<!-- f3 -->
<g id="node10" class="node">
<title>f3</title>
<g id="a_node10"><a xlink:title="Function ID=3 &#10; contains 1 duplicate subfunctions">
<ellipse fill="lightblue" stroke="lightblue" cx="289" cy="-90" rx="27" ry="18"/>
<text text-anchor="middle" x="289" y="-86.3" font-family="Times,serif" font-size="14.00">Sin</text>
</a>
</g>
</g>
<!-- f7105&#45;&gt;f3 -->
<g id="edge4" class="edge">
<title>f7105&#45;&gt;f3</title>
<g id="a_edge4"><a xlink:title="Function ID=7105 depends on function ID=3">
<path fill="none" stroke="black" d="M291.26,-143.7C290.93,-135.98 290.53,-126.71 290.16,-118.11"/>
<polygon fill="black" stroke="black" points="293.66,-117.95 289.73,-108.1 286.66,-118.25 293.66,-117.95"/>
</a>
</g>
</g>
<!-- f7106&#45;&gt;f7105 -->
<g id="edge17" class="edge">
<title>f7106&#45;&gt;f7105</title>
<g id="a_edge17"><a xlink:title="Function ID=7106 depends on function ID=7105">
<path fill="none" stroke="black" d="M292,-215.7C292,-207.98 292,-198.71 292,-190.11"/>
<polygon fill="black" stroke="black" points="295.5,-190.1 292,-180.1 288.5,-190.1 295.5,-190.1"/>
</a>
</g>
</g>
<!-- f3&#45;&gt;f1 -->
<g id="edge20" class="edge">
<title>f3&#45;&gt;f1</title>
<g id="a_edge20"><a xlink:title="Function ID=3 depends on function ID=1">
<path fill="none" stroke="black" d="M304.58,-74.83C315.61,-64.81 330.59,-51.19 342.99,-39.92"/>
<polygon fill="black" stroke="black" points="345.66,-42.22 350.7,-32.91 340.95,-37.04 345.66,-42.22"/>
</a>
</g>
</g>
<!-- f4 -->
<g id="node11" class="node">
<title>f4</title>
<g id="a_node11"><a xlink:title="Function ID=4 &#10; contains 1 duplicate subfunctions">
<ellipse fill="lightblue" stroke="lightblue" cx="568" cy="-90" rx="27.9" ry="18"/>
<text text-anchor="middle" x="568" y="-86.3" font-family="Times,serif" font-size="14.00">Cos</text>
</a>
</g>
</g>
<!-- f4&#45;&gt;f1 -->
<g id="edge19" class="edge">
<title>f4&#45;&gt;f1</title>
<g id="a_edge19"><a xlink:title="Function ID=4 depends on function ID=1">
<path fill="none" stroke="black" d="M544.03,-80.7C508.02,-68.22 439.84,-44.59 399.1,-30.47"/>
<polygon fill="black" stroke="black" points="400.22,-27.15 389.62,-27.19 397.92,-33.77 400.22,-27.15"/>
</a>
</g>
</g>
<!-- f7333 -->
<g id="node12" class="node">
<title>f7333</title>
<g id="a_node12"><a xlink:title="Function ID=7333 &#10; contains 1 duplicate subfunctions">
<ellipse fill="lightblue" stroke="lightblue" cx="366" cy="-90" rx="32.49" ry="18"/>
<text text-anchor="middle" x="366" y="-86.3" font-family="Times,serif" font-size="14.00">6.0 *</text>
</a>
</g>
</g>
<!-- f7333&#45;&gt;f1 -->
<g id="edge21" class="edge">
<title>f7333&#45;&gt;f1</title>
<g id="a_edge21"><a xlink:title="Function ID=7333 depends on function ID=1">
<path fill="none" stroke="black" d="M366,-71.7C366,-63.98 366,-54.71 366,-46.11"/>
<polygon fill="black" stroke="black" points="369.5,-46.1 366,-36.1 362.5,-46.1 369.5,-46.1"/>
</a>
</g>
</g>
<!-- f7334&#45;&gt;f7333 -->
<g id="edge16" class="edge">
<title>f7334&#45;&gt;f7333</title>
<g id="a_edge16"><a xlink:title="Function ID=7334 depends on function ID=7333">
<path fill="none" stroke="black" d="M379.19,-215.87C376.63,-191.67 371.94,-147.21 368.89,-118.39"/>
<polygon fill="black" stroke="black" points="372.35,-117.77 367.82,-108.19 365.39,-118.5 372.35,-117.77"/>
</a>
</g>
</g>
<!-- f7146 -->
<g id="node16" class="node">
<title>f7146</title>
<g id="a_node16"><a xlink:title="Function ID=7146 &#10; contains 0 duplicate subfunctions">
<ellipse fill="lightgreen" stroke="lightgreen" cx="419" cy="-162" rx="27" ry="18"/>
<text text-anchor="middle" x="419" y="-158.3" font-family="Times,serif" font-size="14.00">0.0</text>
</a>
</g>
</g>
<!-- f7334&#45;&gt;f7146 -->
<g id="edge5" class="edge">
<title>f7334&#45;&gt;f7146</title>
<g id="a_edge5"><a xlink:title="Function ID=7334 depends on function ID=7146">
<path fill="none" stroke="black" d="M389.81,-216.76C394.42,-208.28 400.16,-197.71 405.32,-188.2"/>
<polygon fill="black" stroke="black" points="408.54,-189.61 410.23,-179.15 402.39,-186.27 408.54,-189.61"/>
</a>
</g>
</g>
<!-- f7273 -->
<g id="node14" class="node">
<title>f7273</title>
<g id="a_node14"><a xlink:title="Function ID=7273 &#10; contains 2 duplicate subfunctions">
<ellipse fill="lightblue" stroke="lightblue" cx="470" cy="-90" rx="27" ry="18"/>
<text text-anchor="middle" x="470" y="-86.3" font-family="Times,serif" font-size="14.00">*</text>
</a>
</g>
</g>
<!-- f7273&#45;&gt;f1 -->
<g id="edge12" class="edge">
<title>f7273&#45;&gt;f1</title>
<g id="a_edge12"><a xlink:title="Function ID=7273 depends on function ID=1">
<path fill="none" stroke="black" d="M451.41,-76.49C435.14,-65.54 411.31,-49.49 392.95,-37.14"/>
<polygon fill="black" stroke="black" points="394.68,-34.09 384.43,-31.41 390.77,-39.89 394.68,-34.09"/>
</a>
</g>
</g>
<!-- f7274&#45;&gt;f7273 -->
<g id="edge15" class="edge">
<title>f7274&#45;&gt;f7273</title>
<g id="a_edge15"><a xlink:title="Function ID=7274 depends on function ID=7273">
<path fill="none" stroke="black" d="M489.71,-144.05C486.74,-136.06 483.12,-126.33 479.81,-117.4"/>
<polygon fill="black" stroke="black" points="483,-115.94 476.24,-107.79 476.44,-118.38 483,-115.94"/>
</a>
</g>
</g>
<!-- f7087&#45;&gt;f1 -->
<g id="edge10" class="edge">
<title>f7087&#45;&gt;f1</title>
<g id="a_edge10"><a xlink:title="Function ID=7087 depends on function ID=1">
<path fill="none" stroke="black" d="M191.28,-79.85C227.67,-67.17 293.41,-44.28 333.05,-30.48"/>
<polygon fill="black" stroke="black" points="334.24,-33.77 342.53,-27.17 331.93,-27.16 334.24,-33.77"/>
</a>
</g>
</g>
<!-- f7088&#45;&gt;f3 -->
<g id="edge8" class="edge">
<title>f7088&#45;&gt;f3</title>
<g id="a_edge8"><a xlink:title="Function ID=7088 depends on function ID=3">
<path fill="none" stroke="black" d="M207.84,-146.15C223.73,-135.36 245.34,-120.67 262.26,-109.17"/>
<polygon fill="black" stroke="black" points="264.33,-112 270.63,-103.48 260.39,-106.21 264.33,-112"/>
</a>
</g>
</g>
<!-- f7094&#45;&gt;f4 -->
<g id="edge7" class="edge">
<title>f7094&#45;&gt;f4</title>
<g id="a_edge7"><a xlink:title="Function ID=7094 depends on function ID=4">
<path fill="none" stroke="black" d="M585.43,-144.05C582.8,-136.06 579.61,-126.33 576.67,-117.4"/>
<polygon fill="black" stroke="black" points="579.96,-116.2 573.52,-107.79 573.31,-118.38 579.96,-116.2"/>
</a>
</g>
</g>
</g>
</svg>
