<?xml version="1.0" encoding="UTF-8" standalone="no"?>
<!DOCTYPE svg PUBLIC "-//W3C//DTD SVG 1.1//EN"
 "http://www.w3.org/Graphics/SVG/1.1/DTD/svg11.dtd">
<!-- Generated by graphviz version 2.43.0 (0)
 -->
<!-- Title: %3 Pages: 1 -->
<svg width="452pt" height="626pt"
 viewBox="0.00 0.00 452.45 626.00" xmlns="http://www.w3.org/2000/svg" xmlns:xlink="http://www.w3.org/1999/xlink">
<g id="graph0" class="graph" transform="scale(1 1) rotate(0) translate(4 622)">
<title>%3</title>
<g id="a_graph0"><a xlink:title="Hey! Notice that red nodes are clickable and &#10; tooltips contain additional information!">
<polygon fill="white" stroke="transparent" points="-4,4 -4,-622 448.45,-622 448.45,4 -4,4"/>
</a>
</g>
<!-- function0 -->
<g id="node1" class="node">
<title>function0</title>
<g id="a_node1"><a xlink:href="inspected-f5-graph-0.svg" xlink:title="original function &#10; contains 3 duplicate subfunctions &#10; contains 3 unique subfunctions &#10; (and is clickable)">
<path fill="red" stroke="red" d="M127,-254C127,-254 12,-254 12,-254 6,-254 0,-248 0,-242 0,-242 0,-228 0,-228 0,-222 6,-216 12,-216 12,-216 127,-216 127,-216 133,-216 139,-222 139,-228 139,-228 139,-242 139,-242 139,-248 133,-254 127,-254"/>
<text text-anchor="middle" x="69.5" y="-238.8" font-family="Times,serif" font-size="14.00">(Sin(X)) ** (5.0) </text>
<text text-anchor="middle" x="69.5" y="-223.8" font-family="Times,serif" font-size="14.00"> original function</text>
</a>
</g>
</g>
<!-- f5 -->
<g id="node2" class="node">
<title>f5</title>
<g id="a_node2"><a xlink:title="Function ID=5 &#10; contains 2 duplicate subfunctions">
<ellipse fill="lightblue" stroke="lightblue" cx="71.5" cy="-162" rx="31.4" ry="18"/>
<text text-anchor="middle" x="71.5" y="-158.3" font-family="Times,serif" font-size="14.00"> ** 5</text>
</a>
</g>
</g>
<!-- function0&#45;&gt;f5 -->
<g id="edge1" class="edge">
<title>function0&#45;&gt;f5</title>
<path fill="none" stroke="black" d="M70.02,-215.72C70.23,-207.97 70.49,-198.79 70.73,-190.27"/>
<polygon fill="black" stroke="black" points="74.24,-190.1 71.02,-180 67.24,-189.9 74.24,-190.1"/>
</g>
<!-- f3 -->
<g id="node8" class="node">
<title>f3</title>
<g id="a_node8"><a xlink:title="Function ID=3 &#10; contains 1 duplicate subfunctions">
<ellipse fill="lightblue" stroke="lightblue" cx="258.5" cy="-90" rx="27" ry="18"/>
<text text-anchor="middle" x="258.5" y="-86.3" font-family="Times,serif" font-size="14.00">Sin</text>
</a>
</g>
</g>
<!-- f5&#45;&gt;f3 -->
<g id="edge13" class="edge">
<title>f5&#45;&gt;f3</title>
<g id="a_edge13"><a xlink:title="Function ID=5 depends on function ID=3">
<path fill="none" stroke="black" d="M96.14,-150.57C101.52,-148.36 107.19,-146.07 112.5,-144 151.11,-128.99 195.96,-112.91 225.66,-102.45"/>
<polygon fill="black" stroke="black" points="226.84,-105.74 235.12,-99.12 224.52,-99.14 226.84,-105.74"/>
</a>
</g>
</g>
<!-- function1 -->
<g id="node3" class="node">
<title>function1</title>
<g id="a_node3"><a xlink:href="inspected-f5-graph-1.svg" xlink:title="1st derivative function &#10; contains 7 duplicate subfunctions &#10; contains 6 unique subfunctions &#10; (and is clickable)">
<path fill="red" stroke="red" d="M312,-400C312,-400 205,-400 205,-400 199,-400 193,-394 193,-388 193,-388 193,-374 193,-374 193,-368 199,-362 205,-362 205,-362 312,-362 312,-362 318,-362 324,-368 324,-374 324,-374 324,-388 324,-388 324,-394 318,-400 312,-400"/>
<text text-anchor="middle" x="258.5" y="-384.8" font-family="Times,serif" font-size="14.00">(Sin(X)) ** (5.0) </text>
<text text-anchor="middle" x="258.5" y="-369.8" font-family="Times,serif" font-size="14.00"> 1st derivative</text>
</a>
</g>
</g>
<!-- f8 -->
<g id="node4" class="node">
<title>f8</title>
<g id="a_node4"><a xlink:title="Function ID=8 &#10; contains 6 duplicate subfunctions">
<ellipse fill="lightblue" stroke="lightblue" cx="258.5" cy="-308" rx="27" ry="18"/>
<text text-anchor="middle" x="258.5" y="-304.3" font-family="Times,serif" font-size="14.00">*</text>
</a>
</g>
</g>
<!-- function1&#45;&gt;f8 -->
<g id="edge2" class="edge">
<title>function1&#45;&gt;f8</title>
<path fill="none" stroke="black" d="M258.5,-361.72C258.5,-353.97 258.5,-344.79 258.5,-336.27"/>
<polygon fill="black" stroke="black" points="262,-336 258.5,-326 255,-336 262,-336"/>
</g>
<!-- f4 -->
<g id="node9" class="node">
<title>f4</title>
<g id="a_node9"><a xlink:title="Function ID=4 &#10; contains 1 duplicate subfunctions">
<ellipse fill="lightblue" stroke="lightblue" cx="416.5" cy="-235" rx="27.9" ry="18"/>
<text text-anchor="middle" x="416.5" y="-231.3" font-family="Times,serif" font-size="14.00">Cos</text>
</a>
</g>
</g>
<!-- f8&#45;&gt;f4 -->
<g id="edge9" class="edge">
<title>f8&#45;&gt;f4</title>
<g id="a_edge9"><a xlink:title="Function ID=8 depends on function ID=4">
<path fill="none" stroke="black" d="M280.92,-297.5C305.3,-287.09 345.36,-269.78 379.5,-254 381.55,-253.05 383.67,-252.06 385.79,-251.05"/>
<polygon fill="black" stroke="black" points="387.54,-254.1 395.05,-246.62 384.52,-247.78 387.54,-254.1"/>
</a>
</g>
</g>
<!-- f7 -->
<g id="node11" class="node">
<title>f7</title>
<g id="a_node11"><a xlink:title="Function ID=7 &#10; contains 3 duplicate subfunctions">
<ellipse fill="lightblue" stroke="lightblue" cx="255.5" cy="-235" rx="32.49" ry="18"/>
<text text-anchor="middle" x="255.5" y="-231.3" font-family="Times,serif" font-size="14.00">5.0 *</text>
</a>
</g>
</g>
<!-- f8&#45;&gt;f7 -->
<g id="edge15" class="edge">
<title>f8&#45;&gt;f7</title>
<g id="a_edge15"><a xlink:title="Function ID=8 depends on function ID=7">
<path fill="none" stroke="black" d="M257.77,-289.81C257.43,-281.79 257.02,-272.05 256.64,-263.07"/>
<polygon fill="black" stroke="black" points="260.14,-262.87 256.22,-253.03 253.14,-263.17 260.14,-262.87"/>
</a>
</g>
</g>
<!-- function2 -->
<g id="node5" class="node">
<title>function2</title>
<g id="a_node5"><a xlink:href="inspected-f5-graph-2.svg" xlink:title="2nd derivative function &#10; contains 20 duplicate subfunctions &#10; contains 13 unique subfunctions &#10; (and is clickable)">
<path fill="red" stroke="red" d="M323,-618C323,-618 216,-618 216,-618 210,-618 204,-612 204,-606 204,-606 204,-592 204,-592 204,-586 210,-580 216,-580 216,-580 323,-580 323,-580 329,-580 335,-586 335,-592 335,-592 335,-606 335,-606 335,-612 329,-618 323,-618"/>
<text text-anchor="middle" x="269.5" y="-602.8" font-family="Times,serif" font-size="14.00">(Sin(X)) ** (5.0) </text>
<text text-anchor="middle" x="269.5" y="-587.8" font-family="Times,serif" font-size="14.00"> 2nd derivative</text>
</a>
</g>
</g>
<!-- f16 -->
<g id="node6" class="node">
<title>f16</title>
<g id="a_node6"><a xlink:title="Function ID=16 &#10; contains 19 duplicate subfunctions">
<ellipse fill="lightblue" stroke="lightblue" cx="269.5" cy="-526" rx="27" ry="18"/>
<text text-anchor="middle" x="269.5" y="-522.3" font-family="Times,serif" font-size="14.00">+</text>
</a>
</g>
</g>
<!-- function2&#45;&gt;f16 -->
<g id="edge3" class="edge">
<title>function2&#45;&gt;f16</title>
<path fill="none" stroke="black" d="M269.5,-579.72C269.5,-571.97 269.5,-562.79 269.5,-554.27"/>
<polygon fill="black" stroke="black" points="273,-554 269.5,-544 266,-554 273,-554"/>
</g>
<!-- f13 -->
<g id="node16" class="node">
<title>f13</title>
<g id="a_node16"><a xlink:title="Function ID=13 &#10; contains 10 duplicate subfunctions">
<ellipse fill="lightblue" stroke="lightblue" cx="374.5" cy="-454" rx="27" ry="18"/>
<text text-anchor="middle" x="374.5" y="-450.3" font-family="Times,serif" font-size="14.00">*</text>
</a>
</g>
</g>
<!-- f16&#45;&gt;f13 -->
<g id="edge12" class="edge">
<title>f16&#45;&gt;f13</title>
<g id="a_edge12"><a xlink:title="Function ID=16 depends on function ID=13">
<path fill="none" stroke="black" d="M288.27,-512.49C304.77,-501.49 328.98,-485.35 347.55,-472.97"/>
<polygon fill="black" stroke="black" points="349.51,-475.87 355.89,-467.41 345.63,-470.04 349.51,-475.87"/>
</a>
</g>
</g>
<!-- f15 -->
<g id="node18" class="node">
<title>f15</title>
<g id="a_node18"><a xlink:title="Function ID=15 &#10; contains 7 duplicate subfunctions">
<ellipse fill="lightblue" stroke="lightblue" cx="167.5" cy="-308" rx="27" ry="18"/>
<text text-anchor="middle" x="167.5" y="-304.3" font-family="Times,serif" font-size="14.00">*</text>
</a>
</g>
</g>
<!-- f16&#45;&gt;f15 -->
<g id="edge21" class="edge">
<title>f16&#45;&gt;f15</title>
<g id="a_edge21"><a xlink:title="Function ID=16 depends on function ID=15">
<path fill="none" stroke="black" d="M256.01,-510.09C236.68,-487.85 201.45,-443.88 183.5,-400 175.12,-379.52 171.13,-354.69 169.22,-336.15"/>
<polygon fill="black" stroke="black" points="172.7,-335.69 168.33,-326.03 165.72,-336.3 172.7,-335.69"/>
</a>
</g>
</g>
<!-- f1 -->
<g id="node7" class="node">
<title>f1</title>
<g id="a_node7"><a xlink:title="Function ID=1 &#10; contains 0 duplicate subfunctions">
<ellipse fill="lightgreen" stroke="lightgreen" cx="332.5" cy="-18" rx="27" ry="18"/>
<text text-anchor="middle" x="332.5" y="-14.3" font-family="Times,serif" font-size="14.00">X</text>
</a>
</g>
</g>
<!-- f3&#45;&gt;f1 -->
<g id="edge14" class="edge">
<title>f3&#45;&gt;f1</title>
<g id="a_edge14"><a xlink:title="Function ID=3 depends on function ID=1">
<path fill="none" stroke="black" d="M273.48,-74.83C284.01,-64.87 298.28,-51.37 310.16,-40.14"/>
<polygon fill="black" stroke="black" points="312.69,-42.56 317.55,-33.14 307.88,-37.47 312.69,-42.56"/>
</a>
</g>
</g>
<!-- f4&#45;&gt;f1 -->
<g id="edge11" class="edge">
<title>f4&#45;&gt;f1</title>
<g id="a_edge11"><a xlink:title="Function ID=4 depends on function ID=1">
<path fill="none" stroke="black" d="M409.91,-217.13C395.3,-179.75 360.14,-89.75 342.68,-45.07"/>
<polygon fill="black" stroke="black" points="345.84,-43.54 338.95,-35.5 339.32,-46.09 345.84,-43.54"/>
</a>
</g>
</g>
<!-- f6 -->
<g id="node10" class="node">
<title>f6</title>
<g id="a_node10"><a xlink:title="Function ID=6 &#10; contains 2 duplicate subfunctions">
<ellipse fill="lightblue" stroke="lightblue" cx="258.5" cy="-162" rx="31.4" ry="18"/>
<text text-anchor="middle" x="258.5" y="-158.3" font-family="Times,serif" font-size="14.00"> ** 4</text>
</a>
</g>
</g>
<!-- f6&#45;&gt;f3 -->
<g id="edge10" class="edge">
<title>f6&#45;&gt;f3</title>
<g id="a_edge10"><a xlink:title="Function ID=6 depends on function ID=3">
<path fill="none" stroke="black" d="M258.5,-143.7C258.5,-135.98 258.5,-126.71 258.5,-118.11"/>
<polygon fill="black" stroke="black" points="262,-118.1 258.5,-108.1 255,-118.1 262,-118.1"/>
</a>
</g>
</g>
<!-- f7&#45;&gt;f6 -->
<g id="edge16" class="edge">
<title>f7&#45;&gt;f6</title>
<g id="a_edge16"><a xlink:title="Function ID=7 depends on function ID=6">
<path fill="none" stroke="black" d="M256.23,-216.81C256.57,-208.79 256.98,-199.05 257.36,-190.07"/>
<polygon fill="black" stroke="black" points="260.86,-190.17 257.78,-180.03 253.86,-189.87 260.86,-190.17"/>
</a>
</g>
</g>
<!-- f9 -->
<g id="node12" class="node">
<title>f9</title>
<g id="a_node12"><a xlink:title="Function ID=9 &#10; contains 2 duplicate subfunctions">
<ellipse fill="lightblue" stroke="lightblue" cx="338.5" cy="-162" rx="31.4" ry="18"/>
<text text-anchor="middle" x="338.5" y="-158.3" font-family="Times,serif" font-size="14.00"> ** 3</text>
</a>
</g>
</g>
<!-- f9&#45;&gt;f3 -->
<g id="edge8" class="edge">
<title>f9&#45;&gt;f3</title>
<g id="a_edge8"><a xlink:title="Function ID=9 depends on function ID=3">
<path fill="none" stroke="black" d="M321.92,-146.5C310.33,-136.35 294.67,-122.65 281.82,-111.4"/>
<polygon fill="black" stroke="black" points="284.07,-108.72 274.24,-104.77 279.46,-113.99 284.07,-108.72"/>
</a>
</g>
</g>
<!-- f10 -->
<g id="node13" class="node">
<title>f10</title>
<g id="a_node13"><a xlink:title="Function ID=10 &#10; contains 3 duplicate subfunctions">
<ellipse fill="lightblue" stroke="lightblue" cx="338.5" cy="-235" rx="32.49" ry="18"/>
<text text-anchor="middle" x="338.5" y="-231.3" font-family="Times,serif" font-size="14.00">4.0 *</text>
</a>
</g>
</g>
<!-- f10&#45;&gt;f9 -->
<g id="edge20" class="edge">
<title>f10&#45;&gt;f9</title>
<g id="a_edge20"><a xlink:title="Function ID=10 depends on function ID=9">
<path fill="none" stroke="black" d="M338.5,-216.81C338.5,-208.79 338.5,-199.05 338.5,-190.07"/>
<polygon fill="black" stroke="black" points="342,-190.03 338.5,-180.03 335,-190.03 342,-190.03"/>
</a>
</g>
</g>
<!-- f11 -->
<g id="node14" class="node">
<title>f11</title>
<g id="a_node14"><a xlink:title="Function ID=11 &#10; contains 6 duplicate subfunctions">
<ellipse fill="lightblue" stroke="lightblue" cx="374.5" cy="-308" rx="27" ry="18"/>
<text text-anchor="middle" x="374.5" y="-304.3" font-family="Times,serif" font-size="14.00">*</text>
</a>
</g>
</g>
<!-- f11&#45;&gt;f4 -->
<g id="edge7" class="edge">
<title>f11&#45;&gt;f4</title>
<g id="a_edge7"><a xlink:title="Function ID=11 depends on function ID=4">
<path fill="none" stroke="black" d="M384.03,-290.89C389.29,-281.99 395.94,-270.75 401.85,-260.77"/>
<polygon fill="black" stroke="black" points="404.93,-262.44 407.01,-252.05 398.9,-258.87 404.93,-262.44"/>
</a>
</g>
</g>
<!-- f11&#45;&gt;f10 -->
<g id="edge19" class="edge">
<title>f11&#45;&gt;f10</title>
<g id="a_edge19"><a xlink:title="Function ID=11 depends on function ID=10">
<path fill="none" stroke="black" d="M366.15,-290.53C361.85,-282.05 356.51,-271.52 351.67,-261.97"/>
<polygon fill="black" stroke="black" points="354.7,-260.21 347.05,-252.87 348.46,-263.37 354.7,-260.21"/>
</a>
</g>
</g>
<!-- f12 -->
<g id="node15" class="node">
<title>f12</title>
<g id="a_node15"><a xlink:title="Function ID=12 &#10; contains 7 duplicate subfunctions">
<ellipse fill="lightblue" stroke="lightblue" cx="374.5" cy="-381" rx="32.49" ry="18"/>
<text text-anchor="middle" x="374.5" y="-377.3" font-family="Times,serif" font-size="14.00">5.0 *</text>
</a>
</g>
</g>
<!-- f12&#45;&gt;f11 -->
<g id="edge18" class="edge">
<title>f12&#45;&gt;f11</title>
<g id="a_edge18"><a xlink:title="Function ID=12 depends on function ID=11">
<path fill="none" stroke="black" d="M374.5,-362.81C374.5,-354.79 374.5,-345.05 374.5,-336.07"/>
<polygon fill="black" stroke="black" points="378,-336.03 374.5,-326.03 371,-336.03 378,-336.03"/>
</a>
</g>
</g>
<!-- f13&#45;&gt;f4 -->
<g id="edge5" class="edge">
<title>f13&#45;&gt;f4</title>
<g id="a_edge5"><a xlink:title="Function ID=13 depends on function ID=4">
<path fill="none" stroke="black" d="M389.68,-438.84C399.09,-428.98 410.34,-414.96 415.5,-400 431.35,-354.05 426.51,-296.46 421.52,-263.19"/>
<polygon fill="black" stroke="black" points="424.91,-262.2 419.85,-252.88 418,-263.31 424.91,-262.2"/>
</a>
</g>
</g>
<!-- f13&#45;&gt;f12 -->
<g id="edge17" class="edge">
<title>f13&#45;&gt;f12</title>
<g id="a_edge17"><a xlink:title="Function ID=13 depends on function ID=12">
<path fill="none" stroke="black" d="M374.5,-435.81C374.5,-427.79 374.5,-418.05 374.5,-409.07"/>
<polygon fill="black" stroke="black" points="378,-409.03 374.5,-399.03 371,-409.03 378,-409.03"/>
</a>
</g>
</g>
<!-- f14 -->
<g id="node17" class="node">
<title>f14</title>
<g id="a_node17"><a xlink:title="Function ID=14 &#10; contains 2 duplicate subfunctions">
<ellipse fill="lightblue" stroke="lightblue" cx="165.5" cy="-162" rx="43.59" ry="18"/>
<text text-anchor="middle" x="165.5" y="-158.3" font-family="Times,serif" font-size="14.00">unary &#45;</text>
</a>
</g>
</g>
<!-- f14&#45;&gt;f3 -->
<g id="edge4" class="edge">
<title>f14&#45;&gt;f3</title>
<g id="a_edge4"><a xlink:title="Function ID=14 depends on function ID=3">
<path fill="none" stroke="black" d="M185.68,-145.81C199.52,-135.39 218.01,-121.48 232.89,-110.28"/>
<polygon fill="black" stroke="black" points="235.29,-112.85 241.17,-104.04 231.08,-107.26 235.29,-112.85"/>
</a>
</g>
</g>
<!-- f15&#45;&gt;f7 -->
<g id="edge6" class="edge">
<title>f15&#45;&gt;f7</title>
<g id="a_edge6"><a xlink:title="Function ID=15 depends on function ID=7">
<path fill="none" stroke="black" d="M184.05,-293.65C196.99,-283.21 215.2,-268.51 230,-256.57"/>
<polygon fill="black" stroke="black" points="232.23,-259.27 237.81,-250.27 227.83,-253.82 232.23,-259.27"/>
</a>
</g>
</g>
<!-- f15&#45;&gt;f14 -->
<g id="edge22" class="edge">
<title>f15&#45;&gt;f14</title>
<g id="a_edge22"><a xlink:title="Function ID=15 depends on function ID=14">
<path fill="none" stroke="black" d="M167.26,-289.92C166.92,-265.34 166.29,-219.75 165.88,-190.43"/>
<polygon fill="black" stroke="black" points="169.38,-190.01 165.74,-180.06 162.38,-190.11 169.38,-190.01"/>
</a>
</g>
</g>
</g>
</svg>
