<?xml version="1.0" encoding="UTF-8" standalone="no"?>
<!DOCTYPE svg PUBLIC "-//W3C//DTD SVG 1.1//EN"
 "http://www.w3.org/Graphics/SVG/1.1/DTD/svg11.dtd">
<!-- Generated by graphviz version 2.43.0 (0)
 -->
<!-- Title: %3 Pages: 1 -->
<svg width="555pt" height="554pt"
 viewBox="0.00 0.00 554.80 554.00" xmlns="http://www.w3.org/2000/svg" xmlns:xlink="http://www.w3.org/1999/xlink">
<g id="graph0" class="graph" transform="scale(1 1) rotate(0) translate(4 550)">
<title>%3</title>
<g id="a_graph0"><a xlink:title="Hey! Notice that red nodes are clickable and &#10; tooltips contain additional information!">
<polygon fill="white" stroke="transparent" points="-4,4 -4,-550 550.8,-550 550.8,4 -4,4"/>
</a>
</g>
<!-- function0 -->
<g id="node1" class="node">
<title>function0</title>
<g id="a_node1"><a xlink:href="inspected-f2404-optimized-0.svg" xlink:title="original function &#10; contains 2 duplicate subfunctions &#10; contains 2 unique subfunctions &#10; (and is clickable)">
<path fill="red" stroke="red" d="M534.8,-254C534.8,-254 419.8,-254 419.8,-254 413.8,-254 407.8,-248 407.8,-242 407.8,-242 407.8,-228 407.8,-228 407.8,-222 413.8,-216 419.8,-216 419.8,-216 534.8,-216 534.8,-216 540.8,-216 546.8,-222 546.8,-228 546.8,-228 546.8,-242 546.8,-242 546.8,-248 540.8,-254 534.8,-254"/>
<text text-anchor="middle" x="477.3" y="-238.8" font-family="Times,serif" font-size="14.00">(0.9) ** (X) </text>
<text text-anchor="middle" x="477.3" y="-223.8" font-family="Times,serif" font-size="14.00"> original function</text>
</a>
</g>
</g>
<!-- f2404 -->
<g id="node2" class="node">
<title>f2404</title>
<g id="a_node2"><a xlink:title="Function ID=2404 &#10; contains 1 duplicate subfunctions">
<ellipse fill="lightblue" stroke="lightblue" cx="477.3" cy="-162" rx="40.09" ry="18"/>
<text text-anchor="middle" x="477.3" y="-158.3" font-family="Times,serif" font-size="14.00">0.9 ** </text>
</a>
</g>
</g>
<!-- function0&#45;&gt;f2404 -->
<g id="edge1" class="edge">
<title>function0&#45;&gt;f2404</title>
<path fill="none" stroke="black" d="M477.3,-215.72C477.3,-207.97 477.3,-198.79 477.3,-190.27"/>
<polygon fill="black" stroke="black" points="480.8,-190 477.3,-180 473.8,-190 480.8,-190"/>
</g>
<!-- f1 -->
<g id="node7" class="node">
<title>f1</title>
<g id="a_node7"><a xlink:title="Function ID=1 &#10; contains 0 duplicate subfunctions">
<ellipse fill="lightgreen" stroke="lightgreen" cx="317.3" cy="-18" rx="27" ry="18"/>
<text text-anchor="middle" x="317.3" y="-14.3" font-family="Times,serif" font-size="14.00">X</text>
</a>
</g>
</g>
<!-- f2404&#45;&gt;f1 -->
<g id="edge19" class="edge">
<title>f2404&#45;&gt;f1</title>
<g id="a_edge19"><a xlink:title="Function ID=2404 depends on function ID=1">
<path fill="none" stroke="black" d="M478.47,-143.82C478.87,-124.18 476.49,-92.14 459.3,-72 432.86,-41.03 386.49,-28.13 353.96,-22.78"/>
<polygon fill="black" stroke="black" points="354.33,-19.3 343.92,-21.29 353.3,-26.22 354.33,-19.3"/>
</a>
</g>
</g>
<!-- function1 -->
<g id="node3" class="node">
<title>function1</title>
<g id="a_node3"><a xlink:href="inspected-f2404-optimized-1.svg" xlink:title="1st derivative function &#10; contains 7 duplicate subfunctions &#10; contains 6 unique subfunctions &#10; (and is clickable)">
<path fill="red" stroke="red" d="M285.3,-328C285.3,-328 189.3,-328 189.3,-328 183.3,-328 177.3,-322 177.3,-316 177.3,-316 177.3,-302 177.3,-302 177.3,-296 183.3,-290 189.3,-290 189.3,-290 285.3,-290 285.3,-290 291.3,-290 297.3,-296 297.3,-302 297.3,-302 297.3,-316 297.3,-316 297.3,-322 291.3,-328 285.3,-328"/>
<text text-anchor="middle" x="237.3" y="-312.8" font-family="Times,serif" font-size="14.00">(0.9) ** (X) </text>
<text text-anchor="middle" x="237.3" y="-297.8" font-family="Times,serif" font-size="14.00"> 1st derivative</text>
</a>
</g>
</g>
<!-- f2588 -->
<g id="node4" class="node">
<title>f2588</title>
<g id="a_node4"><a xlink:title="Function ID=2588 &#10; contains 6 duplicate subfunctions">
<ellipse fill="lightblue" stroke="lightblue" cx="237.3" cy="-235" rx="27" ry="18"/>
<text text-anchor="middle" x="237.3" y="-231.3" font-family="Times,serif" font-size="14.00">*</text>
</a>
</g>
</g>
<!-- function1&#45;&gt;f2588 -->
<g id="edge2" class="edge">
<title>function1&#45;&gt;f2588</title>
<path fill="none" stroke="black" d="M237.3,-289.83C237.3,-281.89 237.3,-272.41 237.3,-263.63"/>
<polygon fill="black" stroke="black" points="240.8,-263.42 237.3,-253.42 233.8,-263.42 240.8,-263.42"/>
</g>
<!-- f2588&#45;&gt;f2404 -->
<g id="edge6" class="edge">
<title>f2588&#45;&gt;f2404</title>
<g id="a_edge6"><a xlink:title="Function ID=2588 depends on function ID=2404">
<path fill="none" stroke="black" d="M258.47,-223.41C264.18,-220.79 270.4,-218.12 276.3,-216 328.42,-197.26 390.3,-181.94 431.5,-172.67"/>
<polygon fill="black" stroke="black" points="432.5,-176.04 441.51,-170.45 430.98,-169.2 432.5,-176.04"/>
</a>
</g>
</g>
<!-- f2407 -->
<g id="node13" class="node">
<title>f2407</title>
<g id="a_node13"><a xlink:title="Function ID=2407 &#10; contains 3 duplicate subfunctions">
<ellipse fill="lightblue" stroke="lightblue" cx="235.3" cy="-162" rx="27" ry="18"/>
<text text-anchor="middle" x="235.3" y="-158.3" font-family="Times,serif" font-size="14.00">of</text>
</a>
</g>
</g>
<!-- f2588&#45;&gt;f2407 -->
<g id="edge7" class="edge">
<title>f2588&#45;&gt;f2407</title>
<g id="a_edge7"><a xlink:title="Function ID=2588 depends on function ID=2407">
<path fill="none" stroke="black" d="M236.81,-216.81C236.59,-208.79 236.31,-199.05 236.06,-190.07"/>
<polygon fill="black" stroke="black" points="239.56,-189.93 235.78,-180.03 232.56,-190.12 239.56,-189.93"/>
</a>
</g>
</g>
<!-- function2 -->
<g id="node5" class="node">
<title>function2</title>
<g id="a_node5"><a xlink:href="inspected-f2404-optimized-2.svg" xlink:title="2nd derivative function &#10; contains 23 duplicate subfunctions &#10; contains 17 unique subfunctions &#10; (and is clickable)">
<path fill="red" stroke="red" d="M323.8,-546C323.8,-546 222.8,-546 222.8,-546 216.8,-546 210.8,-540 210.8,-534 210.8,-534 210.8,-520 210.8,-520 210.8,-514 216.8,-508 222.8,-508 222.8,-508 323.8,-508 323.8,-508 329.8,-508 335.8,-514 335.8,-520 335.8,-520 335.8,-534 335.8,-534 335.8,-540 329.8,-546 323.8,-546"/>
<text text-anchor="middle" x="273.3" y="-530.8" font-family="Times,serif" font-size="14.00">(0.9) ** (X) </text>
<text text-anchor="middle" x="273.3" y="-515.8" font-family="Times,serif" font-size="14.00"> 2nd derivative</text>
</a>
</g>
</g>
<!-- f2563 -->
<g id="node6" class="node">
<title>f2563</title>
<g id="a_node6"><a xlink:title="Function ID=2563 &#10; contains 22 duplicate subfunctions">
<ellipse fill="lightblue" stroke="lightblue" cx="273.3" cy="-454" rx="27" ry="18"/>
<text text-anchor="middle" x="273.3" y="-450.3" font-family="Times,serif" font-size="14.00">+</text>
</a>
</g>
</g>
<!-- function2&#45;&gt;f2563 -->
<g id="edge3" class="edge">
<title>function2&#45;&gt;f2563</title>
<path fill="none" stroke="black" d="M273.3,-507.72C273.3,-499.97 273.3,-490.79 273.3,-482.27"/>
<polygon fill="black" stroke="black" points="276.8,-482 273.3,-472 269.8,-482 276.8,-482"/>
</g>
<!-- f2556 -->
<g id="node21" class="node">
<title>f2556</title>
<g id="a_node21"><a xlink:title="Function ID=2556 &#10; contains 20 duplicate subfunctions">
<ellipse fill="lightblue" stroke="lightblue" cx="237.3" cy="-382" rx="27" ry="18"/>
<text text-anchor="middle" x="237.3" y="-378.3" font-family="Times,serif" font-size="14.00">+</text>
</a>
</g>
</g>
<!-- f2563&#45;&gt;f2556 -->
<g id="edge14" class="edge">
<title>f2563&#45;&gt;f2556</title>
<g id="a_edge14"><a xlink:title="Function ID=2563 depends on function ID=2556">
<path fill="none" stroke="black" d="M264.95,-436.76C260.58,-428.28 255.15,-417.71 250.26,-408.2"/>
<polygon fill="black" stroke="black" points="253.29,-406.44 245.6,-399.15 247.06,-409.64 253.29,-406.44"/>
</a>
</g>
</g>
<!-- f2462 -->
<g id="node22" class="node">
<title>f2462</title>
<g id="a_node22"><a xlink:title="Function ID=2462 &#10; contains 0 duplicate subfunctions">
<ellipse fill="lightgreen" stroke="lightgreen" cx="309.3" cy="-382" rx="27" ry="18"/>
<text text-anchor="middle" x="309.3" y="-378.3" font-family="Times,serif" font-size="14.00">0.0</text>
</a>
</g>
</g>
<!-- f2563&#45;&gt;f2462 -->
<g id="edge18" class="edge">
<title>f2563&#45;&gt;f2462</title>
<g id="a_edge18"><a xlink:title="Function ID=2563 depends on function ID=2462">
<path fill="none" stroke="black" d="M281.65,-436.76C286.01,-428.28 291.44,-417.71 296.34,-408.2"/>
<polygon fill="black" stroke="black" points="299.53,-409.64 300.99,-399.15 293.31,-406.44 299.53,-409.64"/>
</a>
</g>
</g>
<!-- f2 -->
<g id="node8" class="node">
<title>f2</title>
<g id="a_node8"><a xlink:title="Function ID=2 &#10; contains 1 duplicate subfunctions">
<ellipse fill="lightblue" stroke="lightblue" cx="165.3" cy="-90" rx="27.9" ry="18"/>
<text text-anchor="middle" x="165.3" y="-86.3" font-family="Times,serif" font-size="14.00">Log</text>
</a>
</g>
</g>
<!-- f2&#45;&gt;f1 -->
<g id="edge27" class="edge">
<title>f2&#45;&gt;f1</title>
<g id="a_edge27"><a xlink:title="Function ID=2 depends on function ID=1">
<path fill="none" stroke="black" d="M187.4,-78.82C213.44,-66.83 256.87,-46.83 286.27,-33.29"/>
<polygon fill="black" stroke="black" points="288.04,-36.33 295.66,-28.96 285.11,-29.97 288.04,-36.33"/>
</a>
</g>
</g>
<!-- f2530 -->
<g id="node9" class="node">
<title>f2530</title>
<g id="a_node9"><a xlink:title="Function ID=2530 &#10; contains 4 duplicate subfunctions">
<ellipse fill="lightblue" stroke="lightblue" cx="317.3" cy="-235" rx="32.49" ry="18"/>
<text text-anchor="middle" x="317.3" y="-231.3" font-family="Times,serif" font-size="14.00">0.0 *</text>
</a>
</g>
</g>
<!-- f2419 -->
<g id="node19" class="node">
<title>f2419</title>
<g id="a_node19"><a xlink:title="Function ID=2419 &#10; contains 3 duplicate subfunctions">
<ellipse fill="lightblue" stroke="lightblue" cx="317.3" cy="-162" rx="27" ry="18"/>
<text text-anchor="middle" x="317.3" y="-158.3" font-family="Times,serif" font-size="14.00">of</text>
</a>
</g>
</g>
<!-- f2530&#45;&gt;f2419 -->
<g id="edge9" class="edge">
<title>f2530&#45;&gt;f2419</title>
<g id="a_edge9"><a xlink:title="Function ID=2530 depends on function ID=2419">
<path fill="none" stroke="black" d="M317.3,-216.81C317.3,-208.79 317.3,-199.05 317.3,-190.07"/>
<polygon fill="black" stroke="black" points="320.8,-190.03 317.3,-180.03 313.8,-190.03 320.8,-190.03"/>
</a>
</g>
</g>
<!-- f2531 -->
<g id="node10" class="node">
<title>f2531</title>
<g id="a_node10"><a xlink:title="Function ID=2531 &#10; contains 7 duplicate subfunctions">
<ellipse fill="lightblue" stroke="lightblue" cx="342.3" cy="-309" rx="27" ry="18"/>
<text text-anchor="middle" x="342.3" y="-305.3" font-family="Times,serif" font-size="14.00">*</text>
</a>
</g>
</g>
<!-- f2531&#45;&gt;f2530 -->
<g id="edge25" class="edge">
<title>f2531&#45;&gt;f2530</title>
<g id="a_edge25"><a xlink:title="Function ID=2531 depends on function ID=2530">
<path fill="none" stroke="black" d="M336.5,-291.3C333.54,-282.79 329.88,-272.24 326.55,-262.64"/>
<polygon fill="black" stroke="black" points="329.82,-261.41 323.24,-253.11 323.21,-263.7 329.82,-261.41"/>
</a>
</g>
</g>
<!-- f2405 -->
<g id="node11" class="node">
<title>f2405</title>
<g id="a_node11"><a xlink:title="Function ID=2405 &#10; contains 1 duplicate subfunctions">
<ellipse fill="lightblue" stroke="lightblue" cx="410.3" cy="-90" rx="40.09" ry="18"/>
<text text-anchor="middle" x="410.3" y="-86.3" font-family="Times,serif" font-size="14.00">0.9 ** </text>
</a>
</g>
</g>
<!-- f2531&#45;&gt;f2405 -->
<g id="edge4" class="edge">
<title>f2531&#45;&gt;f2405</title>
<g id="a_edge4"><a xlink:title="Function ID=2531 depends on function ID=2405">
<path fill="none" stroke="black" d="M347.52,-291.33C359.23,-253.95 387.69,-163.15 401.91,-117.76"/>
<polygon fill="black" stroke="black" points="405.31,-118.61 404.96,-108.02 398.63,-116.52 405.31,-118.61"/>
</a>
</g>
</g>
<!-- f2405&#45;&gt;f1 -->
<g id="edge21" class="edge">
<title>f2405&#45;&gt;f1</title>
<g id="a_edge21"><a xlink:title="Function ID=2405 depends on function ID=1">
<path fill="none" stroke="black" d="M390.57,-74.15C376.67,-63.69 357.91,-49.57 342.86,-38.24"/>
<polygon fill="black" stroke="black" points="344.58,-35.16 334.49,-31.94 340.37,-40.75 344.58,-35.16"/>
</a>
</g>
</g>
<!-- f2406 -->
<g id="node12" class="node">
<title>f2406</title>
<g id="a_node12"><a xlink:title="Function ID=2406 &#10; contains 0 duplicate subfunctions">
<ellipse fill="lightgreen" stroke="lightgreen" cx="238.3" cy="-90" rx="27" ry="18"/>
<text text-anchor="middle" x="238.3" y="-86.3" font-family="Times,serif" font-size="14.00">0.9</text>
</a>
</g>
</g>
<!-- f2407&#45;&gt;f2 -->
<g id="edge17" class="edge">
<title>f2407&#45;&gt;f2</title>
<g id="a_edge17"><a xlink:title="Function ID=2407 depends on function ID=2">
<path fill="none" stroke="black" d="M220.79,-146.5C211.03,-136.73 197.99,-123.69 187,-112.7"/>
<polygon fill="black" stroke="black" points="189.33,-110.08 179.78,-105.49 184.38,-115.03 189.33,-110.08"/>
</a>
</g>
</g>
<!-- f2407&#45;&gt;f2406 -->
<g id="edge22" class="edge">
<title>f2407&#45;&gt;f2406</title>
<g id="a_edge22"><a xlink:title="Function ID=2407 depends on function ID=2406">
<path fill="none" stroke="black" d="M236.04,-143.7C236.37,-135.98 236.77,-126.71 237.13,-118.11"/>
<polygon fill="black" stroke="black" points="240.63,-118.25 237.56,-108.1 233.64,-117.95 240.63,-118.25"/>
</a>
</g>
</g>
<!-- f2411 -->
<g id="node14" class="node">
<title>f2411</title>
<g id="a_node14"><a xlink:title="Function ID=2411 &#10; contains 1 duplicate subfunctions">
<ellipse fill="lightblue" stroke="lightblue" cx="40.3" cy="-162" rx="40.09" ry="18"/>
<text text-anchor="middle" x="40.3" y="-158.3" font-family="Times,serif" font-size="14.00">0.9 ** </text>
</a>
</g>
</g>
<!-- f2411&#45;&gt;f1 -->
<g id="edge13" class="edge">
<title>f2411&#45;&gt;f1</title>
<g id="a_edge13"><a xlink:title="Function ID=2411 depends on function ID=1">
<path fill="none" stroke="black" d="M38.16,-143.72C36.72,-123.68 37.75,-90.97 56.3,-72 86.99,-40.61 215.8,-26.62 280.25,-21.5"/>
<polygon fill="black" stroke="black" points="280.68,-24.97 290.38,-20.72 280.15,-17.99 280.68,-24.97"/>
</a>
</g>
</g>
<!-- f2412 -->
<g id="node15" class="node">
<title>f2412</title>
<g id="a_node15"><a xlink:title="Function ID=2412 &#10; contains 0 duplicate subfunctions">
<ellipse fill="lightgreen" stroke="lightgreen" cx="92.3" cy="-90" rx="27" ry="18"/>
<text text-anchor="middle" x="92.3" y="-86.3" font-family="Times,serif" font-size="14.00">0.9</text>
</a>
</g>
</g>
<!-- f2413 -->
<g id="node16" class="node">
<title>f2413</title>
<g id="a_node16"><a xlink:title="Function ID=2413 &#10; contains 3 duplicate subfunctions">
<ellipse fill="lightblue" stroke="lightblue" cx="126.3" cy="-162" rx="27" ry="18"/>
<text text-anchor="middle" x="126.3" y="-158.3" font-family="Times,serif" font-size="14.00">of</text>
</a>
</g>
</g>
<!-- f2413&#45;&gt;f2 -->
<g id="edge12" class="edge">
<title>f2413&#45;&gt;f2</title>
<g id="a_edge12"><a xlink:title="Function ID=2413 depends on function ID=2">
<path fill="none" stroke="black" d="M135.34,-144.76C140.12,-136.19 146.08,-125.49 151.42,-115.9"/>
<polygon fill="black" stroke="black" points="154.49,-117.59 156.3,-107.15 148.38,-114.18 154.49,-117.59"/>
</a>
</g>
</g>
<!-- f2413&#45;&gt;f2412 -->
<g id="edge24" class="edge">
<title>f2413&#45;&gt;f2412</title>
<g id="a_edge24"><a xlink:title="Function ID=2413 depends on function ID=2412">
<path fill="none" stroke="black" d="M118.41,-144.76C114.39,-136.49 109.41,-126.23 104.88,-116.9"/>
<polygon fill="black" stroke="black" points="107.89,-115.1 100.38,-107.63 101.6,-118.16 107.89,-115.1"/>
</a>
</g>
</g>
<!-- f2414 -->
<g id="node17" class="node">
<title>f2414</title>
<g id="a_node17"><a xlink:title="Function ID=2414 &#10; contains 6 duplicate subfunctions">
<ellipse fill="lightblue" stroke="lightblue" cx="126.3" cy="-235" rx="27" ry="18"/>
<text text-anchor="middle" x="126.3" y="-231.3" font-family="Times,serif" font-size="14.00">*</text>
</a>
</g>
</g>
<!-- f2414&#45;&gt;f2411 -->
<g id="edge20" class="edge">
<title>f2414&#45;&gt;f2411</title>
<g id="a_edge20"><a xlink:title="Function ID=2414 depends on function ID=2411">
<path fill="none" stroke="black" d="M109.71,-220.31C97.47,-210.2 80.57,-196.25 66.51,-184.64"/>
<polygon fill="black" stroke="black" points="68.55,-181.79 58.61,-178.12 64.1,-187.19 68.55,-181.79"/>
</a>
</g>
</g>
<!-- f2414&#45;&gt;f2413 -->
<g id="edge23" class="edge">
<title>f2414&#45;&gt;f2413</title>
<g id="a_edge23"><a xlink:title="Function ID=2414 depends on function ID=2413">
<path fill="none" stroke="black" d="M126.3,-216.81C126.3,-208.79 126.3,-199.05 126.3,-190.07"/>
<polygon fill="black" stroke="black" points="129.8,-190.03 126.3,-180.03 122.8,-190.03 129.8,-190.03"/>
</a>
</g>
</g>
<!-- f2418 -->
<g id="node18" class="node">
<title>f2418</title>
<g id="a_node18"><a xlink:title="Function ID=2418 &#10; contains 1 duplicate subfunctions">
<ellipse fill="lightblue" stroke="lightblue" cx="317.3" cy="-90" rx="34.39" ry="18"/>
<text text-anchor="middle" x="317.3" y="-86.3" font-family="Times,serif" font-size="14.00">1.0 / </text>
</a>
</g>
</g>
<!-- f2418&#45;&gt;f1 -->
<g id="edge8" class="edge">
<title>f2418&#45;&gt;f1</title>
<g id="a_edge8"><a xlink:title="Function ID=2418 depends on function ID=1">
<path fill="none" stroke="black" d="M317.3,-71.7C317.3,-63.98 317.3,-54.71 317.3,-46.11"/>
<polygon fill="black" stroke="black" points="320.8,-46.1 317.3,-36.1 313.8,-46.1 320.8,-46.1"/>
</a>
</g>
</g>
<!-- f2419&#45;&gt;f2406 -->
<g id="edge10" class="edge">
<title>f2419&#45;&gt;f2406</title>
<g id="a_edge10"><a xlink:title="Function ID=2419 depends on function ID=2406">
<path fill="none" stroke="black" d="M301.69,-147.17C290.22,-137.01 274.45,-123.03 261.5,-111.56"/>
<polygon fill="black" stroke="black" points="263.68,-108.81 253.87,-104.8 259.04,-114.05 263.68,-108.81"/>
</a>
</g>
</g>
<!-- f2419&#45;&gt;f2418 -->
<g id="edge26" class="edge">
<title>f2419&#45;&gt;f2418</title>
<g id="a_edge26"><a xlink:title="Function ID=2419 depends on function ID=2418">
<path fill="none" stroke="black" d="M317.3,-143.7C317.3,-135.98 317.3,-126.71 317.3,-118.11"/>
<polygon fill="black" stroke="black" points="320.8,-118.1 317.3,-108.1 313.8,-118.1 320.8,-118.1"/>
</a>
</g>
</g>
<!-- f2549 -->
<g id="node20" class="node">
<title>f2549</title>
<g id="a_node20"><a xlink:title="Function ID=2549 &#10; contains 11 duplicate subfunctions">
<ellipse fill="lightblue" stroke="lightblue" cx="132.3" cy="-309" rx="27" ry="18"/>
<text text-anchor="middle" x="132.3" y="-305.3" font-family="Times,serif" font-size="14.00">*</text>
</a>
</g>
</g>
<!-- f2549&#45;&gt;f2407 -->
<g id="edge11" class="edge">
<title>f2549&#45;&gt;f2407</title>
<g id="a_edge11"><a xlink:title="Function ID=2549 depends on function ID=2407">
<path fill="none" stroke="black" d="M143.32,-292.48C161.27,-267.21 196.94,-217 218.2,-187.07"/>
<polygon fill="black" stroke="black" points="221.1,-189.02 224.04,-178.85 215.4,-184.97 221.1,-189.02"/>
</a>
</g>
</g>
<!-- f2549&#45;&gt;f2414 -->
<g id="edge16" class="edge">
<title>f2549&#45;&gt;f2414</title>
<g id="a_edge16"><a xlink:title="Function ID=2549 depends on function ID=2414">
<path fill="none" stroke="black" d="M130.87,-290.94C130.2,-282.81 129.37,-272.88 128.61,-263.7"/>
<polygon fill="black" stroke="black" points="132.07,-263.12 127.75,-253.44 125.09,-263.7 132.07,-263.12"/>
</a>
</g>
</g>
<!-- f2556&#45;&gt;f2531 -->
<g id="edge5" class="edge">
<title>f2556&#45;&gt;f2531</title>
<g id="a_edge5"><a xlink:title="Function ID=2556 depends on function ID=2531">
<path fill="none" stroke="black" d="M255.59,-368.63C272.12,-357.45 296.68,-340.85 315.44,-328.16"/>
<polygon fill="black" stroke="black" points="317.54,-330.96 323.86,-322.46 313.62,-325.17 317.54,-330.96"/>
</a>
</g>
</g>
<!-- f2556&#45;&gt;f2549 -->
<g id="edge15" class="edge">
<title>f2556&#45;&gt;f2549</title>
<g id="a_edge15"><a xlink:title="Function ID=2556 depends on function ID=2549">
<path fill="none" stroke="black" d="M219.01,-368.63C202.47,-357.45 177.92,-340.85 159.15,-328.16"/>
<polygon fill="black" stroke="black" points="160.97,-325.17 150.73,-322.46 157.05,-330.96 160.97,-325.17"/>
</a>
</g>
</g>
</g>
</svg>
