<?xml version="1.0" encoding="UTF-8" standalone="no"?>
<!DOCTYPE svg PUBLIC "-//W3C//DTD SVG 1.1//EN"
 "http://www.w3.org/Graphics/SVG/1.1/DTD/svg11.dtd">
<!-- Generated by graphviz version 2.43.0 (0)
 -->
<!-- Title: %3 Pages: 1 -->
<svg width="823pt" height="844pt"
 viewBox="0.00 0.00 822.50 844.00" xmlns="http://www.w3.org/2000/svg" xmlns:xlink="http://www.w3.org/1999/xlink">
<g id="graph0" class="graph" transform="scale(1 1) rotate(0) translate(4 840)">
<title>%3</title>
<g id="a_graph0"><a xlink:title="Hey! Notice that red nodes are clickable and &#10; tooltips contain additional information!">
<polygon fill="white" stroke="transparent" points="-4,4 -4,-840 818.5,-840 818.5,4 -4,4"/>
</a>
</g>
<!-- function0 -->
<g id="node1" class="node">
<title>function0</title>
<g id="a_node1"><a xlink:href="inspected-f378-optimized-0.svg" xlink:title="original function &#10; contains 2 duplicate subfunctions &#10; contains 2 unique subfunctions &#10; (and is clickable)">
<path fill="red" stroke="red" d="M127,-182C127,-182 12,-182 12,-182 6,-182 0,-176 0,-170 0,-170 0,-156 0,-156 0,-150 6,-144 12,-144 12,-144 127,-144 127,-144 133,-144 139,-150 139,-156 139,-156 139,-170 139,-170 139,-176 133,-182 127,-182"/>
<text text-anchor="middle" x="69.5" y="-166.8" font-family="Times,serif" font-size="14.00">(X) ** (5.0) </text>
<text text-anchor="middle" x="69.5" y="-151.8" font-family="Times,serif" font-size="14.00"> original function</text>
</a>
</g>
</g>
<!-- f378 -->
<g id="node2" class="node">
<title>f378</title>
<g id="a_node2"><a xlink:title="Function ID=378 &#10; contains 1 duplicate subfunctions">
<ellipse fill="lightblue" stroke="lightblue" cx="105.5" cy="-90" rx="31.4" ry="18"/>
<text text-anchor="middle" x="105.5" y="-86.3" font-family="Times,serif" font-size="14.00"> ** 5</text>
</a>
</g>
</g>
<!-- function0&#45;&gt;f378 -->
<g id="edge1" class="edge">
<title>function0&#45;&gt;f378</title>
<path fill="none" stroke="black" d="M78.77,-143.72C82.98,-135.42 88.02,-125.47 92.59,-116.46"/>
<polygon fill="black" stroke="black" points="95.72,-118.03 97.12,-107.52 89.48,-114.86 95.72,-118.03"/>
</g>
<!-- f1 -->
<g id="node13" class="node">
<title>f1</title>
<g id="a_node13"><a xlink:title="Function ID=1 &#10; contains 0 duplicate subfunctions">
<ellipse fill="lightgreen" stroke="lightgreen" cx="506.5" cy="-18" rx="27" ry="18"/>
<text text-anchor="middle" x="506.5" y="-14.3" font-family="Times,serif" font-size="14.00">X</text>
</a>
</g>
</g>
<!-- f378&#45;&gt;f1 -->
<g id="edge11" class="edge">
<title>f378&#45;&gt;f1</title>
<g id="a_edge11"><a xlink:title="Function ID=378 depends on function ID=1">
<path fill="none" stroke="black" d="M134.99,-83.85C207.17,-71.25 392.54,-38.89 470.79,-25.23"/>
<polygon fill="black" stroke="black" points="471.42,-28.68 480.67,-23.51 470.21,-21.78 471.42,-28.68"/>
</a>
</g>
</g>
<!-- function1 -->
<g id="node3" class="node">
<title>function1</title>
<g id="a_node3"><a xlink:href="inspected-f378-optimized-1.svg" xlink:title="1st derivative function &#10; contains 3 duplicate subfunctions &#10; contains 3 unique subfunctions &#10; (and is clickable)">
<path fill="red" stroke="red" d="M802.5,-256C802.5,-256 706.5,-256 706.5,-256 700.5,-256 694.5,-250 694.5,-244 694.5,-244 694.5,-230 694.5,-230 694.5,-224 700.5,-218 706.5,-218 706.5,-218 802.5,-218 802.5,-218 808.5,-218 814.5,-224 814.5,-230 814.5,-230 814.5,-244 814.5,-244 814.5,-250 808.5,-256 802.5,-256"/>
<text text-anchor="middle" x="754.5" y="-240.8" font-family="Times,serif" font-size="14.00">(X) ** (5.0) </text>
<text text-anchor="middle" x="754.5" y="-225.8" font-family="Times,serif" font-size="14.00"> 1st derivative</text>
</a>
</g>
</g>
<!-- f380 -->
<g id="node4" class="node">
<title>f380</title>
<g id="a_node4"><a xlink:title="Function ID=380 &#10; contains 2 duplicate subfunctions">
<ellipse fill="lightblue" stroke="lightblue" cx="748.5" cy="-163" rx="32.49" ry="18"/>
<text text-anchor="middle" x="748.5" y="-159.3" font-family="Times,serif" font-size="14.00">5.0 *</text>
</a>
</g>
</g>
<!-- function1&#45;&gt;f380 -->
<g id="edge2" class="edge">
<title>function1&#45;&gt;f380</title>
<path fill="none" stroke="black" d="M752.99,-217.83C752.32,-209.89 751.53,-200.41 750.8,-191.63"/>
<polygon fill="black" stroke="black" points="754.27,-191.09 749.95,-181.42 747.29,-191.67 754.27,-191.09"/>
</g>
<!-- f379 -->
<g id="node40" class="node">
<title>f379</title>
<g id="a_node40"><a xlink:title="Function ID=379 &#10; contains 1 duplicate subfunctions">
<ellipse fill="lightblue" stroke="lightblue" cx="741.5" cy="-90" rx="31.4" ry="18"/>
<text text-anchor="middle" x="741.5" y="-86.3" font-family="Times,serif" font-size="14.00"> ** 4</text>
</a>
</g>
</g>
<!-- f380&#45;&gt;f379 -->
<g id="edge46" class="edge">
<title>f380&#45;&gt;f379</title>
<g id="a_edge46"><a xlink:title="Function ID=380 depends on function ID=379">
<path fill="none" stroke="black" d="M746.81,-144.81C746.01,-136.79 745.05,-127.05 744.17,-118.07"/>
<polygon fill="black" stroke="black" points="747.64,-117.64 743.18,-108.03 740.68,-118.32 747.64,-117.64"/>
</a>
</g>
</g>
<!-- function2 -->
<g id="node5" class="node">
<title>function2</title>
<g id="a_node5"><a xlink:href="inspected-f378-optimized-2.svg" xlink:title="2nd derivative function &#10; contains 5 duplicate subfunctions &#10; contains 5 unique subfunctions &#10; (and is clickable)">
<path fill="red" stroke="red" d="M478,-546C478,-546 377,-546 377,-546 371,-546 365,-540 365,-534 365,-534 365,-520 365,-520 365,-514 371,-508 377,-508 377,-508 478,-508 478,-508 484,-508 490,-514 490,-520 490,-520 490,-534 490,-534 490,-540 484,-546 478,-546"/>
<text text-anchor="middle" x="427.5" y="-530.8" font-family="Times,serif" font-size="14.00">(X) ** (5.0) </text>
<text text-anchor="middle" x="427.5" y="-515.8" font-family="Times,serif" font-size="14.00"> 2nd derivative</text>
</a>
</g>
</g>
<!-- f1734 -->
<g id="node6" class="node">
<title>f1734</title>
<g id="a_node6"><a xlink:title="Function ID=1734 &#10; contains 4 duplicate subfunctions">
<ellipse fill="lightblue" stroke="lightblue" cx="347.5" cy="-454" rx="27" ry="18"/>
<text text-anchor="middle" x="347.5" y="-450.3" font-family="Times,serif" font-size="14.00">+</text>
</a>
</g>
</g>
<!-- function2&#45;&gt;f1734 -->
<g id="edge3" class="edge">
<title>function2&#45;&gt;f1734</title>
<path fill="none" stroke="black" d="M406.9,-507.72C395.84,-497.9 382.17,-485.77 370.73,-475.62"/>
<polygon fill="black" stroke="black" points="373.03,-472.98 363.23,-468.96 368.39,-478.22 373.03,-472.98"/>
</g>
<!-- f1733 -->
<g id="node17" class="node">
<title>f1733</title>
<g id="a_node17"><a xlink:title="Function ID=1733 &#10; contains 2 duplicate subfunctions">
<ellipse fill="lightblue" stroke="lightblue" cx="347.5" cy="-382" rx="38.19" ry="18"/>
<text text-anchor="middle" x="347.5" y="-378.3" font-family="Times,serif" font-size="14.00">20.0 *</text>
</a>
</g>
</g>
<!-- f1734&#45;&gt;f1733 -->
<g id="edge47" class="edge">
<title>f1734&#45;&gt;f1733</title>
<g id="a_edge47"><a xlink:title="Function ID=1734 depends on function ID=1733">
<path fill="none" stroke="black" d="M347.5,-435.7C347.5,-427.98 347.5,-418.71 347.5,-410.11"/>
<polygon fill="black" stroke="black" points="351,-410.1 347.5,-400.1 344,-410.1 351,-410.1"/>
</a>
</g>
</g>
<!-- f714 -->
<g id="node21" class="node">
<title>f714</title>
<g id="a_node21"><a xlink:title="Function ID=714 &#10; contains 0 duplicate subfunctions">
<ellipse fill="lightgreen" stroke="lightgreen" cx="264.5" cy="-382" rx="27" ry="18"/>
<text text-anchor="middle" x="264.5" y="-378.3" font-family="Times,serif" font-size="14.00">0.0</text>
</a>
</g>
</g>
<!-- f1734&#45;&gt;f714 -->
<g id="edge8" class="edge">
<title>f1734&#45;&gt;f714</title>
<g id="a_edge8"><a xlink:title="Function ID=1734 depends on function ID=714">
<path fill="none" stroke="black" d="M331.1,-439.17C318.86,-428.85 301.95,-414.58 288.23,-403.01"/>
<polygon fill="black" stroke="black" points="290.48,-400.33 280.58,-396.56 285.97,-405.69 290.48,-400.33"/>
</a>
</g>
</g>
<!-- function3 -->
<g id="node7" class="node">
<title>function3</title>
<g id="a_node7"><a xlink:href="inspected-f378-optimized-3.svg" xlink:title="3rd derivative function &#10; contains 13 duplicate subfunctions &#10; contains 11 unique subfunctions &#10; (and is clickable)">
<path fill="red" stroke="red" d="M224.5,-546C224.5,-546 126.5,-546 126.5,-546 120.5,-546 114.5,-540 114.5,-534 114.5,-534 114.5,-520 114.5,-520 114.5,-514 120.5,-508 126.5,-508 126.5,-508 224.5,-508 224.5,-508 230.5,-508 236.5,-514 236.5,-520 236.5,-520 236.5,-534 236.5,-534 236.5,-540 230.5,-546 224.5,-546"/>
<text text-anchor="middle" x="175.5" y="-530.8" font-family="Times,serif" font-size="14.00">(X) ** (5.0) </text>
<text text-anchor="middle" x="175.5" y="-515.8" font-family="Times,serif" font-size="14.00"> 3rd derivative</text>
</a>
</g>
</g>
<!-- f2395 -->
<g id="node8" class="node">
<title>f2395</title>
<g id="a_node8"><a xlink:title="Function ID=2395 &#10; contains 12 duplicate subfunctions">
<ellipse fill="lightblue" stroke="lightblue" cx="192.5" cy="-454" rx="27" ry="18"/>
<text text-anchor="middle" x="192.5" y="-450.3" font-family="Times,serif" font-size="14.00">+</text>
</a>
</g>
</g>
<!-- function3&#45;&gt;f2395 -->
<g id="edge4" class="edge">
<title>function3&#45;&gt;f2395</title>
<path fill="none" stroke="black" d="M179.88,-507.72C181.75,-499.89 183.98,-490.59 186.04,-481.99"/>
<polygon fill="black" stroke="black" points="189.5,-482.54 188.43,-472 182.7,-480.91 189.5,-482.54"/>
</g>
<!-- f2395&#45;&gt;f714 -->
<g id="edge13" class="edge">
<title>f2395&#45;&gt;f714</title>
<g id="a_edge13"><a xlink:title="Function ID=2395 depends on function ID=714">
<path fill="none" stroke="black" d="M207.07,-438.83C217.25,-428.94 231.02,-415.55 242.53,-404.36"/>
<polygon fill="black" stroke="black" points="244.97,-406.87 249.7,-397.38 240.09,-401.85 244.97,-406.87"/>
</a>
</g>
</g>
<!-- f2136 -->
<g id="node29" class="node">
<title>f2136</title>
<g id="a_node29"><a xlink:title="Function ID=2136 &#10; contains 10 duplicate subfunctions">
<ellipse fill="lightblue" stroke="lightblue" cx="192.5" cy="-382" rx="27" ry="18"/>
<text text-anchor="middle" x="192.5" y="-378.3" font-family="Times,serif" font-size="14.00">+</text>
</a>
</g>
</g>
<!-- f2395&#45;&gt;f2136 -->
<g id="edge23" class="edge">
<title>f2395&#45;&gt;f2136</title>
<g id="a_edge23"><a xlink:title="Function ID=2395 depends on function ID=2136">
<path fill="none" stroke="black" d="M192.5,-435.7C192.5,-427.98 192.5,-418.71 192.5,-410.11"/>
<polygon fill="black" stroke="black" points="196,-410.1 192.5,-400.1 189,-410.1 196,-410.1"/>
</a>
</g>
</g>
<!-- function4 -->
<g id="node9" class="node">
<title>function4</title>
<g id="a_node9"><a xlink:href="inspected-f378-optimized-4.svg" xlink:title="4th derivative function &#10; contains 29 duplicate subfunctions &#10; contains 22 unique subfunctions &#10; (and is clickable)">
<path fill="red" stroke="red" d="M340.5,-836C340.5,-836 242.5,-836 242.5,-836 236.5,-836 230.5,-830 230.5,-824 230.5,-824 230.5,-810 230.5,-810 230.5,-804 236.5,-798 242.5,-798 242.5,-798 340.5,-798 340.5,-798 346.5,-798 352.5,-804 352.5,-810 352.5,-810 352.5,-824 352.5,-824 352.5,-830 346.5,-836 340.5,-836"/>
<text text-anchor="middle" x="291.5" y="-820.8" font-family="Times,serif" font-size="14.00">(X) ** (5.0) </text>
<text text-anchor="middle" x="291.5" y="-805.8" font-family="Times,serif" font-size="14.00"> 4th derivative</text>
</a>
</g>
</g>
<!-- f2401 -->
<g id="node10" class="node">
<title>f2401</title>
<g id="a_node10"><a xlink:title="Function ID=2401 &#10; contains 28 duplicate subfunctions">
<ellipse fill="lightblue" stroke="lightblue" cx="291.5" cy="-744" rx="27" ry="18"/>
<text text-anchor="middle" x="291.5" y="-740.3" font-family="Times,serif" font-size="14.00">+</text>
</a>
</g>
</g>
<!-- function4&#45;&gt;f2401 -->
<g id="edge5" class="edge">
<title>function4&#45;&gt;f2401</title>
<path fill="none" stroke="black" d="M291.5,-797.72C291.5,-789.97 291.5,-780.79 291.5,-772.27"/>
<polygon fill="black" stroke="black" points="295,-772 291.5,-762 288,-772 295,-772"/>
</g>
<!-- f2401&#45;&gt;f714 -->
<g id="edge12" class="edge">
<title>f2401&#45;&gt;f714</title>
<g id="a_edge12"><a xlink:title="Function ID=2401 depends on function ID=714">
<path fill="none" stroke="black" d="M286.17,-726.15C278.3,-699.75 264.5,-646.92 264.5,-601 264.5,-601 264.5,-601 264.5,-526 264.5,-485.71 264.5,-439.04 264.5,-410.27"/>
<polygon fill="black" stroke="black" points="268,-410.17 264.5,-400.17 261,-410.17 268,-410.17"/>
</a>
</g>
</g>
<!-- f2336 -->
<g id="node33" class="node">
<title>f2336</title>
<g id="a_node33"><a xlink:title="Function ID=2336 &#10; contains 26 duplicate subfunctions">
<ellipse fill="lightblue" stroke="lightblue" cx="319.5" cy="-672" rx="27" ry="18"/>
<text text-anchor="middle" x="319.5" y="-668.3" font-family="Times,serif" font-size="14.00">+</text>
</a>
</g>
</g>
<!-- f2401&#45;&gt;f2336 -->
<g id="edge26" class="edge">
<title>f2401&#45;&gt;f2336</title>
<g id="a_edge26"><a xlink:title="Function ID=2401 depends on function ID=2336">
<path fill="none" stroke="black" d="M298.14,-726.41C301.41,-718.22 305.44,-708.14 309.12,-698.95"/>
<polygon fill="black" stroke="black" points="312.45,-700.05 312.91,-689.47 305.95,-697.45 312.45,-700.05"/>
</a>
</g>
</g>
<!-- function5 -->
<g id="node11" class="node">
<title>function5</title>
<g id="a_node11"><a xlink:href="inspected-f378-optimized-5.svg" xlink:title="5th derivative function &#10; contains 1 duplicate subfunctions &#10; contains 1 unique subfunctions &#10; (and is clickable)">
<path fill="red" stroke="red" d="M480.5,-836C480.5,-836 382.5,-836 382.5,-836 376.5,-836 370.5,-830 370.5,-824 370.5,-824 370.5,-810 370.5,-810 370.5,-804 376.5,-798 382.5,-798 382.5,-798 480.5,-798 480.5,-798 486.5,-798 492.5,-804 492.5,-810 492.5,-810 492.5,-824 492.5,-824 492.5,-830 486.5,-836 480.5,-836"/>
<text text-anchor="middle" x="431.5" y="-820.8" font-family="Times,serif" font-size="14.00">(X) ** (5.0) </text>
<text text-anchor="middle" x="431.5" y="-805.8" font-family="Times,serif" font-size="14.00"> 5th derivative</text>
</a>
</g>
</g>
<!-- f1252 -->
<g id="node12" class="node">
<title>f1252</title>
<g id="a_node12"><a xlink:title="Function ID=1252 &#10; contains 0 duplicate subfunctions">
<ellipse fill="lightgreen" stroke="lightgreen" cx="431.5" cy="-744" rx="37.09" ry="18"/>
<text text-anchor="middle" x="431.5" y="-740.3" font-family="Times,serif" font-size="14.00">120.0</text>
</a>
</g>
</g>
<!-- function5&#45;&gt;f1252 -->
<g id="edge6" class="edge">
<title>function5&#45;&gt;f1252</title>
<path fill="none" stroke="black" d="M431.5,-797.72C431.5,-789.97 431.5,-780.79 431.5,-772.27"/>
<polygon fill="black" stroke="black" points="435,-772 431.5,-762 428,-772 435,-772"/>
</g>
<!-- f1858 -->
<g id="node14" class="node">
<title>f1858</title>
<g id="a_node14"><a xlink:title="Function ID=1858 &#10; contains 2 duplicate subfunctions">
<ellipse fill="lightblue" stroke="lightblue" cx="404.5" cy="-163" rx="32.49" ry="18"/>
<text text-anchor="middle" x="404.5" y="-159.3" font-family="Times,serif" font-size="14.00">0.0 *</text>
</a>
</g>
</g>
<!-- f383 -->
<g id="node42" class="node">
<title>f383</title>
<g id="a_node42"><a xlink:title="Function ID=383 &#10; contains 1 duplicate subfunctions">
<ellipse fill="lightblue" stroke="lightblue" cx="394.5" cy="-90" rx="31.4" ry="18"/>
<text text-anchor="middle" x="394.5" y="-86.3" font-family="Times,serif" font-size="14.00"> ** 3</text>
</a>
</g>
</g>
<!-- f1858&#45;&gt;f383 -->
<g id="edge39" class="edge">
<title>f1858&#45;&gt;f383</title>
<g id="a_edge39"><a xlink:title="Function ID=1858 depends on function ID=383">
<path fill="none" stroke="black" d="M402.08,-144.81C400.95,-136.79 399.58,-127.05 398.31,-118.07"/>
<polygon fill="black" stroke="black" points="401.76,-117.44 396.9,-108.03 394.83,-118.42 401.76,-117.44"/>
</a>
</g>
</g>
<!-- f2307 -->
<g id="node15" class="node">
<title>f2307</title>
<g id="a_node15"><a xlink:title="Function ID=2307 &#10; contains 7 duplicate subfunctions">
<ellipse fill="lightblue" stroke="lightblue" cx="566.5" cy="-310" rx="32.49" ry="18"/>
<text text-anchor="middle" x="566.5" y="-306.3" font-family="Times,serif" font-size="14.00">4.0 *</text>
</a>
</g>
</g>
<!-- f2298 -->
<g id="node38" class="node">
<title>f2298</title>
<g id="a_node38"><a xlink:title="Function ID=2298 &#10; contains 6 duplicate subfunctions">
<ellipse fill="lightblue" stroke="lightblue" cx="570.5" cy="-237" rx="27" ry="18"/>
<text text-anchor="middle" x="570.5" y="-233.3" font-family="Times,serif" font-size="14.00">+</text>
</a>
</g>
</g>
<!-- f2307&#45;&gt;f2298 -->
<g id="edge20" class="edge">
<title>f2307&#45;&gt;f2298</title>
<g id="a_edge20"><a xlink:title="Function ID=2307 depends on function ID=2298">
<path fill="none" stroke="black" d="M567.47,-291.81C567.92,-283.79 568.47,-274.05 568.97,-265.07"/>
<polygon fill="black" stroke="black" points="572.47,-265.21 569.54,-255.03 565.48,-264.82 572.47,-265.21"/>
</a>
</g>
</g>
<!-- f2308 -->
<g id="node16" class="node">
<title>f2308</title>
<g id="a_node16"><a xlink:title="Function ID=2308 &#10; contains 12 duplicate subfunctions">
<ellipse fill="lightblue" stroke="lightblue" cx="566.5" cy="-382" rx="27" ry="18"/>
<text text-anchor="middle" x="566.5" y="-378.3" font-family="Times,serif" font-size="14.00">+</text>
</a>
</g>
</g>
<!-- f2308&#45;&gt;f2307 -->
<g id="edge43" class="edge">
<title>f2308&#45;&gt;f2307</title>
<g id="a_edge43"><a xlink:title="Function ID=2308 depends on function ID=2307">
<path fill="none" stroke="black" d="M566.5,-363.7C566.5,-355.98 566.5,-346.71 566.5,-338.11"/>
<polygon fill="black" stroke="black" points="570,-338.1 566.5,-328.1 563,-338.1 570,-338.1"/>
</a>
</g>
</g>
<!-- f2171 -->
<g id="node41" class="node">
<title>f2171</title>
<g id="a_node41"><a xlink:title="Function ID=2171 &#10; contains 3 duplicate subfunctions">
<ellipse fill="lightblue" stroke="lightblue" cx="649.5" cy="-310" rx="32.49" ry="18"/>
<text text-anchor="middle" x="649.5" y="-306.3" font-family="Times,serif" font-size="14.00">0.0 *</text>
</a>
</g>
</g>
<!-- f2308&#45;&gt;f2171 -->
<g id="edge38" class="edge">
<title>f2308&#45;&gt;f2171</title>
<g id="a_edge38"><a xlink:title="Function ID=2308 depends on function ID=2171">
<path fill="none" stroke="black" d="M582.9,-367.17C594.71,-357.21 610.88,-343.57 624.32,-332.23"/>
<polygon fill="black" stroke="black" points="626.89,-334.65 632.28,-325.52 622.38,-329.3 626.89,-334.65"/>
</a>
</g>
</g>
<!-- f1733&#45;&gt;f383 -->
<g id="edge21" class="edge">
<title>f1733&#45;&gt;f383</title>
<g id="a_edge21"><a xlink:title="Function ID=1733 depends on function ID=383">
<path fill="none" stroke="black" d="M346.02,-363.85C343.17,-324.15 339.14,-223.23 363.5,-144 366.57,-134.02 371.83,-123.91 377.15,-115.24"/>
<polygon fill="black" stroke="black" points="380.13,-117.09 382.64,-106.79 374.26,-113.28 380.13,-117.09"/>
</a>
</g>
</g>
<!-- f2181 -->
<g id="node18" class="node">
<title>f2181</title>
<g id="a_node18"><a xlink:title="Function ID=2181 &#10; contains 2 duplicate subfunctions">
<ellipse fill="lightblue" stroke="lightblue" cx="470.5" cy="-90" rx="27" ry="18"/>
<text text-anchor="middle" x="470.5" y="-86.3" font-family="Times,serif" font-size="14.00">*</text>
</a>
</g>
</g>
<!-- f2181&#45;&gt;f1 -->
<g id="edge24" class="edge">
<title>f2181&#45;&gt;f1</title>
<g id="a_edge24"><a xlink:title="Function ID=2181 depends on function ID=1">
<path fill="none" stroke="black" d="M478.85,-72.76C483.21,-64.28 488.65,-53.71 493.54,-44.2"/>
<polygon fill="black" stroke="black" points="496.73,-45.64 498.2,-35.15 490.51,-42.44 496.73,-45.64"/>
</a>
</g>
</g>
<!-- f2182 -->
<g id="node19" class="node">
<title>f2182</title>
<g id="a_node19"><a xlink:title="Function ID=2182 &#10; contains 3 duplicate subfunctions">
<ellipse fill="lightblue" stroke="lightblue" cx="487.5" cy="-163" rx="32.49" ry="18"/>
<text text-anchor="middle" x="487.5" y="-159.3" font-family="Times,serif" font-size="14.00">0.0 *</text>
</a>
</g>
</g>
<!-- f2182&#45;&gt;f2181 -->
<g id="edge45" class="edge">
<title>f2182&#45;&gt;f2181</title>
<g id="a_edge45"><a xlink:title="Function ID=2182 depends on function ID=2181">
<path fill="none" stroke="black" d="M483.38,-144.81C481.44,-136.7 479.08,-126.84 476.91,-117.78"/>
<polygon fill="black" stroke="black" points="480.31,-116.94 474.58,-108.03 473.5,-118.57 480.31,-116.94"/>
</a>
</g>
</g>
<!-- f2183 -->
<g id="node20" class="node">
<title>f2183</title>
<g id="a_node20"><a xlink:title="Function ID=2183 &#10; contains 7 duplicate subfunctions">
<ellipse fill="lightblue" stroke="lightblue" cx="487.5" cy="-237" rx="27" ry="18"/>
<text text-anchor="middle" x="487.5" y="-233.3" font-family="Times,serif" font-size="14.00">+</text>
</a>
</g>
</g>
<!-- f2183&#45;&gt;f1858 -->
<g id="edge22" class="edge">
<title>f2183&#45;&gt;f1858</title>
<g id="a_edge22"><a xlink:title="Function ID=2183 depends on function ID=1858">
<path fill="none" stroke="black" d="M471.5,-222.12C459.45,-211.66 442.71,-197.15 428.99,-185.24"/>
<polygon fill="black" stroke="black" points="431.16,-182.49 421.31,-178.58 426.57,-187.78 431.16,-182.49"/>
</a>
</g>
</g>
<!-- f2183&#45;&gt;f2182 -->
<g id="edge30" class="edge">
<title>f2183&#45;&gt;f2182</title>
<g id="a_edge30"><a xlink:title="Function ID=2183 depends on function ID=2182">
<path fill="none" stroke="black" d="M487.5,-218.94C487.5,-210.81 487.5,-200.88 487.5,-191.7"/>
<polygon fill="black" stroke="black" points="491,-191.44 487.5,-181.44 484,-191.44 491,-191.44"/>
</a>
</g>
</g>
<!-- f2124 -->
<g id="node22" class="node">
<title>f2124</title>
<g id="a_node22"><a xlink:title="Function ID=2124 &#10; contains 2 duplicate subfunctions">
<ellipse fill="lightblue" stroke="lightblue" cx="272.5" cy="-90" rx="27" ry="18"/>
<text text-anchor="middle" x="272.5" y="-86.3" font-family="Times,serif" font-size="14.00">*</text>
</a>
</g>
</g>
<!-- f2124&#45;&gt;f1 -->
<g id="edge35" class="edge">
<title>f2124&#45;&gt;f1</title>
<g id="a_edge35"><a xlink:title="Function ID=2124 depends on function ID=1">
<path fill="none" stroke="black" d="M296.66,-81.77C338.52,-69.25 424.64,-43.49 472.51,-29.17"/>
<polygon fill="black" stroke="black" points="473.54,-32.51 482.12,-26.29 471.54,-25.81 473.54,-32.51"/>
</a>
</g>
</g>
<!-- f2125 -->
<g id="node23" class="node">
<title>f2125</title>
<g id="a_node23"><a xlink:title="Function ID=2125 &#10; contains 3 duplicate subfunctions">
<ellipse fill="lightblue" stroke="lightblue" cx="195.5" cy="-163" rx="38.19" ry="18"/>
<text text-anchor="middle" x="195.5" y="-159.3" font-family="Times,serif" font-size="14.00">12.0 *</text>
</a>
</g>
</g>
<!-- f2125&#45;&gt;f2124 -->
<g id="edge25" class="edge">
<title>f2125&#45;&gt;f2124</title>
<g id="a_edge25"><a xlink:title="Function ID=2125 depends on function ID=2124">
<path fill="none" stroke="black" d="M212.21,-146.59C223.24,-136.42 237.83,-122.97 249.89,-111.85"/>
<polygon fill="black" stroke="black" points="252.41,-114.28 257.39,-104.93 247.67,-109.14 252.41,-114.28"/>
</a>
</g>
</g>
<!-- f2126 -->
<g id="node24" class="node">
<title>f2126</title>
<g id="a_node24"><a xlink:title="Function ID=2126 &#10; contains 7 duplicate subfunctions">
<ellipse fill="lightblue" stroke="lightblue" cx="195.5" cy="-237" rx="27" ry="18"/>
<text text-anchor="middle" x="195.5" y="-233.3" font-family="Times,serif" font-size="14.00">+</text>
</a>
</g>
</g>
<!-- f2126&#45;&gt;f2125 -->
<g id="edge41" class="edge">
<title>f2126&#45;&gt;f2125</title>
<g id="a_edge41"><a xlink:title="Function ID=2126 depends on function ID=2125">
<path fill="none" stroke="black" d="M195.5,-218.94C195.5,-210.81 195.5,-200.88 195.5,-191.7"/>
<polygon fill="black" stroke="black" points="199,-191.44 195.5,-181.44 192,-191.44 199,-191.44"/>
</a>
</g>
</g>
<!-- f1759 -->
<g id="node32" class="node">
<title>f1759</title>
<g id="a_node32"><a xlink:title="Function ID=1759 &#10; contains 2 duplicate subfunctions">
<ellipse fill="lightblue" stroke="lightblue" cx="284.5" cy="-163" rx="32.49" ry="18"/>
<text text-anchor="middle" x="284.5" y="-159.3" font-family="Times,serif" font-size="14.00">0.0 *</text>
</a>
</g>
</g>
<!-- f2126&#45;&gt;f1759 -->
<g id="edge16" class="edge">
<title>f2126&#45;&gt;f1759</title>
<g id="a_edge16"><a xlink:title="Function ID=2126 depends on function ID=1759">
<path fill="none" stroke="black" d="M212.24,-222.46C225.41,-211.8 243.98,-196.78 259,-184.63"/>
<polygon fill="black" stroke="black" points="261.35,-187.23 266.92,-178.22 256.95,-181.79 261.35,-187.23"/>
</a>
</g>
</g>
<!-- f2325 -->
<g id="node25" class="node">
<title>f2325</title>
<g id="a_node25"><a xlink:title="Function ID=2325 &#10; contains 21 duplicate subfunctions">
<ellipse fill="lightblue" stroke="lightblue" cx="540.5" cy="-454" rx="27" ry="18"/>
<text text-anchor="middle" x="540.5" y="-450.3" font-family="Times,serif" font-size="14.00">+</text>
</a>
</g>
</g>
<!-- f2325&#45;&gt;f2308 -->
<g id="edge14" class="edge">
<title>f2325&#45;&gt;f2308</title>
<g id="a_edge14"><a xlink:title="Function ID=2325 depends on function ID=2308">
<path fill="none" stroke="black" d="M546.66,-436.41C549.66,-428.34 553.34,-418.43 556.71,-409.35"/>
<polygon fill="black" stroke="black" points="560,-410.55 560.2,-399.96 553.44,-408.11 560,-410.55"/>
</a>
</g>
</g>
<!-- f2325&#45;&gt;f2183 -->
<g id="edge18" class="edge">
<title>f2325&#45;&gt;f2183</title>
<g id="a_edge18"><a xlink:title="Function ID=2325 depends on function ID=2183">
<path fill="none" stroke="black" d="M536.34,-436.13C527.17,-398.92 505.14,-309.57 494.08,-264.68"/>
<polygon fill="black" stroke="black" points="497.43,-263.66 491.64,-254.79 490.63,-265.34 497.43,-263.66"/>
</a>
</g>
</g>
<!-- f2326 -->
<g id="node26" class="node">
<title>f2326</title>
<g id="a_node26"><a xlink:title="Function ID=2326 &#10; contains 22 duplicate subfunctions">
<ellipse fill="lightblue" stroke="lightblue" cx="540.5" cy="-527" rx="32.49" ry="18"/>
<text text-anchor="middle" x="540.5" y="-523.3" font-family="Times,serif" font-size="14.00">5.0 *</text>
</a>
</g>
</g>
<!-- f2326&#45;&gt;f2325 -->
<g id="edge42" class="edge">
<title>f2326&#45;&gt;f2325</title>
<g id="a_edge42"><a xlink:title="Function ID=2326 depends on function ID=2325">
<path fill="none" stroke="black" d="M540.5,-508.81C540.5,-500.79 540.5,-491.05 540.5,-482.07"/>
<polygon fill="black" stroke="black" points="544,-482.03 540.5,-472.03 537,-482.03 544,-482.03"/>
</a>
</g>
</g>
<!-- f2135 -->
<g id="node27" class="node">
<title>f2135</title>
<g id="a_node27"><a xlink:title="Function ID=2135 &#10; contains 8 duplicate subfunctions">
<ellipse fill="lightblue" stroke="lightblue" cx="192.5" cy="-310" rx="32.49" ry="18"/>
<text text-anchor="middle" x="192.5" y="-306.3" font-family="Times,serif" font-size="14.00">5.0 *</text>
</a>
</g>
</g>
<!-- f2135&#45;&gt;f2126 -->
<g id="edge19" class="edge">
<title>f2135&#45;&gt;f2126</title>
<g id="a_edge19"><a xlink:title="Function ID=2135 depends on function ID=2126">
<path fill="none" stroke="black" d="M193.23,-291.81C193.57,-283.79 193.98,-274.05 194.36,-265.07"/>
<polygon fill="black" stroke="black" points="197.86,-265.17 194.78,-255.03 190.86,-264.87 197.86,-265.17"/>
</a>
</g>
</g>
<!-- f2327 -->
<g id="node28" class="node">
<title>f2327</title>
<g id="a_node28"><a xlink:title="Function ID=2327 &#10; contains 24 duplicate subfunctions">
<ellipse fill="lightblue" stroke="lightblue" cx="391.5" cy="-600" rx="27" ry="18"/>
<text text-anchor="middle" x="391.5" y="-596.3" font-family="Times,serif" font-size="14.00">+</text>
</a>
</g>
</g>
<!-- f2327&#45;&gt;f2326 -->
<g id="edge27" class="edge">
<title>f2327&#45;&gt;f2326</title>
<g id="a_edge27"><a xlink:title="Function ID=2327 depends on function ID=2326">
<path fill="none" stroke="black" d="M412.85,-588.83C437.57,-577.05 478.6,-557.5 507.45,-543.75"/>
<polygon fill="black" stroke="black" points="509.21,-546.79 516.73,-539.33 506.2,-540.47 509.21,-546.79"/>
</a>
</g>
</g>
<!-- f793 -->
<g id="node30" class="node">
<title>f793</title>
<g id="a_node30"><a xlink:title="Function ID=793 &#10; contains 0 duplicate subfunctions">
<ellipse fill="lightgreen" stroke="lightgreen" cx="319.5" cy="-527" rx="27" ry="18"/>
<text text-anchor="middle" x="319.5" y="-523.3" font-family="Times,serif" font-size="14.00">0.0</text>
</a>
</g>
</g>
<!-- f2327&#45;&gt;f793 -->
<g id="edge32" class="edge">
<title>f2327&#45;&gt;f793</title>
<g id="a_edge32"><a xlink:title="Function ID=2327 depends on function ID=793">
<path fill="none" stroke="black" d="M376.93,-584.63C366.68,-574.53 352.79,-560.83 341.24,-549.44"/>
<polygon fill="black" stroke="black" points="343.63,-546.88 334.05,-542.35 338.71,-551.86 343.63,-546.88"/>
</a>
</g>
</g>
<!-- f2136&#45;&gt;f2135 -->
<g id="edge40" class="edge">
<title>f2136&#45;&gt;f2135</title>
<g id="a_edge40"><a xlink:title="Function ID=2136 depends on function ID=2135">
<path fill="none" stroke="black" d="M192.5,-363.7C192.5,-355.98 192.5,-346.71 192.5,-338.11"/>
<polygon fill="black" stroke="black" points="196,-338.1 192.5,-328.1 189,-338.1 196,-338.1"/>
</a>
</g>
</g>
<!-- f733 -->
<g id="node31" class="node">
<title>f733</title>
<g id="a_node31"><a xlink:title="Function ID=733 &#10; contains 0 duplicate subfunctions">
<ellipse fill="lightgreen" stroke="lightgreen" cx="269.5" cy="-310" rx="27" ry="18"/>
<text text-anchor="middle" x="269.5" y="-306.3" font-family="Times,serif" font-size="14.00">0.0</text>
</a>
</g>
</g>
<!-- f2136&#45;&gt;f733 -->
<g id="edge9" class="edge">
<title>f2136&#45;&gt;f733</title>
<g id="a_edge9"><a xlink:title="Function ID=2136 depends on function ID=733">
<path fill="none" stroke="black" d="M208.08,-366.83C219.11,-356.81 234.09,-343.19 246.49,-331.92"/>
<polygon fill="black" stroke="black" points="249.16,-334.22 254.2,-324.91 244.45,-329.04 249.16,-334.22"/>
</a>
</g>
</g>
<!-- f1759&#45;&gt;f383 -->
<g id="edge7" class="edge">
<title>f1759&#45;&gt;f383</title>
<g id="a_edge7"><a xlink:title="Function ID=1759 depends on function ID=383">
<path fill="none" stroke="black" d="M304.93,-148.81C322.1,-137.73 346.81,-121.78 365.94,-109.44"/>
<polygon fill="black" stroke="black" points="368.04,-112.24 374.55,-103.88 364.25,-106.36 368.04,-112.24"/>
</a>
</g>
</g>
<!-- f2336&#45;&gt;f2327 -->
<g id="edge37" class="edge">
<title>f2336&#45;&gt;f2327</title>
<g id="a_edge37"><a xlink:title="Function ID=2336 depends on function ID=2327">
<path fill="none" stroke="black" d="M334.07,-656.83C344.25,-646.94 358.02,-633.55 369.53,-622.36"/>
<polygon fill="black" stroke="black" points="371.97,-624.87 376.7,-615.38 367.09,-619.85 371.97,-624.87"/>
</a>
</g>
</g>
<!-- f815 -->
<g id="node36" class="node">
<title>f815</title>
<g id="a_node36"><a xlink:title="Function ID=815 &#10; contains 0 duplicate subfunctions">
<ellipse fill="lightgreen" stroke="lightgreen" cx="319.5" cy="-600" rx="27" ry="18"/>
<text text-anchor="middle" x="319.5" y="-596.3" font-family="Times,serif" font-size="14.00">0.0</text>
</a>
</g>
</g>
<!-- f2336&#45;&gt;f815 -->
<g id="edge15" class="edge">
<title>f2336&#45;&gt;f815</title>
<g id="a_edge15"><a xlink:title="Function ID=2336 depends on function ID=815">
<path fill="none" stroke="black" d="M319.5,-653.7C319.5,-645.98 319.5,-636.71 319.5,-628.11"/>
<polygon fill="black" stroke="black" points="323,-628.1 319.5,-618.1 316,-628.1 323,-628.1"/>
</a>
</g>
</g>
<!-- f2158 -->
<g id="node34" class="node">
<title>f2158</title>
<g id="a_node34"><a xlink:title="Function ID=2158 &#10; contains 2 duplicate subfunctions">
<ellipse fill="lightblue" stroke="lightblue" cx="542.5" cy="-90" rx="27" ry="18"/>
<text text-anchor="middle" x="542.5" y="-86.3" font-family="Times,serif" font-size="14.00">*</text>
</a>
</g>
</g>
<!-- f2158&#45;&gt;f1 -->
<g id="edge17" class="edge">
<title>f2158&#45;&gt;f1</title>
<g id="a_edge17"><a xlink:title="Function ID=2158 depends on function ID=1">
<path fill="none" stroke="black" d="M534.15,-72.76C529.79,-64.28 524.35,-53.71 519.46,-44.2"/>
<polygon fill="black" stroke="black" points="522.49,-42.44 514.8,-35.15 516.27,-45.64 522.49,-42.44"/>
</a>
</g>
</g>
<!-- f2159 -->
<g id="node35" class="node">
<title>f2159</title>
<g id="a_node35"><a xlink:title="Function ID=2159 &#10; contains 3 duplicate subfunctions">
<ellipse fill="lightblue" stroke="lightblue" cx="570.5" cy="-163" rx="32.49" ry="18"/>
<text text-anchor="middle" x="570.5" y="-159.3" font-family="Times,serif" font-size="14.00">0.0 *</text>
</a>
</g>
</g>
<!-- f2159&#45;&gt;f2158 -->
<g id="edge28" class="edge">
<title>f2159&#45;&gt;f2158</title>
<g id="a_edge28"><a xlink:title="Function ID=2159 depends on function ID=2158">
<path fill="none" stroke="black" d="M563.86,-145.17C560.55,-136.77 556.47,-126.42 552.76,-117.03"/>
<polygon fill="black" stroke="black" points="556.01,-115.72 549.09,-107.71 549.5,-118.29 556.01,-115.72"/>
</a>
</g>
</g>
<!-- f2297 -->
<g id="node37" class="node">
<title>f2297</title>
<g id="a_node37"><a xlink:title="Function ID=2297 &#10; contains 1 duplicate subfunctions">
<ellipse fill="lightblue" stroke="lightblue" cx="619.5" cy="-90" rx="32.49" ry="18"/>
<text text-anchor="middle" x="619.5" y="-86.3" font-family="Times,serif" font-size="14.00">6.0 *</text>
</a>
</g>
</g>
<!-- f2297&#45;&gt;f1 -->
<g id="edge34" class="edge">
<title>f2297&#45;&gt;f1</title>
<g id="a_edge34"><a xlink:title="Function ID=2297 depends on function ID=1">
<path fill="none" stroke="black" d="M598.51,-76C580.47,-64.82 554.3,-48.61 534.48,-36.33"/>
<polygon fill="black" stroke="black" points="536.21,-33.29 525.87,-31 532.53,-39.24 536.21,-33.29"/>
</a>
</g>
</g>
<!-- f2298&#45;&gt;f2159 -->
<g id="edge36" class="edge">
<title>f2298&#45;&gt;f2159</title>
<g id="a_edge36"><a xlink:title="Function ID=2298 depends on function ID=2159">
<path fill="none" stroke="black" d="M570.5,-218.94C570.5,-210.81 570.5,-200.88 570.5,-191.7"/>
<polygon fill="black" stroke="black" points="574,-191.44 570.5,-181.44 567,-191.44 574,-191.44"/>
</a>
</g>
</g>
<!-- f2298&#45;&gt;f2297 -->
<g id="edge44" class="edge">
<title>f2298&#45;&gt;f2297</title>
<g id="a_edge44"><a xlink:title="Function ID=2298 depends on function ID=2297">
<path fill="none" stroke="black" d="M585.28,-221.37C594.52,-211.24 605.73,-196.93 611.5,-182 619.38,-161.59 621.09,-136.76 620.99,-118.19"/>
<polygon fill="black" stroke="black" points="624.49,-117.98 620.76,-108.07 617.49,-118.15 624.49,-117.98"/>
</a>
</g>
</g>
<!-- f2170 -->
<g id="node39" class="node">
<title>f2170</title>
<g id="a_node39"><a xlink:title="Function ID=2170 &#10; contains 2 duplicate subfunctions">
<ellipse fill="lightblue" stroke="lightblue" cx="649.5" cy="-237" rx="27" ry="18"/>
<text text-anchor="middle" x="649.5" y="-233.3" font-family="Times,serif" font-size="14.00">*</text>
</a>
</g>
</g>
<!-- f2170&#45;&gt;f1 -->
<g id="edge10" class="edge">
<title>f2170&#45;&gt;f1</title>
<g id="a_edge10"><a xlink:title="Function ID=2170 depends on function ID=1">
<path fill="none" stroke="black" d="M656.98,-219.24C669.99,-187.28 692.49,-116.83 660.5,-72 634.12,-35.02 580.21,-23.58 543.7,-20.19"/>
<polygon fill="black" stroke="black" points="543.68,-16.68 533.45,-19.41 543.15,-23.66 543.68,-16.68"/>
</a>
</g>
</g>
<!-- f379&#45;&gt;f1 -->
<g id="edge33" class="edge">
<title>f379&#45;&gt;f1</title>
<g id="a_edge33"><a xlink:title="Function ID=379 depends on function ID=1">
<path fill="none" stroke="black" d="M715.94,-79.61C708.72,-77.04 700.83,-74.33 693.5,-72 640.74,-55.2 578.8,-38.16 541.11,-28.1"/>
<polygon fill="black" stroke="black" points="541.72,-24.64 531.15,-25.45 539.92,-31.4 541.72,-24.64"/>
</a>
</g>
</g>
<!-- f2171&#45;&gt;f2170 -->
<g id="edge29" class="edge">
<title>f2171&#45;&gt;f2170</title>
<g id="a_edge29"><a xlink:title="Function ID=2171 depends on function ID=2170">
<path fill="none" stroke="black" d="M649.5,-291.81C649.5,-283.79 649.5,-274.05 649.5,-265.07"/>
<polygon fill="black" stroke="black" points="653,-265.03 649.5,-255.03 646,-265.03 653,-265.03"/>
</a>
</g>
</g>
<!-- f383&#45;&gt;f1 -->
<g id="edge31" class="edge">
<title>f383&#45;&gt;f1</title>
<g id="a_edge31"><a xlink:title="Function ID=383 depends on function ID=1">
<path fill="none" stroke="black" d="M415.04,-76.16C432.9,-65 458.92,-48.74 478.64,-36.41"/>
<polygon fill="black" stroke="black" points="480.59,-39.32 487.21,-31.06 476.88,-33.39 480.59,-39.32"/>
</a>
</g>
</g>
</g>
</svg>
