<?xml version="1.0" encoding="utf-8" standalone="no"?>
<!DOCTYPE svg PUBLIC "-//W3C//DTD SVG 1.1//EN"
  "http://www.w3.org/Graphics/SVG/1.1/DTD/svg11.dtd">
<svg xmlns:xlink="http://www.w3.org/1999/xlink" width="460.8pt" height="345.6pt" viewBox="0 0 460.8 345.6" xmlns="http://www.w3.org/2000/svg" version="1.1">
 <metadata>
  <rdf:RDF xmlns:dc="http://purl.org/dc/elements/1.1/" xmlns:cc="http://creativecommons.org/ns#" xmlns:rdf="http://www.w3.org/1999/02/22-rdf-syntax-ns#">
   <cc:Work>
    <dc:type rdf:resource="http://purl.org/dc/dcmitype/StillImage"/>
    <dc:date>2023-11-19T21:06:56.802793</dc:date>
    <dc:format>image/svg+xml</dc:format>
    <dc:creator>
     <cc:Agent>
      <dc:title>Matplotlib v3.6.3, https://matplotlib.org/</dc:title>
     </cc:Agent>
    </dc:creator>
   </cc:Work>
  </rdf:RDF>
 </metadata>
 <defs>
  <style type="text/css">*{stroke-linejoin: round; stroke-linecap: butt}</style>
 </defs>
 <g id="figure_1">
  <g id="patch_1">
   <path d="M 0 345.6 
L 460.8 345.6 
L 460.8 0 
L 0 0 
z
" style="fill: #ffffff"/>
  </g>
  <g id="axes_1">
   <g id="patch_2">
    <path d="M 57.6 307.584 
L 414.72 307.584 
L 414.72 41.472 
L 57.6 41.472 
z
" style="fill: #ffffff"/>
   </g>
   <g id="matplotlib.axis_1">
    <g id="xtick_1">
     <g id="line2d_1">
      <defs>
       <path id="mbf5fea0b25" d="M 0 0 
L 0 3.5 
" style="stroke: #000000; stroke-width: 0.8"/>
      </defs>
      <g>
       <use xlink:href="#mbf5fea0b25" x="73.832727" y="307.584" style="stroke: #000000; stroke-width: 0.8"/>
      </g>
     </g>
     <g id="text_1">
      <!-- 0 -->
      <g transform="translate(70.651477 322.182437) scale(0.1 -0.1)">
       <defs>
        <path id="DejaVuSans-30" d="M 2034 4250 
Q 1547 4250 1301 3770 
Q 1056 3291 1056 2328 
Q 1056 1369 1301 889 
Q 1547 409 2034 409 
Q 2525 409 2770 889 
Q 3016 1369 3016 2328 
Q 3016 3291 2770 3770 
Q 2525 4250 2034 4250 
z
M 2034 4750 
Q 2819 4750 3233 4129 
Q 3647 3509 3647 2328 
Q 3647 1150 3233 529 
Q 2819 -91 2034 -91 
Q 1250 -91 836 529 
Q 422 1150 422 2328 
Q 422 3509 836 4129 
Q 1250 4750 2034 4750 
z
" transform="scale(0.015625)"/>
       </defs>
       <use xlink:href="#DejaVuSans-30"/>
      </g>
     </g>
    </g>
    <g id="xtick_2">
     <g id="line2d_2">
      <g>
       <use xlink:href="#mbf5fea0b25" x="138.763636" y="307.584" style="stroke: #000000; stroke-width: 0.8"/>
      </g>
     </g>
     <g id="text_2">
      <!-- 2 -->
      <g transform="translate(135.582386 322.182437) scale(0.1 -0.1)">
       <defs>
        <path id="DejaVuSans-32" d="M 1228 531 
L 3431 531 
L 3431 0 
L 469 0 
L 469 531 
Q 828 903 1448 1529 
Q 2069 2156 2228 2338 
Q 2531 2678 2651 2914 
Q 2772 3150 2772 3378 
Q 2772 3750 2511 3984 
Q 2250 4219 1831 4219 
Q 1534 4219 1204 4116 
Q 875 4013 500 3803 
L 500 4441 
Q 881 4594 1212 4672 
Q 1544 4750 1819 4750 
Q 2544 4750 2975 4387 
Q 3406 4025 3406 3419 
Q 3406 3131 3298 2873 
Q 3191 2616 2906 2266 
Q 2828 2175 2409 1742 
Q 1991 1309 1228 531 
z
" transform="scale(0.015625)"/>
       </defs>
       <use xlink:href="#DejaVuSans-32"/>
      </g>
     </g>
    </g>
    <g id="xtick_3">
     <g id="line2d_3">
      <g>
       <use xlink:href="#mbf5fea0b25" x="203.694545" y="307.584" style="stroke: #000000; stroke-width: 0.8"/>
      </g>
     </g>
     <g id="text_3">
      <!-- 4 -->
      <g transform="translate(200.513295 322.182437) scale(0.1 -0.1)">
       <defs>
        <path id="DejaVuSans-34" d="M 2419 4116 
L 825 1625 
L 2419 1625 
L 2419 4116 
z
M 2253 4666 
L 3047 4666 
L 3047 1625 
L 3713 1625 
L 3713 1100 
L 3047 1100 
L 3047 0 
L 2419 0 
L 2419 1100 
L 313 1100 
L 313 1709 
L 2253 4666 
z
" transform="scale(0.015625)"/>
       </defs>
       <use xlink:href="#DejaVuSans-34"/>
      </g>
     </g>
    </g>
    <g id="xtick_4">
     <g id="line2d_4">
      <g>
       <use xlink:href="#mbf5fea0b25" x="268.625455" y="307.584" style="stroke: #000000; stroke-width: 0.8"/>
      </g>
     </g>
     <g id="text_4">
      <!-- 6 -->
      <g transform="translate(265.444205 322.182437) scale(0.1 -0.1)">
       <defs>
        <path id="DejaVuSans-36" d="M 2113 2584 
Q 1688 2584 1439 2293 
Q 1191 2003 1191 1497 
Q 1191 994 1439 701 
Q 1688 409 2113 409 
Q 2538 409 2786 701 
Q 3034 994 3034 1497 
Q 3034 2003 2786 2293 
Q 2538 2584 2113 2584 
z
M 3366 4563 
L 3366 3988 
Q 3128 4100 2886 4159 
Q 2644 4219 2406 4219 
Q 1781 4219 1451 3797 
Q 1122 3375 1075 2522 
Q 1259 2794 1537 2939 
Q 1816 3084 2150 3084 
Q 2853 3084 3261 2657 
Q 3669 2231 3669 1497 
Q 3669 778 3244 343 
Q 2819 -91 2113 -91 
Q 1303 -91 875 529 
Q 447 1150 447 2328 
Q 447 3434 972 4092 
Q 1497 4750 2381 4750 
Q 2619 4750 2861 4703 
Q 3103 4656 3366 4563 
z
" transform="scale(0.015625)"/>
       </defs>
       <use xlink:href="#DejaVuSans-36"/>
      </g>
     </g>
    </g>
    <g id="xtick_5">
     <g id="line2d_5">
      <g>
       <use xlink:href="#mbf5fea0b25" x="333.556364" y="307.584" style="stroke: #000000; stroke-width: 0.8"/>
      </g>
     </g>
     <g id="text_5">
      <!-- 8 -->
      <g transform="translate(330.375114 322.182437) scale(0.1 -0.1)">
       <defs>
        <path id="DejaVuSans-38" d="M 2034 2216 
Q 1584 2216 1326 1975 
Q 1069 1734 1069 1313 
Q 1069 891 1326 650 
Q 1584 409 2034 409 
Q 2484 409 2743 651 
Q 3003 894 3003 1313 
Q 3003 1734 2745 1975 
Q 2488 2216 2034 2216 
z
M 1403 2484 
Q 997 2584 770 2862 
Q 544 3141 544 3541 
Q 544 4100 942 4425 
Q 1341 4750 2034 4750 
Q 2731 4750 3128 4425 
Q 3525 4100 3525 3541 
Q 3525 3141 3298 2862 
Q 3072 2584 2669 2484 
Q 3125 2378 3379 2068 
Q 3634 1759 3634 1313 
Q 3634 634 3220 271 
Q 2806 -91 2034 -91 
Q 1263 -91 848 271 
Q 434 634 434 1313 
Q 434 1759 690 2068 
Q 947 2378 1403 2484 
z
M 1172 3481 
Q 1172 3119 1398 2916 
Q 1625 2713 2034 2713 
Q 2441 2713 2670 2916 
Q 2900 3119 2900 3481 
Q 2900 3844 2670 4047 
Q 2441 4250 2034 4250 
Q 1625 4250 1398 4047 
Q 1172 3844 1172 3481 
z
" transform="scale(0.015625)"/>
       </defs>
       <use xlink:href="#DejaVuSans-38"/>
      </g>
     </g>
    </g>
    <g id="xtick_6">
     <g id="line2d_6">
      <g>
       <use xlink:href="#mbf5fea0b25" x="398.487273" y="307.584" style="stroke: #000000; stroke-width: 0.8"/>
      </g>
     </g>
     <g id="text_6">
      <!-- 10 -->
      <g transform="translate(392.124773 322.182437) scale(0.1 -0.1)">
       <defs>
        <path id="DejaVuSans-31" d="M 794 531 
L 1825 531 
L 1825 4091 
L 703 3866 
L 703 4441 
L 1819 4666 
L 2450 4666 
L 2450 531 
L 3481 531 
L 3481 0 
L 794 0 
L 794 531 
z
" transform="scale(0.015625)"/>
       </defs>
       <use xlink:href="#DejaVuSans-31"/>
       <use xlink:href="#DejaVuSans-30" x="63.623047"/>
      </g>
     </g>
    </g>
   </g>
   <g id="matplotlib.axis_2">
    <g id="ytick_1">
     <g id="line2d_7">
      <defs>
       <path id="mfc52a76c5a" d="M 0 0 
L -3.5 0 
" style="stroke: #000000; stroke-width: 0.8"/>
      </defs>
      <g>
       <use xlink:href="#mfc52a76c5a" x="57.6" y="273.613696" style="stroke: #000000; stroke-width: 0.8"/>
      </g>
     </g>
     <g id="text_7">
      <!-- 0 -->
      <g transform="translate(44.2375 277.412915) scale(0.1 -0.1)">
       <use xlink:href="#DejaVuSans-30"/>
      </g>
     </g>
    </g>
    <g id="ytick_2">
     <g id="line2d_8">
      <g>
       <use xlink:href="#mfc52a76c5a" x="57.6" y="227.072624" style="stroke: #000000; stroke-width: 0.8"/>
      </g>
     </g>
     <g id="text_8">
      <!-- 200 -->
      <g transform="translate(31.5125 230.871843) scale(0.1 -0.1)">
       <use xlink:href="#DejaVuSans-32"/>
       <use xlink:href="#DejaVuSans-30" x="63.623047"/>
       <use xlink:href="#DejaVuSans-30" x="127.246094"/>
      </g>
     </g>
    </g>
    <g id="ytick_3">
     <g id="line2d_9">
      <g>
       <use xlink:href="#mfc52a76c5a" x="57.6" y="180.531553" style="stroke: #000000; stroke-width: 0.8"/>
      </g>
     </g>
     <g id="text_9">
      <!-- 400 -->
      <g transform="translate(31.5125 184.330771) scale(0.1 -0.1)">
       <use xlink:href="#DejaVuSans-34"/>
       <use xlink:href="#DejaVuSans-30" x="63.623047"/>
       <use xlink:href="#DejaVuSans-30" x="127.246094"/>
      </g>
     </g>
    </g>
    <g id="ytick_4">
     <g id="line2d_10">
      <g>
       <use xlink:href="#mfc52a76c5a" x="57.6" y="133.990481" style="stroke: #000000; stroke-width: 0.8"/>
      </g>
     </g>
     <g id="text_10">
      <!-- 600 -->
      <g transform="translate(31.5125 137.7897) scale(0.1 -0.1)">
       <use xlink:href="#DejaVuSans-36"/>
       <use xlink:href="#DejaVuSans-30" x="63.623047"/>
       <use xlink:href="#DejaVuSans-30" x="127.246094"/>
      </g>
     </g>
    </g>
    <g id="ytick_5">
     <g id="line2d_11">
      <g>
       <use xlink:href="#mfc52a76c5a" x="57.6" y="87.449409" style="stroke: #000000; stroke-width: 0.8"/>
      </g>
     </g>
     <g id="text_11">
      <!-- 800 -->
      <g transform="translate(31.5125 91.248628) scale(0.1 -0.1)">
       <use xlink:href="#DejaVuSans-38"/>
       <use xlink:href="#DejaVuSans-30" x="63.623047"/>
       <use xlink:href="#DejaVuSans-30" x="127.246094"/>
      </g>
     </g>
    </g>
   </g>
   <g id="line2d_12">
    <path d="M 73.832727 273.613696 
L 84.546327 266.064679 
L 90.390109 262.222682 
L 95.259927 259.279237 
L 99.480436 256.968662 
L 103.376291 255.066161 
L 107.272145 253.409606 
L 110.843345 252.124545 
L 114.414545 251.075813 
L 117.985745 250.272903 
L 121.232291 249.761636 
L 124.478836 249.46107 
L 127.725382 249.371221 
L 130.971927 249.489781 
L 134.543127 249.855327 
L 138.114327 250.458073 
L 141.685527 251.285434 
L 145.581382 252.425648 
L 149.801891 253.913004 
L 154.347055 255.767425 
L 159.541527 258.142977 
L 166.359273 261.537003 
L 181.293382 269.07514 
L 186.487855 271.396402 
L 190.708364 273.054283 
L 194.604218 274.356086 
L 198.175418 275.323829 
L 201.421964 275.993035 
L 204.668509 276.442464 
L 207.915055 276.65518 
L 210.836945 276.631688 
L 213.758836 276.394482 
L 216.680727 275.935213 
L 219.602618 275.246935 
L 222.524509 274.324152 
L 225.4464 273.162855 
L 228.368291 271.760548 
L 231.290182 270.116258 
L 234.212073 268.230533 
L 237.458618 265.854674 
L 240.705164 263.188301 
L 243.951709 260.238585 
L 247.522909 256.677782 
L 251.094109 252.800572 
L 254.989964 248.231116 
L 259.210473 242.910945 
L 263.755636 236.793839 
L 268.625455 229.851487 
L 274.144582 221.582934 
L 280.962327 210.932082 
L 291.026618 194.729626 
L 304.337455 173.362388 
L 311.804509 161.818265 
L 318.2976 152.198438 
L 324.141382 143.931825 
L 329.985164 136.060579 
L 335.504291 128.989193 
L 341.348073 121.862396 
L 347.516509 114.689686 
L 354.983564 106.368453 
L 377.060073 82.03944 
L 382.254545 75.846746 
L 387.124364 69.694026 
L 391.669527 63.574288 
L 395.890036 57.507493 
L 398.487273 53.568 
L 398.487273 53.568 
" clip-path="url(#ped4113168e)" style="fill: none; stroke: #1f77b4; stroke-width: 1.5; stroke-linecap: square"/>
   </g>
   <g id="line2d_13">
    <path d="M 73.832727 250.34316 
L 77.079273 250.452435 
L 80.325818 250.779097 
L 83.572364 251.319674 
L 87.143564 252.15445 
L 90.714764 253.230308 
L 94.285964 254.533381 
L 98.181818 256.194214 
L 102.402327 258.246227 
L 106.947491 260.70837 
L 112.141964 263.777315 
L 118.959709 268.080522 
L 134.867782 278.227503 
L 140.062255 281.230798 
L 144.607418 283.611709 
L 148.827927 285.565831 
L 152.723782 287.114697 
L 156.294982 288.294782 
L 159.541527 289.152129 
L 162.788073 289.791643 
L 166.034618 290.203183 
L 169.281164 290.378743 
L 172.527709 290.312537 
L 175.774255 290.001057 
L 179.0208 289.443104 
L 182.267345 288.639801 
L 185.513891 287.594586 
L 188.760436 286.313173 
L 192.006982 284.803497 
L 195.578182 282.891295 
L 199.149382 280.731384 
L 203.045236 278.115054 
L 207.265745 275.006428 
L 211.810909 271.38467 
L 217.330036 266.682535 
L 224.472436 260.266596 
L 241.679127 244.672755 
L 247.198255 240.041743 
L 252.068073 236.246287 
L 256.288582 233.226116 
L 260.184436 230.691317 
L 264.080291 228.422933 
L 267.651491 226.593623 
L 271.222691 225.015025 
L 274.793891 223.695037 
L 278.040436 222.723366 
L 281.286982 221.97024 
L 284.533527 221.434337 
L 287.780073 221.112029 
L 291.026618 220.997412 
L 294.597818 221.101463 
L 298.169018 221.433173 
L 302.064873 222.03494 
L 305.960727 222.862219 
L 310.181236 223.979228 
L 315.051055 225.500937 
L 321.219491 227.682673 
L 340.374109 234.668641 
L 345.243927 236.101835 
L 349.464436 237.11605 
L 353.360291 237.82517 
L 356.931491 238.256524 
L 360.502691 238.456709 
L 363.749236 238.422297 
L 366.995782 238.169295 
L 370.242327 237.687705 
L 373.488873 236.969669 
L 376.735418 236.009556 
L 379.981964 234.804013 
L 383.228509 233.351999 
L 386.475055 231.654797 
L 389.7216 229.716 
L 393.2928 227.311352 
L 396.864 224.632421 
L 398.487273 223.327733 
L 398.487273 223.327733 
" clip-path="url(#ped4113168e)" style="fill: none; stroke: #ff7f0e; stroke-width: 1.5; stroke-linecap: square"/>
   </g>
   <g id="line2d_14">
    <path d="M 73.832727 273.613696 
L 84.221673 280.487034 
L 89.7408 283.881259 
L 94.610618 286.617166 
L 98.831127 288.738038 
L 102.726982 290.453926 
L 106.298182 291.798945 
L 109.869382 292.907267 
L 113.115927 293.696541 
L 116.362473 294.268274 
L 119.609018 294.615357 
L 122.855564 294.732929 
L 126.102109 294.618418 
L 129.348655 294.271575 
L 132.5952 293.694469 
L 135.841745 292.891472 
L 139.088291 291.869212 
L 142.659491 290.502066 
L 146.230691 288.894997 
L 150.126545 286.888917 
L 154.347055 284.447859 
L 158.892218 281.550383 
L 164.086691 277.964457 
L 170.579782 273.196928 
L 189.409745 259.188158 
L 194.604218 255.697919 
L 199.149382 252.907888 
L 203.369891 250.584515 
L 207.265745 248.700625 
L 210.836945 247.21546 
L 214.408145 245.978169 
L 217.654691 245.07954 
L 220.901236 244.404213 
L 224.147782 243.95754 
L 227.394327 243.742591 
L 230.640873 243.760117 
L 233.887418 244.008548 
L 237.133964 244.484007 
L 240.380509 245.180348 
L 243.627055 246.089219 
L 247.198255 247.321885 
L 250.769455 248.782235 
L 254.665309 250.612026 
L 258.885818 252.840425 
L 263.755636 255.677604 
L 269.599418 259.365403 
L 278.365091 265.208702 
L 288.429382 271.855094 
L 293.948509 275.238625 
L 298.818327 277.961739 
L 303.038836 280.069208 
L 306.934691 281.771018 
L 310.505891 283.101871 
L 314.077091 284.194997 
L 317.323636 284.969717 
L 320.570182 285.526341 
L 323.816727 285.857913 
L 327.063273 285.959724 
L 330.309818 285.829363 
L 333.556364 285.466736 
L 336.802909 284.874071 
L 340.049455 284.055897 
L 343.296 283.018991 
L 346.8672 281.636525 
L 350.4384 280.015141 
L 354.334255 277.994796 
L 358.554764 275.540104 
L 363.099927 272.630321 
L 368.2944 269.03364 
L 375.112145 264.013965 
L 392.643491 250.943235 
L 397.837964 247.412655 
L 398.487273 246.991712 
L 398.487273 246.991712 
" clip-path="url(#ped4113168e)" style="fill: none; stroke: #2ca02c; stroke-width: 1.5; stroke-linecap: square"/>
   </g>
   <g id="line2d_15">
    <path d="M 73.832727 295.488 
L 77.079273 295.371744 
L 80.325818 295.024139 
L 83.572364 294.448656 
L 86.818909 293.651047 
L 90.065455 292.639281 
L 93.636655 291.291113 
L 97.207855 289.712386 
L 101.103709 287.749682 
L 105.324218 285.372287 
L 110.194036 282.356028 
L 115.713164 278.666215 
L 123.829527 272.933998 
L 135.517091 264.694343 
L 141.036218 261.077241 
L 145.906036 258.149209 
L 150.126545 255.864954 
L 154.0224 254.000552 
L 157.5936 252.521095 
L 161.1648 251.279725 
L 164.411345 250.370494 
L 167.657891 249.679551 
L 170.904436 249.213799 
L 174.150982 248.977892 
L 177.397527 248.974187 
L 180.644073 249.202722 
L 183.890618 249.661212 
L 187.137164 250.345077 
L 190.383709 251.247483 
L 193.954909 252.481722 
L 197.526109 253.954522 
L 201.421964 255.8123 
L 205.642473 258.090236 
L 210.187636 260.808832 
L 215.382109 264.185849 
L 221.8752 268.685 
L 240.055855 281.442305 
L 245.250327 284.728152 
L 249.795491 287.343783 
L 254.016 289.508553 
L 257.911855 291.248553 
L 261.483055 292.60364 
L 265.054255 293.712303 
L 268.3008 294.495004 
L 271.547345 295.055114 
L 274.793891 295.387038 
L 278.040436 295.48746 
L 281.286982 295.355375 
L 284.533527 294.992104 
L 287.780073 294.401276 
L 291.026618 293.588795 
L 294.597818 292.44881 
L 298.169018 291.064271 
L 302.064873 289.294695 
L 305.960727 287.279502 
L 310.181236 284.852897 
L 315.051055 281.790795 
L 320.894836 277.838887 
L 330.309818 271.14697 
L 339.400145 264.764524 
L 344.919273 261.142375 
L 349.789091 258.208324 
L 354.0096 255.917774 
L 357.905455 254.046767 
L 361.476655 252.560669 
L 365.047855 251.312178 
L 368.2944 250.396132 
L 371.540945 249.698118 
L 374.787491 249.225109 
L 378.034036 248.981833 
L 381.280582 248.970719 
L 384.527127 249.191879 
L 387.773673 249.643102 
L 391.020218 250.319882 
L 394.266764 251.215455 
L 397.837964 252.442549 
L 398.487273 252.69182 
L 398.487273 252.69182 
" clip-path="url(#ped4113168e)" style="fill: none; stroke: #d62728; stroke-width: 1.5; stroke-linecap: square"/>
   </g>
   <g id="patch_3">
    <path d="M 57.6 307.584 
L 57.6 41.472 
" style="fill: none; stroke: #000000; stroke-width: 0.8; stroke-linejoin: miter; stroke-linecap: square"/>
   </g>
   <g id="patch_4">
    <path d="M 414.72 307.584 
L 414.72 41.472 
" style="fill: none; stroke: #000000; stroke-width: 0.8; stroke-linejoin: miter; stroke-linecap: square"/>
   </g>
   <g id="patch_5">
    <path d="M 57.6 307.584 
L 414.72 307.584 
" style="fill: none; stroke: #000000; stroke-width: 0.8; stroke-linejoin: miter; stroke-linecap: square"/>
   </g>
   <g id="patch_6">
    <path d="M 57.6 41.472 
L 414.72 41.472 
" style="fill: none; stroke: #000000; stroke-width: 0.8; stroke-linejoin: miter; stroke-linecap: square"/>
   </g>
   <g id="text_12">
    <!-- ((X) ** (3.0)) + ((100.0) * (Sin(X))) up to 3rd derivative -->
    <g transform="translate(72.325312 35.472) scale(0.12 -0.12)">
     <defs>
      <path id="DejaVuSans-28" d="M 1984 4856 
Q 1566 4138 1362 3434 
Q 1159 2731 1159 2009 
Q 1159 1288 1364 580 
Q 1569 -128 1984 -844 
L 1484 -844 
Q 1016 -109 783 600 
Q 550 1309 550 2009 
Q 550 2706 781 3412 
Q 1013 4119 1484 4856 
L 1984 4856 
z
" transform="scale(0.015625)"/>
      <path id="DejaVuSans-58" d="M 403 4666 
L 1081 4666 
L 2241 2931 
L 3406 4666 
L 4084 4666 
L 2584 2425 
L 4184 0 
L 3506 0 
L 2194 1984 
L 872 0 
L 191 0 
L 1856 2491 
L 403 4666 
z
" transform="scale(0.015625)"/>
      <path id="DejaVuSans-29" d="M 513 4856 
L 1013 4856 
Q 1481 4119 1714 3412 
Q 1947 2706 1947 2009 
Q 1947 1309 1714 600 
Q 1481 -109 1013 -844 
L 513 -844 
Q 928 -128 1133 580 
Q 1338 1288 1338 2009 
Q 1338 2731 1133 3434 
Q 928 4138 513 4856 
z
" transform="scale(0.015625)"/>
      <path id="DejaVuSans-20" transform="scale(0.015625)"/>
      <path id="DejaVuSans-2a" d="M 3009 3897 
L 1888 3291 
L 3009 2681 
L 2828 2375 
L 1778 3009 
L 1778 1831 
L 1422 1831 
L 1422 3009 
L 372 2375 
L 191 2681 
L 1313 3291 
L 191 3897 
L 372 4206 
L 1422 3572 
L 1422 4750 
L 1778 4750 
L 1778 3572 
L 2828 4206 
L 3009 3897 
z
" transform="scale(0.015625)"/>
      <path id="DejaVuSans-33" d="M 2597 2516 
Q 3050 2419 3304 2112 
Q 3559 1806 3559 1356 
Q 3559 666 3084 287 
Q 2609 -91 1734 -91 
Q 1441 -91 1130 -33 
Q 819 25 488 141 
L 488 750 
Q 750 597 1062 519 
Q 1375 441 1716 441 
Q 2309 441 2620 675 
Q 2931 909 2931 1356 
Q 2931 1769 2642 2001 
Q 2353 2234 1838 2234 
L 1294 2234 
L 1294 2753 
L 1863 2753 
Q 2328 2753 2575 2939 
Q 2822 3125 2822 3475 
Q 2822 3834 2567 4026 
Q 2313 4219 1838 4219 
Q 1578 4219 1281 4162 
Q 984 4106 628 3988 
L 628 4550 
Q 988 4650 1302 4700 
Q 1616 4750 1894 4750 
Q 2613 4750 3031 4423 
Q 3450 4097 3450 3541 
Q 3450 3153 3228 2886 
Q 3006 2619 2597 2516 
z
" transform="scale(0.015625)"/>
      <path id="DejaVuSans-2e" d="M 684 794 
L 1344 794 
L 1344 0 
L 684 0 
L 684 794 
z
" transform="scale(0.015625)"/>
      <path id="DejaVuSans-2b" d="M 2944 4013 
L 2944 2272 
L 4684 2272 
L 4684 1741 
L 2944 1741 
L 2944 0 
L 2419 0 
L 2419 1741 
L 678 1741 
L 678 2272 
L 2419 2272 
L 2419 4013 
L 2944 4013 
z
" transform="scale(0.015625)"/>
      <path id="DejaVuSans-53" d="M 3425 4513 
L 3425 3897 
Q 3066 4069 2747 4153 
Q 2428 4238 2131 4238 
Q 1616 4238 1336 4038 
Q 1056 3838 1056 3469 
Q 1056 3159 1242 3001 
Q 1428 2844 1947 2747 
L 2328 2669 
Q 3034 2534 3370 2195 
Q 3706 1856 3706 1288 
Q 3706 609 3251 259 
Q 2797 -91 1919 -91 
Q 1588 -91 1214 -16 
Q 841 59 441 206 
L 441 856 
Q 825 641 1194 531 
Q 1563 422 1919 422 
Q 2459 422 2753 634 
Q 3047 847 3047 1241 
Q 3047 1584 2836 1778 
Q 2625 1972 2144 2069 
L 1759 2144 
Q 1053 2284 737 2584 
Q 422 2884 422 3419 
Q 422 4038 858 4394 
Q 1294 4750 2059 4750 
Q 2388 4750 2728 4690 
Q 3069 4631 3425 4513 
z
" transform="scale(0.015625)"/>
      <path id="DejaVuSans-69" d="M 603 3500 
L 1178 3500 
L 1178 0 
L 603 0 
L 603 3500 
z
M 603 4863 
L 1178 4863 
L 1178 4134 
L 603 4134 
L 603 4863 
z
" transform="scale(0.015625)"/>
      <path id="DejaVuSans-6e" d="M 3513 2113 
L 3513 0 
L 2938 0 
L 2938 2094 
Q 2938 2591 2744 2837 
Q 2550 3084 2163 3084 
Q 1697 3084 1428 2787 
Q 1159 2491 1159 1978 
L 1159 0 
L 581 0 
L 581 3500 
L 1159 3500 
L 1159 2956 
Q 1366 3272 1645 3428 
Q 1925 3584 2291 3584 
Q 2894 3584 3203 3211 
Q 3513 2838 3513 2113 
z
" transform="scale(0.015625)"/>
      <path id="DejaVuSans-75" d="M 544 1381 
L 544 3500 
L 1119 3500 
L 1119 1403 
Q 1119 906 1312 657 
Q 1506 409 1894 409 
Q 2359 409 2629 706 
Q 2900 1003 2900 1516 
L 2900 3500 
L 3475 3500 
L 3475 0 
L 2900 0 
L 2900 538 
Q 2691 219 2414 64 
Q 2138 -91 1772 -91 
Q 1169 -91 856 284 
Q 544 659 544 1381 
z
M 1991 3584 
L 1991 3584 
z
" transform="scale(0.015625)"/>
      <path id="DejaVuSans-70" d="M 1159 525 
L 1159 -1331 
L 581 -1331 
L 581 3500 
L 1159 3500 
L 1159 2969 
Q 1341 3281 1617 3432 
Q 1894 3584 2278 3584 
Q 2916 3584 3314 3078 
Q 3713 2572 3713 1747 
Q 3713 922 3314 415 
Q 2916 -91 2278 -91 
Q 1894 -91 1617 61 
Q 1341 213 1159 525 
z
M 3116 1747 
Q 3116 2381 2855 2742 
Q 2594 3103 2138 3103 
Q 1681 3103 1420 2742 
Q 1159 2381 1159 1747 
Q 1159 1113 1420 752 
Q 1681 391 2138 391 
Q 2594 391 2855 752 
Q 3116 1113 3116 1747 
z
" transform="scale(0.015625)"/>
      <path id="DejaVuSans-74" d="M 1172 4494 
L 1172 3500 
L 2356 3500 
L 2356 3053 
L 1172 3053 
L 1172 1153 
Q 1172 725 1289 603 
Q 1406 481 1766 481 
L 2356 481 
L 2356 0 
L 1766 0 
Q 1100 0 847 248 
Q 594 497 594 1153 
L 594 3053 
L 172 3053 
L 172 3500 
L 594 3500 
L 594 4494 
L 1172 4494 
z
" transform="scale(0.015625)"/>
      <path id="DejaVuSans-6f" d="M 1959 3097 
Q 1497 3097 1228 2736 
Q 959 2375 959 1747 
Q 959 1119 1226 758 
Q 1494 397 1959 397 
Q 2419 397 2687 759 
Q 2956 1122 2956 1747 
Q 2956 2369 2687 2733 
Q 2419 3097 1959 3097 
z
M 1959 3584 
Q 2709 3584 3137 3096 
Q 3566 2609 3566 1747 
Q 3566 888 3137 398 
Q 2709 -91 1959 -91 
Q 1206 -91 779 398 
Q 353 888 353 1747 
Q 353 2609 779 3096 
Q 1206 3584 1959 3584 
z
" transform="scale(0.015625)"/>
      <path id="DejaVuSans-72" d="M 2631 2963 
Q 2534 3019 2420 3045 
Q 2306 3072 2169 3072 
Q 1681 3072 1420 2755 
Q 1159 2438 1159 1844 
L 1159 0 
L 581 0 
L 581 3500 
L 1159 3500 
L 1159 2956 
Q 1341 3275 1631 3429 
Q 1922 3584 2338 3584 
Q 2397 3584 2469 3576 
Q 2541 3569 2628 3553 
L 2631 2963 
z
" transform="scale(0.015625)"/>
      <path id="DejaVuSans-64" d="M 2906 2969 
L 2906 4863 
L 3481 4863 
L 3481 0 
L 2906 0 
L 2906 525 
Q 2725 213 2448 61 
Q 2172 -91 1784 -91 
Q 1150 -91 751 415 
Q 353 922 353 1747 
Q 353 2572 751 3078 
Q 1150 3584 1784 3584 
Q 2172 3584 2448 3432 
Q 2725 3281 2906 2969 
z
M 947 1747 
Q 947 1113 1208 752 
Q 1469 391 1925 391 
Q 2381 391 2643 752 
Q 2906 1113 2906 1747 
Q 2906 2381 2643 2742 
Q 2381 3103 1925 3103 
Q 1469 3103 1208 2742 
Q 947 2381 947 1747 
z
" transform="scale(0.015625)"/>
      <path id="DejaVuSans-65" d="M 3597 1894 
L 3597 1613 
L 953 1613 
Q 991 1019 1311 708 
Q 1631 397 2203 397 
Q 2534 397 2845 478 
Q 3156 559 3463 722 
L 3463 178 
Q 3153 47 2828 -22 
Q 2503 -91 2169 -91 
Q 1331 -91 842 396 
Q 353 884 353 1716 
Q 353 2575 817 3079 
Q 1281 3584 2069 3584 
Q 2775 3584 3186 3129 
Q 3597 2675 3597 1894 
z
M 3022 2063 
Q 3016 2534 2758 2815 
Q 2500 3097 2075 3097 
Q 1594 3097 1305 2825 
Q 1016 2553 972 2059 
L 3022 2063 
z
" transform="scale(0.015625)"/>
      <path id="DejaVuSans-76" d="M 191 3500 
L 800 3500 
L 1894 563 
L 2988 3500 
L 3597 3500 
L 2284 0 
L 1503 0 
L 191 3500 
z
" transform="scale(0.015625)"/>
      <path id="DejaVuSans-61" d="M 2194 1759 
Q 1497 1759 1228 1600 
Q 959 1441 959 1056 
Q 959 750 1161 570 
Q 1363 391 1709 391 
Q 2188 391 2477 730 
Q 2766 1069 2766 1631 
L 2766 1759 
L 2194 1759 
z
M 3341 1997 
L 3341 0 
L 2766 0 
L 2766 531 
Q 2569 213 2275 61 
Q 1981 -91 1556 -91 
Q 1019 -91 701 211 
Q 384 513 384 1019 
Q 384 1609 779 1909 
Q 1175 2209 1959 2209 
L 2766 2209 
L 2766 2266 
Q 2766 2663 2505 2880 
Q 2244 3097 1772 3097 
Q 1472 3097 1187 3025 
Q 903 2953 641 2809 
L 641 3341 
Q 956 3463 1253 3523 
Q 1550 3584 1831 3584 
Q 2591 3584 2966 3190 
Q 3341 2797 3341 1997 
z
" transform="scale(0.015625)"/>
     </defs>
     <use xlink:href="#DejaVuSans-28"/>
     <use xlink:href="#DejaVuSans-28" x="39.013672"/>
     <use xlink:href="#DejaVuSans-58" x="78.027344"/>
     <use xlink:href="#DejaVuSans-29" x="146.533203"/>
     <use xlink:href="#DejaVuSans-20" x="185.546875"/>
     <use xlink:href="#DejaVuSans-2a" x="217.333984"/>
     <use xlink:href="#DejaVuSans-2a" x="267.333984"/>
     <use xlink:href="#DejaVuSans-20" x="317.333984"/>
     <use xlink:href="#DejaVuSans-28" x="349.121094"/>
     <use xlink:href="#DejaVuSans-33" x="388.134766"/>
     <use xlink:href="#DejaVuSans-2e" x="451.757812"/>
     <use xlink:href="#DejaVuSans-30" x="483.544922"/>
     <use xlink:href="#DejaVuSans-29" x="547.167969"/>
     <use xlink:href="#DejaVuSans-29" x="586.181641"/>
     <use xlink:href="#DejaVuSans-20" x="625.195312"/>
     <use xlink:href="#DejaVuSans-2b" x="656.982422"/>
     <use xlink:href="#DejaVuSans-20" x="740.771484"/>
     <use xlink:href="#DejaVuSans-28" x="772.558594"/>
     <use xlink:href="#DejaVuSans-28" x="811.572266"/>
     <use xlink:href="#DejaVuSans-31" x="850.585938"/>
     <use xlink:href="#DejaVuSans-30" x="914.208984"/>
     <use xlink:href="#DejaVuSans-30" x="977.832031"/>
     <use xlink:href="#DejaVuSans-2e" x="1041.455078"/>
     <use xlink:href="#DejaVuSans-30" x="1073.242188"/>
     <use xlink:href="#DejaVuSans-29" x="1136.865234"/>
     <use xlink:href="#DejaVuSans-20" x="1175.878906"/>
     <use xlink:href="#DejaVuSans-2a" x="1207.666016"/>
     <use xlink:href="#DejaVuSans-20" x="1257.666016"/>
     <use xlink:href="#DejaVuSans-28" x="1289.453125"/>
     <use xlink:href="#DejaVuSans-53" x="1328.466797"/>
     <use xlink:href="#DejaVuSans-69" x="1391.943359"/>
     <use xlink:href="#DejaVuSans-6e" x="1419.726562"/>
     <use xlink:href="#DejaVuSans-28" x="1483.105469"/>
     <use xlink:href="#DejaVuSans-58" x="1522.119141"/>
     <use xlink:href="#DejaVuSans-29" x="1590.625"/>
     <use xlink:href="#DejaVuSans-29" x="1629.638672"/>
     <use xlink:href="#DejaVuSans-29" x="1668.652344"/>
     <use xlink:href="#DejaVuSans-20" x="1707.666016"/>
     <use xlink:href="#DejaVuSans-75" x="1739.453125"/>
     <use xlink:href="#DejaVuSans-70" x="1802.832031"/>
     <use xlink:href="#DejaVuSans-20" x="1866.308594"/>
     <use xlink:href="#DejaVuSans-74" x="1898.095703"/>
     <use xlink:href="#DejaVuSans-6f" x="1937.304688"/>
     <use xlink:href="#DejaVuSans-20" x="1998.486328"/>
     <use xlink:href="#DejaVuSans-33" x="2030.273438"/>
     <use xlink:href="#DejaVuSans-72" x="2093.896484"/>
     <use xlink:href="#DejaVuSans-64" x="2133.259766"/>
     <use xlink:href="#DejaVuSans-20" x="2196.736328"/>
     <use xlink:href="#DejaVuSans-64" x="2228.523438"/>
     <use xlink:href="#DejaVuSans-65" x="2292"/>
     <use xlink:href="#DejaVuSans-72" x="2353.523438"/>
     <use xlink:href="#DejaVuSans-69" x="2394.636719"/>
     <use xlink:href="#DejaVuSans-76" x="2422.419922"/>
     <use xlink:href="#DejaVuSans-61" x="2481.599609"/>
     <use xlink:href="#DejaVuSans-74" x="2542.878906"/>
     <use xlink:href="#DejaVuSans-69" x="2582.087891"/>
     <use xlink:href="#DejaVuSans-76" x="2609.871094"/>
     <use xlink:href="#DejaVuSans-65" x="2669.050781"/>
    </g>
   </g>
   <g id="legend_1">
    <g id="patch_7">
     <path d="M 64.6 108.1845 
L 169.034375 108.1845 
Q 171.034375 108.1845 171.034375 106.1845 
L 171.034375 48.472 
Q 171.034375 46.472 169.034375 46.472 
L 64.6 46.472 
Q 62.6 46.472 62.6 48.472 
L 62.6 106.1845 
Q 62.6 108.1845 64.6 108.1845 
z
" style="fill: #ffffff; opacity: 0.8; stroke: #cccccc; stroke-linejoin: miter"/>
    </g>
    <g id="line2d_16">
     <path d="M 66.6 54.570438 
L 76.6 54.570438 
L 86.6 54.570438 
" style="fill: none; stroke: #1f77b4; stroke-width: 1.5; stroke-linecap: square"/>
    </g>
    <g id="text_13">
     <!-- 0th derivative -->
     <g transform="translate(94.6 58.070438) scale(0.1 -0.1)">
      <defs>
       <path id="DejaVuSans-68" d="M 3513 2113 
L 3513 0 
L 2938 0 
L 2938 2094 
Q 2938 2591 2744 2837 
Q 2550 3084 2163 3084 
Q 1697 3084 1428 2787 
Q 1159 2491 1159 1978 
L 1159 0 
L 581 0 
L 581 4863 
L 1159 4863 
L 1159 2956 
Q 1366 3272 1645 3428 
Q 1925 3584 2291 3584 
Q 2894 3584 3203 3211 
Q 3513 2838 3513 2113 
z
" transform="scale(0.015625)"/>
      </defs>
      <use xlink:href="#DejaVuSans-30"/>
      <use xlink:href="#DejaVuSans-74" x="63.623047"/>
      <use xlink:href="#DejaVuSans-68" x="102.832031"/>
      <use xlink:href="#DejaVuSans-20" x="166.210938"/>
      <use xlink:href="#DejaVuSans-64" x="197.998047"/>
      <use xlink:href="#DejaVuSans-65" x="261.474609"/>
      <use xlink:href="#DejaVuSans-72" x="322.998047"/>
      <use xlink:href="#DejaVuSans-69" x="364.111328"/>
      <use xlink:href="#DejaVuSans-76" x="391.894531"/>
      <use xlink:href="#DejaVuSans-61" x="451.074219"/>
      <use xlink:href="#DejaVuSans-74" x="512.353516"/>
      <use xlink:href="#DejaVuSans-69" x="551.5625"/>
      <use xlink:href="#DejaVuSans-76" x="579.345703"/>
      <use xlink:href="#DejaVuSans-65" x="638.525391"/>
     </g>
    </g>
    <g id="line2d_17">
     <path d="M 66.6 69.248563 
L 76.6 69.248563 
L 86.6 69.248563 
" style="fill: none; stroke: #ff7f0e; stroke-width: 1.5; stroke-linecap: square"/>
    </g>
    <g id="text_14">
     <!-- 1st derivative -->
     <g transform="translate(94.6 72.748563) scale(0.1 -0.1)">
      <defs>
       <path id="DejaVuSans-73" d="M 2834 3397 
L 2834 2853 
Q 2591 2978 2328 3040 
Q 2066 3103 1784 3103 
Q 1356 3103 1142 2972 
Q 928 2841 928 2578 
Q 928 2378 1081 2264 
Q 1234 2150 1697 2047 
L 1894 2003 
Q 2506 1872 2764 1633 
Q 3022 1394 3022 966 
Q 3022 478 2636 193 
Q 2250 -91 1575 -91 
Q 1294 -91 989 -36 
Q 684 19 347 128 
L 347 722 
Q 666 556 975 473 
Q 1284 391 1588 391 
Q 1994 391 2212 530 
Q 2431 669 2431 922 
Q 2431 1156 2273 1281 
Q 2116 1406 1581 1522 
L 1381 1569 
Q 847 1681 609 1914 
Q 372 2147 372 2553 
Q 372 3047 722 3315 
Q 1072 3584 1716 3584 
Q 2034 3584 2315 3537 
Q 2597 3491 2834 3397 
z
" transform="scale(0.015625)"/>
      </defs>
      <use xlink:href="#DejaVuSans-31"/>
      <use xlink:href="#DejaVuSans-73" x="63.623047"/>
      <use xlink:href="#DejaVuSans-74" x="115.722656"/>
      <use xlink:href="#DejaVuSans-20" x="154.931641"/>
      <use xlink:href="#DejaVuSans-64" x="186.71875"/>
      <use xlink:href="#DejaVuSans-65" x="250.195312"/>
      <use xlink:href="#DejaVuSans-72" x="311.71875"/>
      <use xlink:href="#DejaVuSans-69" x="352.832031"/>
      <use xlink:href="#DejaVuSans-76" x="380.615234"/>
      <use xlink:href="#DejaVuSans-61" x="439.794922"/>
      <use xlink:href="#DejaVuSans-74" x="501.074219"/>
      <use xlink:href="#DejaVuSans-69" x="540.283203"/>
      <use xlink:href="#DejaVuSans-76" x="568.066406"/>
      <use xlink:href="#DejaVuSans-65" x="627.246094"/>
     </g>
    </g>
    <g id="line2d_18">
     <path d="M 66.6 83.926688 
L 76.6 83.926688 
L 86.6 83.926688 
" style="fill: none; stroke: #2ca02c; stroke-width: 1.5; stroke-linecap: square"/>
    </g>
    <g id="text_15">
     <!-- 2nd derivative -->
     <g transform="translate(94.6 87.426688) scale(0.1 -0.1)">
      <use xlink:href="#DejaVuSans-32"/>
      <use xlink:href="#DejaVuSans-6e" x="63.623047"/>
      <use xlink:href="#DejaVuSans-64" x="127.001953"/>
      <use xlink:href="#DejaVuSans-20" x="190.478516"/>
      <use xlink:href="#DejaVuSans-64" x="222.265625"/>
      <use xlink:href="#DejaVuSans-65" x="285.742188"/>
      <use xlink:href="#DejaVuSans-72" x="347.265625"/>
      <use xlink:href="#DejaVuSans-69" x="388.378906"/>
      <use xlink:href="#DejaVuSans-76" x="416.162109"/>
      <use xlink:href="#DejaVuSans-61" x="475.341797"/>
      <use xlink:href="#DejaVuSans-74" x="536.621094"/>
      <use xlink:href="#DejaVuSans-69" x="575.830078"/>
      <use xlink:href="#DejaVuSans-76" x="603.613281"/>
      <use xlink:href="#DejaVuSans-65" x="662.792969"/>
     </g>
    </g>
    <g id="line2d_19">
     <path d="M 66.6 98.604813 
L 76.6 98.604813 
L 86.6 98.604813 
" style="fill: none; stroke: #d62728; stroke-width: 1.5; stroke-linecap: square"/>
    </g>
    <g id="text_16">
     <!-- 3rd derivative -->
     <g transform="translate(94.6 102.104813) scale(0.1 -0.1)">
      <use xlink:href="#DejaVuSans-33"/>
      <use xlink:href="#DejaVuSans-72" x="63.623047"/>
      <use xlink:href="#DejaVuSans-64" x="102.986328"/>
      <use xlink:href="#DejaVuSans-20" x="166.462891"/>
      <use xlink:href="#DejaVuSans-64" x="198.25"/>
      <use xlink:href="#DejaVuSans-65" x="261.726562"/>
      <use xlink:href="#DejaVuSans-72" x="323.25"/>
      <use xlink:href="#DejaVuSans-69" x="364.363281"/>
      <use xlink:href="#DejaVuSans-76" x="392.146484"/>
      <use xlink:href="#DejaVuSans-61" x="451.326172"/>
      <use xlink:href="#DejaVuSans-74" x="512.605469"/>
      <use xlink:href="#DejaVuSans-69" x="551.814453"/>
      <use xlink:href="#DejaVuSans-76" x="579.597656"/>
      <use xlink:href="#DejaVuSans-65" x="638.777344"/>
     </g>
    </g>
   </g>
  </g>
 </g>
 <defs>
  <clipPath id="ped4113168e">
   <rect x="57.6" y="41.472" width="357.12" height="266.112"/>
  </clipPath>
 </defs>
</svg>
