<?xml version="1.0" encoding="UTF-8" standalone="no"?>
<!DOCTYPE svg PUBLIC "-//W3C//DTD SVG 1.1//EN"
 "http://www.w3.org/Graphics/SVG/1.1/DTD/svg11.dtd">
<!-- Generated by graphviz version 2.43.0 (0)
 -->
<!-- Title: %3 Pages: 1 -->
<svg width="258pt" height="264pt"
 viewBox="0.00 0.00 257.50 264.00" xmlns="http://www.w3.org/2000/svg" xmlns:xlink="http://www.w3.org/1999/xlink">
<g id="graph0" class="graph" transform="scale(1 1) rotate(0) translate(4 260)">
<title>%3</title>
<g id="a_graph0"><a xlink:title="Hey! Notice that red nodes are clickable and &#10; tooltips contain additional information!">
<polygon fill="white" stroke="transparent" points="-4,4 -4,-260 253.5,-260 253.5,4 -4,4"/>
</a>
</g>
<!-- function0 -->
<g id="node1" class="node">
<title>function0</title>
<g id="a_node1"><a xlink:href="inspected-f2593-optimized-0.svg" xlink:title="original function &#10; contains 2 duplicate subfunctions &#10; contains 2 unique subfunctions &#10; (and is clickable)">
<path fill="red" stroke="red" d="M127,-182C127,-182 12,-182 12,-182 6,-182 0,-176 0,-170 0,-170 0,-156 0,-156 0,-150 6,-144 12,-144 12,-144 127,-144 127,-144 133,-144 139,-150 139,-156 139,-156 139,-170 139,-170 139,-176 133,-182 127,-182"/>
<text text-anchor="middle" x="69.5" y="-166.8" font-family="Times,serif" font-size="14.00">(X) ** (5.0) </text>
<text text-anchor="middle" x="69.5" y="-151.8" font-family="Times,serif" font-size="14.00"> original function</text>
</a>
</g>
</g>
<!-- f2593 -->
<g id="node2" class="node">
<title>f2593</title>
<g id="a_node2"><a xlink:title="Function ID=2593 &#10; contains 1 duplicate subfunctions">
<ellipse fill="lightblue" stroke="lightblue" cx="89.5" cy="-90" rx="31.4" ry="18"/>
<text text-anchor="middle" x="89.5" y="-86.3" font-family="Times,serif" font-size="14.00"> ** 5</text>
</a>
</g>
</g>
<!-- function0&#45;&gt;f2593 -->
<g id="edge1" class="edge">
<title>function0&#45;&gt;f2593</title>
<path fill="none" stroke="black" d="M74.65,-143.72C76.88,-135.8 79.53,-126.38 81.98,-117.71"/>
<polygon fill="black" stroke="black" points="85.37,-118.58 84.71,-108 78.63,-116.68 85.37,-118.58"/>
</g>
<!-- f1 -->
<g id="node5" class="node">
<title>f1</title>
<g id="a_node5"><a xlink:title="Function ID=1 &#10; contains 0 duplicate subfunctions">
<ellipse fill="lightgreen" stroke="lightgreen" cx="129.5" cy="-18" rx="27" ry="18"/>
<text text-anchor="middle" x="129.5" y="-14.3" font-family="Times,serif" font-size="14.00">X</text>
</a>
</g>
</g>
<!-- f2593&#45;&gt;f1 -->
<g id="edge3" class="edge">
<title>f2593&#45;&gt;f1</title>
<g id="a_edge3"><a xlink:title="Function ID=2593 depends on function ID=1">
<path fill="none" stroke="black" d="M98.78,-72.76C103.67,-64.19 109.79,-53.49 115.27,-43.9"/>
<polygon fill="black" stroke="black" points="118.35,-45.57 120.27,-35.15 112.27,-42.09 118.35,-45.57"/>
</a>
</g>
</g>
<!-- function1 -->
<g id="node3" class="node">
<title>function1</title>
<g id="a_node3"><a xlink:href="inspected-f2593-optimized-1.svg" xlink:title="1st derivative function &#10; contains 3 duplicate subfunctions &#10; contains 3 unique subfunctions &#10; (and is clickable)">
<path fill="red" stroke="red" d="M237.5,-256C237.5,-256 141.5,-256 141.5,-256 135.5,-256 129.5,-250 129.5,-244 129.5,-244 129.5,-230 129.5,-230 129.5,-224 135.5,-218 141.5,-218 141.5,-218 237.5,-218 237.5,-218 243.5,-218 249.5,-224 249.5,-230 249.5,-230 249.5,-244 249.5,-244 249.5,-250 243.5,-256 237.5,-256"/>
<text text-anchor="middle" x="189.5" y="-240.8" font-family="Times,serif" font-size="14.00">(X) ** (5.0) </text>
<text text-anchor="middle" x="189.5" y="-225.8" font-family="Times,serif" font-size="14.00"> 1st derivative</text>
</a>
</g>
</g>
<!-- f2595 -->
<g id="node4" class="node">
<title>f2595</title>
<g id="a_node4"><a xlink:title="Function ID=2595 &#10; contains 2 duplicate subfunctions">
<ellipse fill="lightblue" stroke="lightblue" cx="189.5" cy="-163" rx="32.49" ry="18"/>
<text text-anchor="middle" x="189.5" y="-159.3" font-family="Times,serif" font-size="14.00">5.0 *</text>
</a>
</g>
</g>
<!-- function1&#45;&gt;f2595 -->
<g id="edge2" class="edge">
<title>function1&#45;&gt;f2595</title>
<path fill="none" stroke="black" d="M189.5,-217.83C189.5,-209.89 189.5,-200.41 189.5,-191.63"/>
<polygon fill="black" stroke="black" points="193,-191.42 189.5,-181.42 186,-191.42 193,-191.42"/>
</g>
<!-- f2594 -->
<g id="node6" class="node">
<title>f2594</title>
<g id="a_node6"><a xlink:title="Function ID=2594 &#10; contains 1 duplicate subfunctions">
<ellipse fill="lightblue" stroke="lightblue" cx="179.5" cy="-90" rx="31.4" ry="18"/>
<text text-anchor="middle" x="179.5" y="-86.3" font-family="Times,serif" font-size="14.00"> ** 4</text>
</a>
</g>
</g>
<!-- f2595&#45;&gt;f2594 -->
<g id="edge4" class="edge">
<title>f2595&#45;&gt;f2594</title>
<g id="a_edge4"><a xlink:title="Function ID=2595 depends on function ID=2594">
<path fill="none" stroke="black" d="M187.08,-144.81C185.95,-136.79 184.58,-127.05 183.31,-118.07"/>
<polygon fill="black" stroke="black" points="186.76,-117.44 181.9,-108.03 179.83,-118.42 186.76,-117.44"/>
</a>
</g>
</g>
<!-- f2594&#45;&gt;f1 -->
<g id="edge5" class="edge">
<title>f2594&#45;&gt;f1</title>
<g id="a_edge5"><a xlink:title="Function ID=2594 depends on function ID=1">
<path fill="none" stroke="black" d="M168.15,-73.12C161.83,-64.26 153.81,-53.04 146.73,-43.12"/>
<polygon fill="black" stroke="black" points="149.46,-40.92 140.8,-34.82 143.77,-44.99 149.46,-40.92"/>
</a>
</g>
</g>
</g>
</svg>
