<?xml version="1.0" encoding="UTF-8" standalone="no"?>
<!DOCTYPE svg PUBLIC "-//W3C//DTD SVG 1.1//EN"
 "http://www.w3.org/Graphics/SVG/1.1/DTD/svg11.dtd">
<!-- Generated by graphviz version 2.43.0 (0)
 -->
<!-- Title: %3 Pages: 1 -->
<svg width="253pt" height="336pt"
 viewBox="0.00 0.00 252.50 336.00" xmlns="http://www.w3.org/2000/svg" xmlns:xlink="http://www.w3.org/1999/xlink">
<g id="graph0" class="graph" transform="scale(1 1) rotate(0) translate(4 332)">
<title>%3</title>
<g id="a_graph0"><a xlink:title="Hey! Notice that red nodes are clickable and &#10; tooltips contain additional information!">
<polygon fill="white" stroke="transparent" points="-4,4 -4,-332 248.5,-332 248.5,4 -4,4"/>
</a>
</g>
<!-- function0 -->
<g id="node1" class="node">
<title>function0</title>
<g id="a_node1"><a xlink:href="inspected-f2404-optimized-0.svg" xlink:title="original function &#10; contains 2 duplicate subfunctions &#10; contains 2 unique subfunctions &#10; (and is clickable)">
<path fill="red" stroke="red" d="M127,-254C127,-254 12,-254 12,-254 6,-254 0,-248 0,-242 0,-242 0,-228 0,-228 0,-222 6,-216 12,-216 12,-216 127,-216 127,-216 133,-216 139,-222 139,-228 139,-228 139,-242 139,-242 139,-248 133,-254 127,-254"/>
<text text-anchor="middle" x="69.5" y="-238.8" font-family="Times,serif" font-size="14.00">(0.9) ** (X) </text>
<text text-anchor="middle" x="69.5" y="-223.8" font-family="Times,serif" font-size="14.00"> original function</text>
</a>
</g>
</g>
<!-- f2404 -->
<g id="node2" class="node">
<title>f2404</title>
<g id="a_node2"><a xlink:title="Function ID=2404 &#10; contains 1 duplicate subfunctions">
<ellipse fill="lightblue" stroke="lightblue" cx="84.5" cy="-162" rx="40.09" ry="18"/>
<text text-anchor="middle" x="84.5" y="-158.3" font-family="Times,serif" font-size="14.00">0.9 ** </text>
</a>
</g>
</g>
<!-- function0&#45;&gt;f2404 -->
<g id="edge1" class="edge">
<title>function0&#45;&gt;f2404</title>
<path fill="none" stroke="black" d="M73.36,-215.72C75.02,-207.89 76.98,-198.59 78.8,-189.99"/>
<polygon fill="black" stroke="black" points="82.27,-190.51 80.91,-180 75.42,-189.06 82.27,-190.51"/>
</g>
<!-- f1 -->
<g id="node5" class="node">
<title>f1</title>
<g id="a_node5"><a xlink:title="Function ID=1 &#10; contains 0 duplicate subfunctions">
<ellipse fill="lightgreen" stroke="lightgreen" cx="112.5" cy="-18" rx="27" ry="18"/>
<text text-anchor="middle" x="112.5" y="-14.3" font-family="Times,serif" font-size="14.00">X</text>
</a>
</g>
</g>
<!-- f2404&#45;&gt;f1 -->
<g id="edge6" class="edge">
<title>f2404&#45;&gt;f1</title>
<g id="a_edge6"><a xlink:title="Function ID=2404 depends on function ID=1">
<path fill="none" stroke="black" d="M87.88,-143.87C92.67,-119.56 101.49,-74.82 107.17,-46.01"/>
<polygon fill="black" stroke="black" points="110.61,-46.68 109.11,-36.19 103.74,-45.32 110.61,-46.68"/>
</a>
</g>
</g>
<!-- function1 -->
<g id="node3" class="node">
<title>function1</title>
<g id="a_node3"><a xlink:href="inspected-f2404-optimized-1.svg" xlink:title="1st derivative function &#10; contains 7 duplicate subfunctions &#10; contains 6 unique subfunctions &#10; (and is clickable)">
<path fill="red" stroke="red" d="M232.5,-328C232.5,-328 136.5,-328 136.5,-328 130.5,-328 124.5,-322 124.5,-316 124.5,-316 124.5,-302 124.5,-302 124.5,-296 130.5,-290 136.5,-290 136.5,-290 232.5,-290 232.5,-290 238.5,-290 244.5,-296 244.5,-302 244.5,-302 244.5,-316 244.5,-316 244.5,-322 238.5,-328 232.5,-328"/>
<text text-anchor="middle" x="184.5" y="-312.8" font-family="Times,serif" font-size="14.00">(0.9) ** (X) </text>
<text text-anchor="middle" x="184.5" y="-297.8" font-family="Times,serif" font-size="14.00"> 1st derivative</text>
</a>
</g>
</g>
<!-- f2588 -->
<g id="node4" class="node">
<title>f2588</title>
<g id="a_node4"><a xlink:title="Function ID=2588 &#10; contains 6 duplicate subfunctions">
<ellipse fill="lightblue" stroke="lightblue" cx="184.5" cy="-235" rx="27" ry="18"/>
<text text-anchor="middle" x="184.5" y="-231.3" font-family="Times,serif" font-size="14.00">*</text>
</a>
</g>
</g>
<!-- function1&#45;&gt;f2588 -->
<g id="edge2" class="edge">
<title>function1&#45;&gt;f2588</title>
<path fill="none" stroke="black" d="M184.5,-289.83C184.5,-281.89 184.5,-272.41 184.5,-263.63"/>
<polygon fill="black" stroke="black" points="188,-263.42 184.5,-253.42 181,-263.42 188,-263.42"/>
</g>
<!-- f2588&#45;&gt;f2404 -->
<g id="edge3" class="edge">
<title>f2588&#45;&gt;f2404</title>
<g id="a_edge3"><a xlink:title="Function ID=2588 depends on function ID=2404">
<path fill="none" stroke="black" d="M166.62,-221.31C151.89,-210.85 130.7,-195.8 113.53,-183.61"/>
<polygon fill="black" stroke="black" points="115.16,-180.48 104.98,-177.54 111.11,-186.19 115.16,-180.48"/>
</a>
</g>
</g>
<!-- f2407 -->
<g id="node8" class="node">
<title>f2407</title>
<g id="a_node8"><a xlink:title="Function ID=2407 &#10; contains 3 duplicate subfunctions">
<ellipse fill="lightblue" stroke="lightblue" cx="184.5" cy="-162" rx="27" ry="18"/>
<text text-anchor="middle" x="184.5" y="-158.3" font-family="Times,serif" font-size="14.00">of</text>
</a>
</g>
</g>
<!-- f2588&#45;&gt;f2407 -->
<g id="edge4" class="edge">
<title>f2588&#45;&gt;f2407</title>
<g id="a_edge4"><a xlink:title="Function ID=2588 depends on function ID=2407">
<path fill="none" stroke="black" d="M184.5,-216.81C184.5,-208.79 184.5,-199.05 184.5,-190.07"/>
<polygon fill="black" stroke="black" points="188,-190.03 184.5,-180.03 181,-190.03 188,-190.03"/>
</a>
</g>
</g>
<!-- f2 -->
<g id="node6" class="node">
<title>f2</title>
<g id="a_node6"><a xlink:title="Function ID=2 &#10; contains 1 duplicate subfunctions">
<ellipse fill="lightblue" stroke="lightblue" cx="140.5" cy="-90" rx="27.9" ry="18"/>
<text text-anchor="middle" x="140.5" y="-86.3" font-family="Times,serif" font-size="14.00">Log</text>
</a>
</g>
</g>
<!-- f2&#45;&gt;f1 -->
<g id="edge8" class="edge">
<title>f2&#45;&gt;f1</title>
<g id="a_edge8"><a xlink:title="Function ID=2 depends on function ID=1">
<path fill="none" stroke="black" d="M133.86,-72.41C130.59,-64.22 126.56,-54.14 122.88,-44.95"/>
<polygon fill="black" stroke="black" points="126.05,-43.45 119.09,-35.47 119.55,-46.05 126.05,-43.45"/>
</a>
</g>
</g>
<!-- f2406 -->
<g id="node7" class="node">
<title>f2406</title>
<g id="a_node7"><a xlink:title="Function ID=2406 &#10; contains 0 duplicate subfunctions">
<ellipse fill="lightgreen" stroke="lightgreen" cx="213.5" cy="-90" rx="27" ry="18"/>
<text text-anchor="middle" x="213.5" y="-86.3" font-family="Times,serif" font-size="14.00">0.9</text>
</a>
</g>
</g>
<!-- f2407&#45;&gt;f2 -->
<g id="edge5" class="edge">
<title>f2407&#45;&gt;f2</title>
<g id="a_edge5"><a xlink:title="Function ID=2407 depends on function ID=2">
<path fill="none" stroke="black" d="M174.52,-145.12C169.08,-136.47 162.23,-125.58 156.11,-115.83"/>
<polygon fill="black" stroke="black" points="159.04,-113.91 150.75,-107.31 153.11,-117.64 159.04,-113.91"/>
</a>
</g>
</g>
<!-- f2407&#45;&gt;f2406 -->
<g id="edge7" class="edge">
<title>f2407&#45;&gt;f2406</title>
<g id="a_edge7"><a xlink:title="Function ID=2407 depends on function ID=2406">
<path fill="none" stroke="black" d="M191.37,-144.41C194.77,-136.22 198.94,-126.14 202.75,-116.95"/>
<polygon fill="black" stroke="black" points="206.08,-118.05 206.68,-107.47 199.62,-115.37 206.08,-118.05"/>
</a>
</g>
</g>
</g>
</svg>
