<?xml version="1.0" encoding="UTF-8" standalone="no"?>
<!DOCTYPE svg PUBLIC "-//W3C//DTD SVG 1.1//EN"
 "http://www.w3.org/Graphics/SVG/1.1/DTD/svg11.dtd">
<!-- Generated by graphviz version 2.43.0 (0)
 -->
<!-- Title: %3 Pages: 1 -->
<svg width="268pt" height="334pt"
 viewBox="0.00 0.00 268.00 334.00" xmlns="http://www.w3.org/2000/svg" xmlns:xlink="http://www.w3.org/1999/xlink">
<g id="graph0" class="graph" transform="scale(1 1) rotate(0) translate(4 330)">
<title>%3</title>
<g id="a_graph0"><a xlink:title="Hey! Notice that red nodes are clickable and &#10; tooltips contain additional information!">
<polygon fill="white" stroke="transparent" points="-4,4 -4,-330 264,-330 264,4 -4,4"/>
</a>
</g>
<!-- function0 -->
<g id="node1" class="node">
<title>function0</title>
<g id="a_node1"><a xlink:href="inspected-f7089-graph-0.svg" xlink:title="original function &#10; contains 6 duplicate subfunctions &#10; contains 5 unique subfunctions &#10; (and is clickable)">
<path fill="red" stroke="red" d="M248,-326C248,-326 12,-326 12,-326 6,-326 0,-320 0,-314 0,-314 0,-300 0,-300 0,-294 6,-288 12,-288 12,-288 248,-288 248,-288 254,-288 260,-294 260,-300 260,-300 260,-314 260,-314 260,-320 254,-326 248,-326"/>
<text text-anchor="middle" x="130" y="-310.8" font-family="Times,serif" font-size="14.00">((X) ** (3.0)) + ((100.0) * (Sin(X))) </text>
<text text-anchor="middle" x="130" y="-295.8" font-family="Times,serif" font-size="14.00"> original function</text>
</a>
</g>
</g>
<!-- f7089 -->
<g id="node2" class="node">
<title>f7089</title>
<g id="a_node2"><a xlink:title="Function ID=7089 &#10; contains 5 duplicate subfunctions">
<ellipse fill="lightblue" stroke="lightblue" cx="130" cy="-234" rx="27" ry="18"/>
<text text-anchor="middle" x="130" y="-230.3" font-family="Times,serif" font-size="14.00">+</text>
</a>
</g>
</g>
<!-- function0&#45;&gt;f7089 -->
<g id="edge1" class="edge">
<title>function0&#45;&gt;f7089</title>
<path fill="none" stroke="black" d="M130,-287.72C130,-279.97 130,-270.79 130,-262.27"/>
<polygon fill="black" stroke="black" points="133.5,-262 130,-252 126.5,-262 133.5,-262"/>
</g>
<!-- f7088 -->
<g id="node3" class="node">
<title>f7088</title>
<g id="a_node3"><a xlink:title="Function ID=7088 &#10; contains 2 duplicate subfunctions">
<ellipse fill="lightblue" stroke="lightblue" cx="93" cy="-162" rx="44.39" ry="18"/>
<text text-anchor="middle" x="93" y="-158.3" font-family="Times,serif" font-size="14.00">100.0 *</text>
</a>
</g>
</g>
<!-- f7089&#45;&gt;f7088 -->
<g id="edge4" class="edge">
<title>f7089&#45;&gt;f7088</title>
<g id="a_edge4"><a xlink:title="Function ID=7089 depends on function ID=7088">
<path fill="none" stroke="black" d="M121.42,-216.76C117.06,-208.53 111.67,-198.32 106.75,-189.02"/>
<polygon fill="black" stroke="black" points="109.82,-187.33 102.05,-180.12 103.63,-190.6 109.82,-187.33"/>
</a>
</g>
</g>
<!-- f7087 -->
<g id="node6" class="node">
<title>f7087</title>
<g id="a_node6"><a xlink:title="Function ID=7087 &#10; contains 1 duplicate subfunctions">
<ellipse fill="lightblue" stroke="lightblue" cx="168" cy="-90" rx="31.4" ry="18"/>
<text text-anchor="middle" x="168" y="-86.3" font-family="Times,serif" font-size="14.00"> ** 3</text>
</a>
</g>
</g>
<!-- f7089&#45;&gt;f7087 -->
<g id="edge5" class="edge">
<title>f7089&#45;&gt;f7087</title>
<g id="a_edge5"><a xlink:title="Function ID=7089 depends on function ID=7087">
<path fill="none" stroke="black" d="M135.41,-215.88C138.62,-205.53 142.69,-192.05 146,-180 151.65,-159.41 157.42,-135.96 161.63,-118.3"/>
<polygon fill="black" stroke="black" points="165.14,-118.67 164.04,-108.13 158.33,-117.05 165.14,-118.67"/>
</a>
</g>
</g>
<!-- f3 -->
<g id="node5" class="node">
<title>f3</title>
<g id="a_node5"><a xlink:title="Function ID=3 &#10; contains 1 duplicate subfunctions">
<ellipse fill="lightblue" stroke="lightblue" cx="92" cy="-90" rx="27" ry="18"/>
<text text-anchor="middle" x="92" y="-86.3" font-family="Times,serif" font-size="14.00">Sin</text>
</a>
</g>
</g>
<!-- f7088&#45;&gt;f3 -->
<g id="edge2" class="edge">
<title>f7088&#45;&gt;f3</title>
<g id="a_edge2"><a xlink:title="Function ID=7088 depends on function ID=3">
<path fill="none" stroke="black" d="M92.75,-143.7C92.64,-135.98 92.51,-126.71 92.39,-118.11"/>
<polygon fill="black" stroke="black" points="95.89,-118.05 92.24,-108.1 88.89,-118.15 95.89,-118.05"/>
</a>
</g>
</g>
<!-- f1 -->
<g id="node4" class="node">
<title>f1</title>
<g id="a_node4"><a xlink:title="Function ID=1 &#10; contains 0 duplicate subfunctions">
<ellipse fill="lightgreen" stroke="lightgreen" cx="130" cy="-18" rx="27" ry="18"/>
<text text-anchor="middle" x="130" y="-14.3" font-family="Times,serif" font-size="14.00">X</text>
</a>
</g>
</g>
<!-- f3&#45;&gt;f1 -->
<g id="edge6" class="edge">
<title>f3&#45;&gt;f1</title>
<g id="a_edge6"><a xlink:title="Function ID=3 depends on function ID=1">
<path fill="none" stroke="black" d="M100.81,-72.76C105.42,-64.28 111.16,-53.71 116.32,-44.2"/>
<polygon fill="black" stroke="black" points="119.54,-45.61 121.23,-35.15 113.39,-42.27 119.54,-45.61"/>
</a>
</g>
</g>
<!-- f7087&#45;&gt;f1 -->
<g id="edge3" class="edge">
<title>f7087&#45;&gt;f1</title>
<g id="a_edge3"><a xlink:title="Function ID=7087 depends on function ID=1">
<path fill="none" stroke="black" d="M158.99,-72.41C154.45,-64.04 148.84,-53.71 143.77,-44.37"/>
<polygon fill="black" stroke="black" points="146.79,-42.59 138.94,-35.47 140.64,-45.93 146.79,-42.59"/>
</a>
</g>
</g>
</g>
</svg>
