<?xml version="1.0" encoding="UTF-8" standalone="no"?>
<!DOCTYPE svg PUBLIC "-//W3C//DTD SVG 1.1//EN"
 "http://www.w3.org/Graphics/SVG/1.1/DTD/svg11.dtd">
<!-- Generated by graphviz version 2.43.0 (0)
 -->
<!-- Title: %3 Pages: 1 -->
<svg width="827pt" height="846pt"
 viewBox="0.00 0.00 826.50 846.00" xmlns="http://www.w3.org/2000/svg" xmlns:xlink="http://www.w3.org/1999/xlink">
<g id="graph0" class="graph" transform="scale(1 1) rotate(0) translate(4 842)">
<title>%3</title>
<g id="a_graph0"><a xlink:title="Hey! Notice that red nodes are clickable and &#10; tooltips contain additional information!">
<polygon fill="white" stroke="transparent" points="-4,4 -4,-842 822.5,-842 822.5,4 -4,4"/>
</a>
</g>
<!-- function0 -->
<g id="node1" class="node">
<title>function0</title>
<g id="a_node1"><a xlink:href="inspected-f2593-optimized-0.svg" xlink:title="original function &#10; contains 2 duplicate subfunctions &#10; contains 2 unique subfunctions &#10; (and is clickable)">
<path fill="red" stroke="red" d="M127,-182C127,-182 12,-182 12,-182 6,-182 0,-176 0,-170 0,-170 0,-156 0,-156 0,-150 6,-144 12,-144 12,-144 127,-144 127,-144 133,-144 139,-150 139,-156 139,-156 139,-170 139,-170 139,-176 133,-182 127,-182"/>
<text text-anchor="middle" x="69.5" y="-166.8" font-family="Times,serif" font-size="14.00">(X) ** (5.0) </text>
<text text-anchor="middle" x="69.5" y="-151.8" font-family="Times,serif" font-size="14.00"> original function</text>
</a>
</g>
</g>
<!-- f2593 -->
<g id="node2" class="node">
<title>f2593</title>
<g id="a_node2"><a xlink:title="Function ID=2593 &#10; contains 1 duplicate subfunctions">
<ellipse fill="lightblue" stroke="lightblue" cx="92.5" cy="-90" rx="31.4" ry="18"/>
<text text-anchor="middle" x="92.5" y="-86.3" font-family="Times,serif" font-size="14.00"> ** 5</text>
</a>
</g>
</g>
<!-- function0&#45;&gt;f2593 -->
<g id="edge1" class="edge">
<title>function0&#45;&gt;f2593</title>
<path fill="none" stroke="black" d="M75.42,-143.72C77.99,-135.8 81.04,-126.38 83.85,-117.71"/>
<polygon fill="black" stroke="black" points="87.24,-118.6 86.99,-108 80.58,-116.44 87.24,-118.6"/>
</g>
<!-- f1 -->
<g id="node15" class="node">
<title>f1</title>
<g id="a_node15"><a xlink:title="Function ID=1 &#10; contains 0 duplicate subfunctions">
<ellipse fill="lightgreen" stroke="lightgreen" cx="516.5" cy="-18" rx="27" ry="18"/>
<text text-anchor="middle" x="516.5" y="-14.3" font-family="Times,serif" font-size="14.00">X</text>
</a>
</g>
</g>
<!-- f2593&#45;&gt;f1 -->
<g id="edge8" class="edge">
<title>f2593&#45;&gt;f1</title>
<g id="a_edge8"><a xlink:title="Function ID=2593 depends on function ID=1">
<path fill="none" stroke="black" d="M122.31,-84.08C198.16,-71.56 398.24,-38.52 480.45,-24.95"/>
<polygon fill="black" stroke="black" points="481.26,-28.36 490.56,-23.28 480.12,-21.46 481.26,-28.36"/>
</a>
</g>
</g>
<!-- function1 -->
<g id="node3" class="node">
<title>function1</title>
<g id="a_node3"><a xlink:href="inspected-f2593-optimized-1.svg" xlink:title="1st derivative function &#10; contains 3 duplicate subfunctions &#10; contains 3 unique subfunctions &#10; (and is clickable)">
<path fill="red" stroke="red" d="M806.5,-256C806.5,-256 710.5,-256 710.5,-256 704.5,-256 698.5,-250 698.5,-244 698.5,-244 698.5,-230 698.5,-230 698.5,-224 704.5,-218 710.5,-218 710.5,-218 806.5,-218 806.5,-218 812.5,-218 818.5,-224 818.5,-230 818.5,-230 818.5,-244 818.5,-244 818.5,-250 812.5,-256 806.5,-256"/>
<text text-anchor="middle" x="758.5" y="-240.8" font-family="Times,serif" font-size="14.00">(X) ** (5.0) </text>
<text text-anchor="middle" x="758.5" y="-225.8" font-family="Times,serif" font-size="14.00"> 1st derivative</text>
</a>
</g>
</g>
<!-- f2595 -->
<g id="node4" class="node">
<title>f2595</title>
<g id="a_node4"><a xlink:title="Function ID=2595 &#10; contains 2 duplicate subfunctions">
<ellipse fill="lightblue" stroke="lightblue" cx="758.5" cy="-163" rx="32.49" ry="18"/>
<text text-anchor="middle" x="758.5" y="-159.3" font-family="Times,serif" font-size="14.00">5.0 *</text>
</a>
</g>
</g>
<!-- function1&#45;&gt;f2595 -->
<g id="edge2" class="edge">
<title>function1&#45;&gt;f2595</title>
<path fill="none" stroke="black" d="M758.5,-217.83C758.5,-209.89 758.5,-200.41 758.5,-191.63"/>
<polygon fill="black" stroke="black" points="762,-191.42 758.5,-181.42 755,-191.42 762,-191.42"/>
</g>
<!-- f2594 -->
<g id="node35" class="node">
<title>f2594</title>
<g id="a_node35"><a xlink:title="Function ID=2594 &#10; contains 1 duplicate subfunctions">
<ellipse fill="lightblue" stroke="lightblue" cx="758.5" cy="-90" rx="31.4" ry="18"/>
<text text-anchor="middle" x="758.5" y="-86.3" font-family="Times,serif" font-size="14.00"> ** 4</text>
</a>
</g>
</g>
<!-- f2595&#45;&gt;f2594 -->
<g id="edge27" class="edge">
<title>f2595&#45;&gt;f2594</title>
<g id="a_edge27"><a xlink:title="Function ID=2595 depends on function ID=2594">
<path fill="none" stroke="black" d="M758.5,-144.81C758.5,-136.79 758.5,-127.05 758.5,-118.07"/>
<polygon fill="black" stroke="black" points="762,-118.03 758.5,-108.03 755,-118.03 762,-118.03"/>
</a>
</g>
</g>
<!-- function2 -->
<g id="node5" class="node">
<title>function2</title>
<g id="a_node5"><a xlink:href="inspected-f2593-optimized-2.svg" xlink:title="2nd derivative function &#10; contains 5 duplicate subfunctions &#10; contains 5 unique subfunctions &#10; (and is clickable)">
<path fill="red" stroke="red" d="M428,-548C428,-548 327,-548 327,-548 321,-548 315,-542 315,-536 315,-536 315,-522 315,-522 315,-516 321,-510 327,-510 327,-510 428,-510 428,-510 434,-510 440,-516 440,-522 440,-522 440,-536 440,-536 440,-542 434,-548 428,-548"/>
<text text-anchor="middle" x="377.5" y="-532.8" font-family="Times,serif" font-size="14.00">(X) ** (5.0) </text>
<text text-anchor="middle" x="377.5" y="-517.8" font-family="Times,serif" font-size="14.00"> 2nd derivative</text>
</a>
</g>
</g>
<!-- f6417 -->
<g id="node6" class="node">
<title>f6417</title>
<g id="a_node6"><a xlink:title="Function ID=6417 &#10; contains 4 duplicate subfunctions">
<ellipse fill="lightblue" stroke="lightblue" cx="344.5" cy="-455" rx="27" ry="18"/>
<text text-anchor="middle" x="344.5" y="-451.3" font-family="Times,serif" font-size="14.00">+</text>
</a>
</g>
</g>
<!-- function2&#45;&gt;f6417 -->
<g id="edge3" class="edge">
<title>function2&#45;&gt;f6417</title>
<path fill="none" stroke="black" d="M369.17,-509.83C365.26,-501.3 360.53,-490.98 356.26,-481.66"/>
<polygon fill="black" stroke="black" points="359.38,-480.07 352.03,-472.44 353.02,-482.99 359.38,-480.07"/>
</g>
<!-- f3703 -->
<g id="node14" class="node">
<title>f3703</title>
<g id="a_node14"><a xlink:title="Function ID=3703 &#10; contains 0 duplicate subfunctions">
<ellipse fill="lightgreen" stroke="lightgreen" cx="198.5" cy="-382" rx="27" ry="18"/>
<text text-anchor="middle" x="198.5" y="-378.3" font-family="Times,serif" font-size="14.00">0.0</text>
</a>
</g>
</g>
<!-- f6417&#45;&gt;f3703 -->
<g id="edge10" class="edge">
<title>f6417&#45;&gt;f3703</title>
<g id="a_edge10"><a xlink:title="Function ID=6417 depends on function ID=3703">
<path fill="none" stroke="black" d="M323.27,-443.68C298.4,-431.58 257.02,-411.46 228.78,-397.73"/>
<polygon fill="black" stroke="black" points="230.28,-394.56 219.76,-393.34 227.22,-400.86 230.28,-394.56"/>
</a>
</g>
</g>
<!-- f6416 -->
<g id="node25" class="node">
<title>f6416</title>
<g id="a_node25"><a xlink:title="Function ID=6416 &#10; contains 2 duplicate subfunctions">
<ellipse fill="lightblue" stroke="lightblue" cx="344.5" cy="-382" rx="38.19" ry="18"/>
<text text-anchor="middle" x="344.5" y="-378.3" font-family="Times,serif" font-size="14.00">20.0 *</text>
</a>
</g>
</g>
<!-- f6417&#45;&gt;f6416 -->
<g id="edge20" class="edge">
<title>f6417&#45;&gt;f6416</title>
<g id="a_edge20"><a xlink:title="Function ID=6417 depends on function ID=6416">
<path fill="none" stroke="black" d="M344.5,-436.81C344.5,-428.79 344.5,-419.05 344.5,-410.07"/>
<polygon fill="black" stroke="black" points="348,-410.03 344.5,-400.03 341,-410.03 348,-410.03"/>
</a>
</g>
</g>
<!-- function3 -->
<g id="node7" class="node">
<title>function3</title>
<g id="a_node7"><a xlink:href="inspected-f2593-optimized-3.svg" xlink:title="3rd derivative function &#10; contains 13 duplicate subfunctions &#10; contains 11 unique subfunctions &#10; (and is clickable)">
<path fill="red" stroke="red" d="M140.5,-548C140.5,-548 42.5,-548 42.5,-548 36.5,-548 30.5,-542 30.5,-536 30.5,-536 30.5,-522 30.5,-522 30.5,-516 36.5,-510 42.5,-510 42.5,-510 140.5,-510 140.5,-510 146.5,-510 152.5,-516 152.5,-522 152.5,-522 152.5,-536 152.5,-536 152.5,-542 146.5,-548 140.5,-548"/>
<text text-anchor="middle" x="91.5" y="-532.8" font-family="Times,serif" font-size="14.00">(X) ** (5.0) </text>
<text text-anchor="middle" x="91.5" y="-517.8" font-family="Times,serif" font-size="14.00"> 3rd derivative</text>
</a>
</g>
</g>
<!-- f7078 -->
<g id="node8" class="node">
<title>f7078</title>
<g id="a_node8"><a xlink:title="Function ID=7078 &#10; contains 12 duplicate subfunctions">
<ellipse fill="lightblue" stroke="lightblue" cx="91.5" cy="-455" rx="27" ry="18"/>
<text text-anchor="middle" x="91.5" y="-451.3" font-family="Times,serif" font-size="14.00">+</text>
</a>
</g>
</g>
<!-- function3&#45;&gt;f7078 -->
<g id="edge4" class="edge">
<title>function3&#45;&gt;f7078</title>
<path fill="none" stroke="black" d="M91.5,-509.83C91.5,-501.89 91.5,-492.41 91.5,-483.63"/>
<polygon fill="black" stroke="black" points="95,-483.42 91.5,-473.42 88,-483.42 95,-483.42"/>
</g>
<!-- f7078&#45;&gt;f3703 -->
<g id="edge13" class="edge">
<title>f7078&#45;&gt;f3703</title>
<g id="a_edge13"><a xlink:title="Function ID=7078 depends on function ID=3703">
<path fill="none" stroke="black" d="M110.14,-441.63C127.09,-430.38 152.32,-413.64 171.48,-400.93"/>
<polygon fill="black" stroke="black" points="173.68,-403.67 180.08,-395.23 169.81,-397.84 173.68,-403.67"/>
</a>
</g>
</g>
<!-- f6819 -->
<g id="node38" class="node">
<title>f6819</title>
<g id="a_node38"><a xlink:title="Function ID=6819 &#10; contains 10 duplicate subfunctions">
<ellipse fill="lightblue" stroke="lightblue" cx="109.5" cy="-382" rx="27" ry="18"/>
<text text-anchor="middle" x="109.5" y="-378.3" font-family="Times,serif" font-size="14.00">+</text>
</a>
</g>
</g>
<!-- f7078&#45;&gt;f6819 -->
<g id="edge46" class="edge">
<title>f7078&#45;&gt;f6819</title>
<g id="a_edge46"><a xlink:title="Function ID=7078 depends on function ID=6819">
<path fill="none" stroke="black" d="M95.77,-437.17C97.82,-429.07 100.33,-419.15 102.65,-410.03"/>
<polygon fill="black" stroke="black" points="106.07,-410.75 105.14,-400.2 99.29,-409.03 106.07,-410.75"/>
</a>
</g>
</g>
<!-- function4 -->
<g id="node9" class="node">
<title>function4</title>
<g id="a_node9"><a xlink:href="inspected-f2593-optimized-4.svg" xlink:title="4th derivative function &#10; contains 29 duplicate subfunctions &#10; contains 22 unique subfunctions &#10; (and is clickable)">
<path fill="red" stroke="red" d="M434.5,-838C434.5,-838 336.5,-838 336.5,-838 330.5,-838 324.5,-832 324.5,-826 324.5,-826 324.5,-812 324.5,-812 324.5,-806 330.5,-800 336.5,-800 336.5,-800 434.5,-800 434.5,-800 440.5,-800 446.5,-806 446.5,-812 446.5,-812 446.5,-826 446.5,-826 446.5,-832 440.5,-838 434.5,-838"/>
<text text-anchor="middle" x="385.5" y="-822.8" font-family="Times,serif" font-size="14.00">(X) ** (5.0) </text>
<text text-anchor="middle" x="385.5" y="-807.8" font-family="Times,serif" font-size="14.00"> 4th derivative</text>
</a>
</g>
</g>
<!-- f7084 -->
<g id="node10" class="node">
<title>f7084</title>
<g id="a_node10"><a xlink:title="Function ID=7084 &#10; contains 28 duplicate subfunctions">
<ellipse fill="lightblue" stroke="lightblue" cx="385.5" cy="-746" rx="27" ry="18"/>
<text text-anchor="middle" x="385.5" y="-742.3" font-family="Times,serif" font-size="14.00">+</text>
</a>
</g>
</g>
<!-- function4&#45;&gt;f7084 -->
<g id="edge5" class="edge">
<title>function4&#45;&gt;f7084</title>
<path fill="none" stroke="black" d="M385.5,-799.72C385.5,-791.97 385.5,-782.79 385.5,-774.27"/>
<polygon fill="black" stroke="black" points="389,-774 385.5,-764 382,-774 389,-774"/>
</g>
<!-- f7084&#45;&gt;f3703 -->
<g id="edge11" class="edge">
<title>f7084&#45;&gt;f3703</title>
<g id="a_edge11"><a xlink:title="Function ID=7084 depends on function ID=3703">
<path fill="none" stroke="black" d="M367.8,-731.86C339.32,-709.06 286.5,-659.2 286.5,-603 286.5,-603 286.5,-603 286.5,-528 286.5,-486.25 289.67,-471.38 267.5,-436 257.89,-420.67 242.17,-408.08 228.16,-399.03"/>
<polygon fill="black" stroke="black" points="229.64,-395.83 219.28,-393.6 225.99,-401.8 229.64,-395.83"/>
</a>
</g>
</g>
<!-- f7019 -->
<g id="node41" class="node">
<title>f7019</title>
<g id="a_node41"><a xlink:title="Function ID=7019 &#10; contains 26 duplicate subfunctions">
<ellipse fill="lightblue" stroke="lightblue" cx="485.5" cy="-674" rx="27" ry="18"/>
<text text-anchor="middle" x="485.5" y="-670.3" font-family="Times,serif" font-size="14.00">+</text>
</a>
</g>
</g>
<!-- f7084&#45;&gt;f7019 -->
<g id="edge41" class="edge">
<title>f7084&#45;&gt;f7019</title>
<g id="a_edge41"><a xlink:title="Function ID=7084 depends on function ID=7019">
<path fill="none" stroke="black" d="M403.38,-732.49C418.78,-721.7 441.24,-705.98 458.78,-693.7"/>
<polygon fill="black" stroke="black" points="461.25,-696.24 467.44,-687.64 457.24,-690.51 461.25,-696.24"/>
</a>
</g>
</g>
<!-- function5 -->
<g id="node11" class="node">
<title>function5</title>
<g id="a_node11"><a xlink:href="inspected-f2593-optimized-5.svg" xlink:title="5th derivative function &#10; contains 1 duplicate subfunctions &#10; contains 1 unique subfunctions &#10; (and is clickable)">
<path fill="red" stroke="red" d="M574.5,-838C574.5,-838 476.5,-838 476.5,-838 470.5,-838 464.5,-832 464.5,-826 464.5,-826 464.5,-812 464.5,-812 464.5,-806 470.5,-800 476.5,-800 476.5,-800 574.5,-800 574.5,-800 580.5,-800 586.5,-806 586.5,-812 586.5,-812 586.5,-826 586.5,-826 586.5,-832 580.5,-838 574.5,-838"/>
<text text-anchor="middle" x="525.5" y="-822.8" font-family="Times,serif" font-size="14.00">(X) ** (5.0) </text>
<text text-anchor="middle" x="525.5" y="-807.8" font-family="Times,serif" font-size="14.00"> 5th derivative</text>
</a>
</g>
</g>
<!-- f4241 -->
<g id="node12" class="node">
<title>f4241</title>
<g id="a_node12"><a xlink:title="Function ID=4241 &#10; contains 0 duplicate subfunctions">
<ellipse fill="lightgreen" stroke="lightgreen" cx="525.5" cy="-746" rx="37.09" ry="18"/>
<text text-anchor="middle" x="525.5" y="-742.3" font-family="Times,serif" font-size="14.00">120.0</text>
</a>
</g>
</g>
<!-- function5&#45;&gt;f4241 -->
<g id="edge6" class="edge">
<title>function5&#45;&gt;f4241</title>
<path fill="none" stroke="black" d="M525.5,-799.72C525.5,-791.97 525.5,-782.79 525.5,-774.27"/>
<polygon fill="black" stroke="black" points="529,-774 525.5,-764 522,-774 529,-774"/>
</g>
<!-- function6 -->
<g id="node13" class="node">
<title>function6</title>
<g id="a_node13"><a xlink:href="inspected-f2593-optimized-6.svg" xlink:title="6th derivative function &#10; contains 1 duplicate subfunctions &#10; contains 1 unique subfunctions &#10; (and is clickable)">
<path fill="red" stroke="red" d="M246.5,-474C246.5,-474 148.5,-474 148.5,-474 142.5,-474 136.5,-468 136.5,-462 136.5,-462 136.5,-448 136.5,-448 136.5,-442 142.5,-436 148.5,-436 148.5,-436 246.5,-436 246.5,-436 252.5,-436 258.5,-442 258.5,-448 258.5,-448 258.5,-462 258.5,-462 258.5,-468 252.5,-474 246.5,-474"/>
<text text-anchor="middle" x="197.5" y="-458.8" font-family="Times,serif" font-size="14.00">(X) ** (5.0) </text>
<text text-anchor="middle" x="197.5" y="-443.8" font-family="Times,serif" font-size="14.00"> 6th derivative</text>
</a>
</g>
</g>
<!-- function6&#45;&gt;f3703 -->
<g id="edge7" class="edge">
<title>function6&#45;&gt;f3703</title>
<path fill="none" stroke="black" d="M197.76,-435.72C197.87,-427.97 198,-418.79 198.12,-410.27"/>
<polygon fill="black" stroke="black" points="201.62,-410.05 198.26,-400 194.62,-409.95 201.62,-410.05"/>
</g>
<!-- f6980 -->
<g id="node16" class="node">
<title>f6980</title>
<g id="a_node16"><a xlink:title="Function ID=6980 &#10; contains 1 duplicate subfunctions">
<ellipse fill="lightblue" stroke="lightblue" cx="605.5" cy="-90" rx="32.49" ry="18"/>
<text text-anchor="middle" x="605.5" y="-86.3" font-family="Times,serif" font-size="14.00">6.0 *</text>
</a>
</g>
</g>
<!-- f6980&#45;&gt;f1 -->
<g id="edge47" class="edge">
<title>f6980&#45;&gt;f1</title>
<g id="a_edge47"><a xlink:title="Function ID=6980 depends on function ID=1">
<path fill="none" stroke="black" d="M587.49,-74.83C574.24,-64.42 556.07,-50.12 541.43,-38.61"/>
<polygon fill="black" stroke="black" points="543.3,-35.63 533.28,-32.2 538.98,-41.13 543.3,-35.63"/>
</a>
</g>
</g>
<!-- f6981 -->
<g id="node17" class="node">
<title>f6981</title>
<g id="a_node17"><a xlink:title="Function ID=6981 &#10; contains 6 duplicate subfunctions">
<ellipse fill="lightblue" stroke="lightblue" cx="634.5" cy="-237" rx="27" ry="18"/>
<text text-anchor="middle" x="634.5" y="-233.3" font-family="Times,serif" font-size="14.00">+</text>
</a>
</g>
</g>
<!-- f6981&#45;&gt;f6980 -->
<g id="edge25" class="edge">
<title>f6981&#45;&gt;f6980</title>
<g id="a_edge25"><a xlink:title="Function ID=6981 depends on function ID=6980">
<path fill="none" stroke="black" d="M631.12,-219.08C626.17,-194.33 616.9,-147.98 610.97,-118.35"/>
<polygon fill="black" stroke="black" points="614.35,-117.38 608.95,-108.26 607.48,-118.75 614.35,-117.38"/>
</a>
</g>
</g>
<!-- f6842 -->
<g id="node43" class="node">
<title>f6842</title>
<g id="a_node43"><a xlink:title="Function ID=6842 &#10; contains 3 duplicate subfunctions">
<ellipse fill="lightblue" stroke="lightblue" cx="673.5" cy="-163" rx="32.49" ry="18"/>
<text text-anchor="middle" x="673.5" y="-159.3" font-family="Times,serif" font-size="14.00">0.0 *</text>
</a>
</g>
</g>
<!-- f6981&#45;&gt;f6842 -->
<g id="edge18" class="edge">
<title>f6981&#45;&gt;f6842</title>
<g id="a_edge18"><a xlink:title="Function ID=6981 depends on function ID=6842">
<path fill="none" stroke="black" d="M643.35,-219.66C648.12,-210.86 654.11,-199.79 659.5,-189.85"/>
<polygon fill="black" stroke="black" points="662.73,-191.23 664.41,-180.77 656.57,-187.9 662.73,-191.23"/>
</a>
</g>
</g>
<!-- f6853 -->
<g id="node18" class="node">
<title>f6853</title>
<g id="a_node18"><a xlink:title="Function ID=6853 &#10; contains 2 duplicate subfunctions">
<ellipse fill="lightblue" stroke="lightblue" cx="551.5" cy="-237" rx="27" ry="18"/>
<text text-anchor="middle" x="551.5" y="-233.3" font-family="Times,serif" font-size="14.00">*</text>
</a>
</g>
</g>
<!-- f6853&#45;&gt;f1 -->
<g id="edge29" class="edge">
<title>f6853&#45;&gt;f1</title>
<g id="a_edge29"><a xlink:title="Function ID=6853 depends on function ID=1">
<path fill="none" stroke="black" d="M548.75,-218.97C542.7,-181.42 528.15,-91.23 520.84,-45.93"/>
<polygon fill="black" stroke="black" points="524.28,-45.26 519.23,-35.95 517.37,-46.38 524.28,-45.26"/>
</a>
</g>
</g>
<!-- f6854 -->
<g id="node19" class="node">
<title>f6854</title>
<g id="a_node19"><a xlink:title="Function ID=6854 &#10; contains 3 duplicate subfunctions">
<ellipse fill="lightblue" stroke="lightblue" cx="551.5" cy="-310" rx="32.49" ry="18"/>
<text text-anchor="middle" x="551.5" y="-306.3" font-family="Times,serif" font-size="14.00">0.0 *</text>
</a>
</g>
</g>
<!-- f6854&#45;&gt;f6853 -->
<g id="edge44" class="edge">
<title>f6854&#45;&gt;f6853</title>
<g id="a_edge44"><a xlink:title="Function ID=6854 depends on function ID=6853">
<path fill="none" stroke="black" d="M551.5,-291.81C551.5,-283.79 551.5,-274.05 551.5,-265.07"/>
<polygon fill="black" stroke="black" points="555,-265.03 551.5,-255.03 548,-265.03 555,-265.03"/>
</a>
</g>
</g>
<!-- f3782 -->
<g id="node20" class="node">
<title>f3782</title>
<g id="a_node20"><a xlink:title="Function ID=3782 &#10; contains 0 duplicate subfunctions">
<ellipse fill="lightgreen" stroke="lightgreen" cx="485.5" cy="-529" rx="27" ry="18"/>
<text text-anchor="middle" x="485.5" y="-525.3" font-family="Times,serif" font-size="14.00">0.0</text>
</a>
</g>
</g>
<!-- f3722 -->
<g id="node21" class="node">
<title>f3722</title>
<g id="a_node21"><a xlink:title="Function ID=3722 &#10; contains 0 duplicate subfunctions">
<ellipse fill="lightgreen" stroke="lightgreen" cx="109.5" cy="-310" rx="27" ry="18"/>
<text text-anchor="middle" x="109.5" y="-306.3" font-family="Times,serif" font-size="14.00">0.0</text>
</a>
</g>
</g>
<!-- f6541 -->
<g id="node22" class="node">
<title>f6541</title>
<g id="a_node22"><a xlink:title="Function ID=6541 &#10; contains 2 duplicate subfunctions">
<ellipse fill="lightblue" stroke="lightblue" cx="404.5" cy="-163" rx="32.49" ry="18"/>
<text text-anchor="middle" x="404.5" y="-159.3" font-family="Times,serif" font-size="14.00">0.0 *</text>
</a>
</g>
</g>
<!-- f2598 -->
<g id="node39" class="node">
<title>f2598</title>
<g id="a_node39"><a xlink:title="Function ID=2598 &#10; contains 1 duplicate subfunctions">
<ellipse fill="lightblue" stroke="lightblue" cx="381.5" cy="-90" rx="31.4" ry="18"/>
<text text-anchor="middle" x="381.5" y="-86.3" font-family="Times,serif" font-size="14.00"> ** 3</text>
</a>
</g>
</g>
<!-- f6541&#45;&gt;f2598 -->
<g id="edge39" class="edge">
<title>f6541&#45;&gt;f2598</title>
<g id="a_edge39"><a xlink:title="Function ID=6541 depends on function ID=2598">
<path fill="none" stroke="black" d="M399.05,-145.17C396.4,-136.98 393.14,-126.94 390.16,-117.73"/>
<polygon fill="black" stroke="black" points="393.48,-116.63 387.07,-108.2 386.82,-118.79 393.48,-116.63"/>
</a>
</g>
</g>
<!-- f6990 -->
<g id="node23" class="node">
<title>f6990</title>
<g id="a_node23"><a xlink:title="Function ID=6990 &#10; contains 7 duplicate subfunctions">
<ellipse fill="lightblue" stroke="lightblue" cx="634.5" cy="-310" rx="32.49" ry="18"/>
<text text-anchor="middle" x="634.5" y="-306.3" font-family="Times,serif" font-size="14.00">4.0 *</text>
</a>
</g>
</g>
<!-- f6990&#45;&gt;f6981 -->
<g id="edge37" class="edge">
<title>f6990&#45;&gt;f6981</title>
<g id="a_edge37"><a xlink:title="Function ID=6990 depends on function ID=6981">
<path fill="none" stroke="black" d="M634.5,-291.81C634.5,-283.79 634.5,-274.05 634.5,-265.07"/>
<polygon fill="black" stroke="black" points="638,-265.03 634.5,-255.03 631,-265.03 638,-265.03"/>
</a>
</g>
</g>
<!-- f6991 -->
<g id="node24" class="node">
<title>f6991</title>
<g id="a_node24"><a xlink:title="Function ID=6991 &#10; contains 12 duplicate subfunctions">
<ellipse fill="lightblue" stroke="lightblue" cx="553.5" cy="-382" rx="27" ry="18"/>
<text text-anchor="middle" x="553.5" y="-378.3" font-family="Times,serif" font-size="14.00">+</text>
</a>
</g>
</g>
<!-- f6991&#45;&gt;f6854 -->
<g id="edge16" class="edge">
<title>f6991&#45;&gt;f6854</title>
<g id="a_edge16"><a xlink:title="Function ID=6991 depends on function ID=6854">
<path fill="none" stroke="black" d="M553.01,-363.7C552.79,-355.98 552.52,-346.71 552.27,-338.11"/>
<polygon fill="black" stroke="black" points="555.77,-338 551.99,-328.1 548.78,-338.2 555.77,-338"/>
</a>
</g>
</g>
<!-- f6991&#45;&gt;f6990 -->
<g id="edge24" class="edge">
<title>f6991&#45;&gt;f6990</title>
<g id="a_edge24"><a xlink:title="Function ID=6991 depends on function ID=6990">
<path fill="none" stroke="black" d="M569.5,-367.17C581.03,-357.21 596.81,-343.57 609.93,-332.23"/>
<polygon fill="black" stroke="black" points="612.42,-334.71 617.69,-325.52 607.84,-329.41 612.42,-334.71"/>
</a>
</g>
</g>
<!-- f6416&#45;&gt;f2598 -->
<g id="edge17" class="edge">
<title>f6416&#45;&gt;f2598</title>
<g id="a_edge17"><a xlink:title="Function ID=6416 depends on function ID=2598">
<path fill="none" stroke="black" d="M344.43,-363.84C344.59,-324.52 346.76,-225.05 363.5,-144 365.32,-135.2 368.17,-125.85 371.07,-117.49"/>
<polygon fill="black" stroke="black" points="374.43,-118.48 374.57,-107.89 367.86,-116.09 374.43,-118.48"/>
</a>
</g>
</g>
<!-- f6864 -->
<g id="node26" class="node">
<title>f6864</title>
<g id="a_node26"><a xlink:title="Function ID=6864 &#10; contains 2 duplicate subfunctions">
<ellipse fill="lightblue" stroke="lightblue" cx="488.5" cy="-90" rx="27" ry="18"/>
<text text-anchor="middle" x="488.5" y="-86.3" font-family="Times,serif" font-size="14.00">*</text>
</a>
</g>
</g>
<!-- f6864&#45;&gt;f1 -->
<g id="edge35" class="edge">
<title>f6864&#45;&gt;f1</title>
<g id="a_edge35"><a xlink:title="Function ID=6864 depends on function ID=1">
<path fill="none" stroke="black" d="M495.14,-72.41C498.41,-64.22 502.44,-54.14 506.12,-44.95"/>
<polygon fill="black" stroke="black" points="509.45,-46.05 509.91,-35.47 502.95,-43.45 509.45,-46.05"/>
</a>
</g>
</g>
<!-- f6865 -->
<g id="node27" class="node">
<title>f6865</title>
<g id="a_node27"><a xlink:title="Function ID=6865 &#10; contains 3 duplicate subfunctions">
<ellipse fill="lightblue" stroke="lightblue" cx="487.5" cy="-163" rx="32.49" ry="18"/>
<text text-anchor="middle" x="487.5" y="-159.3" font-family="Times,serif" font-size="14.00">0.0 *</text>
</a>
</g>
</g>
<!-- f6865&#45;&gt;f6864 -->
<g id="edge26" class="edge">
<title>f6865&#45;&gt;f6864</title>
<g id="a_edge26"><a xlink:title="Function ID=6865 depends on function ID=6864">
<path fill="none" stroke="black" d="M487.74,-144.81C487.86,-136.79 487.99,-127.05 488.12,-118.07"/>
<polygon fill="black" stroke="black" points="491.62,-118.08 488.26,-108.03 484.62,-117.98 491.62,-118.08"/>
</a>
</g>
</g>
<!-- f6866 -->
<g id="node28" class="node">
<title>f6866</title>
<g id="a_node28"><a xlink:title="Function ID=6866 &#10; contains 7 duplicate subfunctions">
<ellipse fill="lightblue" stroke="lightblue" cx="479.5" cy="-237" rx="27" ry="18"/>
<text text-anchor="middle" x="479.5" y="-233.3" font-family="Times,serif" font-size="14.00">+</text>
</a>
</g>
</g>
<!-- f6866&#45;&gt;f6541 -->
<g id="edge38" class="edge">
<title>f6866&#45;&gt;f6541</title>
<g id="a_edge38"><a xlink:title="Function ID=6866 depends on function ID=6541">
<path fill="none" stroke="black" d="M464.68,-221.78C454.11,-211.62 439.68,-197.77 427.6,-186.17"/>
<polygon fill="black" stroke="black" points="429.7,-183.34 420.06,-178.94 424.85,-188.39 429.7,-183.34"/>
</a>
</g>
</g>
<!-- f6866&#45;&gt;f6865 -->
<g id="edge45" class="edge">
<title>f6866&#45;&gt;f6865</title>
<g id="a_edge45"><a xlink:title="Function ID=6866 depends on function ID=6865">
<path fill="none" stroke="black" d="M481.4,-218.94C482.31,-210.72 483.43,-200.66 484.45,-191.41"/>
<polygon fill="black" stroke="black" points="487.94,-191.77 485.56,-181.44 480.98,-190.99 487.94,-191.77"/>
</a>
</g>
</g>
<!-- f6807 -->
<g id="node29" class="node">
<title>f6807</title>
<g id="a_node29"><a xlink:title="Function ID=6807 &#10; contains 2 duplicate subfunctions">
<ellipse fill="lightblue" stroke="lightblue" cx="259.5" cy="-90" rx="27" ry="18"/>
<text text-anchor="middle" x="259.5" y="-86.3" font-family="Times,serif" font-size="14.00">*</text>
</a>
</g>
</g>
<!-- f6807&#45;&gt;f1 -->
<g id="edge12" class="edge">
<title>f6807&#45;&gt;f1</title>
<g id="a_edge12"><a xlink:title="Function ID=6807 depends on function ID=1">
<path fill="none" stroke="black" d="M284.14,-82.29C330.2,-69.74 429.41,-42.72 482.05,-28.38"/>
<polygon fill="black" stroke="black" points="483.2,-31.7 491.93,-25.69 481.36,-24.94 483.2,-31.7"/>
</a>
</g>
</g>
<!-- f6808 -->
<g id="node30" class="node">
<title>f6808</title>
<g id="a_node30"><a xlink:title="Function ID=6808 &#10; contains 3 duplicate subfunctions">
<ellipse fill="lightblue" stroke="lightblue" cx="195.5" cy="-163" rx="38.19" ry="18"/>
<text text-anchor="middle" x="195.5" y="-159.3" font-family="Times,serif" font-size="14.00">12.0 *</text>
</a>
</g>
</g>
<!-- f6808&#45;&gt;f6807 -->
<g id="edge40" class="edge">
<title>f6808&#45;&gt;f6807</title>
<g id="a_edge40"><a xlink:title="Function ID=6808 depends on function ID=6807">
<path fill="none" stroke="black" d="M209.7,-146.24C218.39,-136.61 229.64,-124.12 239.25,-113.46"/>
<polygon fill="black" stroke="black" points="242.11,-115.51 246.21,-105.74 236.91,-110.83 242.11,-115.51"/>
</a>
</g>
</g>
<!-- f6809 -->
<g id="node31" class="node">
<title>f6809</title>
<g id="a_node31"><a xlink:title="Function ID=6809 &#10; contains 7 duplicate subfunctions">
<ellipse fill="lightblue" stroke="lightblue" cx="195.5" cy="-237" rx="27" ry="18"/>
<text text-anchor="middle" x="195.5" y="-233.3" font-family="Times,serif" font-size="14.00">+</text>
</a>
</g>
</g>
<!-- f6809&#45;&gt;f6808 -->
<g id="edge22" class="edge">
<title>f6809&#45;&gt;f6808</title>
<g id="a_edge22"><a xlink:title="Function ID=6809 depends on function ID=6808">
<path fill="none" stroke="black" d="M195.5,-218.94C195.5,-210.81 195.5,-200.88 195.5,-191.7"/>
<polygon fill="black" stroke="black" points="199,-191.44 195.5,-181.44 192,-191.44 199,-191.44"/>
</a>
</g>
</g>
<!-- f6442 -->
<g id="node40" class="node">
<title>f6442</title>
<g id="a_node40"><a xlink:title="Function ID=6442 &#10; contains 2 duplicate subfunctions">
<ellipse fill="lightblue" stroke="lightblue" cx="284.5" cy="-163" rx="32.49" ry="18"/>
<text text-anchor="middle" x="284.5" y="-159.3" font-family="Times,serif" font-size="14.00">0.0 *</text>
</a>
</g>
</g>
<!-- f6809&#45;&gt;f6442 -->
<g id="edge34" class="edge">
<title>f6809&#45;&gt;f6442</title>
<g id="a_edge34"><a xlink:title="Function ID=6809 depends on function ID=6442">
<path fill="none" stroke="black" d="M212.24,-222.46C225.41,-211.8 243.98,-196.78 259,-184.63"/>
<polygon fill="black" stroke="black" points="261.35,-187.23 266.92,-178.22 256.95,-181.79 261.35,-187.23"/>
</a>
</g>
</g>
<!-- f3804 -->
<g id="node32" class="node">
<title>f3804</title>
<g id="a_node32"><a xlink:title="Function ID=3804 &#10; contains 0 duplicate subfunctions">
<ellipse fill="lightgreen" stroke="lightgreen" cx="557.5" cy="-602" rx="27" ry="18"/>
<text text-anchor="middle" x="557.5" y="-598.3" font-family="Times,serif" font-size="14.00">0.0</text>
</a>
</g>
</g>
<!-- f7008 -->
<g id="node33" class="node">
<title>f7008</title>
<g id="a_node33"><a xlink:title="Function ID=7008 &#10; contains 21 duplicate subfunctions">
<ellipse fill="lightblue" stroke="lightblue" cx="553.5" cy="-455" rx="27" ry="18"/>
<text text-anchor="middle" x="553.5" y="-451.3" font-family="Times,serif" font-size="14.00">+</text>
</a>
</g>
</g>
<!-- f7008&#45;&gt;f6991 -->
<g id="edge32" class="edge">
<title>f7008&#45;&gt;f6991</title>
<g id="a_edge32"><a xlink:title="Function ID=7008 depends on function ID=6991">
<path fill="none" stroke="black" d="M553.5,-436.81C553.5,-428.79 553.5,-419.05 553.5,-410.07"/>
<polygon fill="black" stroke="black" points="557,-410.03 553.5,-400.03 550,-410.03 557,-410.03"/>
</a>
</g>
</g>
<!-- f7008&#45;&gt;f6866 -->
<g id="edge33" class="edge">
<title>f7008&#45;&gt;f6866</title>
<g id="a_edge33"><a xlink:title="Function ID=7008 depends on function ID=6866">
<path fill="none" stroke="black" d="M541.2,-438.8C533.38,-428.42 523.6,-414.06 517.5,-400 497.98,-355 487.64,-298.42 482.88,-265.42"/>
<polygon fill="black" stroke="black" points="486.31,-264.62 481.48,-255.19 479.37,-265.57 486.31,-264.62"/>
</a>
</g>
</g>
<!-- f7009 -->
<g id="node34" class="node">
<title>f7009</title>
<g id="a_node34"><a xlink:title="Function ID=7009 &#10; contains 22 duplicate subfunctions">
<ellipse fill="lightblue" stroke="lightblue" cx="562.5" cy="-529" rx="32.49" ry="18"/>
<text text-anchor="middle" x="562.5" y="-525.3" font-family="Times,serif" font-size="14.00">5.0 *</text>
</a>
</g>
</g>
<!-- f7009&#45;&gt;f7008 -->
<g id="edge23" class="edge">
<title>f7009&#45;&gt;f7008</title>
<g id="a_edge23"><a xlink:title="Function ID=7009 depends on function ID=7008">
<path fill="none" stroke="black" d="M560.37,-510.94C559.34,-502.72 558.08,-492.66 556.93,-483.41"/>
<polygon fill="black" stroke="black" points="560.39,-482.93 555.68,-473.44 553.45,-483.8 560.39,-482.93"/>
</a>
</g>
</g>
<!-- f2594&#45;&gt;f1 -->
<g id="edge28" class="edge">
<title>f2594&#45;&gt;f1</title>
<g id="a_edge28"><a xlink:title="Function ID=2594 depends on function ID=1">
<path fill="none" stroke="black" d="M734.61,-78.18C729.36,-75.99 723.78,-73.81 718.5,-72 661.22,-52.43 592.73,-35.84 552.02,-26.67"/>
<polygon fill="black" stroke="black" points="552.57,-23.21 542.04,-24.45 551.04,-30.04 552.57,-23.21"/>
</a>
</g>
</g>
<!-- f6818 -->
<g id="node36" class="node">
<title>f6818</title>
<g id="a_node36"><a xlink:title="Function ID=6818 &#10; contains 8 duplicate subfunctions">
<ellipse fill="lightblue" stroke="lightblue" cx="187.5" cy="-310" rx="32.49" ry="18"/>
<text text-anchor="middle" x="187.5" y="-306.3" font-family="Times,serif" font-size="14.00">5.0 *</text>
</a>
</g>
</g>
<!-- f6818&#45;&gt;f6809 -->
<g id="edge36" class="edge">
<title>f6818&#45;&gt;f6809</title>
<g id="a_edge36"><a xlink:title="Function ID=6818 depends on function ID=6809">
<path fill="none" stroke="black" d="M189.44,-291.81C190.34,-283.79 191.44,-274.05 192.45,-265.07"/>
<polygon fill="black" stroke="black" points="195.94,-265.36 193.58,-255.03 188.98,-264.57 195.94,-265.36"/>
</a>
</g>
</g>
<!-- f7010 -->
<g id="node37" class="node">
<title>f7010</title>
<g id="a_node37"><a xlink:title="Function ID=7010 &#10; contains 24 duplicate subfunctions">
<ellipse fill="lightblue" stroke="lightblue" cx="485.5" cy="-602" rx="27" ry="18"/>
<text text-anchor="middle" x="485.5" y="-598.3" font-family="Times,serif" font-size="14.00">+</text>
</a>
</g>
</g>
<!-- f7010&#45;&gt;f3782 -->
<g id="edge30" class="edge">
<title>f7010&#45;&gt;f3782</title>
<g id="a_edge30"><a xlink:title="Function ID=7010 depends on function ID=3782">
<path fill="none" stroke="black" d="M485.5,-583.81C485.5,-575.79 485.5,-566.05 485.5,-557.07"/>
<polygon fill="black" stroke="black" points="489,-557.03 485.5,-547.03 482,-557.03 489,-557.03"/>
</a>
</g>
</g>
<!-- f7010&#45;&gt;f7009 -->
<g id="edge42" class="edge">
<title>f7010&#45;&gt;f7009</title>
<g id="a_edge42"><a xlink:title="Function ID=7010 depends on function ID=7009">
<path fill="none" stroke="black" d="M500.71,-586.97C511.67,-576.87 526.67,-563.04 539.14,-551.54"/>
<polygon fill="black" stroke="black" points="541.54,-554.08 546.52,-544.73 536.8,-548.94 541.54,-554.08"/>
</a>
</g>
</g>
<!-- f6819&#45;&gt;f3722 -->
<g id="edge9" class="edge">
<title>f6819&#45;&gt;f3722</title>
<g id="a_edge9"><a xlink:title="Function ID=6819 depends on function ID=3722">
<path fill="none" stroke="black" d="M109.5,-363.7C109.5,-355.98 109.5,-346.71 109.5,-338.11"/>
<polygon fill="black" stroke="black" points="113,-338.1 109.5,-328.1 106,-338.1 113,-338.1"/>
</a>
</g>
</g>
<!-- f6819&#45;&gt;f6818 -->
<g id="edge21" class="edge">
<title>f6819&#45;&gt;f6818</title>
<g id="a_edge21"><a xlink:title="Function ID=6819 depends on function ID=6818">
<path fill="none" stroke="black" d="M124.91,-367.17C135.94,-357.27 151,-343.75 163.59,-332.46"/>
<polygon fill="black" stroke="black" points="165.94,-335.05 171.04,-325.77 161.26,-329.84 165.94,-335.05"/>
</a>
</g>
</g>
<!-- f2598&#45;&gt;f1 -->
<g id="edge19" class="edge">
<title>f2598&#45;&gt;f1</title>
<g id="a_edge19"><a xlink:title="Function ID=2598 depends on function ID=1">
<path fill="none" stroke="black" d="M404.1,-77.28C426.73,-65.55 461.68,-47.43 486.6,-34.51"/>
<polygon fill="black" stroke="black" points="488.34,-37.54 495.61,-29.83 485.12,-31.33 488.34,-37.54"/>
</a>
</g>
</g>
<!-- f6442&#45;&gt;f2598 -->
<g id="edge48" class="edge">
<title>f6442&#45;&gt;f2598</title>
<g id="a_edge48"><a xlink:title="Function ID=6442 depends on function ID=2598">
<path fill="none" stroke="black" d="M303.66,-147.97C318.2,-137.33 338.36,-122.57 354.53,-110.74"/>
<polygon fill="black" stroke="black" points="357.03,-113.25 363.03,-104.52 352.9,-107.6 357.03,-113.25"/>
</a>
</g>
</g>
<!-- f7019&#45;&gt;f3804 -->
<g id="edge14" class="edge">
<title>f7019&#45;&gt;f3804</title>
<g id="a_edge14"><a xlink:title="Function ID=7019 depends on function ID=3804">
<path fill="none" stroke="black" d="M500.07,-658.83C510.25,-648.94 524.02,-635.55 535.53,-624.36"/>
<polygon fill="black" stroke="black" points="537.97,-626.87 542.7,-617.38 533.09,-621.85 537.97,-626.87"/>
</a>
</g>
</g>
<!-- f7019&#45;&gt;f7010 -->
<g id="edge15" class="edge">
<title>f7019&#45;&gt;f7010</title>
<g id="a_edge15"><a xlink:title="Function ID=7019 depends on function ID=7010">
<path fill="none" stroke="black" d="M485.5,-655.7C485.5,-647.98 485.5,-638.71 485.5,-630.11"/>
<polygon fill="black" stroke="black" points="489,-630.1 485.5,-620.1 482,-630.1 489,-630.1"/>
</a>
</g>
</g>
<!-- f6841 -->
<g id="node42" class="node">
<title>f6841</title>
<g id="a_node42"><a xlink:title="Function ID=6841 &#10; contains 2 duplicate subfunctions">
<ellipse fill="lightblue" stroke="lightblue" cx="682.5" cy="-90" rx="27" ry="18"/>
<text text-anchor="middle" x="682.5" y="-86.3" font-family="Times,serif" font-size="14.00">*</text>
</a>
</g>
</g>
<!-- f6841&#45;&gt;f1 -->
<g id="edge31" class="edge">
<title>f6841&#45;&gt;f1</title>
<g id="a_edge31"><a xlink:title="Function ID=6841 depends on function ID=1">
<path fill="none" stroke="black" d="M661.27,-78.74C656.44,-76.47 651.31,-74.11 646.5,-72 613.46,-57.48 575.15,-42.02 548.71,-31.57"/>
<polygon fill="black" stroke="black" points="549.79,-28.23 539.2,-27.82 547.22,-34.75 549.79,-28.23"/>
</a>
</g>
</g>
<!-- f6842&#45;&gt;f6841 -->
<g id="edge43" class="edge">
<title>f6842&#45;&gt;f6841</title>
<g id="a_edge43"><a xlink:title="Function ID=6842 depends on function ID=6841">
<path fill="none" stroke="black" d="M675.68,-144.81C676.7,-136.79 677.93,-127.05 679.07,-118.07"/>
<polygon fill="black" stroke="black" points="682.56,-118.39 680.34,-108.03 675.61,-117.51 682.56,-118.39"/>
</a>
</g>
</g>
</g>
</svg>
