<?xml version="1.0" encoding="UTF-8" standalone="no"?>
<!DOCTYPE svg PUBLIC "-//W3C//DTD SVG 1.1//EN"
 "http://www.w3.org/Graphics/SVG/1.1/DTD/svg11.dtd">
<!-- Generated by graphviz version 2.43.0 (0)
 -->
<!-- Title: %3 Pages: 1 -->
<svg width="519pt" height="408pt"
 viewBox="0.00 0.00 519.00 408.00" xmlns="http://www.w3.org/2000/svg" xmlns:xlink="http://www.w3.org/1999/xlink">
<g id="graph0" class="graph" transform="scale(1 1) rotate(0) translate(4 404)">
<title>%3</title>
<g id="a_graph0"><a xlink:title="Hey! Notice that red nodes are clickable and &#10; tooltips contain additional information!">
<polygon fill="white" stroke="transparent" points="-4,4 -4,-404 515,-404 515,4 -4,4"/>
</a>
</g>
<!-- function0 -->
<g id="node1" class="node">
<title>function0</title>
<g id="a_node1"><a xlink:href="inspected-f105-optimized-0.svg" xlink:title="original function &#10; contains 3 duplicate subfunctions &#10; contains 3 unique subfunctions &#10; (and is clickable)">
<path fill="red" stroke="red" d="M127,-254C127,-254 12,-254 12,-254 6,-254 0,-248 0,-242 0,-242 0,-228 0,-228 0,-222 6,-216 12,-216 12,-216 127,-216 127,-216 133,-216 139,-222 139,-228 139,-228 139,-242 139,-242 139,-248 133,-254 127,-254"/>
<text text-anchor="middle" x="69.5" y="-238.8" font-family="Times,serif" font-size="14.00">(2.0) ** (Sin(X)) </text>
<text text-anchor="middle" x="69.5" y="-223.8" font-family="Times,serif" font-size="14.00"> original function</text>
</a>
</g>
</g>
<!-- f105 -->
<g id="node2" class="node">
<title>f105</title>
<g id="a_node2"><a xlink:title="Function ID=105 &#10; contains 2 duplicate subfunctions">
<ellipse fill="lightblue" stroke="lightblue" cx="69.5" cy="-162" rx="40.09" ry="18"/>
<text text-anchor="middle" x="69.5" y="-158.3" font-family="Times,serif" font-size="14.00">2.0 ** </text>
</a>
</g>
</g>
<!-- function0&#45;&gt;f105 -->
<g id="edge1" class="edge">
<title>function0&#45;&gt;f105</title>
<path fill="none" stroke="black" d="M69.5,-215.72C69.5,-207.97 69.5,-198.79 69.5,-190.27"/>
<polygon fill="black" stroke="black" points="73,-190 69.5,-180 66,-190 73,-190"/>
</g>
<!-- f3 -->
<g id="node7" class="node">
<title>f3</title>
<g id="a_node7"><a xlink:title="Function ID=3 &#10; contains 1 duplicate subfunctions">
<ellipse fill="lightblue" stroke="lightblue" cx="406.5" cy="-90" rx="27" ry="18"/>
<text text-anchor="middle" x="406.5" y="-86.3" font-family="Times,serif" font-size="14.00">Sin</text>
</a>
</g>
</g>
<!-- f105&#45;&gt;f3 -->
<g id="edge6" class="edge">
<title>f105&#45;&gt;f3</title>
<g id="a_edge6"><a xlink:title="Function ID=105 depends on function ID=3">
<path fill="none" stroke="black" d="M99.34,-149.84C105.61,-147.72 112.23,-145.65 118.5,-144 207.63,-120.48 314.98,-103.69 370.02,-95.9"/>
<polygon fill="black" stroke="black" points="370.58,-99.35 380,-94.5 369.61,-92.42 370.58,-99.35"/>
</a>
</g>
</g>
<!-- function1 -->
<g id="node3" class="node">
<title>function1</title>
<g id="a_node3"><a xlink:href="inspected-f105-optimized-1.svg" xlink:title="1st derivative function &#10; contains 8 duplicate subfunctions &#10; contains 7 unique subfunctions &#10; (and is clickable)">
<path fill="red" stroke="red" d="M499,-400C499,-400 392,-400 392,-400 386,-400 380,-394 380,-388 380,-388 380,-374 380,-374 380,-368 386,-362 392,-362 392,-362 499,-362 499,-362 505,-362 511,-368 511,-374 511,-374 511,-388 511,-388 511,-394 505,-400 499,-400"/>
<text text-anchor="middle" x="445.5" y="-384.8" font-family="Times,serif" font-size="14.00">(2.0) ** (Sin(X)) </text>
<text text-anchor="middle" x="445.5" y="-369.8" font-family="Times,serif" font-size="14.00"> 1st derivative</text>
</a>
</g>
</g>
<!-- f196 -->
<g id="node4" class="node">
<title>f196</title>
<g id="a_node4"><a xlink:title="Function ID=196 &#10; contains 7 duplicate subfunctions">
<ellipse fill="lightblue" stroke="lightblue" cx="445.5" cy="-308" rx="27" ry="18"/>
<text text-anchor="middle" x="445.5" y="-304.3" font-family="Times,serif" font-size="14.00">*</text>
</a>
</g>
</g>
<!-- function1&#45;&gt;f196 -->
<g id="edge2" class="edge">
<title>function1&#45;&gt;f196</title>
<path fill="none" stroke="black" d="M445.5,-361.72C445.5,-353.97 445.5,-344.79 445.5,-336.27"/>
<polygon fill="black" stroke="black" points="449,-336 445.5,-326 442,-336 449,-336"/>
</g>
<!-- f195 -->
<g id="node8" class="node">
<title>f195</title>
<g id="a_node8"><a xlink:title="Function ID=195 &#10; contains 4 duplicate subfunctions">
<ellipse fill="lightblue" stroke="lightblue" cx="411.5" cy="-235" rx="27" ry="18"/>
<text text-anchor="middle" x="411.5" y="-231.3" font-family="Times,serif" font-size="14.00">*</text>
</a>
</g>
</g>
<!-- f196&#45;&gt;f195 -->
<g id="edge9" class="edge">
<title>f196&#45;&gt;f195</title>
<g id="a_edge9"><a xlink:title="Function ID=196 depends on function ID=195">
<path fill="none" stroke="black" d="M437.61,-290.53C433.49,-281.93 428.36,-271.21 423.74,-261.56"/>
<polygon fill="black" stroke="black" points="426.82,-259.89 419.34,-252.38 420.51,-262.91 426.82,-259.89"/>
</a>
</g>
</g>
<!-- f4 -->
<g id="node9" class="node">
<title>f4</title>
<g id="a_node9"><a xlink:title="Function ID=4 &#10; contains 1 duplicate subfunctions">
<ellipse fill="lightblue" stroke="lightblue" cx="479.5" cy="-90" rx="27.9" ry="18"/>
<text text-anchor="middle" x="479.5" y="-86.3" font-family="Times,serif" font-size="14.00">Cos</text>
</a>
</g>
</g>
<!-- f196&#45;&gt;f4 -->
<g id="edge3" class="edge">
<title>f196&#45;&gt;f4</title>
<g id="a_edge3"><a xlink:title="Function ID=196 depends on function ID=4">
<path fill="none" stroke="black" d="M448.17,-290.05C454.04,-252.76 468.11,-163.34 475.23,-118.14"/>
<polygon fill="black" stroke="black" points="478.7,-118.59 476.8,-108.17 471.78,-117.5 478.7,-118.59"/>
</a>
</g>
</g>
<!-- f1 -->
<g id="node5" class="node">
<title>f1</title>
<g id="a_node5"><a xlink:title="Function ID=1 &#10; contains 0 duplicate subfunctions">
<ellipse fill="lightgreen" stroke="lightgreen" cx="442.5" cy="-18" rx="27" ry="18"/>
<text text-anchor="middle" x="442.5" y="-14.3" font-family="Times,serif" font-size="14.00">X</text>
</a>
</g>
</g>
<!-- f194 -->
<g id="node6" class="node">
<title>f194</title>
<g id="a_node6"><a xlink:title="Function ID=194 &#10; contains 0 duplicate subfunctions">
<ellipse fill="lightgreen" stroke="lightgreen" cx="240.5" cy="-162" rx="113.18" ry="18"/>
<text text-anchor="middle" x="240.5" y="-158.3" font-family="Times,serif" font-size="14.00">0.6931471805599453</text>
</a>
</g>
</g>
<!-- f3&#45;&gt;f1 -->
<g id="edge8" class="edge">
<title>f3&#45;&gt;f1</title>
<g id="a_edge8"><a xlink:title="Function ID=3 depends on function ID=1">
<path fill="none" stroke="black" d="M414.85,-72.76C419.21,-64.28 424.65,-53.71 429.54,-44.2"/>
<polygon fill="black" stroke="black" points="432.73,-45.64 434.2,-35.15 426.51,-42.44 432.73,-45.64"/>
</a>
</g>
</g>
<!-- f195&#45;&gt;f194 -->
<g id="edge10" class="edge">
<title>f195&#45;&gt;f194</title>
<g id="a_edge10"><a xlink:title="Function ID=195 depends on function ID=194">
<path fill="none" stroke="black" d="M389.14,-224.72C363.68,-214.15 321.34,-196.57 288.35,-182.87"/>
<polygon fill="black" stroke="black" points="289.46,-179.54 278.88,-178.94 286.77,-186 289.46,-179.54"/>
</a>
</g>
</g>
<!-- f106 -->
<g id="node10" class="node">
<title>f106</title>
<g id="a_node10"><a xlink:title="Function ID=106 &#10; contains 2 duplicate subfunctions">
<ellipse fill="lightblue" stroke="lightblue" cx="411.5" cy="-162" rx="40.09" ry="18"/>
<text text-anchor="middle" x="411.5" y="-158.3" font-family="Times,serif" font-size="14.00">2.0 ** </text>
</a>
</g>
</g>
<!-- f195&#45;&gt;f106 -->
<g id="edge4" class="edge">
<title>f195&#45;&gt;f106</title>
<g id="a_edge4"><a xlink:title="Function ID=195 depends on function ID=106">
<path fill="none" stroke="black" d="M411.5,-216.81C411.5,-208.79 411.5,-199.05 411.5,-190.07"/>
<polygon fill="black" stroke="black" points="415,-190.03 411.5,-180.03 408,-190.03 415,-190.03"/>
</a>
</g>
</g>
<!-- f4&#45;&gt;f1 -->
<g id="edge7" class="edge">
<title>f4&#45;&gt;f1</title>
<g id="a_edge7"><a xlink:title="Function ID=4 depends on function ID=1">
<path fill="none" stroke="black" d="M470.92,-72.76C466.44,-64.28 460.85,-53.71 455.82,-44.2"/>
<polygon fill="black" stroke="black" points="458.8,-42.35 451.04,-35.15 452.61,-45.62 458.8,-42.35"/>
</a>
</g>
</g>
<!-- f106&#45;&gt;f3 -->
<g id="edge5" class="edge">
<title>f106&#45;&gt;f3</title>
<g id="a_edge5"><a xlink:title="Function ID=106 depends on function ID=3">
<path fill="none" stroke="black" d="M410.26,-143.7C409.71,-135.98 409.05,-126.71 408.44,-118.11"/>
<polygon fill="black" stroke="black" points="411.93,-117.83 407.72,-108.1 404.94,-118.33 411.93,-117.83"/>
</a>
</g>
</g>
</g>
</svg>
