<?xml version="1.0" encoding="UTF-8" standalone="no"?>
<!DOCTYPE svg PUBLIC "-//W3C//DTD SVG 1.1//EN"
 "http://www.w3.org/Graphics/SVG/1.1/DTD/svg11.dtd">
<!-- Generated by graphviz version 2.43.0 (0)
 -->
<!-- Title: %3 Pages: 1 -->
<svg width="933pt" height="916pt"
 viewBox="0.00 0.00 932.95 916.00" xmlns="http://www.w3.org/2000/svg" xmlns:xlink="http://www.w3.org/1999/xlink">
<g id="graph0" class="graph" transform="scale(1 1) rotate(0) translate(4 912)">
<title>%3</title>
<g id="a_graph0"><a xlink:title="Hey! Notice that red nodes are clickable and &#10; tooltips contain additional information!">
<polygon fill="white" stroke="transparent" points="-4,4 -4,-912 928.95,-912 928.95,4 -4,4"/>
</a>
</g>
<!-- function0 -->
<g id="node1" class="node">
<title>function0</title>
<g id="a_node1"><a xlink:href="inspected-f7089-graph-0.svg" xlink:title="original function &#10; contains 6 duplicate subfunctions &#10; contains 5 unique subfunctions &#10; (and is clickable)">
<path fill="red" stroke="red" d="M395,-326C395,-326 159,-326 159,-326 153,-326 147,-320 147,-314 147,-314 147,-300 147,-300 147,-294 153,-288 159,-288 159,-288 395,-288 395,-288 401,-288 407,-294 407,-300 407,-300 407,-314 407,-314 407,-320 401,-326 395,-326"/>
<text text-anchor="middle" x="277" y="-310.8" font-family="Times,serif" font-size="14.00">((X) ** (3.0)) + ((100.0) * (Sin(X))) </text>
<text text-anchor="middle" x="277" y="-295.8" font-family="Times,serif" font-size="14.00"> original function</text>
</a>
</g>
</g>
<!-- f7089 -->
<g id="node2" class="node">
<title>f7089</title>
<g id="a_node2"><a xlink:title="Function ID=7089 &#10; contains 5 duplicate subfunctions">
<ellipse fill="lightblue" stroke="lightblue" cx="281" cy="-234" rx="27" ry="18"/>
<text text-anchor="middle" x="281" y="-230.3" font-family="Times,serif" font-size="14.00">+</text>
</a>
</g>
</g>
<!-- function0&#45;&gt;f7089 -->
<g id="edge1" class="edge">
<title>function0&#45;&gt;f7089</title>
<path fill="none" stroke="black" d="M278.03,-287.72C278.47,-279.89 279,-270.59 279.48,-261.99"/>
<polygon fill="black" stroke="black" points="282.97,-262.18 280.04,-252 275.99,-261.79 282.97,-262.18"/>
</g>
<!-- f7087 -->
<g id="node12" class="node">
<title>f7087</title>
<g id="a_node12"><a xlink:title="Function ID=7087 &#10; contains 1 duplicate subfunctions">
<ellipse fill="lightblue" stroke="lightblue" cx="388" cy="-162" rx="31.4" ry="18"/>
<text text-anchor="middle" x="388" y="-158.3" font-family="Times,serif" font-size="14.00"> ** 3</text>
</a>
</g>
</g>
<!-- f7089&#45;&gt;f7087 -->
<g id="edge20" class="edge">
<title>f7089&#45;&gt;f7087</title>
<g id="a_edge20"><a xlink:title="Function ID=7089 depends on function ID=7087">
<path fill="none" stroke="black" d="M299.64,-220.81C316.18,-209.99 340.59,-194.01 359.57,-181.6"/>
<polygon fill="black" stroke="black" points="361.67,-184.41 368.12,-176 357.84,-178.55 361.67,-184.41"/>
</a>
</g>
</g>
<!-- f7088 -->
<g id="node13" class="node">
<title>f7088</title>
<g id="a_node13"><a xlink:title="Function ID=7088 &#10; contains 2 duplicate subfunctions">
<ellipse fill="lightblue" stroke="lightblue" cx="281" cy="-162" rx="44.39" ry="18"/>
<text text-anchor="middle" x="281" y="-158.3" font-family="Times,serif" font-size="14.00">100.0 *</text>
</a>
</g>
</g>
<!-- f7089&#45;&gt;f7088 -->
<g id="edge10" class="edge">
<title>f7089&#45;&gt;f7088</title>
<g id="a_edge10"><a xlink:title="Function ID=7089 depends on function ID=7088">
<path fill="none" stroke="black" d="M281,-215.7C281,-207.98 281,-198.71 281,-190.11"/>
<polygon fill="black" stroke="black" points="284.5,-190.1 281,-180.1 277.5,-190.1 284.5,-190.1"/>
</a>
</g>
</g>
<!-- function1 -->
<g id="node3" class="node">
<title>function1</title>
<g id="a_node3"><a xlink:href="inspected-f7089-graph-1.svg" xlink:title="1st derivative function &#10; contains 9 duplicate subfunctions &#10; contains 8 unique subfunctions &#10; (and is clickable)">
<path fill="red" stroke="red" d="M632,-688C632,-688 396,-688 396,-688 390,-688 384,-682 384,-676 384,-676 384,-662 384,-662 384,-656 390,-650 396,-650 396,-650 632,-650 632,-650 638,-650 644,-656 644,-662 644,-662 644,-676 644,-676 644,-682 638,-688 632,-688"/>
<text text-anchor="middle" x="514" y="-672.8" font-family="Times,serif" font-size="14.00">((X) ** (3.0)) + ((100.0) * (Sin(X))) </text>
<text text-anchor="middle" x="514" y="-657.8" font-family="Times,serif" font-size="14.00"> 1st derivative</text>
</a>
</g>
</g>
<!-- f7095 -->
<g id="node4" class="node">
<title>f7095</title>
<g id="a_node4"><a xlink:title="Function ID=7095 &#10; contains 8 duplicate subfunctions">
<ellipse fill="lightblue" stroke="lightblue" cx="514" cy="-596" rx="27" ry="18"/>
<text text-anchor="middle" x="514" y="-592.3" font-family="Times,serif" font-size="14.00">+</text>
</a>
</g>
</g>
<!-- function1&#45;&gt;f7095 -->
<g id="edge2" class="edge">
<title>function1&#45;&gt;f7095</title>
<path fill="none" stroke="black" d="M514,-649.72C514,-641.97 514,-632.79 514,-624.27"/>
<polygon fill="black" stroke="black" points="517.5,-624 514,-614 510.5,-624 517.5,-624"/>
</g>
<!-- f7093 -->
<g id="node17" class="node">
<title>f7093</title>
<g id="a_node17"><a xlink:title="Function ID=7093 &#10; contains 4 duplicate subfunctions">
<ellipse fill="lightblue" stroke="lightblue" cx="475" cy="-524" rx="27" ry="18"/>
<text text-anchor="middle" x="475" y="-520.3" font-family="Times,serif" font-size="14.00">*</text>
</a>
</g>
</g>
<!-- f7095&#45;&gt;f7093 -->
<g id="edge51" class="edge">
<title>f7095&#45;&gt;f7093</title>
<g id="a_edge51"><a xlink:title="Function ID=7095 depends on function ID=7093">
<path fill="none" stroke="black" d="M504.95,-578.76C500.18,-570.19 494.22,-559.49 488.87,-549.9"/>
<polygon fill="black" stroke="black" points="491.92,-548.18 484,-541.15 485.81,-551.59 491.92,-548.18"/>
</a>
</g>
</g>
<!-- f7094 -->
<g id="node18" class="node">
<title>f7094</title>
<g id="a_node18"><a xlink:title="Function ID=7094 &#10; contains 2 duplicate subfunctions">
<ellipse fill="lightblue" stroke="lightblue" cx="828" cy="-524" rx="44.39" ry="18"/>
<text text-anchor="middle" x="828" y="-520.3" font-family="Times,serif" font-size="14.00">100.0 *</text>
</a>
</g>
</g>
<!-- f7095&#45;&gt;f7094 -->
<g id="edge42" class="edge">
<title>f7095&#45;&gt;f7094</title>
<g id="a_edge42"><a xlink:title="Function ID=7095 depends on function ID=7094">
<path fill="none" stroke="black" d="M540.15,-590.67C587.4,-582.64 690,-564.19 775,-542 778.37,-541.12 781.85,-540.15 785.33,-539.13"/>
<polygon fill="black" stroke="black" points="786.53,-542.43 795.09,-536.18 784.5,-535.73 786.53,-542.43"/>
</a>
</g>
</g>
<!-- function2 -->
<g id="node5" class="node">
<title>function2</title>
<g id="a_node5"><a xlink:href="inspected-f7089-graph-2.svg" xlink:title="2nd derivative function &#10; contains 19 duplicate subfunctions &#10; contains 17 unique subfunctions &#10; (and is clickable)">
<path fill="red" stroke="red" d="M248,-762C248,-762 12,-762 12,-762 6,-762 0,-756 0,-750 0,-750 0,-736 0,-736 0,-730 6,-724 12,-724 12,-724 248,-724 248,-724 254,-724 260,-730 260,-736 260,-736 260,-750 260,-750 260,-756 254,-762 248,-762"/>
<text text-anchor="middle" x="130" y="-746.8" font-family="Times,serif" font-size="14.00">((X) ** (3.0)) + ((100.0) * (Sin(X))) </text>
<text text-anchor="middle" x="130" y="-731.8" font-family="Times,serif" font-size="14.00"> 2nd derivative</text>
</a>
</g>
</g>
<!-- f7107 -->
<g id="node6" class="node">
<title>f7107</title>
<g id="a_node6"><a xlink:title="Function ID=7107 &#10; contains 18 duplicate subfunctions">
<ellipse fill="lightblue" stroke="lightblue" cx="130" cy="-669" rx="27" ry="18"/>
<text text-anchor="middle" x="130" y="-665.3" font-family="Times,serif" font-size="14.00">+</text>
</a>
</g>
</g>
<!-- function2&#45;&gt;f7107 -->
<g id="edge3" class="edge">
<title>function2&#45;&gt;f7107</title>
<path fill="none" stroke="black" d="M130,-723.83C130,-715.89 130,-706.41 130,-697.63"/>
<polygon fill="black" stroke="black" points="133.5,-697.42 130,-687.42 126.5,-697.42 133.5,-697.42"/>
</g>
<!-- f7104 -->
<g id="node27" class="node">
<title>f7104</title>
<g id="a_node27"><a xlink:title="Function ID=7104 &#10; contains 13 duplicate subfunctions">
<ellipse fill="lightblue" stroke="lightblue" cx="362" cy="-596" rx="27" ry="18"/>
<text text-anchor="middle" x="362" y="-592.3" font-family="Times,serif" font-size="14.00">+</text>
</a>
</g>
</g>
<!-- f7107&#45;&gt;f7104 -->
<g id="edge55" class="edge">
<title>f7107&#45;&gt;f7104</title>
<g id="a_edge55"><a xlink:title="Function ID=7107 depends on function ID=7104">
<path fill="none" stroke="black" d="M155.5,-662.46C193.33,-653.91 266.26,-636.15 326,-614 327.85,-613.32 329.73,-612.57 331.62,-611.79"/>
<polygon fill="black" stroke="black" points="333.2,-614.92 340.94,-607.69 330.38,-608.51 333.2,-614.92"/>
</a>
</g>
</g>
<!-- f7106 -->
<g id="node29" class="node">
<title>f7106</title>
<g id="a_node29"><a xlink:title="Function ID=7106 &#10; contains 3 duplicate subfunctions">
<ellipse fill="lightblue" stroke="lightblue" cx="113" cy="-596" rx="44.39" ry="18"/>
<text text-anchor="middle" x="113" y="-592.3" font-family="Times,serif" font-size="14.00">100.0 *</text>
</a>
</g>
</g>
<!-- f7107&#45;&gt;f7106 -->
<g id="edge45" class="edge">
<title>f7107&#45;&gt;f7106</title>
<g id="a_edge45"><a xlink:title="Function ID=7107 depends on function ID=7106">
<path fill="none" stroke="black" d="M125.97,-651.17C124.03,-643.07 121.66,-633.15 119.47,-624.03"/>
<polygon fill="black" stroke="black" points="122.85,-623.11 117.12,-614.2 116.04,-624.74 122.85,-623.11"/>
</a>
</g>
</g>
<!-- function3 -->
<g id="node7" class="node">
<title>function3</title>
<g id="a_node7"><a xlink:href="inspected-f7089-graph-3.svg" xlink:title="3rd derivative function &#10; contains 46 duplicate subfunctions &#10; contains 38 unique subfunctions &#10; (and is clickable)">
<path fill="red" stroke="red" d="M894,-908C894,-908 658,-908 658,-908 652,-908 646,-902 646,-896 646,-896 646,-882 646,-882 646,-876 652,-870 658,-870 658,-870 894,-870 894,-870 900,-870 906,-876 906,-882 906,-882 906,-896 906,-896 906,-902 900,-908 894,-908"/>
<text text-anchor="middle" x="776" y="-892.8" font-family="Times,serif" font-size="14.00">((X) ** (3.0)) + ((100.0) * (Sin(X))) </text>
<text text-anchor="middle" x="776" y="-877.8" font-family="Times,serif" font-size="14.00"> 3rd derivative</text>
</a>
</g>
</g>
<!-- f7134 -->
<g id="node8" class="node">
<title>f7134</title>
<g id="a_node8"><a xlink:title="Function ID=7134 &#10; contains 45 duplicate subfunctions">
<ellipse fill="lightblue" stroke="lightblue" cx="776" cy="-816" rx="27" ry="18"/>
<text text-anchor="middle" x="776" y="-812.3" font-family="Times,serif" font-size="14.00">+</text>
</a>
</g>
</g>
<!-- function3&#45;&gt;f7134 -->
<g id="edge4" class="edge">
<title>function3&#45;&gt;f7134</title>
<path fill="none" stroke="black" d="M776,-869.72C776,-861.97 776,-852.79 776,-844.27"/>
<polygon fill="black" stroke="black" points="779.5,-844 776,-834 772.5,-844 779.5,-844"/>
</g>
<!-- f7131 -->
<g id="node53" class="node">
<title>f7131</title>
<g id="a_node53"><a xlink:title="Function ID=7131 &#10; contains 40 duplicate subfunctions">
<ellipse fill="lightblue" stroke="lightblue" cx="695" cy="-743" rx="27" ry="18"/>
<text text-anchor="middle" x="695" y="-739.3" font-family="Times,serif" font-size="14.00">+</text>
</a>
</g>
</g>
<!-- f7134&#45;&gt;f7131 -->
<g id="edge32" class="edge">
<title>f7134&#45;&gt;f7131</title>
<g id="a_edge32"><a xlink:title="Function ID=7134 depends on function ID=7131">
<path fill="none" stroke="black" d="M760.38,-801.31C748.47,-790.87 731.87,-776.31 718.37,-764.49"/>
<polygon fill="black" stroke="black" points="720.67,-761.85 710.85,-757.89 716.06,-767.11 720.67,-761.85"/>
</a>
</g>
</g>
<!-- f7133 -->
<g id="node55" class="node">
<title>f7133</title>
<g id="a_node55"><a xlink:title="Function ID=7133 &#10; contains 3 duplicate subfunctions">
<ellipse fill="lightblue" stroke="lightblue" cx="858" cy="-743" rx="44.39" ry="18"/>
<text text-anchor="middle" x="858" y="-739.3" font-family="Times,serif" font-size="14.00">100.0 *</text>
</a>
</g>
</g>
<!-- f7134&#45;&gt;f7133 -->
<g id="edge31" class="edge">
<title>f7134&#45;&gt;f7133</title>
<g id="a_edge31"><a xlink:title="Function ID=7134 depends on function ID=7133">
<path fill="none" stroke="black" d="M791.81,-801.31C803.22,-791.43 818.87,-777.88 832.1,-766.43"/>
<polygon fill="black" stroke="black" points="834.69,-768.82 839.95,-759.63 830.1,-763.53 834.69,-768.82"/>
</a>
</g>
</g>
<!-- f1 -->
<g id="node9" class="node">
<title>f1</title>
<g id="a_node9"><a xlink:title="Function ID=1 &#10; contains 0 duplicate subfunctions">
<ellipse fill="lightgreen" stroke="lightgreen" cx="457" cy="-18" rx="27" ry="18"/>
<text text-anchor="middle" x="457" y="-14.3" font-family="Times,serif" font-size="14.00">X</text>
</a>
</g>
</g>
<!-- f3 -->
<g id="node10" class="node">
<title>f3</title>
<g id="a_node10"><a xlink:title="Function ID=3 &#10; contains 1 duplicate subfunctions">
<ellipse fill="lightblue" stroke="lightblue" cx="281" cy="-90" rx="27" ry="18"/>
<text text-anchor="middle" x="281" y="-86.3" font-family="Times,serif" font-size="14.00">Sin</text>
</a>
</g>
</g>
<!-- f3&#45;&gt;f1 -->
<g id="edge54" class="edge">
<title>f3&#45;&gt;f1</title>
<g id="a_edge54"><a xlink:title="Function ID=3 depends on function ID=1">
<path fill="none" stroke="black" d="M303.65,-79.99C334.54,-67.71 390.04,-45.63 425.12,-31.68"/>
<polygon fill="black" stroke="black" points="426.44,-34.92 434.44,-27.97 423.85,-28.42 426.44,-34.92"/>
</a>
</g>
</g>
<!-- f4 -->
<g id="node11" class="node">
<title>f4</title>
<g id="a_node11"><a xlink:title="Function ID=4 &#10; contains 1 duplicate subfunctions">
<ellipse fill="lightblue" stroke="lightblue" cx="897" cy="-452" rx="27.9" ry="18"/>
<text text-anchor="middle" x="897" y="-448.3" font-family="Times,serif" font-size="14.00">Cos</text>
</a>
</g>
</g>
<!-- f4&#45;&gt;f1 -->
<g id="edge65" class="edge">
<title>f4&#45;&gt;f1</title>
<g id="a_edge65"><a xlink:title="Function ID=4 depends on function ID=1">
<path fill="none" stroke="black" d="M897,-433.83C897,-406.98 897,-353.43 897,-308 897,-308 897,-308 897,-161 897,-76.51 599.45,-34.95 493.73,-22.85"/>
<polygon fill="black" stroke="black" points="493.86,-19.35 483.53,-21.71 493.08,-26.3 493.86,-19.35"/>
</a>
</g>
</g>
<!-- f7087&#45;&gt;f1 -->
<g id="edge26" class="edge">
<title>f7087&#45;&gt;f1</title>
<g id="a_edge26"><a xlink:title="Function ID=7087 depends on function ID=1">
<path fill="none" stroke="black" d="M391.77,-143.93C396.24,-125.51 404.68,-95.63 417,-72 422.49,-61.47 430.05,-50.82 437.11,-41.87"/>
<polygon fill="black" stroke="black" points="440.04,-43.82 443.65,-33.86 434.62,-39.39 440.04,-43.82"/>
</a>
</g>
</g>
<!-- f7088&#45;&gt;f3 -->
<g id="edge38" class="edge">
<title>f7088&#45;&gt;f3</title>
<g id="a_edge38"><a xlink:title="Function ID=7088 depends on function ID=3">
<path fill="none" stroke="black" d="M281,-143.7C281,-135.98 281,-126.71 281,-118.11"/>
<polygon fill="black" stroke="black" points="284.5,-118.1 281,-108.1 277.5,-118.1 284.5,-118.1"/>
</a>
</g>
</g>
<!-- f7090 -->
<g id="node14" class="node">
<title>f7090</title>
<g id="a_node14"><a xlink:title="Function ID=7090 &#10; contains 1 duplicate subfunctions">
<ellipse fill="lightblue" stroke="lightblue" cx="157" cy="-90" rx="31.4" ry="18"/>
<text text-anchor="middle" x="157" y="-86.3" font-family="Times,serif" font-size="14.00"> ** 2</text>
</a>
</g>
</g>
<!-- f7090&#45;&gt;f1 -->
<g id="edge5" class="edge">
<title>f7090&#45;&gt;f1</title>
<g id="a_edge5"><a xlink:title="Function ID=7090 depends on function ID=1">
<path fill="none" stroke="black" d="M185.49,-82.35C240.66,-69.48 361.89,-41.19 421.91,-27.19"/>
<polygon fill="black" stroke="black" points="422.75,-30.59 431.69,-24.91 421.16,-23.77 422.75,-30.59"/>
</a>
</g>
</g>
<!-- f7091 -->
<g id="node15" class="node">
<title>f7091</title>
<g id="a_node15"><a xlink:title="Function ID=7091 &#10; contains 2 duplicate subfunctions">
<ellipse fill="lightblue" stroke="lightblue" cx="299" cy="-452" rx="32.49" ry="18"/>
<text text-anchor="middle" x="299" y="-448.3" font-family="Times,serif" font-size="14.00">3.0 *</text>
</a>
</g>
</g>
<!-- f7091&#45;&gt;f7090 -->
<g id="edge43" class="edge">
<title>f7091&#45;&gt;f7090</title>
<g id="a_edge43"><a xlink:title="Function ID=7091 depends on function ID=7090">
<path fill="none" stroke="black" d="M276.2,-438.8C227.77,-412.09 119,-347.71 119,-308 119,-308 119,-308 119,-233 119,-191.41 134.4,-145.22 145.6,-117.14"/>
<polygon fill="black" stroke="black" points="148.93,-118.24 149.49,-107.66 142.45,-115.58 148.93,-118.24"/>
</a>
</g>
</g>
<!-- f7092 -->
<g id="node16" class="node">
<title>f7092</title>
<g id="a_node16"><a xlink:title="Function ID=7092 &#10; contains 0 duplicate subfunctions">
<ellipse fill="lightgreen" stroke="lightgreen" cx="530" cy="-452" rx="27" ry="18"/>
<text text-anchor="middle" x="530" y="-448.3" font-family="Times,serif" font-size="14.00">1.0</text>
</a>
</g>
</g>
<!-- f7093&#45;&gt;f7091 -->
<g id="edge21" class="edge">
<title>f7093&#45;&gt;f7091</title>
<g id="a_edge21"><a xlink:title="Function ID=7093 depends on function ID=7091">
<path fill="none" stroke="black" d="M453.83,-512.6C448.99,-510.34 443.85,-508.02 439,-506 395.79,-487.98 383.63,-486.97 340,-470 337.9,-469.18 335.74,-468.33 333.57,-467.46"/>
<polygon fill="black" stroke="black" points="334.66,-464.13 324.08,-463.61 332.03,-470.61 334.66,-464.13"/>
</a>
</g>
</g>
<!-- f7093&#45;&gt;f7092 -->
<g id="edge11" class="edge">
<title>f7093&#45;&gt;f7092</title>
<g id="a_edge11"><a xlink:title="Function ID=7093 depends on function ID=7092">
<path fill="none" stroke="black" d="M486.93,-507.81C494.21,-498.55 503.66,-486.52 511.85,-476.09"/>
<polygon fill="black" stroke="black" points="514.66,-478.18 518.09,-468.16 509.16,-473.86 514.66,-478.18"/>
</a>
</g>
</g>
<!-- f7094&#45;&gt;f4 -->
<g id="edge6" class="edge">
<title>f7094&#45;&gt;f4</title>
<g id="a_edge6"><a xlink:title="Function ID=7094 depends on function ID=4">
<path fill="none" stroke="black" d="M843.66,-507.12C853,-497.64 865,-485.46 875.25,-475.06"/>
<polygon fill="black" stroke="black" points="877.82,-477.44 882.35,-467.86 872.84,-472.53 877.82,-477.44"/>
</a>
</g>
</g>
<!-- f7096 -->
<g id="node19" class="node">
<title>f7096</title>
<g id="a_node19"><a xlink:title="Function ID=7096 &#10; contains 1 duplicate subfunctions">
<ellipse fill="lightblue" stroke="lightblue" cx="726" cy="-234" rx="31.4" ry="18"/>
<text text-anchor="middle" x="726" y="-230.3" font-family="Times,serif" font-size="14.00"> ** 1</text>
</a>
</g>
</g>
<!-- f7096&#45;&gt;f1 -->
<g id="edge36" class="edge">
<title>f7096&#45;&gt;f1</title>
<g id="a_edge36"><a xlink:title="Function ID=7096 depends on function ID=1">
<path fill="none" stroke="black" d="M718.2,-216.28C702.25,-183.82 662.81,-111.97 609,-72 574.18,-46.13 525.71,-32.15 492.94,-25.15"/>
<polygon fill="black" stroke="black" points="493.39,-21.67 482.89,-23.12 492,-28.53 493.39,-21.67"/>
</a>
</g>
</g>
<!-- f7097 -->
<g id="node20" class="node">
<title>f7097</title>
<g id="a_node20"><a xlink:title="Function ID=7097 &#10; contains 2 duplicate subfunctions">
<ellipse fill="lightblue" stroke="lightblue" cx="765" cy="-307" rx="32.49" ry="18"/>
<text text-anchor="middle" x="765" y="-303.3" font-family="Times,serif" font-size="14.00">2.0 *</text>
</a>
</g>
</g>
<!-- f7097&#45;&gt;f7096 -->
<g id="edge12" class="edge">
<title>f7097&#45;&gt;f7096</title>
<g id="a_edge12"><a xlink:title="Function ID=7097 depends on function ID=7096">
<path fill="none" stroke="black" d="M755.95,-289.53C751.18,-280.84 745.22,-269.99 739.87,-260.26"/>
<polygon fill="black" stroke="black" points="742.88,-258.46 735,-251.38 736.74,-261.83 742.88,-258.46"/>
</a>
</g>
</g>
<!-- f7098 -->
<g id="node21" class="node">
<title>f7098</title>
<g id="a_node21"><a xlink:title="Function ID=7098 &#10; contains 0 duplicate subfunctions">
<ellipse fill="lightgreen" stroke="lightgreen" cx="688" cy="-307" rx="27" ry="18"/>
<text text-anchor="middle" x="688" y="-303.3" font-family="Times,serif" font-size="14.00">1.0</text>
</a>
</g>
</g>
<!-- f7099 -->
<g id="node22" class="node">
<title>f7099</title>
<g id="a_node22"><a xlink:title="Function ID=7099 &#10; contains 4 duplicate subfunctions">
<ellipse fill="lightblue" stroke="lightblue" cx="690" cy="-380" rx="27" ry="18"/>
<text text-anchor="middle" x="690" y="-376.3" font-family="Times,serif" font-size="14.00">*</text>
</a>
</g>
</g>
<!-- f7099&#45;&gt;f7097 -->
<g id="edge52" class="edge">
<title>f7099&#45;&gt;f7097</title>
<g id="a_edge52"><a xlink:title="Function ID=7099 depends on function ID=7097">
<path fill="none" stroke="black" d="M705.18,-364.63C715.71,-354.66 729.94,-341.19 741.88,-329.89"/>
<polygon fill="black" stroke="black" points="744.47,-332.25 749.33,-322.84 739.66,-327.17 744.47,-332.25"/>
</a>
</g>
</g>
<!-- f7099&#45;&gt;f7098 -->
<g id="edge44" class="edge">
<title>f7099&#45;&gt;f7098</title>
<g id="a_edge44"><a xlink:title="Function ID=7099 depends on function ID=7098">
<path fill="none" stroke="black" d="M689.52,-361.81C689.29,-353.79 689.02,-344.05 688.76,-335.07"/>
<polygon fill="black" stroke="black" points="692.26,-334.93 688.48,-325.03 685.26,-335.12 692.26,-334.93"/>
</a>
</g>
</g>
<!-- f7100 -->
<g id="node23" class="node">
<title>f7100</title>
<g id="a_node23"><a xlink:title="Function ID=7100 &#10; contains 5 duplicate subfunctions">
<ellipse fill="lightblue" stroke="lightblue" cx="607" cy="-452" rx="32.49" ry="18"/>
<text text-anchor="middle" x="607" y="-448.3" font-family="Times,serif" font-size="14.00">3.0 *</text>
</a>
</g>
</g>
<!-- f7100&#45;&gt;f7099 -->
<g id="edge60" class="edge">
<title>f7100&#45;&gt;f7099</title>
<g id="a_edge60"><a xlink:title="Function ID=7100 depends on function ID=7099">
<path fill="none" stroke="black" d="M624.2,-436.5C636.31,-426.28 652.68,-412.47 666.07,-401.18"/>
<polygon fill="black" stroke="black" points="668.56,-403.66 673.95,-394.54 664.05,-398.31 668.56,-403.66"/>
</a>
</g>
</g>
<!-- f7101 -->
<g id="node24" class="node">
<title>f7101</title>
<g id="a_node24"><a xlink:title="Function ID=7101 &#10; contains 7 duplicate subfunctions">
<ellipse fill="lightblue" stroke="lightblue" cx="585" cy="-524" rx="27" ry="18"/>
<text text-anchor="middle" x="585" y="-520.3" font-family="Times,serif" font-size="14.00">*</text>
</a>
</g>
</g>
<!-- f7101&#45;&gt;f7092 -->
<g id="edge8" class="edge">
<title>f7101&#45;&gt;f7092</title>
<g id="a_edge8"><a xlink:title="Function ID=7101 depends on function ID=7092">
<path fill="none" stroke="black" d="M573.07,-507.81C565.79,-498.55 556.34,-486.52 548.15,-476.09"/>
<polygon fill="black" stroke="black" points="550.84,-473.86 541.91,-468.16 545.34,-478.18 550.84,-473.86"/>
</a>
</g>
</g>
<!-- f7101&#45;&gt;f7100 -->
<g id="edge9" class="edge">
<title>f7101&#45;&gt;f7100</title>
<g id="a_edge9"><a xlink:title="Function ID=7101 depends on function ID=7100">
<path fill="none" stroke="black" d="M590.33,-506.05C592.84,-498.06 595.9,-488.33 598.7,-479.4"/>
<polygon fill="black" stroke="black" points="602.06,-480.38 601.72,-469.79 595.39,-478.28 602.06,-480.38"/>
</a>
</g>
</g>
<!-- f7102 -->
<g id="node25" class="node">
<title>f7102</title>
<g id="a_node25"><a xlink:title="Function ID=7102 &#10; contains 0 duplicate subfunctions">
<ellipse fill="lightgreen" stroke="lightgreen" cx="376" cy="-452" rx="27" ry="18"/>
<text text-anchor="middle" x="376" y="-448.3" font-family="Times,serif" font-size="14.00">0.0</text>
</a>
</g>
</g>
<!-- f7103 -->
<g id="node26" class="node">
<title>f7103</title>
<g id="a_node26"><a xlink:title="Function ID=7103 &#10; contains 4 duplicate subfunctions">
<ellipse fill="lightblue" stroke="lightblue" cx="331" cy="-524" rx="27" ry="18"/>
<text text-anchor="middle" x="331" y="-520.3" font-family="Times,serif" font-size="14.00">*</text>
</a>
</g>
</g>
<!-- f7103&#45;&gt;f7091 -->
<g id="edge40" class="edge">
<title>f7103&#45;&gt;f7091</title>
<g id="a_edge40"><a xlink:title="Function ID=7103 depends on function ID=7091">
<path fill="none" stroke="black" d="M323.42,-506.41C319.69,-498.25 315.1,-488.22 310.92,-479.07"/>
<polygon fill="black" stroke="black" points="314.09,-477.6 306.75,-469.96 307.73,-480.51 314.09,-477.6"/>
</a>
</g>
</g>
<!-- f7103&#45;&gt;f7102 -->
<g id="edge41" class="edge">
<title>f7103&#45;&gt;f7102</title>
<g id="a_edge41"><a xlink:title="Function ID=7103 depends on function ID=7102">
<path fill="none" stroke="black" d="M341.21,-507.12C346.85,-498.34 353.97,-487.26 360.3,-477.42"/>
<polygon fill="black" stroke="black" points="363.37,-479.13 365.83,-468.82 357.48,-475.34 363.37,-479.13"/>
</a>
</g>
</g>
<!-- f7104&#45;&gt;f7101 -->
<g id="edge66" class="edge">
<title>f7104&#45;&gt;f7101</title>
<g id="a_edge66"><a xlink:title="Function ID=7104 depends on function ID=7101">
<path fill="none" stroke="black" d="M385.86,-587.51C425.66,-575.02 505.7,-549.89 551.26,-535.59"/>
<polygon fill="black" stroke="black" points="552.48,-538.88 560.97,-532.54 550.38,-532.2 552.48,-538.88"/>
</a>
</g>
</g>
<!-- f7104&#45;&gt;f7103 -->
<g id="edge61" class="edge">
<title>f7104&#45;&gt;f7103</title>
<g id="a_edge61"><a xlink:title="Function ID=7104 depends on function ID=7103">
<path fill="none" stroke="black" d="M354.65,-578.41C350.99,-570.13 346.47,-559.92 342.36,-550.66"/>
<polygon fill="black" stroke="black" points="345.54,-549.2 338.29,-541.47 339.14,-552.03 345.54,-549.2"/>
</a>
</g>
</g>
<!-- f7105 -->
<g id="node28" class="node">
<title>f7105</title>
<g id="a_node28"><a xlink:title="Function ID=7105 &#10; contains 2 duplicate subfunctions">
<ellipse fill="lightblue" stroke="lightblue" cx="47" cy="-234" rx="43.59" ry="18"/>
<text text-anchor="middle" x="47" y="-230.3" font-family="Times,serif" font-size="14.00">unary &#45;</text>
</a>
</g>
</g>
<!-- f7105&#45;&gt;f3 -->
<g id="edge56" class="edge">
<title>f7105&#45;&gt;f3</title>
<g id="a_edge56"><a xlink:title="Function ID=7105 depends on function ID=3">
<path fill="none" stroke="black" d="M70.72,-218.6C114.19,-192.23 206.38,-136.28 252.9,-108.05"/>
<polygon fill="black" stroke="black" points="254.83,-110.97 261.57,-102.79 251.2,-104.99 254.83,-110.97"/>
</a>
</g>
</g>
<!-- f7106&#45;&gt;f7105 -->
<g id="edge27" class="edge">
<title>f7106&#45;&gt;f7105</title>
<g id="a_edge27"><a xlink:title="Function ID=7106 depends on function ID=7105">
<path fill="none" stroke="black" d="M103.08,-578.16C88.77,-552.21 64,-500.46 64,-453 64,-453 64,-453 64,-379 64,-338.15 57.17,-291.23 52.17,-262.35"/>
<polygon fill="black" stroke="black" points="55.56,-261.44 50.36,-252.21 48.67,-262.67 55.56,-261.44"/>
</a>
</g>
</g>
<!-- f7108 -->
<g id="node30" class="node">
<title>f7108</title>
<g id="a_node30"><a xlink:title="Function ID=7108 &#10; contains 1 duplicate subfunctions">
<ellipse fill="lightblue" stroke="lightblue" cx="569" cy="-90" rx="31.4" ry="18"/>
<text text-anchor="middle" x="569" y="-86.3" font-family="Times,serif" font-size="14.00"> ** 0</text>
</a>
</g>
</g>
<!-- f7108&#45;&gt;f1 -->
<g id="edge33" class="edge">
<title>f7108&#45;&gt;f1</title>
<g id="a_edge33"><a xlink:title="Function ID=7108 depends on function ID=1">
<path fill="none" stroke="black" d="M548.46,-76.16C530.6,-65 504.58,-48.74 484.86,-36.41"/>
<polygon fill="black" stroke="black" points="486.62,-33.39 476.29,-31.06 482.91,-39.32 486.62,-33.39"/>
</a>
</g>
</g>
<!-- f7109 -->
<g id="node31" class="node">
<title>f7109</title>
<g id="a_node31"><a xlink:title="Function ID=7109 &#10; contains 2 duplicate subfunctions">
<ellipse fill="lightblue" stroke="lightblue" cx="600" cy="-162" rx="32.49" ry="18"/>
<text text-anchor="middle" x="600" y="-158.3" font-family="Times,serif" font-size="14.00">1.0 *</text>
</a>
</g>
</g>
<!-- f7109&#45;&gt;f7108 -->
<g id="edge13" class="edge">
<title>f7109&#45;&gt;f7108</title>
<g id="a_edge13"><a xlink:title="Function ID=7109 depends on function ID=7108">
<path fill="none" stroke="black" d="M592.65,-144.41C589.08,-136.34 584.69,-126.43 580.67,-117.35"/>
<polygon fill="black" stroke="black" points="583.76,-115.68 576.51,-107.96 577.36,-118.52 583.76,-115.68"/>
</a>
</g>
</g>
<!-- f7110 -->
<g id="node32" class="node">
<title>f7110</title>
<g id="a_node32"><a xlink:title="Function ID=7110 &#10; contains 0 duplicate subfunctions">
<ellipse fill="lightgreen" stroke="lightgreen" cx="523" cy="-162" rx="27" ry="18"/>
<text text-anchor="middle" x="523" y="-158.3" font-family="Times,serif" font-size="14.00">1.0</text>
</a>
</g>
</g>
<!-- f7111 -->
<g id="node33" class="node">
<title>f7111</title>
<g id="a_node33"><a xlink:title="Function ID=7111 &#10; contains 4 duplicate subfunctions">
<ellipse fill="lightblue" stroke="lightblue" cx="600" cy="-234" rx="27" ry="18"/>
<text text-anchor="middle" x="600" y="-230.3" font-family="Times,serif" font-size="14.00">*</text>
</a>
</g>
</g>
<!-- f7111&#45;&gt;f7109 -->
<g id="edge53" class="edge">
<title>f7111&#45;&gt;f7109</title>
<g id="a_edge53"><a xlink:title="Function ID=7111 depends on function ID=7109">
<path fill="none" stroke="black" d="M600,-215.7C600,-207.98 600,-198.71 600,-190.11"/>
<polygon fill="black" stroke="black" points="603.5,-190.1 600,-180.1 596.5,-190.1 603.5,-190.1"/>
</a>
</g>
</g>
<!-- f7111&#45;&gt;f7110 -->
<g id="edge46" class="edge">
<title>f7111&#45;&gt;f7110</title>
<g id="a_edge46"><a xlink:title="Function ID=7111 depends on function ID=7110">
<path fill="none" stroke="black" d="M584.42,-218.83C573.39,-208.81 558.41,-195.19 546.01,-183.92"/>
<polygon fill="black" stroke="black" points="548.05,-181.04 538.3,-176.91 543.34,-186.22 548.05,-181.04"/>
</a>
</g>
</g>
<!-- f7112 -->
<g id="node34" class="node">
<title>f7112</title>
<g id="a_node34"><a xlink:title="Function ID=7112 &#10; contains 5 duplicate subfunctions">
<ellipse fill="lightblue" stroke="lightblue" cx="611" cy="-307" rx="32.49" ry="18"/>
<text text-anchor="middle" x="611" y="-303.3" font-family="Times,serif" font-size="14.00">2.0 *</text>
</a>
</g>
</g>
<!-- f7112&#45;&gt;f7111 -->
<g id="edge62" class="edge">
<title>f7112&#45;&gt;f7111</title>
<g id="a_edge62"><a xlink:title="Function ID=7112 depends on function ID=7111">
<path fill="none" stroke="black" d="M608.34,-288.81C607.09,-280.79 605.58,-271.05 604.19,-262.07"/>
<polygon fill="black" stroke="black" points="607.63,-261.38 602.64,-252.03 600.71,-262.45 607.63,-261.38"/>
</a>
</g>
</g>
<!-- f7113 -->
<g id="node35" class="node">
<title>f7113</title>
<g id="a_node35"><a xlink:title="Function ID=7113 &#10; contains 7 duplicate subfunctions">
<ellipse fill="lightblue" stroke="lightblue" cx="618" cy="-380" rx="27" ry="18"/>
<text text-anchor="middle" x="618" y="-376.3" font-family="Times,serif" font-size="14.00">*</text>
</a>
</g>
</g>
<!-- f7113&#45;&gt;f7098 -->
<g id="edge7" class="edge">
<title>f7113&#45;&gt;f7098</title>
<g id="a_edge7"><a xlink:title="Function ID=7113 depends on function ID=7098">
<path fill="none" stroke="black" d="M632.17,-364.63C642.03,-354.62 655.37,-341.09 666.54,-329.77"/>
<polygon fill="black" stroke="black" points="669.33,-331.92 673.86,-322.35 664.34,-327.01 669.33,-331.92"/>
</a>
</g>
</g>
<!-- f7113&#45;&gt;f7112 -->
<g id="edge19" class="edge">
<title>f7113&#45;&gt;f7112</title>
<g id="a_edge19"><a xlink:title="Function ID=7113 depends on function ID=7112">
<path fill="none" stroke="black" d="M616.31,-361.81C615.51,-353.79 614.55,-344.05 613.67,-335.07"/>
<polygon fill="black" stroke="black" points="617.14,-334.64 612.68,-325.03 610.18,-335.32 617.14,-334.64"/>
</a>
</g>
</g>
<!-- f7114 -->
<g id="node36" class="node">
<title>f7114</title>
<g id="a_node36"><a xlink:title="Function ID=7114 &#10; contains 0 duplicate subfunctions">
<ellipse fill="lightgreen" stroke="lightgreen" cx="842" cy="-307" rx="27" ry="18"/>
<text text-anchor="middle" x="842" y="-303.3" font-family="Times,serif" font-size="14.00">0.0</text>
</a>
</g>
</g>
<!-- f7115 -->
<g id="node37" class="node">
<title>f7115</title>
<g id="a_node37"><a xlink:title="Function ID=7115 &#10; contains 4 duplicate subfunctions">
<ellipse fill="lightblue" stroke="lightblue" cx="765" cy="-380" rx="27" ry="18"/>
<text text-anchor="middle" x="765" y="-376.3" font-family="Times,serif" font-size="14.00">*</text>
</a>
</g>
</g>
<!-- f7115&#45;&gt;f7097 -->
<g id="edge37" class="edge">
<title>f7115&#45;&gt;f7097</title>
<g id="a_edge37"><a xlink:title="Function ID=7115 depends on function ID=7097">
<path fill="none" stroke="black" d="M765,-361.81C765,-353.79 765,-344.05 765,-335.07"/>
<polygon fill="black" stroke="black" points="768.5,-335.03 765,-325.03 761.5,-335.03 768.5,-335.03"/>
</a>
</g>
</g>
<!-- f7115&#45;&gt;f7114 -->
<g id="edge48" class="edge">
<title>f7115&#45;&gt;f7114</title>
<g id="a_edge48"><a xlink:title="Function ID=7115 depends on function ID=7114">
<path fill="none" stroke="black" d="M780.21,-364.97C791.39,-354.66 806.77,-340.49 819.38,-328.86"/>
<polygon fill="black" stroke="black" points="821.84,-331.35 826.82,-322 817.09,-326.2 821.84,-331.35"/>
</a>
</g>
</g>
<!-- f7116 -->
<g id="node38" class="node">
<title>f7116</title>
<g id="a_node38"><a xlink:title="Function ID=7116 &#10; contains 13 duplicate subfunctions">
<ellipse fill="lightblue" stroke="lightblue" cx="684" cy="-452" rx="27" ry="18"/>
<text text-anchor="middle" x="684" y="-448.3" font-family="Times,serif" font-size="14.00">+</text>
</a>
</g>
</g>
<!-- f7116&#45;&gt;f7113 -->
<g id="edge67" class="edge">
<title>f7116&#45;&gt;f7113</title>
<g id="a_edge67"><a xlink:title="Function ID=7116 depends on function ID=7113">
<path fill="none" stroke="black" d="M670,-436.15C660.99,-426.6 649.11,-413.99 638.98,-403.25"/>
<polygon fill="black" stroke="black" points="641.38,-400.7 631.98,-395.82 636.29,-405.5 641.38,-400.7"/>
</a>
</g>
</g>
<!-- f7116&#45;&gt;f7115 -->
<g id="edge63" class="edge">
<title>f7116&#45;&gt;f7115</title>
<g id="a_edge63"><a xlink:title="Function ID=7116 depends on function ID=7115">
<path fill="none" stroke="black" d="M700,-437.17C711.76,-427.01 727.94,-413.03 741.21,-401.56"/>
<polygon fill="black" stroke="black" points="743.75,-403.99 749.03,-394.8 739.18,-398.69 743.75,-403.99"/>
</a>
</g>
</g>
<!-- f7117 -->
<g id="node39" class="node">
<title>f7117</title>
<g id="a_node39"><a xlink:title="Function ID=7117 &#10; contains 14 duplicate subfunctions">
<ellipse fill="lightblue" stroke="lightblue" cx="662" cy="-524" rx="32.49" ry="18"/>
<text text-anchor="middle" x="662" y="-520.3" font-family="Times,serif" font-size="14.00">3.0 *</text>
</a>
</g>
</g>
<!-- f7117&#45;&gt;f7116 -->
<g id="edge14" class="edge">
<title>f7117&#45;&gt;f7116</title>
<g id="a_edge14"><a xlink:title="Function ID=7117 depends on function ID=7116">
<path fill="none" stroke="black" d="M667.33,-506.05C669.84,-498.06 672.9,-488.33 675.7,-479.4"/>
<polygon fill="black" stroke="black" points="679.06,-480.38 678.72,-469.79 672.39,-478.28 679.06,-480.38"/>
</a>
</g>
</g>
<!-- f7118 -->
<g id="node40" class="node">
<title>f7118</title>
<g id="a_node40"><a xlink:title="Function ID=7118 &#10; contains 16 duplicate subfunctions">
<ellipse fill="lightblue" stroke="lightblue" cx="662" cy="-596" rx="27" ry="18"/>
<text text-anchor="middle" x="662" y="-592.3" font-family="Times,serif" font-size="14.00">*</text>
</a>
</g>
</g>
<!-- f7118&#45;&gt;f7092 -->
<g id="edge24" class="edge">
<title>f7118&#45;&gt;f7092</title>
<g id="a_edge24"><a xlink:title="Function ID=7118 depends on function ID=7092">
<path fill="none" stroke="black" d="M636.31,-589.93C610.29,-583.41 570.83,-569.49 549,-542 535.22,-524.65 530.83,-499.6 529.69,-480.49"/>
<polygon fill="black" stroke="black" points="533.18,-480.18 529.34,-470.3 526.18,-480.41 533.18,-480.18"/>
</a>
</g>
</g>
<!-- f7118&#45;&gt;f7117 -->
<g id="edge28" class="edge">
<title>f7118&#45;&gt;f7117</title>
<g id="a_edge28"><a xlink:title="Function ID=7118 depends on function ID=7117">
<path fill="none" stroke="black" d="M662,-577.7C662,-569.98 662,-560.71 662,-552.11"/>
<polygon fill="black" stroke="black" points="665.5,-552.1 662,-542.1 658.5,-552.1 665.5,-552.1"/>
</a>
</g>
</g>
<!-- f7119 -->
<g id="node41" class="node">
<title>f7119</title>
<g id="a_node41"><a xlink:title="Function ID=7119 &#10; contains 0 duplicate subfunctions">
<ellipse fill="lightgreen" stroke="lightgreen" cx="756" cy="-452" rx="27" ry="18"/>
<text text-anchor="middle" x="756" y="-448.3" font-family="Times,serif" font-size="14.00">0.0</text>
</a>
</g>
</g>
<!-- f7120 -->
<g id="node42" class="node">
<title>f7120</title>
<g id="a_node42"><a xlink:title="Function ID=7120 &#10; contains 7 duplicate subfunctions">
<ellipse fill="lightblue" stroke="lightblue" cx="739" cy="-524" rx="27" ry="18"/>
<text text-anchor="middle" x="739" y="-520.3" font-family="Times,serif" font-size="14.00">*</text>
</a>
</g>
</g>
<!-- f7120&#45;&gt;f7100 -->
<g id="edge58" class="edge">
<title>f7120&#45;&gt;f7100</title>
<g id="a_edge58"><a xlink:title="Function ID=7120 depends on function ID=7100">
<path fill="none" stroke="black" d="M718.38,-512.06C697.03,-500.74 663.41,-482.91 638.69,-469.8"/>
<polygon fill="black" stroke="black" points="640.17,-466.63 629.69,-465.03 636.89,-472.81 640.17,-466.63"/>
</a>
</g>
</g>
<!-- f7120&#45;&gt;f7119 -->
<g id="edge64" class="edge">
<title>f7120&#45;&gt;f7119</title>
<g id="a_edge64"><a xlink:title="Function ID=7120 depends on function ID=7119">
<path fill="none" stroke="black" d="M743.12,-506.05C745.01,-498.26 747.3,-488.82 749.42,-480.08"/>
<polygon fill="black" stroke="black" points="752.85,-480.82 751.8,-470.28 746.04,-479.17 752.85,-480.82"/>
</a>
</g>
</g>
<!-- f7121 -->
<g id="node43" class="node">
<title>f7121</title>
<g id="a_node43"><a xlink:title="Function ID=7121 &#10; contains 25 duplicate subfunctions">
<ellipse fill="lightblue" stroke="lightblue" cx="695" cy="-669" rx="27" ry="18"/>
<text text-anchor="middle" x="695" y="-665.3" font-family="Times,serif" font-size="14.00">+</text>
</a>
</g>
</g>
<!-- f7121&#45;&gt;f7118 -->
<g id="edge23" class="edge">
<title>f7121&#45;&gt;f7118</title>
<g id="a_edge23"><a xlink:title="Function ID=7121 depends on function ID=7118">
<path fill="none" stroke="black" d="M687.35,-651.53C683.35,-642.93 678.37,-632.21 673.88,-622.56"/>
<polygon fill="black" stroke="black" points="677,-620.97 669.61,-613.38 670.65,-623.92 677,-620.97"/>
</a>
</g>
</g>
<!-- f7121&#45;&gt;f7120 -->
<g id="edge15" class="edge">
<title>f7121&#45;&gt;f7120</title>
<g id="a_edge15"><a xlink:title="Function ID=7121 depends on function ID=7120">
<path fill="none" stroke="black" d="M700.13,-651.32C707.68,-626.8 721.83,-580.79 730.82,-551.59"/>
<polygon fill="black" stroke="black" points="734.17,-552.61 733.76,-542.02 727.48,-550.55 734.17,-552.61"/>
</a>
</g>
</g>
<!-- f7122 -->
<g id="node44" class="node">
<title>f7122</title>
<g id="a_node44"><a xlink:title="Function ID=7122 &#10; contains 1 duplicate subfunctions">
<ellipse fill="lightblue" stroke="lightblue" cx="457" cy="-90" rx="31.4" ry="18"/>
<text text-anchor="middle" x="457" y="-86.3" font-family="Times,serif" font-size="14.00"> ** 1</text>
</a>
</g>
</g>
<!-- f7122&#45;&gt;f1 -->
<g id="edge57" class="edge">
<title>f7122&#45;&gt;f1</title>
<g id="a_edge57"><a xlink:title="Function ID=7122 depends on function ID=1">
<path fill="none" stroke="black" d="M457,-71.7C457,-63.98 457,-54.71 457,-46.11"/>
<polygon fill="black" stroke="black" points="460.5,-46.1 457,-36.1 453.5,-46.1 460.5,-46.1"/>
</a>
</g>
</g>
<!-- f7123 -->
<g id="node45" class="node">
<title>f7123</title>
<g id="a_node45"><a xlink:title="Function ID=7123 &#10; contains 2 duplicate subfunctions">
<ellipse fill="lightblue" stroke="lightblue" cx="457" cy="-307" rx="32.49" ry="18"/>
<text text-anchor="middle" x="457" y="-303.3" font-family="Times,serif" font-size="14.00">2.0 *</text>
</a>
</g>
</g>
<!-- f7123&#45;&gt;f7122 -->
<g id="edge49" class="edge">
<title>f7123&#45;&gt;f7122</title>
<g id="a_edge49"><a xlink:title="Function ID=7123 depends on function ID=7122">
<path fill="none" stroke="black" d="M457,-288.77C457,-251.49 457,-163.08 457,-118.18"/>
<polygon fill="black" stroke="black" points="460.5,-118.01 457,-108.01 453.5,-118.01 460.5,-118.01"/>
</a>
</g>
</g>
<!-- f7124 -->
<g id="node46" class="node">
<title>f7124</title>
<g id="a_node46"><a xlink:title="Function ID=7124 &#10; contains 0 duplicate subfunctions">
<ellipse fill="lightgreen" stroke="lightgreen" cx="534" cy="-307" rx="27" ry="18"/>
<text text-anchor="middle" x="534" y="-303.3" font-family="Times,serif" font-size="14.00">1.0</text>
</a>
</g>
</g>
<!-- f7125 -->
<g id="node47" class="node">
<title>f7125</title>
<g id="a_node47"><a xlink:title="Function ID=7125 &#10; contains 4 duplicate subfunctions">
<ellipse fill="lightblue" stroke="lightblue" cx="457" cy="-380" rx="27" ry="18"/>
<text text-anchor="middle" x="457" y="-376.3" font-family="Times,serif" font-size="14.00">*</text>
</a>
</g>
</g>
<!-- f7125&#45;&gt;f7123 -->
<g id="edge22" class="edge">
<title>f7125&#45;&gt;f7123</title>
<g id="a_edge22"><a xlink:title="Function ID=7125 depends on function ID=7123">
<path fill="none" stroke="black" d="M457,-361.81C457,-353.79 457,-344.05 457,-335.07"/>
<polygon fill="black" stroke="black" points="460.5,-335.03 457,-325.03 453.5,-335.03 460.5,-335.03"/>
</a>
</g>
</g>
<!-- f7125&#45;&gt;f7124 -->
<g id="edge16" class="edge">
<title>f7125&#45;&gt;f7124</title>
<g id="a_edge16"><a xlink:title="Function ID=7125 depends on function ID=7124">
<path fill="none" stroke="black" d="M472.21,-364.97C483.39,-354.66 498.77,-340.49 511.38,-328.86"/>
<polygon fill="black" stroke="black" points="513.84,-331.35 518.82,-322 509.09,-326.2 513.84,-331.35"/>
</a>
</g>
</g>
<!-- f7126 -->
<g id="node48" class="node">
<title>f7126</title>
<g id="a_node48"><a xlink:title="Function ID=7126 &#10; contains 5 duplicate subfunctions">
<ellipse fill="lightblue" stroke="lightblue" cx="453" cy="-452" rx="32.49" ry="18"/>
<text text-anchor="middle" x="453" y="-448.3" font-family="Times,serif" font-size="14.00">3.0 *</text>
</a>
</g>
</g>
<!-- f7126&#45;&gt;f7125 -->
<g id="edge29" class="edge">
<title>f7126&#45;&gt;f7125</title>
<g id="a_edge29"><a xlink:title="Function ID=7126 depends on function ID=7125">
<path fill="none" stroke="black" d="M453.99,-433.7C454.43,-425.98 454.96,-416.71 455.45,-408.11"/>
<polygon fill="black" stroke="black" points="458.95,-408.29 456.02,-398.1 451.96,-407.89 458.95,-408.29"/>
</a>
</g>
</g>
<!-- f7127 -->
<g id="node49" class="node">
<title>f7127</title>
<g id="a_node49"><a xlink:title="Function ID=7127 &#10; contains 7 duplicate subfunctions">
<ellipse fill="lightblue" stroke="lightblue" cx="403" cy="-524" rx="27" ry="18"/>
<text text-anchor="middle" x="403" y="-520.3" font-family="Times,serif" font-size="14.00">*</text>
</a>
</g>
</g>
<!-- f7127&#45;&gt;f7102 -->
<g id="edge35" class="edge">
<title>f7127&#45;&gt;f7102</title>
<g id="a_edge35"><a xlink:title="Function ID=7127 depends on function ID=7102">
<path fill="none" stroke="black" d="M396.6,-506.41C393.49,-498.34 389.67,-488.43 386.17,-479.35"/>
<polygon fill="black" stroke="black" points="389.4,-478.03 382.54,-469.96 382.87,-480.55 389.4,-478.03"/>
</a>
</g>
</g>
<!-- f7127&#45;&gt;f7126 -->
<g id="edge50" class="edge">
<title>f7127&#45;&gt;f7126</title>
<g id="a_edge50"><a xlink:title="Function ID=7127 depends on function ID=7126">
<path fill="none" stroke="black" d="M414.1,-507.46C420.42,-498.62 428.47,-487.34 435.61,-477.34"/>
<polygon fill="black" stroke="black" points="438.62,-479.15 441.59,-468.98 432.93,-475.08 438.62,-479.15"/>
</a>
</g>
</g>
<!-- f7128 -->
<g id="node50" class="node">
<title>f7128</title>
<g id="a_node50"><a xlink:title="Function ID=7128 &#10; contains 0 duplicate subfunctions">
<ellipse fill="lightgreen" stroke="lightgreen" cx="222" cy="-452" rx="27" ry="18"/>
<text text-anchor="middle" x="222" y="-448.3" font-family="Times,serif" font-size="14.00">0.0</text>
</a>
</g>
</g>
<!-- f7129 -->
<g id="node51" class="node">
<title>f7129</title>
<g id="a_node51"><a xlink:title="Function ID=7129 &#10; contains 4 duplicate subfunctions">
<ellipse fill="lightblue" stroke="lightblue" cx="259" cy="-524" rx="27" ry="18"/>
<text text-anchor="middle" x="259" y="-520.3" font-family="Times,serif" font-size="14.00">*</text>
</a>
</g>
</g>
<!-- f7129&#45;&gt;f7091 -->
<g id="edge59" class="edge">
<title>f7129&#45;&gt;f7091</title>
<g id="a_edge59"><a xlink:title="Function ID=7129 depends on function ID=7091">
<path fill="none" stroke="black" d="M268.28,-506.76C273.05,-498.4 278.99,-488.02 284.37,-478.61"/>
<polygon fill="black" stroke="black" points="287.57,-480.05 289.5,-469.63 281.49,-476.58 287.57,-480.05"/>
</a>
</g>
</g>
<!-- f7129&#45;&gt;f7128 -->
<g id="edge17" class="edge">
<title>f7129&#45;&gt;f7128</title>
<g id="a_edge17"><a xlink:title="Function ID=7129 depends on function ID=7128">
<path fill="none" stroke="black" d="M250.42,-506.76C245.94,-498.28 240.35,-487.71 235.32,-478.2"/>
<polygon fill="black" stroke="black" points="238.3,-476.35 230.54,-469.15 232.11,-479.62 238.3,-476.35"/>
</a>
</g>
</g>
<!-- f7130 -->
<g id="node52" class="node">
<title>f7130</title>
<g id="a_node52"><a xlink:title="Function ID=7130 &#10; contains 13 duplicate subfunctions">
<ellipse fill="lightblue" stroke="lightblue" cx="290" cy="-596" rx="27" ry="18"/>
<text text-anchor="middle" x="290" y="-592.3" font-family="Times,serif" font-size="14.00">+</text>
</a>
</g>
</g>
<!-- f7130&#45;&gt;f7127 -->
<g id="edge34" class="edge">
<title>f7130&#45;&gt;f7127</title>
<g id="a_edge34"><a xlink:title="Function ID=7130 depends on function ID=7127">
<path fill="none" stroke="black" d="M309.17,-583.13C327.27,-571.91 354.62,-554.97 375.13,-542.26"/>
<polygon fill="black" stroke="black" points="377.08,-545.17 383.74,-536.93 373.39,-539.22 377.08,-545.17"/>
</a>
</g>
</g>
<!-- f7130&#45;&gt;f7129 -->
<g id="edge30" class="edge">
<title>f7130&#45;&gt;f7129</title>
<g id="a_edge30"><a xlink:title="Function ID=7130 depends on function ID=7129">
<path fill="none" stroke="black" d="M282.65,-578.41C278.99,-570.13 274.47,-559.92 270.36,-550.66"/>
<polygon fill="black" stroke="black" points="273.54,-549.2 266.29,-541.47 267.14,-552.03 273.54,-549.2"/>
</a>
</g>
</g>
<!-- f7131&#45;&gt;f7121 -->
<g id="edge39" class="edge">
<title>f7131&#45;&gt;f7121</title>
<g id="a_edge39"><a xlink:title="Function ID=7131 depends on function ID=7121">
<path fill="none" stroke="black" d="M695,-724.94C695,-716.81 695,-706.88 695,-697.7"/>
<polygon fill="black" stroke="black" points="698.5,-697.44 695,-687.44 691.5,-697.44 698.5,-697.44"/>
</a>
</g>
</g>
<!-- f7131&#45;&gt;f7130 -->
<g id="edge47" class="edge">
<title>f7131&#45;&gt;f7130</title>
<g id="a_edge47"><a xlink:title="Function ID=7131 depends on function ID=7130">
<path fill="none" stroke="black" d="M668.02,-739.68C600.47,-733.52 425.86,-715.35 375,-688 345.68,-672.23 320.87,-642.51 305.76,-621.32"/>
<polygon fill="black" stroke="black" points="308.46,-619.06 299.9,-612.83 302.7,-623.04 308.46,-619.06"/>
</a>
</g>
</g>
<!-- f7132 -->
<g id="node54" class="node">
<title>f7132</title>
<g id="a_node54"><a xlink:title="Function ID=7132 &#10; contains 2 duplicate subfunctions">
<ellipse fill="lightblue" stroke="lightblue" cx="879" cy="-669" rx="43.59" ry="18"/>
<text text-anchor="middle" x="879" y="-665.3" font-family="Times,serif" font-size="14.00">unary &#45;</text>
</a>
</g>
</g>
<!-- f7132&#45;&gt;f4 -->
<g id="edge25" class="edge">
<title>f7132&#45;&gt;f4</title>
<g id="a_edge25"><a xlink:title="Function ID=7132 depends on function ID=4">
<path fill="none" stroke="black" d="M880.44,-650.77C883.56,-613.49 890.97,-525.08 894.72,-480.18"/>
<polygon fill="black" stroke="black" points="898.23,-480.27 895.58,-470.01 891.25,-479.69 898.23,-480.27"/>
</a>
</g>
</g>
<!-- f7133&#45;&gt;f7132 -->
<g id="edge18" class="edge">
<title>f7133&#45;&gt;f7132</title>
<g id="a_edge18"><a xlink:title="Function ID=7133 depends on function ID=7132">
<path fill="none" stroke="black" d="M862.98,-724.94C865.44,-716.51 868.46,-706.14 871.21,-696.7"/>
<polygon fill="black" stroke="black" points="874.62,-697.52 874.06,-686.94 867.9,-695.56 874.62,-697.52"/>
</a>
</g>
</g>
</g>
</svg>
