<?xml version="1.0" encoding="UTF-8" standalone="no"?>
<!DOCTYPE svg PUBLIC "-//W3C//DTD SVG 1.1//EN"
 "http://www.w3.org/Graphics/SVG/1.1/DTD/svg11.dtd">
<!-- Generated by graphviz version 2.43.0 (0)
 -->
<!-- Title: %3 Pages: 1 -->
<svg width="824pt" height="408pt"
 viewBox="0.00 0.00 824.00 408.00" xmlns="http://www.w3.org/2000/svg" xmlns:xlink="http://www.w3.org/1999/xlink">
<g id="graph0" class="graph" transform="scale(1 1) rotate(0) translate(4 404)">
<title>%3</title>
<g id="a_graph0"><a xlink:title="Hey! Notice that red nodes are clickable and &#10; tooltips contain additional information!">
<polygon fill="white" stroke="transparent" points="-4,4 -4,-404 820,-404 820,4 -4,4"/>
</a>
</g>
<!-- function0 -->
<g id="node1" class="node">
<title>function0</title>
<g id="a_node1"><a xlink:href="inspected-f7089-optimized-0.svg" xlink:title="original function &#10; contains 6 duplicate subfunctions &#10; contains 5 unique subfunctions &#10; (and is clickable)">
<path fill="red" stroke="red" d="M248,-326C248,-326 12,-326 12,-326 6,-326 0,-320 0,-314 0,-314 0,-300 0,-300 0,-294 6,-288 12,-288 12,-288 248,-288 248,-288 254,-288 260,-294 260,-300 260,-300 260,-314 260,-314 260,-320 254,-326 248,-326"/>
<text text-anchor="middle" x="130" y="-310.8" font-family="Times,serif" font-size="14.00">((X) ** (3.0)) + ((100.0) * (Sin(X))) </text>
<text text-anchor="middle" x="130" y="-295.8" font-family="Times,serif" font-size="14.00"> original function</text>
</a>
</g>
</g>
<!-- f7089 -->
<g id="node2" class="node">
<title>f7089</title>
<g id="a_node2"><a xlink:title="Function ID=7089 &#10; contains 5 duplicate subfunctions">
<ellipse fill="lightblue" stroke="lightblue" cx="130" cy="-234" rx="27" ry="18"/>
<text text-anchor="middle" x="130" y="-230.3" font-family="Times,serif" font-size="14.00">+</text>
</a>
</g>
</g>
<!-- function0&#45;&gt;f7089 -->
<g id="edge1" class="edge">
<title>function0&#45;&gt;f7089</title>
<path fill="none" stroke="black" d="M130,-287.72C130,-279.97 130,-270.79 130,-262.27"/>
<polygon fill="black" stroke="black" points="133.5,-262 130,-252 126.5,-262 133.5,-262"/>
</g>
<!-- f7087 -->
<g id="node19" class="node">
<title>f7087</title>
<g id="a_node19"><a xlink:title="Function ID=7087 &#10; contains 1 duplicate subfunctions">
<ellipse fill="lightblue" stroke="lightblue" cx="160" cy="-90" rx="31.4" ry="18"/>
<text text-anchor="middle" x="160" y="-86.3" font-family="Times,serif" font-size="14.00"> ** 3</text>
</a>
</g>
</g>
<!-- f7089&#45;&gt;f7087 -->
<g id="edge23" class="edge">
<title>f7089&#45;&gt;f7087</title>
<g id="a_edge23"><a xlink:title="Function ID=7089 depends on function ID=7087">
<path fill="none" stroke="black" d="M126.72,-215.91C123.9,-197.71 121.24,-168.27 128,-144 130.82,-133.86 136.17,-123.71 141.7,-115.06"/>
<polygon fill="black" stroke="black" points="144.7,-116.88 147.43,-106.64 138.91,-112.94 144.7,-116.88"/>
</a>
</g>
</g>
<!-- f7088 -->
<g id="node20" class="node">
<title>f7088</title>
<g id="a_node20"><a xlink:title="Function ID=7088 &#10; contains 2 duplicate subfunctions">
<ellipse fill="lightblue" stroke="lightblue" cx="181" cy="-162" rx="44.39" ry="18"/>
<text text-anchor="middle" x="181" y="-158.3" font-family="Times,serif" font-size="14.00">100.0 *</text>
</a>
</g>
</g>
<!-- f7089&#45;&gt;f7088 -->
<g id="edge16" class="edge">
<title>f7089&#45;&gt;f7088</title>
<g id="a_edge16"><a xlink:title="Function ID=7089 depends on function ID=7088">
<path fill="none" stroke="black" d="M141.32,-217.46C147.67,-208.74 155.75,-197.65 162.96,-187.76"/>
<polygon fill="black" stroke="black" points="165.94,-189.61 169,-179.47 160.29,-185.49 165.94,-189.61"/>
</a>
</g>
</g>
<!-- function1 -->
<g id="node3" class="node">
<title>function1</title>
<g id="a_node3"><a xlink:href="inspected-f7089-optimized-1.svg" xlink:title="1st derivative function &#10; contains 8 duplicate subfunctions &#10; contains 6 unique subfunctions &#10; (and is clickable)">
<path fill="red" stroke="red" d="M622,-326C622,-326 386,-326 386,-326 380,-326 374,-320 374,-314 374,-314 374,-300 374,-300 374,-294 380,-288 386,-288 386,-288 622,-288 622,-288 628,-288 634,-294 634,-300 634,-300 634,-314 634,-314 634,-320 628,-326 622,-326"/>
<text text-anchor="middle" x="504" y="-310.8" font-family="Times,serif" font-size="14.00">((X) ** (3.0)) + ((100.0) * (Sin(X))) </text>
<text text-anchor="middle" x="504" y="-295.8" font-family="Times,serif" font-size="14.00"> 1st derivative</text>
</a>
</g>
</g>
<!-- f7275 -->
<g id="node4" class="node">
<title>f7275</title>
<g id="a_node4"><a xlink:title="Function ID=7275 &#10; contains 7 duplicate subfunctions">
<ellipse fill="lightblue" stroke="lightblue" cx="504" cy="-234" rx="27" ry="18"/>
<text text-anchor="middle" x="504" y="-230.3" font-family="Times,serif" font-size="14.00">+</text>
</a>
</g>
</g>
<!-- function1&#45;&gt;f7275 -->
<g id="edge2" class="edge">
<title>function1&#45;&gt;f7275</title>
<path fill="none" stroke="black" d="M504,-287.72C504,-279.97 504,-270.79 504,-262.27"/>
<polygon fill="black" stroke="black" points="507.5,-262 504,-252 500.5,-262 507.5,-262"/>
</g>
<!-- f7274 -->
<g id="node17" class="node">
<title>f7274</title>
<g id="a_node17"><a xlink:title="Function ID=7274 &#10; contains 3 duplicate subfunctions">
<ellipse fill="lightblue" stroke="lightblue" cx="491" cy="-162" rx="32.49" ry="18"/>
<text text-anchor="middle" x="491" y="-158.3" font-family="Times,serif" font-size="14.00">3.0 *</text>
</a>
</g>
</g>
<!-- f7275&#45;&gt;f7274 -->
<g id="edge17" class="edge">
<title>f7275&#45;&gt;f7274</title>
<g id="a_edge17"><a xlink:title="Function ID=7275 depends on function ID=7274">
<path fill="none" stroke="black" d="M500.85,-216.05C499.42,-208.35 497.69,-199.03 496.08,-190.36"/>
<polygon fill="black" stroke="black" points="499.48,-189.47 494.21,-180.28 492.59,-190.75 499.48,-189.47"/>
</a>
</g>
</g>
<!-- f7094 -->
<g id="node21" class="node">
<title>f7094</title>
<g id="a_node21"><a xlink:title="Function ID=7094 &#10; contains 2 duplicate subfunctions">
<ellipse fill="lightblue" stroke="lightblue" cx="586" cy="-162" rx="44.39" ry="18"/>
<text text-anchor="middle" x="586" y="-158.3" font-family="Times,serif" font-size="14.00">100.0 *</text>
</a>
</g>
</g>
<!-- f7275&#45;&gt;f7094 -->
<g id="edge8" class="edge">
<title>f7275&#45;&gt;f7094</title>
<g id="a_edge8"><a xlink:title="Function ID=7275 depends on function ID=7094">
<path fill="none" stroke="black" d="M520.2,-219.17C531.56,-209.47 547,-196.29 560.06,-185.14"/>
<polygon fill="black" stroke="black" points="562.5,-187.66 567.83,-178.51 557.96,-182.34 562.5,-187.66"/>
</a>
</g>
</g>
<!-- function2 -->
<g id="node5" class="node">
<title>function2</title>
<g id="a_node5"><a xlink:href="inspected-f7089-optimized-2.svg" xlink:title="2nd derivative function &#10; contains 9 duplicate subfunctions &#10; contains 8 unique subfunctions &#10; (and is clickable)">
<path fill="red" stroke="red" d="M439,-400C439,-400 203,-400 203,-400 197,-400 191,-394 191,-388 191,-388 191,-374 191,-374 191,-368 197,-362 203,-362 203,-362 439,-362 439,-362 445,-362 451,-368 451,-374 451,-374 451,-388 451,-388 451,-394 445,-400 439,-400"/>
<text text-anchor="middle" x="321" y="-384.8" font-family="Times,serif" font-size="14.00">((X) ** (3.0)) + ((100.0) * (Sin(X))) </text>
<text text-anchor="middle" x="321" y="-369.8" font-family="Times,serif" font-size="14.00"> 2nd derivative</text>
</a>
</g>
</g>
<!-- f7343 -->
<g id="node6" class="node">
<title>f7343</title>
<g id="a_node6"><a xlink:title="Function ID=7343 &#10; contains 8 duplicate subfunctions">
<ellipse fill="lightblue" stroke="lightblue" cx="321" cy="-307" rx="27" ry="18"/>
<text text-anchor="middle" x="321" y="-303.3" font-family="Times,serif" font-size="14.00">+</text>
</a>
</g>
</g>
<!-- function2&#45;&gt;f7343 -->
<g id="edge3" class="edge">
<title>function2&#45;&gt;f7343</title>
<path fill="none" stroke="black" d="M321,-361.83C321,-353.89 321,-344.41 321,-335.63"/>
<polygon fill="black" stroke="black" points="324.5,-335.42 321,-325.42 317.5,-335.42 324.5,-335.42"/>
</g>
<!-- f7106 -->
<g id="node11" class="node">
<title>f7106</title>
<g id="a_node11"><a xlink:title="Function ID=7106 &#10; contains 3 duplicate subfunctions">
<ellipse fill="lightblue" stroke="lightblue" cx="287" cy="-234" rx="44.39" ry="18"/>
<text text-anchor="middle" x="287" y="-230.3" font-family="Times,serif" font-size="14.00">100.0 *</text>
</a>
</g>
</g>
<!-- f7343&#45;&gt;f7106 -->
<g id="edge12" class="edge">
<title>f7343&#45;&gt;f7106</title>
<g id="a_edge12"><a xlink:title="Function ID=7343 depends on function ID=7106">
<path fill="none" stroke="black" d="M313.11,-289.53C309.05,-281.05 304.01,-270.52 299.44,-260.97"/>
<polygon fill="black" stroke="black" points="302.55,-259.38 295.08,-251.87 296.24,-262.4 302.55,-259.38"/>
</a>
</g>
</g>
<!-- f7334 -->
<g id="node15" class="node">
<title>f7334</title>
<g id="a_node15"><a xlink:title="Function ID=7334 &#10; contains 3 duplicate subfunctions">
<ellipse fill="lightblue" stroke="lightblue" cx="376" cy="-234" rx="27" ry="18"/>
<text text-anchor="middle" x="376" y="-230.3" font-family="Times,serif" font-size="14.00">+</text>
</a>
</g>
</g>
<!-- f7343&#45;&gt;f7334 -->
<g id="edge14" class="edge">
<title>f7343&#45;&gt;f7334</title>
<g id="a_edge14"><a xlink:title="Function ID=7343 depends on function ID=7334">
<path fill="none" stroke="black" d="M332.93,-290.59C340.21,-281.2 349.66,-269 357.85,-258.42"/>
<polygon fill="black" stroke="black" points="360.73,-260.42 364.09,-250.38 355.2,-256.14 360.73,-260.42"/>
</a>
</g>
</g>
<!-- function3 -->
<g id="node7" class="node">
<title>function3</title>
<g id="a_node7"><a xlink:href="inspected-f7089-optimized-3.svg" xlink:title="3rd derivative function &#10; contains 6 duplicate subfunctions &#10; contains 6 unique subfunctions &#10; (and is clickable)">
<path fill="red" stroke="red" d="M804,-400C804,-400 568,-400 568,-400 562,-400 556,-394 556,-388 556,-388 556,-374 556,-374 556,-368 562,-362 568,-362 568,-362 804,-362 804,-362 810,-362 816,-368 816,-374 816,-374 816,-388 816,-388 816,-394 810,-400 804,-400"/>
<text text-anchor="middle" x="686" y="-384.8" font-family="Times,serif" font-size="14.00">((X) ** (3.0)) + ((100.0) * (Sin(X))) </text>
<text text-anchor="middle" x="686" y="-369.8" font-family="Times,serif" font-size="14.00"> 3rd derivative</text>
</a>
</g>
</g>
<!-- f7191 -->
<g id="node8" class="node">
<title>f7191</title>
<g id="a_node8"><a xlink:title="Function ID=7191 &#10; contains 5 duplicate subfunctions">
<ellipse fill="lightblue" stroke="lightblue" cx="686" cy="-307" rx="27" ry="18"/>
<text text-anchor="middle" x="686" y="-303.3" font-family="Times,serif" font-size="14.00">+</text>
</a>
</g>
</g>
<!-- function3&#45;&gt;f7191 -->
<g id="edge4" class="edge">
<title>function3&#45;&gt;f7191</title>
<path fill="none" stroke="black" d="M686,-361.83C686,-353.89 686,-344.41 686,-335.63"/>
<polygon fill="black" stroke="black" points="689.5,-335.42 686,-325.42 682.5,-335.42 689.5,-335.42"/>
</g>
<!-- f7190 -->
<g id="node22" class="node">
<title>f7190</title>
<g id="a_node22"><a xlink:title="Function ID=7190 &#10; contains 0 duplicate subfunctions">
<ellipse fill="lightgreen" stroke="lightgreen" cx="603" cy="-234" rx="27" ry="18"/>
<text text-anchor="middle" x="603" y="-230.3" font-family="Times,serif" font-size="14.00">6.0</text>
</a>
</g>
</g>
<!-- f7191&#45;&gt;f7190 -->
<g id="edge21" class="edge">
<title>f7191&#45;&gt;f7190</title>
<g id="a_edge21"><a xlink:title="Function ID=7191 depends on function ID=7190">
<path fill="none" stroke="black" d="M670,-292.31C657.71,-281.8 640.56,-267.13 626.68,-255.26"/>
<polygon fill="black" stroke="black" points="628.83,-252.49 618.95,-248.65 624.28,-257.81 628.83,-252.49"/>
</a>
</g>
</g>
<!-- f7133 -->
<g id="node24" class="node">
<title>f7133</title>
<g id="a_node24"><a xlink:title="Function ID=7133 &#10; contains 3 duplicate subfunctions">
<ellipse fill="lightblue" stroke="lightblue" cx="692" cy="-234" rx="44.39" ry="18"/>
<text text-anchor="middle" x="692" y="-230.3" font-family="Times,serif" font-size="14.00">100.0 *</text>
</a>
</g>
</g>
<!-- f7191&#45;&gt;f7133 -->
<g id="edge6" class="edge">
<title>f7191&#45;&gt;f7133</title>
<g id="a_edge6"><a xlink:title="Function ID=7191 depends on function ID=7133">
<path fill="none" stroke="black" d="M687.45,-288.81C688.13,-280.79 688.95,-271.05 689.71,-262.07"/>
<polygon fill="black" stroke="black" points="693.21,-262.29 690.56,-252.03 686.23,-261.7 693.21,-262.29"/>
</a>
</g>
</g>
<!-- f1 -->
<g id="node9" class="node">
<title>f1</title>
<g id="a_node9"><a xlink:title="Function ID=1 &#10; contains 0 duplicate subfunctions">
<ellipse fill="lightgreen" stroke="lightgreen" cx="361" cy="-18" rx="27" ry="18"/>
<text text-anchor="middle" x="361" y="-14.3" font-family="Times,serif" font-size="14.00">X</text>
</a>
</g>
</g>
<!-- f7105 -->
<g id="node10" class="node">
<title>f7105</title>
<g id="a_node10"><a xlink:title="Function ID=7105 &#10; contains 2 duplicate subfunctions">
<ellipse fill="lightblue" stroke="lightblue" cx="287" cy="-162" rx="43.59" ry="18"/>
<text text-anchor="middle" x="287" y="-158.3" font-family="Times,serif" font-size="14.00">unary &#45;</text>
</a>
</g>
</g>
<!-- f3 -->
<g id="node12" class="node">
<title>f3</title>
<g id="a_node12"><a xlink:title="Function ID=3 &#10; contains 1 duplicate subfunctions">
<ellipse fill="lightblue" stroke="lightblue" cx="284" cy="-90" rx="27" ry="18"/>
<text text-anchor="middle" x="284" y="-86.3" font-family="Times,serif" font-size="14.00">Sin</text>
</a>
</g>
</g>
<!-- f7105&#45;&gt;f3 -->
<g id="edge5" class="edge">
<title>f7105&#45;&gt;f3</title>
<g id="a_edge5"><a xlink:title="Function ID=7105 depends on function ID=3">
<path fill="none" stroke="black" d="M286.26,-143.7C285.93,-135.98 285.53,-126.71 285.16,-118.11"/>
<polygon fill="black" stroke="black" points="288.66,-117.95 284.73,-108.1 281.66,-118.25 288.66,-117.95"/>
</a>
</g>
</g>
<!-- f7106&#45;&gt;f7105 -->
<g id="edge20" class="edge">
<title>f7106&#45;&gt;f7105</title>
<g id="a_edge20"><a xlink:title="Function ID=7106 depends on function ID=7105">
<path fill="none" stroke="black" d="M287,-215.7C287,-207.98 287,-198.71 287,-190.11"/>
<polygon fill="black" stroke="black" points="290.5,-190.1 287,-180.1 283.5,-190.1 290.5,-190.1"/>
</a>
</g>
</g>
<!-- f3&#45;&gt;f1 -->
<g id="edge25" class="edge">
<title>f3&#45;&gt;f1</title>
<g id="a_edge25"><a xlink:title="Function ID=3 depends on function ID=1">
<path fill="none" stroke="black" d="M299.58,-74.83C310.61,-64.81 325.59,-51.19 337.99,-39.92"/>
<polygon fill="black" stroke="black" points="340.66,-42.22 345.7,-32.91 335.95,-37.04 340.66,-42.22"/>
</a>
</g>
</g>
<!-- f4 -->
<g id="node13" class="node">
<title>f4</title>
<g id="a_node13"><a xlink:title="Function ID=4 &#10; contains 1 duplicate subfunctions">
<ellipse fill="lightblue" stroke="lightblue" cx="586" cy="-90" rx="27.9" ry="18"/>
<text text-anchor="middle" x="586" y="-86.3" font-family="Times,serif" font-size="14.00">Cos</text>
</a>
</g>
</g>
<!-- f4&#45;&gt;f1 -->
<g id="edge24" class="edge">
<title>f4&#45;&gt;f1</title>
<g id="a_edge24"><a xlink:title="Function ID=4 depends on function ID=1">
<path fill="none" stroke="black" d="M561.06,-81.24C520.53,-68.63 440.33,-43.68 394.74,-29.5"/>
<polygon fill="black" stroke="black" points="395.62,-26.1 385.03,-26.48 393.54,-32.79 395.62,-26.1"/>
</a>
</g>
</g>
<!-- f7333 -->
<g id="node14" class="node">
<title>f7333</title>
<g id="a_node14"><a xlink:title="Function ID=7333 &#10; contains 1 duplicate subfunctions">
<ellipse fill="lightblue" stroke="lightblue" cx="361" cy="-90" rx="32.49" ry="18"/>
<text text-anchor="middle" x="361" y="-86.3" font-family="Times,serif" font-size="14.00">6.0 *</text>
</a>
</g>
</g>
<!-- f7333&#45;&gt;f1 -->
<g id="edge26" class="edge">
<title>f7333&#45;&gt;f1</title>
<g id="a_edge26"><a xlink:title="Function ID=7333 depends on function ID=1">
<path fill="none" stroke="black" d="M361,-71.7C361,-63.98 361,-54.71 361,-46.11"/>
<polygon fill="black" stroke="black" points="364.5,-46.1 361,-36.1 357.5,-46.1 364.5,-46.1"/>
</a>
</g>
</g>
<!-- f7334&#45;&gt;f7333 -->
<g id="edge19" class="edge">
<title>f7334&#45;&gt;f7333</title>
<g id="a_edge19"><a xlink:title="Function ID=7334 depends on function ID=7333">
<path fill="none" stroke="black" d="M374.19,-215.87C371.63,-191.67 366.94,-147.21 363.89,-118.39"/>
<polygon fill="black" stroke="black" points="367.35,-117.77 362.82,-108.19 360.39,-118.5 367.35,-117.77"/>
</a>
</g>
</g>
<!-- f7146 -->
<g id="node18" class="node">
<title>f7146</title>
<g id="a_node18"><a xlink:title="Function ID=7146 &#10; contains 0 duplicate subfunctions">
<ellipse fill="lightgreen" stroke="lightgreen" cx="414" cy="-162" rx="27" ry="18"/>
<text text-anchor="middle" x="414" y="-158.3" font-family="Times,serif" font-size="14.00">0.0</text>
</a>
</g>
</g>
<!-- f7334&#45;&gt;f7146 -->
<g id="edge7" class="edge">
<title>f7334&#45;&gt;f7146</title>
<g id="a_edge7"><a xlink:title="Function ID=7334 depends on function ID=7146">
<path fill="none" stroke="black" d="M384.81,-216.76C389.42,-208.28 395.16,-197.71 400.32,-188.2"/>
<polygon fill="black" stroke="black" points="403.54,-189.61 405.23,-179.15 397.39,-186.27 403.54,-189.61"/>
</a>
</g>
</g>
<!-- f7273 -->
<g id="node16" class="node">
<title>f7273</title>
<g id="a_node16"><a xlink:title="Function ID=7273 &#10; contains 2 duplicate subfunctions">
<ellipse fill="lightblue" stroke="lightblue" cx="464" cy="-90" rx="27" ry="18"/>
<text text-anchor="middle" x="464" y="-86.3" font-family="Times,serif" font-size="14.00">*</text>
</a>
</g>
</g>
<!-- f7273&#45;&gt;f1 -->
<g id="edge15" class="edge">
<title>f7273&#45;&gt;f1</title>
<g id="a_edge15"><a xlink:title="Function ID=7273 depends on function ID=1">
<path fill="none" stroke="black" d="M445.59,-76.49C429.47,-65.54 405.87,-49.49 387.69,-37.14"/>
<polygon fill="black" stroke="black" points="389.49,-34.13 379.25,-31.41 385.56,-39.92 389.49,-34.13"/>
</a>
</g>
</g>
<!-- f7274&#45;&gt;f7273 -->
<g id="edge18" class="edge">
<title>f7274&#45;&gt;f7273</title>
<g id="a_edge18"><a xlink:title="Function ID=7274 depends on function ID=7273">
<path fill="none" stroke="black" d="M484.46,-144.05C481.38,-136.06 477.63,-126.33 474.18,-117.4"/>
<polygon fill="black" stroke="black" points="477.34,-115.86 470.48,-107.79 470.81,-118.38 477.34,-115.86"/>
</a>
</g>
</g>
<!-- f7087&#45;&gt;f1 -->
<g id="edge13" class="edge">
<title>f7087&#45;&gt;f1</title>
<g id="a_edge13"><a xlink:title="Function ID=7087 depends on function ID=1">
<path fill="none" stroke="black" d="M186.28,-79.85C222.67,-67.17 288.41,-44.28 328.05,-30.48"/>
<polygon fill="black" stroke="black" points="329.24,-33.77 337.53,-27.17 326.93,-27.16 329.24,-33.77"/>
</a>
</g>
</g>
<!-- f7088&#45;&gt;f3 -->
<g id="edge11" class="edge">
<title>f7088&#45;&gt;f3</title>
<g id="a_edge11"><a xlink:title="Function ID=7088 depends on function ID=3">
<path fill="none" stroke="black" d="M202.84,-146.15C218.73,-135.36 240.34,-120.67 257.26,-109.17"/>
<polygon fill="black" stroke="black" points="259.33,-112 265.63,-103.48 255.39,-106.21 259.33,-112"/>
</a>
</g>
</g>
<!-- f7094&#45;&gt;f4 -->
<g id="edge10" class="edge">
<title>f7094&#45;&gt;f4</title>
<g id="a_edge10"><a xlink:title="Function ID=7094 depends on function ID=4">
<path fill="none" stroke="black" d="M586,-143.7C586,-135.98 586,-126.71 586,-118.11"/>
<polygon fill="black" stroke="black" points="589.5,-118.1 586,-108.1 582.5,-118.1 589.5,-118.1"/>
</a>
</g>
</g>
<!-- f7132 -->
<g id="node23" class="node">
<title>f7132</title>
<g id="a_node23"><a xlink:title="Function ID=7132 &#10; contains 2 duplicate subfunctions">
<ellipse fill="lightblue" stroke="lightblue" cx="692" cy="-162" rx="43.59" ry="18"/>
<text text-anchor="middle" x="692" y="-158.3" font-family="Times,serif" font-size="14.00">unary &#45;</text>
</a>
</g>
</g>
<!-- f7132&#45;&gt;f4 -->
<g id="edge9" class="edge">
<title>f7132&#45;&gt;f4</title>
<g id="a_edge9"><a xlink:title="Function ID=7132 depends on function ID=4">
<path fill="none" stroke="black" d="M669.78,-146.33C653.44,-135.54 631.14,-120.81 613.65,-109.26"/>
<polygon fill="black" stroke="black" points="615.27,-106.14 605,-103.55 611.41,-111.98 615.27,-106.14"/>
</a>
</g>
</g>
<!-- f7133&#45;&gt;f7132 -->
<g id="edge22" class="edge">
<title>f7133&#45;&gt;f7132</title>
<g id="a_edge22"><a xlink:title="Function ID=7133 depends on function ID=7132">
<path fill="none" stroke="black" d="M692,-215.7C692,-207.98 692,-198.71 692,-190.11"/>
<polygon fill="black" stroke="black" points="695.5,-190.1 692,-180.1 688.5,-190.1 695.5,-190.1"/>
</a>
</g>
</g>
</g>
</svg>
