<?xml version="1.0" encoding="UTF-8" standalone="no"?>
<!DOCTYPE svg PUBLIC "-//W3C//DTD SVG 1.1//EN"
 "http://www.w3.org/Graphics/SVG/1.1/DTD/svg11.dtd">
<!-- Generated by graphviz version 2.43.0 (0)
 -->
<!-- Title: %3 Pages: 1 -->
<svg width="147pt" height="190pt"
 viewBox="0.00 0.00 147.00 190.00" xmlns="http://www.w3.org/2000/svg" xmlns:xlink="http://www.w3.org/1999/xlink">
<g id="graph0" class="graph" transform="scale(1 1) rotate(0) translate(4 186)">
<title>%3</title>
<g id="a_graph0"><a xlink:title="Hey! Notice that red nodes are clickable and &#10; tooltips contain additional information!">
<polygon fill="white" stroke="transparent" points="-4,4 -4,-186 143,-186 143,4 -4,4"/>
</a>
</g>
<!-- function0 -->
<g id="node1" class="node">
<title>function0</title>
<g id="a_node1"><a xlink:href="inspected-f2404-optimized-0.svg" xlink:title="original function &#10; contains 2 duplicate subfunctions &#10; contains 2 unique subfunctions &#10; (and is clickable)">
<path fill="red" stroke="red" d="M127,-182C127,-182 12,-182 12,-182 6,-182 0,-176 0,-170 0,-170 0,-156 0,-156 0,-150 6,-144 12,-144 12,-144 127,-144 127,-144 133,-144 139,-150 139,-156 139,-156 139,-170 139,-170 139,-176 133,-182 127,-182"/>
<text text-anchor="middle" x="69.5" y="-166.8" font-family="Times,serif" font-size="14.00">(0.9) ** (X) </text>
<text text-anchor="middle" x="69.5" y="-151.8" font-family="Times,serif" font-size="14.00"> original function</text>
</a>
</g>
</g>
<!-- f2404 -->
<g id="node2" class="node">
<title>f2404</title>
<g id="a_node2"><a xlink:title="Function ID=2404 &#10; contains 1 duplicate subfunctions">
<ellipse fill="lightblue" stroke="lightblue" cx="69.5" cy="-90" rx="40.09" ry="18"/>
<text text-anchor="middle" x="69.5" y="-86.3" font-family="Times,serif" font-size="14.00">0.9 ** </text>
</a>
</g>
</g>
<!-- function0&#45;&gt;f2404 -->
<g id="edge1" class="edge">
<title>function0&#45;&gt;f2404</title>
<path fill="none" stroke="black" d="M69.5,-143.72C69.5,-135.97 69.5,-126.79 69.5,-118.27"/>
<polygon fill="black" stroke="black" points="73,-118 69.5,-108 66,-118 73,-118"/>
</g>
<!-- f1 -->
<g id="node3" class="node">
<title>f1</title>
<g id="a_node3"><a xlink:title="Function ID=1 &#10; contains 0 duplicate subfunctions">
<ellipse fill="lightgreen" stroke="lightgreen" cx="69.5" cy="-18" rx="27" ry="18"/>
<text text-anchor="middle" x="69.5" y="-14.3" font-family="Times,serif" font-size="14.00">X</text>
</a>
</g>
</g>
<!-- f2404&#45;&gt;f1 -->
<g id="edge2" class="edge">
<title>f2404&#45;&gt;f1</title>
<g id="a_edge2"><a xlink:title="Function ID=2404 depends on function ID=1">
<path fill="none" stroke="black" d="M69.5,-71.7C69.5,-63.98 69.5,-54.71 69.5,-46.11"/>
<polygon fill="black" stroke="black" points="73,-46.1 69.5,-36.1 66,-46.1 73,-46.1"/>
</a>
</g>
</g>
</g>
</svg>
