<?xml version="1.0" encoding="UTF-8" standalone="no"?>
<!DOCTYPE svg PUBLIC "-//W3C//DTD SVG 1.1//EN"
 "http://www.w3.org/Graphics/SVG/1.1/DTD/svg11.dtd">
<!-- Generated by graphviz version 2.43.0 (0)
 -->
<!-- Title: %3 Pages: 1 -->
<svg width="445pt" height="554pt"
 viewBox="0.00 0.00 444.50 554.00" xmlns="http://www.w3.org/2000/svg" xmlns:xlink="http://www.w3.org/1999/xlink">
<g id="graph0" class="graph" transform="scale(1 1) rotate(0) translate(4 550)">
<title>%3</title>
<g id="a_graph0"><a xlink:title="Hey! Notice that red nodes are clickable and &#10; tooltips contain additional information!">
<polygon fill="white" stroke="transparent" points="-4,4 -4,-550 440.5,-550 440.5,4 -4,4"/>
</a>
</g>
<!-- function0 -->
<g id="node1" class="node">
<title>function0</title>
<g id="a_node1"><a xlink:href="inspected-f378-graph-0.svg" xlink:title="original function &#10; contains 2 duplicate subfunctions &#10; contains 2 unique subfunctions &#10; (and is clickable)">
<path fill="red" stroke="red" d="M127,-182C127,-182 12,-182 12,-182 6,-182 0,-176 0,-170 0,-170 0,-156 0,-156 0,-150 6,-144 12,-144 12,-144 127,-144 127,-144 133,-144 139,-150 139,-156 139,-156 139,-170 139,-170 139,-176 133,-182 127,-182"/>
<text text-anchor="middle" x="69.5" y="-166.8" font-family="Times,serif" font-size="14.00">(X) ** (5.0) </text>
<text text-anchor="middle" x="69.5" y="-151.8" font-family="Times,serif" font-size="14.00"> original function</text>
</a>
</g>
</g>
<!-- f378 -->
<g id="node2" class="node">
<title>f378</title>
<g id="a_node2"><a xlink:title="Function ID=378 &#10; contains 1 duplicate subfunctions">
<ellipse fill="lightblue" stroke="lightblue" cx="89.5" cy="-90" rx="31.4" ry="18"/>
<text text-anchor="middle" x="89.5" y="-86.3" font-family="Times,serif" font-size="14.00"> ** 5</text>
</a>
</g>
</g>
<!-- function0&#45;&gt;f378 -->
<g id="edge1" class="edge">
<title>function0&#45;&gt;f378</title>
<path fill="none" stroke="black" d="M74.65,-143.72C76.88,-135.8 79.53,-126.38 81.98,-117.71"/>
<polygon fill="black" stroke="black" points="85.37,-118.58 84.71,-108 78.63,-116.68 85.37,-118.58"/>
</g>
<!-- f1 -->
<g id="node8" class="node">
<title>f1</title>
<g id="a_node8"><a xlink:title="Function ID=1 &#10; contains 0 duplicate subfunctions">
<ellipse fill="lightgreen" stroke="lightgreen" cx="189.5" cy="-18" rx="27" ry="18"/>
<text text-anchor="middle" x="189.5" y="-14.3" font-family="Times,serif" font-size="14.00">X</text>
</a>
</g>
</g>
<!-- f378&#45;&gt;f1 -->
<g id="edge6" class="edge">
<title>f378&#45;&gt;f1</title>
<g id="a_edge6"><a xlink:title="Function ID=378 depends on function ID=1">
<path fill="none" stroke="black" d="M108.78,-75.5C124.25,-64.68 146.11,-49.37 163.19,-37.42"/>
<polygon fill="black" stroke="black" points="165.44,-40.12 171.62,-31.51 161.42,-34.38 165.44,-40.12"/>
</a>
</g>
</g>
<!-- function1 -->
<g id="node3" class="node">
<title>function1</title>
<g id="a_node3"><a xlink:href="inspected-f378-graph-1.svg" xlink:title="1st derivative function &#10; contains 5 duplicate subfunctions &#10; contains 5 unique subfunctions &#10; (and is clickable)">
<path fill="red" stroke="red" d="M311.5,-472C311.5,-472 215.5,-472 215.5,-472 209.5,-472 203.5,-466 203.5,-460 203.5,-460 203.5,-446 203.5,-446 203.5,-440 209.5,-434 215.5,-434 215.5,-434 311.5,-434 311.5,-434 317.5,-434 323.5,-440 323.5,-446 323.5,-446 323.5,-460 323.5,-460 323.5,-466 317.5,-472 311.5,-472"/>
<text text-anchor="middle" x="263.5" y="-456.8" font-family="Times,serif" font-size="14.00">(X) ** (5.0) </text>
<text text-anchor="middle" x="263.5" y="-441.8" font-family="Times,serif" font-size="14.00"> 1st derivative</text>
</a>
</g>
</g>
<!-- f382 -->
<g id="node4" class="node">
<title>f382</title>
<g id="a_node4"><a xlink:title="Function ID=382 &#10; contains 4 duplicate subfunctions">
<ellipse fill="lightblue" stroke="lightblue" cx="279.5" cy="-380" rx="27" ry="18"/>
<text text-anchor="middle" x="279.5" y="-376.3" font-family="Times,serif" font-size="14.00">*</text>
</a>
</g>
</g>
<!-- function1&#45;&gt;f382 -->
<g id="edge2" class="edge">
<title>function1&#45;&gt;f382</title>
<path fill="none" stroke="black" d="M267.62,-433.72C269.38,-425.89 271.48,-416.59 273.42,-407.99"/>
<polygon fill="black" stroke="black" points="276.88,-408.53 275.67,-398 270.06,-406.99 276.88,-408.53"/>
</g>
<!-- f380 -->
<g id="node16" class="node">
<title>f380</title>
<g id="a_node16"><a xlink:title="Function ID=380 &#10; contains 2 duplicate subfunctions">
<ellipse fill="lightblue" stroke="lightblue" cx="332.5" cy="-308" rx="32.49" ry="18"/>
<text text-anchor="middle" x="332.5" y="-304.3" font-family="Times,serif" font-size="14.00">5.0 *</text>
</a>
</g>
</g>
<!-- f382&#45;&gt;f380 -->
<g id="edge10" class="edge">
<title>f382&#45;&gt;f380</title>
<g id="a_edge10"><a xlink:title="Function ID=382 depends on function ID=380">
<path fill="none" stroke="black" d="M291.26,-363.46C298.03,-354.53 306.67,-343.11 314.3,-333.04"/>
<polygon fill="black" stroke="black" points="317.16,-335.06 320.4,-324.98 311.58,-330.84 317.16,-335.06"/>
</a>
</g>
</g>
<!-- f381 -->
<g id="node17" class="node">
<title>f381</title>
<g id="a_node17"><a xlink:title="Function ID=381 &#10; contains 0 duplicate subfunctions">
<ellipse fill="lightgreen" stroke="lightgreen" cx="255.5" cy="-308" rx="27" ry="18"/>
<text text-anchor="middle" x="255.5" y="-304.3" font-family="Times,serif" font-size="14.00">1.0</text>
</a>
</g>
</g>
<!-- f382&#45;&gt;f381 -->
<g id="edge13" class="edge">
<title>f382&#45;&gt;f381</title>
<g id="a_edge13"><a xlink:title="Function ID=382 depends on function ID=381">
<path fill="none" stroke="black" d="M273.69,-362.05C270.95,-354.06 267.61,-344.33 264.55,-335.4"/>
<polygon fill="black" stroke="black" points="267.81,-334.11 261.26,-325.79 261.19,-336.38 267.81,-334.11"/>
</a>
</g>
</g>
<!-- function2 -->
<g id="node5" class="node">
<title>function2</title>
<g id="a_node5"><a xlink:href="inspected-f378-graph-2.svg" xlink:title="2nd derivative function &#10; contains 14 duplicate subfunctions &#10; contains 13 unique subfunctions &#10; (and is clickable)">
<path fill="red" stroke="red" d="M419,-546C419,-546 318,-546 318,-546 312,-546 306,-540 306,-534 306,-534 306,-520 306,-520 306,-514 312,-508 318,-508 318,-508 419,-508 419,-508 425,-508 431,-514 431,-520 431,-520 431,-534 431,-534 431,-540 425,-546 419,-546"/>
<text text-anchor="middle" x="368.5" y="-530.8" font-family="Times,serif" font-size="14.00">(X) ** (5.0) </text>
<text text-anchor="middle" x="368.5" y="-515.8" font-family="Times,serif" font-size="14.00"> 2nd derivative</text>
</a>
</g>
</g>
<!-- f391 -->
<g id="node6" class="node">
<title>f391</title>
<g id="a_node6"><a xlink:title="Function ID=391 &#10; contains 13 duplicate subfunctions">
<ellipse fill="lightblue" stroke="lightblue" cx="368.5" cy="-453" rx="27" ry="18"/>
<text text-anchor="middle" x="368.5" y="-449.3" font-family="Times,serif" font-size="14.00">+</text>
</a>
</g>
</g>
<!-- function2&#45;&gt;f391 -->
<g id="edge3" class="edge">
<title>function2&#45;&gt;f391</title>
<path fill="none" stroke="black" d="M368.5,-507.83C368.5,-499.89 368.5,-490.41 368.5,-481.63"/>
<polygon fill="black" stroke="black" points="372,-481.42 368.5,-471.42 365,-481.42 372,-481.42"/>
</g>
<!-- f388 -->
<g id="node12" class="node">
<title>f388</title>
<g id="a_node12"><a xlink:title="Function ID=388 &#10; contains 7 duplicate subfunctions">
<ellipse fill="lightblue" stroke="lightblue" cx="207.5" cy="-380" rx="27" ry="18"/>
<text text-anchor="middle" x="207.5" y="-376.3" font-family="Times,serif" font-size="14.00">*</text>
</a>
</g>
</g>
<!-- f391&#45;&gt;f388 -->
<g id="edge9" class="edge">
<title>f391&#45;&gt;f388</title>
<g id="a_edge9"><a xlink:title="Function ID=391 depends on function ID=388">
<path fill="none" stroke="black" d="M347.69,-441.25C342.75,-438.79 337.47,-436.24 332.5,-434 293.61,-416.45 282.59,-415.12 243.5,-398 241.7,-397.21 239.85,-396.38 237.99,-395.54"/>
<polygon fill="black" stroke="black" points="239.27,-392.28 228.73,-391.27 236.34,-398.64 239.27,-392.28"/>
</a>
</g>
</g>
<!-- f390 -->
<g id="node14" class="node">
<title>f390</title>
<g id="a_node14"><a xlink:title="Function ID=390 &#10; contains 4 duplicate subfunctions">
<ellipse fill="lightblue" stroke="lightblue" cx="368.5" cy="-380" rx="27" ry="18"/>
<text text-anchor="middle" x="368.5" y="-376.3" font-family="Times,serif" font-size="14.00">*</text>
</a>
</g>
</g>
<!-- f391&#45;&gt;f390 -->
<g id="edge18" class="edge">
<title>f391&#45;&gt;f390</title>
<g id="a_edge18"><a xlink:title="Function ID=391 depends on function ID=390">
<path fill="none" stroke="black" d="M368.5,-434.81C368.5,-426.79 368.5,-417.05 368.5,-408.07"/>
<polygon fill="black" stroke="black" points="372,-408.03 368.5,-398.03 365,-408.03 372,-408.03"/>
</a>
</g>
</g>
<!-- f384 -->
<g id="node7" class="node">
<title>f384</title>
<g id="a_node7"><a xlink:title="Function ID=384 &#10; contains 2 duplicate subfunctions">
<ellipse fill="lightblue" stroke="lightblue" cx="189.5" cy="-163" rx="32.49" ry="18"/>
<text text-anchor="middle" x="189.5" y="-159.3" font-family="Times,serif" font-size="14.00">4.0 *</text>
</a>
</g>
</g>
<!-- f383 -->
<g id="node18" class="node">
<title>f383</title>
<g id="a_node18"><a xlink:title="Function ID=383 &#10; contains 1 duplicate subfunctions">
<ellipse fill="lightblue" stroke="lightblue" cx="189.5" cy="-90" rx="31.4" ry="18"/>
<text text-anchor="middle" x="189.5" y="-86.3" font-family="Times,serif" font-size="14.00"> ** 3</text>
</a>
</g>
</g>
<!-- f384&#45;&gt;f383 -->
<g id="edge16" class="edge">
<title>f384&#45;&gt;f383</title>
<g id="a_edge16"><a xlink:title="Function ID=384 depends on function ID=383">
<path fill="none" stroke="black" d="M189.5,-144.81C189.5,-136.79 189.5,-127.05 189.5,-118.07"/>
<polygon fill="black" stroke="black" points="193,-118.03 189.5,-108.03 186,-118.03 193,-118.03"/>
</a>
</g>
</g>
<!-- f385 -->
<g id="node9" class="node">
<title>f385</title>
<g id="a_node9"><a xlink:title="Function ID=385 &#10; contains 0 duplicate subfunctions">
<ellipse fill="lightgreen" stroke="lightgreen" cx="266.5" cy="-163" rx="27" ry="18"/>
<text text-anchor="middle" x="266.5" y="-159.3" font-family="Times,serif" font-size="14.00">1.0</text>
</a>
</g>
</g>
<!-- f386 -->
<g id="node10" class="node">
<title>f386</title>
<g id="a_node10"><a xlink:title="Function ID=386 &#10; contains 4 duplicate subfunctions">
<ellipse fill="lightblue" stroke="lightblue" cx="189.5" cy="-236" rx="27" ry="18"/>
<text text-anchor="middle" x="189.5" y="-232.3" font-family="Times,serif" font-size="14.00">*</text>
</a>
</g>
</g>
<!-- f386&#45;&gt;f384 -->
<g id="edge11" class="edge">
<title>f386&#45;&gt;f384</title>
<g id="a_edge11"><a xlink:title="Function ID=386 depends on function ID=384">
<path fill="none" stroke="black" d="M189.5,-217.81C189.5,-209.79 189.5,-200.05 189.5,-191.07"/>
<polygon fill="black" stroke="black" points="193,-191.03 189.5,-181.03 186,-191.03 193,-191.03"/>
</a>
</g>
</g>
<!-- f386&#45;&gt;f385 -->
<g id="edge17" class="edge">
<title>f386&#45;&gt;f385</title>
<g id="a_edge17"><a xlink:title="Function ID=386 depends on function ID=385">
<path fill="none" stroke="black" d="M204.71,-220.97C215.89,-210.66 231.27,-196.49 243.88,-184.86"/>
<polygon fill="black" stroke="black" points="246.34,-187.35 251.32,-178 241.59,-182.2 246.34,-187.35"/>
</a>
</g>
</g>
<!-- f387 -->
<g id="node11" class="node">
<title>f387</title>
<g id="a_node11"><a xlink:title="Function ID=387 &#10; contains 5 duplicate subfunctions">
<ellipse fill="lightblue" stroke="lightblue" cx="178.5" cy="-308" rx="32.49" ry="18"/>
<text text-anchor="middle" x="178.5" y="-304.3" font-family="Times,serif" font-size="14.00">5.0 *</text>
</a>
</g>
</g>
<!-- f387&#45;&gt;f386 -->
<g id="edge15" class="edge">
<title>f387&#45;&gt;f386</title>
<g id="a_edge15"><a xlink:title="Function ID=387 depends on function ID=386">
<path fill="none" stroke="black" d="M181.16,-290.05C182.37,-282.35 183.84,-273.03 185.2,-264.36"/>
<polygon fill="black" stroke="black" points="188.69,-264.7 186.79,-254.28 181.78,-263.61 188.69,-264.7"/>
</a>
</g>
</g>
<!-- f388&#45;&gt;f387 -->
<g id="edge14" class="edge">
<title>f388&#45;&gt;f387</title>
<g id="a_edge14"><a xlink:title="Function ID=388 depends on function ID=387">
<path fill="none" stroke="black" d="M200.63,-362.41C197.28,-354.34 193.18,-344.43 189.42,-335.35"/>
<polygon fill="black" stroke="black" points="192.59,-333.86 185.52,-325.96 186.12,-336.53 192.59,-333.86"/>
</a>
</g>
</g>
<!-- f388&#45;&gt;f381 -->
<g id="edge8" class="edge">
<title>f388&#45;&gt;f381</title>
<g id="a_edge8"><a xlink:title="Function ID=388 depends on function ID=381">
<path fill="none" stroke="black" d="M218.39,-363.12C224.47,-354.26 232.16,-343.04 238.96,-333.12"/>
<polygon fill="black" stroke="black" points="241.88,-335.05 244.65,-324.82 236.11,-331.09 241.88,-335.05"/>
</a>
</g>
</g>
<!-- f389 -->
<g id="node13" class="node">
<title>f389</title>
<g id="a_node13"><a xlink:title="Function ID=389 &#10; contains 0 duplicate subfunctions">
<ellipse fill="lightgreen" stroke="lightgreen" cx="409.5" cy="-308" rx="27" ry="18"/>
<text text-anchor="middle" x="409.5" y="-304.3" font-family="Times,serif" font-size="14.00">0.0</text>
</a>
</g>
</g>
<!-- f390&#45;&gt;f389 -->
<g id="edge19" class="edge">
<title>f390&#45;&gt;f389</title>
<g id="a_edge19"><a xlink:title="Function ID=390 depends on function ID=389">
<path fill="none" stroke="black" d="M378.01,-362.76C383.03,-354.19 389.3,-343.49 394.92,-333.9"/>
<polygon fill="black" stroke="black" points="398.01,-335.55 400.04,-325.15 391.97,-332.01 398.01,-335.55"/>
</a>
</g>
</g>
<!-- f390&#45;&gt;f380 -->
<g id="edge7" class="edge">
<title>f390&#45;&gt;f380</title>
<g id="a_edge7"><a xlink:title="Function ID=390 depends on function ID=380">
<path fill="none" stroke="black" d="M360.15,-362.76C355.85,-354.4 350.51,-344.02 345.67,-334.61"/>
<polygon fill="black" stroke="black" points="348.74,-332.93 341.05,-325.63 342.52,-336.13 348.74,-332.93"/>
</a>
</g>
</g>
<!-- f379 -->
<g id="node15" class="node">
<title>f379</title>
<g id="a_node15"><a xlink:title="Function ID=379 &#10; contains 1 duplicate subfunctions">
<ellipse fill="lightblue" stroke="lightblue" cx="329.5" cy="-236" rx="31.4" ry="18"/>
<text text-anchor="middle" x="329.5" y="-232.3" font-family="Times,serif" font-size="14.00"> ** 4</text>
</a>
</g>
</g>
<!-- f379&#45;&gt;f1 -->
<g id="edge5" class="edge">
<title>f379&#45;&gt;f1</title>
<g id="a_edge5"><a xlink:title="Function ID=379 depends on function ID=1">
<path fill="none" stroke="black" d="M326.8,-218.01C323.27,-199.03 315.9,-167.85 302.5,-144 278.97,-102.11 239.13,-62.52 213.58,-39.53"/>
<polygon fill="black" stroke="black" points="215.64,-36.67 205.83,-32.66 211,-41.91 215.64,-36.67"/>
</a>
</g>
</g>
<!-- f380&#45;&gt;f379 -->
<g id="edge12" class="edge">
<title>f380&#45;&gt;f379</title>
<g id="a_edge12"><a xlink:title="Function ID=380 depends on function ID=379">
<path fill="none" stroke="black" d="M331.76,-289.7C331.43,-281.98 331.03,-272.71 330.66,-264.11"/>
<polygon fill="black" stroke="black" points="334.16,-263.95 330.23,-254.1 327.16,-264.25 334.16,-263.95"/>
</a>
</g>
</g>
<!-- f383&#45;&gt;f1 -->
<g id="edge4" class="edge">
<title>f383&#45;&gt;f1</title>
<g id="a_edge4"><a xlink:title="Function ID=383 depends on function ID=1">
<path fill="none" stroke="black" d="M189.5,-71.7C189.5,-63.98 189.5,-54.71 189.5,-46.11"/>
<polygon fill="black" stroke="black" points="193,-46.1 189.5,-36.1 186,-46.1 193,-46.1"/>
</a>
</g>
</g>
</g>
</svg>
