<?xml version="1.0" encoding="utf-8" standalone="no"?>
<!DOCTYPE svg PUBLIC "-//W3C//DTD SVG 1.1//EN"
  "http://www.w3.org/Graphics/SVG/1.1/DTD/svg11.dtd">
<svg xmlns:xlink="http://www.w3.org/1999/xlink" width="460.8pt" height="345.6pt" viewBox="0 0 460.8 345.6" xmlns="http://www.w3.org/2000/svg" version="1.1">
 <metadata>
  <rdf:RDF xmlns:dc="http://purl.org/dc/elements/1.1/" xmlns:cc="http://creativecommons.org/ns#" xmlns:rdf="http://www.w3.org/1999/02/22-rdf-syntax-ns#">
   <cc:Work>
    <dc:type rdf:resource="http://purl.org/dc/dcmitype/StillImage"/>
    <dc:date>2023-11-19T21:06:46.514698</dc:date>
    <dc:format>image/svg+xml</dc:format>
    <dc:creator>
     <cc:Agent>
      <dc:title>Matplotlib v3.6.3, https://matplotlib.org/</dc:title>
     </cc:Agent>
    </dc:creator>
   </cc:Work>
  </rdf:RDF>
 </metadata>
 <defs>
  <style type="text/css">*{stroke-linejoin: round; stroke-linecap: butt}</style>
 </defs>
 <g id="figure_1">
  <g id="patch_1">
   <path d="M 0 345.6 
L 460.8 345.6 
L 460.8 0 
L 0 0 
z
" style="fill: #ffffff"/>
  </g>
  <g id="axes_1">
   <g id="patch_2">
    <path d="M 57.6 307.584 
L 414.72 307.584 
L 414.72 41.472 
L 57.6 41.472 
z
" style="fill: #ffffff"/>
   </g>
   <g id="matplotlib.axis_1">
    <g id="xtick_1">
     <g id="line2d_1">
      <defs>
       <path id="m3fdc141f4c" d="M 0 0 
L 0 3.5 
" style="stroke: #000000; stroke-width: 0.8"/>
      </defs>
      <g>
       <use xlink:href="#m3fdc141f4c" x="73.832727" y="307.584" style="stroke: #000000; stroke-width: 0.8"/>
      </g>
     </g>
     <g id="text_1">
      <!-- 0 -->
      <g transform="translate(70.651477 322.182437) scale(0.1 -0.1)">
       <defs>
        <path id="DejaVuSans-30" d="M 2034 4250 
Q 1547 4250 1301 3770 
Q 1056 3291 1056 2328 
Q 1056 1369 1301 889 
Q 1547 409 2034 409 
Q 2525 409 2770 889 
Q 3016 1369 3016 2328 
Q 3016 3291 2770 3770 
Q 2525 4250 2034 4250 
z
M 2034 4750 
Q 2819 4750 3233 4129 
Q 3647 3509 3647 2328 
Q 3647 1150 3233 529 
Q 2819 -91 2034 -91 
Q 1250 -91 836 529 
Q 422 1150 422 2328 
Q 422 3509 836 4129 
Q 1250 4750 2034 4750 
z
" transform="scale(0.015625)"/>
       </defs>
       <use xlink:href="#DejaVuSans-30"/>
      </g>
     </g>
    </g>
    <g id="xtick_2">
     <g id="line2d_2">
      <g>
       <use xlink:href="#m3fdc141f4c" x="138.763636" y="307.584" style="stroke: #000000; stroke-width: 0.8"/>
      </g>
     </g>
     <g id="text_2">
      <!-- 2 -->
      <g transform="translate(135.582386 322.182437) scale(0.1 -0.1)">
       <defs>
        <path id="DejaVuSans-32" d="M 1228 531 
L 3431 531 
L 3431 0 
L 469 0 
L 469 531 
Q 828 903 1448 1529 
Q 2069 2156 2228 2338 
Q 2531 2678 2651 2914 
Q 2772 3150 2772 3378 
Q 2772 3750 2511 3984 
Q 2250 4219 1831 4219 
Q 1534 4219 1204 4116 
Q 875 4013 500 3803 
L 500 4441 
Q 881 4594 1212 4672 
Q 1544 4750 1819 4750 
Q 2544 4750 2975 4387 
Q 3406 4025 3406 3419 
Q 3406 3131 3298 2873 
Q 3191 2616 2906 2266 
Q 2828 2175 2409 1742 
Q 1991 1309 1228 531 
z
" transform="scale(0.015625)"/>
       </defs>
       <use xlink:href="#DejaVuSans-32"/>
      </g>
     </g>
    </g>
    <g id="xtick_3">
     <g id="line2d_3">
      <g>
       <use xlink:href="#m3fdc141f4c" x="203.694545" y="307.584" style="stroke: #000000; stroke-width: 0.8"/>
      </g>
     </g>
     <g id="text_3">
      <!-- 4 -->
      <g transform="translate(200.513295 322.182437) scale(0.1 -0.1)">
       <defs>
        <path id="DejaVuSans-34" d="M 2419 4116 
L 825 1625 
L 2419 1625 
L 2419 4116 
z
M 2253 4666 
L 3047 4666 
L 3047 1625 
L 3713 1625 
L 3713 1100 
L 3047 1100 
L 3047 0 
L 2419 0 
L 2419 1100 
L 313 1100 
L 313 1709 
L 2253 4666 
z
" transform="scale(0.015625)"/>
       </defs>
       <use xlink:href="#DejaVuSans-34"/>
      </g>
     </g>
    </g>
    <g id="xtick_4">
     <g id="line2d_4">
      <g>
       <use xlink:href="#m3fdc141f4c" x="268.625455" y="307.584" style="stroke: #000000; stroke-width: 0.8"/>
      </g>
     </g>
     <g id="text_4">
      <!-- 6 -->
      <g transform="translate(265.444205 322.182437) scale(0.1 -0.1)">
       <defs>
        <path id="DejaVuSans-36" d="M 2113 2584 
Q 1688 2584 1439 2293 
Q 1191 2003 1191 1497 
Q 1191 994 1439 701 
Q 1688 409 2113 409 
Q 2538 409 2786 701 
Q 3034 994 3034 1497 
Q 3034 2003 2786 2293 
Q 2538 2584 2113 2584 
z
M 3366 4563 
L 3366 3988 
Q 3128 4100 2886 4159 
Q 2644 4219 2406 4219 
Q 1781 4219 1451 3797 
Q 1122 3375 1075 2522 
Q 1259 2794 1537 2939 
Q 1816 3084 2150 3084 
Q 2853 3084 3261 2657 
Q 3669 2231 3669 1497 
Q 3669 778 3244 343 
Q 2819 -91 2113 -91 
Q 1303 -91 875 529 
Q 447 1150 447 2328 
Q 447 3434 972 4092 
Q 1497 4750 2381 4750 
Q 2619 4750 2861 4703 
Q 3103 4656 3366 4563 
z
" transform="scale(0.015625)"/>
       </defs>
       <use xlink:href="#DejaVuSans-36"/>
      </g>
     </g>
    </g>
    <g id="xtick_5">
     <g id="line2d_5">
      <g>
       <use xlink:href="#m3fdc141f4c" x="333.556364" y="307.584" style="stroke: #000000; stroke-width: 0.8"/>
      </g>
     </g>
     <g id="text_5">
      <!-- 8 -->
      <g transform="translate(330.375114 322.182437) scale(0.1 -0.1)">
       <defs>
        <path id="DejaVuSans-38" d="M 2034 2216 
Q 1584 2216 1326 1975 
Q 1069 1734 1069 1313 
Q 1069 891 1326 650 
Q 1584 409 2034 409 
Q 2484 409 2743 651 
Q 3003 894 3003 1313 
Q 3003 1734 2745 1975 
Q 2488 2216 2034 2216 
z
M 1403 2484 
Q 997 2584 770 2862 
Q 544 3141 544 3541 
Q 544 4100 942 4425 
Q 1341 4750 2034 4750 
Q 2731 4750 3128 4425 
Q 3525 4100 3525 3541 
Q 3525 3141 3298 2862 
Q 3072 2584 2669 2484 
Q 3125 2378 3379 2068 
Q 3634 1759 3634 1313 
Q 3634 634 3220 271 
Q 2806 -91 2034 -91 
Q 1263 -91 848 271 
Q 434 634 434 1313 
Q 434 1759 690 2068 
Q 947 2378 1403 2484 
z
M 1172 3481 
Q 1172 3119 1398 2916 
Q 1625 2713 2034 2713 
Q 2441 2713 2670 2916 
Q 2900 3119 2900 3481 
Q 2900 3844 2670 4047 
Q 2441 4250 2034 4250 
Q 1625 4250 1398 4047 
Q 1172 3844 1172 3481 
z
" transform="scale(0.015625)"/>
       </defs>
       <use xlink:href="#DejaVuSans-38"/>
      </g>
     </g>
    </g>
    <g id="xtick_6">
     <g id="line2d_6">
      <g>
       <use xlink:href="#m3fdc141f4c" x="398.487273" y="307.584" style="stroke: #000000; stroke-width: 0.8"/>
      </g>
     </g>
     <g id="text_6">
      <!-- 10 -->
      <g transform="translate(392.124773 322.182437) scale(0.1 -0.1)">
       <defs>
        <path id="DejaVuSans-31" d="M 794 531 
L 1825 531 
L 1825 4091 
L 703 3866 
L 703 4441 
L 1819 4666 
L 2450 4666 
L 2450 531 
L 3481 531 
L 3481 0 
L 794 0 
L 794 531 
z
" transform="scale(0.015625)"/>
       </defs>
       <use xlink:href="#DejaVuSans-31"/>
       <use xlink:href="#DejaVuSans-30" x="63.623047"/>
      </g>
     </g>
    </g>
   </g>
   <g id="matplotlib.axis_2">
    <g id="ytick_1">
     <g id="line2d_7">
      <defs>
       <path id="mb29cc2442c" d="M 0 0 
L -3.5 0 
" style="stroke: #000000; stroke-width: 0.8"/>
      </defs>
      <g>
       <use xlink:href="#mb29cc2442c" x="57.6" y="293.149739" style="stroke: #000000; stroke-width: 0.8"/>
      </g>
     </g>
     <g id="text_7">
      <!-- −15 -->
      <g transform="translate(29.495313 296.948958) scale(0.1 -0.1)">
       <defs>
        <path id="DejaVuSans-2212" d="M 678 2272 
L 4684 2272 
L 4684 1741 
L 678 1741 
L 678 2272 
z
" transform="scale(0.015625)"/>
        <path id="DejaVuSans-35" d="M 691 4666 
L 3169 4666 
L 3169 4134 
L 1269 4134 
L 1269 2991 
Q 1406 3038 1543 3061 
Q 1681 3084 1819 3084 
Q 2600 3084 3056 2656 
Q 3513 2228 3513 1497 
Q 3513 744 3044 326 
Q 2575 -91 1722 -91 
Q 1428 -91 1123 -41 
Q 819 9 494 109 
L 494 744 
Q 775 591 1075 516 
Q 1375 441 1709 441 
Q 2250 441 2565 725 
Q 2881 1009 2881 1497 
Q 2881 1984 2565 2268 
Q 2250 2553 1709 2553 
Q 1456 2553 1204 2497 
Q 953 2441 691 2322 
L 691 4666 
z
" transform="scale(0.015625)"/>
       </defs>
       <use xlink:href="#DejaVuSans-2212"/>
       <use xlink:href="#DejaVuSans-31" x="83.789062"/>
       <use xlink:href="#DejaVuSans-35" x="147.412109"/>
      </g>
     </g>
    </g>
    <g id="ytick_2">
     <g id="line2d_8">
      <g>
       <use xlink:href="#mb29cc2442c" x="57.6" y="253.608617" style="stroke: #000000; stroke-width: 0.8"/>
      </g>
     </g>
     <g id="text_8">
      <!-- −10 -->
      <g transform="translate(29.495313 257.407836) scale(0.1 -0.1)">
       <use xlink:href="#DejaVuSans-2212"/>
       <use xlink:href="#DejaVuSans-31" x="83.789062"/>
       <use xlink:href="#DejaVuSans-30" x="147.412109"/>
      </g>
     </g>
    </g>
    <g id="ytick_3">
     <g id="line2d_9">
      <g>
       <use xlink:href="#mb29cc2442c" x="57.6" y="214.067495" style="stroke: #000000; stroke-width: 0.8"/>
      </g>
     </g>
     <g id="text_9">
      <!-- −5 -->
      <g transform="translate(35.857813 217.866713) scale(0.1 -0.1)">
       <use xlink:href="#DejaVuSans-2212"/>
       <use xlink:href="#DejaVuSans-35" x="83.789062"/>
      </g>
     </g>
    </g>
    <g id="ytick_4">
     <g id="line2d_10">
      <g>
       <use xlink:href="#mb29cc2442c" x="57.6" y="174.526372" style="stroke: #000000; stroke-width: 0.8"/>
      </g>
     </g>
     <g id="text_10">
      <!-- 0 -->
      <g transform="translate(44.2375 178.325591) scale(0.1 -0.1)">
       <use xlink:href="#DejaVuSans-30"/>
      </g>
     </g>
    </g>
    <g id="ytick_5">
     <g id="line2d_11">
      <g>
       <use xlink:href="#mb29cc2442c" x="57.6" y="134.98525" style="stroke: #000000; stroke-width: 0.8"/>
      </g>
     </g>
     <g id="text_11">
      <!-- 5 -->
      <g transform="translate(44.2375 138.784469) scale(0.1 -0.1)">
       <use xlink:href="#DejaVuSans-35"/>
      </g>
     </g>
    </g>
    <g id="ytick_6">
     <g id="line2d_12">
      <g>
       <use xlink:href="#mb29cc2442c" x="57.6" y="95.444128" style="stroke: #000000; stroke-width: 0.8"/>
      </g>
     </g>
     <g id="text_12">
      <!-- 10 -->
      <g transform="translate(37.875 99.243347) scale(0.1 -0.1)">
       <use xlink:href="#DejaVuSans-31"/>
       <use xlink:href="#DejaVuSans-30" x="63.623047"/>
      </g>
     </g>
    </g>
    <g id="ytick_7">
     <g id="line2d_13">
      <g>
       <use xlink:href="#mb29cc2442c" x="57.6" y="55.903006" style="stroke: #000000; stroke-width: 0.8"/>
      </g>
     </g>
     <g id="text_13">
      <!-- 15 -->
      <g transform="translate(37.875 59.702225) scale(0.1 -0.1)">
       <use xlink:href="#DejaVuSans-31"/>
       <use xlink:href="#DejaVuSans-35" x="63.623047"/>
      </g>
     </g>
    </g>
   </g>
   <g id="line2d_14">
    <path d="M 73.832727 174.526372 
L 88.117527 174.415501 
L 92.662691 174.135463 
L 96.233891 173.699958 
L 99.480436 173.095994 
L 103.051636 172.19402 
L 107.272145 170.864185 
L 116.687127 167.780171 
L 119.609018 167.115233 
L 122.206255 166.746302 
L 124.803491 166.618161 
L 127.400727 166.741334 
L 129.997964 167.105703 
L 132.919855 167.766439 
L 136.491055 168.83956 
L 148.503273 172.702834 
L 152.074473 173.474067 
L 155.645673 173.996798 
L 159.541527 174.323135 
L 164.411345 174.488059 
L 174.150982 174.52637 
L 190.059055 174.63538 
L 194.604218 174.912552 
L 198.175418 175.344839 
L 201.421964 175.945491 
L 204.993164 176.844009 
L 208.889018 178.061656 
L 218.953309 181.344337 
L 221.8752 181.986863 
L 224.472436 182.331582 
L 227.069673 182.433452 
L 229.666909 182.2841 
L 232.264145 181.895787 
L 235.186036 181.213113 
L 238.757236 180.122996 
L 250.120145 176.445687 
L 253.691345 175.648021 
L 257.262545 175.100019 
L 261.1584 174.751945 
L 266.028218 174.57112 
L 274.793891 174.526428 
L 292.000582 174.419204 
L 296.545745 174.144883 
L 300.116945 173.715803 
L 303.363491 173.11846 
L 306.934691 172.223407 
L 310.830545 171.00843 
L 320.894836 167.721864 
L 323.816727 167.075049 
L 326.413964 166.725718 
L 329.0112 166.618864 
L 331.608436 166.763266 
L 334.205673 167.14707 
L 337.127564 167.825634 
L 340.698764 168.9126 
L 352.061673 172.593693 
L 355.632873 173.394977 
L 359.204073 173.94648 
L 363.099927 174.297596 
L 367.969745 174.48068 
L 376.735418 174.526312 
L 393.942109 174.631724 
L 398.487273 174.903213 
L 398.487273 174.903213 
" clip-path="url(#pb1762391ef)" style="fill: none; stroke: #1f77b4; stroke-width: 1.5; stroke-linecap: square"/>
   </g>
   <g id="line2d_15">
    <path d="M 73.832727 174.526372 
L 81.299782 174.422374 
L 84.221673 174.158859 
L 86.818909 173.688837 
L 89.091491 173.043307 
L 91.364073 172.156632 
L 93.636655 171.035829 
L 96.558545 169.317408 
L 103.700945 164.928492 
L 105.648873 164.048459 
L 107.272145 163.530425 
L 108.895418 163.250146 
L 110.194036 163.218447 
L 111.492655 163.370704 
L 112.791273 163.713949 
L 114.089891 164.250283 
L 115.713164 165.187088 
L 117.336436 166.403088 
L 119.284364 168.188378 
L 121.556945 170.627686 
L 124.803491 174.494885 
L 128.699345 179.096602 
L 130.971927 181.446327 
L 132.919855 183.12818 
L 134.543127 184.244204 
L 136.1664 185.073184 
L 137.465018 185.520726 
L 138.763636 185.775515 
L 140.062255 185.84196 
L 141.685527 185.674562 
L 143.3088 185.254814 
L 144.932073 184.618705 
L 146.88 183.629917 
L 149.801891 181.854747 
L 155.645673 178.222888 
L 158.242909 176.919097 
L 160.515491 176.026901 
L 162.788073 175.376021 
L 165.060655 174.946314 
L 167.657891 174.673462 
L 171.229091 174.541898 
L 180.319418 174.540562 
L 184.215273 174.689388 
L 186.812509 174.979444 
L 189.085091 175.42916 
L 191.357673 176.103047 
L 193.630255 177.01882 
L 195.902836 178.165767 
L 198.824727 179.907117 
L 205.317818 183.927679 
L 207.265745 184.854249 
L 208.889018 185.422065 
L 210.512291 185.760575 
L 212.135564 185.83649 
L 213.434182 185.691723 
L 214.7328 185.356156 
L 216.031418 184.827487 
L 217.654691 183.899927 
L 219.277964 182.692427 
L 221.225891 180.915826 
L 223.498473 178.483876 
L 226.745018 174.620834 
L 230.965527 169.65586 
L 233.238109 167.350275 
L 235.186036 165.717758 
L 236.809309 164.648571 
L 238.432582 163.869451 
L 239.7312 163.46254 
L 241.029818 163.247869 
L 242.328436 163.219996 
L 243.951709 163.431996 
L 245.574982 163.890848 
L 247.522909 164.714416 
L 249.795491 165.955198 
L 253.366691 168.213595 
L 257.262545 170.618727 
L 259.859782 171.962683 
L 262.132364 172.894929 
L 264.404945 173.585052 
L 266.677527 174.049023 
L 269.274764 174.351478 
L 272.521309 174.499193 
L 279.663709 174.525962 
L 285.507491 174.409927 
L 288.429382 174.12863 
L 290.701964 173.71272 
L 292.974545 173.077855 
L 295.247127 172.202232 
L 297.519709 171.091485 
L 300.4416 169.382123 
L 307.908655 164.816536 
L 309.856582 163.965221 
L 311.479855 163.477442 
L 313.103127 163.23219 
L 314.401745 163.231132 
L 315.700364 163.415563 
L 316.998982 163.791695 
L 318.2976 164.360765 
L 319.920873 165.336924 
L 321.544145 166.588949 
L 323.492073 168.410839 
L 325.764655 170.88077 
L 329.660509 175.55366 
L 332.907055 179.340331 
L 335.179636 181.654429 
L 337.127564 183.296387 
L 338.750836 184.374499 
L 340.374109 185.16309 
L 341.672727 185.577697 
L 342.971345 185.799951 
L 344.269964 185.835097 
L 345.893236 185.631485 
L 347.516509 185.179961 
L 349.464436 184.363463 
L 351.737018 183.128249 
L 355.308218 180.872624 
L 359.204073 178.463411 
L 361.801309 177.11405 
L 364.073891 176.176326 
L 366.346473 175.480773 
L 368.619055 175.012009 
L 371.216291 174.705361 
L 374.462836 174.554612 
L 381.605236 174.526739 
L 387.449018 174.639817 
L 390.370909 174.916901 
L 392.643491 175.328255 
L 394.916073 175.957805 
L 397.188655 176.827898 
L 398.487273 177.432475 
L 398.487273 177.432475 
" clip-path="url(#pb1762391ef)" style="fill: none; stroke: #ff7f0e; stroke-width: 1.5; stroke-linecap: square"/>
   </g>
   <g id="line2d_16">
    <path d="M 73.832727 174.526372 
L 76.429964 174.446295 
L 78.053236 174.189049 
L 79.351855 173.787872 
L 80.650473 173.171429 
L 81.949091 172.314497 
L 83.247709 171.206176 
L 84.870982 169.4758 
L 86.494255 167.405066 
L 88.766836 164.09676 
L 92.987345 157.827205 
L 94.610618 155.857306 
L 95.909236 154.63848 
L 96.8832 153.986801 
L 97.857164 153.595047 
L 98.831127 153.490736 
L 99.805091 153.696928 
L 100.779055 154.231552 
L 101.753018 155.106841 
L 102.726982 156.328874 
L 103.700945 157.897247 
L 104.999564 160.513953 
L 106.298182 163.697642 
L 107.921455 168.387216 
L 109.869382 174.849745 
L 112.791273 185.522968 
L 116.037818 197.244259 
L 117.985745 203.405863 
L 119.284364 206.900702 
L 120.582982 209.785289 
L 121.556945 211.496907 
L 122.530909 212.789231 
L 123.504873 213.640829 
L 124.154182 213.956412 
L 124.803491 214.067332 
L 125.4528 213.972766 
L 126.102109 213.673414 
L 126.751418 213.171495 
L 127.725382 212.047327 
L 128.699345 210.494745 
L 129.673309 208.539443 
L 130.971927 205.362478 
L 132.5952 200.608174 
L 134.543127 194.039917 
L 138.114327 180.891484 
L 140.711564 171.694255 
L 142.659491 165.632959 
L 144.282764 161.380387 
L 145.581382 158.594787 
L 146.88 156.403465 
L 147.853964 155.162977 
L 148.827927 154.269376 
L 149.801891 153.716921 
L 150.775855 153.493696 
L 151.749818 153.58206 
L 152.723782 153.95921 
L 153.697745 154.597845 
L 154.996364 155.802008 
L 156.294982 157.334174 
L 158.242909 160.056664 
L 164.086691 168.619346 
L 165.709964 170.504381 
L 167.333236 172.019255 
L 168.631855 172.948592 
L 169.930473 173.632741 
L 171.229091 174.092935 
L 172.852364 174.406615 
L 174.800291 174.521394 
L 179.0208 174.674561 
L 180.644073 175.023714 
L 181.942691 175.519973 
L 183.241309 176.244782 
L 184.539927 177.216964 
L 185.838545 178.440385 
L 187.461818 180.303245 
L 189.409745 182.946018 
L 192.656291 187.862532 
L 194.928873 191.156342 
L 196.552145 193.139626 
L 197.850764 194.372986 
L 198.824727 195.037619 
L 199.798691 195.4439 
L 200.772655 195.564093 
L 201.746618 195.374884 
L 202.720582 194.858056 
L 203.694545 194.001061 
L 204.668509 192.797484 
L 205.642473 191.247379 
L 206.941091 188.654121 
L 208.239709 185.492069 
L 209.862982 180.825772 
L 211.810909 174.383795 
L 214.7328 163.722416 
L 217.979345 151.984096 
L 219.927273 145.797294 
L 221.225891 142.280149 
L 222.524509 139.369533 
L 223.498473 137.636387 
L 224.472436 136.321202 
L 225.4464 135.445785 
L 226.095709 135.113985 
L 226.745018 134.986717 
L 227.394327 135.064926 
L 228.043636 135.34803 
L 228.692945 135.833935 
L 229.666909 136.934773 
L 230.640873 138.465198 
L 231.614836 140.399875 
L 232.913455 143.552293 
L 234.212073 147.274347 
L 235.835345 152.563511 
L 238.432582 161.936386 
L 242.328436 176.089333 
L 244.276364 182.323051 
L 245.899636 186.759359 
L 247.198255 189.710367 
L 248.496873 192.076951 
L 249.470836 193.451645 
L 250.4448 194.47896 
L 251.418764 195.162158 
L 252.392727 195.510815 
L 253.366691 195.540422 
L 254.340655 195.27186 
L 255.314618 194.730775 
L 256.288582 193.946863 
L 257.5872 192.581232 
L 259.210473 190.478841 
L 261.483055 187.10664 
L 265.054255 181.789418 
L 267.002182 179.319687 
L 268.625455 177.639979 
L 269.924073 176.574598 
L 271.222691 175.759821 
L 272.521309 175.182207 
L 273.819927 174.814254 
L 275.4432 174.587792 
L 277.715782 174.526378 
L 280.637673 174.424243 
L 282.260945 174.13443 
L 283.559564 173.698928 
L 284.858182 173.042921 
L 286.1568 172.143514 
L 287.455418 170.992386 
L 289.078691 169.212161 
L 290.701964 167.100569 
L 292.974545 163.75941 
L 296.8704 157.965936 
L 298.493673 155.969442 
L 299.792291 154.721679 
L 300.766255 154.044179 
L 301.740218 153.623449 
L 302.714182 153.487441 
L 303.688145 153.659718 
L 304.662109 154.158786 
L 305.636073 154.997505 
L 306.610036 156.182626 
L 307.584 157.714444 
L 308.882618 160.2842 
L 310.181236 163.424527 
L 311.804509 168.067394 
L 313.752436 174.488579 
L 316.674327 185.137681 
L 319.920873 196.892517 
L 321.8688 203.104237 
L 323.167418 206.643527 
L 324.466036 209.580037 
L 325.44 211.334629 
L 326.413964 212.672614 
L 327.387927 213.571808 
L 328.037236 213.91981 
L 328.686545 214.06342 
L 329.335855 214.001573 
L 329.985164 213.734728 
L 330.634473 213.264861 
L 331.608436 212.187403 
L 332.5824 210.679208 
L 333.556364 208.765247 
L 334.854982 205.637521 
L 336.1536 201.93619 
L 337.776873 196.666526 
L 340.374109 187.308521 
L 344.269964 173.139862 
L 346.217891 166.883372 
L 347.841164 162.422383 
L 349.139782 159.448952 
L 350.4384 157.058452 
L 351.412364 155.665349 
L 352.386327 154.619618 
L 353.360291 153.918338 
L 354.334255 153.552259 
L 355.308218 153.506194 
L 356.282182 153.759533 
L 357.256145 154.286864 
L 358.230109 155.058687 
L 359.528727 156.411048 
L 361.152 158.501727 
L 363.424582 161.86676 
L 366.995782 167.192068 
L 368.943709 169.673514 
L 370.566982 171.365132 
L 371.8656 172.440556 
L 373.164218 173.265153 
L 374.462836 173.851772 
L 375.761455 174.227388 
L 377.384727 174.460883 
L 379.657309 174.526355 
L 382.5792 174.62303 
L 384.202473 174.905075 
L 385.501091 175.33246 
L 386.799709 175.979157 
L 388.098327 176.868613 
L 389.396945 178.009753 
L 391.020218 179.778407 
L 392.643491 181.880591 
L 394.916073 185.214363 
L 398.487273 190.571093 
L 398.487273 190.571093 
" clip-path="url(#pb1762391ef)" style="fill: none; stroke: #2ca02c; stroke-width: 1.5; stroke-linecap: square"/>
   </g>
   <g id="line2d_17">
    <path d="M 73.832727 174.526372 
L 74.482036 174.336796 
L 75.131345 173.770721 
L 75.780655 172.836073 
L 76.429964 171.545968 
L 77.403927 168.985381 
L 78.377891 165.748454 
L 79.676509 160.562925 
L 81.624436 151.550176 
L 84.870982 136.30374 
L 86.1696 131.278365 
L 87.143564 128.270688 
L 88.117527 126.079201 
L 88.766836 125.136797 
L 89.416145 124.649465 
L 89.7408 124.585909 
L 90.065455 124.646903 
L 90.390109 124.835428 
L 91.039418 125.60542 
L 91.688727 126.91331 
L 92.338036 128.7711 
L 92.987345 131.185161 
L 93.961309 135.848934 
L 94.935273 141.741365 
L 96.233891 151.41373 
L 97.532509 162.967444 
L 99.155782 179.601795 
L 101.428364 205.613663 
L 105.324218 250.739866 
L 106.947491 266.969441 
L 108.246109 277.870038 
L 109.220073 284.538986 
L 110.194036 289.737078 
L 110.843345 292.317785 
L 111.492655 294.151492 
L 112.141964 295.211243 
L 112.466618 295.444172 
L 112.791273 295.476363 
L 113.115927 295.306251 
L 113.440582 294.932691 
L 114.089891 293.572764 
L 114.7392 291.395937 
L 115.388509 288.408434 
L 116.362473 282.437645 
L 117.336436 274.746526 
L 118.3104 265.440874 
L 119.609018 250.762978 
L 121.232291 229.348251 
L 123.180218 200.429863 
L 128.699345 115.900114 
L 130.322618 95.005679 
L 131.621236 80.848547 
L 132.919855 69.388251 
L 133.893818 62.742227 
L 134.867782 57.865132 
L 135.517091 55.62343 
L 136.1664 54.198385 
L 136.491055 53.792345 
L 136.815709 53.589896 
L 137.140364 53.589961 
L 137.465018 53.791041 
L 137.789673 54.191224 
L 138.438982 55.579208 
L 139.088291 57.730566 
L 139.7376 60.615788 
L 140.711564 66.240793 
L 141.685527 73.294283 
L 142.984145 84.630696 
L 144.607418 101.264934 
L 146.88 127.385256 
L 150.775855 172.391717 
L 152.399127 188.656604 
L 153.697745 199.836386 
L 154.996364 209.084118 
L 155.970327 214.636264 
L 156.944291 218.950317 
L 157.5936 221.130133 
L 158.242909 222.755657 
L 158.892218 223.835652 
L 159.541527 224.384427 
L 159.866182 224.465541 
L 160.190836 224.421609 
L 160.840145 223.971851 
L 161.489455 223.064495 
L 162.138764 221.733187 
L 163.112727 219.024354 
L 164.086691 215.587407 
L 165.385309 210.139768 
L 167.657891 199.329825 
L 169.930473 188.713276 
L 171.229091 183.493148 
L 172.203055 180.223032 
L 173.177018 177.624285 
L 174.150982 175.779599 
L 174.800291 174.998585 
L 175.4496 174.590114 
L 176.098909 174.559904 
L 176.748218 174.908377 
L 177.397527 175.630657 
L 178.046836 176.71662 
L 179.0208 178.992735 
L 179.994764 181.979447 
L 181.293382 186.898997 
L 182.916655 194.146651 
L 187.137164 213.885728 
L 188.435782 218.691384 
L 189.409745 221.484462 
L 190.059055 222.87992 
L 190.708364 223.857156 
L 191.357673 224.381874 
L 191.682327 224.464971 
L 192.006982 224.424021 
L 192.331636 224.255994 
L 192.980945 223.528157 
L 193.630255 222.263614 
L 194.279564 220.449923 
L 194.928873 218.080258 
L 195.902836 213.482616 
L 196.8768 207.654349 
L 198.175418 198.061751 
L 199.474036 186.577902 
L 201.097309 170.011954 
L 203.369891 144.051051 
L 207.265745 98.867914 
L 208.889018 82.559574 
L 210.187636 71.574915 
L 211.1616 64.83214 
L 212.135564 59.552345 
L 212.784873 56.913492 
L 213.434182 55.019231 
L 214.083491 53.897005 
L 214.408145 53.632277 
L 214.7328 53.568 
L 215.057455 53.705805 
L 215.382109 54.046903 
L 216.031418 55.341715 
L 216.680727 57.453628 
L 217.330036 60.376964 
L 218.304 66.254093 
L 219.277964 73.856257 
L 220.251927 83.079374 
L 221.550545 97.659966 
L 223.173818 118.978183 
L 225.121745 147.824305 
L 230.965527 236.880834 
L 232.5888 257.228741 
L 233.887418 270.848054 
L 234.861382 279.263707 
L 235.835345 286.001541 
L 236.809309 290.974149 
L 237.458618 293.280684 
L 238.107927 294.770848 
L 238.432582 295.209385 
L 238.757236 295.444197 
L 239.081891 295.476296 
L 239.406545 295.307113 
L 239.7312 294.938496 
L 240.380509 293.612388 
L 241.029818 291.520818 
L 241.679127 288.692814 
L 242.653091 283.147843 
L 243.627055 276.166209 
L 244.925673 264.910845 
L 246.548945 248.35115 
L 248.821527 222.280804 
L 252.717382 177.214136 
L 254.340655 160.877686 
L 255.639273 149.626109 
L 256.937891 140.297277 
L 257.911855 134.68038 
L 258.885818 130.29997 
L 259.859782 127.172143 
L 260.509091 125.777333 
L 261.1584 124.922702 
L 261.807709 124.591672 
L 262.132364 124.615896 
L 262.781673 125.027894 
L 263.430982 125.899989 
L 264.080291 127.198863 
L 265.054255 129.864977 
L 266.028218 133.267039 
L 267.326836 138.681378 
L 269.599418 149.471221 
L 271.872 160.114892 
L 273.170618 165.369139 
L 274.469236 169.6297 
L 275.4432 172.02445 
L 276.092509 173.195228 
L 276.741818 174.005506 
L 277.391127 174.443923 
L 278.040436 174.50434 
L 278.689745 174.185914 
L 279.339055 173.493099 
L 279.988364 172.435605 
L 280.637673 171.028283 
L 281.611636 168.306071 
L 282.5856 164.92923 
L 283.884218 159.599046 
L 285.832145 150.477267 
L 288.754036 136.744 
L 290.052655 131.639738 
L 291.026618 128.553744 
L 292.000582 126.269102 
L 292.649891 125.257253 
L 293.2992 124.695339 
L 293.623855 124.592787 
L 293.948509 124.613769 
L 294.273164 124.761367 
L 294.922473 125.447163 
L 295.571782 126.668437 
L 296.221091 128.438072 
L 296.8704 130.763349 
L 297.844364 135.294799 
L 298.818327 141.058758 
L 299.792291 148.005616 
L 301.090909 158.967409 
L 302.714182 175.013291 
L 304.662109 196.767894 
L 309.856582 256.469764 
L 311.479855 271.808701 
L 312.778473 281.780183 
L 313.752436 287.642868 
L 314.7264 291.955997 
L 315.375709 293.910638 
L 316.025018 295.095204 
L 316.349673 295.391678 
L 316.674327 295.488 
L 316.998982 295.382472 
L 317.323636 295.073815 
L 317.972945 293.84411 
L 318.622255 291.797148 
L 319.271564 288.938058 
L 320.245527 283.154788 
L 321.219491 275.641875 
L 322.193455 266.501674 
L 323.492073 252.019022 
L 325.115345 230.79828 
L 327.063273 202.025763 
L 332.907055 112.872096 
L 334.530327 92.418682 
L 335.828945 78.696215 
L 336.802909 70.194561 
L 337.776873 63.365164 
L 338.750836 58.297194 
L 339.400145 55.925874 
L 340.049455 54.370592 
L 340.374109 53.899544 
L 340.698764 53.632342 
L 341.023418 53.568043 
L 341.348073 53.705282 
L 341.672727 54.042277 
L 342.322036 55.306364 
L 342.971345 57.337962 
L 343.620655 60.108525 
L 344.594618 65.573067 
L 345.568582 72.482376 
L 346.8672 83.655983 
L 348.490473 100.140142 
L 350.763055 126.159042 
L 354.658909 171.283612 
L 356.282182 187.690896 
L 357.5808 199.013826 
L 358.879418 208.423457 
L 359.853382 214.104974 
L 360.827345 218.551696 
L 361.801309 221.74594 
L 362.450618 223.184316 
L 363.099927 224.081426 
L 363.749236 224.453421 
L 364.073891 224.448984 
L 364.398545 224.321674 
L 365.047855 223.712476 
L 365.697164 222.656682 
L 366.346473 221.18931 
L 367.320436 218.302199 
L 368.2944 214.720915 
L 369.593018 209.137798 
L 372.514909 195.127757 
L 374.462836 186.414616 
L 375.761455 181.583307 
L 376.735418 178.677928 
L 377.709382 176.49316 
L 378.358691 175.47221 
L 379.008 174.817165 
L 379.657309 174.537204 
L 380.306618 174.636243 
L 380.955927 175.112898 
L 381.605236 175.960494 
L 382.254545 177.167146 
L 383.228509 179.611884 
L 384.202473 182.747496 
L 385.501091 187.826381 
L 387.124364 195.196472 
L 391.020218 213.459517 
L 392.318836 218.35037 
L 393.2928 221.226088 
L 393.942109 222.684729 
L 394.591418 223.730973 
L 395.240727 224.329888 
L 395.565382 224.451812 
L 395.890036 224.450718 
L 396.214691 224.323479 
L 396.864 223.67961 
L 397.513309 222.501522 
L 398.162618 220.775895 
L 398.487273 219.705116 
L 398.487273 219.705116 
" clip-path="url(#pb1762391ef)" style="fill: none; stroke: #d62728; stroke-width: 1.5; stroke-linecap: square"/>
   </g>
   <g id="patch_3">
    <path d="M 57.6 307.584 
L 57.6 41.472 
" style="fill: none; stroke: #000000; stroke-width: 0.8; stroke-linejoin: miter; stroke-linecap: square"/>
   </g>
   <g id="patch_4">
    <path d="M 414.72 307.584 
L 414.72 41.472 
" style="fill: none; stroke: #000000; stroke-width: 0.8; stroke-linejoin: miter; stroke-linecap: square"/>
   </g>
   <g id="patch_5">
    <path d="M 57.6 307.584 
L 414.72 307.584 
" style="fill: none; stroke: #000000; stroke-width: 0.8; stroke-linejoin: miter; stroke-linecap: square"/>
   </g>
   <g id="patch_6">
    <path d="M 57.6 41.472 
L 414.72 41.472 
" style="fill: none; stroke: #000000; stroke-width: 0.8; stroke-linejoin: miter; stroke-linecap: square"/>
   </g>
   <g id="text_14">
    <!-- (Sin(X)) ** (5.0) up to 3rd derivative -->
    <g transform="translate(127.995 35.472) scale(0.12 -0.12)">
     <defs>
      <path id="DejaVuSans-28" d="M 1984 4856 
Q 1566 4138 1362 3434 
Q 1159 2731 1159 2009 
Q 1159 1288 1364 580 
Q 1569 -128 1984 -844 
L 1484 -844 
Q 1016 -109 783 600 
Q 550 1309 550 2009 
Q 550 2706 781 3412 
Q 1013 4119 1484 4856 
L 1984 4856 
z
" transform="scale(0.015625)"/>
      <path id="DejaVuSans-53" d="M 3425 4513 
L 3425 3897 
Q 3066 4069 2747 4153 
Q 2428 4238 2131 4238 
Q 1616 4238 1336 4038 
Q 1056 3838 1056 3469 
Q 1056 3159 1242 3001 
Q 1428 2844 1947 2747 
L 2328 2669 
Q 3034 2534 3370 2195 
Q 3706 1856 3706 1288 
Q 3706 609 3251 259 
Q 2797 -91 1919 -91 
Q 1588 -91 1214 -16 
Q 841 59 441 206 
L 441 856 
Q 825 641 1194 531 
Q 1563 422 1919 422 
Q 2459 422 2753 634 
Q 3047 847 3047 1241 
Q 3047 1584 2836 1778 
Q 2625 1972 2144 2069 
L 1759 2144 
Q 1053 2284 737 2584 
Q 422 2884 422 3419 
Q 422 4038 858 4394 
Q 1294 4750 2059 4750 
Q 2388 4750 2728 4690 
Q 3069 4631 3425 4513 
z
" transform="scale(0.015625)"/>
      <path id="DejaVuSans-69" d="M 603 3500 
L 1178 3500 
L 1178 0 
L 603 0 
L 603 3500 
z
M 603 4863 
L 1178 4863 
L 1178 4134 
L 603 4134 
L 603 4863 
z
" transform="scale(0.015625)"/>
      <path id="DejaVuSans-6e" d="M 3513 2113 
L 3513 0 
L 2938 0 
L 2938 2094 
Q 2938 2591 2744 2837 
Q 2550 3084 2163 3084 
Q 1697 3084 1428 2787 
Q 1159 2491 1159 1978 
L 1159 0 
L 581 0 
L 581 3500 
L 1159 3500 
L 1159 2956 
Q 1366 3272 1645 3428 
Q 1925 3584 2291 3584 
Q 2894 3584 3203 3211 
Q 3513 2838 3513 2113 
z
" transform="scale(0.015625)"/>
      <path id="DejaVuSans-58" d="M 403 4666 
L 1081 4666 
L 2241 2931 
L 3406 4666 
L 4084 4666 
L 2584 2425 
L 4184 0 
L 3506 0 
L 2194 1984 
L 872 0 
L 191 0 
L 1856 2491 
L 403 4666 
z
" transform="scale(0.015625)"/>
      <path id="DejaVuSans-29" d="M 513 4856 
L 1013 4856 
Q 1481 4119 1714 3412 
Q 1947 2706 1947 2009 
Q 1947 1309 1714 600 
Q 1481 -109 1013 -844 
L 513 -844 
Q 928 -128 1133 580 
Q 1338 1288 1338 2009 
Q 1338 2731 1133 3434 
Q 928 4138 513 4856 
z
" transform="scale(0.015625)"/>
      <path id="DejaVuSans-20" transform="scale(0.015625)"/>
      <path id="DejaVuSans-2a" d="M 3009 3897 
L 1888 3291 
L 3009 2681 
L 2828 2375 
L 1778 3009 
L 1778 1831 
L 1422 1831 
L 1422 3009 
L 372 2375 
L 191 2681 
L 1313 3291 
L 191 3897 
L 372 4206 
L 1422 3572 
L 1422 4750 
L 1778 4750 
L 1778 3572 
L 2828 4206 
L 3009 3897 
z
" transform="scale(0.015625)"/>
      <path id="DejaVuSans-2e" d="M 684 794 
L 1344 794 
L 1344 0 
L 684 0 
L 684 794 
z
" transform="scale(0.015625)"/>
      <path id="DejaVuSans-75" d="M 544 1381 
L 544 3500 
L 1119 3500 
L 1119 1403 
Q 1119 906 1312 657 
Q 1506 409 1894 409 
Q 2359 409 2629 706 
Q 2900 1003 2900 1516 
L 2900 3500 
L 3475 3500 
L 3475 0 
L 2900 0 
L 2900 538 
Q 2691 219 2414 64 
Q 2138 -91 1772 -91 
Q 1169 -91 856 284 
Q 544 659 544 1381 
z
M 1991 3584 
L 1991 3584 
z
" transform="scale(0.015625)"/>
      <path id="DejaVuSans-70" d="M 1159 525 
L 1159 -1331 
L 581 -1331 
L 581 3500 
L 1159 3500 
L 1159 2969 
Q 1341 3281 1617 3432 
Q 1894 3584 2278 3584 
Q 2916 3584 3314 3078 
Q 3713 2572 3713 1747 
Q 3713 922 3314 415 
Q 2916 -91 2278 -91 
Q 1894 -91 1617 61 
Q 1341 213 1159 525 
z
M 3116 1747 
Q 3116 2381 2855 2742 
Q 2594 3103 2138 3103 
Q 1681 3103 1420 2742 
Q 1159 2381 1159 1747 
Q 1159 1113 1420 752 
Q 1681 391 2138 391 
Q 2594 391 2855 752 
Q 3116 1113 3116 1747 
z
" transform="scale(0.015625)"/>
      <path id="DejaVuSans-74" d="M 1172 4494 
L 1172 3500 
L 2356 3500 
L 2356 3053 
L 1172 3053 
L 1172 1153 
Q 1172 725 1289 603 
Q 1406 481 1766 481 
L 2356 481 
L 2356 0 
L 1766 0 
Q 1100 0 847 248 
Q 594 497 594 1153 
L 594 3053 
L 172 3053 
L 172 3500 
L 594 3500 
L 594 4494 
L 1172 4494 
z
" transform="scale(0.015625)"/>
      <path id="DejaVuSans-6f" d="M 1959 3097 
Q 1497 3097 1228 2736 
Q 959 2375 959 1747 
Q 959 1119 1226 758 
Q 1494 397 1959 397 
Q 2419 397 2687 759 
Q 2956 1122 2956 1747 
Q 2956 2369 2687 2733 
Q 2419 3097 1959 3097 
z
M 1959 3584 
Q 2709 3584 3137 3096 
Q 3566 2609 3566 1747 
Q 3566 888 3137 398 
Q 2709 -91 1959 -91 
Q 1206 -91 779 398 
Q 353 888 353 1747 
Q 353 2609 779 3096 
Q 1206 3584 1959 3584 
z
" transform="scale(0.015625)"/>
      <path id="DejaVuSans-33" d="M 2597 2516 
Q 3050 2419 3304 2112 
Q 3559 1806 3559 1356 
Q 3559 666 3084 287 
Q 2609 -91 1734 -91 
Q 1441 -91 1130 -33 
Q 819 25 488 141 
L 488 750 
Q 750 597 1062 519 
Q 1375 441 1716 441 
Q 2309 441 2620 675 
Q 2931 909 2931 1356 
Q 2931 1769 2642 2001 
Q 2353 2234 1838 2234 
L 1294 2234 
L 1294 2753 
L 1863 2753 
Q 2328 2753 2575 2939 
Q 2822 3125 2822 3475 
Q 2822 3834 2567 4026 
Q 2313 4219 1838 4219 
Q 1578 4219 1281 4162 
Q 984 4106 628 3988 
L 628 4550 
Q 988 4650 1302 4700 
Q 1616 4750 1894 4750 
Q 2613 4750 3031 4423 
Q 3450 4097 3450 3541 
Q 3450 3153 3228 2886 
Q 3006 2619 2597 2516 
z
" transform="scale(0.015625)"/>
      <path id="DejaVuSans-72" d="M 2631 2963 
Q 2534 3019 2420 3045 
Q 2306 3072 2169 3072 
Q 1681 3072 1420 2755 
Q 1159 2438 1159 1844 
L 1159 0 
L 581 0 
L 581 3500 
L 1159 3500 
L 1159 2956 
Q 1341 3275 1631 3429 
Q 1922 3584 2338 3584 
Q 2397 3584 2469 3576 
Q 2541 3569 2628 3553 
L 2631 2963 
z
" transform="scale(0.015625)"/>
      <path id="DejaVuSans-64" d="M 2906 2969 
L 2906 4863 
L 3481 4863 
L 3481 0 
L 2906 0 
L 2906 525 
Q 2725 213 2448 61 
Q 2172 -91 1784 -91 
Q 1150 -91 751 415 
Q 353 922 353 1747 
Q 353 2572 751 3078 
Q 1150 3584 1784 3584 
Q 2172 3584 2448 3432 
Q 2725 3281 2906 2969 
z
M 947 1747 
Q 947 1113 1208 752 
Q 1469 391 1925 391 
Q 2381 391 2643 752 
Q 2906 1113 2906 1747 
Q 2906 2381 2643 2742 
Q 2381 3103 1925 3103 
Q 1469 3103 1208 2742 
Q 947 2381 947 1747 
z
" transform="scale(0.015625)"/>
      <path id="DejaVuSans-65" d="M 3597 1894 
L 3597 1613 
L 953 1613 
Q 991 1019 1311 708 
Q 1631 397 2203 397 
Q 2534 397 2845 478 
Q 3156 559 3463 722 
L 3463 178 
Q 3153 47 2828 -22 
Q 2503 -91 2169 -91 
Q 1331 -91 842 396 
Q 353 884 353 1716 
Q 353 2575 817 3079 
Q 1281 3584 2069 3584 
Q 2775 3584 3186 3129 
Q 3597 2675 3597 1894 
z
M 3022 2063 
Q 3016 2534 2758 2815 
Q 2500 3097 2075 3097 
Q 1594 3097 1305 2825 
Q 1016 2553 972 2059 
L 3022 2063 
z
" transform="scale(0.015625)"/>
      <path id="DejaVuSans-76" d="M 191 3500 
L 800 3500 
L 1894 563 
L 2988 3500 
L 3597 3500 
L 2284 0 
L 1503 0 
L 191 3500 
z
" transform="scale(0.015625)"/>
      <path id="DejaVuSans-61" d="M 2194 1759 
Q 1497 1759 1228 1600 
Q 959 1441 959 1056 
Q 959 750 1161 570 
Q 1363 391 1709 391 
Q 2188 391 2477 730 
Q 2766 1069 2766 1631 
L 2766 1759 
L 2194 1759 
z
M 3341 1997 
L 3341 0 
L 2766 0 
L 2766 531 
Q 2569 213 2275 61 
Q 1981 -91 1556 -91 
Q 1019 -91 701 211 
Q 384 513 384 1019 
Q 384 1609 779 1909 
Q 1175 2209 1959 2209 
L 2766 2209 
L 2766 2266 
Q 2766 2663 2505 2880 
Q 2244 3097 1772 3097 
Q 1472 3097 1187 3025 
Q 903 2953 641 2809 
L 641 3341 
Q 956 3463 1253 3523 
Q 1550 3584 1831 3584 
Q 2591 3584 2966 3190 
Q 3341 2797 3341 1997 
z
" transform="scale(0.015625)"/>
     </defs>
     <use xlink:href="#DejaVuSans-28"/>
     <use xlink:href="#DejaVuSans-53" x="39.013672"/>
     <use xlink:href="#DejaVuSans-69" x="102.490234"/>
     <use xlink:href="#DejaVuSans-6e" x="130.273438"/>
     <use xlink:href="#DejaVuSans-28" x="193.652344"/>
     <use xlink:href="#DejaVuSans-58" x="232.666016"/>
     <use xlink:href="#DejaVuSans-29" x="301.171875"/>
     <use xlink:href="#DejaVuSans-29" x="340.185547"/>
     <use xlink:href="#DejaVuSans-20" x="379.199219"/>
     <use xlink:href="#DejaVuSans-2a" x="410.986328"/>
     <use xlink:href="#DejaVuSans-2a" x="460.986328"/>
     <use xlink:href="#DejaVuSans-20" x="510.986328"/>
     <use xlink:href="#DejaVuSans-28" x="542.773438"/>
     <use xlink:href="#DejaVuSans-35" x="581.787109"/>
     <use xlink:href="#DejaVuSans-2e" x="645.410156"/>
     <use xlink:href="#DejaVuSans-30" x="677.197266"/>
     <use xlink:href="#DejaVuSans-29" x="740.820312"/>
     <use xlink:href="#DejaVuSans-20" x="779.833984"/>
     <use xlink:href="#DejaVuSans-75" x="811.621094"/>
     <use xlink:href="#DejaVuSans-70" x="875"/>
     <use xlink:href="#DejaVuSans-20" x="938.476562"/>
     <use xlink:href="#DejaVuSans-74" x="970.263672"/>
     <use xlink:href="#DejaVuSans-6f" x="1009.472656"/>
     <use xlink:href="#DejaVuSans-20" x="1070.654297"/>
     <use xlink:href="#DejaVuSans-33" x="1102.441406"/>
     <use xlink:href="#DejaVuSans-72" x="1166.064453"/>
     <use xlink:href="#DejaVuSans-64" x="1205.427734"/>
     <use xlink:href="#DejaVuSans-20" x="1268.904297"/>
     <use xlink:href="#DejaVuSans-64" x="1300.691406"/>
     <use xlink:href="#DejaVuSans-65" x="1364.167969"/>
     <use xlink:href="#DejaVuSans-72" x="1425.691406"/>
     <use xlink:href="#DejaVuSans-69" x="1466.804688"/>
     <use xlink:href="#DejaVuSans-76" x="1494.587891"/>
     <use xlink:href="#DejaVuSans-61" x="1553.767578"/>
     <use xlink:href="#DejaVuSans-74" x="1615.046875"/>
     <use xlink:href="#DejaVuSans-69" x="1654.255859"/>
     <use xlink:href="#DejaVuSans-76" x="1682.039062"/>
     <use xlink:href="#DejaVuSans-65" x="1741.21875"/>
    </g>
   </g>
   <g id="legend_1">
    <g id="patch_7">
     <path d="M 303.285625 108.1845 
L 407.72 108.1845 
Q 409.72 108.1845 409.72 106.1845 
L 409.72 48.472 
Q 409.72 46.472 407.72 46.472 
L 303.285625 46.472 
Q 301.285625 46.472 301.285625 48.472 
L 301.285625 106.1845 
Q 301.285625 108.1845 303.285625 108.1845 
z
" style="fill: #ffffff; opacity: 0.8; stroke: #cccccc; stroke-linejoin: miter"/>
    </g>
    <g id="line2d_18">
     <path d="M 305.285625 54.570438 
L 315.285625 54.570438 
L 325.285625 54.570438 
" style="fill: none; stroke: #1f77b4; stroke-width: 1.5; stroke-linecap: square"/>
    </g>
    <g id="text_15">
     <!-- 0th derivative -->
     <g transform="translate(333.285625 58.070438) scale(0.1 -0.1)">
      <defs>
       <path id="DejaVuSans-68" d="M 3513 2113 
L 3513 0 
L 2938 0 
L 2938 2094 
Q 2938 2591 2744 2837 
Q 2550 3084 2163 3084 
Q 1697 3084 1428 2787 
Q 1159 2491 1159 1978 
L 1159 0 
L 581 0 
L 581 4863 
L 1159 4863 
L 1159 2956 
Q 1366 3272 1645 3428 
Q 1925 3584 2291 3584 
Q 2894 3584 3203 3211 
Q 3513 2838 3513 2113 
z
" transform="scale(0.015625)"/>
      </defs>
      <use xlink:href="#DejaVuSans-30"/>
      <use xlink:href="#DejaVuSans-74" x="63.623047"/>
      <use xlink:href="#DejaVuSans-68" x="102.832031"/>
      <use xlink:href="#DejaVuSans-20" x="166.210938"/>
      <use xlink:href="#DejaVuSans-64" x="197.998047"/>
      <use xlink:href="#DejaVuSans-65" x="261.474609"/>
      <use xlink:href="#DejaVuSans-72" x="322.998047"/>
      <use xlink:href="#DejaVuSans-69" x="364.111328"/>
      <use xlink:href="#DejaVuSans-76" x="391.894531"/>
      <use xlink:href="#DejaVuSans-61" x="451.074219"/>
      <use xlink:href="#DejaVuSans-74" x="512.353516"/>
      <use xlink:href="#DejaVuSans-69" x="551.5625"/>
      <use xlink:href="#DejaVuSans-76" x="579.345703"/>
      <use xlink:href="#DejaVuSans-65" x="638.525391"/>
     </g>
    </g>
    <g id="line2d_19">
     <path d="M 305.285625 69.248563 
L 315.285625 69.248563 
L 325.285625 69.248563 
" style="fill: none; stroke: #ff7f0e; stroke-width: 1.5; stroke-linecap: square"/>
    </g>
    <g id="text_16">
     <!-- 1st derivative -->
     <g transform="translate(333.285625 72.748563) scale(0.1 -0.1)">
      <defs>
       <path id="DejaVuSans-73" d="M 2834 3397 
L 2834 2853 
Q 2591 2978 2328 3040 
Q 2066 3103 1784 3103 
Q 1356 3103 1142 2972 
Q 928 2841 928 2578 
Q 928 2378 1081 2264 
Q 1234 2150 1697 2047 
L 1894 2003 
Q 2506 1872 2764 1633 
Q 3022 1394 3022 966 
Q 3022 478 2636 193 
Q 2250 -91 1575 -91 
Q 1294 -91 989 -36 
Q 684 19 347 128 
L 347 722 
Q 666 556 975 473 
Q 1284 391 1588 391 
Q 1994 391 2212 530 
Q 2431 669 2431 922 
Q 2431 1156 2273 1281 
Q 2116 1406 1581 1522 
L 1381 1569 
Q 847 1681 609 1914 
Q 372 2147 372 2553 
Q 372 3047 722 3315 
Q 1072 3584 1716 3584 
Q 2034 3584 2315 3537 
Q 2597 3491 2834 3397 
z
" transform="scale(0.015625)"/>
      </defs>
      <use xlink:href="#DejaVuSans-31"/>
      <use xlink:href="#DejaVuSans-73" x="63.623047"/>
      <use xlink:href="#DejaVuSans-74" x="115.722656"/>
      <use xlink:href="#DejaVuSans-20" x="154.931641"/>
      <use xlink:href="#DejaVuSans-64" x="186.71875"/>
      <use xlink:href="#DejaVuSans-65" x="250.195312"/>
      <use xlink:href="#DejaVuSans-72" x="311.71875"/>
      <use xlink:href="#DejaVuSans-69" x="352.832031"/>
      <use xlink:href="#DejaVuSans-76" x="380.615234"/>
      <use xlink:href="#DejaVuSans-61" x="439.794922"/>
      <use xlink:href="#DejaVuSans-74" x="501.074219"/>
      <use xlink:href="#DejaVuSans-69" x="540.283203"/>
      <use xlink:href="#DejaVuSans-76" x="568.066406"/>
      <use xlink:href="#DejaVuSans-65" x="627.246094"/>
     </g>
    </g>
    <g id="line2d_20">
     <path d="M 305.285625 83.926688 
L 315.285625 83.926688 
L 325.285625 83.926688 
" style="fill: none; stroke: #2ca02c; stroke-width: 1.5; stroke-linecap: square"/>
    </g>
    <g id="text_17">
     <!-- 2nd derivative -->
     <g transform="translate(333.285625 87.426688) scale(0.1 -0.1)">
      <use xlink:href="#DejaVuSans-32"/>
      <use xlink:href="#DejaVuSans-6e" x="63.623047"/>
      <use xlink:href="#DejaVuSans-64" x="127.001953"/>
      <use xlink:href="#DejaVuSans-20" x="190.478516"/>
      <use xlink:href="#DejaVuSans-64" x="222.265625"/>
      <use xlink:href="#DejaVuSans-65" x="285.742188"/>
      <use xlink:href="#DejaVuSans-72" x="347.265625"/>
      <use xlink:href="#DejaVuSans-69" x="388.378906"/>
      <use xlink:href="#DejaVuSans-76" x="416.162109"/>
      <use xlink:href="#DejaVuSans-61" x="475.341797"/>
      <use xlink:href="#DejaVuSans-74" x="536.621094"/>
      <use xlink:href="#DejaVuSans-69" x="575.830078"/>
      <use xlink:href="#DejaVuSans-76" x="603.613281"/>
      <use xlink:href="#DejaVuSans-65" x="662.792969"/>
     </g>
    </g>
    <g id="line2d_21">
     <path d="M 305.285625 98.604813 
L 315.285625 98.604813 
L 325.285625 98.604813 
" style="fill: none; stroke: #d62728; stroke-width: 1.5; stroke-linecap: square"/>
    </g>
    <g id="text_18">
     <!-- 3rd derivative -->
     <g transform="translate(333.285625 102.104813) scale(0.1 -0.1)">
      <use xlink:href="#DejaVuSans-33"/>
      <use xlink:href="#DejaVuSans-72" x="63.623047"/>
      <use xlink:href="#DejaVuSans-64" x="102.986328"/>
      <use xlink:href="#DejaVuSans-20" x="166.462891"/>
      <use xlink:href="#DejaVuSans-64" x="198.25"/>
      <use xlink:href="#DejaVuSans-65" x="261.726562"/>
      <use xlink:href="#DejaVuSans-72" x="323.25"/>
      <use xlink:href="#DejaVuSans-69" x="364.363281"/>
      <use xlink:href="#DejaVuSans-76" x="392.146484"/>
      <use xlink:href="#DejaVuSans-61" x="451.326172"/>
      <use xlink:href="#DejaVuSans-74" x="512.605469"/>
      <use xlink:href="#DejaVuSans-69" x="551.814453"/>
      <use xlink:href="#DejaVuSans-76" x="579.597656"/>
      <use xlink:href="#DejaVuSans-65" x="638.777344"/>
     </g>
    </g>
   </g>
  </g>
 </g>
 <defs>
  <clipPath id="pb1762391ef">
   <rect x="57.6" y="41.472" width="357.12" height="266.112"/>
  </clipPath>
 </defs>
</svg>
