<?xml version="1.0" encoding="UTF-8" standalone="no"?>
<!DOCTYPE svg PUBLIC "-//W3C//DTD SVG 1.1//EN"
 "http://www.w3.org/Graphics/SVG/1.1/DTD/svg11.dtd">
<!-- Generated by graphviz version 2.43.0 (0)
 -->
<!-- Title: %3 Pages: 1 -->
<svg width="398pt" height="338pt"
 viewBox="0.00 0.00 398.00 338.00" xmlns="http://www.w3.org/2000/svg" xmlns:xlink="http://www.w3.org/1999/xlink">
<g id="graph0" class="graph" transform="scale(1 1) rotate(0) translate(4 334)">
<title>%3</title>
<g id="a_graph0"><a xlink:title="Hey! Notice that red nodes are clickable and &#10; tooltips contain additional information!">
<polygon fill="white" stroke="transparent" points="-4,4 -4,-334 394,-334 394,4 -4,4"/>
</a>
</g>
<!-- function0 -->
<g id="node1" class="node">
<title>function0</title>
<g id="a_node1"><a xlink:href="inspected-f378-optimized-0.svg" xlink:title="original function &#10; contains 2 duplicate subfunctions &#10; contains 2 unique subfunctions &#10; (and is clickable)">
<path fill="red" stroke="red" d="M127,-182C127,-182 12,-182 12,-182 6,-182 0,-176 0,-170 0,-170 0,-156 0,-156 0,-150 6,-144 12,-144 12,-144 127,-144 127,-144 133,-144 139,-150 139,-156 139,-156 139,-170 139,-170 139,-176 133,-182 127,-182"/>
<text text-anchor="middle" x="69.5" y="-166.8" font-family="Times,serif" font-size="14.00">(X) ** (5.0) </text>
<text text-anchor="middle" x="69.5" y="-151.8" font-family="Times,serif" font-size="14.00"> original function</text>
</a>
</g>
</g>
<!-- f378 -->
<g id="node2" class="node">
<title>f378</title>
<g id="a_node2"><a xlink:title="Function ID=378 &#10; contains 1 duplicate subfunctions">
<ellipse fill="lightblue" stroke="lightblue" cx="89.5" cy="-90" rx="31.4" ry="18"/>
<text text-anchor="middle" x="89.5" y="-86.3" font-family="Times,serif" font-size="14.00"> ** 5</text>
</a>
</g>
</g>
<!-- function0&#45;&gt;f378 -->
<g id="edge1" class="edge">
<title>function0&#45;&gt;f378</title>
<path fill="none" stroke="black" d="M74.65,-143.72C76.88,-135.8 79.53,-126.38 81.98,-117.71"/>
<polygon fill="black" stroke="black" points="85.37,-118.58 84.71,-108 78.63,-116.68 85.37,-118.58"/>
</g>
<!-- f1 -->
<g id="node7" class="node">
<title>f1</title>
<g id="a_node7"><a xlink:title="Function ID=1 &#10; contains 0 duplicate subfunctions">
<ellipse fill="lightgreen" stroke="lightgreen" cx="189.5" cy="-18" rx="27" ry="18"/>
<text text-anchor="middle" x="189.5" y="-14.3" font-family="Times,serif" font-size="14.00">X</text>
</a>
</g>
</g>
<!-- f378&#45;&gt;f1 -->
<g id="edge7" class="edge">
<title>f378&#45;&gt;f1</title>
<g id="a_edge7"><a xlink:title="Function ID=378 depends on function ID=1">
<path fill="none" stroke="black" d="M108.78,-75.5C124.25,-64.68 146.11,-49.37 163.19,-37.42"/>
<polygon fill="black" stroke="black" points="165.44,-40.12 171.62,-31.51 161.42,-34.38 165.44,-40.12"/>
</a>
</g>
</g>
<!-- function1 -->
<g id="node3" class="node">
<title>function1</title>
<g id="a_node3"><a xlink:href="inspected-f378-optimized-1.svg" xlink:title="1st derivative function &#10; contains 3 duplicate subfunctions &#10; contains 3 unique subfunctions &#10; (and is clickable)">
<path fill="red" stroke="red" d="M237.5,-256C237.5,-256 141.5,-256 141.5,-256 135.5,-256 129.5,-250 129.5,-244 129.5,-244 129.5,-230 129.5,-230 129.5,-224 135.5,-218 141.5,-218 141.5,-218 237.5,-218 237.5,-218 243.5,-218 249.5,-224 249.5,-230 249.5,-230 249.5,-244 249.5,-244 249.5,-250 243.5,-256 237.5,-256"/>
<text text-anchor="middle" x="189.5" y="-240.8" font-family="Times,serif" font-size="14.00">(X) ** (5.0) </text>
<text text-anchor="middle" x="189.5" y="-225.8" font-family="Times,serif" font-size="14.00"> 1st derivative</text>
</a>
</g>
</g>
<!-- f380 -->
<g id="node4" class="node">
<title>f380</title>
<g id="a_node4"><a xlink:title="Function ID=380 &#10; contains 2 duplicate subfunctions">
<ellipse fill="lightblue" stroke="lightblue" cx="189.5" cy="-163" rx="32.49" ry="18"/>
<text text-anchor="middle" x="189.5" y="-159.3" font-family="Times,serif" font-size="14.00">5.0 *</text>
</a>
</g>
</g>
<!-- function1&#45;&gt;f380 -->
<g id="edge2" class="edge">
<title>function1&#45;&gt;f380</title>
<path fill="none" stroke="black" d="M189.5,-217.83C189.5,-209.89 189.5,-200.41 189.5,-191.63"/>
<polygon fill="black" stroke="black" points="193,-191.42 189.5,-181.42 186,-191.42 193,-191.42"/>
</g>
<!-- f379 -->
<g id="node10" class="node">
<title>f379</title>
<g id="a_node10"><a xlink:title="Function ID=379 &#10; contains 1 duplicate subfunctions">
<ellipse fill="lightblue" stroke="lightblue" cx="189.5" cy="-90" rx="31.4" ry="18"/>
<text text-anchor="middle" x="189.5" y="-86.3" font-family="Times,serif" font-size="14.00"> ** 4</text>
</a>
</g>
</g>
<!-- f380&#45;&gt;f379 -->
<g id="edge9" class="edge">
<title>f380&#45;&gt;f379</title>
<g id="a_edge9"><a xlink:title="Function ID=380 depends on function ID=379">
<path fill="none" stroke="black" d="M189.5,-144.81C189.5,-136.79 189.5,-127.05 189.5,-118.07"/>
<polygon fill="black" stroke="black" points="193,-118.03 189.5,-108.03 186,-118.03 193,-118.03"/>
</a>
</g>
</g>
<!-- function2 -->
<g id="node5" class="node">
<title>function2</title>
<g id="a_node5"><a xlink:href="inspected-f378-optimized-2.svg" xlink:title="2nd derivative function &#10; contains 5 duplicate subfunctions &#10; contains 5 unique subfunctions &#10; (and is clickable)">
<path fill="red" stroke="red" d="M378,-330C378,-330 277,-330 277,-330 271,-330 265,-324 265,-318 265,-318 265,-304 265,-304 265,-298 271,-292 277,-292 277,-292 378,-292 378,-292 384,-292 390,-298 390,-304 390,-304 390,-318 390,-318 390,-324 384,-330 378,-330"/>
<text text-anchor="middle" x="327.5" y="-314.8" font-family="Times,serif" font-size="14.00">(X) ** (5.0) </text>
<text text-anchor="middle" x="327.5" y="-299.8" font-family="Times,serif" font-size="14.00"> 2nd derivative</text>
</a>
</g>
</g>
<!-- f1734 -->
<g id="node6" class="node">
<title>f1734</title>
<g id="a_node6"><a xlink:title="Function ID=1734 &#10; contains 4 duplicate subfunctions">
<ellipse fill="lightblue" stroke="lightblue" cx="327.5" cy="-237" rx="27" ry="18"/>
<text text-anchor="middle" x="327.5" y="-233.3" font-family="Times,serif" font-size="14.00">+</text>
</a>
</g>
</g>
<!-- function2&#45;&gt;f1734 -->
<g id="edge3" class="edge">
<title>function2&#45;&gt;f1734</title>
<path fill="none" stroke="black" d="M327.5,-291.83C327.5,-283.89 327.5,-274.41 327.5,-265.63"/>
<polygon fill="black" stroke="black" points="331,-265.42 327.5,-255.42 324,-265.42 331,-265.42"/>
</g>
<!-- f1733 -->
<g id="node8" class="node">
<title>f1733</title>
<g id="a_node8"><a xlink:title="Function ID=1733 &#10; contains 2 duplicate subfunctions">
<ellipse fill="lightblue" stroke="lightblue" cx="278.5" cy="-163" rx="38.19" ry="18"/>
<text text-anchor="middle" x="278.5" y="-159.3" font-family="Times,serif" font-size="14.00">20.0 *</text>
</a>
</g>
</g>
<!-- f1734&#45;&gt;f1733 -->
<g id="edge10" class="edge">
<title>f1734&#45;&gt;f1733</title>
<g id="a_edge10"><a xlink:title="Function ID=1734 depends on function ID=1733">
<path fill="none" stroke="black" d="M316.87,-220.38C310.58,-211.14 302.47,-199.22 295.33,-188.73"/>
<polygon fill="black" stroke="black" points="298.14,-186.64 289.62,-180.34 292.35,-190.58 298.14,-186.64"/>
</a>
</g>
</g>
<!-- f714 -->
<g id="node9" class="node">
<title>f714</title>
<g id="a_node9"><a xlink:title="Function ID=714 &#10; contains 0 duplicate subfunctions">
<ellipse fill="lightgreen" stroke="lightgreen" cx="361.5" cy="-163" rx="27" ry="18"/>
<text text-anchor="middle" x="361.5" y="-159.3" font-family="Times,serif" font-size="14.00">0.0</text>
</a>
</g>
</g>
<!-- f1734&#45;&gt;f714 -->
<g id="edge5" class="edge">
<title>f1734&#45;&gt;f714</title>
<g id="a_edge5"><a xlink:title="Function ID=1734 depends on function ID=714">
<path fill="none" stroke="black" d="M335.22,-219.66C339.43,-210.73 344.75,-199.47 349.49,-189.42"/>
<polygon fill="black" stroke="black" points="352.71,-190.81 353.82,-180.27 346.38,-187.82 352.71,-190.81"/>
</a>
</g>
</g>
<!-- f383 -->
<g id="node11" class="node">
<title>f383</title>
<g id="a_node11"><a xlink:title="Function ID=383 &#10; contains 1 duplicate subfunctions">
<ellipse fill="lightblue" stroke="lightblue" cx="273.5" cy="-90" rx="31.4" ry="18"/>
<text text-anchor="middle" x="273.5" y="-86.3" font-family="Times,serif" font-size="14.00"> ** 3</text>
</a>
</g>
</g>
<!-- f1733&#45;&gt;f383 -->
<g id="edge8" class="edge">
<title>f1733&#45;&gt;f383</title>
<g id="a_edge8"><a xlink:title="Function ID=1733 depends on function ID=383">
<path fill="none" stroke="black" d="M277.29,-144.81C276.72,-136.79 276.04,-127.05 275.41,-118.07"/>
<polygon fill="black" stroke="black" points="278.89,-117.76 274.7,-108.03 271.91,-118.25 278.89,-117.76"/>
</a>
</g>
</g>
<!-- f379&#45;&gt;f1 -->
<g id="edge6" class="edge">
<title>f379&#45;&gt;f1</title>
<g id="a_edge6"><a xlink:title="Function ID=379 depends on function ID=1">
<path fill="none" stroke="black" d="M189.5,-71.7C189.5,-63.98 189.5,-54.71 189.5,-46.11"/>
<polygon fill="black" stroke="black" points="193,-46.1 189.5,-36.1 186,-46.1 193,-46.1"/>
</a>
</g>
</g>
<!-- f383&#45;&gt;f1 -->
<g id="edge4" class="edge">
<title>f383&#45;&gt;f1</title>
<g id="a_edge4"><a xlink:title="Function ID=383 depends on function ID=1">
<path fill="none" stroke="black" d="M256.5,-74.83C244.27,-64.64 227.6,-50.75 213.95,-39.37"/>
<polygon fill="black" stroke="black" points="215.82,-36.38 205.9,-32.67 211.34,-41.76 215.82,-36.38"/>
</a>
</g>
</g>
</g>
</svg>
